<svg width="108" height="10" viewBox="0 0 108 10" fill="none" xmlns="http://www.w3.org/2000/svg">
<path d="M9.69012 3.94393L8.89652 3.5497C8.7497 3.47875 8.56755 3.53471 8.4966 3.68152C8.4217 3.8323 8.48161 4.01048 8.62842 4.08143L9.25933 4.39286L9.26427 6.29109L7.77819 6.29891L7.76762 2.23298C7.76556 1.44041 7.23351 1.0455 6.57566 1.04721L3.40535 1.05544C2.74751 1.05715 2.21751 1.45482 2.21957 2.2474L2.23631 8.68711L1.64187 8.68865C1.47939 8.68907 1.34501 8.82416 1.34543 8.98664C1.34585 9.14912 1.48094 9.28351 1.64342 9.28309L8.38034 9.26558C8.54282 9.26516 8.67721 9.13007 8.67678 8.96759C8.67636 8.80511 8.54127 8.67072 8.37879 8.67114L7.78436 8.67269L7.77974 6.89335L9.56303 6.88475C9.72947 6.88432 9.85989 6.74924 9.85947 6.58676L9.85329 4.20902C9.853 4.09806 9.78933 3.99519 9.69012 3.94393ZM3.21224 2.99382C3.21081 2.44297 3.54714 2.24395 3.95928 2.24288L6.03188 2.2375C6.44005 2.23643 6.77741 2.4337 6.77885 2.98455L6.78011 3.47198C6.78153 4.01886 6.4452 4.21788 6.03306 4.21895L3.96443 4.22433C3.55229 4.2254 3.21493 4.02813 3.2135 3.47729L3.21224 2.99382ZM3.41591 5.11741L4.60477 5.11432C4.76725 5.1139 4.90234 5.24829 4.90276 5.41077C4.90319 5.57325 4.7688 5.70833 4.60632 5.70876L3.41745 5.71185C3.25497 5.71227 3.11988 5.57788 3.11946 5.4154C3.11904 5.25292 3.25343 5.11783 3.41591 5.11741Z" fill="#90A3BF"/>
<path d="M15.2747 7.29858C14.9973 7.2993 14.7512 7.24446 14.5363 7.13406C14.3252 7.02365 14.1584 6.87428 14.0359 6.68596C13.917 6.49394 13.8573 6.27957 13.8566 6.04285C13.856 5.77655 13.9293 5.54333 14.0767 5.34322C14.2242 5.14311 14.4272 5.00018 14.6859 4.91443L14.6752 5.05316C14.479 4.976 14.3251 4.85249 14.2137 4.68264C14.106 4.50908 14.0519 4.32244 14.0514 4.12271C14.0508 3.91188 14.1021 3.72496 14.2053 3.56195C14.3121 3.39893 14.456 3.27095 14.637 3.17801C14.8217 3.08136 15.0306 3.03274 15.2636 3.03213C15.4966 3.03152 15.7038 3.07722 15.8853 3.16922C16.0668 3.26121 16.2095 3.3903 16.3135 3.55647C16.4212 3.71893 16.4753 3.90558 16.4759 4.11641C16.4764 4.32723 16.4196 4.51601 16.3054 4.68275C16.1948 4.84948 16.0472 4.97377 15.8625 5.05563L15.8455 4.91142C16.1083 4.99581 16.3139 5.13952 16.4624 5.34257C16.6109 5.54191 16.6855 5.77289 16.6861 6.0355C16.6868 6.27222 16.6263 6.4869 16.5047 6.67955C16.3869 6.86849 16.2208 7.01872 16.0066 7.13024C15.796 7.24175 15.5521 7.29786 15.2747 7.29858ZM15.2734 6.827C15.4473 6.82655 15.5988 6.79286 15.7281 6.72595C15.8574 6.65904 15.957 6.56631 16.027 6.44777C16.1007 6.32552 16.1373 6.18672 16.1369 6.03138C16.1365 5.87233 16.0991 5.73373 16.0248 5.61556C15.9542 5.49369 15.8541 5.40148 15.7245 5.33894C15.5949 5.2727 15.4432 5.2398 15.2693 5.24026C15.0955 5.24071 14.9421 5.27439 14.8091 5.34132C14.6798 5.40453 14.5802 5.49726 14.5102 5.6195C14.4402 5.73804 14.4055 5.87683 14.4059 6.03588C14.4063 6.19122 14.4418 6.32983 14.5124 6.45171C14.583 6.56988 14.6831 6.66209 14.8127 6.72833C14.946 6.79456 15.0996 6.82745 15.2734 6.827ZM15.2681 4.76867C15.3938 4.76834 15.5047 4.74032 15.6008 4.68458C15.7005 4.62884 15.7798 4.55466 15.8388 4.46204C15.8977 4.36572 15.927 4.25468 15.9267 4.12893C15.9263 4.00317 15.8965 3.89414 15.837 3.80182C15.7776 3.70951 15.6979 3.63759 15.5979 3.58607C15.5016 3.53084 15.3906 3.50339 15.2648 3.50371C15.1354 3.50405 15.0208 3.53209 14.921 3.58783C14.8213 3.63987 14.742 3.7122 14.683 3.80482C14.6241 3.89744 14.5948 4.00663 14.5951 4.13239C14.5954 4.25815 14.6253 4.36903 14.6848 4.46504C14.7442 4.55736 14.8239 4.63112 14.9239 4.68634C15.0239 4.74156 15.1386 4.76901 15.2681 4.76867ZM19.0302 7.28882C18.701 7.28968 18.4123 7.20166 18.164 7.02477C17.9194 6.84416 17.7283 6.595 17.5906 6.27726C17.4529 5.95583 17.3835 5.58244 17.3824 5.15709C17.3813 4.73174 17.4488 4.35984 17.5848 4.0414C17.7208 3.71926 17.9106 3.4691 18.1543 3.29093C18.3979 3.11275 18.6844 3.02324 19.0135 3.02238C19.3427 3.02153 19.6296 3.10955 19.8742 3.28646C20.1188 3.46336 20.3099 3.71253 20.4476 4.03396C20.589 4.35168 20.6602 4.72322 20.6613 5.14857C20.6624 5.57392 20.595 5.94767 20.4589 6.26981C20.3229 6.59195 20.1312 6.84211 19.8839 7.0203C19.6402 7.19847 19.3557 7.28798 19.0302 7.28882ZM19.0289 6.78395C19.2508 6.78337 19.443 6.7163 19.6053 6.58272C19.7677 6.44545 19.893 6.25464 19.9811 6.01029C20.073 5.76594 20.1185 5.47917 20.1176 5.14998C20.1167 4.8208 20.0698 4.53427 19.9767 4.29039C19.8873 4.04651 19.7592 3.85821 19.5924 3.72549C19.4293 3.59276 19.2368 3.52668 19.0149 3.52726C18.7929 3.52783 18.6008 3.59491 18.4384 3.72849C18.276 3.86206 18.1489 4.05103 18.057 4.29538C17.9689 4.53973 17.9253 4.82649 17.9261 5.15568C17.927 5.48116 17.9721 5.76585 18.0615 6.00973C18.1546 6.25361 18.2827 6.44376 18.4458 6.58019C18.6126 6.71661 18.8069 6.78453 19.0289 6.78395ZM21.4913 7.21585L21.4806 3.08255L22.0243 3.08114L22.0337 6.71511L23.8479 6.7104L23.8492 7.20972L21.4913 7.21585Z" fill="#90A3BF"/>
<g clip-path="url(#clip0_20_7688)">
<path d="M36.0994 0.970414C33.9119 0.976099 32.1411 2.75609 32.1468 4.94361C32.1525 7.13113 33.9324 8.90189 36.12 8.8962C38.3075 8.89052 40.0782 7.11053 40.0726 4.92301C40.0669 2.73549 38.2909 0.964718 36.0994 0.970414Z" fill="#90A3BF"/>
<rect x="32.9312" y="1.77124" width="6.34065" height="6.34065" rx="3.17033" transform="rotate(-0.148906 32.9312 1.77124)" fill="white"/>
<path d="M36.1034 2.55565C34.7909 2.55906 33.7285 3.62705 33.7319 4.93957C33.7353 6.25208 34.8033 7.31453 36.1158 7.31112C37.4283 7.30771 38.4908 6.23972 38.4874 4.92721C38.484 3.6147 37.4183 2.55223 36.1034 2.55565Z" fill="#90A3BF"/>
<rect x="34.5204" y="3.35223" width="3.17033" height="3.17033" rx="1.58516" transform="rotate(-0.148906 34.5204 3.35223)" fill="white"/>
<rect x="35.7185" y="6.91583" width="0.792582" height="1.58516" transform="rotate(-0.148906 35.7185 6.91583)" fill="#90A3BF"/>
<rect x="38.0901" y="4.5318" width="1.58516" height="0.792582" transform="rotate(-0.148906 38.0901 4.5318)" fill="#90A3BF"/>
<rect x="32.542" y="4.5462" width="1.58516" height="0.792582" transform="rotate(-0.148906 32.542 4.5462)" fill="#90A3BF"/>
</g>
<path d="M44.5018 7.15613L44.491 3.02283L44.9903 3.02153L46.544 5.22008L46.2888 5.22075L47.8198 3.01418L48.3192 3.01288L48.3299 7.14618L47.7807 7.14761L47.7717 3.70227L47.966 3.76279L46.4349 5.93052L46.3905 5.93064L44.8647 3.77085L45.0365 3.70937L45.0455 7.15472L44.5018 7.15613ZM50.0637 7.20825C49.8676 7.20876 49.6937 7.17407 49.5419 7.10419C49.3937 7.0306 49.277 6.93104 49.1916 6.80551C49.1062 6.67627 49.0633 6.52844 49.0628 6.36199C49.0624 6.20295 49.0953 6.06046 49.1616 5.93453C49.2315 5.8049 49.3385 5.69551 49.4825 5.60636C49.6302 5.51721 49.815 5.45385 50.0368 5.41629L51.146 5.23032L51.1471 5.66307L50.1544 5.83209C49.9622 5.86588 49.8218 5.92727 49.7332 6.01627C49.6484 6.10526 49.6061 6.21448 49.6065 6.34394C49.6068 6.46599 49.6551 6.56758 49.7515 6.6487C49.8516 6.72982 49.9756 6.77018 50.1236 6.7698C50.3122 6.76931 50.4748 6.73005 50.6115 6.65202C50.7518 6.57028 50.8607 6.46089 50.938 6.32383C51.019 6.18677 51.0593 6.03502 51.0588 5.86857L51.0569 5.10849C51.0565 4.94575 50.9951 4.8146 50.8728 4.71505C50.7541 4.6118 50.5968 4.56043 50.4008 4.56093C50.2306 4.56138 50.0791 4.60616 49.9462 4.69527C49.8169 4.78068 49.7211 4.89559 49.6586 5.04L49.2086 4.80815C49.2637 4.67115 49.3522 4.54887 49.4739 4.44129C49.5957 4.33001 49.7379 4.24272 49.9005 4.17942C50.063 4.11612 50.2331 4.08424 50.4106 4.08377C50.64 4.08318 50.8416 4.12704 51.0157 4.21536C51.1898 4.29997 51.3251 4.41983 51.4217 4.57493C51.5219 4.72631 51.5723 4.90372 51.5728 5.10715L51.5781 7.13774L51.0732 7.13905L51.0718 6.57315L51.1662 6.60619C51.1036 6.72471 51.0188 6.8285 50.9118 6.91755C50.8047 7.00659 50.6792 7.0772 50.5351 7.12935C50.3909 7.18151 50.2338 7.20781 50.0637 7.20825ZM52.3781 7.13566L52.3704 4.14526L52.8752 4.14395L52.8767 4.72649L52.7934 4.67677C52.8669 4.48795 52.9849 4.34154 53.1473 4.23756C53.3135 4.12986 53.5075 4.07573 53.7295 4.07515C53.944 4.07459 54.1346 4.12218 54.3013 4.21791C54.4717 4.31364 54.6052 4.44644 54.7018 4.61633C54.8021 4.78621 54.8525 4.97842 54.8531 5.19294L54.8581 7.12921L54.3366 7.13057L54.332 5.36074C54.3316 5.1943 54.3016 5.05382 54.2421 4.93932C54.1826 4.82481 54.0973 4.73626 53.9862 4.67367C53.8788 4.60738 53.7548 4.57441 53.6142 4.57478C53.4737 4.57514 53.348 4.60876 53.2372 4.67562C53.1301 4.73878 53.0453 4.82962 52.9827 4.94814C52.9201 5.06296 52.8891 5.20175 52.8895 5.36449L52.8941 7.13432L52.3781 7.13566ZM56.6563 7.19112C56.4418 7.19167 56.2474 7.14225 56.0733 7.04283C55.9029 6.94341 55.7694 6.80506 55.6728 6.62777C55.5799 6.44677 55.5331 6.23976 55.5325 6.00675L55.5276 4.13705L56.0436 4.13571L56.0483 5.94992C56.0487 6.09787 56.0786 6.22725 56.1381 6.33806C56.2013 6.44886 56.2866 6.53555 56.394 6.59815C56.5051 6.66074 56.6309 6.69185 56.7715 6.69149C56.912 6.69112 57.0359 6.65936 57.143 6.59621C57.2538 6.53304 57.3386 6.4422 57.3975 6.32369C57.46 6.20517 57.4911 6.06453 57.4907 5.90179L57.4861 4.13196L58.0076 4.13061L58.0154 7.12101L57.5105 7.12232L57.509 6.53977L57.5923 6.58949C57.5226 6.77831 57.4027 6.92657 57.2329 7.03427C57.0667 7.13827 56.8745 7.19055 56.6563 7.19112ZM59.6915 7.18323C59.4955 7.18374 59.3215 7.14905 59.1697 7.07917C59.0216 7.00558 58.9048 6.90602 58.8194 6.78048C58.734 6.65125 58.6911 6.50341 58.6906 6.33697C58.6902 6.17793 58.7231 6.03544 58.7894 5.90951C58.8593 5.77987 58.9663 5.67048 59.1103 5.58134C59.258 5.49219 59.4428 5.42883 59.6646 5.39126L60.7738 5.2053L60.7749 5.63804L59.7822 5.80707C59.59 5.84085 59.4496 5.90225 59.3611 5.99125C59.2762 6.08024 59.234 6.18946 59.2343 6.31891C59.2346 6.44097 59.283 6.54256 59.3793 6.62368C59.4794 6.70479 59.6034 6.74516 59.7514 6.74477C59.94 6.74428 60.1027 6.70502 60.2393 6.627C60.3797 6.54526 60.4885 6.43586 60.5658 6.29881C60.6468 6.16175 60.6871 6.00999 60.6867 5.84355L60.6847 5.08347C60.6843 4.92073 60.6229 4.78958 60.5006 4.69003C60.382 4.58678 60.2246 4.5354 60.0286 4.53591C59.8585 4.53636 59.7069 4.58113 59.574 4.67025C59.4448 4.75566 59.3489 4.87057 59.2864 5.01498L58.8364 4.78313C58.8915 4.64613 58.98 4.52384 59.1018 4.41626C59.2235 4.30499 59.3657 4.2177 59.5283 4.1544C59.6909 4.09109 59.8609 4.05921 60.0385 4.05875C60.2678 4.05816 60.4695 4.10202 60.6435 4.19033C60.8176 4.27495 60.9529 4.39481 61.0495 4.5499C61.1497 4.70129 61.2001 4.8787 61.2007 5.08213L61.2059 7.11272L60.7011 7.11403L60.6996 6.54813L60.794 6.58117C60.7314 6.69969 60.6466 6.80348 60.5396 6.89252C60.4326 6.98157 60.307 7.05217 60.1629 7.10433C60.0188 7.15649 59.8616 7.18279 59.6915 7.18323ZM62.0059 7.11064L61.995 2.91076L62.511 2.90942L62.5219 7.1093L62.0059 7.11064Z" fill="#90A3BF"/>
<path d="M74.9356 0.869498C73.8973 0.872196 73.0554 1.71849 73.0581 2.75676C73.0608 3.77523 73.8594 4.59744 74.8978 4.63041C74.9295 4.62636 74.9612 4.62628 74.985 4.63018C74.9929 4.63016 74.9969 4.63015 75.0048 4.63013C75.0088 4.63012 75.0088 4.63012 75.0127 4.63011C76.0271 4.59181 76.8215 3.76545 76.8229 2.74698C76.8202 1.7087 75.9739 0.866799 74.9356 0.869498Z" fill="#90A3BF"/>
<path d="M76.9613 5.6792C75.8538 4.94497 74.0506 4.94966 72.939 5.68965C72.4366 6.0278 72.1604 6.48426 72.1616 6.97169C72.1629 7.45913 72.4415 7.91018 72.9417 8.24176C73.4974 8.61283 74.2271 8.7972 74.9563 8.7953C75.6854 8.79341 76.4141 8.60525 76.968 8.2313C77.4664 7.89316 77.7426 7.44067 77.7414 6.94927C77.7361 6.46184 77.4615 6.01078 76.9613 5.6792Z" fill="#90A3BF"/>
<path d="M79.2963 2.97434C79.3617 3.74298 78.8166 4.41809 78.0599 4.51121C78.056 4.51122 78.056 4.51122 78.052 4.51123L78.0401 4.51126C78.0163 4.51132 77.9926 4.51138 77.9728 4.51936C77.5884 4.54017 77.2354 4.41824 76.9693 4.19305C77.3765 3.8274 77.6089 3.27991 77.5598 2.6856C77.5312 2.36468 77.4195 2.07171 77.2524 1.82248C77.4028 1.7468 77.5771 1.69879 77.7554 1.68247C78.5319 1.61309 79.2269 2.18987 79.2963 2.97434Z" fill="#90A3BF"/>
<path d="M80.0985 6.63795C80.0678 7.02243 79.8229 7.35595 79.4114 7.58291C79.0157 7.8019 78.5166 7.90623 78.0212 7.89563C78.3059 7.6373 78.4715 7.31587 78.5023 6.97498C78.5406 6.48348 78.3056 6.0125 77.837 5.63724C77.571 5.4279 77.2614 5.26226 76.9242 5.14029C77.7994 4.88439 78.9015 5.05193 79.5806 5.59705C79.9459 5.88935 80.1332 6.25742 80.0985 6.63795Z" fill="#90A3BF"/>
<path d="M85.3403 7.11647C85.074 7.11717 84.8371 7.0586 84.6297 6.94078C84.426 6.82295 84.2646 6.66248 84.1458 6.45935C84.0269 6.25254 83.9671 6.01782 83.9664 5.75521C83.966 5.61096 83.9823 5.46852 84.0152 5.32788C84.0481 5.18725 84.1014 5.04471 84.175 4.90027C84.2486 4.75582 84.3425 4.60578 84.4568 4.45014L85.6179 2.91585L86.2726 2.91415L84.8515 4.7709L84.7516 4.76006C84.8069 4.68595 84.8678 4.62846 84.9343 4.5876C85.0044 4.54673 85.0783 4.51695 85.156 4.49825C85.2373 4.47955 85.3223 4.47008 85.4111 4.46985C85.6552 4.46922 85.8736 4.52598 86.0662 4.64014C86.2625 4.75059 86.4164 4.90369 86.5279 5.09943C86.6431 5.29516 86.701 5.52063 86.7017 5.77585C86.7023 6.03106 86.6437 6.26053 86.5259 6.46427C86.4081 6.6643 86.2457 6.82377 86.0389 6.94267C85.8358 7.05786 85.6029 7.11579 85.3403 7.11647ZM85.339 6.62824C85.4944 6.62784 85.633 6.59234 85.7549 6.52175C85.8767 6.44746 85.9726 6.34549 86.0426 6.21586C86.1162 6.08621 86.1528 5.94186 86.1524 5.78282C86.152 5.61638 86.1165 5.47222 86.0459 5.35035C85.9753 5.22477 85.8788 5.12516 85.7566 5.0515C85.6343 4.97784 85.4937 4.94122 85.3347 4.94164C85.1793 4.94204 85.0389 4.97939 84.9133 5.05369C84.7877 5.12799 84.69 5.22811 84.62 5.35405C84.5501 5.47629 84.5153 5.62063 84.5157 5.78707C84.5161 5.94612 84.5517 6.09028 84.6223 6.21955C84.6966 6.34881 84.7949 6.45027 84.9171 6.52393C85.0431 6.59388 85.1837 6.62865 85.339 6.62824ZM88.4109 7.04192L88.4002 2.90862L89.8593 2.90482C90.133 2.90411 90.3735 2.95527 90.5809 3.0583C90.7883 3.16132 90.9496 3.30885 91.0648 3.50088C91.1836 3.69291 91.2434 3.91838 91.2441 4.17729C91.2447 4.4362 91.1862 4.66197 91.0683 4.85461C90.9541 5.04354 90.7936 5.19191 90.5868 5.29971C90.3836 5.4038 90.1433 5.45621 89.8659 5.45693L88.9505 5.45931L88.9546 7.0405L88.4109 7.04192ZM88.9492 4.95998L89.8813 4.95756C90.0477 4.95713 90.1919 4.92531 90.3138 4.86212C90.4357 4.79892 90.5297 4.70806 90.596 4.58953C90.6623 4.471 90.6952 4.33406 90.6948 4.17871C90.6944 4.01967 90.6608 3.8829 90.5939 3.76842C90.527 3.65023 90.4324 3.55986 90.3102 3.4973C90.188 3.43474 90.0437 3.40367 89.8772 3.40411L88.9452 3.40653L88.9492 4.95998ZM93.1935 7.09606C92.905 7.09681 92.6478 7.02906 92.4218 6.89279C92.1958 6.75652 92.0178 6.5702 91.8877 6.33382C91.7576 6.09374 91.6922 5.82575 91.6914 5.52986C91.6907 5.23026 91.7528 4.96379 91.878 4.73045C92.0068 4.49709 92.1802 4.31356 92.3981 4.17983C92.6196 4.04241 92.8673 3.97334 93.141 3.97262C93.3629 3.97205 93.559 4.01222 93.7294 4.09315C93.9034 4.17037 94.0498 4.27726 94.1685 4.4138C94.2909 4.54664 94.3838 4.69989 94.4471 4.87357C94.5141 5.04354 94.5479 5.22099 94.5484 5.40592C94.5485 5.44661 94.5449 5.49285 94.5376 5.54465C94.5341 5.59275 94.5286 5.63899 94.5214 5.6834L92.0691 5.68977L92.068 5.24593L94.2206 5.24033L93.977 5.4407C94.0098 5.24828 93.9909 5.07634 93.9202 4.92487C93.8495 4.77341 93.7456 4.65347 93.6086 4.56506C93.4715 4.47664 93.316 4.43266 93.1422 4.43311C92.9683 4.43356 92.8094 4.47836 92.6654 4.56751C92.5214 4.65665 92.4089 4.78455 92.328 4.9512C92.2507 5.11415 92.2198 5.30841 92.2352 5.53399C92.2209 5.75225 92.2547 5.9445 92.3365 6.11073C92.422 6.27325 92.5407 6.40055 92.6926 6.49262C92.8482 6.58099 93.0166 6.62494 93.1978 6.62446C93.3975 6.62395 93.5657 6.57727 93.7023 6.48445C93.8389 6.39163 93.9496 6.27298 94.0343 6.12851L94.4676 6.34931C94.4088 6.48631 94.3166 6.61231 94.1912 6.7273C94.0694 6.83857 93.9236 6.92772 93.7536 6.99474C93.5873 7.06175 93.4006 7.09553 93.1935 7.09606ZM96.6458 7.08709C96.3573 7.08784 96.0964 7.02194 95.863 6.88939C95.6296 6.75315 95.4442 6.56684 95.3068 6.33048C95.1693 6.09412 95.1002 5.82614 95.0994 5.52655C95.0986 5.22695 95.1645 4.96047 95.297 4.72711C95.4333 4.49374 95.6177 4.30832 95.8504 4.17086C96.0831 4.03341 96.3455 3.9643 96.6377 3.96354C96.9262 3.96279 97.1871 4.03054 97.4205 4.16678C97.6539 4.29933 97.8374 4.48194 97.9712 4.71461C98.1086 4.94727 98.1778 5.21525 98.1786 5.51855C98.1793 5.82184 98.1098 6.09203 97.9698 6.32911C97.8299 6.56249 97.6436 6.74791 97.4109 6.88537C97.1819 7.01912 96.9269 7.08636 96.6458 7.08709ZM96.6445 6.58777C96.8294 6.58729 96.9958 6.54062 97.1435 6.44777C97.2949 6.35491 97.4129 6.22699 97.4976 6.06403C97.5859 5.90106 97.6298 5.7197 97.6293 5.51997C97.6288 5.31654 97.5839 5.13727 97.4947 4.98216C97.4093 4.82334 97.2906 4.69789 97.1387 4.60581C96.9905 4.51003 96.8239 4.46238 96.639 4.46286C96.4504 4.46335 96.2803 4.51188 96.1289 4.60844C95.9812 4.70129 95.8632 4.82735 95.7748 4.98663C95.6865 5.1422 95.6426 5.32171 95.6431 5.52514C95.6436 5.72487 95.6885 5.90599 95.7777 6.0685C95.8669 6.23101 95.9855 6.35831 96.1337 6.45039C96.2856 6.54246 96.4559 6.58826 96.6445 6.58777ZM98.8583 8.12438L98.8476 4.02437L99.3525 4.02306L99.3542 4.66663L99.2873 4.5392C99.3978 4.36137 99.5491 4.22043 99.7411 4.11637C99.9332 4.0086 100.153 3.9544 100.401 3.95376C100.682 3.95303 100.934 4.0208 101.156 4.15707C101.382 4.29334 101.56 4.47966 101.69 4.71604C101.82 4.94872 101.886 5.21486 101.886 5.51446C101.887 5.80666 101.823 6.07128 101.694 6.30833C101.565 6.54539 101.388 6.73263 101.163 6.87007C100.941 7.0075 100.688 7.07659 100.403 7.07733C100.163 7.07795 99.9429 7.02489 99.7429 6.91815C99.5465 6.81139 99.3945 6.66014 99.2867 6.46439L99.3697 6.3754L99.3743 8.12304L98.8583 8.12438ZM100.363 6.5781C100.552 6.57761 100.72 6.53094 100.868 6.43809C101.016 6.34524 101.13 6.21918 101.211 6.05993C101.296 5.89696 101.338 5.71562 101.337 5.51589C101.337 5.30876 101.294 5.12763 101.208 4.97251C101.126 4.81368 101.011 4.68822 100.863 4.59613C100.715 4.50035 100.546 4.45271 100.358 4.4532C100.169 4.45369 99.9992 4.50036 99.8478 4.59322C99.7001 4.68608 99.582 4.81399 99.4937 4.97696C99.409 5.13623 99.367 5.31758 99.3675 5.521C99.368 5.72073 99.411 5.90186 99.4965 6.06438C99.5857 6.2232 99.7044 6.34864 99.8526 6.44073C100.004 6.5328 100.175 6.57859 100.363 6.5781ZM102.567 7.00513L102.556 2.80525L103.072 2.80391L103.083 7.00379L102.567 7.00513ZM105.259 7.06471C104.971 7.06545 104.714 6.9977 104.488 6.86143C104.262 6.72517 104.084 6.53884 103.954 6.30246C103.824 6.06238 103.758 5.7944 103.757 5.4985C103.757 5.1989 103.819 4.93243 103.944 4.69909C104.073 4.46573 104.246 4.2822 104.464 4.14848C104.686 4.01105 104.933 3.94198 105.207 3.94127C105.429 3.94069 105.625 3.98087 105.795 4.0618C105.969 4.13902 106.116 4.2459 106.234 4.38244C106.357 4.51528 106.45 4.66854 106.513 4.84221C106.58 5.01218 106.614 5.18963 106.614 5.37456C106.614 5.41525 106.611 5.46149 106.604 5.51329C106.6 5.56139 106.595 5.60764 106.587 5.65204L104.135 5.65841L104.134 5.21457L106.287 5.20897L106.043 5.40934C106.076 5.21692 106.057 5.04498 105.986 4.89351C105.915 4.74205 105.812 4.62211 105.674 4.5337C105.537 4.44528 105.382 4.4013 105.208 4.40175C105.034 4.40221 104.875 4.447 104.731 4.53615C104.587 4.62529 104.475 4.75319 104.394 4.91984C104.317 5.08279 104.286 5.27705 104.301 5.50263C104.287 5.7209 104.321 5.91314 104.402 6.07937C104.488 6.24189 104.607 6.36919 104.759 6.46127C104.914 6.54963 105.083 6.59358 105.264 6.59311C105.463 6.59259 105.632 6.54592 105.768 6.45309C105.905 6.36027 106.016 6.24162 106.1 6.09715L106.534 6.31795C106.475 6.45496 106.383 6.58095 106.257 6.69594C106.135 6.80722 105.989 6.89637 105.82 6.96338C105.653 7.03039 105.467 7.06417 105.259 7.06471Z" fill="#90A3BF"/>
<defs>
<clipPath id="clip0_20_7688">
<rect width="9.51098" height="9.51098" fill="white" transform="translate(31.3417 0.190247) rotate(-0.148906)"/>
</clipPath>
</defs>
</svg>
