<svg width="231" height="54" viewBox="0 0 231 54" fill="none" xmlns="http://www.w3.org/2000/svg">
<g clip-path="url(#clip0_20_6399)">
<rect x="0.746155" y="1.11365" width="229.553" height="53.6413" rx="3.94421" transform="rotate(-0.197882 0.746155 1.11365)" fill="white"/>
<rect x="19.7137" y="11.3032" width="6.31074" height="6.31074" rx="3.15537" transform="rotate(-0.197882 19.7137 11.3032)" fill="#5CAFFC" fill-opacity="0.3"/>
<circle cx="22.8799" cy="14.4476" r="1.57769" transform="rotate(-0.197882 22.8799 14.4476)" fill="#5CAFFC"/>
<path d="M29.6871 17.48L29.6709 12.7785L31.2107 12.7732C31.6987 12.7715 32.1219 12.8689 32.4802 13.0654C32.8426 13.2577 33.1234 13.5302 33.3223 13.8829C33.5213 14.2356 33.6215 14.6455 33.6232 15.1125C33.6248 15.5752 33.5273 15.9858 33.3308 16.3441C33.1343 16.6981 32.8555 16.9747 32.4943 17.1737C32.1374 17.3726 31.7149 17.473 31.2269 17.4747L29.6871 17.48ZM30.4295 16.8148L31.2372 16.812C31.5696 16.8108 31.8576 16.7404 32.1011 16.6007C32.3488 16.4611 32.5396 16.2648 32.6733 16.0119C32.8071 15.759 32.8734 15.46 32.8722 15.115C32.871 14.7701 32.8006 14.4737 32.6609 14.226C32.5254 13.974 32.3354 13.779 32.0909 13.641C31.8464 13.503 31.5579 13.4346 31.2256 13.4358L30.4178 13.4385L30.4295 16.8148ZM34.169 17.4645L34.1572 14.0504L34.8388 14.048L34.8412 14.7359L34.7777 14.6352C34.8527 14.4119 34.9741 14.2516 35.1421 14.1543C35.31 14.0527 35.5118 14.0015 35.7474 14.0007L35.9556 14L35.9579 14.65L35.6613 14.651C35.4257 14.6519 35.2345 14.7261 35.0878 14.8739C34.9452 15.0174 34.8744 15.2238 34.8753 15.4931L34.8821 17.462L34.169 17.4645ZM37.9766 17.5271C37.6484 17.5282 37.3473 17.4514 37.0733 17.2967C36.8035 17.142 36.5882 16.9302 36.4274 16.6615C36.2666 16.3928 36.1857 16.0881 36.1845 15.7473C36.1833 15.4023 36.2622 15.097 36.4211 14.8314C36.5801 14.5616 36.7939 14.3505 37.0626 14.1981C37.3314 14.0415 37.6319 13.9627 37.9643 13.9615C38.3008 13.9604 38.6019 14.0372 38.8675 14.1919C39.1373 14.3424 39.3505 14.5521 39.5071 14.8208C39.6678 15.0853 39.7488 15.39 39.75 15.735C39.7512 16.08 39.6723 16.3874 39.5134 16.6572C39.3545 16.927 39.1406 17.1402 38.8719 17.2968C38.6032 17.4492 38.3047 17.5259 37.9766 17.5271ZM37.9743 16.8644C38.1762 16.8637 38.3549 16.8147 38.5102 16.7174C38.6655 16.6201 38.7871 16.4872 38.8748 16.3186C38.9668 16.1458 39.0124 15.9521 39.0117 15.7375C39.0109 15.523 38.964 15.3317 38.8709 15.1637C38.7819 14.9958 38.6595 14.8637 38.5035 14.7674C38.3475 14.6712 38.1685 14.6234 37.9665 14.6241C37.7688 14.6248 37.5902 14.6738 37.4306 14.7711C37.2753 14.8684 37.1517 15.0014 37.0597 15.17C36.9719 15.3386 36.9284 15.5302 36.9291 15.7447C36.9299 15.9593 36.9747 16.1527 37.0637 16.3249C37.1568 16.4928 37.2814 16.6249 37.4374 16.7212C37.5976 16.8174 37.7765 16.8651 37.9743 16.8644ZM40.3303 18.7054L40.3141 14.0291L40.9957 14.0268L40.9981 14.7336L40.9155 14.5698C41.0411 14.3758 41.2088 14.2238 41.4188 14.1137C41.6288 14.0036 41.8684 13.948 42.1377 13.9471C42.4616 13.946 42.7522 14.0228 43.0093 14.1776C43.2707 14.3324 43.4755 14.5441 43.6237 14.8129C43.7761 15.0816 43.8528 15.3842 43.854 15.7208C43.8552 16.0574 43.7805 16.3606 43.63 16.6303C43.4836 16.9001 43.2824 17.1154 43.0263 17.2761C42.7703 17.4327 42.4781 17.5115 42.15 17.5127C41.8849 17.5136 41.6428 17.4597 41.4237 17.3511C41.2087 17.2424 41.042 17.0852 40.9235 16.8795L41.0366 16.7466L41.0434 18.7029L40.3303 18.7054ZM42.0783 16.8503C42.2802 16.8496 42.4588 16.8006 42.6142 16.7033C42.7695 16.606 42.891 16.473 42.9788 16.3044C43.0708 16.1316 43.1164 15.9379 43.1156 15.7234C43.1149 15.5088 43.068 15.3175 42.9748 15.1496C42.8859 14.9816 42.7634 14.8495 42.6074 14.7533C42.4514 14.657 42.2725 14.6093 42.0705 14.61C41.8728 14.6107 41.6942 14.6597 41.5346 14.757C41.3793 14.8543 41.2556 14.9872 41.1637 15.1558C41.0759 15.3244 41.0324 15.516 41.0331 15.7306C41.0339 15.9451 41.0787 16.1385 41.1676 16.3107C41.2608 16.4787 41.3854 16.6108 41.5413 16.707C41.7016 16.8032 41.8805 16.851 42.0783 16.8503ZM45.5068 16.0307L45.5046 15.3996L48.0289 15.3909L48.0311 16.0219L45.5068 16.0307ZM52.1836 17.478C51.8428 17.4792 51.525 17.4193 51.23 17.2983C50.9393 17.1773 50.6821 17.0078 50.4584 16.7898C50.2388 16.5718 50.0655 16.3157 49.9382 16.0217C49.8152 15.7276 49.7531 15.4059 49.7519 15.0568C49.7507 14.7076 49.8106 14.3855 49.9316 14.0906C50.0567 13.7914 50.2284 13.5342 50.4464 13.3189C50.6644 13.0994 50.9205 12.9302 51.2145 12.8114C51.5086 12.6883 51.8261 12.6262 52.1668 12.6251C52.5118 12.6239 52.8297 12.6838 53.1204 12.8048C53.4153 12.9216 53.6725 13.089 53.892 13.307C54.1158 13.525 54.2891 13.781 54.4122 14.0751C54.5352 14.3692 54.5973 14.6908 54.5985 15.04C54.5997 15.3892 54.5377 15.7113 54.4125 16.0062C54.2915 16.3011 54.122 16.5583 53.904 16.7779C53.686 16.9974 53.43 17.1687 53.1359 17.2917C52.8418 17.4147 52.5244 17.4768 52.1836 17.478ZM52.1812 16.7964C52.4253 16.7956 52.6481 16.7507 52.8497 16.6616C53.0556 16.5725 53.2339 16.4499 53.3849 16.2937C53.5358 16.1333 53.6529 15.9478 53.7363 15.7372C53.8197 15.5223 53.861 15.2908 53.8602 15.0426C53.8593 14.7943 53.8164 14.5652 53.7316 14.3551C53.6467 14.1451 53.5283 13.9604 53.3763 13.801C53.2242 13.6417 53.045 13.5182 52.8386 13.4305C52.6363 13.3429 52.4132 13.2995 52.1692 13.3003C51.9251 13.3012 51.7002 13.3461 51.4944 13.4352C51.2927 13.5242 51.1165 13.6489 50.9656 13.8093C50.8147 13.9697 50.6975 14.1553 50.6141 14.3659C50.5349 14.5765 50.4957 14.806 50.4966 15.0542C50.4974 15.3024 50.5382 15.5337 50.6189 15.7479C50.7037 15.958 50.8222 16.1427 50.9742 16.3021C51.1262 16.4572 51.3054 16.5786 51.5118 16.6662C51.7183 16.7539 51.9414 16.7973 52.1812 16.7964ZM55.6285 17.3904L55.619 14.62L54.9879 14.6222L54.9857 13.9785L55.6167 13.9763L55.6161 13.7996C55.6152 13.5429 55.6671 13.3282 55.7717 13.1553C55.8762 12.9783 56.0209 12.8432 56.2057 12.75C56.3947 12.6567 56.6112 12.6097 56.8552 12.6089C56.9015 12.6087 56.9541 12.6127 57.0131 12.621C57.072 12.625 57.1204 12.6311 57.1583 12.6394L57.1604 13.2578C57.1267 13.2495 57.0888 13.2455 57.0468 13.2456C57.0047 13.2415 56.971 13.2396 56.9458 13.2396C56.7564 13.2403 56.6051 13.285 56.4919 13.3737C56.3786 13.4583 56.3222 13.5994 56.3229 13.7971L56.3235 13.9738L57.958 13.9682L57.9602 14.6119L56.3258 14.6175L56.3353 17.3879L55.6285 17.3904ZM58.096 17.3819L58.0864 14.6115L57.4617 14.6136L57.4595 13.9699L58.0842 13.9678L58.0836 13.7911C58.0827 13.5344 58.1346 13.3197 58.2392 13.1468C58.3479 12.9697 58.4947 12.8346 58.6795 12.7414C58.8685 12.6482 59.0829 12.6012 59.3227 12.6004C59.3732 12.6002 59.4279 12.6042 59.4868 12.6124C59.5458 12.6164 59.5942 12.6226 59.6321 12.6308L59.6342 13.2493C59.5963 13.241 59.5563 13.2369 59.5142 13.2371C59.4764 13.233 59.4427 13.231 59.4133 13.2311C59.2239 13.2318 59.0726 13.2765 58.9593 13.3652C58.8502 13.4497 58.796 13.5909 58.7967 13.7886L58.7973 13.9653L59.5799 13.9626L59.5821 14.6063L58.7996 14.609L58.8091 17.3794L58.096 17.3819Z" fill="#1A202C"/>
<path d="M20.2386 31.7118L20.2223 27.0104L21.0806 27.0074L21.0942 30.9516L23.1073 30.9446L23.1099 31.7019L20.2386 31.7118ZM25.2746 31.7702C24.938 31.7713 24.6306 31.6946 24.3524 31.5399C24.0784 31.3851 23.8589 31.1734 23.6939 30.9047C23.5331 30.636 23.4521 30.3292 23.4509 29.9842C23.4497 29.6392 23.5286 29.3318 23.6875 29.062C23.8507 28.7922 24.0687 28.579 24.3416 28.4224C24.6146 28.2658 24.9214 28.1869 25.2622 28.1857C25.5988 28.1845 25.904 28.2613 26.178 28.416C26.452 28.5707 26.6694 28.7825 26.8302 29.0512C26.9952 29.3156 27.0783 29.6225 27.0795 29.9717C27.0807 30.3167 26.9998 30.6241 26.8366 30.8939C26.6735 31.1637 26.4554 31.3769 26.1825 31.5335C25.9096 31.6901 25.6069 31.769 25.2746 31.7702ZM25.2719 31.0129C25.4571 31.0122 25.6189 30.9675 25.7574 30.8787C25.9002 30.7898 26.0112 30.6674 26.0906 30.5115C26.1742 30.3513 26.2157 30.1724 26.215 29.9747C26.2143 29.7727 26.1716 29.5962 26.0869 29.445C26.0065 29.2896 25.8945 29.168 25.7512 29.0801C25.612 28.988 25.4499 28.9423 25.2648 28.943C25.0755 28.9436 24.9095 28.9905 24.7667 29.0835C24.624 29.1724 24.5108 29.2948 24.4272 29.4507C24.3478 29.6025 24.3084 29.7793 24.3091 29.9812C24.3098 30.179 24.3504 30.3576 24.4309 30.5172C24.5156 30.6726 24.6296 30.7942 24.7729 30.8821C24.9163 30.9699 25.0826 31.0135 25.2719 31.0129ZM29.3661 31.756C29.0253 31.7572 28.7179 31.6804 28.4439 31.5257C28.1741 31.3668 27.9609 31.1529 27.8043 30.8842C27.6477 30.6113 27.5688 30.3045 27.5676 29.9637C27.5664 29.6229 27.6432 29.3176 27.798 29.0478C27.9527 28.778 28.1644 28.5648 28.4331 28.4082C28.7061 28.2516 29.0129 28.1727 29.3537 28.1716C29.5977 28.1707 29.825 28.2141 30.0357 28.3017C30.2463 28.3851 30.4277 28.5023 30.5796 28.6533C30.7358 28.8 30.8479 28.9763 30.9159 29.1822L30.1913 29.5002C30.1276 29.328 30.0198 29.1895 29.868 29.0848C29.7204 28.9802 29.5498 28.9282 29.3563 28.9288C29.1754 28.9295 29.0136 28.9742 28.8708 29.063C28.7323 29.1519 28.6233 29.2743 28.5439 29.4302C28.4645 29.5861 28.4252 29.7651 28.4259 29.967C28.4266 30.169 28.4672 30.3476 28.5476 30.503C28.6281 30.6584 28.7379 30.78 28.8771 30.8679C29.0204 30.9558 29.1825 30.9994 29.3635 30.9988C29.5612 30.9981 29.7335 30.9449 29.8804 30.8392C30.0273 30.7335 30.132 30.5922 30.1945 30.4153L30.9213 30.7409C30.8547 30.9347 30.7459 31.1097 30.595 31.2659C30.444 31.4178 30.2635 31.5384 30.0535 31.6274C29.8434 31.7123 29.6143 31.7552 29.3661 31.756ZM32.581 31.7449C32.3412 31.7458 32.1328 31.7065 31.9559 31.6272C31.7789 31.5479 31.6418 31.4347 31.5445 31.2878C31.4472 31.1367 31.3982 30.9623 31.3975 30.7645C31.3969 30.5752 31.4384 30.4068 31.522 30.2592C31.6056 30.1075 31.7356 29.9808 31.912 29.8793C32.0883 29.7777 32.311 29.7054 32.5801 29.6624L33.7028 29.4755L33.705 30.1066L32.74 30.274C32.576 30.304 32.4542 30.357 32.3745 30.433C32.2949 30.509 32.2552 30.608 32.2557 30.73C32.2561 30.8478 32.3006 30.9423 32.3892 31.0135C32.482 31.0805 32.5957 31.1138 32.7303 31.1133C32.9028 31.1127 33.0541 31.0765 33.1843 31.0045C33.3187 30.9283 33.4214 30.8249 33.4925 30.6942C33.5677 30.5635 33.6051 30.4203 33.6046 30.2647L33.6015 29.3812C33.601 29.2339 33.5417 29.1121 33.4236 29.0158C33.3096 28.9152 33.158 28.8652 32.9687 28.8659C32.792 28.8665 32.6344 28.9154 32.4959 29.0127C32.3616 29.1057 32.2631 29.2301 32.2005 29.386L31.5242 29.0602C31.5909 28.879 31.6955 28.723 31.8381 28.5921C31.9849 28.457 32.157 28.3512 32.3545 28.2748C32.5519 28.1984 32.7664 28.1598 32.9978 28.159C33.2797 28.158 33.5281 28.2097 33.743 28.3142C33.9579 28.4144 34.1246 28.5569 34.243 28.7416C34.3656 28.9221 34.4274 29.1343 34.4282 29.3783L34.4361 31.6628L33.6536 31.6655L33.6516 31.0786L33.8282 31.0654C33.7404 31.2129 33.6356 31.3374 33.514 31.4388C33.3923 31.536 33.2537 31.6122 33.0982 31.6674C32.9428 31.7184 32.7703 31.7443 32.581 31.7449ZM36.7038 31.6928C36.3167 31.6942 36.0155 31.59 35.8002 31.3804C35.5891 31.1666 35.4829 30.8661 35.4816 30.4791L35.4764 28.9645L34.8831 28.9665L34.8806 28.2282L34.9437 28.228C35.112 28.2274 35.2423 28.1828 35.3345 28.0941C35.4268 28.0054 35.4726 27.877 35.472 27.7087L35.4711 27.4436L36.2978 27.4408L36.3005 28.2233L37.0893 28.2206L37.0919 28.9589L36.3031 28.9616L36.3081 30.432C36.3085 30.5456 36.3278 30.6423 36.3659 30.7221C36.4083 30.8019 36.4716 30.8627 36.5559 30.9045C36.6444 30.9463 36.7559 30.9669 36.8906 30.9664C36.92 30.9663 36.9537 30.9641 36.9915 30.9598C37.0336 30.9554 37.0735 30.9511 37.1114 30.9467L37.1138 31.6535C37.055 31.6622 36.9877 31.6708 36.912 31.6795C36.8363 31.6882 36.7669 31.6926 36.7038 31.6928ZM37.7454 31.6514L37.7336 28.2183L38.5603 28.2155L38.5721 31.6485L37.7454 31.6514ZM37.7322 27.8334L37.7292 26.9499L38.5559 26.947L38.559 27.8305L37.7322 27.8334ZM41.0143 31.7158C40.6778 31.717 40.3704 31.6402 40.0922 31.4855C39.8182 31.3308 39.5987 31.1191 39.4337 30.8504C39.2729 30.5817 39.1919 30.2748 39.1907 29.9298C39.1895 29.5849 39.2684 29.2775 39.4273 29.0077C39.5904 28.7378 39.8085 28.5246 40.0814 28.368C40.3543 28.2114 40.6612 28.1325 41.002 28.1313C41.3385 28.1302 41.6438 28.2069 41.9178 28.3617C42.1918 28.5164 42.4092 28.7281 42.57 28.9968C42.735 29.2613 42.8181 29.5681 42.8193 29.9173C42.8205 30.2623 42.7395 30.5697 42.5764 30.8395C42.4132 31.1093 42.1952 31.3226 41.9223 31.4792C41.6494 31.6358 41.3467 31.7147 41.0143 31.7158ZM41.0117 30.9585C41.1968 30.9579 41.3587 30.9131 41.4972 30.8243C41.6399 30.7355 41.751 30.6131 41.8304 30.4571C41.914 30.297 41.9554 30.118 41.9548 29.9203C41.9541 29.7184 41.9114 29.5418 41.8267 29.3906C41.7462 29.2352 41.6343 29.1136 41.491 29.0258C41.3518 28.9337 41.1897 28.888 41.0046 28.8886C40.8153 28.8893 40.6492 28.9361 40.5065 29.0292C40.3638 29.118 40.2506 29.2404 40.167 29.3964C40.0876 29.5481 40.0482 29.7249 40.0489 29.9269C40.0496 30.1246 40.0902 30.3033 40.1707 30.4629C40.2554 30.6182 40.3694 30.7399 40.5127 30.8277C40.6561 30.9156 40.8224 30.9592 41.0117 30.9585ZM43.4522 31.6317L43.4403 28.1986L44.2165 28.196L44.2189 28.8712L44.1554 28.7515C44.2346 28.5451 44.3645 28.389 44.545 28.2832C44.7297 28.1731 44.9441 28.1177 45.1881 28.1169C45.4406 28.116 45.6637 28.1699 45.8576 28.2786C46.0557 28.3873 46.2098 28.5404 46.3199 28.7377C46.43 28.9309 46.4854 29.1558 46.4863 29.4124L46.4939 31.6212L45.6672 31.624L45.6603 29.6109C45.6598 29.4594 45.6299 29.3291 45.5706 29.2199C45.5113 29.1108 45.429 29.0269 45.3236 28.9684C45.2224 28.9056 45.1024 28.8745 44.9636 28.8749C44.8289 28.8754 44.7091 28.9074 44.6042 28.9708C44.4992 29.0301 44.4175 29.1145 44.3589 29.2241C44.3004 29.3337 44.2714 29.4642 44.2719 29.6157L44.2789 31.6288L43.4522 31.6317ZM48.4996 31.69C48.1336 31.6912 47.8135 31.6061 47.5395 31.4345C47.2696 31.2588 47.0837 31.0217 46.9817 30.7233L47.5991 30.4246C47.6881 30.6178 47.8106 30.7689 47.9667 30.8777C48.1269 30.9865 48.3038 31.0406 48.4973 31.04C48.6488 31.0394 48.7686 31.0054 48.8567 30.9377C48.9448 30.8701 48.9887 30.7816 48.9883 30.6722C48.9881 30.6049 48.969 30.5503 48.9309 30.5083C48.8971 30.4622 48.8486 30.4245 48.7854 30.3953C48.7264 30.3618 48.6611 30.3347 48.5895 30.3139L48.0273 30.1581C47.7367 30.0749 47.5154 29.9474 47.3633 29.7754C47.2155 29.6034 47.1412 29.3996 47.1403 29.164C47.1396 28.9537 47.1916 28.7705 47.2962 28.6144C47.4051 28.4542 47.554 28.3296 47.743 28.2406C47.9362 28.1516 48.1569 28.1066 48.4052 28.1058C48.7291 28.1046 49.0155 28.1815 49.2642 28.3363C49.513 28.4911 49.6904 28.7093 49.7966 28.9908L49.1665 29.2896C49.1071 29.1341 49.0078 29.0103 48.8687 28.9182C48.7295 28.8262 48.5737 28.7804 48.4012 28.781C48.2623 28.7815 48.1531 28.8134 48.0734 28.8768C47.9936 28.9402 47.9539 29.0224 47.9543 29.1233C47.9545 29.1865 47.9715 29.2411 48.0053 29.2873C48.0392 29.3334 48.0856 29.3711 48.1446 29.4004C48.2078 29.4296 48.2794 29.4567 48.3594 29.4817L48.909 29.6438C49.1912 29.727 49.4083 29.8525 49.5603 30.0202C49.7166 30.188 49.7951 30.3939 49.796 30.6379C49.7967 30.844 49.7426 31.0272 49.6338 31.1875C49.5249 31.3435 49.3739 31.4661 49.1807 31.5551C48.9875 31.6441 48.7604 31.6891 48.4996 31.69Z" fill="#1A202C"/>
<path d="M21.4236 41.8083C21.1995 41.8091 20.9943 41.7688 20.8079 41.6874C20.6214 41.6028 20.4632 41.4882 20.3334 41.3435C20.2035 41.1988 20.1098 41.0366 20.0524 40.857L20.4542 40.6899C20.5401 40.9168 20.667 41.0915 20.8346 41.214C21.0054 41.3333 21.2044 41.3925 21.4316 41.3918C21.5704 41.3913 21.6918 41.3688 21.7958 41.3242C21.8998 41.2797 21.98 41.2179 22.0366 41.1388C22.0962 41.0566 22.1259 40.9618 22.1255 40.8545C22.125 40.7062 22.082 40.5896 21.9965 40.5047C21.9142 40.4167 21.7925 40.3508 21.6314 40.3072L20.9823 40.1106C20.7264 40.0326 20.5303 39.9087 20.3941 39.7388C20.2578 39.5688 20.1893 39.3734 20.1885 39.1526C20.1879 38.9601 20.233 38.7911 20.324 38.6457C20.4182 38.497 20.5472 38.3814 20.711 38.2988C20.8779 38.213 21.0671 38.1698 21.2785 38.1691C21.4899 38.1683 21.6809 38.2055 21.8516 38.2807C22.0254 38.3558 22.1724 38.4578 22.2928 38.5868C22.4131 38.7126 22.502 38.8574 22.5594 39.0213L22.1624 39.1884C22.0859 38.9898 21.9718 38.8403 21.82 38.7399C21.6682 38.6363 21.4897 38.5848 21.2846 38.5855C21.1584 38.586 21.0465 38.6085 20.9488 38.653C20.8543 38.6943 20.7804 38.7561 20.727 38.8383C20.6768 38.9174 20.6519 39.0121 20.6523 39.1226C20.6527 39.2519 20.6941 39.367 20.7765 39.4677C20.8589 39.5683 20.9838 39.6452 21.1512 39.6983L21.7435 39.8714C22.0214 39.9556 22.2317 40.0764 22.3742 40.2336C22.5168 40.3909 22.5884 40.5863 22.5892 40.8198C22.5899 41.0123 22.54 41.1828 22.4395 41.3315C22.3422 41.4801 22.2054 41.5973 22.029 41.6831C21.8557 41.7658 21.6539 41.8075 21.4236 41.8083ZM24.3461 41.7982C24.1 41.7991 23.8805 41.7414 23.6876 41.6254C23.4948 41.5093 23.3428 41.3505 23.2316 41.1489C23.1205 40.9442 23.0645 40.7156 23.0636 40.4632C23.0627 40.2076 23.1156 39.9802 23.2222 39.7811C23.3319 39.5819 23.4797 39.4252 23.6655 39.311C23.8544 39.1936 24.0656 39.1344 24.2991 39.1336C24.4884 39.133 24.6557 39.1671 24.8011 39.236C24.9497 39.3018 25.0746 39.3929 25.176 39.5093C25.2805 39.6225 25.3598 39.7532 25.414 39.9013C25.4713 40.0462 25.5002 40.1976 25.5008 40.3554C25.5009 40.3901 25.4979 40.4295 25.4917 40.4737C25.4887 40.5147 25.4841 40.5542 25.4779 40.5921L23.3859 40.5993L23.3846 40.2207L25.221 40.2143L25.0134 40.3854C25.0412 40.2213 25.0249 40.0746 24.9645 39.9454C24.9041 39.8163 24.8154 39.714 24.6984 39.6387C24.5814 39.5634 24.4487 39.526 24.3004 39.5265C24.1521 39.527 24.0166 39.5653 23.8938 39.6415C23.771 39.7176 23.6751 39.8268 23.6062 39.9691C23.5404 40.1081 23.5142 40.2739 23.5275 40.4663C23.5155 40.6525 23.5444 40.8165 23.6143 40.9582C23.6874 41.0968 23.7887 41.2053 23.9184 41.2838C24.0512 41.359 24.1949 41.3964 24.3495 41.3959C24.5199 41.3953 24.6633 41.3554 24.7798 41.2761C24.8963 41.1968 24.9906 41.0955 25.0627 40.9722L25.4325 41.1602C25.3825 41.2771 25.304 41.3847 25.197 41.4829C25.0932 41.5779 24.9688 41.6541 24.8239 41.7114C24.6821 41.7686 24.5228 41.7976 24.3461 41.7982ZM26.0321 41.7356L26.0197 38.1527L26.4599 38.1512L26.4723 41.7341L26.0321 41.7356ZM28.282 41.7846C28.0358 41.7855 27.8163 41.7278 27.6235 41.6118C27.4306 41.4957 27.2786 41.3369 27.1674 41.1353C27.0563 40.9306 27.0003 40.702 26.9994 40.4496C26.9985 40.194 27.0514 39.9666 27.158 39.7675C27.2677 39.5683 27.4155 39.4116 27.6013 39.2974C27.7902 39.18 28.0014 39.1209 28.2349 39.12C28.4242 39.1194 28.5916 39.1535 28.7369 39.2224C28.8855 39.2882 29.0104 39.3793 29.1118 39.4957C29.2163 39.6089 29.2957 39.7396 29.3498 39.8877C29.4071 40.0326 29.436 40.184 29.4366 40.3418C29.4367 40.3765 29.4337 40.4159 29.4275 40.4601C29.4245 40.5012 29.4199 40.5406 29.4137 40.5785L27.3217 40.5857L27.3204 40.2071L29.1568 40.2007L28.9492 40.3718C28.977 40.2077 28.9607 40.061 28.9003 39.9318C28.8399 39.8027 28.7512 39.7004 28.6342 39.6251C28.5172 39.5498 28.3845 39.5124 28.2362 39.5129C28.0879 39.5134 27.9524 39.5517 27.8296 39.6279C27.7068 39.704 27.6109 39.8132 27.542 39.9555C27.4762 40.0945 27.45 40.2603 27.4633 40.4527C27.4513 40.6389 27.4802 40.8029 27.5502 40.9447C27.6232 41.0832 27.7246 41.1917 27.8542 41.2702C27.987 41.3455 28.1307 41.3828 28.2853 41.3823C28.4557 41.3817 28.5991 41.3418 28.7156 41.2625C28.8321 41.1832 28.9264 41.0819 28.9985 40.9586L29.3684 41.1466C29.3183 41.2635 29.2398 41.3711 29.1328 41.4693C29.029 41.5643 28.9046 41.6405 28.7597 41.6978C28.6179 41.7551 28.4586 41.784 28.282 41.7846ZM31.1514 41.7747C30.9021 41.7756 30.6795 41.718 30.4834 41.6019C30.2905 41.4858 30.1385 41.327 30.0274 41.1254C29.9163 40.9239 29.8603 40.6969 29.8594 40.4444C29.8585 40.1889 29.9129 39.9615 30.0227 39.7623C30.1324 39.5631 30.2834 39.4048 30.4754 39.2874C30.6707 39.17 30.8929 39.1109 31.1422 39.11C31.3094 39.1094 31.4657 39.1389 31.6111 39.1983C31.7564 39.2578 31.8845 39.3378 31.9953 39.4384C32.1061 39.539 32.1869 39.657 32.2379 39.7925L31.8457 39.9832C31.7853 39.8509 31.6934 39.7439 31.5701 39.6623C31.4467 39.5775 31.3046 39.5354 31.1437 39.536C30.989 39.5365 30.8488 39.5764 30.7228 39.6558C30.6 39.7351 30.5026 39.8427 30.4305 39.9786C30.3584 40.1146 30.3226 40.2709 30.3232 40.4476C30.3238 40.618 30.3607 40.7724 30.4337 40.911C30.5067 41.0465 30.6049 41.1534 30.7283 41.2319C30.8548 41.3103 30.9953 41.3493 31.1499 41.3487C31.3108 41.3482 31.4527 41.3067 31.5755 41.2242C31.6982 41.1386 31.7893 41.0262 31.8488 40.8872L32.2423 41.0846C32.1923 41.2173 32.1123 41.3359 32.0022 41.4404C31.8921 41.5418 31.7646 41.6227 31.6196 41.6832C31.4747 41.7436 31.3186 41.7741 31.1514 41.7747ZM33.8091 41.7371C33.5598 41.738 33.3671 41.6677 33.2309 41.5261C33.0979 41.3846 33.0309 41.1845 33.03 40.9257L33.0254 39.5815L32.5616 39.5831L32.5601 39.1619L32.6548 39.1616C32.7684 39.1612 32.8582 39.1262 32.9242 39.0565C32.9902 38.9869 33.023 38.8953 33.0226 38.7817L33.0219 38.5734L33.4621 38.5719L33.4641 39.1588L34.0368 39.1568L34.0383 39.578L33.4656 39.58L33.4702 40.91C33.4705 40.9952 33.4833 41.0693 33.5088 41.1323C33.5374 41.1953 33.5833 41.2457 33.6466 41.2833C33.7098 41.3178 33.7935 41.3349 33.8976 41.3345C33.9197 41.3344 33.9465 41.3328 33.9781 41.3295C34.0127 41.3262 34.0443 41.323 34.0727 41.3197L34.074 41.7078C34.033 41.7174 33.9873 41.7239 33.9368 41.7272C33.8864 41.7337 33.8438 41.737 33.8091 41.7371ZM35.5133 42.7441C35.4565 42.7443 35.3997 42.7398 35.3429 42.7305C35.2861 42.7244 35.2324 42.7104 35.1818 42.6885L35.1804 42.2956C35.2152 42.2987 35.2578 42.3048 35.3083 42.3141C35.362 42.3234 35.4141 42.328 35.4645 42.3278C35.6128 42.3273 35.7247 42.2937 35.8002 42.2272C35.8789 42.1607 35.9527 42.0484 36.0215 41.8904L36.1811 41.5065L36.173 41.8899L35.0749 39.1532L35.553 39.1516L36.4077 41.3258L36.2657 41.3263L37.1007 39.1462L37.5882 39.1445L36.4479 42.0025C36.3947 42.1384 36.3257 42.2633 36.2409 42.3772C36.1593 42.491 36.0586 42.5797 35.9389 42.6433C35.8193 42.7099 35.6774 42.7436 35.5133 42.7441ZM39.1069 41.7472C38.8607 41.7481 38.6381 41.692 38.4389 41.5791C38.2397 41.4631 38.0814 41.3043 37.964 41.1027C37.8465 40.9012 37.7874 40.6726 37.7865 40.4171C37.7856 40.1615 37.8416 39.9341 37.9545 39.7349C38.0706 39.5357 38.2278 39.3774 38.4262 39.26C38.6246 39.1425 38.8484 39.0834 39.0977 39.0825C39.3438 39.0817 39.5664 39.1393 39.7656 39.2553C39.9648 39.3683 40.1215 39.5239 40.2358 39.7223C40.3532 39.9207 40.4124 40.1492 40.4133 40.408C40.4142 40.6667 40.355 40.8973 40.2358 41.0996C40.1166 41.2988 39.9578 41.4571 39.7594 41.5746C39.5642 41.6888 39.3467 41.7464 39.1069 41.7472ZM39.1054 41.3213C39.2632 41.3207 39.405 41.2808 39.531 41.2015C39.6601 41.1221 39.7606 41.0129 39.8327 40.8738C39.908 40.7347 39.9453 40.58 39.9447 40.4096C39.9441 40.2361 39.9057 40.0832 39.8296 39.9509C39.7565 39.8155 39.6552 39.7085 39.5255 39.6301C39.399 39.5485 39.2569 39.508 39.0991 39.5085C38.9382 39.5091 38.7932 39.5506 38.6641 39.6331C38.5382 39.7124 38.4376 39.82 38.3623 39.956C38.287 40.0887 38.2497 40.2419 38.2503 40.4155C38.2509 40.5858 38.2893 40.7403 38.3655 40.8789C38.4417 41.0175 38.5431 41.126 38.6695 41.2044C38.7992 41.2829 38.9445 41.3218 39.1054 41.3213ZM41.8487 41.7378C41.6657 41.7384 41.4999 41.6964 41.3513 41.6117C41.2058 41.527 41.0918 41.4091 41.0093 41.2579C40.9299 41.1035 40.8898 40.927 40.8891 40.7282L40.8836 39.1332L41.3238 39.1316L41.3291 40.6793C41.3296 40.8056 41.3552 40.9159 41.406 41.0104C41.46 41.1049 41.5328 41.1788 41.6245 41.2321C41.7193 41.2854 41.8267 41.3119 41.9466 41.3114C42.0665 41.311 42.1721 41.2838 42.2634 41.2299C42.3579 41.1759 42.4302 41.0984 42.4804 40.9972C42.5337 40.8961 42.5601 40.7761 42.5596 40.6372L42.5544 39.1274L42.9993 39.1259L43.0081 41.677L42.5774 41.6784L42.5757 41.1815L42.6468 41.2238C42.5874 41.385 42.4853 41.5115 42.3405 41.6035C42.1988 41.6924 42.0349 41.7371 41.8487 41.7378ZM43.6427 41.6748L43.6339 39.1237L44.0646 39.1222L44.0662 39.5907L44.0186 39.5246C44.0781 39.3793 44.1692 39.2717 44.292 39.2019C44.4148 39.1289 44.5646 39.092 44.7413 39.0914L44.8975 39.0909L44.8989 39.5074L44.6765 39.5082C44.4966 39.5088 44.3517 39.5661 44.2416 39.6801C44.1316 39.7909 44.0769 39.9488 44.0776 40.1539L44.0829 41.6732L43.6427 41.6748ZM47.2043 41.7193C46.955 41.7201 46.7324 41.6625 46.5363 41.5464C46.3435 41.4304 46.1914 41.2715 46.0803 41.07C45.9692 40.8684 45.9132 40.6414 45.9123 40.389C45.9114 40.1334 45.9659 39.906 46.0756 39.7069C46.1854 39.5077 46.3363 39.3494 46.5283 39.232C46.7236 39.1146 46.9458 39.0554 47.1951 39.0546C47.3623 39.054 47.5186 39.0834 47.664 39.1429C47.8093 39.2023 47.9374 39.2823 48.0482 39.3829C48.159 39.4835 48.2398 39.6016 48.2908 39.7371L47.8986 39.9278C47.8382 39.7954 47.7463 39.6885 47.623 39.6069C47.4996 39.5221 47.3575 39.48 47.1966 39.4805C47.042 39.4811 46.9017 39.521 46.7757 39.6003C46.6529 39.6796 46.5555 39.7872 46.4834 39.9232C46.4113 40.0591 46.3755 40.2154 46.3762 40.3921C46.3767 40.5625 46.4136 40.717 46.4866 40.8556C46.5597 40.991 46.6578 41.098 46.7812 41.1764C46.9077 41.2549 47.0482 41.2938 47.2028 41.2933C47.3637 41.2927 47.5056 41.2512 47.6284 41.1688C47.7511 41.0831 47.8423 40.9708 47.9017 40.8318L48.2953 41.0292C48.2452 41.1619 48.1652 41.2805 48.0551 41.385C47.945 41.4864 47.8175 41.5673 47.6726 41.6277C47.5276 41.6882 47.3715 41.7187 47.2043 41.7193ZM48.8253 41.6569L48.8165 39.1058L49.2567 39.1042L49.2655 41.6553L48.8253 41.6569ZM48.8151 38.6987L48.8132 38.1308L49.2533 38.1292L49.2553 38.6972L48.8151 38.6987ZM50.9378 41.678C50.6885 41.6788 50.4958 41.6085 50.3597 41.467C50.2266 41.3254 50.1597 41.1253 50.1588 40.8666L50.1541 39.5224L49.6903 39.524L49.6889 39.1027L49.7835 39.1024C49.8971 39.102 49.9869 39.067 50.0529 38.9974C50.119 38.9277 50.1518 38.8361 50.1514 38.7225L50.1507 38.5143L50.5908 38.5127L50.5929 39.0996L51.1656 39.0976L51.167 39.5189L50.5943 39.5209L50.5989 40.8508C50.5992 40.936 50.6121 41.0101 50.6375 41.0732C50.6662 41.1362 50.7121 41.1865 50.7753 41.2242C50.8386 41.2586 50.9222 41.2757 51.0264 41.2753C51.0484 41.2753 51.0753 41.2736 51.1068 41.2703C51.1415 41.2671 51.173 41.2638 51.2014 41.2605L51.2028 41.6487C51.1618 41.6583 51.1161 41.6647 51.0656 41.6681C51.0151 41.6745 50.9725 41.6778 50.9378 41.678ZM51.8713 42.6876C51.8145 42.6878 51.7577 42.6833 51.7008 42.674C51.644 42.6679 51.5903 42.6539 51.5398 42.632L51.5384 42.2391C51.5731 42.2422 51.6158 42.2483 51.6663 42.2576C51.7199 42.2669 51.772 42.2715 51.8225 42.2713C51.9708 42.2708 52.0827 42.2372 52.1582 42.1707C52.2369 42.1042 52.3106 41.9919 52.3795 41.8339L52.5391 41.45L52.531 41.8334L51.4329 39.0967L51.9109 39.0951L52.7657 41.2693L52.6237 41.2698L53.4586 39.0897L53.9461 39.088L52.8059 41.946C52.7527 42.0819 52.6837 42.2068 52.5989 42.3207C52.5173 42.4345 52.4166 42.5232 52.2969 42.5868C52.1772 42.6534 52.0354 42.6871 51.8713 42.6876Z" fill="#90A3BF"/>
<path d="M66.7515 40.6434C66.5905 40.644 66.4292 40.5824 66.3068 40.4609L64.8015 38.966C64.7346 38.8995 64.7342 38.7891 64.8007 38.7221C64.8672 38.6552 64.9776 38.6548 65.0446 38.7213L66.5499 40.2162C66.6607 40.3262 66.8402 40.3256 66.9502 40.2148L68.4451 38.7095C68.5116 38.6426 68.6221 38.6422 68.689 38.7087C68.756 38.7752 68.7564 38.8856 68.6899 38.9526L67.1949 40.4579C67.0734 40.5802 66.9126 40.6429 66.7515 40.6434Z" fill="#1A202C" stroke="#1A202C" stroke-width="0.197211"/>
<line x1="79.1207" y1="24.7056" x2="79.1848" y2="43.2433" stroke="#C3D4E9" stroke-opacity="0.4" stroke-width="0.394421" stroke-linecap="round"/>
<path d="M88.8675 31.4748L88.8512 26.7734L90.3847 26.7681C90.8812 26.7663 91.3127 26.8658 91.6795 27.0665C92.0504 27.263 92.3374 27.5375 92.5406 27.8902C92.7437 28.2387 92.8461 28.6444 92.8477 29.1072C92.8493 29.5657 92.7497 29.9742 92.549 30.3325C92.3483 30.6866 92.0632 30.9652 91.6936 31.1685C91.3283 31.3675 90.8974 31.4678 90.401 31.4695L88.8675 31.4748ZM89.7231 30.7146L90.4173 30.7122C90.737 30.7111 91.0124 30.6449 91.2433 30.5137C91.4784 30.3783 91.6608 30.1925 91.7904 29.9565C91.92 29.7162 91.9843 29.4341 91.9831 29.1101C91.982 28.782 91.9158 28.5003 91.7846 28.2652C91.6533 28.03 91.4697 27.8477 91.2337 27.7181C91.0018 27.5884 90.726 27.5242 90.4063 27.5253L89.7121 27.5277L89.7231 30.7146ZM94.4986 31.5311C94.2588 31.5319 94.0504 31.4927 93.8735 31.4134C93.6965 31.334 93.5594 31.2209 93.4621 31.074C93.3648 30.9229 93.3158 30.7485 93.3151 30.5507C93.3145 30.3614 93.356 30.193 93.4396 30.0454C93.5232 29.8937 93.6532 29.767 93.8296 29.6654C94.0059 29.5638 94.2287 29.4916 94.4978 29.4486L95.6204 29.2617L95.6226 29.8927L94.6576 30.0601C94.4937 30.0902 94.3718 30.1432 94.2922 30.2192C94.2125 30.2952 94.1729 30.3942 94.1733 30.5162C94.1737 30.634 94.2182 30.7285 94.3068 30.7997C94.3996 30.8667 94.5133 30.9 94.6479 30.8995C94.8204 30.8989 94.9717 30.8626 95.1019 30.7907C95.2363 30.7145 95.339 30.611 95.4101 30.4804C95.4854 30.3497 95.5227 30.2065 95.5222 30.0509L95.5191 29.1674C95.5186 29.0201 95.4593 28.8983 95.3412 28.8019C95.2272 28.7014 95.0756 28.6514 94.8863 28.6521C94.7096 28.6527 94.552 28.7016 94.4135 28.7988C94.2792 28.8919 94.1807 29.0163 94.1182 29.1722L93.4418 28.8464C93.5085 28.6652 93.6131 28.5092 93.7557 28.3783C93.9025 28.2431 94.0746 28.1374 94.2721 28.061C94.4696 27.9846 94.684 27.9459 94.9154 27.9451C95.1973 27.9442 95.4457 27.9959 95.6606 28.1003C95.8755 28.2006 96.0422 28.343 96.1606 28.5278C96.2833 28.7082 96.345 28.9205 96.3458 29.1645L96.3537 31.449L95.5712 31.4517L95.5692 30.8648L95.7458 30.8515C95.658 30.9991 95.5532 31.1236 95.4316 31.225C95.3099 31.3222 95.1713 31.3984 95.0159 31.4536C94.8604 31.5046 94.688 31.5305 94.4986 31.5311ZM98.6214 31.479C98.2343 31.4803 97.9331 31.3762 97.7179 31.1666C97.5068 30.9528 97.4005 30.6523 97.3992 30.2652L97.394 28.7507L96.8008 28.7527L96.7982 28.0144L96.8613 28.0142C97.0296 28.0136 97.1599 27.969 97.2521 27.8803C97.3444 27.7916 97.3902 27.6631 97.3896 27.4948L97.3887 27.2298L98.2154 27.2269L98.2181 28.0095L99.007 28.0067L99.0095 28.7451L98.2207 28.7478L98.2258 30.2182C98.2261 30.3318 98.2454 30.4285 98.2836 30.5083C98.3259 30.5881 98.3892 30.6489 98.4735 30.6907C98.562 30.7324 98.6736 30.7531 98.8082 30.7526C98.8376 30.7525 98.8713 30.7503 98.9091 30.746C98.9512 30.7416 98.9912 30.7373 99.029 30.7329L99.0314 31.4397C98.9726 31.4483 98.9053 31.457 98.8296 31.4657C98.7539 31.4743 98.6845 31.4788 98.6214 31.479ZM101.261 31.5078C100.907 31.509 100.598 31.4301 100.332 31.2712C100.067 31.1122 99.8597 30.8962 99.7115 30.6233C99.5633 30.3503 99.4886 30.0477 99.4875 29.7153C99.4863 29.3703 99.5588 29.0651 99.7052 28.7995C99.8557 28.5297 100.059 28.3165 100.315 28.16C100.575 28.0034 100.865 27.9246 101.185 27.9235C101.454 27.9226 101.69 27.9659 101.892 28.0536C102.099 28.1412 102.274 28.2626 102.417 28.4178C102.561 28.573 102.671 28.7514 102.747 28.9531C102.824 29.1505 102.863 29.365 102.863 29.5964C102.864 29.6553 102.86 29.7163 102.851 29.7794C102.847 29.8425 102.837 29.8973 102.82 29.9436L100.17 29.9528L100.168 29.3217L102.351 29.3141L101.961 29.6121C101.998 29.4184 101.987 29.246 101.928 29.0947C101.872 28.9435 101.779 28.8239 101.649 28.736C101.522 28.6481 101.368 28.6044 101.188 28.6051C101.015 28.6056 100.862 28.6504 100.727 28.7392C100.593 28.8238 100.49 28.9503 100.419 29.1189C100.353 29.2832 100.328 29.4831 100.346 29.7187C100.33 29.9291 100.358 30.1162 100.43 30.28C100.506 30.4396 100.616 30.5634 100.759 30.6512C100.907 30.7391 101.075 30.7827 101.264 30.782C101.454 30.7813 101.614 30.7408 101.744 30.6604C101.878 30.58 101.983 30.4724 102.058 30.3375L102.728 30.6634C102.661 30.8277 102.557 30.9732 102.414 31.0999C102.272 31.2266 102.101 31.326 101.904 31.3983C101.711 31.4704 101.496 31.5069 101.261 31.5078Z" fill="#1A202C"/>
<path d="M90.0525 41.5714C89.8284 41.5722 89.6232 41.5319 89.4368 41.4505C89.2503 41.3659 89.0921 41.2513 88.9623 41.1066C88.8324 40.9619 88.7387 40.7997 88.6813 40.6201L89.0831 40.453C89.169 40.6799 89.2959 40.8546 89.4635 40.9771C89.6343 41.0964 89.8333 41.1557 90.0605 41.1549C90.1993 41.1544 90.3207 41.1319 90.4247 41.0874C90.5287 41.0428 90.6089 40.981 90.6655 40.9019C90.7251 40.8197 90.7548 40.7249 90.7544 40.6176C90.7539 40.4693 90.7109 40.3527 90.6254 40.2678C90.5431 40.1798 90.4214 40.1139 90.2603 40.0703L89.6112 39.8738C89.3553 39.7958 89.1593 39.6718 89.023 39.5019C88.8867 39.332 88.8182 39.1366 88.8174 38.9157C88.8168 38.7232 88.8619 38.5542 88.9529 38.4088C89.0471 38.2602 89.1761 38.1445 89.3399 38.0619C89.5068 37.9762 89.696 37.9329 89.9074 37.9322C90.1188 37.9315 90.3098 37.9687 90.4805 38.0438C90.6543 38.1189 90.8014 38.221 90.9217 38.3499C91.042 38.4757 91.1309 38.6206 91.1883 38.7844L90.7913 38.9515C90.7148 38.7529 90.6007 38.6035 90.4489 38.503C90.2971 38.3994 90.1187 38.348 89.9136 38.3487C89.7873 38.3491 89.6754 38.3716 89.5777 38.4161C89.4832 38.4574 89.4093 38.5192 89.3559 38.6015C89.3057 38.6805 89.2808 38.7753 89.2812 38.8857C89.2816 39.0151 89.323 39.1301 89.4054 39.2308C89.4878 39.3315 89.6127 39.4083 89.7801 39.4614L90.3724 39.6345C90.6503 39.7187 90.8606 39.8395 91.0031 39.9968C91.1457 40.154 91.2173 40.3494 91.2181 40.5829C91.2188 40.7754 91.1689 40.946 91.0684 41.0946C90.9711 41.2432 90.8343 41.3605 90.6579 41.4463C90.4846 41.5289 90.2828 41.5706 90.0525 41.5714ZM92.975 41.5613C92.7289 41.5622 92.5094 41.5046 92.3166 41.3885C92.1237 41.2724 91.9717 41.1136 91.8605 40.912C91.7494 40.7073 91.6934 40.4787 91.6925 40.2263C91.6916 39.9707 91.7445 39.7433 91.8511 39.5442C91.9608 39.345 92.1086 39.1883 92.2944 39.0741C92.4833 38.9567 92.6945 38.8976 92.928 38.8968C93.1173 38.8961 93.2847 38.9302 93.43 38.9992C93.5786 39.0649 93.7035 39.156 93.8049 39.2724C93.9094 39.3856 93.9888 39.5163 94.0429 39.6644C94.1002 39.8094 94.1291 39.9607 94.1297 40.1185C94.1298 40.1532 94.1268 40.1926 94.1206 40.2368C94.1176 40.2779 94.113 40.3173 94.1068 40.3552L92.0148 40.3624L92.0135 39.9838L93.8499 39.9775L93.6423 40.1486C93.6701 39.9844 93.6538 39.8377 93.5934 39.7086C93.533 39.5794 93.4443 39.4772 93.3273 39.4018C93.2103 39.3265 93.0776 39.2891 92.9293 39.2896C92.781 39.2901 92.6455 39.3285 92.5227 39.4046C92.3999 39.4808 92.304 39.5899 92.2351 39.7322C92.1693 39.8712 92.1431 40.037 92.1564 40.2294C92.1444 40.4156 92.1733 40.5796 92.2433 40.7214C92.3163 40.86 92.4177 40.9685 92.5473 41.0469C92.6801 41.1222 92.8238 41.1595 92.9784 41.159C93.1488 41.1584 93.2922 41.1185 93.4087 41.0392C93.5252 40.9599 93.6195 40.8586 93.6916 40.7353L94.0615 40.9233C94.0114 41.0403 93.9329 41.1478 93.8259 41.246C93.7221 41.341 93.5977 41.4172 93.4528 41.4745C93.311 41.5318 93.1517 41.5607 92.975 41.5613ZM94.661 41.4987L94.6487 37.9158L95.0888 37.9143L95.1012 41.4972L94.661 41.4987ZM96.9109 41.5477C96.6647 41.5486 96.4452 41.491 96.2524 41.3749C96.0595 41.2588 95.9075 41.1 95.7963 40.8984C95.6852 40.6937 95.6292 40.4651 95.6283 40.2127C95.6274 39.9571 95.6803 39.7297 95.7869 39.5306C95.8966 39.3314 96.0444 39.1747 96.2302 39.0605C96.4191 38.9431 96.6303 38.884 96.8638 38.8832C97.0531 38.8825 97.2205 38.9166 97.3658 38.9856C97.5144 39.0513 97.6393 39.1424 97.7407 39.2588C97.8452 39.372 97.9246 39.5027 97.9787 39.6508C98.036 39.7958 98.0649 39.9471 98.0655 40.1049C98.0656 40.1396 98.0626 40.1791 98.0564 40.2232C98.0534 40.2643 98.0488 40.3037 98.0426 40.3416L95.9506 40.3488L95.9493 39.9702L97.7857 39.9639L97.5781 40.135C97.6059 39.9708 97.5896 39.8241 97.5292 39.695C97.4688 39.5658 97.3801 39.4636 97.2631 39.3882C97.1461 39.3129 97.0134 39.2755 96.8651 39.276C96.7168 39.2765 96.5813 39.3149 96.4585 39.391C96.3357 39.4672 96.2398 39.5764 96.1709 39.7186C96.1051 39.8577 96.0789 40.0234 96.0922 40.2158C96.0802 40.402 96.1092 40.566 96.1791 40.7078C96.2521 40.8464 96.3535 40.9549 96.4831 41.0333C96.6159 41.1086 96.7596 41.1459 96.9142 41.1454C97.0846 41.1448 97.228 41.1049 97.3445 41.0256C97.461 40.9463 97.5553 40.845 97.6274 40.7217L97.9973 40.9097C97.9472 41.0267 97.8687 41.1342 97.7617 41.2324C97.6579 41.3274 97.5335 41.4036 97.3886 41.4609C97.2468 41.5182 97.0876 41.5471 96.9109 41.5477ZM99.7803 41.5378C99.531 41.5387 99.3084 41.4811 99.1123 41.365C98.9194 41.2489 98.7674 41.0901 98.6563 40.8885C98.5452 40.687 98.4892 40.46 98.4883 40.2076C98.4874 39.952 98.5418 39.7246 98.6516 39.5254C98.7614 39.3263 98.9123 39.168 99.1043 39.0506C99.2996 38.9331 99.5218 38.874 99.7711 38.8731C99.9383 38.8726 100.095 38.902 100.24 38.9614C100.385 39.0209 100.513 39.1009 100.624 39.2015C100.735 39.3021 100.816 39.4201 100.867 39.5556L100.475 39.7463C100.414 39.614 100.322 39.507 100.199 39.4254C100.076 39.3407 99.9335 39.2985 99.7726 39.2991C99.6179 39.2996 99.4777 39.3396 99.3517 39.4189C99.2289 39.4982 99.1315 39.6058 99.0594 39.7417C98.9873 39.8777 98.9515 40.034 98.9522 40.2107C98.9527 40.3811 98.9896 40.5356 99.0626 40.6741C99.1357 40.8096 99.2338 40.9165 99.3572 40.995C99.4837 41.0734 99.6242 41.1124 99.7788 41.1119C99.9397 41.1113 100.082 41.0698 100.204 40.9873C100.327 40.9017 100.418 40.7894 100.478 40.6503L100.871 40.8478C100.821 40.9805 100.741 41.0991 100.631 41.2036C100.521 41.3049 100.393 41.3858 100.249 41.4463C100.104 41.5067 99.9475 41.5372 99.7803 41.5378ZM102.438 41.5002C102.189 41.5011 101.996 41.4308 101.86 41.2893C101.727 41.1477 101.66 40.9476 101.659 40.6888L101.654 39.3447L101.19 39.3463L101.189 38.925L101.284 38.9247C101.397 38.9243 101.487 38.8893 101.553 38.8196C101.619 38.75 101.652 38.6584 101.652 38.5448L101.651 38.3365L102.091 38.335L102.093 38.9219L102.666 38.9199L102.667 39.3412L102.094 39.3431L102.099 40.6731C102.099 40.7583 102.112 40.8324 102.138 40.8954C102.166 40.9585 102.212 41.0088 102.275 41.0464C102.339 41.0809 102.422 41.098 102.527 41.0976C102.549 41.0976 102.575 41.0959 102.607 41.0926C102.642 41.0893 102.673 41.0861 102.702 41.0828L102.703 41.4709C102.662 41.4805 102.616 41.487 102.566 41.4903C102.515 41.4968 102.473 41.5001 102.438 41.5002ZM104.142 42.5072C104.085 42.5074 104.029 42.5029 103.972 42.4936C103.915 42.4875 103.861 42.4735 103.811 42.4516L103.809 42.0587C103.844 42.0618 103.887 42.0679 103.937 42.0772C103.991 42.0865 104.043 42.0911 104.093 42.0909C104.242 42.0904 104.354 42.0569 104.429 41.9903C104.508 41.9238 104.582 41.8115 104.65 41.6535L104.81 41.2696L104.802 41.653L103.704 38.9163L104.182 38.9147L105.037 41.089L104.895 41.0895L105.73 38.9093L106.217 38.9077L105.077 41.7657C105.024 41.9015 104.955 42.0264 104.87 42.1403C104.788 42.2542 104.688 42.3429 104.568 42.4064C104.448 42.4731 104.306 42.5067 104.142 42.5072ZM107.736 41.5103C107.49 41.5112 107.267 41.4552 107.068 41.3423C106.869 41.2262 106.71 41.0674 106.593 40.8659C106.475 40.6643 106.416 40.4358 106.415 40.1802C106.414 39.9246 106.471 39.6972 106.583 39.498C106.699 39.2988 106.857 39.1405 107.055 39.0231C107.253 38.9057 107.477 38.8465 107.727 38.8457C107.973 38.8448 108.195 38.9024 108.395 39.0185C108.594 39.1314 108.75 39.287 108.865 39.4854C108.982 39.6838 109.041 39.9124 109.042 40.1711C109.043 40.4298 108.984 40.6604 108.865 40.8628C108.746 41.062 108.587 41.2203 108.388 41.3377C108.193 41.452 107.976 41.5095 107.736 41.5103ZM107.734 41.0844C107.892 41.0838 108.034 41.0439 108.16 40.9646C108.289 40.8852 108.39 40.776 108.462 40.637C108.537 40.4979 108.574 40.3431 108.574 40.1727C108.573 39.9992 108.535 39.8463 108.458 39.714C108.385 39.5786 108.284 39.4717 108.154 39.3932C108.028 39.3116 107.886 39.2711 107.728 39.2716C107.567 39.2722 107.422 39.3137 107.293 39.3962C107.167 39.4755 107.066 39.5831 106.991 39.7191C106.916 39.8519 106.879 40.005 106.879 40.1786C106.88 40.349 106.918 40.5034 106.994 40.642C107.071 40.7806 107.172 40.8891 107.298 40.9676C107.428 41.046 107.573 41.0849 107.734 41.0844ZM110.478 41.5009C110.295 41.5015 110.129 41.4595 109.98 41.3748C109.835 41.2901 109.721 41.1722 109.638 41.021C109.559 40.8667 109.519 40.6901 109.518 40.4913L109.513 38.8963L109.953 38.8948L109.958 40.4425C109.958 40.5687 109.984 40.679 110.035 40.7735C110.089 40.868 110.162 40.9419 110.253 40.9952C110.348 41.0485 110.456 41.075 110.576 41.0746C110.695 41.0741 110.801 41.047 110.892 40.993C110.987 40.939 111.059 40.8615 111.109 40.7603C111.163 40.6592 111.189 40.5392 111.188 40.4003L111.183 38.8905L111.628 38.889L111.637 41.4401L111.206 41.4416L111.205 40.9446L111.276 40.9869C111.216 41.1481 111.114 41.2746 110.969 41.3667C110.828 41.4555 110.664 41.5002 110.478 41.5009ZM112.272 41.4379L112.263 38.8868L112.693 38.8853L112.695 39.3539L112.648 39.2878C112.707 39.1424 112.798 39.0348 112.921 38.965C113.044 38.892 113.194 38.8552 113.37 38.8546L113.526 38.854L113.528 39.2705L113.305 39.2713C113.126 39.2719 112.981 39.3292 112.871 39.4432C112.76 39.554 112.706 39.712 112.707 39.9171L112.712 41.4364L112.272 41.4379ZM115.81 41.4825C115.57 41.4833 115.353 41.4257 115.161 41.3096C114.971 41.1935 114.82 41.0347 114.709 40.8331C114.598 40.6315 114.542 40.4061 114.541 40.1568C114.54 39.9013 114.595 39.6739 114.705 39.4747C114.814 39.2724 114.964 39.1125 115.153 38.9951C115.345 38.8777 115.561 38.8186 115.8 38.8178C116.012 38.817 116.2 38.8621 116.364 38.9531C116.528 39.0409 116.658 39.1603 116.753 39.3115L116.683 39.4206L116.677 37.8397L117.122 37.8382L117.135 41.4211L116.704 41.4226L116.702 40.8783L116.759 40.9538C116.671 41.1214 116.542 41.2512 116.372 41.3433C116.205 41.4353 116.018 41.4817 115.81 41.4825ZM115.846 41.0564C116.007 41.0558 116.15 41.0159 116.276 40.9365C116.402 40.8572 116.501 40.7496 116.573 40.6137C116.649 40.4746 116.686 40.3198 116.685 40.1494C116.685 39.9759 116.646 39.8214 116.57 39.686C116.497 39.5474 116.397 39.4389 116.271 39.3604C116.144 39.282 116.001 39.2431 115.84 39.2436C115.682 39.2442 115.538 39.2857 115.409 39.3682C115.283 39.4475 115.184 39.5551 115.112 39.691C115.04 39.8238 115.004 39.9785 115.005 40.1552C115.006 40.3256 115.042 40.4801 115.116 40.6187C115.189 40.7541 115.288 40.8611 115.415 40.9395C115.541 41.018 115.685 41.0569 115.846 41.0564ZM118.517 41.4731C118.349 41.4737 118.201 41.4442 118.071 41.3847C117.945 41.3221 117.845 41.2372 117.772 41.1302C117.699 41.02 117.663 40.8939 117.662 40.7519C117.662 40.6162 117.69 40.4946 117.746 40.3872C117.806 40.2765 117.897 40.1831 118.02 40.107C118.146 40.0308 118.303 39.9766 118.492 39.9444L119.438 39.785L119.44 40.1541L118.593 40.299C118.429 40.328 118.309 40.3805 118.234 40.4565C118.161 40.5325 118.126 40.6257 118.126 40.7361C118.126 40.8402 118.168 40.9269 118.25 40.996C118.335 41.0651 118.441 41.0995 118.567 41.099C118.728 41.0985 118.867 41.0649 118.984 40.9982C119.103 40.9284 119.196 40.835 119.262 40.718C119.331 40.601 119.365 40.4715 119.365 40.3295L119.362 39.6811C119.362 39.5423 119.309 39.4304 119.205 39.3456C119.104 39.2576 118.969 39.2139 118.802 39.2144C118.657 39.2149 118.528 39.2533 118.415 39.3294C118.304 39.4023 118.223 39.5004 118.169 39.6237L117.785 39.4262C117.832 39.3093 117.908 39.2049 118.011 39.1131C118.115 39.018 118.236 38.9435 118.375 38.8893C118.514 38.8352 118.659 38.8079 118.81 38.8074C119.006 38.8067 119.178 38.844 119.327 38.9192C119.475 38.9912 119.591 39.0934 119.673 39.2256C119.759 39.3547 119.802 39.506 119.803 39.6796L119.808 41.4119L119.378 41.4133L119.376 40.9306L119.457 40.9587C119.403 41.0599 119.331 41.1485 119.24 41.2245C119.149 41.3005 119.042 41.3609 118.919 41.4055C118.796 41.4501 118.662 41.4726 118.517 41.4731ZM121.434 41.4346C121.185 41.4355 120.992 41.3652 120.856 41.2236C120.723 41.0821 120.656 40.882 120.655 40.6232L120.65 39.2791L120.187 39.2807L120.185 38.8594L120.28 38.8591C120.393 38.8587 120.483 38.8237 120.549 38.754C120.615 38.6844 120.648 38.5928 120.648 38.4792L120.647 38.2709L121.087 38.2694L121.089 38.8563L121.662 38.8543L121.663 39.2756L121.091 39.2775L121.095 40.6075C121.095 40.6927 121.108 40.7668 121.134 40.8298C121.162 40.8929 121.208 40.9432 121.272 40.9808C121.335 41.0153 121.418 41.0324 121.523 41.032C121.545 41.0319 121.571 41.0303 121.603 41.027C121.638 41.0237 121.669 41.0205 121.698 41.0172L121.699 41.4053C121.658 41.4149 121.612 41.4214 121.562 41.4247C121.511 41.4312 121.469 41.4345 121.434 41.4346ZM123.331 41.4565C123.085 41.4573 122.866 41.3997 122.673 41.2836C122.48 41.1676 122.328 41.0087 122.217 40.8072C122.106 40.6025 122.05 40.3739 122.049 40.1215C122.048 39.8659 122.101 39.6385 122.207 39.4393C122.317 39.2402 122.465 39.0835 122.651 38.9692C122.84 38.8518 123.051 38.7927 123.284 38.7919C123.474 38.7913 123.641 38.8254 123.786 38.8943C123.935 38.9601 124.06 39.0511 124.161 39.1675C124.266 39.2808 124.345 39.4114 124.399 39.5596C124.456 39.7045 124.485 39.8559 124.486 40.0136C124.486 40.0483 124.483 40.0878 124.477 40.132C124.474 40.173 124.469 40.2125 124.463 40.2504L122.371 40.2576L122.37 39.879L124.206 39.8726L123.999 40.0437C124.026 39.8795 124.01 39.7329 123.95 39.6037C123.889 39.4746 123.801 39.3723 123.684 39.297C123.567 39.2217 123.434 39.1843 123.286 39.1848C123.137 39.1853 123.002 39.2236 122.879 39.2998C122.756 39.3759 122.66 39.4851 122.591 39.6273C122.526 39.7664 122.499 39.9322 122.513 40.1246C122.501 40.3108 122.53 40.4748 122.6 40.6165C122.673 40.7551 122.774 40.8636 122.904 40.9421C123.036 41.0173 123.18 41.0547 123.335 41.0542C123.505 41.0536 123.648 41.0136 123.765 40.9343C123.881 40.8551 123.976 40.7538 124.048 40.6305L124.418 40.8185C124.368 40.9354 124.289 41.043 124.182 41.1412C124.078 41.2362 123.954 41.3123 123.809 41.3696C123.667 41.4269 123.508 41.4559 123.331 41.4565Z" fill="#90A3BF"/>
<path d="M138.536 40.3956C138.375 40.3962 138.213 40.3346 138.091 40.2131L136.586 38.7182C136.519 38.6517 136.518 38.5413 136.585 38.4743C136.651 38.4074 136.762 38.407 136.829 38.4735L138.334 39.9684C138.445 40.0784 138.624 40.0778 138.734 39.967L140.229 38.4617C140.296 38.3948 140.406 38.3944 140.473 38.4609C140.54 38.5274 140.541 38.6378 140.474 38.7048L138.979 40.21C138.858 40.3324 138.697 40.3951 138.536 40.3956Z" fill="#1A202C" stroke="#1A202C" stroke-width="0.197211"/>
<line x1="150.905" y1="24.4577" x2="150.969" y2="42.9954" stroke="#C3D4E9" stroke-opacity="0.4" stroke-width="0.394421" stroke-linecap="round"/>
<path d="M161.485 31.224L161.471 27.2798L160.253 27.284L160.251 26.5268L163.532 26.5154L163.535 27.2727L162.336 27.2769L162.349 31.221L161.485 31.224ZM164.003 31.2153L163.991 27.7823L164.817 27.7795L164.829 31.2125L164.003 31.2153ZM163.989 27.3974L163.986 26.5139L164.813 26.511L164.816 27.3945L163.989 27.3974ZM165.593 31.2098L165.581 27.7768L166.357 27.7741L166.36 28.5693L166.271 28.4371C166.333 28.1886 166.459 28.0031 166.648 27.8804C166.837 27.7578 167.059 27.696 167.316 27.6951C167.598 27.6941 167.846 27.7669 168.061 27.9134C168.276 28.0599 168.416 28.253 168.48 28.4925L168.246 28.5123C168.351 28.2385 168.508 28.0339 168.718 27.8985C168.928 27.7589 169.169 27.6887 169.443 27.6877C169.687 27.6869 169.904 27.7409 170.093 27.8496C170.287 27.9583 170.439 28.1113 170.549 28.3087C170.659 28.5018 170.715 28.7267 170.716 28.9834L170.723 31.1921L169.897 31.195L169.89 29.1819C169.889 29.0304 169.861 28.9001 169.806 28.7909C169.751 28.6817 169.675 28.5978 169.578 28.5392C169.481 28.4765 169.363 28.4453 169.224 28.4458C169.094 28.4462 168.978 28.4782 168.878 28.5417C168.777 28.6009 168.699 28.6853 168.645 28.7949C168.591 28.9045 168.564 29.035 168.564 29.1864L168.571 31.1996L167.745 31.2024L167.738 29.1893C167.737 29.0378 167.709 28.9075 167.654 28.7983C167.599 28.6891 167.521 28.6052 167.42 28.5467C167.323 28.4839 167.207 28.4528 167.072 28.4532C166.942 28.4537 166.826 28.4856 166.726 28.5491C166.625 28.6083 166.547 28.6927 166.493 28.8023C166.439 28.9119 166.412 29.0424 166.412 29.1939L166.419 31.207L165.593 31.2098ZM173.051 31.2598C172.698 31.261 172.388 31.1822 172.123 31.0232C171.857 30.8643 171.65 30.6483 171.502 30.3753C171.354 30.1024 171.279 29.7997 171.278 29.4674C171.277 29.1224 171.349 28.8171 171.496 28.5515C171.646 28.2818 171.849 28.0686 172.106 27.9121C172.366 27.7555 172.656 27.6767 172.976 27.6755C173.245 27.6746 173.481 27.718 173.683 27.8056C173.889 27.8933 174.064 28.0147 174.208 28.1698C174.351 28.325 174.461 28.5034 174.538 28.7051C174.614 28.9026 174.653 29.117 174.654 29.3484C174.654 29.4073 174.65 29.4683 174.642 29.5315C174.638 29.5946 174.627 29.6493 174.611 29.6957L171.96 29.7048L171.958 29.0737L174.142 29.0662L173.751 29.3642C173.789 29.1705 173.777 28.998 173.718 28.8468C173.663 28.6955 173.57 28.5759 173.439 28.488C173.313 28.4001 173.159 28.3565 172.978 28.3571C172.805 28.3577 172.652 28.4024 172.518 28.4912C172.383 28.5758 172.281 28.7024 172.21 28.8709C172.143 29.0352 172.118 29.2352 172.136 29.4707C172.12 29.6811 172.148 29.8682 172.22 30.0321C172.296 30.1917 172.406 30.3154 172.55 30.4033C172.697 30.4911 172.866 30.5347 173.055 30.5341C173.244 30.5334 173.404 30.4929 173.534 30.4125C173.668 30.3321 173.773 30.2245 173.848 30.0896L174.519 30.4154C174.452 30.5797 174.347 30.7252 174.205 30.8519C174.062 30.9786 173.892 31.0781 173.694 31.1503C173.501 31.2225 173.287 31.259 173.051 31.2598Z" fill="#1A202C"/>
<path d="M161.837 41.3234C161.613 41.3242 161.407 41.2839 161.221 41.2025C161.035 41.118 160.876 41.0033 160.747 40.8586C160.617 40.7139 160.523 40.5517 160.466 40.3721L160.867 40.205C160.953 40.4319 161.08 40.6066 161.248 40.7291C161.419 40.8484 161.618 40.9077 161.845 40.9069C161.984 40.9064 162.105 40.8839 162.209 40.8394C162.313 40.7948 162.393 40.733 162.45 40.654C162.509 40.5717 162.539 40.4769 162.539 40.3697C162.538 40.2214 162.495 40.1048 162.41 40.0199C162.327 39.9318 162.206 39.8659 162.045 39.8223L161.395 39.6258C161.14 39.5478 160.943 39.4238 160.807 39.2539C160.671 39.084 160.602 38.8886 160.602 38.6677C160.601 38.4752 160.646 38.3063 160.737 38.1608C160.831 38.0122 160.96 37.8966 161.124 37.8139C161.291 37.7282 161.48 37.6849 161.692 37.6842C161.903 37.6835 162.094 37.7207 162.265 37.7958C162.439 37.8709 162.586 37.973 162.706 38.1019C162.826 38.2277 162.915 38.3726 162.972 38.5365L162.575 38.7035C162.499 38.505 162.385 38.3555 162.233 38.255C162.081 38.1514 161.903 38.1 161.698 38.1007C161.572 38.1011 161.46 38.1236 161.362 38.1681C161.267 38.2095 161.194 38.2712 161.14 38.3535C161.09 38.4325 161.065 38.5273 161.065 38.6377C161.066 38.7671 161.107 38.8821 161.19 38.9828C161.272 39.0835 161.397 39.1604 161.564 39.2134L162.157 39.3865C162.435 39.4707 162.645 39.5915 162.787 39.7488C162.93 39.906 163.002 40.1014 163.002 40.3349C163.003 40.5274 162.953 40.698 162.853 40.8466C162.755 40.9953 162.619 41.1125 162.442 41.1983C162.269 41.2809 162.067 41.3226 161.837 41.3234ZM164.807 41.3132C164.561 41.314 164.341 41.2564 164.148 41.1403C163.955 41.0242 163.803 40.8654 163.692 40.6639C163.581 40.4591 163.525 40.2306 163.524 39.9781C163.523 39.7226 163.576 39.4952 163.683 39.296C163.792 39.0969 163.94 38.9402 164.126 38.8259C164.315 38.7085 164.526 38.6494 164.76 38.6486C164.949 38.648 165.116 38.6821 165.262 38.751C165.41 38.8168 165.535 38.9078 165.636 39.0242C165.741 39.1375 165.82 39.2681 165.874 39.4163C165.932 39.5612 165.961 39.7126 165.961 39.8703C165.961 39.905 165.958 39.9445 165.952 39.9887C165.949 40.0297 165.945 40.0692 165.938 40.1071L163.846 40.1143L163.845 39.7356L165.682 39.7293L165.474 39.9004C165.502 39.7362 165.485 39.5896 165.425 39.4604C165.365 39.3312 165.276 39.229 165.159 39.1537C165.042 39.0784 164.909 39.0409 164.761 39.0415C164.613 39.042 164.477 39.0803 164.354 39.1565C164.231 39.2326 164.136 39.3418 164.067 39.484C164.001 39.6231 163.975 39.7888 163.988 39.9813C163.976 40.1675 164.005 40.3315 164.075 40.4732C164.148 40.6118 164.249 40.7203 164.379 40.7987C164.512 40.874 164.655 40.9114 164.81 40.9109C164.98 40.9103 165.124 40.8703 165.24 40.791C165.357 40.7118 165.451 40.6105 165.523 40.4871L165.893 40.6752C165.843 40.7921 165.764 40.8997 165.657 40.9979C165.554 41.0929 165.429 41.169 165.284 41.2263C165.143 41.2836 164.983 41.3126 164.807 41.3132ZM166.54 41.2504L166.528 37.6675L166.968 37.666L166.98 41.2489L166.54 41.2504ZM168.837 41.2993C168.591 41.3001 168.371 41.2425 168.179 41.1264C167.986 41.0103 167.834 40.8515 167.723 40.6499C167.611 40.4452 167.555 40.2167 167.555 39.9642C167.554 39.7086 167.607 39.4813 167.713 39.2821C167.823 39.0829 167.971 38.9262 168.156 38.812C168.345 38.6946 168.557 38.6355 168.79 38.6347C168.979 38.634 169.147 38.6682 169.292 38.7371C169.441 38.8028 169.566 38.8939 169.667 39.0103C169.771 39.1235 169.851 39.2542 169.905 39.4023C169.962 39.5473 169.991 39.6986 169.992 39.8564C169.992 39.8911 169.989 39.9306 169.983 39.9748C169.98 40.0158 169.975 40.0553 169.969 40.0931L167.877 40.1004L167.876 39.7217L169.712 39.7154L169.504 39.8865C169.532 39.7223 169.516 39.5756 169.455 39.4465C169.395 39.3173 169.306 39.2151 169.189 39.1398C169.072 39.0644 168.94 39.027 168.791 39.0275C168.643 39.028 168.508 39.0664 168.385 39.1425C168.262 39.2187 168.166 39.3279 168.097 39.4701C168.031 39.6092 168.005 39.7749 168.018 39.9674C168.006 40.1536 168.035 40.3175 168.105 40.4593C168.178 40.5979 168.28 40.7064 168.409 40.7848C168.542 40.8601 168.686 40.8975 168.84 40.8969C169.011 40.8963 169.154 40.8564 169.271 40.7771C169.387 40.6978 169.482 40.5965 169.554 40.4732L169.923 40.6613C169.873 40.7782 169.795 40.8858 169.688 40.9839C169.584 41.079 169.46 41.1551 169.315 41.2124C169.173 41.2697 169.014 41.2986 168.837 41.2993ZM171.754 41.2892C171.505 41.29 171.282 41.2324 171.086 41.1164C170.893 41.0003 170.741 40.8415 170.63 40.6399C170.519 40.4383 170.463 40.2113 170.462 39.9589C170.461 39.7033 170.515 39.476 170.625 39.2768C170.735 39.0776 170.886 38.9193 171.078 38.8019C171.273 38.6845 171.495 38.6254 171.745 38.6245C171.912 38.6239 172.068 38.6533 172.214 38.7128C172.359 38.7723 172.487 38.8523 172.598 38.9529C172.709 39.0534 172.789 39.1715 172.84 39.307L172.448 39.4977C172.388 39.3654 172.296 39.2584 172.173 39.1768C172.049 39.092 171.907 39.0499 171.746 39.0505C171.592 39.051 171.451 39.0909 171.325 39.1702C171.203 39.2496 171.105 39.3572 171.033 39.4931C170.961 39.629 170.925 39.7853 170.926 39.962C170.926 40.1324 170.963 40.2869 171.036 40.4255C171.109 40.5609 171.207 40.6679 171.331 40.7463C171.457 40.8248 171.598 40.8637 171.752 40.8632C171.913 40.8627 172.055 40.8211 172.178 40.7387C172.301 40.6531 172.392 40.5407 172.451 40.4017L172.845 40.5991C172.795 40.7318 172.715 40.8504 172.605 40.9549C172.495 41.0563 172.367 41.1372 172.222 41.1976C172.077 41.2581 171.921 41.2886 171.754 41.2892ZM174.459 41.2514C174.21 41.2523 174.017 41.182 173.881 41.0405C173.748 40.8989 173.681 40.6988 173.68 40.44L173.675 39.0959L173.211 39.0975L173.21 38.6762L173.305 38.6759C173.418 38.6755 173.508 38.6405 173.574 38.5708C173.64 38.5012 173.673 38.4096 173.672 38.296L173.672 38.0877L174.112 38.0862L174.114 38.6731L174.687 38.6711L174.688 39.0924L174.115 39.0943L174.12 40.4243C174.12 40.5095 174.133 40.5836 174.159 40.6466C174.187 40.7097 174.233 40.76 174.296 40.7976C174.36 40.8321 174.443 40.8492 174.547 40.8488C174.569 40.8487 174.596 40.8471 174.628 40.8438C174.663 40.8405 174.694 40.8373 174.722 40.834L174.724 41.2221C174.683 41.2317 174.637 41.2382 174.587 41.2415C174.536 41.248 174.494 41.2513 174.459 41.2514ZM176.258 42.2581C176.201 42.2583 176.144 42.2538 176.087 42.2445C176.031 42.2384 175.977 42.2244 175.926 42.2025L175.925 41.8096C175.96 41.8127 176.002 41.8188 176.053 41.8281C176.106 41.8374 176.159 41.8419 176.209 41.8418C176.357 41.8413 176.469 41.8077 176.545 41.7412C176.623 41.6747 176.697 41.5624 176.766 41.4044L176.926 41.0205L176.917 41.4039L175.819 38.6672L176.297 38.6656L177.152 40.8398L177.01 40.8403L177.845 38.6602L178.333 38.6585L177.192 41.5165C177.139 41.6524 177.07 41.7773 176.985 41.8912C176.904 42.005 176.803 42.0937 176.683 42.1572C176.564 42.2239 176.422 42.2575 176.258 42.2581ZM179.899 41.2611C179.653 41.2619 179.43 41.2059 179.231 41.093C179.032 40.9769 178.873 40.8181 178.756 40.6166C178.638 40.415 178.579 40.1865 178.578 39.9309C178.577 39.6753 178.633 39.4479 178.746 39.2487C178.862 39.0496 179.02 38.8912 179.218 38.7738C179.416 38.6564 179.64 38.5972 179.889 38.5964C180.136 38.5955 180.358 38.6531 180.557 38.7692C180.757 38.8821 180.913 39.0377 181.028 39.2361C181.145 39.4345 181.204 39.6631 181.205 39.9218C181.206 40.1806 181.147 40.4111 181.028 40.6135C180.908 40.8127 180.75 40.971 180.551 41.0884C180.356 41.2027 180.138 41.2602 179.899 41.2611ZM179.897 40.8351C180.055 40.8345 180.197 40.7946 180.323 40.7153C180.452 40.636 180.552 40.5267 180.625 40.3877C180.7 40.2486 180.737 40.0938 180.737 39.9234C180.736 39.7499 180.698 39.597 180.621 39.4647C180.548 39.3293 180.447 39.2224 180.317 39.1439C180.191 39.0623 180.049 39.0218 179.891 39.0223C179.73 39.0229 179.585 39.0644 179.456 39.1469C179.33 39.2262 179.229 39.3338 179.154 39.4698C179.079 39.6026 179.042 39.7557 179.042 39.9293C179.043 40.0997 179.081 40.2542 179.157 40.3927C179.234 40.5313 179.335 40.6398 179.461 40.7183C179.591 40.7967 179.736 40.8356 179.897 40.8351ZM182.688 41.2514C182.505 41.2521 182.339 41.21 182.19 41.1253C182.045 41.0407 181.931 40.9227 181.848 40.7715C181.769 40.6172 181.729 40.4406 181.728 40.2419L181.723 38.6468L182.163 38.6453L182.168 40.193C182.169 40.3192 182.194 40.4296 182.245 40.5241C182.299 40.6185 182.372 40.6924 182.464 40.7458C182.558 40.7991 182.666 40.8255 182.786 40.8251C182.906 40.8247 183.011 40.7975 183.103 40.7435C183.197 40.6896 183.269 40.612 183.319 40.5109C183.373 40.4097 183.399 40.2897 183.399 40.1509L183.393 38.6411L183.838 38.6395L183.847 41.1906L183.417 41.1921L183.415 40.6951L183.486 40.7375C183.427 40.8986 183.324 41.0252 183.18 41.1172C183.038 41.206 182.874 41.2508 182.688 41.2514ZM184.529 41.1883L184.52 38.6372L184.951 38.6357L184.953 39.1042L184.905 39.0381C184.965 38.8928 185.056 38.7852 185.178 38.7154C185.301 38.6424 185.451 38.6056 185.628 38.6049L185.784 38.6044L185.785 39.0209L185.563 39.0217C185.383 39.0223 185.238 39.0796 185.128 39.1936C185.018 39.3044 184.963 39.4623 184.964 39.6674L184.969 41.1867L184.529 41.1883ZM188.039 41.2045C187.789 41.2054 187.597 41.1351 187.46 40.9936C187.327 40.852 187.26 40.6519 187.26 40.3931L187.255 39.049L186.791 39.0506L186.79 38.6293L186.884 38.629C186.998 38.6286 187.088 38.5936 187.154 38.5239C187.22 38.4543 187.253 38.3627 187.252 38.2491L187.251 38.0408L187.692 38.0393L187.694 38.6262L188.266 38.6242L188.268 39.0455L187.695 39.0474L187.7 40.3774C187.7 40.4626 187.713 40.5367 187.738 40.5997C187.767 40.6628 187.813 40.7131 187.876 40.7507C187.939 40.7852 188.023 40.8023 188.127 40.8019C188.149 40.8018 188.176 40.8002 188.208 40.7969C188.242 40.7936 188.274 40.7904 188.302 40.7871L188.304 41.1752C188.263 41.1848 188.217 41.1913 188.166 41.1946C188.116 41.2011 188.073 41.2044 188.039 41.2045ZM188.879 41.1732L188.87 38.6221L189.31 38.6206L189.319 41.1717L188.879 41.1732ZM188.868 38.2151L188.866 37.6471L189.307 37.6456L189.308 38.2136L188.868 38.2151ZM190.002 41.1694L189.993 38.6183L190.424 38.6168L190.425 39.1374L190.364 39.0572C190.426 38.896 190.527 38.7726 190.665 38.6869C190.804 38.6013 190.96 38.5581 191.133 38.5575C191.332 38.5568 191.511 38.6114 191.669 38.7213C191.83 38.8312 191.941 38.976 192.002 39.1556L191.879 39.1608C191.944 38.9618 192.056 38.8115 192.213 38.71C192.37 38.6053 192.545 38.5527 192.738 38.552C192.915 38.5514 193.074 38.5918 193.216 38.6734C193.362 38.7549 193.477 38.8681 193.563 39.013C193.649 39.1578 193.692 39.3218 193.692 39.5048L193.698 41.1566L193.253 41.1581L193.248 39.6483C193.248 39.5063 193.222 39.3865 193.171 39.2889C193.12 39.1912 193.051 39.1157 192.962 39.0624C192.877 39.0059 192.776 38.9778 192.659 38.9782C192.545 38.9786 192.443 39.0074 192.352 39.0645C192.263 39.1184 192.193 39.196 192.139 39.2971C192.089 39.3951 192.064 39.5136 192.065 39.6524L192.07 41.1622L191.625 41.1638L191.62 39.6539C191.619 39.5119 191.594 39.3921 191.543 39.2945C191.492 39.1968 191.422 39.1213 191.334 39.068C191.249 39.0115 191.147 38.9835 191.031 38.9839C190.917 38.9843 190.815 39.013 190.723 39.0701C190.635 39.1241 190.564 39.2016 190.511 39.3028C190.461 39.4008 190.436 39.5192 190.437 39.658L190.442 41.1678L190.002 41.1694ZM195.497 41.2072C195.251 41.208 195.032 41.1504 194.839 41.0343C194.646 40.9182 194.494 40.7594 194.383 40.5579C194.272 40.3531 194.216 40.1246 194.215 39.8721C194.214 39.6166 194.267 39.3892 194.373 39.19C194.483 38.9909 194.631 38.8342 194.817 38.7199C195.006 38.6025 195.217 38.5434 195.45 38.5426C195.64 38.542 195.807 38.5761 195.952 38.645C196.101 38.7108 196.226 38.8018 196.327 38.9182C196.432 39.0315 196.511 39.1621 196.565 39.3103C196.623 39.4552 196.651 39.6066 196.652 39.7643C196.652 39.799 196.649 39.8385 196.643 39.8827C196.64 39.9237 196.635 39.9632 196.629 40.0011L194.537 40.0083L194.536 39.6297L196.372 39.6233L196.165 39.7944C196.192 39.6302 196.176 39.4836 196.116 39.3544C196.055 39.2252 195.967 39.123 195.85 39.0477C195.733 38.9724 195.6 38.9349 195.452 38.9355C195.303 38.936 195.168 38.9743 195.045 39.0505C194.922 39.1266 194.826 39.2358 194.757 39.378C194.692 39.5171 194.665 39.6828 194.679 39.8753C194.667 40.0615 194.696 40.2255 194.766 40.3672C194.839 40.5058 194.94 40.6143 195.07 40.6928C195.202 40.768 195.346 40.8054 195.501 40.8049C195.671 40.8043 195.815 40.7643 195.931 40.685C196.047 40.6058 196.142 40.5045 196.214 40.3812L196.584 40.5692C196.534 40.6861 196.455 40.7937 196.348 40.8919C196.244 40.9869 196.12 41.063 195.975 41.1203C195.833 41.1776 195.674 41.2066 195.497 41.2072Z" fill="#90A3BF"/>
<path d="M208.742 40.1532C208.581 40.1537 208.42 40.0921 208.298 39.9706L206.792 38.4757C206.725 38.4092 206.725 38.2988 206.791 38.2318C206.858 38.1649 206.968 38.1645 207.035 38.231L208.541 39.7259C208.651 39.836 208.831 39.8353 208.941 39.7245L210.436 38.2192C210.502 38.1523 210.613 38.1519 210.68 38.2184C210.747 38.2849 210.747 38.3953 210.681 38.4623L209.186 39.9676C209.064 40.0899 208.903 40.1526 208.742 40.1532Z" fill="#1A202C" stroke="#1A202C" stroke-width="0.197211"/>
</g>
<defs>
<clipPath id="clip0_20_6399">
<rect x="0.746155" y="1.11365" width="229.553" height="52.0636" rx="3.94421" transform="rotate(-0.197882 0.746155 1.11365)" fill="white"/>
</clipPath>
</defs>
</svg>
