<svg width="107" height="11" viewBox="0 0 107 11" fill="none" xmlns="http://www.w3.org/2000/svg">
<path d="M8.95245 4.8619L8.15884 4.46767C8.01203 4.39672 7.82988 4.45268 7.75893 4.59949C7.68403 4.75027 7.74393 4.92845 7.89075 4.9994L8.52166 5.31083L8.52659 7.20906L7.04052 7.21688L7.02995 3.15095C7.02789 2.35837 6.49583 1.96346 5.83799 1.96517L2.66768 1.97341C2.00984 1.97512 1.47984 2.37279 1.4819 3.16537L1.49864 9.60508L0.904201 9.60662C0.741723 9.60704 0.607334 9.74213 0.607757 9.90461C0.608179 10.0671 0.743267 10.2015 0.905746 10.2011L7.64267 10.1835C7.80515 10.1831 7.93953 10.048 7.93911 9.88556C7.93869 9.72308 7.8036 9.58869 7.64112 9.58911L7.04669 9.59066L7.04206 7.81132L8.82536 7.80272C8.9918 7.80229 9.12222 7.66721 9.1218 7.50473L9.11562 5.12699C9.11533 5.01603 9.05166 4.91316 8.95245 4.8619ZM2.47457 3.91178C2.47314 3.36094 2.80947 3.16192 3.22161 3.16085L5.2942 3.15546C5.70238 3.1544 6.03974 3.35167 6.04117 3.90251L6.04244 4.38995C6.04386 4.93683 5.70753 5.13585 5.29539 5.13692L3.22676 5.1423C2.81462 5.14337 2.47726 4.9461 2.47583 4.39526L2.47457 3.91178ZM2.67823 6.03538L3.8671 6.03229C4.02958 6.03187 4.16467 6.16626 4.16509 6.32874C4.16551 6.49121 4.03113 6.6263 3.86865 6.62673L2.67978 6.62982C2.5173 6.63024 2.38221 6.49585 2.38179 6.33337C2.38137 6.17089 2.51576 6.0358 2.67823 6.03538Z" fill="#90A3BF"/>
<path d="M13.4993 8.15267L14.9204 6.29037L15.0203 6.3012C14.965 6.37532 14.9041 6.43466 14.8376 6.47922C14.7712 6.52008 14.6973 6.54986 14.6159 6.56856C14.5383 6.58726 14.4533 6.59673 14.3608 6.59697C14.1167 6.5976 13.8965 6.54269 13.7001 6.43224C13.5075 6.31808 13.3536 6.16314 13.2384 5.9674C13.127 5.76796 13.0709 5.54063 13.0702 5.28542C13.0696 5.03021 13.1282 4.80259 13.246 4.60255C13.3638 4.40251 13.5262 4.2449 13.733 4.1297C13.9398 4.0108 14.1727 3.95102 14.4316 3.95034C14.6979 3.94965 14.9329 4.00822 15.1367 4.12605C15.3441 4.24017 15.5072 4.40064 15.6261 4.60746C15.745 4.81058 15.8048 5.0453 15.8055 5.3116C15.8059 5.45585 15.7896 5.5983 15.7567 5.73893C15.7238 5.87957 15.6705 6.02211 15.5969 6.16655C15.527 6.31098 15.4331 6.46103 15.3151 6.61668L14.154 8.15097L13.4993 8.15267ZM14.4372 6.11963C14.5963 6.11922 14.7367 6.08372 14.8586 6.01312C14.9842 5.93882 15.0819 5.8387 15.1519 5.71277C15.2218 5.58313 15.2566 5.43879 15.2562 5.27974C15.2557 5.1133 15.2184 4.9673 15.1441 4.84174C15.0735 4.71616 14.977 4.61655 14.8548 4.54289C14.7325 4.46923 14.5919 4.43261 14.4328 4.43302C14.2775 4.43343 14.1389 4.47078 14.017 4.54507C13.8952 4.61936 13.7974 4.71948 13.7238 4.84543C13.6538 4.97136 13.6191 5.11755 13.6195 5.284C13.6199 5.44304 13.6554 5.5872 13.726 5.71647C13.7966 5.84204 13.8931 5.94166 14.0153 6.01532C14.1412 6.08526 14.2819 6.12004 14.4372 6.11963ZM18.1246 8.20723C17.7954 8.20808 17.5066 8.12006 17.2584 7.94317C17.0138 7.76257 16.8226 7.5134 16.685 7.19567C16.5473 6.87424 16.4779 6.50085 16.4768 6.0755C16.4757 5.65014 16.5431 5.27825 16.6792 4.9598C16.8152 4.63766 17.005 4.3875 17.2487 4.20933C17.4923 4.03116 17.7787 3.94165 18.1079 3.94079C18.4371 3.93993 18.724 4.02796 18.9686 4.20486C19.2131 4.38176 19.4043 4.63093 19.542 4.95236C19.6833 5.27009 19.7546 5.64162 19.7557 6.06697C19.7568 6.49232 19.6893 6.86607 19.5533 7.18821C19.4173 7.51036 19.2256 7.76052 18.9783 7.9387C18.7346 8.11687 18.45 8.20638 18.1246 8.20723ZM18.1232 7.70236C18.3452 7.70178 18.5373 7.6347 18.6997 7.50113C18.8621 7.36385 18.9874 7.17304 19.0755 6.9287C19.1673 6.68434 19.2128 6.39757 19.212 6.06839C19.2111 5.7392 19.1641 5.45267 19.071 5.2088C18.9816 4.96492 18.8535 4.77661 18.6867 4.64389C18.5237 4.51116 18.3311 4.44509 18.1092 4.44566C17.8873 4.44624 17.6951 4.51332 17.5327 4.64689C17.3704 4.78047 17.2432 4.96943 17.1514 5.21379C17.0633 5.45813 17.0196 5.7449 17.0205 6.07408C17.0213 6.39957 17.0665 6.68425 17.1559 6.92814C17.249 7.17201 17.3771 7.36216 17.5402 7.49859C17.707 7.63501 17.9013 7.70293 18.1232 7.70236ZM20.5857 8.13425L20.5749 4.00096L21.1186 3.99954L21.1281 7.63352L22.9423 7.6288L22.9436 8.12813L20.5857 8.13425Z" fill="#90A3BF"/>
<g clip-path="url(#clip0_20_7573)">
<path d="M35.3617 1.88832C33.1742 1.89401 31.4034 3.674 31.4091 5.86152C31.4148 8.04903 33.1948 9.8198 35.3823 9.81411C37.5698 9.80843 39.3406 8.02844 39.3349 5.84092C39.3292 3.6534 37.5532 1.88263 35.3617 1.88832Z" fill="#90A3BF"/>
<rect x="32.1934" y="2.68921" width="6.34065" height="6.34065" rx="3.17033" transform="rotate(-0.148906 32.1934 2.68921)" fill="white"/>
<path d="M35.3658 3.4735C34.0533 3.47691 32.9908 4.5449 32.9942 5.85741C32.9976 7.16992 34.0656 8.23238 35.3781 8.22897C36.6906 8.22556 37.7531 7.15756 37.7497 5.84505C37.7463 4.53254 36.6807 3.47008 35.3658 3.4735Z" fill="#90A3BF"/>
<rect x="33.7826" y="4.27008" width="3.17033" height="3.17033" rx="1.58516" transform="rotate(-0.148906 33.7826 4.27008)" fill="white"/>
<rect x="34.9808" y="7.83362" width="0.792582" height="1.58516" transform="rotate(-0.148906 34.9808 7.83362)" fill="#90A3BF"/>
<rect x="37.3523" y="5.44971" width="1.58516" height="0.792582" transform="rotate(-0.148906 37.3523 5.44971)" fill="#90A3BF"/>
<rect x="31.8043" y="5.46429" width="1.58516" height="0.792582" transform="rotate(-0.148906 31.8043 5.46429)" fill="#90A3BF"/>
</g>
<path d="M43.7641 8.07397L43.7533 3.94067L44.2527 3.93938L45.8063 6.13793L45.5511 6.13859L47.0822 3.93202L47.5815 3.93073L47.5922 8.06403L47.043 8.06545L47.034 4.62011L47.2284 4.68064L45.6972 6.84837L45.6528 6.84849L44.127 4.6887L44.2988 4.62722L44.3078 8.07256L43.7641 8.07397ZM49.326 8.1261C49.13 8.12661 48.956 8.09192 48.8042 8.02204C48.6561 7.94845 48.5393 7.84889 48.4539 7.72335C48.3685 7.59412 48.3256 7.44628 48.3251 7.27984C48.3247 7.1208 48.3577 6.97831 48.4239 6.85238C48.4938 6.72274 48.6008 6.61335 48.7448 6.52421C48.8926 6.43506 49.0773 6.3717 49.2992 6.33413L50.4083 6.14816L50.4094 6.58091L49.4167 6.74993C49.2245 6.78372 49.0841 6.84512 48.9956 6.93412C48.9107 7.02311 48.8685 7.13233 48.8688 7.26178C48.8691 7.38384 48.9175 7.48543 49.0139 7.56655C49.1139 7.64766 49.2379 7.68803 49.3859 7.68764C49.5745 7.68715 49.7372 7.64789 49.8738 7.56986C50.0142 7.48813 50.123 7.37873 50.2003 7.24168C50.2813 7.10461 50.3216 6.95286 50.3212 6.78642L50.3192 6.02634C50.3188 5.86359 50.2574 5.73245 50.1351 5.6329C50.0165 5.52965 49.8591 5.47827 49.6631 5.47878C49.493 5.47922 49.3414 5.524 49.2085 5.61312C49.0793 5.69852 48.9834 5.81343 48.9209 5.95785L48.4709 5.726C48.526 5.589 48.6145 5.46671 48.7363 5.35913C48.858 5.24785 49.0002 5.16056 49.1628 5.09726C49.3254 5.03396 49.4954 5.00208 49.673 5.00162C49.9023 5.00102 50.104 5.04488 50.278 5.1332C50.4521 5.21782 50.5874 5.33768 50.684 5.49277C50.7842 5.64416 50.8346 5.82157 50.8352 6.025L50.8404 8.05558L50.3356 8.0569L50.3341 7.49099L50.4285 7.52404C50.3659 7.64256 50.2811 7.74634 50.1741 7.83539C50.0671 7.92444 49.9415 7.99504 49.7974 8.0472C49.6533 8.09936 49.4961 8.12565 49.326 8.1261ZM51.6405 8.0535L51.6327 5.0631L52.1376 5.06179L52.1391 5.64434L52.0557 5.59462C52.1292 5.4058 52.2472 5.25939 52.4097 5.1554C52.5758 5.04771 52.7699 4.99357 52.9918 4.993C53.2063 4.99244 53.3969 5.04003 53.5636 5.13576C53.734 5.23148 53.8675 5.36429 53.9641 5.53418C54.0644 5.70406 54.1148 5.89626 54.1154 6.11079L54.1204 8.04706L53.5989 8.04841L53.5943 6.27859C53.5939 6.11214 53.5639 5.97167 53.5045 5.85716C53.445 5.74266 53.3597 5.65411 53.2485 5.59152C53.1411 5.52522 53.0171 5.49226 52.8766 5.49262C52.736 5.49299 52.6103 5.5266 52.4996 5.59347C52.3925 5.65662 52.3076 5.74746 52.2451 5.86599C52.1825 5.98081 52.1514 6.11959 52.1518 6.28233L52.1564 8.05216L51.6405 8.0535ZM55.9186 8.10896C55.7041 8.10952 55.5098 8.06009 55.3357 7.96068C55.1653 7.86126 55.0318 7.7229 54.9351 7.54561C54.8422 7.36462 54.7954 7.15761 54.7948 6.92459L54.79 5.0549L55.3059 5.05356L55.3106 6.86777C55.311 7.01572 55.341 7.1451 55.4004 7.2559C55.4636 7.3667 55.5489 7.4534 55.6563 7.516C55.7674 7.57859 55.8933 7.6097 56.0338 7.60934C56.1744 7.60897 56.2982 7.57721 56.4053 7.51405C56.5161 7.45089 56.6009 7.36005 56.6598 7.24153C56.7224 7.12301 56.7534 6.98238 56.753 6.81964L56.7484 5.04981L57.2699 5.04845L57.2777 8.03885L56.7728 8.04017L56.7713 7.45762L56.8547 7.50734C56.7849 7.69615 56.6651 7.84441 56.4952 7.95212C56.329 8.05611 56.1368 8.1084 55.9186 8.10896ZM58.9538 8.10108C58.7578 8.10158 58.5839 8.0669 58.432 7.99702C58.2839 7.92343 58.1671 7.82387 58.0817 7.69833C57.9963 7.5691 57.9534 7.42126 57.953 7.25482C57.9526 7.09577 57.9855 6.95329 58.0517 6.82736C58.1217 6.69772 58.2286 6.58833 58.3727 6.49919C58.5204 6.41003 58.7052 6.34668 58.927 6.30911L60.0361 6.12314L60.0372 6.55589L59.0446 6.72491C58.8523 6.7587 58.7119 6.82009 58.6234 6.90909C58.5386 6.99808 58.4963 7.10731 58.4966 7.23676C58.497 7.35882 58.5453 7.46041 58.6417 7.54153C58.7418 7.62264 58.8658 7.663 59.0137 7.66262C59.2023 7.66213 59.365 7.62287 59.5016 7.54484C59.642 7.46311 59.7508 7.35371 59.8281 7.21666C59.9091 7.07959 59.9494 6.92784 59.949 6.7614L59.947 6.00132C59.9466 5.83857 59.8852 5.70743 59.7629 5.60788C59.6443 5.50462 59.487 5.45325 59.2909 5.45376C59.1208 5.4542 58.9693 5.49898 58.8363 5.5881C58.7071 5.6735 58.6112 5.78841 58.5487 5.93282L58.0987 5.70097C58.1539 5.56398 58.2423 5.44169 58.3641 5.33411C58.4859 5.22283 58.628 5.13554 58.7906 5.07224C58.9532 5.00894 59.1232 4.97706 59.3008 4.9766C59.5301 4.976 59.7318 5.01986 59.9059 5.10818C60.0799 5.1928 60.2152 5.31266 60.3118 5.46775C60.4121 5.61914 60.4625 5.79655 60.463 5.99997L60.4683 8.03056L59.9634 8.03187L59.9619 7.46597L60.0563 7.49902C59.9938 7.61754 59.909 7.72132 59.8019 7.81037C59.6949 7.89942 59.5693 7.97002 59.4252 8.02218C59.2811 8.07433 59.124 8.10063 58.9538 8.10108ZM61.2683 8.02848L61.2574 3.82861L61.7733 3.82727L61.7842 8.02714L61.2683 8.02848Z" fill="#90A3BF"/>
<path d="M74.1979 1.78747C73.1596 1.79016 72.3177 2.63646 72.3204 3.67473C72.3231 4.6932 73.1218 5.51541 74.1601 5.54838C74.1918 5.54433 74.2235 5.54425 74.2473 5.54815C74.2553 5.54813 74.2592 5.54812 74.2671 5.5481C74.2711 5.54809 74.2711 5.54809 74.2751 5.54808C75.2895 5.50978 76.0839 4.68342 76.0852 3.66495C76.0825 2.62667 75.2362 1.78477 74.1979 1.78747Z" fill="#90A3BF"/>
<path d="M76.2237 6.59716C75.1161 5.86294 73.313 5.86763 72.2013 6.60762C71.6989 6.94577 71.4227 7.40223 71.424 7.88966C71.4252 8.3771 71.7038 8.82815 72.204 9.15973C72.7598 9.5308 73.4894 9.71516 74.2186 9.71327C74.9478 9.71137 75.6765 9.52322 76.2303 9.14927C76.7287 8.81113 77.005 8.35864 77.0037 7.86724C76.9985 7.37981 76.7238 6.92875 76.2237 6.59716Z" fill="#90A3BF"/>
<path d="M78.5587 3.89231C78.6241 4.66095 78.0789 5.33606 77.3223 5.42918C77.3183 5.42919 77.3183 5.42919 77.3143 5.4292L77.3024 5.42923C77.2787 5.42929 77.2549 5.42935 77.2351 5.43733C76.8507 5.45814 76.4977 5.33621 76.2316 5.11101C76.6389 4.74537 76.8713 4.19788 76.8222 3.60357C76.7936 3.28265 76.6819 2.98968 76.5148 2.74045C76.6652 2.66476 76.8394 2.61676 77.0177 2.60044C77.7942 2.53105 78.4893 3.10783 78.5587 3.89231Z" fill="#90A3BF"/>
<path d="M79.3608 7.55592C79.3301 7.9404 79.0853 8.27392 78.6737 8.50088C78.278 8.71987 77.7789 8.8242 77.2835 8.8136C77.5682 8.55527 77.7338 8.23384 77.7646 7.89295C77.803 7.40145 77.5679 6.93047 77.0993 6.55521C76.8333 6.34587 76.5237 6.18023 76.1866 6.05826C77.0617 5.80236 78.1638 5.9699 78.8429 6.51502C79.2083 6.80732 79.3955 7.17539 79.3608 7.55592Z" fill="#90A3BF"/>
<path d="M83.2321 7.97143L83.2311 7.59416L84.3708 6.35397C84.5958 6.11297 84.7747 5.91462 84.9074 5.75893C85.0439 5.60323 85.1434 5.46427 85.2059 5.34205C85.2685 5.21983 85.2996 5.09029 85.2992 4.95344C85.2986 4.72782 85.2316 4.55415 85.0982 4.43244C84.9647 4.31073 84.7888 4.25016 84.5706 4.25073C84.3487 4.2513 84.1602 4.31652 84.0052 4.44638C83.8502 4.57254 83.7434 4.75221 83.6848 4.98538L83.1907 4.85906C83.2382 4.63701 83.3265 4.44444 83.4555 4.28137C83.5846 4.11829 83.7451 3.99211 83.9372 3.90284C84.1293 3.81357 84.34 3.76864 84.5694 3.76805C84.8209 3.76739 85.0411 3.81675 85.23 3.91613C85.4225 4.01179 85.5727 4.14641 85.6804 4.31997C85.7918 4.49352 85.8478 4.69495 85.8484 4.92427C85.8488 5.07592 85.8178 5.22395 85.7553 5.36836C85.6928 5.51278 85.6007 5.66651 85.4791 5.82957C85.3574 5.98893 85.1988 6.17428 85.0034 6.38562L83.9854 7.49788L85.9439 7.49279L85.9451 7.96438L83.2321 7.97143ZM87.6732 7.95988L87.6625 3.82658L89.1216 3.82279C89.3953 3.82208 89.6359 3.87324 89.8433 3.97626C90.0507 4.07929 90.2119 4.22682 90.3271 4.41885C90.446 4.61088 90.5057 4.83635 90.5064 5.09525C90.5071 5.35416 90.4485 5.57994 90.3306 5.77258C90.2165 5.96151 90.0559 6.10988 89.8491 6.21768C89.6459 6.32177 89.4057 6.37418 89.1283 6.3749L88.2128 6.37728L88.2169 7.95847L87.6732 7.95988ZM88.2115 5.87795L89.1436 5.87553C89.31 5.8751 89.4542 5.84328 89.5761 5.78009C89.698 5.71689 89.7921 5.62603 89.8583 5.5075C89.9246 5.38897 89.9575 5.25203 89.9571 5.09668C89.9567 4.93764 89.9231 4.80087 89.8562 4.68639C89.7893 4.5682 89.6948 4.47783 89.5726 4.41527C89.4503 4.35271 89.306 4.32164 89.1396 4.32207L88.2075 4.3245L88.2115 5.87795ZM92.4558 8.01403C92.1673 8.01478 91.9101 7.94702 91.6841 7.81076C91.4581 7.67449 91.2801 7.48817 91.15 7.25179C91.02 7.01171 90.9545 6.74372 90.9538 6.44783C90.953 6.14823 91.0152 5.88176 91.1403 5.64842C91.2692 5.41506 91.4425 5.23152 91.6604 5.0978C91.882 4.96037 92.1296 4.8913 92.4033 4.89059C92.6252 4.89002 92.8214 4.93019 92.9917 5.01112C93.1658 5.08834 93.3121 5.19523 93.4309 5.33177C93.5533 5.46461 93.6461 5.61786 93.7095 5.79154C93.7765 5.96151 93.8102 6.13896 93.8107 6.32389C93.8108 6.36458 93.8072 6.41082 93.8 6.46262C93.7964 6.51071 93.791 6.55696 93.7837 6.60137L91.3314 6.60774L91.3303 6.16389L93.4829 6.1583L93.2393 6.35866C93.2721 6.16625 93.2532 5.9943 93.1825 5.84284C93.1119 5.69138 93.008 5.57144 92.8709 5.48302C92.7338 5.39461 92.5784 5.35063 92.4045 5.35108C92.2307 5.35153 92.0717 5.39633 91.9277 5.48548C91.7837 5.57462 91.6712 5.70252 91.5903 5.86917C91.513 6.03212 91.4821 6.22638 91.4975 6.45196C91.4833 6.67022 91.517 6.86247 91.5989 7.0287C91.6843 7.19122 91.803 7.31852 91.9549 7.41059C92.1105 7.49896 92.2789 7.5429 92.4601 7.54243C92.6599 7.54191 92.828 7.49524 92.9647 7.40242C93.1013 7.3096 93.2119 7.19095 93.2966 7.04648L93.7299 7.26728C93.6711 7.40428 93.579 7.53028 93.4535 7.64527C93.3317 7.75654 93.1859 7.84569 93.0159 7.91271C92.8496 7.97972 92.6629 8.01349 92.4558 8.01403ZM95.9081 8.00506C95.6196 8.00581 95.3587 7.93991 95.1253 7.80736C94.892 7.67112 94.7065 7.48481 94.5691 7.24845C94.4316 7.01209 94.3625 6.74411 94.3617 6.44452C94.3609 6.14492 94.4268 5.87844 94.5594 5.64508C94.6956 5.4117 94.8801 5.22629 95.1127 5.08883C95.3454 4.95137 95.6078 4.88227 95.9 4.88151C96.1885 4.88076 96.4495 4.9485 96.6828 5.08475C96.9162 5.2173 97.0998 5.39991 97.2335 5.63258C97.371 5.86524 97.4401 6.13322 97.4409 6.43651C97.4417 6.73981 97.3721 7.01 97.2322 7.24708C97.0922 7.48046 96.9059 7.66588 96.6733 7.80334C96.4443 7.93709 96.1892 8.00433 95.9081 8.00506ZM95.9068 7.50574C96.0918 7.50525 96.2581 7.45859 96.4058 7.36574C96.5572 7.27287 96.6752 7.14496 96.7599 6.982C96.8482 6.81902 96.8921 6.63767 96.8916 6.43794C96.8911 6.23451 96.8462 6.05524 96.7571 5.90013C96.6716 5.7413 96.5529 5.61586 96.401 5.52378C96.2528 5.428 96.0863 5.38035 95.9013 5.38083C95.7127 5.38132 95.5427 5.42985 95.3913 5.52641C95.2436 5.61926 95.1255 5.74532 95.0372 5.9046C94.9488 6.06017 94.9049 6.23968 94.9054 6.4431C94.9059 6.64283 94.9508 6.82396 95.04 6.98647C95.1292 7.14898 95.2479 7.27628 95.3961 7.36836C95.5479 7.46043 95.7182 7.50623 95.9068 7.50574ZM98.1206 9.04235L98.11 4.94234L98.6148 4.94103L98.6165 5.5846L98.5496 5.45717C98.6601 5.27934 98.8114 5.1384 99.0034 5.03434C99.1955 4.92657 99.4154 4.87237 99.6632 4.87173C99.9443 4.871 100.196 4.93877 100.418 5.07504C100.644 5.21131 100.822 5.39763 100.952 5.63401C101.082 5.86669 101.148 6.13283 101.149 6.43243C101.149 6.72462 101.085 6.98925 100.957 7.2263C100.828 7.46336 100.651 7.6506 100.425 7.78804C100.204 7.92547 99.9506 7.99455 99.6658 7.99529C99.4254 7.99592 99.2052 7.94286 99.0052 7.83612C98.8089 7.72936 98.6568 7.57811 98.5491 7.38236L98.632 7.29337L98.6366 9.04101L98.1206 9.04235ZM99.6257 7.49607C99.8143 7.49558 99.9825 7.44891 100.13 7.35606C100.278 7.2632 100.392 7.13715 100.473 6.9779C100.558 6.81493 100.6 6.63358 100.599 6.43385C100.599 6.22673 100.556 6.0456 100.47 5.89048C100.389 5.73164 100.274 5.60619 100.125 5.5141C99.9772 5.41832 99.8088 5.37068 99.6202 5.37117C99.4315 5.37166 99.2615 5.41833 99.1101 5.51119C98.9624 5.60405 98.8444 5.73196 98.756 5.89493C98.6714 6.0542 98.6293 6.23554 98.6298 6.43897C98.6303 6.6387 98.6734 6.81983 98.7588 6.98235C98.848 7.14116 98.9667 7.26661 99.1149 7.3587C99.2668 7.45077 99.437 7.49656 99.6257 7.49607ZM101.829 7.92309L101.818 3.72322L102.334 3.72188L102.345 7.92175L101.829 7.92309ZM104.522 7.98267C104.233 7.98342 103.976 7.91567 103.75 7.7794C103.524 7.64313 103.346 7.45681 103.216 7.22043C103.086 6.98035 103.02 6.71236 103.02 6.41647C103.019 6.11687 103.081 5.8504 103.206 5.61706C103.335 5.3837 103.508 5.20017 103.726 5.06645C103.948 4.92902 104.196 4.85995 104.469 4.85924C104.691 4.85866 104.887 4.89883 105.058 4.97976C105.232 5.05698 105.378 5.16387 105.497 5.30041C105.619 5.43325 105.712 5.5865 105.775 5.76018C105.842 5.93015 105.876 6.1076 105.877 6.29253C105.877 6.33322 105.873 6.37946 105.866 6.43126C105.862 6.47936 105.857 6.5256 105.85 6.57001L103.397 6.57638L103.396 6.13254L105.549 6.12694L105.305 6.32731C105.338 6.13489 105.319 5.96295 105.248 5.81148C105.178 5.66002 105.074 5.54008 104.937 5.45167C104.8 5.36325 104.644 5.31927 104.47 5.31972C104.297 5.32018 104.138 5.36497 103.994 5.45412C103.85 5.54326 103.737 5.67116 103.656 5.83781C103.579 6.00076 103.548 6.19502 103.563 6.4206C103.549 6.63886 103.583 6.83111 103.665 6.99734C103.75 7.15986 103.869 7.28716 104.021 7.37923C104.176 7.4676 104.345 7.51155 104.526 7.51107C104.726 7.51056 104.894 7.46388 105.031 7.37106C105.167 7.27824 105.278 7.15959 105.363 7.01512L105.796 7.23592C105.737 7.37292 105.645 7.49892 105.519 7.61391C105.398 7.72519 105.252 7.81433 105.082 7.88135C104.916 7.94836 104.729 7.98214 104.522 7.98267Z" fill="#90A3BF"/>
<defs>
<clipPath id="clip0_20_7573">
<rect width="9.51098" height="9.51098" fill="white" transform="translate(30.604 1.10822) rotate(-0.148906)"/>
</clipPath>
</defs>
</svg>
