<svg width="116" height="18" viewBox="0 0 116 18" fill="none" xmlns="http://www.w3.org/2000/svg">
<g filter="url(#filter0_d_20_7630)">
<path d="M13.5626 4.14297L12.769 3.74874C12.6221 3.67779 12.44 3.73374 12.369 3.88055C12.2941 4.03134 12.354 4.20952 12.5009 4.28047L13.1318 4.5919L13.1367 6.49013L11.6506 6.49795L11.6401 2.43202C11.638 1.63944 11.1059 1.24453 10.4481 1.24624L7.27779 1.25448C6.61994 1.25619 6.08995 1.65386 6.09201 2.44644L6.10874 8.88614L5.51431 8.88769C5.35183 8.88811 5.21744 9.0232 5.21786 9.18568C5.21829 9.34816 5.35337 9.48254 5.51585 9.48212L12.2528 9.46461C12.4153 9.46419 12.5496 9.3291 12.5492 9.16662C12.5488 9.00415 12.4137 8.86976 12.2512 8.87018L11.6568 8.87172L11.6522 7.09238L13.4355 7.08379C13.6019 7.08335 13.7323 6.94828 13.7319 6.7858L13.7257 4.40806C13.7254 4.2971 13.6618 4.19423 13.5626 4.14297ZM7.08468 3.19285C7.08325 2.64201 7.41958 2.44299 7.83172 2.44192L9.90431 2.43653C10.3125 2.43547 10.6499 2.63274 10.6513 3.18358L10.6525 3.67102C10.654 4.2179 10.3176 4.41692 9.9055 4.41799L7.83687 4.42336C7.42473 4.42444 7.08737 4.22717 7.08593 3.67632L7.08468 3.19285ZM7.28834 5.31645L8.47721 5.31336C8.63969 5.31294 8.77478 5.44732 8.7752 5.6098C8.77562 5.77228 8.64123 5.90737 8.47876 5.90779L7.28989 5.91088C7.12741 5.9113 6.99232 5.77692 6.9919 5.61444C6.99148 5.45196 7.12586 5.31687 7.28834 5.31645Z" fill="#90A3BF"/>
<path d="M17.8265 7.43447L19.6312 3.76804L17.6062 3.77331L17.6049 3.30172L20.2014 3.29497L20.2026 3.76656L18.4146 7.43295L17.8265 7.43447ZM22.4529 7.48903C22.1237 7.48988 21.835 7.40186 21.5867 7.22497C21.3421 7.04437 21.151 6.7952 21.0133 6.47747C20.8756 6.15604 20.8063 5.78265 20.8051 5.35729C20.804 4.93194 20.8715 4.56005 21.0075 4.2416C21.1435 3.91946 21.3334 3.6693 21.577 3.49113C21.8207 3.31296 22.1071 3.22344 22.4363 3.22259C22.7655 3.22173 23.0524 3.30976 23.2969 3.48666C23.5415 3.66356 23.7326 3.91273 23.8703 4.23416C24.0117 4.55189 24.0829 4.92342 24.084 5.34877C24.0852 5.77412 24.0177 6.14787 23.8817 6.47001C23.7457 6.79216 23.554 7.04232 23.3066 7.2205C23.063 7.39867 22.7784 7.48818 22.4529 7.48903ZM22.4516 6.98415C22.6735 6.98358 22.8657 6.9165 23.0281 6.78293C23.1905 6.64565 23.3157 6.45484 23.4039 6.2105C23.4957 5.96614 23.5412 5.67937 23.5403 5.35019C23.5395 5.021 23.4925 4.73447 23.3994 4.4906C23.31 4.24671 23.1819 4.05841 23.0151 3.92569C22.852 3.79296 22.6595 3.72688 22.4376 3.72746C22.2157 3.72804 22.0235 3.79511 21.8611 3.92869C21.6987 4.06227 21.5716 4.25123 21.4798 4.49559C21.3916 4.73993 21.348 5.0267 21.3489 5.35588C21.3497 5.68137 21.3948 5.96605 21.4842 6.20994C21.5773 6.45381 21.7054 6.64396 21.8685 6.78039C22.0353 6.91681 22.2297 6.98473 22.4516 6.98415ZM24.914 7.41605L24.9033 3.28275L25.447 3.28134L25.4565 6.91532L27.2707 6.9106L27.272 7.40993L24.914 7.41605Z" fill="#90A3BF"/>
<g clip-path="url(#clip0_20_7630)">
<path d="M39.9717 1.16957C37.7842 1.17526 36.0134 2.95525 36.0191 5.14277C36.0248 7.33028 37.8048 9.10105 39.9923 9.09536C42.1798 9.08968 43.9506 7.30969 43.9449 5.12217C43.9392 2.93465 42.1632 1.16388 39.9717 1.16957Z" fill="#90A3BF"/>
<rect x="36.8033" y="1.97034" width="6.34065" height="6.34065" rx="3.17033" transform="rotate(-0.148906 36.8033 1.97034)" fill="white"/>
<path d="M39.9758 2.75456C38.6632 2.75797 37.6008 3.82597 37.6042 5.13848C37.6076 6.45099 38.6756 7.51345 39.9881 7.51004C41.3006 7.50663 42.3631 6.43863 42.3597 5.12612C42.3563 3.81361 41.2906 2.75115 39.9758 2.75456Z" fill="#90A3BF"/>
<rect x="38.3927" y="3.55133" width="3.17033" height="3.17033" rx="1.58516" transform="rotate(-0.148906 38.3927 3.55133)" fill="white"/>
<rect x="39.5908" y="7.11487" width="0.792582" height="1.58516" transform="rotate(-0.148906 39.5908 7.11487)" fill="#90A3BF"/>
<rect x="41.9624" y="4.7309" width="1.58516" height="0.792582" transform="rotate(-0.148906 41.9624 4.7309)" fill="#90A3BF"/>
<rect x="36.4143" y="4.7453" width="1.58516" height="0.792582" transform="rotate(-0.148906 36.4143 4.7453)" fill="#90A3BF"/>
</g>
<path d="M48.3741 7.35504L48.3633 3.22174L48.8626 3.22044L50.4163 5.419L50.1611 5.41966L51.6922 3.21309L52.1915 3.21179L52.2022 7.34509L51.653 7.34652L51.644 3.90118L51.8384 3.9617L50.3072 6.12944L50.2628 6.12955L48.737 3.96976L48.9088 3.90829L48.9178 7.35363L48.3741 7.35504ZM53.936 7.40716C53.74 7.40767 53.566 7.37299 53.4142 7.30311C53.2661 7.22952 53.1493 7.12995 53.0639 7.00442C52.9785 6.87519 52.9356 6.72735 52.9351 6.56091C52.9347 6.40186 52.9676 6.25938 53.0339 6.13345C53.1038 6.00381 53.2108 5.89442 53.3548 5.80528C53.5025 5.71612 53.6873 5.65276 53.9091 5.6152L55.0183 5.42923L55.0194 5.86198L54.0267 6.031C53.8345 6.06479 53.6941 6.12618 53.6056 6.21518C53.5207 6.30417 53.4785 6.4134 53.4788 6.54285C53.4791 6.66491 53.5275 6.7665 53.6238 6.84762C53.7239 6.92873 53.8479 6.96909 53.9959 6.96871C54.1845 6.96822 54.3472 6.92896 54.4838 6.85093C54.6241 6.76919 54.733 6.6598 54.8103 6.52275C54.8913 6.38568 54.9316 6.23393 54.9312 6.06749L54.9292 5.3074C54.9288 5.14466 54.8674 5.01352 54.7451 4.91397C54.6265 4.81071 54.4691 4.75934 54.2731 4.75985C54.103 4.76029 53.9514 4.80507 53.8185 4.89418C53.6893 4.97959 53.5934 5.0945 53.5309 5.23891L53.0809 5.00706C53.136 4.87007 53.2245 4.74778 53.3462 4.6402C53.468 4.52892 53.6102 4.44163 53.7728 4.37833C53.9354 4.31503 54.1054 4.28315 54.2829 4.28269C54.5123 4.28209 54.714 4.32595 54.888 4.41427C55.0621 4.49889 55.1974 4.61874 55.294 4.77384C55.3942 4.92523 55.4446 5.10263 55.4452 5.30606L55.4504 7.33665L54.9456 7.33796L54.9441 6.77206L55.0385 6.8051C54.9759 6.92363 54.8911 7.02741 54.7841 7.11646C54.6771 7.20551 54.5515 7.27611 54.4074 7.32827C54.2633 7.38042 54.1061 7.40672 53.936 7.40716ZM56.2504 7.33457L56.2427 4.34417L56.7475 4.34286L56.7491 4.9254L56.6657 4.87569C56.7392 4.68686 56.8572 4.54046 57.0196 4.43647C57.1858 4.32877 57.3798 4.27464 57.6018 4.27406C57.8163 4.2735 58.0069 4.32109 58.1736 4.41683C58.344 4.51255 58.4775 4.64536 58.5741 4.81525C58.6744 4.98513 58.7248 5.17733 58.7254 5.39186L58.7304 7.32813L58.2089 7.32948L58.2043 5.55965C58.2039 5.39321 58.1739 5.25274 58.1144 5.13823C58.055 5.02373 57.9697 4.93518 57.8585 4.87259C57.7511 4.80629 57.6271 4.77332 57.4866 4.77369C57.346 4.77405 57.2203 4.80767 57.1095 4.87453C57.0024 4.93769 56.9176 5.02853 56.855 5.14705C56.7925 5.26188 56.7614 5.40066 56.7618 5.5634L56.7664 7.33323L56.2504 7.33457ZM60.5286 7.39003C60.3141 7.39059 60.1198 7.34116 59.9457 7.24175C59.7753 7.14232 59.6417 7.00397 59.5451 6.82668C59.4522 6.64568 59.4054 6.43868 59.4048 6.20566L59.3999 4.33597L59.9159 4.33462L59.9206 6.14884C59.921 6.29679 59.9509 6.42616 60.0104 6.53697C60.0736 6.64777 60.1589 6.73447 60.2663 6.79707C60.3774 6.85966 60.5033 6.89077 60.6438 6.8904C60.7844 6.89004 60.9082 6.85828 61.0153 6.79512C61.1261 6.73195 61.2109 6.64111 61.2698 6.5226C61.3324 6.40408 61.3634 6.26345 61.363 6.1007L61.3584 4.33088L61.8799 4.32952L61.8877 7.31992L61.3828 7.32123L61.3813 6.73869L61.4647 6.7884C61.3949 6.97722 61.275 7.12548 61.1052 7.23319C60.939 7.33718 60.7468 7.38946 60.5286 7.39003ZM63.5638 7.38214C63.3678 7.38265 63.1938 7.34797 63.042 7.27808C62.8939 7.20449 62.7771 7.10493 62.6917 6.9794C62.6063 6.85016 62.5634 6.70233 62.563 6.53589C62.5625 6.37684 62.5955 6.23435 62.6617 6.10843C62.7316 5.97879 62.8386 5.8694 62.9826 5.78025C63.1304 5.6911 63.3151 5.62774 63.537 5.59018L64.6461 5.40421L64.6472 5.83696L63.6546 6.00598C63.4623 6.03977 63.3219 6.10116 63.2334 6.19016C63.1485 6.27915 63.1063 6.38837 63.1066 6.51783C63.1069 6.63989 63.1553 6.74147 63.2517 6.8226C63.3517 6.90371 63.4758 6.94407 63.6237 6.94369C63.8123 6.9432 63.975 6.90394 64.1116 6.82591C64.252 6.74417 64.3608 6.63478 64.4381 6.49772C64.5191 6.36066 64.5594 6.20891 64.559 6.04247L64.557 5.28238C64.5566 5.11964 64.4952 4.98849 64.3729 4.88895C64.2543 4.78569 64.0969 4.73432 63.9009 4.73483C63.7308 4.73527 63.5792 4.78005 63.4463 4.86916C63.3171 4.95457 63.2212 5.06948 63.1587 5.21389L62.7087 4.98204C62.7638 4.84504 62.8523 4.72276 62.9741 4.61518C63.0958 4.5039 63.238 4.41661 63.4006 4.35331C63.5632 4.29001 63.7332 4.25813 63.9108 4.25767C64.1401 4.25707 64.3418 4.30093 64.5159 4.38925C64.6899 4.47387 64.8252 4.59372 64.9218 4.74882C65.0221 4.9002 65.0725 5.07761 65.073 5.28104L65.0783 7.31163L64.5734 7.31294L64.5719 6.74704L64.6663 6.78008C64.6037 6.8986 64.5189 7.00239 64.4119 7.09144C64.3049 7.18048 64.1793 7.25109 64.0352 7.30324C63.8911 7.3554 63.734 7.3817 63.5638 7.38214ZM65.8783 7.30955L65.8673 3.10967L66.3833 3.10833L66.3942 7.30821L65.8783 7.30955Z" fill="#90A3BF"/>
<path d="M78.808 1.06853C77.7698 1.07123 76.9279 1.91752 76.9306 2.9558C76.9332 3.97426 77.7319 4.79648 78.7703 4.82944C78.8019 4.8254 78.8336 4.82532 78.8574 4.82922C78.8654 4.8292 78.8693 4.82919 78.8773 4.82917C78.8812 4.82916 78.8812 4.82916 78.8852 4.82915C79.8996 4.79084 80.694 3.96449 80.6953 2.94602C80.6926 1.90774 79.8463 1.06583 78.808 1.06853Z" fill="#90A3BF"/>
<path d="M80.8338 5.87823C79.7262 5.14401 77.9231 5.14869 76.8114 5.88869C76.309 6.22684 76.0328 6.68329 76.0341 7.17073C76.0353 7.65817 76.3139 8.10921 76.8141 8.4408C77.3699 8.81187 78.0995 8.99623 78.8287 8.99434C79.5579 8.99244 80.2866 8.80429 80.8404 8.43034C81.3388 8.09219 81.6151 7.6397 81.6138 7.1483C81.6086 6.66088 81.334 6.20982 80.8338 5.87823Z" fill="#90A3BF"/>
<path d="M83.1688 3.17338C83.2342 3.94202 82.689 4.61713 81.9324 4.71024C81.9284 4.71025 81.9284 4.71025 81.9244 4.71026L81.9126 4.71029C81.8888 4.71036 81.865 4.71042 81.8452 4.7184C81.4609 4.73921 81.1078 4.61728 80.8417 4.39208C81.249 4.02643 81.4814 3.47895 81.4323 2.88464C81.4037 2.56371 81.292 2.27075 81.1249 2.02152C81.2753 1.94583 81.4495 1.89782 81.6278 1.88151C82.4044 1.81212 83.0994 2.3889 83.1688 3.17338Z" fill="#90A3BF"/>
<path d="M83.9709 6.83698C83.9402 7.22147 83.6954 7.55499 83.2838 7.78195C82.8881 8.00093 82.389 8.10527 81.8937 8.09467C82.1783 7.83634 82.3439 7.51491 82.3747 7.17402C82.4131 6.68252 82.178 6.21154 81.7094 5.83628C81.4434 5.62694 81.1339 5.4613 80.7967 5.33932C81.6718 5.08342 82.774 5.25096 83.453 5.79608C83.8184 6.08839 84.0056 6.45645 83.9709 6.83698Z" fill="#90A3BF"/>
<path d="M89.8118 7.24737L89.8093 6.29311L87.7787 6.29839L87.7775 5.84899L89.7899 3.1141L90.3114 3.11275L90.3185 5.84239L90.8567 5.84099L90.8579 6.29038L90.3197 6.29178L90.3222 7.24605L89.8118 7.24737ZM88.1886 6.04211L88.1104 5.84813L89.8081 5.84372L89.8022 3.56902L89.9632 3.61298L88.1886 6.04211ZM92.5001 7.24039L92.4893 3.10709L93.9484 3.1033C94.2222 3.10258 94.4627 3.15374 94.6701 3.25677C94.8775 3.35979 95.0388 3.50732 95.1539 3.69936C95.2728 3.89138 95.3326 4.11685 95.3332 4.37576C95.3339 4.63467 95.2753 4.86044 95.1575 5.05308C95.0433 5.24201 94.8828 5.39038 94.6759 5.49818C94.4728 5.60227 94.2325 5.65468 93.9551 5.6554L93.0397 5.65778L93.0438 7.23898L92.5001 7.24039ZM93.0384 5.15846L93.9704 5.15603C94.1369 5.1556 94.281 5.12379 94.4029 5.06059C94.5248 4.9974 94.6189 4.90653 94.6852 4.788C94.7514 4.66947 94.7844 4.53253 94.784 4.37719C94.7836 4.21814 94.7499 4.08138 94.683 3.96689C94.6162 3.8487 94.5216 3.75833 94.3994 3.69577C94.2772 3.63321 94.1328 3.60215 93.9664 3.60258L93.0343 3.605L93.0384 5.15846ZM97.2826 7.29454C96.9941 7.29529 96.7369 7.22753 96.5109 7.09126C96.285 6.955 96.1069 6.76867 95.9769 6.53229C95.8468 6.29221 95.7814 6.02423 95.7806 5.72833C95.7798 5.42873 95.842 5.16226 95.9671 4.92892C96.096 4.69557 96.2694 4.51203 96.4872 4.37831C96.7088 4.24088 96.9564 4.17181 97.2301 4.1711C97.4521 4.17052 97.6482 4.2107 97.8186 4.29163C97.9926 4.36885 98.139 4.47573 98.2577 4.61227C98.3801 4.74511 98.473 4.89837 98.5363 5.07204C98.6033 5.24201 98.6371 5.41946 98.6375 5.60439C98.6376 5.64508 98.6341 5.69132 98.6268 5.74313C98.6232 5.79122 98.6178 5.83747 98.6105 5.88187L96.1583 5.88824L96.1571 5.4444L98.3098 5.4388L98.0662 5.63917C98.099 5.44675 98.08 5.27481 98.0094 5.12334C97.9387 4.97188 97.8348 4.85194 97.6977 4.76353C97.5606 4.67511 97.4052 4.63113 97.2313 4.63159C97.0575 4.63204 96.8986 4.67684 96.7546 4.76598C96.6105 4.85512 96.4981 4.98302 96.4171 5.14967C96.3399 5.31262 96.3089 5.50688 96.3243 5.73246C96.3101 5.95073 96.3439 6.14297 96.4257 6.3092C96.5112 6.47172 96.6299 6.59902 96.7817 6.6911C96.9373 6.77946 97.1057 6.82341 97.287 6.82294C97.4867 6.82242 97.6549 6.77575 97.7915 6.68292C97.9281 6.5901 98.0387 6.47145 98.1234 6.32698L98.5568 6.54778C98.4979 6.68479 98.4058 6.81078 98.2803 6.92577C98.1586 7.03705 98.0127 7.1262 97.8427 7.19321C97.6765 7.26022 97.4898 7.294 97.2826 7.29454ZM100.735 7.28556C100.446 7.28631 100.186 7.22041 99.9522 7.08787C99.7188 6.95162 99.5334 6.76532 99.3959 6.52896C99.2584 6.29259 99.1893 6.02462 99.1885 5.72502C99.1878 5.42543 99.2536 5.15895 99.3862 4.92558C99.5224 4.69221 99.7069 4.50679 99.9396 4.36934C100.172 4.23188 100.435 4.16277 100.727 4.16201C101.015 4.16126 101.276 4.22901 101.51 4.36525C101.743 4.4978 101.927 4.68041 102.06 4.91308C102.198 5.14575 102.267 5.41372 102.268 5.71702C102.268 6.02031 102.199 6.2905 102.059 6.52758C101.919 6.76097 101.733 6.94639 101.5 7.08384C101.271 7.21759 101.016 7.28483 100.735 7.28556ZM100.734 6.78624C100.919 6.78576 101.085 6.73909 101.233 6.64624C101.384 6.55338 101.502 6.42547 101.587 6.2625C101.675 6.09953 101.719 5.91818 101.718 5.71845C101.718 5.51502 101.673 5.33575 101.584 5.18063C101.498 5.02181 101.38 4.89636 101.228 4.80429C101.08 4.7085 100.913 4.66085 100.728 4.66133C100.54 4.66182 100.369 4.71035 100.218 4.80691C100.07 4.89976 99.9524 5.02583 99.864 5.1851C99.7756 5.34068 99.7317 5.52018 99.7323 5.72361C99.7328 5.92334 99.7776 6.10446 99.8668 6.26697C99.956 6.42948 100.075 6.55678 100.223 6.64886C100.375 6.74094 100.545 6.78673 100.734 6.78624ZM102.947 8.32285L102.937 4.22284L103.442 4.22153L103.443 4.86511L103.376 4.73767C103.487 4.55985 103.638 4.4189 103.83 4.31484C104.022 4.20708 104.242 4.15287 104.49 4.15223C104.771 4.1515 105.023 4.21927 105.245 4.35555C105.471 4.49181 105.649 4.67813 105.779 4.91452C105.909 5.1472 105.975 5.41334 105.975 5.71293C105.976 6.00513 105.912 6.26975 105.783 6.50681C105.655 6.74386 105.477 6.93111 105.252 7.06854C105.031 7.20597 104.777 7.27506 104.493 7.2758C104.252 7.27642 104.032 7.22336 103.832 7.11662C103.636 7.00987 103.484 6.85861 103.376 6.66286L103.459 6.57388L103.463 8.32151L102.947 8.32285ZM104.453 6.77657C104.641 6.77608 104.809 6.72941 104.957 6.63656C105.105 6.54371 105.219 6.41765 105.3 6.2584C105.385 6.09543 105.427 5.91409 105.426 5.71436C105.426 5.50723 105.383 5.3261 105.297 5.17098C105.215 5.01215 105.1 4.88669 104.952 4.79461C104.804 4.69882 104.636 4.65118 104.447 4.65167C104.258 4.65216 104.088 4.69884 103.937 4.7917C103.789 4.88455 103.671 5.01246 103.583 5.17544C103.498 5.3347 103.456 5.51605 103.457 5.71948C103.457 5.91921 103.5 6.10033 103.586 6.26285C103.675 6.42167 103.794 6.54712 103.942 6.6392C104.094 6.73127 104.264 6.77706 104.453 6.77657ZM106.656 7.2036L106.645 3.00372L107.161 3.00238L107.172 7.20226L106.656 7.2036ZM109.349 7.26318C109.06 7.26393 108.803 7.19617 108.577 7.0599C108.351 6.92364 108.173 6.73732 108.043 6.50093C107.913 6.26086 107.847 5.99287 107.847 5.69697C107.846 5.39738 107.908 5.13091 108.033 4.89756C108.162 4.66421 108.335 4.48067 108.553 4.34695C108.775 4.20952 109.022 4.14045 109.296 4.13974C109.518 4.13916 109.714 4.17934 109.884 4.26027C110.059 4.33749 110.205 4.44437 110.324 4.58092C110.446 4.71375 110.539 4.86701 110.602 5.04068C110.669 5.21065 110.703 5.3881 110.703 5.57304C110.704 5.61372 110.7 5.65997 110.693 5.71177C110.689 5.75986 110.684 5.80611 110.676 5.85051L108.224 5.85688L108.223 5.41304L110.376 5.40745L110.132 5.60781C110.165 5.41539 110.146 5.24345 110.075 5.09199C110.005 4.94052 109.901 4.82058 109.764 4.73217C109.627 4.64376 109.471 4.59978 109.297 4.60023C109.123 4.60068 108.965 4.64548 108.82 4.73462C108.676 4.82376 108.564 4.95166 108.483 5.11832C108.406 5.28126 108.375 5.47552 108.39 5.70111C108.376 5.91937 108.41 6.11161 108.492 6.27784C108.577 6.44037 108.696 6.56766 108.848 6.65974C109.003 6.7481 109.172 6.79205 109.353 6.79158C109.553 6.79106 109.721 6.74439 109.857 6.65157C109.994 6.55874 110.105 6.4401 110.189 6.29562L110.623 6.51642C110.564 6.65343 110.472 6.77942 110.346 6.89441C110.225 7.00569 110.079 7.09484 109.909 7.16186C109.742 7.22887 109.556 7.26264 109.349 7.26318Z" fill="#90A3BF"/>
</g>
<defs>
<filter id="filter0_d_20_7630" x="0.699829" y="0.191467" width="114.627" height="17.788" filterUnits="userSpaceOnUse" color-interpolation-filters="sRGB">
<feFlood flood-opacity="0" result="BackgroundImageFix"/>
<feColorMatrix in="SourceAlpha" type="matrix" values="0 0 0 0 0 0 0 0 0 0 0 0 0 0 0 0 0 0 127 0" result="hardAlpha"/>
<feOffset dy="4"/>
<feGaussianBlur stdDeviation="2"/>
<feComposite in2="hardAlpha" operator="out"/>
<feColorMatrix type="matrix" values="0 0 0 0 0 0 0 0 0 0 0 0 0 0 0 0 0 0 0.25 0"/>
<feBlend mode="normal" in2="BackgroundImageFix" result="effect1_dropShadow_20_7630"/>
<feBlend mode="normal" in="SourceGraphic" in2="effect1_dropShadow_20_7630" result="shape"/>
</filter>
<clipPath id="clip0_20_7630">
<rect width="9.51098" height="9.51098" fill="white" transform="translate(35.2141 0.389282) rotate(-0.148906)"/>
</clipPath>
</defs>
</svg>
