<svg width="108" height="11" viewBox="0 0 108 11" fill="none" xmlns="http://www.w3.org/2000/svg">
<path d="M9.25751 4.50247L8.4639 4.10824C8.31709 4.03729 8.13494 4.09324 8.06399 4.24005C7.98908 4.39084 8.04899 4.56901 8.1958 4.63996L8.82671 4.9514L8.83165 6.84962L7.34557 6.85745L7.33501 2.79152C7.33295 1.99894 6.80089 1.60403 6.14305 1.60574L2.97273 1.61398C2.31489 1.61569 1.78489 2.01336 1.78695 2.80594L1.80369 9.24564L1.20925 9.24719C1.04678 9.24761 0.912388 9.3827 0.91281 9.54517C0.913233 9.70765 1.04832 9.84204 1.2108 9.84162L7.94772 9.82411C8.1102 9.82369 8.24459 9.6886 8.24417 9.52612C8.24374 9.36364 8.10865 9.22925 7.94618 9.22968L7.35174 9.23122L7.34712 7.45188L9.13041 7.44328C9.29685 7.44285 9.42728 7.30777 9.42686 7.14529L9.42068 4.76756C9.42039 4.6566 9.35671 4.55373 9.25751 4.50247ZM2.77962 3.55235C2.77819 3.00151 3.11452 2.80249 3.52666 2.80141L5.59926 2.79603C6.00744 2.79497 6.3448 2.99224 6.34623 3.54308L6.3475 4.03052C6.34892 4.57739 6.01259 4.77641 5.60044 4.77749L3.53181 4.78286C3.11967 4.78393 2.78231 4.58666 2.78088 4.03582L2.77962 3.55235ZM2.98329 5.67595L4.17216 5.67286C4.33464 5.67243 4.46972 5.80682 4.47015 5.9693C4.47057 6.13178 4.33618 6.26687 4.1737 6.26729L2.98483 6.27038C2.82235 6.2708 2.68727 6.13641 2.68684 5.97393C2.68642 5.81146 2.82081 5.67637 2.98329 5.67595Z" fill="#90A3BF"/>
<path d="M14.8421 7.85712C14.5646 7.85784 14.3185 7.803 14.1037 7.69259C13.8926 7.58218 13.7258 7.43281 13.6032 7.2445C13.4844 7.05247 13.4246 6.8381 13.424 6.60138C13.4233 6.33508 13.4967 6.10187 13.6441 5.90175C13.7916 5.70164 13.9946 5.55871 14.2533 5.47297L14.2426 5.6117C14.0463 5.53453 13.8925 5.41103 13.7811 5.24117C13.6734 5.06761 13.6193 4.88097 13.6188 4.68124C13.6182 4.47041 13.6695 4.28349 13.7727 4.12048C13.8795 3.95746 14.0234 3.82948 14.2044 3.73654C14.3891 3.63989 14.5979 3.59127 14.831 3.59066C15.064 3.59006 15.2712 3.63575 15.4527 3.72775C15.6342 3.81975 15.7769 3.94883 15.8809 4.115C15.9886 4.27747 16.0427 4.46411 16.0433 4.67494C16.0438 4.88576 15.987 5.07455 15.8727 5.24129C15.7622 5.40802 15.6146 5.53231 15.4299 5.61416L15.4128 5.46995C15.6757 5.55434 15.8813 5.69806 16.0298 5.9011C16.1783 6.10045 16.2529 6.33142 16.2535 6.59403C16.2541 6.83075 16.1937 7.04543 16.0721 7.23808C15.9543 7.42702 15.7882 7.57725 15.574 7.68877C15.3634 7.80028 15.1195 7.85639 14.8421 7.85712ZM14.8408 7.38553C15.0147 7.38508 15.1662 7.3514 15.2955 7.28448C15.4248 7.21757 15.5244 7.12484 15.5944 7.0063C15.668 6.88405 15.7047 6.74526 15.7043 6.58991C15.7038 6.43087 15.6665 6.29226 15.5922 6.17409C15.5216 6.05222 15.4215 5.96001 15.2919 5.89747C15.1623 5.83123 15.0105 5.79834 14.8367 5.79879C14.6629 5.79924 14.5095 5.83293 14.3765 5.89985C14.2472 5.96306 14.1476 6.05579 14.0776 6.17803C14.0076 6.29657 13.9729 6.43536 13.9733 6.59441C13.9737 6.74975 14.0092 6.88836 14.0798 7.01024C14.1503 7.12841 14.2505 7.22062 14.3801 7.28686C14.5134 7.35309 14.667 7.38598 14.8408 7.38553ZM14.8355 5.3272C14.9612 5.32688 15.0721 5.29885 15.1681 5.24312C15.2679 5.18738 15.3472 5.1132 15.4061 5.02058C15.4651 4.92426 15.4944 4.81322 15.494 4.68746C15.4937 4.56171 15.4638 4.45267 15.4044 4.36036C15.345 4.26804 15.2653 4.19613 15.1653 4.1446C15.069 4.08937 14.9579 4.06192 14.8322 4.06225C14.7027 4.06258 14.5881 4.09062 14.4884 4.14636C14.3887 4.1984 14.3094 4.27074 14.2504 4.36336C14.1915 4.45598 14.1622 4.56517 14.1625 4.69092C14.1628 4.81668 14.1927 4.92756 14.2521 5.02357C14.3116 5.11589 14.3913 5.18966 14.4913 5.24488C14.5913 5.3001 14.706 5.32754 14.8355 5.3272ZM18.5976 7.84736C18.2684 7.84821 17.9796 7.76019 17.7314 7.5833C17.4868 7.4027 17.2957 7.15353 17.158 6.8358C17.0203 6.51436 16.9509 6.14097 16.9498 5.71562C16.9487 5.29027 17.0161 4.91838 17.1522 4.59993C17.2882 4.27779 17.478 4.02763 17.7217 3.84946C17.9653 3.67129 18.2517 3.58177 18.5809 3.58092C18.9101 3.58006 19.197 3.66809 19.4416 3.84499C19.6861 4.02189 19.8773 4.27106 20.015 4.59249C20.1563 4.91021 20.2276 5.28175 20.2287 5.7071C20.2298 6.13245 20.1623 6.5062 20.0263 6.82834C19.8903 7.15048 19.6986 7.40065 19.4513 7.57883C19.2076 7.757 18.923 7.84651 18.5976 7.84736ZM18.5963 7.34248C18.8182 7.34191 19.0103 7.27483 19.1727 7.14125C19.3351 7.00398 19.4604 6.81317 19.5485 6.56882C19.6403 6.32447 19.6858 6.0377 19.685 5.70851C19.6841 5.37933 19.6371 5.0928 19.544 4.84893C19.4546 4.60504 19.3265 4.41674 19.1598 4.28402C18.9967 4.15129 18.8042 4.08521 18.5822 4.08579C18.3603 4.08637 18.1682 4.15344 18.0058 4.28702C17.8434 4.4206 17.7162 4.60956 17.6244 4.85392C17.5363 5.09826 17.4926 5.38503 17.4935 5.71421C17.4943 6.0397 17.5395 6.32438 17.6289 6.56826C17.722 6.81214 17.8501 7.00229 18.0132 7.13872C18.18 7.27514 18.3743 7.34306 18.5963 7.34248ZM21.0587 7.77438L21.0479 3.64108L21.5917 3.63967L21.6011 7.27364L23.4153 7.26893L23.4166 7.76825L21.0587 7.77438Z" fill="#90A3BF"/>
<path d="M35.6668 1.52907C33.4792 1.53475 31.7085 3.31474 31.7142 5.50226C31.7198 7.68978 33.4998 9.46054 35.6874 9.45486C37.8749 9.44917 39.6456 7.66918 39.6399 5.48166C39.6343 3.29415 37.8582 1.52337 35.6668 1.52907Z" fill="#90A3BF"/>
<rect x="32.4985" y="2.32996" width="6.34065" height="6.34065" rx="3.17033" transform="rotate(-0.148906 32.4985 2.32996)" fill="white"/>
<path d="M35.6709 3.1143C34.3584 3.11771 33.296 4.18571 33.2994 5.49822C33.3028 6.81073 34.3708 7.87319 35.6833 7.86978C36.9958 7.86637 38.0583 6.79837 38.0549 5.48586C38.0515 4.17335 36.9858 3.11089 35.6709 3.1143Z" fill="#90A3BF"/>
<rect x="34.0878" y="3.91089" width="3.17033" height="3.17033" rx="1.58516" transform="rotate(-0.148906 34.0878 3.91089)" fill="white"/>
<rect x="35.2859" y="7.47443" width="0.792582" height="1.58516" transform="rotate(-0.148906 35.2859 7.47443)" fill="#90A3BF"/>
<rect x="37.6575" y="5.09045" width="1.58516" height="0.792582" transform="rotate(-0.148906 37.6575 5.09045)" fill="#90A3BF"/>
<rect x="32.1095" y="5.10504" width="1.58516" height="0.792582" transform="rotate(-0.148906 32.1095 5.10504)" fill="#90A3BF"/>
<path d="M44.0693 7.71472L44.0585 3.58142L44.5578 3.58012L46.1115 5.77868L45.8563 5.77934L47.3873 3.57277L47.8867 3.57147L47.8974 7.70477L47.3482 7.7062L47.3392 4.26086L47.5335 4.32138L46.0024 6.48912L45.958 6.48923L44.4322 4.32944L44.604 4.26797L44.613 7.71331L44.0693 7.71472ZM49.6312 7.76684C49.4351 7.76735 49.2612 7.73267 49.1094 7.66279C48.9612 7.5892 48.8445 7.48963 48.7591 7.3641C48.6737 7.23487 48.6308 7.08703 48.6303 6.92059C48.6299 6.76154 48.6628 6.61906 48.7291 6.49313C48.799 6.36349 48.906 6.2541 49.05 6.16496C49.1977 6.0758 49.3825 6.01244 49.6043 5.97488L50.7135 5.78891L50.7146 6.22166L49.7219 6.39068C49.5297 6.42447 49.3893 6.48586 49.3007 6.57486C49.2159 6.66385 49.1737 6.77308 49.174 6.90253C49.1743 7.02459 49.2227 7.12618 49.319 7.2073C49.4191 7.28841 49.5431 7.32877 49.6911 7.32839C49.8797 7.3279 50.0423 7.28864 50.179 7.21061C50.3193 7.12887 50.4282 7.01948 50.5055 6.88243C50.5865 6.74536 50.6268 6.59361 50.6264 6.42717L50.6244 5.66708C50.624 5.50434 50.5626 5.3732 50.4403 5.27365C50.3216 5.17039 50.1643 5.11902 49.9683 5.11953C49.7981 5.11997 49.6466 5.16475 49.5137 5.25386C49.3845 5.33927 49.2886 5.45418 49.2261 5.59859L48.7761 5.36674C48.8312 5.22975 48.9197 5.10746 49.0414 4.99988C49.1632 4.8886 49.3054 4.80131 49.468 4.73801C49.6305 4.67471 49.8006 4.64283 49.9781 4.64237C50.2075 4.64177 50.4092 4.68563 50.5832 4.77395C50.7573 4.85857 50.8926 4.97842 50.9892 5.13352C51.0894 5.28491 51.1398 5.46231 51.1403 5.66574L51.1456 7.69633L50.6408 7.69764L50.6393 7.13174L50.7337 7.16478C50.6711 7.28331 50.5863 7.38709 50.4793 7.47614C50.3723 7.56519 50.2467 7.63579 50.1026 7.68795C49.9584 7.7401 49.8013 7.7664 49.6312 7.76684ZM51.9456 7.69425L51.9379 4.70385L52.4427 4.70254L52.4442 5.28508L52.3609 5.23537C52.4344 5.04654 52.5524 4.90014 52.7148 4.79615C52.881 4.68845 53.075 4.63432 53.297 4.63374C53.5115 4.63318 53.7021 4.68077 53.8688 4.77651C54.0392 4.87223 54.1727 5.00504 54.2693 5.17493C54.3696 5.34481 54.42 5.53701 54.4206 5.75154L54.4256 7.68781L53.9041 7.68916L53.8995 5.91933C53.8991 5.75289 53.8691 5.61242 53.8096 5.49791C53.7501 5.38341 53.6648 5.29486 53.5537 5.23227C53.4463 5.16597 53.3223 5.133 53.1817 5.13337C53.0412 5.13373 52.9155 5.16735 52.8047 5.23421C52.6976 5.29737 52.6128 5.38821 52.5502 5.50673C52.4877 5.62156 52.4566 5.76034 52.457 5.92308L52.4616 7.69291L51.9456 7.69425ZM56.2238 7.74971C56.0093 7.75027 55.8149 7.70084 55.6408 7.60143C55.4704 7.502 55.3369 7.36365 55.2403 7.18636C55.1474 7.00537 55.1006 6.79836 55.1 6.56534L55.0951 4.69565L55.6111 4.6943L55.6158 6.50852C55.6162 6.65647 55.6461 6.78584 55.7056 6.89665C55.7688 7.00745 55.8541 7.09415 55.9615 7.15675C56.0726 7.21934 56.1984 7.25045 56.339 7.25008C56.4795 7.24972 56.6034 7.21796 56.7105 7.1548C56.8213 7.09163 56.9061 7.00079 56.965 6.88228C57.0275 6.76376 57.0586 6.62313 57.0582 6.46038L57.0536 4.69056L57.5751 4.6892L57.5829 7.6796L57.078 7.68091L57.0765 7.09837L57.1598 7.14808C57.0901 7.3369 56.9702 7.48516 56.8004 7.59287C56.6342 7.69686 56.442 7.74914 56.2238 7.74971ZM59.259 7.74182C59.063 7.74233 58.889 7.70765 58.7372 7.63776C58.5891 7.56418 58.4723 7.46461 58.3869 7.33908C58.3015 7.20984 58.2586 7.06201 58.2581 6.89557C58.2577 6.73652 58.2907 6.59403 58.3569 6.46811C58.4268 6.33847 58.5338 6.22908 58.6778 6.13993C58.8256 6.05078 59.0103 5.98742 59.2322 5.94986L60.3413 5.76389L60.3424 6.19664L59.3497 6.36566C59.1575 6.39945 59.0171 6.46084 58.9286 6.54984C58.8437 6.63883 58.8015 6.74805 58.8018 6.87751C58.8021 6.99957 58.8505 7.10115 58.9469 7.18228C59.0469 7.26339 59.1709 7.30375 59.3189 7.30337C59.5075 7.30288 59.6702 7.26362 59.8068 7.18559C59.9472 7.10385 60.056 6.99446 60.1333 6.8574C60.2143 6.72034 60.2546 6.56859 60.2542 6.40215L60.2522 5.64206C60.2518 5.47932 60.1904 5.34817 60.0681 5.24863C59.9495 5.14537 59.7921 5.094 59.5961 5.09451C59.426 5.09495 59.2744 5.13973 59.1415 5.22884C59.0123 5.31425 58.9164 5.42916 58.8539 5.57357L58.4039 5.34172C58.459 5.20473 58.5475 5.08244 58.6693 4.97486C58.791 4.86358 58.9332 4.77629 59.0958 4.71299C59.2584 4.64969 59.4284 4.61781 59.606 4.61735C59.8353 4.61675 60.037 4.66061 60.211 4.74893C60.3851 4.83355 60.5204 4.9534 60.617 5.1085C60.7172 5.25989 60.7676 5.43729 60.7682 5.64072L60.7734 7.67131L60.2686 7.67262L60.2671 7.10672L60.3615 7.13976C60.2989 7.25829 60.2141 7.36207 60.1071 7.45112C60.0001 7.54016 59.8745 7.61077 59.7304 7.66292C59.5863 7.71508 59.4291 7.74138 59.259 7.74182ZM61.5734 7.66923L61.5625 3.46935L62.0785 3.46801L62.0894 7.66789L61.5734 7.66923Z" fill="#90A3BF"/>
<path d="M74.503 1.42803C73.4647 1.43073 72.6228 2.27702 72.6255 3.3153C72.6281 4.33376 73.4268 5.15597 74.4652 5.18894C74.4969 5.1849 74.5286 5.18481 74.5524 5.18871C74.5603 5.18869 74.5643 5.18868 74.5722 5.18866C74.5762 5.18865 74.5762 5.18865 74.5801 5.18864C75.5945 5.15034 76.3889 4.32399 76.3902 3.30551C76.3875 2.26723 75.5413 1.42533 74.503 1.42803Z" fill="#90A3BF"/>
<path d="M76.5287 6.23773C75.4211 5.5035 73.618 5.50819 72.5064 6.24818C72.004 6.58634 71.7277 7.04279 71.729 7.53023C71.7303 8.01766 72.0089 8.46871 72.509 8.8003C73.0648 9.17137 73.7945 9.35573 74.5236 9.35383C75.2528 9.35194 75.9815 9.16379 76.5353 8.78983C77.0338 8.45169 77.31 7.9992 77.3087 7.5078C77.3035 7.02037 77.0289 6.56931 76.5287 6.23773Z" fill="#90A3BF"/>
<path d="M78.8637 3.53288C78.9291 4.30151 78.384 4.97663 77.6273 5.06974C77.6234 5.06975 77.6234 5.06975 77.6194 5.06976L77.6075 5.06979C77.5837 5.06985 77.5599 5.06992 77.5402 5.07789C77.1558 5.09871 76.8028 4.97677 76.5367 4.75158C76.9439 4.38593 77.1763 3.83844 77.1272 3.24413C77.0986 2.92321 76.9869 2.63024 76.8198 2.38102C76.9702 2.30533 77.1445 2.25732 77.3227 2.24101C78.0993 2.17162 78.7943 2.7484 78.8637 3.53288Z" fill="#90A3BF"/>
<path d="M79.6659 7.19648C79.6352 7.58097 79.3903 7.91449 78.9788 8.14144C78.583 8.36043 78.084 8.46477 77.5886 8.45416C77.8733 8.19583 78.0389 7.87441 78.0697 7.53352C78.108 7.04201 77.873 6.57104 77.4044 6.19578C77.1383 5.98643 76.8288 5.8208 76.4916 5.69882C77.3668 5.44292 78.4689 5.61046 79.148 6.15558C79.5133 6.44789 79.7005 6.81595 79.6659 7.19648Z" fill="#90A3BF"/>
<path d="M83.5371 7.61199L83.5362 7.23472L84.6759 5.99454C84.9008 5.75353 85.0797 5.55519 85.2125 5.3995C85.3489 5.2438 85.4484 5.10483 85.511 4.98261C85.5735 4.86039 85.6046 4.73086 85.6043 4.594C85.6037 4.36838 85.5367 4.19472 85.4032 4.07301C85.2697 3.9513 85.0939 3.89072 84.8757 3.89129C84.6537 3.89187 84.4653 3.95709 84.3103 4.08694C84.1552 4.2131 84.0485 4.39277 83.9899 4.62594L83.4958 4.49962C83.5433 4.27757 83.6315 4.08501 83.7606 3.92193C83.8896 3.75885 84.0502 3.63268 84.2423 3.54341C84.4344 3.45414 84.6451 3.40921 84.8744 3.40861C85.1259 3.40796 85.3461 3.45732 85.535 3.55669C85.7276 3.65236 85.8777 3.78697 85.9855 3.96053C86.0969 4.13408 86.1529 4.33552 86.1535 4.56484C86.1539 4.71648 86.1228 4.86451 86.0603 5.00893C85.9978 5.15334 85.9057 5.30708 85.7841 5.47014C85.6625 5.6295 85.5039 5.81485 85.3084 6.02618L84.2905 7.13845L86.2489 7.13336L86.2501 7.60494L83.5371 7.61199ZM87.9783 7.60045L87.9675 3.46715L89.4267 3.46336C89.7004 3.46265 89.9409 3.5138 90.1483 3.61683C90.3557 3.71985 90.517 3.86738 90.6322 4.05942C90.751 4.25144 90.8108 4.47691 90.8115 4.73582C90.8121 4.99473 90.7535 5.2205 90.6357 5.41314C90.5215 5.60207 90.361 5.75044 90.1541 5.85824C89.951 5.96233 89.7107 6.01474 89.4333 6.01546L88.5179 6.01784L88.522 7.59904L87.9783 7.60045ZM88.5166 5.51852L89.4487 5.51609C89.6151 5.51566 89.7593 5.48385 89.8812 5.42065C90.003 5.35746 90.0971 5.26659 90.1634 5.14806C90.2297 5.02953 90.2626 4.89259 90.2622 4.73725C90.2618 4.5782 90.2281 4.44144 90.1613 4.32695C90.0944 4.20876 89.9998 4.11839 89.8776 4.05583C89.7554 3.99327 89.6111 3.96221 89.4446 3.96264L88.5125 3.96506L88.5166 5.51852ZM92.7609 7.6546C92.4724 7.65535 92.2151 7.58759 91.9892 7.45132C91.7632 7.31506 91.5852 7.12873 91.4551 6.89235C91.325 6.65227 91.2596 6.38429 91.2588 6.08839C91.258 5.7888 91.3202 5.52233 91.4454 5.28898C91.5742 5.05563 91.7476 4.87209 91.9655 4.73837C92.187 4.60094 92.4347 4.53187 92.7084 4.53116C92.9303 4.53058 93.1264 4.57076 93.2968 4.65169C93.4708 4.72891 93.6172 4.83579 93.7359 4.97233C93.8583 5.10517 93.9512 5.25843 94.0145 5.4321C94.0815 5.60207 94.1153 5.77952 94.1158 5.96446C94.1159 6.00514 94.1123 6.05138 94.105 6.10319C94.1015 6.15128 94.096 6.19753 94.0887 6.24193L91.6365 6.2483L91.6353 5.80446L93.788 5.79886L93.5444 5.99923C93.5772 5.80681 93.5582 5.63487 93.4876 5.4834C93.4169 5.33194 93.313 5.212 93.1759 5.12359C93.0389 5.03517 92.8834 4.99119 92.7096 4.99165C92.5357 4.9921 92.3768 5.0369 92.2328 5.12604C92.0888 5.21518 91.9763 5.34308 91.8953 5.50973C91.8181 5.67268 91.7872 5.86694 91.8025 6.09253C91.7883 6.31079 91.8221 6.50303 91.9039 6.66926C91.9894 6.83178 92.1081 6.95908 92.26 7.05116C92.4156 7.13952 92.584 7.18347 92.7652 7.183C92.9649 7.18248 93.1331 7.13581 93.2697 7.04298C93.4063 6.95016 93.517 6.83151 93.6017 6.68704L94.035 6.90784C93.9762 7.04485 93.884 7.17084 93.7586 7.28583C93.6368 7.39711 93.4909 7.48626 93.321 7.55327C93.1547 7.62028 92.968 7.65406 92.7609 7.6546ZM96.2132 7.64562C95.9247 7.64637 95.6638 7.58047 95.4304 7.44793C95.197 7.31168 95.0116 7.12538 94.8741 6.88902C94.7367 6.65265 94.6675 6.38468 94.6668 6.08508C94.666 5.78549 94.7319 5.51901 94.8644 5.28564C95.0007 5.05227 95.1851 4.86685 95.4178 4.7294C95.6504 4.59194 95.9129 4.52283 96.2051 4.52207C96.4936 4.52132 96.7545 4.58907 96.9879 4.72531C97.2212 4.85786 97.4048 5.04047 97.5386 5.27314C97.676 5.50581 97.7451 5.77379 97.7459 6.07708C97.7467 6.38037 97.6772 6.65056 97.5372 6.88764C97.3973 7.12103 97.211 7.30645 96.9783 7.4439C96.7493 7.57765 96.4943 7.64489 96.2132 7.64562ZM96.2119 7.1463C96.3968 7.14582 96.5632 7.09915 96.7109 7.0063C96.8623 6.91344 96.9803 6.78553 97.0649 6.62256C97.1533 6.45959 97.1972 6.27824 97.1967 6.07851C97.1962 5.87508 97.1513 5.69581 97.0621 5.54069C96.9766 5.38187 96.858 5.25642 96.7061 5.16435C96.5579 5.06856 96.3913 5.02091 96.2064 5.02139C96.0177 5.02188 95.8477 5.07041 95.6963 5.16697C95.5486 5.25982 95.4306 5.38589 95.3422 5.54516C95.2539 5.70074 95.2099 5.88024 95.2105 6.08367C95.211 6.2834 95.2559 6.46452 95.345 6.62703C95.4342 6.78954 95.5529 6.91684 95.7011 7.00892C95.853 7.101 96.0233 7.14679 96.2119 7.1463ZM98.4257 8.68291L98.415 4.5829L98.9199 4.58159L98.9216 5.22517L98.8547 5.09773C98.9652 4.91991 99.1164 4.77896 99.3085 4.6749C99.5006 4.56714 99.7205 4.51293 99.9683 4.51229C100.249 4.51156 100.501 4.57933 100.723 4.71561C100.949 4.85187 101.127 5.0382 101.257 5.27458C101.387 5.50726 101.453 5.7734 101.454 6.07299C101.454 6.36519 101.39 6.62981 101.262 6.86687C101.133 7.10392 100.956 7.29117 100.73 7.4286C100.509 7.56603 100.256 7.63512 99.9709 7.63586C99.7305 7.63648 99.5102 7.58342 99.3102 7.47668C99.1139 7.36993 98.9619 7.21867 98.8541 7.02292L98.9371 6.93394L98.9416 8.68157L98.4257 8.68291ZM99.9307 7.13663C100.119 7.13614 100.288 7.08947 100.435 6.99662C100.583 6.90377 100.697 6.77771 100.778 6.61846C100.863 6.4555 100.905 6.27415 100.904 6.07442C100.904 5.86729 100.861 5.68617 100.775 5.53104C100.694 5.37221 100.579 5.24675 100.43 5.15467C100.282 5.05889 100.114 5.01124 99.9252 5.01173C99.7366 5.01222 99.5666 5.0589 99.4152 5.15176C99.2674 5.24461 99.1494 5.37252 99.0611 5.5355C98.9764 5.69476 98.9344 5.87611 98.9349 6.07954C98.9354 6.27927 98.9784 6.46039 99.0639 6.62291C99.1531 6.78173 99.2718 6.90718 99.42 6.99926C99.5718 7.09133 99.7421 7.13712 99.9307 7.13663ZM102.134 7.56366L102.123 3.36378L102.639 3.36244L102.65 7.56232L102.134 7.56366ZM104.827 7.62324C104.538 7.62399 104.281 7.55623 104.055 7.41996C103.829 7.2837 103.651 7.09738 103.521 6.86099C103.391 6.62092 103.326 6.35293 103.325 6.05703C103.324 5.75744 103.386 5.49097 103.511 5.25762C103.64 5.02427 103.814 4.84073 104.031 4.70701C104.253 4.56958 104.501 4.50051 104.774 4.4998C104.996 4.49922 105.192 4.5394 105.363 4.62033C105.537 4.69755 105.683 4.80443 105.802 4.94098C105.924 5.07381 106.017 5.22707 106.08 5.40074C106.147 5.57071 106.181 5.74816 106.182 5.9331C106.182 5.97378 106.178 6.02003 106.171 6.07183C106.167 6.11992 106.162 6.16617 106.155 6.21057L103.702 6.21694L103.701 5.7731L105.854 5.76751L105.61 5.96787C105.643 5.77545 105.624 5.60351 105.554 5.45205C105.483 5.30058 105.379 5.18064 105.242 5.09223C105.105 5.00382 104.949 4.95984 104.775 4.96029C104.602 4.96074 104.443 5.00554 104.299 5.09468C104.155 5.18382 104.042 5.31172 103.961 5.47838C103.884 5.64132 103.853 5.83558 103.868 6.06117C103.854 6.27943 103.888 6.47167 103.97 6.6379C104.055 6.80043 104.174 6.92772 104.326 7.0198C104.481 7.10816 104.65 7.15211 104.831 7.15164C105.031 7.15112 105.199 7.10445 105.336 7.01163C105.472 6.9188 105.583 6.80016 105.668 6.65568L106.101 6.87648C106.042 7.01349 105.95 7.13948 105.825 7.25447C105.703 7.36575 105.557 7.4549 105.387 7.52192C105.221 7.58893 105.034 7.6227 104.827 7.62324Z" fill="#90A3BF"/>
</svg>
