<svg width="10" height="10" viewBox="0 0 10 10" fill="none" xmlns="http://www.w3.org/2000/svg">
<path d="M8.73675 2.8091L6.35901 2.81528" stroke="#3D5278" stroke-width="0.594436" stroke-miterlimit="10" stroke-linecap="round" stroke-linejoin="round"/>
<path d="M2.39619 2.82559L0.811035 2.82971" stroke="#3D5278" stroke-width="0.594436" stroke-miterlimit="10" stroke-linecap="round" stroke-linejoin="round"/>
<path d="M3.98492 4.20847C4.75095 4.20648 5.37032 3.58388 5.36833 2.81785C5.36634 2.05183 4.74374 1.43245 3.97771 1.43444C3.21169 1.43644 2.59231 2.05904 2.5943 2.82506C2.59629 3.59109 3.21889 4.21046 3.98492 4.20847Z" stroke="#3D5278" stroke-width="0.594436" stroke-miterlimit="10" stroke-linecap="round" stroke-linejoin="round"/>
<path d="M8.74812 7.1683L7.16296 7.17242" stroke="#3D5278" stroke-width="0.594436" stroke-miterlimit="10" stroke-linecap="round" stroke-linejoin="round"/>
<path d="M3.2 7.18272L0.822266 7.1889" stroke="#3D5278" stroke-width="0.594436" stroke-miterlimit="10" stroke-linecap="round" stroke-linejoin="round"/>
<path d="M5.58136 8.56354C6.34738 8.56155 6.96676 7.93895 6.96477 7.17293C6.96277 6.4069 6.34017 5.78753 5.57415 5.78952C4.80812 5.79151 4.18875 6.41411 4.19074 7.18013C4.19273 7.94616 4.81533 8.56553 5.58136 8.56354Z" stroke="#3D5278" stroke-width="0.594436" stroke-miterlimit="10" stroke-linecap="round" stroke-linejoin="round"/>
</svg>
