<svg width="56" height="11" viewBox="0 0 56 11" fill="none" xmlns="http://www.w3.org/2000/svg">
<path d="M0.399875 9.97021L0.375322 0.522663L2.02389 0.518378L5.57445 5.31538L4.78821 5.31743L8.23771 0.502229L9.88627 0.497945L9.91082 9.94549L8.17349 9.95L8.15405 2.46806L8.82658 2.63117L5.25021 7.42133L5.04731 7.42186L1.53485 2.65012L2.10508 2.48378L2.12453 9.96572L0.399875 9.97021ZM16.7696 10.0798C16.0764 10.0816 15.4293 9.96074 14.8284 9.71712C14.2275 9.47351 13.7025 9.13248 13.2533 8.69403C12.8041 8.25558 12.4519 7.74078 12.1967 7.14965C11.95 6.55004 11.8257 5.90361 11.8239 5.21037C11.8221 4.50867 11.943 3.86161 12.1866 3.26918C12.4302 2.67675 12.7755 2.16015 13.2225 1.71937C13.6694 1.27858 14.1927 0.939055 14.7923 0.700778C15.3919 0.454047 16.0426 0.32977 16.7443 0.327946C17.446 0.326122 18.0972 0.447016 18.6981 0.690627C19.299 0.934238 19.8241 1.27527 20.2733 1.71372C20.7225 2.14372 21.0704 2.6543 21.3171 3.24545C21.5723 3.83659 21.7008 4.483 21.7026 5.1847C21.7044 5.87794 21.5793 6.52501 21.3272 7.12592C21.0751 7.71837 20.7256 8.23499 20.2787 8.67577C19.8318 9.11655 19.3085 9.46031 18.7089 9.70704C18.1177 9.95375 17.4713 10.078 16.7696 10.0798ZM16.7655 8.50736C17.2305 8.50615 17.6572 8.42473 18.0457 8.26309C18.4342 8.09299 18.7717 7.85963 19.0584 7.56298C19.3535 7.26632 19.5766 6.91489 19.7278 6.50869C19.8873 6.10247 19.9665 5.66265 19.9653 5.18921C19.964 4.71578 19.8826 4.2806 19.7209 3.88367C19.5677 3.47826 19.3428 3.128 19.0461 2.83287C18.7579 2.52927 18.4191 2.29766 18.0298 2.13804C17.6405 1.97842 17.2133 1.89921 16.7483 1.90042C16.2918 1.90161 15.8693 1.98302 15.4808 2.14466C15.0924 2.3063 14.7506 2.53968 14.4555 2.8448C14.1688 3.14144 13.9457 3.49288 13.7861 3.89909C13.6265 4.29686 13.5473 4.73246 13.5486 5.20589C13.5498 5.67932 13.6312 6.11873 13.7929 6.52411C13.9546 6.9295 14.1796 7.27976 14.4678 7.57491C14.7644 7.87004 15.1074 8.10164 15.4968 8.26971C15.8861 8.42933 16.309 8.50855 16.7655 8.50736ZM23.6447 9.90979L23.6202 0.462252L27.1329 0.453123C27.7754 0.451453 28.3421 0.568339 28.8331 0.803782C29.3325 1.03075 29.7223 1.3679 30.0024 1.81525C30.2825 2.25414 30.4234 2.79062 30.4251 3.42468C30.4268 4.07566 30.2718 4.62981 29.9602 5.08715C29.657 5.54447 29.2437 5.88371 28.7201 6.10488L30.8984 9.89094L28.9455 9.89602L26.6141 5.75528L27.7317 6.4118L25.3603 6.41796L25.3694 9.90531L23.6447 9.90979ZM25.3564 4.89621L27.1698 4.8915C27.4826 4.89069 27.753 4.8308 27.9809 4.71185C28.2089 4.58445 28.3859 4.41067 28.5122 4.19054C28.6384 3.9704 28.7012 3.71661 28.7004 3.42917C28.6997 3.13327 28.6356 2.87981 28.5082 2.66878C28.3808 2.44931 28.2029 2.28068 27.9743 2.16292C27.7457 2.0367 27.475 1.974 27.1622 1.97481L25.3488 1.97952L25.3564 4.89621ZM32.425 9.88697L32.4005 0.439433L38.6777 0.423119L38.6816 1.94487L34.1291 1.9567L34.1354 4.37882L38.4343 4.36765L38.4383 5.8894L34.1393 5.90058L34.1457 8.36074L38.6983 8.34891L38.7022 9.87066L32.425 9.88697ZM40.3632 9.86634L40.3386 0.418802L41.6829 0.415309L46.9004 7.40185L46.2033 7.54316L46.1847 0.403609L47.9094 0.399127L47.9339 9.84667L46.577 9.8502L41.4355 2.81273L42.0692 2.67159L42.0878 9.86186L40.3632 9.86634ZM51.8329 9.83654L51.8123 1.91075L49.3648 1.91711L49.3609 0.395354L55.9551 0.378216L55.9591 1.89997L53.5496 1.90623L53.5702 9.83202L51.8329 9.83654Z" fill="#3563E9"/>
</svg>
