<svg width="146" height="636" viewBox="0 0 146 636" fill="none" xmlns="http://www.w3.org/2000/svg">
<mask id="path-1-inside-1_20_7512" fill="white">
<path d="M0.759521 1.32275L143.424 0.951983L145.072 635.015L2.40739 635.386L0.759521 1.32275Z"/>
</mask>
<path d="M0.759521 1.32275L143.424 0.951983L145.072 635.015L2.40739 635.386L0.759521 1.32275Z" fill="white"/>
<path d="M143.027 0.953013L144.675 635.016L145.468 635.014L143.82 0.950953L143.027 0.953013Z" fill="#F3F5F7" mask="url(#path-1-inside-1_20_7512)"/>
<path d="M14.4832 19.9685L14.4753 16.925L13.5337 16.9274L13.5325 16.4281L15.9577 16.4218L15.959 16.9211L15.0317 16.9235L15.0396 19.967L14.4832 19.9685ZM18.3068 19.9585L18.3026 18.3607L17.0849 16.4189L17.7174 16.4172L18.6916 17.9887L18.4681 17.9893L19.4294 16.4128L20.0619 16.4111L18.859 18.3592L18.8632 19.9571L18.3068 19.9585ZM21.5131 19.9502L21.5039 16.4074L22.7927 16.404C23.0304 16.4034 23.2398 16.4472 23.4207 16.5355C23.6048 16.6207 23.7478 16.7471 23.8497 16.9149C23.9516 17.0795 24.0028 17.2775 24.0034 17.5089C24.004 17.7372 23.9522 17.9339 23.848 18.099C23.747 18.2641 23.6063 18.3913 23.4258 18.4805C23.2453 18.5698 23.0362 18.6147 22.7984 18.6153L22.0708 18.6172L22.0743 19.9487L21.5131 19.9502ZM22.0695 18.1179L22.8114 18.116C22.9382 18.1156 23.0491 18.09 23.1441 18.039C23.239 17.988 23.3134 17.9181 23.367 17.8292C23.4207 17.7371 23.4473 17.6292 23.447 17.5056C23.4467 17.382 23.4195 17.2758 23.3654 17.1872C23.3112 17.0954 23.2365 17.0258 23.1413 16.9785C23.0461 16.9281 22.935 16.903 22.8082 16.9033L22.0664 16.9052L22.0695 18.1179ZM25.609 19.9396L25.5998 16.3967L27.9347 16.3907L27.936 16.89L26.1622 16.8946L26.1649 17.9123L27.8435 17.9079L27.8448 18.4072L26.1661 18.4116L26.1688 19.4388L27.9426 19.4342L27.9439 19.9335L25.609 19.9396Z" fill="#94A7CB"/>
<path d="M19.9412 33.7688L16.6203 33.7774C15.1778 33.7812 14.3201 34.6433 14.3239 36.0858L14.3325 39.4028C14.3362 40.8492 15.1984 41.7069 16.6409 41.7032L19.9579 41.6946C21.4003 41.6908 22.2581 40.8286 22.2543 39.3861L22.2457 36.0652C22.2459 34.6227 21.3837 33.765 19.9412 33.7688ZM20.183 36.8196L17.9418 39.0724C17.8865 39.128 17.8113 39.1599 17.732 39.1601C17.6528 39.1603 17.5774 39.1288 17.5218 39.0735L16.3974 37.9549C16.2821 37.8403 16.2816 37.6501 16.3963 37.5348C16.5109 37.4196 16.7011 37.4191 16.8163 37.5337L17.7302 38.4428L19.7618 36.4006C19.8764 36.2854 20.0666 36.2849 20.1819 36.3995C20.2971 36.5142 20.2976 36.7004 20.183 36.8196Z" fill="#3563E9"/>
<path d="M28.9044 41.048C28.5346 41.049 28.1909 40.9812 27.8735 40.8446C27.5561 40.7028 27.2862 40.5106 27.0636 40.2681C26.841 40.0257 26.6765 39.746 26.57 39.4293L27.3617 39.0943C27.5053 39.4586 27.7148 39.7381 27.9901 39.9329C28.2653 40.1276 28.5826 40.2246 28.9419 40.2236C29.1533 40.2231 29.3381 40.1909 29.4965 40.1271C29.6548 40.058 29.7761 39.9626 29.8603 39.8408C29.9498 39.719 29.9944 39.5789 29.994 39.4204C29.9934 39.2038 29.9322 39.0322 29.8103 38.9057C29.6885 38.7792 29.5086 38.6793 29.2706 38.6059L28.1601 38.2601C27.7159 38.1238 27.3772 37.916 27.1439 37.6366C26.9107 37.3518 26.7936 37.0193 26.7926 36.6388C26.7918 36.3059 26.8729 36.0151 27.036 35.7663C27.1992 35.5123 27.4232 35.3136 27.7082 35.1702C27.9984 35.0267 28.3285 34.9545 28.6984 34.9536C29.0524 34.9527 29.3749 35.0152 29.6658 35.1413C29.9567 35.2621 30.2055 35.4305 30.4121 35.6466C30.6241 35.8627 30.7779 36.1133 30.8738 36.3984L30.098 36.7412C29.9809 36.4297 29.798 36.1898 29.5492 36.0214C29.3057 35.8529 29.0228 35.7691 28.7005 35.7699C28.505 35.7704 28.3333 35.8052 28.1856 35.8743C28.0378 35.9381 27.9218 36.0335 27.8376 36.1605C27.7586 36.2823 27.7194 36.425 27.7198 36.5888C27.7203 36.7791 27.7815 36.948 27.9034 37.0956C28.0253 37.2433 28.2106 37.3537 28.4591 37.4271L29.4903 37.7493C29.9609 37.8908 30.3155 38.0959 30.554 38.3648C30.7924 38.6284 30.9122 38.9583 30.9132 39.3546C30.914 39.6822 30.8276 39.973 30.6539 40.2271C30.4855 40.4812 30.2509 40.6826 29.9501 40.8313C29.6493 40.9748 29.3007 41.047 28.9044 41.048ZM31.7256 42.5307L31.7103 36.6577L32.5663 36.6555L32.5686 37.5432L32.4651 37.3374C32.6229 37.0939 32.8338 36.9032 33.0976 36.7651C33.3615 36.627 33.6625 36.5576 34.0006 36.5567C34.4075 36.5556 34.7723 36.6524 35.0952 36.8471C35.4233 37.0417 35.6802 37.3079 35.8661 37.6456C36.0571 37.9833 36.1532 38.3635 36.1543 38.7862C36.1554 39.2089 36.0613 39.5896 35.872 39.9282C35.6879 40.2669 35.435 40.537 35.1132 40.7386C34.7914 40.935 34.4244 41.0337 34.0123 41.0347C33.6794 41.0356 33.3754 40.9677 33.1003 40.831C32.8305 40.6944 32.6212 40.4968 32.4726 40.2382L32.6148 40.0714L32.6212 42.5284L31.7256 42.5307ZM33.9229 40.2028C34.1766 40.2021 34.401 40.1408 34.5962 40.0187C34.7913 39.8967 34.9441 39.7298 35.0546 39.5182C35.1702 39.3013 35.2277 39.0581 35.227 38.7886C35.2263 38.5191 35.1676 38.2788 35.0508 38.0678C34.9393 37.8567 34.7856 37.6907 34.5898 37.5697C34.394 37.4486 34.1693 37.3884 33.9156 37.3891C33.6673 37.3898 33.4429 37.4511 33.2424 37.5732C33.0472 37.6952 32.8918 37.862 32.7761 38.0737C32.6657 38.2853 32.6108 38.5259 32.6115 38.7954C32.6122 39.0648 32.6683 39.3078 32.7799 39.5241C32.8966 39.7352 33.053 39.9012 33.2488 40.0222C33.4499 40.1432 33.6746 40.2034 33.9229 40.2028ZM38.9415 41.0219C38.5294 41.023 38.1513 40.9262 37.8074 40.7316C37.4687 40.537 37.1985 40.2709 36.9968 39.9332C36.7952 39.5956 36.6938 39.2128 36.6927 38.7848C36.6916 38.3515 36.791 37.9681 36.9909 37.6347C37.1908 37.2961 37.4596 37.0312 37.7972 36.8401C38.1349 36.6437 38.5124 36.5449 38.9299 36.5439C39.3526 36.5428 39.7306 36.6395 40.064 36.8342C40.4027 37.0235 40.6702 37.287 40.8666 37.6247C41.0682 37.957 41.1696 38.3399 41.1708 38.7731C41.1719 39.2064 41.0725 39.5924 40.8726 39.9311C40.6727 40.2698 40.4039 40.5373 40.0662 40.7337C39.7286 40.9248 39.3536 41.0209 38.9415 41.0219ZM38.9393 40.1897C39.193 40.1891 39.4174 40.1277 39.6126 40.0057C39.8078 39.8836 39.9606 39.7168 40.071 39.5052C40.1866 39.2882 40.2441 39.045 40.2434 38.7755C40.2427 38.5061 40.184 38.2658 40.0672 38.0547C39.9557 37.8437 39.802 37.6776 39.6062 37.5566C39.4104 37.4356 39.1857 37.3754 38.932 37.3761C38.6837 37.3767 38.4593 37.4381 38.2588 37.5601C38.0636 37.6822 37.9082 37.849 37.7925 38.0607C37.6821 38.2723 37.6272 38.5129 37.6279 38.7823C37.6286 39.0518 37.6847 39.2947 37.7963 39.5111C37.9131 39.7221 38.0694 39.8882 38.2652 40.0092C38.4663 40.1302 38.691 40.1904 38.9393 40.1897ZM41.8922 40.9192L41.881 36.6313L42.737 36.6291L42.7393 37.493L42.6597 37.3664C42.7541 37.0861 42.9068 36.8849 43.1178 36.7628C43.3288 36.6355 43.5823 36.5714 43.8782 36.5706L44.1398 36.57L44.1419 37.3863L43.7694 37.3873C43.4735 37.388 43.2333 37.4811 43.0488 37.6666C42.8697 37.8467 42.7805 38.1058 42.7814 38.444L42.7878 40.9168L41.8922 40.9192ZM46.5374 40.9546C46.0883 40.9558 45.7392 40.8299 45.4902 40.5769C45.2412 40.3239 45.1161 39.9676 45.1149 39.5079L45.1095 37.4313L44.3566 37.4333L44.3545 36.6249L44.4733 36.6246C44.6741 36.624 44.8298 36.5655 44.9405 36.449C45.0512 36.3325 45.1062 36.1738 45.1057 35.973L45.1048 35.6401L46.0005 35.6378L46.003 36.6206L46.9779 36.6181L46.98 37.4265L46.0051 37.429L46.0104 39.4659C46.0108 39.6139 46.0349 39.7406 46.0827 39.8462C46.1305 39.9465 46.2074 40.0255 46.3132 40.0834C46.419 40.1359 46.5565 40.162 46.7255 40.1616C46.7678 40.1615 46.8154 40.1587 46.8682 40.1533C46.921 40.1478 46.9712 40.1424 47.0187 40.137L47.0207 40.9058C46.9468 40.9166 46.8649 40.9274 46.7751 40.9382C46.6853 40.949 46.6061 40.9545 46.5374 40.9546Z" fill="#3D5278"/>
<path d="M51.367 42.0834C50.9377 41.5931 50.6113 41.0497 50.3879 40.4532C50.1644 39.8514 50.0517 39.2124 50.05 38.5361C50.0482 37.8544 50.1575 37.2148 50.3779 36.6171C50.5983 36.0195 50.9218 35.4771 51.3485 34.9898L51.9826 34.9882C51.6036 35.5281 51.3171 36.0995 51.1231 36.7024C50.9292 37.3 50.833 37.9105 50.8346 38.534C50.8363 39.1575 50.9356 39.7702 51.1327 40.372C51.3297 40.9686 51.6192 41.5385 52.001 42.0818L51.367 42.0834ZM53.4503 40.8891L53.4367 35.6581L52.3192 35.661L52.3174 34.9873L54.2196 34.9824L54.2349 40.8871L53.4503 40.8891ZM57.7846 40.973C57.3144 40.9742 56.9019 40.8484 56.5472 40.5957C56.1978 40.3377 55.9248 39.9818 55.7281 39.5279C55.5314 39.0687 55.4323 38.5353 55.4307 37.9276C55.4291 37.32 55.5255 36.7887 55.7198 36.3338C55.9141 35.8736 56.1853 35.5162 56.5334 35.2617C56.8814 35.0071 57.2906 34.8793 57.7609 34.8781C58.2311 34.8768 58.641 35.0026 58.9904 35.2553C59.3398 35.508 59.6128 35.864 59.8095 36.3232C60.0115 36.777 60.1132 37.3078 60.1148 37.9155C60.1164 38.5231 60.02 39.057 59.8257 39.5172C59.6314 39.9774 59.3576 40.3348 59.0042 40.5894C58.6561 40.8439 58.2496 40.9718 57.7846 40.973ZM57.7828 40.2517C58.0998 40.2509 58.3743 40.1551 58.6063 39.9642C58.8383 39.7681 59.0172 39.4956 59.1431 39.1465C59.2743 38.7974 59.3393 38.3877 59.3381 37.9175C59.3369 37.4472 59.2698 37.0379 59.1368 36.6895C59.009 36.3411 58.826 36.0721 58.5878 35.8825C58.3548 35.6929 58.0798 35.5985 57.7627 35.5993C57.4457 35.6001 57.1712 35.6959 56.9392 35.8868C56.7072 36.0776 56.5256 36.3475 56.3944 36.6966C56.2685 37.0457 56.2062 37.4553 56.2074 37.9256C56.2086 38.3906 56.2731 38.7973 56.4008 39.1457C56.5338 39.4941 56.7168 39.7657 56.9498 39.9606C57.1881 40.1555 57.4657 40.2525 57.7828 40.2517ZM60.6933 42.0592C61.0671 41.514 61.3509 40.9426 61.5449 40.345C61.7388 39.7421 61.835 39.1289 61.8333 38.5054C61.8317 37.8819 61.7324 37.2719 61.5353 36.6753C61.3383 36.0735 61.0515 35.5036 60.6749 34.9656L61.309 34.9639C61.7382 35.4489 62.0619 35.9897 62.2801 36.5862C62.5036 37.1827 62.6162 37.8218 62.618 38.5034C62.6198 39.1797 62.5105 39.8194 62.2901 40.4223C62.075 41.0199 61.7541 41.565 61.3274 42.0575L60.6933 42.0592Z" fill="#90A3BF"/>
<path d="M19.9988 55.961L16.6779 55.9696C15.2354 55.9734 14.3777 56.8355 14.3815 58.278L14.3901 61.595C14.3939 63.0414 15.256 63.8991 16.6985 63.8954L20.0155 63.8868C21.458 63.883 22.3157 63.0208 22.3119 61.5783L22.3033 58.2574C22.3035 56.8149 21.4413 55.9572 19.9988 55.961ZM20.2406 59.0118L17.9995 61.2646C17.9441 61.3202 17.8689 61.3521 17.7896 61.3523C17.7104 61.3525 17.635 61.321 17.5794 61.2657L16.455 60.1471C16.3398 60.0325 16.3393 59.8423 16.4539 59.727C16.5685 59.6118 16.7587 59.6113 16.8739 59.7259L17.7878 60.635L19.8194 58.5928C19.934 58.4776 20.1243 58.4771 20.2395 58.5917C20.3547 58.7064 20.3552 58.8926 20.2406 59.0118Z" fill="#3563E9"/>
<path d="M28.962 63.2402C28.5922 63.2412 28.2485 63.1734 27.9312 63.0368C27.6137 62.895 27.3438 62.7028 27.1212 62.4603C26.8987 62.2179 26.7341 61.9382 26.6276 61.6215L27.4193 61.2865C27.563 61.6508 27.7724 61.9303 28.0477 62.1251C28.3229 62.3198 28.6402 62.4168 28.9995 62.4158C29.2109 62.4153 29.3957 62.3831 29.5541 62.3193C29.7124 62.2502 29.8337 62.1548 29.9179 62.033C30.0074 61.9112 30.052 61.7711 30.0516 61.6126C30.051 61.396 29.9898 61.2244 29.8679 61.0979C29.7461 60.9714 29.5662 60.8715 29.3282 60.7981L28.2177 60.4523C27.7735 60.316 27.4348 60.1082 27.2016 59.8288C26.9683 59.544 26.8512 59.2115 26.8502 58.831C26.8494 58.4981 26.9305 58.2073 27.0937 57.9585C27.2568 57.7045 27.4809 57.5058 27.7658 57.3624C28.0561 57.2189 28.3861 57.1467 28.756 57.1458C29.11 57.1449 29.4325 57.2074 29.7234 57.3335C30.0144 57.4543 30.2631 57.6227 30.4698 57.8388C30.6817 58.0549 30.8356 58.3055 30.9314 58.5906L30.1556 58.9334C30.0385 58.6219 29.8556 58.382 29.6068 58.2136C29.3633 58.0451 29.0804 57.9613 28.7581 57.9621C28.5626 57.9626 28.391 57.9974 28.2432 58.0665C28.0954 58.1303 27.9794 58.2257 27.8952 58.3527C27.8163 58.4745 27.777 58.6172 27.7774 58.781C27.7779 58.9713 27.8391 59.1402 27.961 59.2878C28.083 59.4355 28.2682 59.5459 28.5167 59.6193L29.5479 59.9415C30.0185 60.083 30.3731 60.2881 30.6116 60.557C30.85 60.8206 30.9698 61.1505 30.9708 61.5468C30.9717 61.8744 30.8852 62.1652 30.7115 62.4193C30.5431 62.6734 30.3085 62.8748 30.0077 63.0235C29.7069 63.167 29.3583 63.2392 28.962 63.2402ZM34.0778 63.2269C33.6393 63.2281 33.248 63.1366 32.9041 62.9526C32.5654 62.7685 32.2979 62.5156 32.1016 62.1938C31.9106 61.872 31.8145 61.505 31.8134 61.0928L31.8034 57.233L32.7386 57.2305L32.7486 61.0508C32.7492 61.3097 32.8053 61.5394 32.9168 61.7399C33.0336 61.9404 33.1898 62.0958 33.3856 62.2063C33.5867 62.3167 33.8167 62.3716 34.0756 62.3709C34.3398 62.3703 34.5695 62.3142 34.7647 62.2027C34.9652 62.0912 35.1207 61.9349 35.2311 61.7339C35.3468 61.5328 35.4044 61.3028 35.4037 61.0439L35.3938 57.2236L36.3211 57.2212L36.3311 61.0811C36.3322 61.4932 36.238 61.8607 36.0487 62.1835C35.8593 62.5063 35.5931 62.7606 35.2501 62.9465C34.9124 63.1323 34.5217 63.2258 34.0778 63.2269ZM38.9196 63.1192L36.8118 57.22L37.8184 57.2173L39.5434 62.2537L39.3453 62.2542L41.0362 57.209L42.0428 57.2064L39.9658 63.1165L38.9196 63.1192Z" fill="#3D5278"/>
<path d="M46.1378 64.2893C45.7086 63.7991 45.3822 63.2557 45.1587 62.6592C44.9352 62.0574 44.8226 61.4183 44.8209 60.742C44.8191 60.0604 44.9284 59.4207 45.1488 58.8231C45.3691 58.2254 45.6927 57.683 46.1194 57.1958L46.7535 57.1941C46.3744 57.7341 46.0879 58.3055 45.894 58.9083C45.7001 59.5059 45.6039 60.1165 45.6055 60.74C45.6071 61.3634 45.7065 61.9761 45.9035 62.578C46.1006 63.1745 46.3901 63.7445 46.7719 64.2877L46.1378 64.2893ZM48.2212 63.0951L48.2076 57.864L47.09 57.8669L47.0883 57.1932L48.9905 57.1883L49.0058 63.093L48.2212 63.0951ZM50.1062 63.0902L50.1048 62.5512L51.7329 60.7795C52.0543 60.4352 52.3099 60.1519 52.4995 59.9295C52.6944 59.707 52.8366 59.5085 52.926 59.3339C53.0153 59.1593 53.0598 58.9743 53.0593 58.7787C53.0584 58.4564 52.9627 58.2083 52.772 58.0345C52.5813 57.8606 52.3301 57.7741 52.0184 57.7749C51.7013 57.7757 51.4321 57.8689 51.2106 58.0544C50.9892 58.2346 50.8366 58.4913 50.7529 58.8244L50.0471 58.6439C50.1149 58.3267 50.241 58.0516 50.4254 57.8186C50.6097 57.5857 50.8391 57.4054 51.1135 57.2779C51.3879 57.1504 51.689 57.0862 52.0166 57.0853C52.3759 57.0844 52.6904 57.1549 52.9603 57.2969C53.2354 57.4335 53.4499 57.6258 53.6038 57.8738C53.7629 58.1217 53.8429 58.4095 53.8438 58.7371C53.8444 58.9537 53.8 59.1652 53.7107 59.3715C53.6214 59.5778 53.4899 59.7974 53.3161 60.0304C53.1424 60.258 52.9158 60.5228 52.6366 60.8247L51.1823 62.4137L53.9802 62.4064L53.9819 63.0801L50.1062 63.0902ZM54.4735 64.2677C54.8472 63.7225 55.1311 63.1511 55.325 62.5535C55.519 61.9506 55.6151 61.3374 55.6135 60.7139C55.6119 60.0904 55.5125 59.4804 55.3155 58.8838C55.1184 58.282 54.8316 57.7121 54.455 57.1741L55.0891 57.1725C55.5184 57.6575 55.8421 58.1982 56.0603 58.7947C56.2838 59.3912 56.3964 60.0303 56.3981 60.7119C56.3999 61.3882 56.2906 62.0279 56.0702 62.6308C55.8552 63.2284 55.5343 63.7735 55.1075 64.266L54.4735 64.2677Z" fill="#90A3BF"/>
<g clip-path="url(#clip0_20_7512)">
<path d="M22.1668 80.4497L22.1668 80.4502L22.1755 83.7711C22.1772 84.4529 21.976 84.9739 21.627 85.3246C21.2779 85.6753 20.7577 85.8791 20.0755 85.8809L16.7569 85.8895C16.0747 85.8913 15.5535 85.6901 15.2026 85.3408C14.8518 84.9915 14.6478 84.4707 14.646 83.7867L14.6374 80.4698C14.6356 79.788 14.8368 79.267 15.1858 78.9163C15.5349 78.5656 16.0551 78.3618 16.7373 78.36L20.0599 78.3514C20.7422 78.3496 21.2633 78.5508 21.6137 78.8995C21.9639 79.2483 22.1669 79.768 22.1668 80.4497Z" stroke="#90A3BF" stroke-width="0.396291"/>
</g>
<path d="M26.9509 85.3427L26.9356 79.438L27.8074 79.4358L30.0346 82.5052L29.5987 82.5063L31.7703 79.4255L32.6421 79.4232L32.6575 85.3279L31.7302 85.3303L31.7177 80.5273L32.0667 80.6215L29.8474 83.6708L29.7523 83.671L27.5648 80.6332L27.8737 80.5373L27.8861 85.3403L26.9509 85.3427ZM33.7197 85.3252L33.7044 79.4204L35.8523 79.4149C36.2485 79.4138 36.5975 79.4869 36.899 79.6341C37.2059 79.7759 37.4442 79.9867 37.614 80.2663C37.7838 80.5406 37.8692 80.8706 37.8702 81.2563C37.8712 81.6368 37.7849 81.9646 37.6112 82.2398C37.4428 82.515 37.2083 82.727 36.9075 82.8757C36.6067 83.0244 36.2581 83.0993 35.8618 83.1004L34.6492 83.1035L34.655 85.3227L33.7197 85.3252ZM34.647 82.2713L35.8834 82.2681C36.0948 82.2675 36.2796 82.2248 36.4379 82.1398C36.5962 82.0549 36.7201 81.9383 36.8095 81.7901C36.899 81.6367 36.9434 81.4569 36.9429 81.2508C36.9423 81.0448 36.897 80.8679 36.8067 80.7201C36.7165 80.5671 36.5921 80.4512 36.4333 80.3724C36.2746 80.2882 36.0895 80.2465 35.8782 80.247L34.6418 80.2502L34.647 82.2713ZM40.2544 85.3082L38.1466 79.4089L39.1532 79.4063L40.8783 84.4426L40.6801 84.4431L42.3711 79.3979L43.3777 79.3953L41.3006 85.3055L40.2544 85.3082Z" fill="#3D5278"/>
<path d="M47.4727 86.4783C47.0434 85.988 46.717 85.4446 46.4936 84.8481C46.2701 84.2463 46.1575 83.6073 46.1557 82.9309C46.1539 82.2493 46.2632 81.6097 46.4836 81.012C46.704 80.4144 47.0275 79.8719 47.4543 79.3847L48.0883 79.3831C47.7093 79.923 47.4228 80.4944 47.2289 81.0973C47.0349 81.6949 46.9387 82.3054 46.9404 82.9289C46.942 83.5524 47.0413 84.1651 47.2384 84.7669C47.4354 85.3635 47.7249 85.9334 48.1067 86.4766L47.4727 86.4783ZM49.556 85.284L49.5424 80.053L48.4249 80.0559L48.4231 79.3822L50.3253 79.3772L50.3406 85.282L49.556 85.284ZM53.3216 85.3693C52.9411 85.3703 52.6027 85.2866 52.3064 85.1183C52.0153 84.95 51.7849 84.7208 51.6151 84.4306C51.4452 84.1351 51.3598 83.7998 51.3588 83.4247C51.3583 83.2186 51.3815 83.0151 51.4286 82.8142C51.4756 82.6133 51.5517 82.4097 51.6568 82.2033C51.762 81.997 51.8961 81.7826 52.0594 81.5603L53.7181 79.3684L54.6533 79.366L52.6233 82.0185L52.4806 82.003C52.5596 81.8971 52.6465 81.815 52.7415 81.7566C52.8417 81.6983 52.9473 81.6557 53.0582 81.629C53.1744 81.6023 53.2959 81.5888 53.4227 81.5884C53.7714 81.5875 54.0834 81.6686 54.3586 81.8317C54.639 81.9895 54.8589 82.2082 55.0181 82.4878C55.1826 82.7675 55.2654 83.0896 55.2663 83.4541C55.2673 83.8187 55.1836 84.1465 55.0153 84.4376C54.8469 84.7234 54.615 84.9512 54.3196 85.121C54.0294 85.2856 53.6967 85.3683 53.3216 85.3693ZM53.3197 84.6719C53.5417 84.6713 53.7397 84.6206 53.9138 84.5197C54.0879 84.4136 54.2249 84.2679 54.3248 84.0827C54.43 83.8975 54.4823 83.6913 54.4817 83.4641C54.4811 83.2263 54.4303 83.0204 54.3295 82.8463C54.2286 82.6669 54.0909 82.5246 53.9162 82.4194C53.7416 82.3141 53.5407 82.2618 53.3135 82.2624C53.0916 82.263 52.8909 82.3163 52.7115 82.4225C52.5322 82.5286 52.3925 82.6717 52.2926 82.8516C52.1926 83.0262 52.143 83.2324 52.1436 83.4702C52.1442 83.6974 52.1949 83.9033 52.2958 84.088C52.4019 84.2727 52.5423 84.4176 52.717 84.5228C52.8969 84.6228 53.0978 84.6724 53.3197 84.6719ZM55.7309 86.4568C56.1047 85.9116 56.3885 85.3402 56.5825 84.7426C56.7764 84.1398 56.8726 83.5266 56.8709 82.9031C56.8693 82.2796 56.77 81.6696 56.5729 81.073C56.3759 80.4711 56.089 79.9012 55.7125 79.3632L56.3466 79.3616C56.7758 79.8466 57.0995 80.3874 57.3177 80.9839C57.5412 81.5804 57.6538 82.2194 57.6556 82.901C57.6573 83.5774 57.548 84.217 57.3277 84.82C57.1126 85.4176 56.7917 85.9627 56.365 86.4552L55.7309 86.4568Z" fill="#90A3BF"/>
<path d="M22.2245 102.642L22.2245 102.642L22.2331 105.963C22.2349 106.645 22.0336 107.166 21.6846 107.517C21.3355 107.867 20.8153 108.071 20.1331 108.073L16.8145 108.082C16.1323 108.083 15.6111 107.882 15.2602 107.533C14.9094 107.184 14.7054 106.663 14.7036 105.979L14.695 102.662C14.6932 101.98 14.8944 101.459 15.2435 101.109C15.5925 100.758 16.1127 100.554 16.7949 100.552L20.1175 100.544C20.7998 100.542 21.321 100.743 21.6713 101.092C22.0216 101.44 22.2246 101.96 22.2245 102.642Z" stroke="#90A3BF" stroke-width="0.396291"/>
<path d="M29.0774 107.625C28.7075 107.626 28.3639 107.558 28.0465 107.421C27.7291 107.279 27.4591 107.087 27.2366 106.845C27.014 106.602 26.8495 106.323 26.743 106.006L27.5347 105.671C27.6783 106.035 27.8878 106.315 28.163 106.51C28.4383 106.704 28.7556 106.801 29.1149 106.8C29.3262 106.8 29.5111 106.768 29.6694 106.704C29.8278 106.635 29.9491 106.539 30.0333 106.417C30.1228 106.296 30.1673 106.156 30.1669 105.997C30.1664 105.78 30.1052 105.609 29.9833 105.482C29.8614 105.356 29.6815 105.256 29.4436 105.183L28.333 104.837C27.8888 104.7 27.5501 104.493 27.3169 104.213C27.0837 103.928 26.9666 103.596 26.9656 103.215C26.9647 102.883 27.0459 102.592 27.209 102.343C27.3722 102.089 27.5962 101.89 27.8812 101.747C28.1714 101.603 28.5015 101.531 28.8713 101.53C29.2254 101.529 29.5478 101.592 29.8388 101.718C30.1297 101.839 30.3785 102.007 30.5851 102.223C30.797 102.439 30.9509 102.69 31.0468 102.975L30.2709 103.318C30.1539 103.006 29.971 102.766 29.7222 102.598C29.4787 102.43 29.1958 102.346 28.8735 102.347C28.678 102.347 28.5063 102.382 28.3586 102.451C28.2108 102.515 28.0948 102.61 28.0106 102.737C27.9316 102.859 27.8924 103.002 27.8928 103.166C27.8933 103.356 27.9545 103.525 28.0764 103.672C28.1983 103.82 28.3835 103.93 28.6321 104.004L29.6633 104.326C30.1339 104.467 30.4885 104.673 30.7269 104.941C30.9654 105.205 31.0851 105.535 31.0862 105.931C31.087 106.259 31.0006 106.55 30.8269 106.804C30.6585 107.058 30.4238 107.259 30.123 107.408C29.8222 107.551 29.4737 107.624 29.0774 107.625ZM33.9079 107.612C33.4799 107.613 33.0992 107.516 32.7658 107.322C32.4377 107.122 32.1807 106.853 31.9949 106.515C31.8091 106.172 31.7156 105.79 31.7145 105.367C31.7134 104.934 31.8048 104.55 31.9889 104.217C32.1783 103.884 32.4312 103.621 32.7477 103.43C33.0643 103.234 33.4233 103.135 33.8249 103.134C34.1472 103.133 34.4353 103.188 34.6892 103.298C34.9431 103.409 35.1575 103.561 35.3324 103.756C35.5073 103.946 35.6399 104.165 35.7304 104.413C35.8262 104.661 35.8744 104.925 35.8751 105.205C35.8753 105.274 35.8729 105.346 35.8678 105.419C35.8627 105.493 35.8523 105.562 35.8366 105.626L32.4206 105.635L32.4187 104.921L35.3275 104.914L34.9003 105.24C34.9525 104.981 34.9334 104.751 34.8431 104.55C34.758 104.344 34.6255 104.184 34.4455 104.068C34.2708 103.947 34.0646 103.887 33.8268 103.887C33.5891 103.888 33.3779 103.949 33.1933 104.071C33.0086 104.188 32.8664 104.357 32.7666 104.579C32.6667 104.796 32.6278 105.061 32.6498 105.372C32.6241 105.663 32.6644 105.917 32.7706 106.133C32.8821 106.349 33.0358 106.518 33.2316 106.639C33.4327 106.76 33.6601 106.82 33.9137 106.82C34.1726 106.819 34.3918 106.76 34.5711 106.643C34.7557 106.527 34.9007 106.376 35.0059 106.191L35.736 106.545C35.6519 106.746 35.5203 106.929 35.3411 107.093C35.1671 107.252 34.9561 107.38 34.708 107.475C34.4652 107.566 34.1985 107.611 33.9079 107.612ZM38.5784 107.6C38.1662 107.601 37.7961 107.504 37.468 107.31C37.1452 107.11 36.8882 106.841 36.6971 106.503C36.5113 106.165 36.4178 105.785 36.4167 105.363C36.4156 104.94 36.5098 104.559 36.6991 104.221C36.8884 103.882 37.144 103.614 37.4658 103.418C37.7876 103.222 38.152 103.123 38.5588 103.122C38.9023 103.121 39.2063 103.189 39.4708 103.326C39.7354 103.462 39.9446 103.652 40.0984 103.895L39.9642 104.101L39.9575 101.501L40.8452 101.499L40.8608 107.499L40.0127 107.501L40.0104 106.629L40.1139 106.795C39.9666 107.055 39.7558 107.253 39.4814 107.392C39.207 107.53 38.906 107.599 38.5784 107.6ZM38.6634 106.768C38.9117 106.767 39.1335 106.706 39.3287 106.584C39.5292 106.461 39.6846 106.295 39.795 106.083C39.9107 105.866 39.9682 105.623 39.9675 105.353C39.9668 105.084 39.908 104.844 39.7912 104.633C39.6797 104.422 39.5234 104.255 39.3223 104.134C39.1265 104.013 38.9044 103.953 38.6561 103.954C38.4077 103.955 38.1833 104.016 37.9829 104.138C37.7824 104.26 37.627 104.427 37.5165 104.638C37.4061 104.85 37.3513 105.091 37.352 105.36C37.3527 105.63 37.4088 105.873 37.5203 106.089C37.6318 106.3 37.7855 106.466 37.9813 106.587C38.1824 106.708 38.4098 106.768 38.6634 106.768ZM43.0321 107.588C42.7414 107.589 42.485 107.54 42.2629 107.44C42.0459 107.335 41.8765 107.192 41.7545 107.013C41.6325 106.829 41.5712 106.612 41.5705 106.364C41.5699 106.131 41.6196 105.922 41.7195 105.737C41.8247 105.552 41.9854 105.396 42.2017 105.268C42.418 105.141 42.6899 105.05 43.0174 104.997L44.5068 104.747L44.5086 105.453L43.1935 105.686C42.9559 105.729 42.7817 105.806 42.671 105.917C42.5604 106.023 42.5052 106.16 42.5057 106.33C42.5061 106.493 42.5672 106.628 42.689 106.733C42.8161 106.833 42.9774 106.883 43.1729 106.883C43.4159 106.882 43.6272 106.829 43.8065 106.722C43.9912 106.616 44.1335 106.476 44.2334 106.301C44.3334 106.121 44.383 105.923 44.3825 105.706L44.3796 104.605C44.3791 104.393 44.2994 104.222 44.1405 104.09C43.9869 103.953 43.7807 103.885 43.5218 103.886C43.284 103.886 43.0754 103.95 42.8961 104.078C42.7221 104.2 42.593 104.358 42.509 104.554L41.763 104.184C41.8417 103.972 41.9707 103.787 42.1499 103.628C42.3291 103.464 42.5375 103.336 42.7751 103.246C43.0179 103.155 43.274 103.11 43.5435 103.109C43.8817 103.108 44.1804 103.171 44.4396 103.297C44.7041 103.423 44.908 103.599 45.0513 103.826C45.1998 104.048 45.2745 104.307 45.2752 104.602L45.2827 107.487L44.4267 107.49L44.4247 106.713L44.6071 106.736C44.5071 106.911 44.3781 107.062 44.2199 107.189C44.067 107.316 43.8902 107.414 43.6896 107.484C43.4943 107.553 43.2751 107.588 43.0321 107.588ZM46.1714 107.485L46.1603 103.197L47.0162 103.195L47.0184 104.035L46.9151 103.925C47.0201 103.655 47.1886 103.451 47.4208 103.313C47.6529 103.17 47.9222 103.098 48.2286 103.097C48.5457 103.096 48.8259 103.164 49.0693 103.301C49.3127 103.437 49.5034 103.627 49.6415 103.87C49.7795 104.113 49.8489 104.392 49.8497 104.709L49.8569 107.476L48.9692 107.478L48.9626 104.95C48.9621 104.733 48.922 104.551 48.8423 104.403C48.7627 104.25 48.6488 104.134 48.5006 104.055C48.3577 103.971 48.1938 103.929 48.0089 103.93C47.824 103.93 47.6576 103.973 47.5099 104.058C47.3674 104.137 47.2568 104.254 47.1779 104.407C47.0991 104.561 47.0599 104.743 47.0605 104.954L47.067 107.483L46.1714 107.485Z" fill="#3D5278"/>
<path d="M54.2877 108.653C53.8584 108.163 53.532 107.619 53.3085 107.023C53.0851 106.421 52.9724 105.782 52.9707 105.106C52.9689 104.424 53.0782 103.784 53.2986 103.187C53.5189 102.589 53.8425 102.047 54.2692 101.559L54.9033 101.558C54.5242 102.098 54.2378 102.669 54.0438 103.272C53.8499 103.869 53.7537 104.48 53.7553 105.104C53.7569 105.727 53.8563 106.34 54.0534 106.942C54.2504 107.538 54.5399 108.108 54.9217 108.651L54.2877 108.653ZM55.3882 107.461L55.3868 106.922L57.0149 105.151C57.3363 104.806 57.5918 104.523 57.7815 104.3C57.9764 104.078 58.1186 103.88 58.2079 103.705C58.2973 103.53 58.3417 103.345 58.3412 103.15C58.3404 102.827 58.2446 102.579 58.054 102.406C57.8633 102.232 57.6121 102.145 57.3003 102.146C56.9833 102.147 56.7141 102.24 56.4926 102.425C56.2712 102.606 56.1186 102.862 56.0349 103.195L55.3291 103.015C55.3969 102.698 55.523 102.423 55.7074 102.19C55.8917 101.957 56.1211 101.776 56.3955 101.649C56.6699 101.521 56.9709 101.457 57.2985 101.456C57.6578 101.455 57.9724 101.526 58.2423 101.668C58.5174 101.805 58.7319 101.997 58.8858 102.245C59.0449 102.493 59.1249 102.781 59.1258 103.108C59.1263 103.325 59.082 103.536 58.9927 103.743C58.9034 103.949 58.7719 104.168 58.5981 104.401C58.4243 104.629 58.1978 104.894 57.9186 105.196L56.4643 106.785L59.2621 106.777L59.2639 107.451L55.3882 107.461ZM62.4236 107.538C61.9533 107.539 61.5409 107.413 61.1862 107.161C60.8368 106.903 60.5637 106.547 60.3671 106.093C60.1704 105.634 60.0712 105.1 60.0696 104.493C60.0681 103.885 60.1644 103.354 60.3588 102.899C60.5531 102.439 60.8243 102.081 61.1723 101.827C61.5204 101.572 61.9296 101.444 62.3998 101.443C62.8701 101.442 63.2799 101.568 63.6293 101.82C63.9787 102.073 64.2518 102.429 64.4485 102.888C64.6504 103.342 64.7522 103.873 64.7538 104.481C64.7554 105.088 64.659 105.622 64.4647 106.082C64.2704 106.542 63.9966 106.9 63.6432 107.154C63.2951 107.409 62.8886 107.537 62.4236 107.538ZM62.4217 106.817C62.7388 106.816 63.0133 106.72 63.2453 106.529C63.4773 106.333 63.6562 106.061 63.7821 105.712C63.9133 105.362 63.9783 104.953 63.9771 104.483C63.9758 104.012 63.9087 103.603 63.7757 103.255C63.648 102.906 63.465 102.637 63.2267 102.448C62.9938 102.258 62.7188 102.164 62.4017 102.164C62.0847 102.165 61.8102 102.261 61.5782 102.452C61.3462 102.643 61.1646 102.913 61.0334 103.262C60.9075 103.611 60.8452 104.02 60.8464 104.491C60.8476 104.956 60.912 105.362 61.0398 105.711C61.1728 106.059 61.3558 106.331 61.5888 106.526C61.827 106.721 62.1047 106.818 62.4217 106.817ZM65.3323 108.624C65.706 108.079 65.9899 107.508 66.1838 106.91C66.3778 106.307 66.4739 105.694 66.4723 105.07C66.4707 104.447 66.3714 103.837 66.1743 103.24C65.9772 102.639 65.6904 102.069 65.3139 101.531L65.9479 101.529C66.3772 102.014 66.7009 102.555 66.9191 103.151C67.1426 103.748 67.2552 104.387 67.257 105.068C67.2587 105.745 67.1494 106.384 66.9291 106.987C66.714 107.585 66.3931 108.13 65.9664 108.623L65.3323 108.624Z" fill="#90A3BF"/>
<path d="M22.2823 124.834L22.2823 124.835L22.291 128.156C22.2927 128.837 22.0915 129.358 21.7425 129.709C21.3934 130.06 20.8732 130.264 20.191 130.265L16.8724 130.274C16.1902 130.276 15.669 130.075 15.3181 129.725C14.9672 129.376 14.7632 128.855 14.7615 128.171L14.7528 124.854C14.7511 124.172 14.9523 123.651 15.3013 123.301C15.6504 122.95 16.1706 122.746 16.8528 122.744L20.1754 122.736C20.8576 122.734 21.3788 122.935 21.7291 123.284C22.0794 123.633 22.2824 124.152 22.2823 124.834Z" stroke="#90A3BF" stroke-width="0.396291"/>
<path d="M29.8169 129.815C29.3995 129.816 29.0109 129.741 28.6512 129.588C28.2968 129.436 27.9871 129.225 27.7222 128.957C27.4626 128.683 27.2583 128.361 27.1094 127.991C26.9605 127.622 26.8855 127.215 26.8843 126.771C26.8832 126.333 26.9535 125.928 27.0952 125.558C27.2421 125.183 27.4474 124.86 27.7109 124.59C27.9744 124.314 28.2829 124.102 28.6365 123.953C28.9902 123.799 29.3783 123.721 29.801 123.72C30.2185 123.719 30.5912 123.79 30.9191 123.931C31.2524 124.073 31.5329 124.26 31.7607 124.492C31.9885 124.718 32.153 124.966 32.2541 125.236L31.415 125.634C31.2873 125.317 31.0832 125.062 30.8027 124.867C30.5274 124.667 30.1942 124.567 29.8032 124.568C29.4122 124.569 29.0664 124.663 28.7657 124.848C28.465 125.034 28.2305 125.291 28.0623 125.619C27.8993 125.947 27.8184 126.33 27.8196 126.769C27.8207 127.207 27.9036 127.593 28.0683 127.925C28.2382 128.253 28.474 128.508 28.7757 128.692C29.0773 128.871 29.4236 128.96 29.8147 128.959C30.2057 128.958 30.5383 128.86 30.8125 128.663C31.0921 128.467 31.2948 128.21 31.4208 127.893L32.262 128.287C32.1623 128.552 31.9991 128.8 31.7725 129.033C31.5459 129.266 31.2664 129.455 30.9339 129.598C30.6066 129.742 30.2343 129.814 29.8169 129.815ZM34.9732 129.802C34.5611 129.803 34.183 129.706 33.8391 129.511C33.5004 129.317 33.2302 129.051 33.0286 128.713C32.8269 128.375 32.7255 127.993 32.7244 127.565C32.7233 127.131 32.8227 126.748 33.0226 126.415C33.2225 126.076 33.4913 125.811 33.829 125.62C34.1666 125.424 34.5442 125.325 34.9616 125.324C35.3843 125.323 35.7623 125.419 36.0957 125.614C36.4344 125.803 36.7019 126.067 36.8983 126.405C37.1 126.737 37.2013 127.12 37.2025 127.553C37.2036 127.986 37.1042 128.372 36.9043 128.711C36.7044 129.05 36.4356 129.317 36.0979 129.514C35.7603 129.705 35.3854 129.801 34.9732 129.802ZM34.9711 128.97C35.2247 128.969 35.4491 128.908 35.6443 128.786C35.8395 128.663 35.9923 128.497 36.1027 128.285C36.2184 128.068 36.2758 127.825 36.2751 127.555C36.2744 127.286 36.2157 127.046 36.0989 126.835C35.9874 126.624 35.8337 126.457 35.6379 126.336C35.4421 126.215 35.2174 126.155 34.9637 126.156C34.7154 126.157 34.491 126.218 34.2905 126.34C34.0953 126.462 33.9399 126.629 33.8242 126.84C33.7138 127.052 33.6589 127.293 33.6596 127.562C33.6603 127.832 33.7164 128.075 33.828 128.291C33.9448 128.502 34.1011 128.668 34.2969 128.789C34.498 128.91 34.7227 128.97 34.9711 128.97ZM39.4538 129.79C39.1315 129.791 38.8486 129.72 38.6052 129.578C38.3618 129.431 38.171 129.228 38.033 128.97C37.9002 128.706 37.8334 128.402 37.8325 128.059L37.8256 125.411L38.7212 125.409L38.7279 127.977C38.7284 128.172 38.7685 128.344 38.8481 128.492C38.9277 128.64 39.039 128.756 39.1819 128.84C39.3248 128.919 39.4887 128.958 39.6736 128.957C39.8638 128.957 40.0301 128.914 40.1726 128.829C40.315 128.744 40.4257 128.625 40.5045 128.472C40.5887 128.318 40.6305 128.138 40.63 127.932L40.6234 125.404L41.5111 125.402L41.5222 129.69L40.6742 129.692L40.672 128.852L40.7674 128.962C40.6677 129.227 40.5018 129.431 40.2696 129.574C40.0375 129.717 39.7656 129.789 39.4538 129.79ZM42.4135 131.272L42.3983 125.399L43.2543 125.397L43.2566 126.285L43.153 126.079C43.3109 125.836 43.5217 125.645 43.7856 125.507C44.0494 125.369 44.3504 125.299 44.6886 125.298C45.0954 125.297 45.4603 125.394 45.7831 125.589C46.1112 125.783 46.3682 126.05 46.554 126.387C46.7451 126.725 46.8412 127.105 46.8423 127.528C46.8434 127.951 46.7492 128.331 46.5599 128.67C46.3759 129.009 46.1229 129.279 45.8011 129.48C45.4793 129.677 45.1124 129.775 44.7002 129.776C44.3673 129.777 44.0633 129.709 43.7882 129.573C43.5184 129.436 43.3091 129.239 43.1605 128.98L43.3028 128.813L43.3091 131.27L42.4135 131.272ZM44.6109 128.945C44.8645 128.944 45.0889 128.883 45.2841 128.76C45.4793 128.638 45.6321 128.472 45.7425 128.26C45.8582 128.043 45.9157 127.8 45.915 127.53C45.9143 127.261 45.8555 127.021 45.7387 126.81C45.6272 126.598 45.4735 126.432 45.2777 126.311C45.0819 126.19 44.8572 126.13 44.6036 126.131C44.3552 126.131 44.1308 126.193 43.9303 126.315C43.7351 126.437 43.5797 126.604 43.464 126.815C43.3536 127.027 43.2987 127.268 43.2994 127.537C43.3001 127.807 43.3563 128.05 43.4678 128.266C43.5846 128.477 43.7409 128.643 43.9367 128.764C44.1378 128.885 44.3625 128.945 44.6109 128.945ZM49.574 129.764C49.146 129.765 48.7653 129.668 48.4319 129.474C48.1038 129.274 47.8468 129.005 47.661 128.667C47.4751 128.324 47.3817 127.941 47.3806 127.519C47.3795 127.085 47.4709 126.702 47.655 126.369C47.8444 126.035 48.0973 125.773 48.4138 125.582C48.7304 125.386 49.0894 125.287 49.491 125.286C49.8133 125.285 50.1014 125.34 50.3553 125.45C50.6092 125.56 50.8236 125.713 50.9985 125.908C51.1734 126.098 51.306 126.317 51.3965 126.565C51.4923 126.813 51.5405 127.077 51.5412 127.357C51.5414 127.426 51.539 127.497 51.5339 127.571C51.5288 127.645 51.5184 127.714 51.5027 127.777L48.0867 127.786L48.0848 127.073L50.9936 127.065L50.5664 127.391C50.6186 127.132 50.5995 126.903 50.5092 126.702C50.4241 126.496 50.2916 126.335 50.1116 126.22C49.9369 126.098 49.7307 126.038 49.4929 126.039C49.2552 126.04 49.044 126.101 48.8593 126.223C48.6747 126.34 48.5325 126.509 48.4327 126.731C48.3328 126.948 48.2939 127.212 48.3158 127.524C48.2902 127.815 48.3305 128.068 48.4367 128.285C48.5482 128.501 48.7019 128.67 48.8977 128.791C49.0988 128.912 49.3262 128.972 49.5798 128.971C49.8387 128.971 50.0579 128.912 50.2372 128.795C50.4218 128.678 50.5668 128.527 50.6719 128.342L51.402 128.697C51.318 128.898 51.1864 129.081 51.0072 129.245C50.8332 129.404 50.6222 129.531 50.3741 129.627C50.1313 129.717 49.8646 129.763 49.574 129.764Z" fill="#3D5278"/>
<path d="M55.8935 130.841C55.4643 130.351 55.1379 129.807 54.9144 129.211C54.6909 128.609 54.5783 127.97 54.5765 127.294C54.5748 126.612 54.6841 125.973 54.9044 125.375C55.1248 124.777 55.4484 124.235 55.8751 123.748L56.5092 123.746C56.1301 124.286 55.8436 124.857 55.6497 125.46C55.4557 126.058 55.3596 126.668 55.3612 127.292C55.3628 127.915 55.4622 128.528 55.6592 129.13C55.8563 129.726 56.1457 130.296 56.5276 130.84L55.8935 130.841ZM57.9768 129.647L57.9632 124.416L56.8457 124.419L56.844 123.745L58.7461 123.74L58.7615 129.645L57.9768 129.647ZM62.6755 129.635L62.672 128.271L59.7711 128.279L59.7695 127.637L62.6443 123.73L63.3894 123.728L63.3995 127.628L64.1683 127.626L64.17 128.268L63.4012 128.27L63.4047 129.633L62.6755 129.635ZM60.3567 127.913L60.245 127.636L62.6703 127.629L62.6619 124.38L62.8919 124.443L60.3567 127.913ZM64.5388 130.819C64.9125 130.273 65.1964 129.702 65.3903 129.105C65.5842 128.502 65.6804 127.888 65.6788 127.265C65.6772 126.641 65.5778 126.031 65.3808 125.435C65.1837 124.833 64.8969 124.263 64.5203 123.725L65.1544 123.723C65.5837 124.208 65.9074 124.749 66.1256 125.346C66.349 125.942 66.4617 126.581 66.4634 127.263C66.4652 127.939 66.3559 128.579 66.1355 129.182C65.9204 129.779 65.5995 130.325 65.1728 130.817L64.5388 130.819Z" fill="#90A3BF"/>
<path d="M22.3398 147.026L22.3398 147.027L22.3484 150.348C22.3502 151.03 22.149 151.551 21.8 151.901C21.4509 152.252 20.9307 152.456 20.2485 152.458L16.9299 152.466C16.2476 152.468 15.7265 152.267 15.3756 151.918C15.0247 151.568 14.8207 151.047 14.819 150.363L14.8103 147.046C14.8086 146.365 15.0098 145.844 15.3588 145.493C15.7079 145.142 16.2281 144.938 16.9103 144.937L20.2329 144.928C20.9151 144.926 21.4363 145.127 21.7866 145.476C22.1369 145.825 22.3399 146.345 22.3398 147.026Z" stroke="#90A3BF" stroke-width="0.396291"/>
<path d="M27.1239 151.919L27.1085 146.015L28.0438 146.012L28.0505 148.612L30.7849 148.605L30.7782 146.005L31.7055 146.003L31.7208 151.907L30.7935 151.91L30.7871 149.437L28.0527 149.444L28.0591 151.917L27.1239 151.919ZM33.9829 151.997C33.6923 151.997 33.4359 151.948 33.2137 151.848C32.9968 151.743 32.8273 151.601 32.7053 151.421C32.5833 151.237 32.522 151.02 32.5214 150.772C32.5208 150.539 32.5704 150.331 32.6703 150.145C32.7755 149.96 32.9363 149.804 33.1526 149.677C33.3689 149.549 33.6408 149.459 33.9682 149.405L35.4577 149.155L35.4595 149.861L34.1444 150.094C33.9067 150.137 33.7326 150.214 33.6219 150.325C33.5112 150.431 33.4561 150.569 33.4565 150.738C33.457 150.902 33.5181 151.036 33.6399 151.142C33.7669 151.242 33.9282 151.291 34.1237 151.291C34.3668 151.29 34.578 151.237 34.7574 151.131C34.942 151.025 35.0843 150.884 35.1843 150.71C35.2842 150.53 35.3339 150.331 35.3333 150.115L35.3305 149.013C35.3299 148.802 35.2502 148.63 35.0914 148.499C34.9378 148.362 34.7315 148.293 34.4726 148.294C34.2348 148.295 34.0263 148.359 33.847 148.486C33.6729 148.608 33.5439 148.767 33.4598 148.962L32.7138 148.592C32.7926 148.38 32.9215 148.195 33.1008 148.036C33.28 147.872 33.4884 147.744 33.7259 147.654C33.9687 147.564 34.2249 147.518 34.4944 147.517C34.8325 147.516 35.1312 147.579 35.3905 147.705C35.655 147.831 35.8589 148.008 36.0021 148.235C36.1507 148.456 36.2253 148.715 36.2261 149.011L36.2336 151.896L35.3776 151.898L35.3756 151.121L35.5579 151.145C35.458 151.319 35.3289 151.47 35.1707 151.597C35.0178 151.725 34.8411 151.823 34.6405 151.892C34.4452 151.961 34.226 151.996 33.9829 151.997ZM38.8996 151.936C38.4505 151.938 38.1014 151.812 37.8524 151.559C37.6034 151.306 37.4783 150.949 37.4771 150.49L37.4717 148.413L36.7188 148.415L36.7167 147.607L36.8356 147.606C37.0364 147.606 37.1921 147.547 37.3027 147.431C37.4134 147.314 37.4685 147.156 37.4679 146.955L37.4671 146.622L38.3627 146.62L38.3652 147.602L39.3401 147.6L39.3422 148.408L38.3673 148.411L38.3726 150.448C38.373 150.596 38.3971 150.722 38.445 150.828C38.4928 150.928 38.5696 151.007 38.6754 151.065C38.7812 151.118 38.9187 151.144 39.0878 151.143C39.13 151.143 39.1776 151.14 39.2304 151.135C39.2832 151.13 39.3334 151.124 39.381 151.119L39.383 151.888C39.309 151.898 39.2271 151.909 39.1373 151.92C39.0476 151.931 38.9683 151.936 38.8996 151.936ZM42.0582 151.976C41.6302 151.977 41.2495 151.88 40.9162 151.685C40.588 151.485 40.3258 151.217 40.1294 150.879C39.9383 150.541 39.8422 150.159 39.8411 149.731C39.84 149.308 39.9341 148.927 40.1234 148.588C40.3128 148.25 40.5737 147.985 40.906 147.794C41.2384 147.597 41.6186 147.499 42.0466 147.498C42.3372 147.497 42.6095 147.549 42.8634 147.654C43.1172 147.754 43.3369 147.893 43.5223 148.072C43.713 148.252 43.8535 148.46 43.944 148.697L43.1603 149.064C43.0699 148.842 42.9241 148.666 42.723 148.534C42.5271 148.397 42.3024 148.329 42.0488 148.33C41.8057 148.33 41.5866 148.392 41.3914 148.514C41.2015 148.631 41.0513 148.797 40.9409 149.014C40.8305 149.226 40.7756 149.467 40.7763 149.736C40.777 150.005 40.8332 150.248 40.9447 150.465C41.0562 150.676 41.2072 150.842 41.3978 150.963C41.5936 151.084 41.813 151.144 42.0561 151.143C42.315 151.143 42.5394 151.076 42.7292 150.944C42.9244 150.806 43.0692 150.623 43.1637 150.396L43.9494 150.766C43.8654 150.993 43.7286 151.2 43.5388 151.385C43.3544 151.565 43.1355 151.709 42.8821 151.815C42.6287 151.921 42.3541 151.975 42.0582 151.976ZM44.6691 151.874L44.6535 145.874L45.5491 145.872L45.5558 148.424L45.4128 148.313C45.5178 148.043 45.6863 147.84 45.9185 147.702C46.1506 147.558 46.4199 147.486 46.7263 147.485C47.0434 147.485 47.3236 147.553 47.567 147.689C47.8104 147.826 48.0011 148.016 48.1391 148.259C48.2772 148.501 48.3466 148.778 48.3474 149.09L48.3546 151.864L47.4669 151.867L47.4603 149.338C47.4598 149.122 47.417 148.939 47.3321 148.792C47.2524 148.639 47.1412 148.523 46.9983 148.444C46.8554 148.36 46.6915 148.318 46.5066 148.318C46.3269 148.319 46.1632 148.361 46.0155 148.446C45.8731 148.526 45.7597 148.643 45.6756 148.796C45.5967 148.949 45.5576 149.132 45.5581 149.343L45.5647 151.871L44.6691 151.874ZM51.4454 151.951C51.1125 151.952 50.8085 151.884 50.5334 151.748C50.2636 151.611 50.0543 151.413 49.9057 151.155L50.0083 150.988L50.0106 151.86L49.1546 151.862L49.139 145.862L50.0346 145.86L50.0414 148.46L49.8982 148.254C50.0561 148.01 50.2669 147.82 50.5308 147.682C50.7946 147.544 51.0956 147.474 51.4338 147.473C51.8406 147.472 52.2055 147.569 52.5283 147.764C52.8564 147.958 53.1134 148.224 53.2992 148.562C53.4903 148.9 53.5864 149.28 53.5875 149.703C53.5886 150.125 53.4944 150.506 53.3051 150.845C53.121 151.183 52.8681 151.454 52.5463 151.655C52.2245 151.852 51.8575 151.95 51.4454 151.951ZM51.3561 151.119C51.6097 151.119 51.8341 151.057 52.0293 150.935C52.2245 150.813 52.3773 150.646 52.4877 150.435C52.6034 150.218 52.6608 149.975 52.6601 149.705C52.6594 149.436 52.6007 149.195 52.4839 148.984C52.3724 148.773 52.2187 148.607 52.0229 148.486C51.8271 148.365 51.6024 148.305 51.3487 148.306C51.1004 148.306 50.876 148.368 50.6755 148.49C50.4803 148.612 50.3249 148.779 50.2092 148.99C50.0988 149.202 50.0439 149.442 50.0446 149.712C50.0453 149.981 50.1014 150.224 50.213 150.441C50.3298 150.652 50.4861 150.818 50.6819 150.939C50.883 151.06 51.1077 151.12 51.3561 151.119ZM55.59 151.941C55.2994 151.941 55.043 151.892 54.8208 151.792C54.6039 151.687 54.4344 151.545 54.3124 151.365C54.1904 151.181 54.1291 150.964 54.1284 150.716C54.1278 150.483 54.1775 150.274 54.2774 150.089C54.3826 149.904 54.5433 149.748 54.7597 149.62C54.976 149.493 55.2478 149.403 55.5753 149.349L57.0647 149.099L57.0665 149.805L55.7515 150.038C55.5138 150.081 55.3396 150.158 55.229 150.269C55.1183 150.375 55.0632 150.513 55.0636 150.682C55.064 150.845 55.1251 150.98 55.2469 151.085C55.374 151.186 55.5353 151.235 55.7308 151.235C55.9739 151.234 56.1851 151.181 56.3644 151.075C56.5491 150.968 56.6914 150.828 56.7914 150.653C56.8913 150.474 56.941 150.275 56.9404 150.059L56.9375 148.957C56.937 148.746 56.8573 148.574 56.6984 148.442C56.5448 148.305 56.3386 148.237 56.0797 148.238C55.8419 148.239 55.6334 148.302 55.454 148.43C55.28 148.552 55.1509 148.711 55.0669 148.906L54.3209 148.536C54.3996 148.324 54.5286 148.139 54.7078 147.98C54.8871 147.816 55.0954 147.688 55.333 147.598C55.5758 147.507 55.832 147.462 56.1014 147.461C56.4396 147.46 56.7383 147.523 56.9975 147.649C57.2621 147.775 57.466 147.952 57.6092 148.178C57.7577 148.4 57.8324 148.659 57.8331 148.955L57.8406 151.84L56.9847 151.842L56.9826 151.065L57.165 151.088C57.0651 151.263 56.936 151.414 56.7778 151.541C56.6249 151.668 56.4481 151.767 56.2475 151.836C56.0522 151.905 55.833 151.94 55.59 151.941ZM60.7665 151.927C60.3385 151.928 59.9578 151.831 59.6244 151.637C59.2963 151.437 59.0341 151.168 58.8377 150.83C58.6466 150.493 58.5505 150.11 58.5494 149.682C58.5483 149.259 58.6424 148.879 58.8317 148.54C59.0211 148.201 59.2819 147.936 59.6143 147.745C59.9467 147.549 60.3269 147.45 60.7549 147.449C61.0455 147.448 61.3177 147.5 61.5716 147.605C61.8255 147.705 62.0452 147.845 62.2306 148.024C62.4212 148.203 62.5618 148.411 62.6523 148.649L61.8686 149.015C61.7781 148.794 61.6324 148.617 61.4313 148.486C61.2354 148.349 61.0107 148.281 60.757 148.281C60.514 148.282 60.2948 148.343 60.0997 148.465C59.9097 148.582 59.7596 148.749 59.6492 148.966C59.5388 149.177 59.4839 149.418 59.4846 149.687C59.4853 149.957 59.5414 150.2 59.653 150.416C59.7645 150.627 59.9155 150.793 60.106 150.914C60.3018 151.035 60.5213 151.096 60.7643 151.095C61.0232 151.094 61.2476 151.028 61.4375 150.895C61.6327 150.757 61.7775 150.574 61.872 150.347L62.6576 150.717C62.5737 150.945 62.4368 151.151 62.2471 151.337C62.0626 151.517 61.8437 151.66 61.5904 151.766C61.337 151.873 61.0624 151.926 60.7665 151.927ZM63.3774 151.825L63.3618 145.825L64.2574 145.823L64.2678 149.841L63.9189 149.755L66.061 147.53L67.1785 147.527L65.5661 149.252L67.261 151.815L66.2306 151.818L64.7188 149.547L65.2497 149.474L63.9851 150.825L64.2688 150.23L64.273 151.823L63.3774 151.825Z" fill="#3D5278"/>
<path d="M71.3466 152.993C70.9173 152.503 70.5909 151.96 70.3674 151.363C70.144 150.761 70.0313 150.122 70.0296 149.446C70.0278 148.764 70.1371 148.125 70.3575 147.527C70.5778 146.929 70.9014 146.387 71.3281 145.9L71.9622 145.898C71.5831 146.438 71.2967 147.009 71.1027 147.612C70.9088 148.21 70.8126 148.82 70.8142 149.444C70.8158 150.067 70.9152 150.68 71.1123 151.282C71.3093 151.879 71.5988 152.448 71.9806 152.992L71.3466 152.993ZM73.4299 151.799L73.4163 146.568L72.2987 146.571L72.297 145.897L74.1992 145.892L74.2145 151.797L73.4299 151.799ZM78.1286 151.787L78.125 150.424L75.2242 150.431L75.2225 149.789L78.0974 145.882L78.8424 145.88L78.8525 149.78L79.6213 149.778L79.623 150.42L78.8542 150.422L78.8577 151.785L78.1286 151.787ZM75.8097 150.065L75.6981 149.788L78.1234 149.782L78.1149 146.532L78.3449 146.595L75.8097 150.065ZM79.9918 152.971C80.3655 152.426 80.6494 151.854 80.8433 151.257C81.0373 150.654 81.1334 150.041 81.1318 149.417C81.1302 148.794 81.0309 148.184 80.8338 147.587C80.6367 146.985 80.3499 146.415 79.9734 145.877L80.6074 145.876C81.0367 146.361 81.3604 146.901 81.5786 147.498C81.8021 148.094 81.9147 148.733 81.9165 149.415C81.9182 150.091 81.8089 150.731 81.5886 151.334C81.3735 151.932 81.0526 152.477 80.6259 152.969L79.9918 152.971Z" fill="#90A3BF"/>
<path d="M15.926 181.709C15.6755 181.71 15.4424 181.664 15.2266 181.573C15.0139 181.481 14.8281 181.355 14.6692 181.194C14.5134 181.029 14.3909 180.836 14.3015 180.615C14.2122 180.393 14.1671 180.149 14.1665 179.883C14.1658 179.62 14.2079 179.377 14.293 179.155C14.3811 178.929 14.5043 178.736 14.6624 178.574C14.8205 178.408 15.0056 178.281 15.2178 178.192C15.43 178.099 15.6629 178.053 15.9165 178.052C16.1669 178.051 16.3906 178.094 16.5873 178.179C16.7873 178.264 16.9556 178.376 17.0923 178.515C17.229 178.651 17.3276 178.8 17.3883 178.961L16.8848 179.2C16.8082 179.01 16.6858 178.857 16.5175 178.74C16.3523 178.62 16.1524 178.56 15.9178 178.561C15.6832 178.561 15.4757 178.617 15.2953 178.729C15.1148 178.84 14.9742 178.994 14.8732 179.191C14.7755 179.388 14.7269 179.618 14.7276 179.881C14.7283 180.144 14.778 180.376 14.8768 180.575C14.9788 180.771 15.1203 180.925 15.3013 181.035C15.4822 181.143 15.69 181.196 15.9246 181.195C16.1593 181.195 16.3588 181.136 16.5234 181.018C16.6911 180.9 16.8128 180.746 16.8884 180.556L17.3931 180.792C17.3332 180.951 17.2353 181.1 17.0994 181.24C16.9634 181.38 16.7957 181.493 16.5962 181.579C16.3998 181.665 16.1764 181.708 15.926 181.709ZM18.68 181.645L19.9167 178.099L20.611 178.097L21.8661 181.636L21.2669 181.638L20.9938 180.845L19.5529 180.848L19.2792 181.643L18.68 181.645ZM19.7133 180.349L20.8213 180.346L20.1888 178.493L20.3457 178.492L19.7133 180.349ZM23.3079 181.633L23.2987 178.09L24.5875 178.087C24.8252 178.086 25.0346 178.13 25.2155 178.218C25.3996 178.303 25.5426 178.43 25.6445 178.597C25.7464 178.762 25.7976 178.96 25.7982 179.191C25.7988 179.42 25.747 179.616 25.6428 179.782C25.5418 179.947 25.4011 180.074 25.2206 180.163C25.0401 180.252 24.831 180.297 24.5932 180.298L23.8656 180.3L23.8691 181.631L23.3079 181.633ZM23.8643 179.8L24.6062 179.798C24.733 179.798 24.8439 179.772 24.9389 179.722C25.0338 179.671 25.1082 179.601 25.1618 179.512C25.2155 179.42 25.2421 179.312 25.2418 179.188C25.2415 179.064 25.2143 178.958 25.1602 178.87C25.106 178.778 25.0313 178.708 24.9361 178.661C24.8409 178.611 24.7298 178.585 24.603 178.586L23.8612 178.588L23.8643 179.8ZM27.0899 181.623L28.3266 178.077L29.0209 178.075L30.2761 181.615L29.6769 181.616L29.4038 180.823L27.9628 180.826L27.6891 181.621L27.0899 181.623ZM28.1232 180.327L29.2313 180.324L28.5987 178.471L28.7557 178.47L28.1232 180.327ZM33.3682 181.664C33.1177 181.664 32.8846 181.619 32.6688 181.528C32.4561 181.436 32.2703 181.31 32.1114 181.149C31.9556 180.984 31.833 180.791 31.7437 180.569C31.6544 180.348 31.6093 180.104 31.6086 179.837C31.608 179.574 31.6501 179.332 31.7352 179.109C31.8233 178.884 31.9465 178.69 32.1046 178.528C32.2627 178.363 32.4478 178.236 32.66 178.146C32.8721 178.054 33.105 178.007 33.3587 178.007C33.6091 178.006 33.8327 178.048 34.0295 178.133C34.2295 178.218 34.3978 178.331 34.5345 178.47C34.6712 178.606 34.7698 178.754 34.8305 178.916L34.327 179.155C34.2504 178.965 34.128 178.812 33.9596 178.695C33.7945 178.575 33.5946 178.515 33.36 178.516C33.1254 178.516 32.9179 178.572 32.7375 178.684C32.557 178.795 32.4164 178.949 32.3154 179.146C32.2176 179.343 32.1691 179.573 32.1698 179.836C32.1705 180.099 32.2202 180.33 32.319 180.53C32.421 180.726 32.5625 180.879 32.7434 180.99C32.9244 181.097 33.1322 181.151 33.3668 181.15C33.6014 181.149 33.801 181.09 33.9656 180.973C34.1333 180.855 34.2549 180.701 34.3305 180.51L34.8352 180.747C34.7754 180.905 34.6775 181.055 34.5416 181.195C34.4056 181.334 34.2379 181.447 34.0384 181.533C33.842 181.62 33.6186 181.663 33.3682 181.664ZM36.436 181.599L36.4268 178.056L36.9879 178.054L36.9972 181.597L36.436 181.599ZM39.3809 181.591L39.373 178.547L38.4314 178.55L38.4301 178.051L40.8554 178.044L40.8567 178.544L39.9294 178.546L39.9373 181.59L39.3809 181.591ZM43.2045 181.581L43.2003 179.983L41.9826 178.041L42.6151 178.04L43.5893 179.611L43.3658 179.612L44.3271 178.035L44.9595 178.034L43.7567 179.982L43.7609 181.58L43.2045 181.581Z" fill="#94A7CB"/>
<path d="M20.3614 195.455L17.0405 195.463C15.598 195.467 14.7403 196.329 14.744 197.772L14.7526 201.089C14.7564 202.535 15.6186 203.393 17.0611 203.389L20.378 203.381C21.8205 203.377 22.6782 202.515 22.6745 201.072L22.6658 197.751C22.6661 196.309 21.8039 195.451 20.3614 195.455ZM20.6031 198.506L18.362 200.758C18.3067 200.814 18.2315 200.846 18.1522 200.846C18.0729 200.846 17.9976 200.815 17.9419 200.76L16.8175 199.641C16.7023 199.526 16.7018 199.336 16.8164 199.221C16.9311 199.106 17.1213 199.105 17.2365 199.22L18.1503 200.129L20.182 198.087C20.2966 197.971 20.4868 197.971 20.602 198.086C20.7173 198.2 20.7177 198.387 20.6031 198.506Z" fill="#3563E9"/>
<path d="M27.0417 202.645L27.04 201.971L28.6523 200.239C28.9685 199.9 29.2161 199.627 29.3952 199.421C29.5796 199.209 29.7112 199.024 29.7901 198.865C29.8742 198.706 29.9161 198.54 29.9156 198.365C29.9149 198.08 29.8271 197.861 29.6523 197.708C29.4776 197.55 29.2528 197.472 28.978 197.472C28.6927 197.473 28.4472 197.556 28.2416 197.72C28.0359 197.879 27.8939 198.112 27.8154 198.418L26.9905 198.183C27.0531 197.871 27.1792 197.601 27.3688 197.373C27.5584 197.14 27.7905 196.96 28.0649 196.833C28.3446 196.705 28.6456 196.641 28.9679 196.64C29.3431 196.639 29.6709 196.71 29.9513 196.852C30.2317 196.988 30.4488 197.18 30.6027 197.428C30.7619 197.676 30.8419 197.964 30.8427 198.292C30.8433 198.508 30.8016 198.72 30.7176 198.926C30.6388 199.127 30.5152 199.341 30.3467 199.569C30.1782 199.791 29.9622 200.043 29.6988 200.324L28.2761 201.849L30.9629 201.842L30.965 202.635L27.0417 202.645ZM33.061 202.629L33.0457 196.725L35.1936 196.719C35.5899 196.718 35.9388 196.791 36.2404 196.938C36.5472 197.08 36.7855 197.291 36.9553 197.57C37.1251 197.845 37.2105 198.175 37.2115 198.56C37.2125 198.941 37.1262 199.269 36.9525 199.544C36.7842 199.819 36.5496 200.031 36.2488 200.18C35.948 200.329 35.5995 200.403 35.2032 200.404L33.9905 200.408L33.9963 202.627L33.061 202.629ZM33.9884 199.575L35.2248 199.572C35.4361 199.572 35.621 199.529 35.7793 199.444C35.9376 199.359 36.0614 199.242 36.1509 199.094C36.2403 198.941 36.2847 198.761 36.2842 198.555C36.2837 198.349 36.2383 198.172 36.1481 198.024C36.0579 197.871 35.9334 197.755 35.7747 197.677C35.6159 197.592 35.4309 197.551 35.2195 197.551L33.9831 197.554L33.9884 199.575ZM39.7978 202.707C39.3698 202.708 38.9892 202.611 38.6558 202.417C38.3276 202.217 38.0707 201.948 37.8849 201.61C37.699 201.267 37.6056 200.884 37.6045 200.462C37.6033 200.028 37.6948 199.645 37.8789 199.312C38.0682 198.978 38.3212 198.716 38.6377 198.525C38.9542 198.329 39.3133 198.23 39.7149 198.229C40.0372 198.228 40.3253 198.283 40.5792 198.393C40.8331 198.504 41.0475 198.656 41.2224 198.851C41.3973 199.041 41.5299 199.26 41.6204 199.508C41.7162 199.756 41.7644 200.02 41.7651 200.3C41.7653 200.369 41.7628 200.44 41.7578 200.514C41.7527 200.588 41.7423 200.657 41.7266 200.72L38.3106 200.729L38.3087 200.016L41.2175 200.008L40.7903 200.334C40.8425 200.075 40.8234 199.846 40.7331 199.645C40.648 199.439 40.5155 199.278 40.3355 199.163C40.1608 199.042 39.9546 198.981 39.7168 198.982C39.4791 198.983 39.2679 199.044 39.0832 199.166C38.8986 199.283 38.7564 199.452 38.6566 199.674C38.5567 199.891 38.5178 200.155 38.5397 200.467C38.5141 200.758 38.5544 201.011 38.6606 201.228C38.7721 201.444 38.9258 201.613 39.1216 201.734C39.3227 201.855 39.5501 201.915 39.8037 201.914C40.0626 201.914 40.2817 201.855 40.4611 201.738C40.6457 201.621 40.7906 201.471 40.8958 201.285L41.6259 201.64C41.5419 201.841 41.4103 202.024 41.2311 202.188C41.0571 202.347 40.8461 202.474 40.598 202.57C40.3552 202.661 40.0885 202.706 39.7978 202.707ZM42.4867 202.605L42.4755 198.317L43.3315 198.315L43.3338 199.179L43.2542 199.052C43.3485 198.772 43.5013 198.571 43.7123 198.448C43.9233 198.321 44.1768 198.257 44.4727 198.256L44.7342 198.256L44.7363 199.072L44.3638 199.073C44.0679 199.074 43.8278 199.167 43.6433 199.352C43.4641 199.532 43.375 199.791 43.3759 200.13L43.3823 202.602L42.4867 202.605ZM46.7851 202.689C46.3465 202.69 45.9605 202.583 45.6271 202.367C45.2989 202.151 45.0683 201.861 44.9353 201.497L45.624 201.17C45.7409 201.413 45.8999 201.605 46.101 201.747C46.3075 201.889 46.5349 201.96 46.7832 201.96C46.9946 201.959 47.1662 201.911 47.298 201.816C47.4299 201.72 47.4956 201.59 47.4951 201.427C47.4949 201.321 47.4656 201.237 47.4073 201.173C47.349 201.105 47.2749 201.049 47.185 201.007C47.1003 200.965 47.013 200.934 46.9232 200.913L46.249 200.725C45.8788 200.62 45.601 200.462 45.4155 200.251C45.2353 200.035 45.1448 199.784 45.1441 199.499C45.1434 199.24 45.2089 199.015 45.3405 198.825C45.4721 198.629 45.654 198.478 45.8862 198.371C46.1184 198.265 46.3798 198.212 46.6704 198.211C47.0614 198.21 47.4104 198.307 47.7174 198.501C48.0244 198.691 48.2417 198.957 48.3694 199.3L47.6807 199.627C47.5956 199.421 47.4605 199.258 47.2752 199.137C47.0952 199.016 46.8916 198.955 46.6644 198.956C46.4689 198.956 46.3132 199.004 46.1972 199.1C46.0812 199.19 46.0234 199.309 46.0237 199.457C46.024 199.557 46.0506 199.642 46.1037 199.71C46.1567 199.774 46.2255 199.826 46.3101 199.868C46.3948 199.905 46.4821 199.937 46.5719 199.963L47.27 200.167C47.6242 200.267 47.8968 200.424 48.0875 200.64C48.2783 200.851 48.3741 201.105 48.3749 201.401C48.3755 201.654 48.3074 201.879 48.1705 202.075C48.0389 202.265 47.8544 202.416 47.6169 202.528C47.3794 202.634 47.1021 202.688 46.7851 202.689ZM51.1658 202.677C50.7537 202.678 50.3756 202.582 50.0317 202.387C49.693 202.192 49.4228 201.926 49.2212 201.589C49.0195 201.251 48.9181 200.868 48.917 200.44C48.9159 200.007 49.0153 199.624 49.2152 199.29C49.4151 198.951 49.6839 198.687 50.0216 198.495C50.3592 198.299 50.7368 198.2 51.1542 198.199C51.5769 198.198 51.955 198.295 52.2884 198.49C52.627 198.679 52.8945 198.942 53.0909 199.28C53.2926 199.612 53.394 199.995 53.3951 200.429C53.3962 200.862 53.2968 201.248 53.0969 201.586C52.897 201.925 52.6282 202.193 52.2906 202.389C51.9529 202.58 51.578 202.676 51.1658 202.677ZM51.1637 201.845C51.4173 201.844 51.6417 201.783 51.8369 201.661C52.0321 201.539 52.1849 201.372 52.2953 201.161C52.411 200.944 52.4685 200.7 52.4678 200.431C52.4671 200.161 52.4083 199.921 52.2915 199.71C52.18 199.499 52.0263 199.333 51.8305 199.212C51.6347 199.091 51.41 199.031 51.1564 199.031C50.908 199.032 50.6836 199.093 50.4831 199.216C50.288 199.338 50.1325 199.504 50.0168 199.716C49.9064 199.928 49.8516 200.168 49.8523 200.438C49.853 200.707 49.9091 200.95 50.0206 201.166C50.1374 201.378 50.2937 201.544 50.4895 201.665C50.6906 201.786 50.9153 201.846 51.1637 201.845ZM54.1165 202.575L54.1054 198.287L54.9614 198.284L54.9635 199.125L54.8602 199.014C54.9652 198.744 55.1338 198.54 55.3659 198.402C55.598 198.259 55.8673 198.187 56.1738 198.186C56.4908 198.185 56.771 198.253 57.0144 198.39C57.2578 198.527 57.4486 198.717 57.5866 198.959C57.7246 199.202 57.794 199.482 57.7948 199.799L57.802 202.565L56.9143 202.567L56.9078 200.039C56.9072 199.822 56.8671 199.64 56.7874 199.492C56.7078 199.339 56.5939 199.223 56.4457 199.145C56.3028 199.06 56.1389 199.019 55.954 199.019C55.7691 199.02 55.6027 199.062 55.455 199.147C55.3126 199.227 55.2019 199.343 55.123 199.497C55.0442 199.65 55.005 199.833 55.0056 200.044L55.0121 202.572L54.1165 202.575Z" fill="#3D5278"/>
<path d="M62.2328 203.742C61.8035 203.252 61.4771 202.709 61.2537 202.112C61.0302 201.51 60.9175 200.871 60.9158 200.195C60.914 199.513 61.0233 198.874 61.2437 198.276C61.4641 197.678 61.7876 197.136 62.2143 196.649L62.8484 196.647C62.4694 197.187 62.1829 197.758 61.9889 198.361C61.795 198.959 61.6988 199.569 61.7004 200.193C61.7021 200.816 61.8014 201.429 61.9985 202.031C62.1955 202.628 62.485 203.197 62.8668 203.741L62.2328 203.742ZM64.3161 202.548L64.3025 197.317L63.185 197.32L63.1832 196.646L65.0854 196.641L65.1007 202.546L64.3161 202.548ZM68.6504 202.632C68.1802 202.633 67.7677 202.507 67.413 202.255C67.0636 201.997 66.7906 201.641 66.5939 201.187C66.3972 200.728 66.2981 200.194 66.2965 199.587C66.2949 198.979 66.3913 198.448 66.5856 197.993C66.7799 197.533 67.0511 197.175 67.3992 196.921C67.7472 196.666 68.1564 196.538 68.6267 196.537C69.0969 196.536 69.5068 196.662 69.8562 196.914C70.2056 197.167 70.4786 197.523 70.6753 197.982C70.8773 198.436 70.979 198.967 70.9806 199.574C70.9822 200.182 70.8858 200.716 70.6915 201.176C70.4972 201.636 70.2234 201.994 69.87 202.248C69.5219 202.503 69.1154 202.631 68.6504 202.632ZM68.6486 201.911C68.9656 201.91 69.2401 201.814 69.4721 201.623C69.7041 201.427 69.883 201.155 70.0089 200.805C70.1401 200.456 70.2051 200.047 70.2039 199.576C70.2027 199.106 70.1356 198.697 70.0026 198.348C69.8748 198 69.6918 197.731 69.4536 197.541C69.2206 197.352 68.9456 197.257 68.6285 197.258C68.3115 197.259 68.037 197.355 67.805 197.546C67.573 197.737 67.3914 198.006 67.2602 198.356C67.1343 198.705 67.072 199.114 67.0732 199.585C67.0744 200.05 67.1389 200.456 67.2666 200.805C67.3996 201.153 67.5826 201.425 67.8156 201.62C68.0539 201.814 68.3315 201.911 68.6486 201.911ZM71.5591 203.718C71.9329 203.173 72.2167 202.602 72.4107 202.004C72.6046 201.401 72.7008 200.788 72.6991 200.164C72.6975 199.541 72.5982 198.931 72.4011 198.334C72.2041 197.732 71.9173 197.163 71.5407 196.625L72.1748 196.623C72.604 197.108 72.9277 197.649 73.1459 198.245C73.3694 198.842 73.482 199.481 73.4838 200.162C73.4856 200.839 73.3763 201.478 73.1559 202.081C72.9408 202.679 72.6199 203.224 72.1932 203.716L71.5591 203.718Z" fill="#90A3BF"/>
<g clip-path="url(#clip1_20_7512)">
<path d="M22.5293 219.943L22.5293 219.944L22.5379 223.265C22.5397 223.947 22.3385 224.468 21.9894 224.818C21.6404 225.169 21.1202 225.373 20.4379 225.375L17.1193 225.383C16.4371 225.385 15.9159 225.184 15.5651 224.835C15.2142 224.485 15.0102 223.964 15.0084 223.28L14.9998 219.964C14.998 219.282 15.1992 218.761 15.5483 218.41C15.8973 218.059 16.4175 217.856 17.0998 217.854L20.4223 217.845C21.1046 217.843 21.6258 218.045 21.9761 218.393C22.3264 218.742 22.5294 219.262 22.5293 219.943Z" stroke="#90A3BF" stroke-width="0.396291"/>
</g>
<path d="M29.8258 224.83L29.8223 223.498L27.0087 223.506L27.0067 222.729L29.7708 218.925L30.6981 218.923L30.708 222.719L31.5244 222.717L31.5264 223.494L30.71 223.496L30.7135 224.828L29.8258 224.83ZM27.6971 223.068L27.5456 222.728L29.8203 222.722L29.8124 219.67L30.0662 219.749L27.6971 223.068ZM33.5057 224.82L33.4903 218.916L35.6382 218.91C36.0345 218.909 36.3834 218.982 36.685 219.129C36.9918 219.271 37.2301 219.482 37.4 219.761C37.5698 220.036 37.6552 220.366 37.6562 220.752C37.6571 221.132 37.5708 221.46 37.3972 221.735C37.2288 222.01 36.9942 222.222 36.6934 222.371C36.3926 222.52 36.0441 222.595 35.6478 222.596L34.4351 222.599L34.4409 224.818L33.5057 224.82ZM34.433 221.767L35.6694 221.763C35.8808 221.763 36.0656 221.72 36.2239 221.635C36.3822 221.55 36.506 221.434 36.5955 221.285C36.6849 221.132 36.7294 220.952 36.7288 220.746C36.7283 220.54 36.6829 220.363 36.5927 220.215C36.5025 220.062 36.378 219.946 36.2193 219.868C36.0605 219.783 35.8755 219.742 35.6641 219.742L34.4277 219.745L34.433 221.767ZM40.2425 224.898C39.8145 224.899 39.4338 224.802 39.1004 224.608C38.7723 224.408 38.5153 224.139 38.3295 223.801C38.1437 223.458 38.0502 223.075 38.0491 222.653C38.048 222.219 38.1394 221.836 38.3235 221.503C38.5129 221.169 38.7658 220.907 39.0823 220.716C39.3989 220.52 39.7579 220.421 40.1595 220.42C40.4818 220.419 40.7699 220.474 41.0238 220.584C41.2777 220.695 41.4921 220.847 41.667 221.042C41.8419 221.232 41.9745 221.451 42.065 221.699C42.1608 221.947 42.209 222.211 42.2097 222.491C42.2099 222.56 42.2075 222.631 42.2024 222.705C42.1973 222.779 42.1869 222.848 42.1712 222.911L38.7552 222.92L38.7533 222.207L41.6621 222.199L41.2349 222.526C41.2871 222.267 41.268 222.037 41.1777 221.836C41.0926 221.63 40.9601 221.469 40.7801 221.354C40.6054 221.233 40.3992 221.172 40.1614 221.173C39.9237 221.174 39.7125 221.235 39.5279 221.357C39.3432 221.474 39.201 221.643 39.1012 221.865C39.0014 222.082 38.9624 222.347 38.9844 222.658C38.9587 222.949 38.999 223.202 39.1052 223.419C39.2167 223.635 39.3704 223.804 39.5662 223.925C39.7673 224.046 39.9947 224.106 40.2483 224.105C40.5072 224.105 40.7264 224.046 40.9057 223.929C41.0903 223.813 41.2353 223.662 41.3405 223.476L42.0706 223.831C41.9865 224.032 41.8549 224.215 41.6757 224.379C41.5017 224.538 41.2907 224.665 41.0426 224.761C40.7998 224.852 40.5331 224.897 40.2425 224.898ZM42.9313 224.796L42.9201 220.508L43.7761 220.506L43.7784 221.37L43.6988 221.243C43.7932 220.963 43.9459 220.762 44.1569 220.64C44.3679 220.512 44.6214 220.448 44.9173 220.447L45.1788 220.447L45.181 221.263L44.8085 221.264C44.5126 221.265 44.2724 221.358 44.0879 221.543C43.9087 221.723 43.8196 221.983 43.8205 222.321L43.8269 224.794L42.9313 224.796ZM47.2297 224.88C46.7912 224.881 46.4052 224.774 46.0717 224.558C45.7436 224.342 45.5129 224.052 45.3799 223.688L46.0686 223.361C46.1855 223.604 46.3445 223.796 46.5457 223.938C46.7521 224.081 46.9795 224.151 47.2278 224.151C47.4392 224.15 47.6108 224.102 47.7426 224.007C47.8745 223.911 47.9402 223.782 47.9398 223.618C47.9395 223.512 47.9102 223.428 47.8519 223.364C47.7936 223.296 47.7195 223.241 47.6296 223.198C47.5449 223.156 47.4577 223.125 47.3678 223.104L46.6936 222.916C46.3234 222.811 46.0456 222.653 45.8601 222.442C45.6799 222.226 45.5895 221.975 45.5887 221.69C45.588 221.431 45.6535 221.206 45.7851 221.016C45.9167 220.82 46.0986 220.669 46.3308 220.563C46.563 220.456 46.8244 220.403 47.115 220.402C47.5061 220.401 47.855 220.498 48.162 220.693C48.469 220.882 48.6863 221.148 48.814 221.491L48.1253 221.818C48.0402 221.612 47.9051 221.449 47.7198 221.328C47.5399 221.207 47.3363 221.146 47.1091 221.147C46.9136 221.148 46.7578 221.196 46.6418 221.291C46.5258 221.381 46.468 221.5 46.4684 221.648C46.4686 221.748 46.4953 221.833 46.5483 221.901C46.6013 221.965 46.6701 222.017 46.7548 222.059C46.8394 222.096 46.9267 222.128 47.0166 222.154L47.7146 222.358C48.0689 222.458 48.3414 222.615 48.5322 222.832C48.7229 223.042 48.8187 223.296 48.8195 223.592C48.8201 223.845 48.752 224.07 48.6151 224.266C48.4835 224.456 48.299 224.608 48.0615 224.719C47.824 224.825 47.5468 224.879 47.2297 224.88ZM51.6105 224.868C51.1983 224.869 50.8203 224.773 50.4763 224.578C50.1376 224.383 49.8675 224.117 49.6658 223.78C49.4641 223.442 49.3627 223.059 49.3616 222.631C49.3605 222.198 49.4599 221.815 49.6598 221.481C49.8597 221.143 50.1285 220.878 50.4662 220.687C50.8038 220.49 51.1814 220.391 51.5988 220.39C52.0215 220.389 52.3996 220.486 52.733 220.681C53.0716 220.87 53.3392 221.134 53.5355 221.471C53.7372 221.804 53.8386 222.186 53.8397 222.62C53.8408 223.053 53.7414 223.439 53.5415 223.778C53.3416 224.116 53.0728 224.384 52.7352 224.58C52.3975 224.771 52.0226 224.867 51.6105 224.868ZM51.6083 224.036C51.8619 224.036 52.0863 223.974 52.2815 223.852C52.4767 223.73 52.6295 223.563 52.7399 223.352C52.8556 223.135 52.9131 222.892 52.9124 222.622C52.9117 222.353 52.8529 222.112 52.7361 221.901C52.6246 221.69 52.471 221.524 52.2751 221.403C52.0793 221.282 51.8546 221.222 51.601 221.223C51.3526 221.223 51.1282 221.285 50.9278 221.407C50.7326 221.529 50.5771 221.695 50.4614 221.907C50.351 222.119 50.2962 222.359 50.2969 222.629C50.2976 222.898 50.3537 223.141 50.4652 223.358C50.582 223.569 50.7383 223.735 50.9341 223.856C51.1352 223.977 51.36 224.037 51.6083 224.036ZM54.5611 224.766L54.55 220.478L55.406 220.476L55.4082 221.316L55.3048 221.205C55.4098 220.935 55.5784 220.731 55.8105 220.593C56.0426 220.45 56.3119 220.378 56.6184 220.377C56.9354 220.376 57.2156 220.444 57.459 220.581C57.7025 220.718 57.8932 220.908 58.0312 221.15C58.1692 221.393 58.2386 221.673 58.2394 221.99L58.2466 224.756L57.3589 224.758L57.3524 222.23C57.3518 222.013 57.3117 221.831 57.2321 221.683C57.1524 221.53 57.0385 221.415 56.8903 221.336C56.7475 221.251 56.5836 221.21 56.3986 221.21C56.2137 221.211 56.0474 221.253 55.8996 221.338C55.7572 221.418 55.6465 221.534 55.5676 221.688C55.4888 221.841 55.4496 222.024 55.4502 222.235L55.4568 224.763L54.5611 224.766Z" fill="#3D5278"/>
<path d="M62.6774 225.933C62.2481 225.443 61.9217 224.9 61.6983 224.303C61.4748 223.701 61.3622 223.062 61.3604 222.386C61.3586 221.704 61.4679 221.065 61.6883 220.467C61.9087 219.87 62.2322 219.327 62.659 218.84L63.293 218.838C62.914 219.378 62.6275 219.95 62.4336 220.552C62.2396 221.15 62.1434 221.761 62.1451 222.384C62.1467 223.008 62.246 223.62 62.4431 224.222C62.6401 224.819 62.9296 225.389 63.3115 225.932L62.6774 225.933ZM64.7607 224.739L64.7471 219.508L63.6296 219.511L63.6278 218.837L65.53 218.832L65.5454 224.737L64.7607 224.739ZM69.4594 224.727L69.4559 223.364L66.555 223.371L66.5533 222.729L69.4282 218.822L70.1732 218.82L70.1834 222.72L70.9522 222.718L70.9538 223.36L70.185 223.362L70.1886 224.725L69.4594 224.727ZM67.1406 223.005L67.0289 222.728L69.4542 222.722L69.4457 219.472L69.6758 219.535L67.1406 223.005ZM71.3226 225.911C71.6964 225.366 71.9802 224.794 72.1742 224.197C72.3681 223.594 72.4643 222.981 72.4626 222.357C72.461 221.734 72.3617 221.124 72.1646 220.527C71.9676 219.925 71.6808 219.355 71.3042 218.817L71.9383 218.816C72.3675 219.301 72.6912 219.841 72.9094 220.438C73.1329 221.035 73.2455 221.674 73.2473 222.355C73.2491 223.032 73.1398 223.671 72.9194 224.274C72.7043 224.872 72.3834 225.417 71.9567 225.909L71.3226 225.911Z" fill="#90A3BF"/>
<g clip-path="url(#clip2_20_7512)">
<path d="M22.587 242.136L22.587 242.136L22.5956 245.457C22.5974 246.139 22.3962 246.66 22.0472 247.011C21.6981 247.361 21.1779 247.565 20.4957 247.567L17.1771 247.576C16.4948 247.577 15.9736 247.376 15.6228 247.027C15.2719 246.678 15.0679 246.157 15.0661 245.473L15.0575 242.156C15.0558 241.474 15.257 240.953 15.606 240.602C15.9551 240.252 16.4753 240.048 17.1575 240.046L20.4801 240.038C21.1623 240.036 21.6835 240.237 22.0338 240.586C22.3841 240.934 22.5871 241.454 22.587 242.136Z" stroke="#90A3BF" stroke-width="0.396291"/>
</g>
<path d="M29.1467 247.119C28.761 247.12 28.4173 247.037 28.1157 246.868C27.8141 246.7 27.5757 246.468 27.4005 246.173C27.2307 245.877 27.1453 245.542 27.1443 245.167C27.1438 244.971 27.1644 244.776 27.2062 244.58C27.2479 244.385 27.3214 244.181 27.4265 243.969C27.5369 243.758 27.6843 243.53 27.8686 243.287L29.5115 241.119L30.6291 241.116L28.6148 243.736L28.456 243.634C28.5298 243.549 28.6089 243.483 28.6933 243.435C28.783 243.387 28.8753 243.353 28.9704 243.331C29.0707 243.31 29.1764 243.299 29.2874 243.299C29.6414 243.298 29.9586 243.379 30.2391 243.542C30.5196 243.705 30.7394 243.926 30.8987 244.206C31.0632 244.486 31.1459 244.808 31.1469 245.172C31.1478 245.542 31.0615 245.875 30.8879 246.172C30.7143 246.463 30.4771 246.693 30.1764 246.863C29.8809 247.033 29.5377 247.118 29.1467 247.119ZM29.1445 246.287C29.3506 246.287 29.5328 246.239 29.691 246.143C29.8493 246.048 29.9758 245.918 30.0705 245.754C30.1651 245.584 30.2122 245.394 30.2116 245.183C30.2111 244.966 30.163 244.776 30.0675 244.612C29.9772 244.449 29.8501 244.322 29.6861 244.233C29.5273 244.138 29.3449 244.091 29.1388 244.092C28.938 244.092 28.7559 244.14 28.5923 244.236C28.434 244.326 28.3075 244.453 28.2129 244.617C28.1182 244.781 28.0711 244.972 28.0717 245.188C28.0722 245.4 28.1203 245.59 28.2158 245.759C28.3114 245.922 28.4385 246.051 28.5973 246.146C28.7613 246.241 28.9437 246.288 29.1445 246.287ZM33.1996 247.014L33.1843 241.109L35.3322 241.103C35.7285 241.102 36.0774 241.175 36.3789 241.323C36.6858 241.464 36.9241 241.675 37.0939 241.955C37.2637 242.229 37.3491 242.559 37.3501 242.945C37.3511 243.325 37.2648 243.653 37.0911 243.928C36.9227 244.204 36.6882 244.416 36.3874 244.564C36.0866 244.713 35.738 244.788 35.3417 244.789L34.1291 244.792L34.1349 247.011L33.1996 247.014ZM34.1269 243.96L35.3634 243.957C35.5747 243.956 35.7595 243.913 35.9178 243.828C36.0761 243.743 36.2 243.627 36.2894 243.479C36.3789 243.325 36.4233 243.145 36.4228 242.939C36.4222 242.733 36.3769 242.556 36.2867 242.409C36.1964 242.256 36.072 242.14 35.9132 242.061C35.7545 241.977 35.5695 241.935 35.3581 241.936L34.1217 241.939L34.1269 243.96ZM39.9364 247.091C39.5084 247.092 39.1277 246.996 38.7943 246.801C38.4662 246.601 38.2093 246.332 38.0234 245.995C37.8376 245.652 37.7441 245.269 37.743 244.846C37.7419 244.413 37.8334 244.029 38.0175 243.696C38.2068 243.363 38.4598 243.101 38.7763 242.909C39.0928 242.713 39.4519 242.614 39.8534 242.613C40.1758 242.613 40.4639 242.667 40.7178 242.778C40.9717 242.888 41.1861 243.041 41.361 243.236C41.5358 243.425 41.6685 243.644 41.759 243.892C41.8547 244.141 41.903 244.405 41.9037 244.685C41.9039 244.753 41.9014 244.825 41.8963 244.899C41.8912 244.973 41.8808 245.041 41.8652 245.105L38.4491 245.114L38.4473 244.4L41.3561 244.393L40.9289 244.719C40.9811 244.46 40.962 244.23 40.8716 244.029C40.7866 243.824 40.654 243.663 40.4741 243.547C40.2994 243.426 40.0932 243.366 39.8554 243.366C39.6176 243.367 39.4064 243.428 39.2218 243.55C39.0372 243.667 38.895 243.836 38.7951 244.059C38.6953 244.276 38.6564 244.54 38.6783 244.852C38.6526 245.142 38.6929 245.396 38.7992 245.612C38.9107 245.828 39.0644 245.997 39.2602 246.118C39.4613 246.239 39.6887 246.299 39.9423 246.299C40.2012 246.298 40.4203 246.239 40.5997 246.123C40.7843 246.006 40.9292 245.855 41.0344 245.67L41.7645 246.024C41.6805 246.225 41.5489 246.408 41.3696 246.572C41.1957 246.731 40.9847 246.859 40.7366 246.954C40.4937 247.045 40.227 247.091 39.9364 247.091ZM42.6252 246.989L42.6141 242.701L43.4701 242.699L43.4723 243.563L43.3927 243.436C43.4871 243.156 43.6398 242.955 43.8509 242.833C44.0619 242.706 44.3154 242.641 44.6113 242.641L44.8728 242.64L44.8749 243.456L44.5024 243.457C44.2065 243.458 43.9663 243.551 43.7819 243.737C43.6027 243.917 43.5135 244.176 43.5144 244.514L43.5209 246.987L42.6252 246.989ZM46.9237 247.073C46.4851 247.074 46.0991 246.967 45.7657 246.751C45.4375 246.535 45.2069 246.245 45.0739 245.881L45.7626 245.554C45.8794 245.797 46.0385 245.99 46.2396 246.132C46.4461 246.274 46.6734 246.345 46.9218 246.344C47.1331 246.343 47.3047 246.295 47.4366 246.2C47.5684 246.105 47.6342 245.975 47.6337 245.811C47.6335 245.705 47.6042 245.621 47.5459 245.558C47.4876 245.489 47.4135 245.434 47.3235 245.392C47.2389 245.35 47.1516 245.318 47.0617 245.297L46.3875 245.109C46.0174 245.004 45.7396 244.846 45.5541 244.636C45.3739 244.419 45.2834 244.169 45.2827 243.883C45.282 243.624 45.3475 243.4 45.4791 243.209C45.6106 243.013 45.7926 242.862 46.0248 242.756C46.257 242.65 46.5184 242.596 46.809 242.595C47.2 242.594 47.549 242.691 47.856 242.886C48.1629 243.075 48.3803 243.342 48.508 243.685L47.8193 244.011C47.7342 243.806 47.599 243.642 47.4138 243.521C47.2338 243.4 47.0302 243.34 46.803 243.34C46.6075 243.341 46.4518 243.389 46.3358 243.484C46.2198 243.574 46.1619 243.693 46.1623 243.841C46.1626 243.942 46.1892 244.026 46.2422 244.095C46.2952 244.158 46.3641 244.211 46.4487 244.253C46.5334 244.29 46.6206 244.321 46.7105 244.347L47.4085 244.551C47.7628 244.651 48.0353 244.809 48.2261 245.025C48.4169 245.236 48.5127 245.489 48.5134 245.785C48.5141 246.039 48.446 246.263 48.3091 246.459C48.1775 246.65 47.993 246.801 47.7555 246.912C47.518 247.019 47.2407 247.072 46.9237 247.073ZM51.3044 247.062C50.8923 247.063 50.5142 246.966 50.1703 246.771C49.8316 246.577 49.5614 246.311 49.3598 245.973C49.1581 245.635 49.0567 245.253 49.0556 244.825C49.0545 244.391 49.1539 244.008 49.3538 243.675C49.5537 243.336 49.8225 243.071 50.1602 242.88C50.4978 242.683 50.8754 242.585 51.2928 242.584C51.7155 242.583 52.0935 242.679 52.4269 242.874C52.7656 243.063 53.0331 243.327 53.2295 243.664C53.4311 243.997 53.5325 244.38 53.5337 244.813C53.5348 245.246 53.4354 245.632 53.2355 245.971C53.0356 246.31 52.7668 246.577 52.4291 246.773C52.0915 246.965 51.7166 247.061 51.3044 247.062ZM51.3023 246.23C51.5559 246.229 51.7803 246.168 51.9755 246.046C52.1707 245.923 52.3235 245.757 52.4339 245.545C52.5496 245.328 52.607 245.085 52.6063 244.815C52.6056 244.546 52.5469 244.306 52.4301 244.095C52.3186 243.883 52.1649 243.717 51.9691 243.596C51.7733 243.475 51.5486 243.415 51.2949 243.416C51.0466 243.417 50.8222 243.478 50.6217 243.6C50.4265 243.722 50.2711 243.889 50.1554 244.1C50.045 244.312 49.9901 244.553 49.9908 244.822C49.9915 245.092 50.0476 245.335 50.1592 245.551C50.276 245.762 50.4323 245.928 50.6281 246.049C50.8292 246.17 51.0539 246.23 51.3023 246.23ZM54.2551 246.959L54.244 242.671L55.0999 242.669L55.1021 243.509L54.9988 243.398C55.1038 243.129 55.2723 242.925 55.5045 242.787C55.7366 242.643 56.0059 242.571 56.3123 242.571C56.6294 242.57 56.9096 242.638 57.153 242.775C57.3964 242.911 57.5871 243.101 57.7251 243.344C57.8632 243.586 57.9326 243.866 57.9334 244.183L57.9406 246.949L57.0529 246.952L57.0463 244.423C57.0458 244.207 57.0057 244.025 56.926 243.877C56.8464 243.724 56.7325 243.608 56.5843 243.529C56.4414 243.445 56.2775 243.403 56.0926 243.403C55.9076 243.404 55.7413 243.447 55.5936 243.532C55.4511 243.611 55.3405 243.728 55.2616 243.881C55.1827 244.035 55.1436 244.217 55.1441 244.428L55.1507 246.957L54.2551 246.959Z" fill="#3D5278"/>
<path d="M62.3714 248.127C61.9421 247.636 61.6157 247.093 61.3922 246.497C61.1687 245.895 61.0561 245.256 61.0544 244.579C61.0526 243.898 61.1619 243.258 61.3823 242.66C61.6026 242.063 61.9262 241.52 62.3529 241.033L62.987 241.032C62.6079 241.571 62.3215 242.143 62.1275 242.746C61.9336 243.343 61.8374 243.954 61.839 244.577C61.8406 245.201 61.94 245.814 62.1371 246.415C62.3341 247.012 62.6236 247.582 63.0054 248.125L62.3714 248.127ZM64.4547 246.932L64.4411 241.701L63.3235 241.704L63.3218 241.031L65.224 241.026L65.2393 246.93L64.4547 246.932ZM66.3397 246.928L66.3383 246.389L67.9664 244.617C68.2878 244.273 68.5434 243.989 68.733 243.767C68.9279 243.544 69.0701 243.346 69.1595 243.171C69.2488 242.997 69.2933 242.812 69.2928 242.616C69.2919 242.294 69.1962 242.046 69.0055 241.872C68.8148 241.698 68.5636 241.611 68.2519 241.612C67.9348 241.613 67.6656 241.706 67.4442 241.892C67.2227 242.072 67.0701 242.329 66.9865 242.662L66.2806 242.481C66.3485 242.164 66.4746 241.889 66.6589 241.656C66.8432 241.423 67.0726 241.243 67.347 241.115C67.6215 240.988 67.9225 240.924 68.2501 240.923C68.6094 240.922 68.924 240.992 69.1938 241.134C69.4689 241.271 69.6834 241.463 69.8373 241.711C69.9965 241.959 70.0765 242.247 70.0773 242.574C70.0779 242.791 70.0335 243.003 69.9442 243.209C69.8549 243.415 69.7234 243.635 69.5496 243.868C69.3759 244.095 69.1493 244.36 68.8701 244.662L67.4159 246.251L70.2137 246.244L70.2154 246.917L66.3397 246.928ZM70.707 248.105C71.0807 247.56 71.3646 246.988 71.5585 246.391C71.7525 245.788 71.8486 245.175 71.847 244.551C71.8454 243.928 71.746 243.318 71.549 242.721C71.3519 242.119 71.0651 241.549 70.6886 241.012L71.3226 241.01C71.7519 241.495 72.0756 242.036 72.2938 242.632C72.5173 243.229 72.6299 243.868 72.6317 244.549C72.6334 245.226 72.5241 245.865 72.3038 246.468C72.0887 247.066 71.7678 247.611 71.3411 248.103L70.707 248.105Z" fill="#90A3BF"/>
<path d="M20.5344 262.032L17.2135 262.04C15.771 262.044 14.9132 262.906 14.917 264.349L14.9256 267.666C14.9294 269.112 15.7916 269.97 17.2341 269.966L20.551 269.957C21.9935 269.954 22.8512 269.091 22.8475 267.649L22.8388 264.328C22.839 262.885 21.9769 262.028 20.5344 262.032ZM20.7761 265.082L18.535 267.335C18.4796 267.391 18.4044 267.423 18.3252 267.423C18.2459 267.423 18.1705 267.392 18.1149 267.336L16.9905 266.218C16.8753 266.103 16.8748 265.913 16.9894 265.798C17.104 265.682 17.2942 265.682 17.4095 265.796L18.3233 266.706L20.3549 264.663C20.4696 264.548 20.6598 264.548 20.775 264.662C20.8902 264.777 20.8907 264.963 20.7761 265.082Z" fill="#3563E9"/>
<path d="M29.3153 269.311C28.9031 269.312 28.541 269.234 28.2288 269.076C27.9219 268.913 27.6836 268.697 27.5138 268.428C27.344 268.154 27.2587 267.85 27.2578 267.517C27.2568 267.137 27.359 266.809 27.5644 266.534C27.775 266.253 28.0704 266.049 28.4505 265.921L28.4115 266.159C28.1311 266.054 27.9088 265.878 27.7443 265.63C27.5851 265.377 27.5052 265.099 27.5044 264.798C27.5036 264.497 27.5795 264.227 27.7321 263.989C27.89 263.751 28.1035 263.563 28.3726 263.425C28.6471 263.287 28.956 263.217 29.2994 263.216C29.6482 263.215 29.9574 263.283 30.2273 263.42C30.4971 263.551 30.7089 263.736 30.8628 263.973C31.0219 264.21 31.1019 264.482 31.1027 264.789C31.1035 265.101 31.0223 265.381 30.8592 265.63C30.7013 265.873 30.4851 266.048 30.2106 266.154L30.1704 265.917C30.5511 266.048 30.8476 266.251 31.0596 266.525C31.2717 266.799 31.3782 267.126 31.3792 267.507C31.3801 267.84 31.2937 268.144 31.12 268.419C30.9517 268.689 30.7118 268.906 30.4005 269.071C30.0891 269.23 29.7274 269.31 29.3153 269.311ZM29.3132 268.519C29.5404 268.518 29.7385 268.475 29.9073 268.39C30.0762 268.3 30.2079 268.178 30.3027 268.025C30.3974 267.871 30.4445 267.691 30.4439 267.485C30.4434 267.279 30.3954 267.1 30.2999 266.947C30.2043 266.794 30.0719 266.675 29.9026 266.591C29.7333 266.507 29.5351 266.465 29.3079 266.466C29.086 266.466 28.8906 266.509 28.7217 266.594C28.5528 266.679 28.421 266.798 28.3263 266.952C28.2316 267.105 28.1845 267.285 28.1851 267.491C28.1856 267.697 28.2336 267.877 28.3291 268.03C28.4246 268.183 28.5571 268.304 28.7264 268.393C28.8957 268.477 29.0913 268.519 29.3132 268.519ZM29.3058 265.673C29.4749 265.673 29.6228 265.638 29.7494 265.569C29.8813 265.495 29.9841 265.394 30.0577 265.267C30.1314 265.14 30.168 264.997 30.1676 264.839C30.1671 264.675 30.1298 264.532 30.0555 264.411C29.9812 264.285 29.8779 264.187 29.7456 264.119C29.6186 264.045 29.4706 264.008 29.3015 264.009C29.1377 264.009 28.9898 264.047 28.8579 264.121C28.726 264.19 28.6232 264.288 28.5496 264.415C28.4759 264.537 28.4393 264.68 28.4397 264.843C28.4402 265.002 28.4775 265.144 28.5518 265.271C28.6261 265.398 28.7294 265.498 28.8617 265.571C28.994 265.64 29.142 265.674 29.3058 265.673ZM35.4789 269.295C35.0667 269.296 34.6887 269.2 34.3447 269.005C34.006 268.81 33.7359 268.544 33.5342 268.207C33.3325 267.869 33.2312 267.486 33.23 267.058C33.2289 266.625 33.3283 266.241 33.5282 265.908C33.7281 265.569 33.9969 265.304 34.3346 265.113C34.6723 264.917 35.0498 264.818 35.4672 264.817C35.8899 264.816 36.268 264.913 36.6014 265.107C36.94 265.297 37.2076 265.56 37.4039 265.898C37.6056 266.23 37.707 266.613 37.7081 267.046C37.7092 267.48 37.6099 267.866 37.4099 268.204C37.21 268.543 36.9413 268.811 36.6036 269.007C36.2659 269.198 35.891 269.294 35.4789 269.295ZM35.4767 268.463C35.7303 268.462 35.9547 268.401 36.1499 268.279C36.3451 268.157 36.4979 267.99 36.6083 267.778C36.724 267.562 36.7815 267.318 36.7808 267.049C36.7801 266.779 36.7213 266.539 36.6046 266.328C36.493 266.117 36.3394 265.951 36.1436 265.83C35.9477 265.709 35.723 265.649 35.4694 265.649C35.2211 265.65 34.9966 265.711 34.7962 265.833C34.601 265.955 34.4455 266.122 34.3299 266.334C34.2194 266.546 34.1646 266.786 34.1653 267.056C34.166 267.325 34.2221 267.568 34.3336 267.784C34.4504 267.995 34.6067 268.161 34.8025 268.282C35.0036 268.403 35.2284 268.464 35.4767 268.463ZM38.4296 269.192L38.4184 264.905L39.2744 264.902L39.2766 265.766L39.1971 265.64C39.2914 265.359 39.4441 265.158 39.6552 265.036C39.8662 264.909 40.1197 264.845 40.4156 264.844L40.6771 264.843L40.6792 265.66L40.3067 265.661C40.0108 265.661 39.7707 265.754 39.5862 265.94C39.407 266.12 39.3179 266.379 39.3187 266.717L39.3252 269.19L38.4296 269.192ZM42.4567 269.182L42.4414 263.277L43.3132 263.275L45.5404 266.344L45.1045 266.346L47.2761 263.265L48.1479 263.262L48.1633 269.167L47.236 269.17L47.2235 264.367L47.5725 264.461L45.3532 267.51L45.2581 267.51L43.0706 264.472L43.3795 264.377L43.392 269.18L42.4567 269.182ZM51.2072 269.254C50.7951 269.255 50.417 269.159 50.0731 268.964C49.7344 268.769 49.4642 268.503 49.2626 268.166C49.0609 267.828 48.9595 267.445 48.9584 267.017C48.9573 266.584 49.0567 266.201 49.2566 265.867C49.4565 265.528 49.7253 265.264 50.063 265.072C50.4006 264.876 50.7782 264.777 51.1956 264.776C51.6183 264.775 51.9964 264.872 52.3297 265.067C52.6684 265.256 52.9359 265.519 53.1323 265.857C53.334 266.189 53.4353 266.572 53.4365 267.006C53.4376 267.439 53.3382 267.825 53.1383 268.163C52.9384 268.502 52.6696 268.77 52.332 268.966C51.9943 269.157 51.6194 269.253 51.2072 269.254ZM51.2051 268.422C51.4587 268.421 51.6831 268.36 51.8783 268.238C52.0735 268.116 52.2263 267.949 52.3367 267.738C52.4524 267.521 52.5099 267.277 52.5092 267.008C52.5085 266.738 52.4497 266.498 52.3329 266.287C52.2214 266.076 52.0677 265.91 51.8719 265.789C51.6761 265.668 51.4514 265.608 51.1978 265.608C50.9494 265.609 50.725 265.67 50.5245 265.793C50.3293 265.915 50.1739 266.081 50.0582 266.293C49.9478 266.505 49.8929 266.745 49.8936 267.015C49.8943 267.284 49.9505 267.527 50.062 267.743C50.1788 267.955 50.3351 268.121 50.5309 268.242C50.732 268.363 50.9567 268.423 51.2051 268.422ZM54.1579 269.152L54.1468 264.864L55.0028 264.861L55.005 265.725L54.9254 265.599C55.0198 265.319 55.1725 265.117 55.3835 264.995C55.5946 264.868 55.848 264.804 56.1439 264.803L56.4055 264.802L56.4076 265.619L56.0351 265.62C55.7392 265.62 55.499 265.714 55.3146 265.899C55.1354 266.079 55.0462 266.338 55.0471 266.676L55.0535 269.149L54.1579 269.152ZM58.8843 269.234C58.4564 269.236 58.0757 269.139 57.7423 268.944C57.4142 268.744 57.1572 268.475 56.9714 268.138C56.7855 267.795 56.6921 267.412 56.691 266.989C56.6899 266.556 56.7813 266.173 56.9654 265.839C57.1548 265.506 57.4077 265.244 57.7242 265.053C58.0408 264.856 58.3998 264.758 58.8014 264.757C59.1237 264.756 59.4118 264.81 59.6657 264.921C59.9196 265.031 60.134 265.184 60.3089 265.379C60.4838 265.569 60.6164 265.787 60.7069 266.036C60.8027 266.284 60.8509 266.548 60.8516 266.828C60.8518 266.896 60.8494 266.968 60.8443 267.042C60.8392 267.116 60.8288 267.184 60.8131 267.248L57.3971 267.257L57.3952 266.543L60.304 266.536L59.8768 266.862C59.929 266.603 59.9099 266.373 59.8196 266.173C59.7345 265.967 59.602 265.806 59.422 265.69C59.2473 265.569 59.0411 265.509 58.8033 265.509C58.5656 265.51 58.3544 265.571 58.1697 265.693C57.9851 265.81 57.8429 265.98 57.7431 266.202C57.6432 266.419 57.6043 266.683 57.6262 266.995C57.6006 267.285 57.6409 267.539 57.7471 267.755C57.8586 267.972 58.0123 268.14 58.2081 268.261C58.4092 268.382 58.6366 268.442 58.8902 268.442C59.1491 268.441 59.3683 268.382 59.5476 268.266C59.7322 268.149 59.8772 267.998 59.9823 267.813L60.7124 268.168C60.6284 268.369 60.4968 268.551 60.3176 268.715C60.1436 268.874 59.9326 269.002 59.6845 269.098C59.4417 269.188 59.175 269.234 58.8843 269.234Z" fill="#3D5278"/>
<path d="M65.2039 270.312C64.7747 269.821 64.4483 269.278 64.2248 268.682C64.0013 268.08 63.8887 267.441 63.8869 266.764C63.8852 266.083 63.9945 265.443 64.2148 264.845C64.4352 264.248 64.7588 263.705 65.1855 263.218L65.8195 263.217C65.4405 263.756 65.154 264.328 64.9601 264.931C64.7661 265.528 64.67 266.139 64.6716 266.762C64.6732 267.386 64.7726 267.999 64.9696 268.6C65.1667 269.197 65.4561 269.767 65.838 270.31L65.2039 270.312ZM67.2872 269.117L67.2736 263.886L66.1561 263.889L66.1544 263.216L68.0565 263.211L68.0719 269.115L67.2872 269.117ZM71.0528 269.203C70.6724 269.204 70.334 269.12 70.0376 268.952C69.7466 268.783 69.5161 268.554 69.3463 268.264C69.1764 267.969 69.091 267.633 69.0901 267.258C69.0895 267.052 69.1128 266.849 69.1598 266.648C69.2068 266.447 69.2829 266.243 69.3881 266.037C69.4932 265.83 69.6274 265.616 69.7906 265.394L71.4493 263.202L72.3846 263.199L70.3545 265.852L70.2118 265.836C70.2908 265.731 70.3778 265.648 70.4727 265.59C70.573 265.532 70.6785 265.489 70.7894 265.462C70.9056 265.436 71.0271 265.422 71.1539 265.422C71.5027 265.421 71.8146 265.502 72.0898 265.665C72.3703 265.823 72.5901 266.042 72.7494 266.321C72.9139 266.601 72.9966 266.923 72.9976 267.288C72.9985 267.652 72.9148 267.98 72.7465 268.271C72.5782 268.557 72.3463 268.785 72.0508 268.954C71.7606 269.119 71.4279 269.202 71.0528 269.203ZM71.051 268.505C71.2729 268.505 71.4709 268.454 71.645 268.353C71.8191 268.247 71.9561 268.101 72.056 267.916C72.1612 267.731 72.2135 267.525 72.2129 267.298C72.2123 267.06 72.1616 266.854 72.0607 266.68C71.9599 266.5 71.8221 266.358 71.6475 266.253C71.4728 266.148 71.2719 266.095 71.0447 266.096C70.8228 266.096 70.6221 266.15 70.4428 266.256C70.2634 266.362 70.1237 266.505 70.0238 266.685C69.9239 266.86 69.8742 267.066 69.8748 267.304C69.8754 267.531 69.9262 267.737 70.027 267.921C70.1332 268.106 70.2736 268.251 70.4482 268.356C70.6281 268.456 70.8291 268.506 71.051 268.505ZM73.4622 270.29C73.8359 269.745 74.1197 269.174 74.3137 268.576C74.5076 267.973 74.6038 267.36 74.6022 266.737C74.6006 266.113 74.5012 265.503 74.3042 264.906C74.1071 264.305 73.8203 263.735 73.4437 263.197L74.0778 263.195C74.507 263.68 74.8308 264.221 75.049 264.817C75.2724 265.414 75.3851 266.053 75.3868 266.735C75.3886 267.411 75.2793 268.05 75.0589 268.653C74.8438 269.251 74.5229 269.796 74.0962 270.289L73.4622 270.29Z" fill="#90A3BF"/>
<path d="M14.5806 298.958L14.5714 295.415L15.8601 295.412C16.0979 295.411 16.3073 295.455 16.4882 295.543C16.6723 295.628 16.8153 295.755 16.9172 295.922C17.0191 296.087 17.0703 296.285 17.0709 296.516C17.0715 296.745 17.0197 296.941 16.9155 297.107C16.8145 297.272 16.6737 297.399 16.4933 297.488C16.3128 297.577 16.1037 297.622 15.8659 297.623L15.1383 297.625L15.1418 298.956L14.5806 298.958ZM15.137 297.125L15.8789 297.124C16.0057 297.123 16.1166 297.098 16.2115 297.047C16.3065 296.996 16.3808 296.926 16.4345 296.837C16.4882 296.745 16.5148 296.637 16.5145 296.513C16.5142 296.39 16.487 296.283 16.4328 296.195C16.3787 296.103 16.304 296.033 16.2088 295.986C16.1135 295.936 16.0025 295.911 15.8757 295.911L15.1339 295.913L15.137 297.125ZM18.6765 298.947L18.6672 295.404L19.956 295.401C20.1938 295.4 20.4031 295.444 20.5841 295.532C20.765 295.618 20.9064 295.744 21.0083 295.912C21.1133 296.076 21.1662 296.274 21.1668 296.506C21.1674 296.75 21.1061 296.959 20.9829 297.134C20.8629 297.309 20.7 297.436 20.4941 297.516L21.3157 298.94L20.6785 298.942L19.8042 297.399L20.171 297.612L19.2341 297.614L19.2376 298.946L18.6765 298.947ZM19.2328 297.115L19.9699 297.113C20.0999 297.113 20.2124 297.087 20.3074 297.036C20.4024 296.985 20.4751 296.915 20.5256 296.826C20.5792 296.734 20.6059 296.626 20.6056 296.503C20.6053 296.379 20.578 296.273 20.5239 296.184C20.473 296.092 20.3999 296.023 20.3046 295.975C20.2094 295.925 20.0968 295.9 19.9668 295.9L19.2297 295.902L19.2328 297.115ZM22.8094 298.936L22.8002 295.394L23.3614 295.392L23.3706 298.935L22.8094 298.936ZM26.7769 298.983C26.5265 298.984 26.2933 298.938 26.0775 298.847C25.8649 298.756 25.6791 298.629 25.5201 298.468C25.3644 298.304 25.2418 298.111 25.1525 297.889C25.0631 297.667 25.0181 297.423 25.0174 297.157C25.0167 296.894 25.0589 296.651 25.1439 296.429C25.2321 296.204 25.3552 296.01 25.5133 295.848C25.6714 295.683 25.8565 295.555 26.0687 295.466C26.2809 295.373 26.5138 295.327 26.7674 295.326C27.0179 295.326 27.2415 295.368 27.4383 295.453C27.6382 295.538 27.8065 295.65 27.9432 295.789C28.0799 295.925 28.1786 296.074 28.2392 296.235L27.7358 296.474C27.6592 296.284 27.5367 296.131 27.3684 296.014C27.2032 295.894 27.0033 295.834 26.7687 295.835C26.5341 295.836 26.3266 295.892 26.1462 296.003C25.9658 296.115 25.8251 296.269 25.7242 296.465C25.6264 296.662 25.5779 296.892 25.5785 297.155C25.5792 297.419 25.629 297.65 25.7278 297.849C25.8297 298.046 25.9712 298.199 26.1522 298.309C26.3332 298.417 26.541 298.47 26.7756 298.47C27.0102 298.469 27.2098 298.41 27.3743 298.292C27.542 298.174 27.6637 298.02 27.7393 297.83L28.244 298.066C28.1842 298.225 28.0863 298.374 27.9503 298.514C27.8144 298.654 27.6466 298.767 27.4471 298.853C27.2508 298.939 27.0274 298.982 26.7769 298.983ZM29.8448 298.918L29.8356 295.375L32.1705 295.369L32.1718 295.869L30.398 295.873L30.4006 296.891L32.0793 296.886L32.0806 297.386L30.4019 297.39L30.4046 298.417L32.1784 298.413L32.1797 298.912L29.8448 298.918Z" fill="#94A7CB"/>
<rect x="14.2526" y="313.566" width="117.302" height="4.75549" rx="2.37774" transform="rotate(-0.148906 14.2526 313.566)" fill="#C3D4E9"/>
<rect x="14.2526" y="313.566" width="87.184" height="4.75549" rx="2.37774" transform="rotate(-0.148906 14.2526 313.566)" fill="#3563E9"/>
<circle cx="101.442" cy="315.717" r="3.96291" transform="rotate(-0.148906 101.442 315.717)" fill="#3563E9" stroke="white" stroke-width="1.58516"/>
<path d="M14.9124 332.66L14.8971 326.755L15.7689 326.753L17.9962 329.823L17.5602 329.824L19.7318 326.743L20.6037 326.741L20.619 332.645L19.6917 332.648L19.6792 327.845L20.0282 327.939L17.809 330.988L17.7139 330.988L15.5264 327.951L15.8352 327.855L15.8477 332.658L14.9124 332.66ZM22.8783 332.735C22.5877 332.735 22.3313 332.686 22.1091 332.586C21.8922 332.481 21.7227 332.339 21.6007 332.159C21.4787 331.975 21.4174 331.758 21.4168 331.51C21.4162 331.277 21.4658 331.069 21.5657 330.883C21.6709 330.698 21.8317 330.542 22.048 330.414C22.2643 330.287 22.5362 330.197 22.8636 330.143L24.353 329.893L24.3549 330.599L23.0398 330.832C22.8021 330.875 22.628 330.952 22.5173 331.063C22.4066 331.169 22.3515 331.307 22.3519 331.476C22.3523 331.64 22.4135 331.774 22.5353 331.879C22.6623 331.98 22.8236 332.029 23.0191 332.029C23.2622 332.028 23.4734 331.975 23.6528 331.869C23.8374 331.763 23.9797 331.622 24.0797 331.447C24.1796 331.268 24.2293 331.069 24.2287 330.853L24.2259 329.751C24.2253 329.54 24.1456 329.368 23.9868 329.236C23.8332 329.099 23.6269 329.031 23.368 329.032C23.1302 329.033 22.9217 329.097 22.7424 329.224C22.5683 329.346 22.4393 329.505 22.3552 329.7L21.6092 329.33C21.688 329.118 21.8169 328.933 21.9962 328.774C22.1754 328.61 22.3838 328.482 22.6213 328.392C22.8641 328.301 23.1203 328.256 23.3898 328.255C23.7279 328.254 24.0266 328.317 24.2859 328.443C24.5504 328.569 24.7543 328.746 24.8975 328.973C25.0461 329.194 25.1207 329.453 25.1215 329.749L25.129 332.634L24.273 332.636L24.271 331.859L24.4533 331.882C24.3534 332.057 24.2243 332.208 24.0661 332.335C23.9132 332.462 23.7365 332.561 23.5359 332.63C23.3405 332.699 23.1214 332.734 22.8783 332.735ZM25.5897 332.632L27.0821 330.481L25.5785 328.345L26.6327 328.342L27.8658 330.13L27.3586 330.131L28.5824 328.337L29.6365 328.334L28.1362 330.478L29.6397 332.622L28.5856 332.625L27.3683 330.829L27.8597 330.827L26.6438 332.63L25.5897 332.632ZM30.497 332.62L30.4943 331.589L31.4058 331.587L31.4084 332.617L30.497 332.62ZM36.0729 332.7C35.703 332.701 35.3594 332.633 35.042 332.497C34.7246 332.355 34.4546 332.163 34.2321 331.92C34.0095 331.678 33.845 331.398 33.7385 331.082L34.5302 330.747C34.6738 331.111 34.8832 331.39 35.1585 331.585C35.4338 331.78 35.7511 331.877 36.1104 331.876C36.3217 331.875 36.5066 331.843 36.6649 331.779C36.8233 331.71 36.9445 331.615 37.0288 331.493C37.1183 331.371 37.1628 331.231 37.1624 331.073C37.1619 330.856 37.1006 330.684 36.9788 330.558C36.8569 330.431 36.677 330.332 36.4391 330.258L35.3285 329.912C34.8843 329.776 34.5456 329.568 34.3124 329.289C34.0792 329.004 33.9621 328.672 33.9611 328.291C33.9602 327.958 34.0414 327.667 34.2045 327.419C34.3677 327.165 34.5917 326.966 34.8767 326.822C35.1669 326.679 35.497 326.607 35.8668 326.606C36.2208 326.605 36.5433 326.668 36.8343 326.794C37.1252 326.914 37.374 327.083 37.5806 327.299C37.7925 327.515 37.9464 327.766 38.0423 328.051L37.2664 328.393C37.1494 328.082 36.9664 327.842 36.7177 327.674C36.4742 327.505 36.1913 327.421 35.8689 327.422C35.6734 327.423 35.5018 327.458 35.354 327.527C35.2063 327.59 35.0903 327.686 35.006 327.813C34.9271 327.935 34.8878 328.077 34.8883 328.241C34.8888 328.431 34.95 328.6 35.0719 328.748C35.1938 328.896 35.379 329.006 35.6276 329.079L36.6587 329.402C37.1294 329.543 37.4839 329.748 37.7224 330.017C37.9609 330.281 38.0806 330.611 38.0816 331.007C38.0825 331.334 37.9961 331.625 37.8224 331.879C37.6539 332.133 37.4193 332.335 37.1185 332.484C36.8177 332.627 36.4692 332.699 36.0729 332.7ZM35.7101 333.399L35.6906 325.909L36.3247 325.907L36.3442 333.397L35.7101 333.399ZM39.7618 332.596L39.7485 327.483L38.6151 327.486L38.613 326.694L40.6738 326.688L40.6891 332.593L39.7618 332.596ZM44.1577 332.679C43.6874 332.681 43.275 332.555 42.9203 332.302C42.5656 332.044 42.2873 331.688 42.0853 331.234C41.8886 330.775 41.7894 330.242 41.7879 329.634C41.7863 329.021 41.8826 328.487 42.077 328.032C42.2766 327.577 42.5504 327.223 42.8985 326.968C43.2518 326.713 43.6637 326.586 44.1339 326.584C44.6042 326.583 45.014 326.709 45.3634 326.962C45.7181 327.214 45.9938 327.57 46.1905 328.029C46.3924 328.483 46.4942 329.014 46.4958 329.622C46.4974 330.229 46.401 330.763 46.2067 331.224C46.0124 331.678 45.7385 332.036 45.3852 332.296C45.0371 332.55 44.6279 332.678 44.1577 332.679ZM44.1555 331.823C44.4461 331.823 44.6968 331.732 44.9077 331.552C45.1186 331.372 45.2817 331.118 45.3971 330.79C45.5125 330.462 45.5696 330.073 45.5685 329.624C45.5673 329.175 45.5082 328.787 45.3911 328.46C45.274 328.132 45.1095 327.879 44.8977 327.7C44.6859 327.521 44.432 327.432 44.1361 327.432C43.8455 327.433 43.5948 327.524 43.3839 327.704C43.173 327.884 43.0098 328.138 42.8945 328.466C42.7791 328.794 42.7219 329.182 42.7231 329.632C42.7243 330.075 42.7834 330.464 42.9005 330.796C43.0176 331.124 43.1821 331.377 43.3939 331.556C43.611 331.735 43.8648 331.824 44.1555 331.823ZM49.6726 332.665C49.2023 332.666 48.7899 332.54 48.4352 332.288C48.0805 332.03 47.8022 331.674 47.6002 331.22C47.4035 330.761 47.3044 330.227 47.3028 329.62C47.3012 329.007 47.3976 328.473 47.5919 328.018C47.7915 327.563 48.0653 327.208 48.4134 326.954C48.7668 326.699 49.1786 326.571 49.6488 326.57C50.1191 326.569 50.5289 326.695 50.8783 326.947C51.233 327.2 51.5087 327.556 51.7054 328.015C51.9074 328.469 52.0091 329 52.0107 329.607C52.0123 330.215 51.9159 330.749 51.7216 331.209C51.5273 331.664 51.2535 332.022 50.9001 332.281C50.552 332.536 50.1429 332.664 49.6726 332.665ZM49.6704 331.809C49.961 331.808 50.2117 331.718 50.4226 331.538C50.6335 331.357 50.7967 331.103 50.9121 330.775C51.0275 330.447 51.0846 330.059 51.0834 329.61C51.0822 329.161 51.0231 328.773 50.906 328.445C50.7889 328.118 50.6244 327.865 50.4126 327.686C50.2008 327.507 49.9469 327.417 49.651 327.418C49.3604 327.419 49.1097 327.509 48.8988 327.69C48.6879 327.87 48.5248 328.124 48.4094 328.452C48.294 328.78 48.2369 329.168 48.238 329.617C48.2392 330.061 48.2983 330.449 48.4154 330.782C48.5325 331.109 48.697 331.362 48.9088 331.541C49.1259 331.721 49.3798 331.81 49.6704 331.809ZM53.2613 332.561L53.2586 331.53L54.1701 331.528L54.1728 332.558L53.2613 332.561ZM57.7767 332.644C57.3065 332.645 56.894 332.519 56.5393 332.267C56.1846 332.009 55.9063 331.653 55.7043 331.199C55.5076 330.74 55.4085 330.206 55.4069 329.599C55.4053 328.986 55.5017 328.452 55.696 327.997C55.8956 327.542 56.1695 327.187 56.5175 326.933C56.8709 326.678 57.2827 326.55 57.753 326.549C58.2232 326.548 58.6331 326.674 58.9825 326.926C59.3371 327.179 59.6128 327.535 59.8095 327.994C60.0115 328.448 60.1133 328.979 60.1148 329.586C60.1164 330.194 60.0201 330.728 59.8257 331.188C59.6314 331.643 59.3576 332 59.0042 332.26C58.6562 332.515 58.247 332.643 57.7767 332.644ZM57.7745 331.788C58.0651 331.787 58.3159 331.697 58.5268 331.516C58.7376 331.336 58.9008 331.082 59.0162 330.754C59.1316 330.426 59.1887 330.038 59.1875 329.589C59.1864 329.14 59.1272 328.751 59.0101 328.424C58.893 328.097 58.7286 327.844 58.5167 327.665C58.3049 327.485 58.0511 327.396 57.7552 327.397C57.4646 327.398 57.2138 327.488 57.0029 327.668C56.792 327.849 56.6289 328.103 56.5135 328.431C56.3981 328.759 56.341 329.147 56.3422 329.596C56.3433 330.04 56.4024 330.428 56.5196 330.761C56.6367 331.088 56.8011 331.341 57.0129 331.52C57.23 331.7 57.4839 331.789 57.7745 331.788ZM63.2917 332.63C62.8214 332.631 62.4089 332.505 62.0542 332.252C61.6996 331.994 61.4212 331.638 61.2193 331.185C61.0226 330.725 60.9234 330.192 60.9218 329.584C60.9203 328.971 61.0166 328.437 61.2109 327.983C61.4105 327.528 61.6844 327.173 62.0325 326.918C62.3858 326.664 62.7976 326.536 63.2679 326.535C63.7382 326.533 64.148 326.659 64.4974 326.912C64.8521 327.165 65.1277 327.521 65.3244 327.98C65.5264 328.434 65.6282 328.964 65.6298 329.572C65.6313 330.18 65.535 330.714 65.3407 331.174C65.1463 331.629 64.8725 331.986 64.5192 332.246C64.1711 332.5 63.7619 332.628 63.2917 332.63ZM63.2894 331.774C63.58 331.773 63.8308 331.682 64.0417 331.502C64.2526 331.322 64.4157 331.068 64.5311 330.74C64.6465 330.412 64.7036 330.024 64.7024 329.574C64.7013 329.125 64.6421 328.737 64.5251 328.41C64.408 328.083 64.2435 327.829 64.0317 327.65C63.8199 327.471 63.566 327.382 63.2701 327.383C62.9795 327.383 62.7287 327.474 62.5178 327.654C62.307 327.834 62.1438 328.088 62.0284 328.416C61.913 328.744 61.8559 329.133 61.8571 329.582C61.8582 330.026 61.9174 330.414 62.0345 330.746C62.1516 331.074 62.316 331.327 62.5279 331.506C62.745 331.685 62.9988 331.774 63.2894 331.774Z" fill="#3D5278"/>
<defs>
<clipPath id="clip0_20_7512">
<rect width="9.51098" height="9.51098" fill="white" transform="translate(13.6385 77.3773) rotate(-0.148906)"/>
</clipPath>
<clipPath id="clip1_20_7512">
<rect width="9.51098" height="9.51098" fill="white" transform="translate(14.001 216.871) rotate(-0.148906)"/>
</clipPath>
<clipPath id="clip2_20_7512">
<rect width="9.51098" height="9.51098" fill="white" transform="translate(14.0587 239.063) rotate(-0.148906)"/>
</clipPath>
</defs>
</svg>
