<svg width="231" height="54" viewBox="0 0 231 54" fill="none" xmlns="http://www.w3.org/2000/svg">
<g clip-path="url(#clip0_20_6375)">
<rect x="0.820312" y="1.10809" width="229.553" height="53.6413" rx="3.94421" transform="rotate(-0.197882 0.820312 1.10809)" fill="white"/>
<rect x="19.788" y="11.2976" width="6.31074" height="6.31074" rx="3.15537" transform="rotate(-0.197882 19.788 11.2976)" fill="#3563E9" fill-opacity="0.3"/>
<circle cx="22.9542" cy="14.442" r="1.57769" transform="rotate(-0.197882 22.9542 14.442)" fill="#3563E9"/>
<path d="M29.7613 17.4744L29.7451 12.7729L31.4553 12.767C31.7708 12.7659 32.0487 12.8238 32.2889 12.9408C32.5333 13.0535 32.7232 13.2212 32.8586 13.4437C32.994 13.662 33.0622 13.9247 33.0633 14.2318C33.0643 14.5347 32.9958 14.7958 32.8577 15.0151C32.7239 15.2343 32.5372 15.4032 32.2978 15.5219C32.0584 15.6405 31.781 15.7004 31.4654 15.7015L30.4999 15.7048L30.506 17.4718L29.7613 17.4744ZM30.4976 15.0422L31.4821 15.0388C31.6503 15.0382 31.7975 15.004 31.9235 14.9363C32.0494 14.8685 32.148 14.7756 32.2191 14.6576C32.2902 14.5353 32.3255 14.3921 32.3249 14.2281C32.3243 14.064 32.2881 13.9232 32.2162 13.8056C32.1442 13.6839 32.045 13.5916 31.9186 13.529C31.7922 13.4621 31.6448 13.429 31.4765 13.4295L30.492 13.4329L30.4976 15.0422ZM33.6455 17.4609L33.6337 14.0468L34.3468 14.0444L34.3586 17.4585L33.6455 17.4609ZM33.6321 13.5799L33.6292 12.7595L34.3423 12.757L34.3452 13.5774L33.6321 13.5799ZM36.6882 17.5262C36.3474 17.5273 36.0443 17.4506 35.7787 17.2958C35.5173 17.1368 35.3083 16.923 35.1517 16.6543C34.9993 16.3855 34.9225 16.0808 34.9213 15.74C34.9202 15.4034 34.9949 15.1003 35.1454 14.8305C35.2959 14.5607 35.5034 14.3496 35.768 14.1972C36.0325 14.0407 36.3351 13.9618 36.6759 13.9606C36.9073 13.9598 37.1241 14.0011 37.3263 14.0846C37.5286 14.1638 37.7035 14.2747 37.8513 14.4172C38.0032 14.5598 38.1153 14.7256 38.1875 14.9146L37.5637 15.2071C37.4916 15.0306 37.3754 14.8901 37.2152 14.7855C37.0591 14.6766 36.8801 14.6225 36.6782 14.6232C36.4847 14.6239 36.3102 14.6729 36.1549 14.7702C36.0038 14.8633 35.8843 14.9962 35.7966 15.169C35.7088 15.3376 35.6653 15.5292 35.666 15.7437C35.6668 15.9583 35.7116 16.1517 35.8006 16.3239C35.8895 16.4918 36.0099 16.624 36.1616 16.7202C36.3176 16.8164 36.4924 16.8642 36.6859 16.8635C36.8921 16.8628 37.0707 16.8096 37.2218 16.7039C37.3771 16.594 37.4923 16.4484 37.5674 16.2673L38.1932 16.5617C38.1265 16.7429 38.0177 16.9073 37.8667 17.0551C37.72 17.1986 37.5457 17.3128 37.3441 17.3977C37.1424 17.4825 36.9238 17.5253 36.6882 17.5262ZM38.767 17.4433L38.7505 12.666L39.4636 12.6636L39.4747 15.8631L39.1967 15.7947L40.9008 14.0218L41.7906 14.0187L40.508 15.3925L41.8592 17.4326L41.0388 17.4354L39.8336 15.6284L40.2562 15.5701L39.2502 16.6464L39.4757 16.1723L39.4801 17.4408L38.767 17.4433ZM43.3008 16.0329L43.2986 15.4018L45.8229 15.3931L45.825 16.0242L43.3008 16.0329ZM49.4538 17.4821C49.1046 17.4833 48.793 17.4107 48.519 17.2644C48.2493 17.1181 48.0361 16.9169 47.8796 16.6608C47.7272 16.4047 47.6505 16.1125 47.6494 15.7844L47.6387 12.7111L48.3834 12.7085L48.3939 15.7503C48.3946 15.9564 48.4394 16.1393 48.5283 16.2988C48.6214 16.4584 48.746 16.5821 48.9019 16.6699C49.0621 16.7577 49.2453 16.8012 49.4514 16.8005C49.6618 16.7998 49.8446 16.755 50 16.6661C50.1596 16.5772 50.2833 16.4527 50.3711 16.2925C50.4631 16.1323 50.5087 15.9491 50.508 15.743L50.4975 12.7012L51.2358 12.6987L51.2465 15.772C51.2476 16.1001 51.1729 16.3928 51.0223 16.6499C50.8717 16.9071 50.66 17.1098 50.387 17.258C50.1183 17.4062 49.8072 17.4809 49.4538 17.4821ZM51.9942 18.6597L51.9781 13.9835L52.6597 13.9811L52.6621 14.6879L52.5795 14.5241C52.705 14.3302 52.8728 14.1781 53.0828 14.068C53.2928 13.9579 53.5324 13.9024 53.8016 13.9015C54.1256 13.9003 54.4161 13.9772 54.6733 14.132C54.9347 14.2867 55.1395 14.4985 55.2877 14.7672C55.44 15.036 55.5168 15.3386 55.518 15.6752C55.5191 16.0117 55.4445 16.3149 55.2939 16.5847C55.1476 16.8545 54.9464 17.0697 54.6903 17.2305C54.4342 17.387 54.1421 17.4659 53.8139 17.467C53.5489 17.4679 53.3068 17.4141 53.0876 17.3054C52.8727 17.1968 52.706 17.0396 52.5875 16.8339L52.7006 16.7009L52.7074 18.6573L51.9942 18.6597ZM53.7422 16.8046C53.9442 16.8039 54.1228 16.7549 54.2781 16.6576C54.4335 16.5603 54.555 16.4274 54.6428 16.2588C54.7348 16.086 54.7804 15.8923 54.7796 15.6777C54.7789 15.4632 54.7319 15.2719 54.6388 15.1039C54.5499 14.936 54.4274 14.8038 54.2714 14.7076C54.1154 14.6114 53.9364 14.5636 53.7345 14.5643C53.5368 14.565 53.3581 14.614 53.1986 14.7113C53.0433 14.8086 52.9196 14.9416 52.8276 15.1102C52.7399 15.2788 52.6963 15.4704 52.6971 15.6849C52.6978 15.8995 52.7427 16.0929 52.8316 16.265C52.9248 16.433 53.0493 16.5651 53.2053 16.6613C53.3655 16.7575 53.5445 16.8053 53.7422 16.8046Z" fill="#1A202C"/>
<path d="M20.3128 31.7063L20.2965 27.0048L21.1548 27.0018L21.1684 30.946L23.1815 30.9391L23.1841 31.6964L20.3128 31.7063ZM25.3488 31.7646C25.0122 31.7658 24.7048 31.689 24.4266 31.5343C24.1526 31.3796 23.9331 31.1679 23.7681 30.8992C23.6073 30.6305 23.5263 30.3236 23.5251 29.9786C23.5239 29.6337 23.6028 29.3263 23.7617 29.0565C23.9249 28.7866 24.1429 28.5734 24.4158 28.4168C24.6888 28.2602 24.9956 28.1813 25.3364 28.1801C25.673 28.179 25.9783 28.2557 26.2523 28.4105C26.5263 28.5652 26.7437 28.7769 26.9045 29.0456C27.0695 29.3101 27.1526 29.6169 27.1538 29.9661C27.155 30.3111 27.074 30.6185 26.9108 30.8883C26.7477 31.1582 26.5296 31.3714 26.2567 31.528C25.9838 31.6846 25.6811 31.7635 25.3488 31.7646ZM25.3462 31.0073C25.5313 31.0067 25.6931 30.962 25.8316 30.8731C25.9744 30.7843 26.0854 30.6619 26.1648 30.5059C26.2484 30.3458 26.2899 30.1668 26.2892 29.9691C26.2885 29.7672 26.2458 29.5906 26.1612 29.4394C26.0807 29.2841 25.9688 29.1624 25.8254 29.0746C25.6863 28.9825 25.5241 28.9368 25.339 28.9374C25.1497 28.9381 24.9837 28.9849 24.841 29.078C24.6982 29.1668 24.585 29.2892 24.5014 29.4452C24.422 29.5969 24.3827 29.7737 24.3834 29.9757C24.384 30.1734 24.4246 30.3521 24.5051 30.5117C24.5898 30.6671 24.7038 30.7887 24.8472 30.8765C24.9905 30.9644 25.1568 31.008 25.3462 31.0073ZM29.4403 31.7505C29.0995 31.7517 28.7921 31.6749 28.5181 31.5202C28.2483 31.3612 28.0351 31.1474 27.8785 30.8787C27.7219 30.6057 27.643 30.2989 27.6418 29.9581C27.6407 29.6173 27.7174 29.3121 27.8722 29.0423C28.0269 28.7725 28.2386 28.5593 28.5073 28.4027C28.7803 28.2461 29.0871 28.1672 29.4279 28.166C29.6719 28.1652 29.8993 28.2085 30.1099 28.2962C30.3206 28.3796 30.5019 28.4968 30.6539 28.6477C30.81 28.7944 30.9221 28.9707 30.9902 29.1766L30.2655 29.4947C30.2018 29.3224 30.0941 29.1839 29.9422 29.0793C29.7946 28.9746 29.624 28.9226 29.4305 28.9233C29.2496 28.9239 29.0878 28.9686 28.9451 29.0575C28.8065 29.1463 28.6976 29.2687 28.6182 29.4246C28.5388 29.5806 28.4994 29.7595 28.5001 29.9615C28.5008 30.1634 28.5414 30.3421 28.6219 30.4975C28.7023 30.6528 28.8121 30.7745 28.9513 30.8623C29.0946 30.9502 29.2568 30.9938 29.4377 30.9932C29.6354 30.9925 29.8077 30.9393 29.9546 30.8336C30.1015 30.728 30.2062 30.5867 30.2687 30.4097L30.9955 30.7354C30.9289 30.9291 30.8201 31.1041 30.6692 31.2603C30.5183 31.4123 30.3378 31.5328 30.1277 31.6219C29.9177 31.7068 29.6885 31.7496 29.4403 31.7505ZM32.6552 31.7394C32.4154 31.7402 32.207 31.701 32.0301 31.6216C31.8531 31.5423 31.716 31.4292 31.6187 31.2823C31.5214 31.1311 31.4724 30.9567 31.4717 30.759C31.4711 30.5697 31.5126 30.4012 31.5962 30.2537C31.6798 30.1019 31.8098 29.9753 31.9862 29.8737C32.1625 29.7721 32.3853 29.6998 32.6544 29.6568L33.777 29.4699L33.7792 30.101L32.8142 30.2684C32.6503 30.2984 32.5284 30.3514 32.4488 30.4274C32.3691 30.5035 32.3295 30.6025 32.3299 30.7245C32.3303 30.8423 32.3748 30.9368 32.4634 31.008C32.5562 31.075 32.6699 31.1082 32.8045 31.1078C32.977 31.1072 33.1283 31.0709 33.2585 30.9989C33.3929 30.9227 33.4956 30.8193 33.5667 30.6886C33.642 30.558 33.6793 30.4148 33.6788 30.2591L33.6757 29.3756C33.6752 29.2284 33.6159 29.1066 33.4978 29.0102C33.3838 28.9096 33.2322 28.8597 33.0429 28.8603C32.8662 28.8609 32.7086 28.9099 32.5701 29.0071C32.4358 29.1001 32.3373 29.2246 32.2748 29.3805L31.5984 29.0546C31.6651 28.8735 31.7697 28.7175 31.9123 28.5866C32.0591 28.4514 32.2312 28.3456 32.4287 28.2692C32.6262 28.1928 32.8406 28.1542 33.072 28.1534C33.3539 28.1524 33.6023 28.2042 33.8172 28.3086C34.0321 28.4088 34.1988 28.5513 34.3172 28.736C34.4399 28.9165 34.5016 29.1288 34.5024 29.3728L34.5103 31.6572L33.7278 31.6599L33.7258 31.073L33.9024 31.0598C33.8146 31.2074 33.7098 31.3318 33.5882 31.4332C33.4665 31.5304 33.3279 31.6066 33.1725 31.6619C33.017 31.7129 32.8446 31.7387 32.6552 31.7394ZM36.778 31.6873C36.3909 31.6886 36.0897 31.5845 35.8745 31.3749C35.6634 31.161 35.5571 30.8606 35.5558 30.4735L35.5506 28.9589L34.9574 28.961L34.9548 28.2226L35.0179 28.2224C35.1862 28.2218 35.3165 28.1772 35.4087 28.0885C35.501 27.9999 35.5468 27.8714 35.5462 27.7031L35.5453 27.4381L36.372 27.4352L36.3747 28.2177L37.1636 28.215L37.1661 28.9534L36.3773 28.9561L36.3824 30.4265C36.3827 30.5401 36.402 30.6368 36.4402 30.7166C36.4825 30.7964 36.5458 30.8572 36.6301 30.8989C36.7186 30.9407 36.8302 30.9614 36.9648 30.9609C36.9942 30.9608 37.0279 30.9586 37.0657 30.9542C37.1078 30.9499 37.1477 30.9455 37.1856 30.9412L37.188 31.648C37.1292 31.6566 37.0619 31.6653 36.9862 31.6739C36.9105 31.6826 36.8411 31.6871 36.778 31.6873ZM37.8197 31.6458L37.8078 28.2128L38.6345 28.2099L38.6464 31.643L37.8197 31.6458ZM37.8065 27.8278L37.8034 26.9443L38.6301 26.9415L38.6332 27.825L37.8065 27.8278ZM41.0886 31.7103C40.752 31.7114 40.4446 31.6346 40.1664 31.4799C39.8924 31.3252 39.6729 31.1135 39.5079 30.8448C39.3471 30.5761 39.2661 30.2693 39.2649 29.9243C39.2637 29.5793 39.3426 29.2719 39.5015 29.0021C39.6647 28.7323 39.8827 28.5191 40.1556 28.3624C40.4286 28.2058 40.7354 28.1269 41.0762 28.1258C41.4128 28.1246 41.718 28.2014 41.992 28.3561C42.266 28.5108 42.4834 28.7225 42.6442 28.9912C42.8092 29.2557 42.8923 29.5626 42.8935 29.9118C42.8947 30.2567 42.8138 30.5641 42.6506 30.834C42.4875 31.1038 42.2694 31.317 41.9965 31.4736C41.7236 31.6302 41.4209 31.7091 41.0886 31.7103ZM41.0859 30.953C41.2711 30.9523 41.4329 30.9076 41.5714 30.8188C41.7142 30.7299 41.8252 30.6075 41.9046 30.4516C41.9882 30.2914 42.0297 30.1125 42.029 29.9147C42.0283 29.7128 41.9856 29.5362 41.9009 29.3851C41.8205 29.2297 41.7085 29.1081 41.5652 29.0202C41.426 28.9281 41.2639 28.8824 41.0788 28.8831C40.8895 28.8837 40.7235 28.9306 40.5807 29.0236C40.438 29.1125 40.3248 29.2349 40.2412 29.3908C40.1618 29.5425 40.1224 29.7194 40.1231 29.9213C40.1238 30.1191 40.1644 30.2977 40.2449 30.4573C40.3296 30.6127 40.4436 30.7343 40.5869 30.8222C40.7303 30.91 40.8966 30.9536 41.0859 30.953ZM43.5264 31.6261L43.5145 28.1931L44.2908 28.1904L44.2931 28.8656L44.2296 28.746C44.3088 28.5395 44.4387 28.3834 44.6192 28.2776C44.804 28.1676 45.0183 28.1122 45.2623 28.1113C45.5148 28.1104 45.7379 28.1644 45.9319 28.2731C46.13 28.3818 46.2841 28.5348 46.3941 28.7322C46.5042 28.9253 46.5596 29.1502 46.5605 29.4068L46.5682 31.6156L45.7415 31.6185L45.7345 29.6053C45.734 29.4539 45.7041 29.3236 45.6448 29.2144C45.5855 29.1052 45.5032 29.0213 45.3978 28.9628C45.2966 28.9 45.1766 28.8689 45.0378 28.8694C44.9032 28.8698 44.7834 28.9018 44.6784 28.9653C44.5734 29.0245 44.4917 29.109 44.4332 29.2186C44.3746 29.3282 44.3456 29.4587 44.3462 29.6101L44.3531 31.6232L43.5264 31.6261ZM48.5738 31.6844C48.2078 31.6857 47.8877 31.6005 47.6137 31.429C47.3438 31.2532 47.1579 31.0161 47.0559 30.7178L47.6733 30.419C47.7623 30.6123 47.8848 30.7633 48.0409 30.8721C48.2011 30.981 48.378 31.0351 48.5716 31.0344C48.723 31.0339 48.8428 30.9998 48.9309 30.9322C49.019 30.8646 49.0629 30.7761 49.0625 30.6667C49.0623 30.5994 49.0432 30.5447 49.0052 30.5028C48.9713 30.4566 48.9228 30.4189 48.8596 30.3897C48.8006 30.3562 48.7353 30.3291 48.6637 30.3083L48.1015 30.1525C47.8109 30.0694 47.5896 29.9418 47.4376 29.7698C47.2897 29.5979 47.2154 29.3941 47.2146 29.1585C47.2138 28.9481 47.2658 28.7649 47.3704 28.6089C47.4793 28.4486 47.6282 28.324 47.8172 28.235C48.0104 28.146 48.2312 28.1011 48.4794 28.1002C48.8033 28.0991 49.0897 28.1759 49.3384 28.3307C49.5872 28.4855 49.7647 28.7037 49.8708 28.9852L49.2408 29.284C49.1813 29.1285 49.082 29.0048 48.9429 28.9127C48.8037 28.8206 48.6479 28.7749 48.4754 28.7755C48.3366 28.7759 48.2273 28.8079 48.1476 28.8713C48.0679 28.9346 48.0282 29.0168 48.0285 29.1178C48.0287 29.1809 48.0458 29.2355 48.0796 29.2817C48.1134 29.3279 48.1598 29.3656 48.2188 29.3948C48.282 29.424 48.3536 29.4511 48.4336 29.4761L48.9832 29.6383C49.2654 29.7215 49.4825 29.8469 49.6346 30.0147C49.7908 30.1824 49.8693 30.3883 49.8702 30.6323C49.8709 30.8385 49.8168 31.0217 49.708 31.1819C49.5992 31.338 49.4481 31.4605 49.2549 31.5495C49.0617 31.6385 48.8346 31.6835 48.5738 31.6844Z" fill="#1A202C"/>
<path d="M21.4977 41.8028C21.2737 41.8036 21.0685 41.7633 20.882 41.6819C20.6956 41.5973 20.5374 41.4827 20.4075 41.338C20.2776 41.1933 20.184 41.0311 20.1266 40.8515L20.5283 40.6844C20.6143 40.9113 20.7411 41.086 20.9088 41.2085C21.0796 41.3278 21.2786 41.3871 21.5058 41.3863C21.6446 41.3858 21.766 41.3633 21.87 41.3187C21.9739 41.2742 22.0542 41.2124 22.1107 41.1333C22.1704 41.0511 22.2 40.9563 22.1997 40.849C22.1992 40.7007 22.1562 40.5841 22.0707 40.4992C21.9883 40.4112 21.8666 40.3453 21.7055 40.3017L21.0564 40.1052C20.8006 40.0272 20.6045 39.9032 20.4682 39.7333C20.332 39.5634 20.2635 39.368 20.2627 39.1471C20.262 38.9546 20.3072 38.7856 20.3982 38.6402C20.4923 38.4915 20.6213 38.3759 20.7851 38.2933C20.9521 38.2075 21.1412 38.1643 21.3526 38.1636C21.564 38.1628 21.7551 38.2 21.9257 38.2752C22.0995 38.3503 22.2466 38.4524 22.367 38.5813C22.4873 38.7071 22.5761 38.8519 22.6335 39.0158L22.2365 39.1829C22.1601 38.9843 22.046 38.8348 21.8942 38.7344C21.7424 38.6308 21.5639 38.5793 21.3588 38.5801C21.2326 38.5805 21.1207 38.603 21.023 38.6475C20.9285 38.6888 20.8545 38.7506 20.8012 38.8328C20.751 38.9119 20.726 39.0066 20.7264 39.1171C20.7269 39.2464 20.7683 39.3615 20.8507 39.4622C20.9331 39.5629 21.058 39.6397 21.2254 39.6928L21.8176 39.8659C22.0956 39.9501 22.3058 40.0709 22.4484 40.2281C22.5909 40.3854 22.6626 40.5808 22.6634 40.8143C22.6641 41.0068 22.6142 41.1773 22.5137 41.326C22.4164 41.4746 22.2795 41.5919 22.1031 41.6777C21.9299 41.7603 21.7281 41.802 21.4977 41.8028ZM24.4203 41.7927C24.1742 41.7936 23.9547 41.7359 23.7618 41.6199C23.5689 41.5038 23.4169 41.345 23.3058 41.1434C23.1946 40.9387 23.1386 40.7101 23.1378 40.4577C23.1369 40.2021 23.1897 39.9747 23.2963 39.7756C23.4061 39.5764 23.5538 39.4197 23.7396 39.3055C23.9285 39.1881 24.1397 39.129 24.3732 39.1281C24.5626 39.1275 24.7299 39.1616 24.8753 39.2305C25.0238 39.2963 25.1488 39.3874 25.2501 39.5038C25.3547 39.617 25.434 39.7477 25.4882 39.8958C25.5455 40.0407 25.5744 40.1921 25.5749 40.3499C25.575 40.3846 25.572 40.424 25.5659 40.4682C25.5629 40.5093 25.5583 40.5487 25.5521 40.5866L23.4601 40.5938L23.4588 40.2152L25.2952 40.2088L25.0875 40.3799C25.1153 40.2158 25.0991 40.0691 25.0387 39.9399C24.9783 39.8108 24.8896 39.7085 24.7726 39.6332C24.6555 39.5579 24.5229 39.5205 24.3746 39.521C24.2263 39.5215 24.0907 39.5598 23.9679 39.636C23.8451 39.7121 23.7493 39.8213 23.6804 39.9636C23.6146 40.1026 23.5883 40.2684 23.6016 40.4608C23.5896 40.647 23.6186 40.811 23.6885 40.9528C23.7616 41.0913 23.8629 41.1998 23.9925 41.2783C24.1253 41.3536 24.269 41.3909 24.4236 41.3904C24.594 41.3898 24.7375 41.3499 24.8539 41.2706C24.9704 41.1913 25.0647 41.09 25.1369 40.9667L25.5067 41.1547C25.4566 41.2716 25.3781 41.3792 25.2712 41.4774C25.1674 41.5724 25.043 41.6486 24.898 41.7059C24.7562 41.7632 24.597 41.7921 24.4203 41.7927ZM26.1063 41.7301L26.0939 38.1472L26.5341 38.1457L26.5465 41.7286L26.1063 41.7301ZM28.3561 41.7791C28.11 41.78 27.8905 41.7224 27.6976 41.6063C27.5047 41.4902 27.3527 41.3314 27.2416 41.1298C27.1304 40.9251 27.0744 40.6965 27.0736 40.4441C27.0727 40.1885 27.1255 39.9611 27.2321 39.762C27.3419 39.5628 27.4896 39.4061 27.6754 39.2919C27.8643 39.1745 28.0755 39.1154 28.309 39.1146C28.4984 39.1139 28.6657 39.148 28.8111 39.2169C28.9596 39.2827 29.0846 39.3738 29.186 39.4902C29.2905 39.6034 29.3698 39.7341 29.424 39.8822C29.4813 40.0271 29.5102 40.1785 29.5107 40.3363C29.5108 40.371 29.5078 40.4104 29.5017 40.4546C29.4987 40.4957 29.4941 40.5351 29.4879 40.573L27.3959 40.5802L27.3946 40.2016L29.231 40.1952L29.0233 40.3664C29.0512 40.2022 29.0349 40.0555 28.9745 39.9263C28.9141 39.7972 28.8254 39.6949 28.7084 39.6196C28.5914 39.5443 28.4587 39.5069 28.3104 39.5074C28.1621 39.5079 28.0265 39.5462 27.9037 39.6224C27.781 39.6985 27.6851 39.8077 27.6162 39.95C27.5504 40.089 27.5241 40.2548 27.5374 40.4472C27.5254 40.6334 27.5544 40.7974 27.6243 40.9392C27.6974 41.0777 27.7987 41.1863 27.9284 41.2647C28.0611 41.34 28.2048 41.3773 28.3595 41.3768C28.5298 41.3762 28.6733 41.3363 28.7897 41.257C28.9062 41.1777 29.0005 41.0764 29.0727 40.9531L29.4425 41.1411C29.3924 41.2581 29.3139 41.3656 29.207 41.4638C29.1032 41.5588 28.9788 41.635 28.8338 41.6923C28.6921 41.7496 28.5328 41.7785 28.3561 41.7791ZM31.2255 41.7692C30.9763 41.7701 30.7536 41.7125 30.5576 41.5964C30.3647 41.4803 30.2127 41.3215 30.1016 41.1199C29.9904 40.9184 29.9344 40.6914 29.9335 40.4389C29.9327 40.1834 29.9871 39.956 30.0969 39.7568C30.2066 39.5576 30.3575 39.3994 30.5496 39.2819C30.7448 39.1645 30.9671 39.1054 31.2163 39.1045C31.3836 39.1039 31.5399 39.1334 31.6852 39.1928C31.8306 39.2523 31.9586 39.3323 32.0694 39.4329C32.1802 39.5335 32.2611 39.6515 32.312 39.787L31.9199 39.9777C31.8594 39.8454 31.7676 39.7384 31.6442 39.6568C31.5209 39.572 31.3787 39.5299 31.2178 39.5305C31.0632 39.531 30.9229 39.5709 30.797 39.6503C30.6742 39.7296 30.5767 39.8372 30.5046 39.9731C30.4325 40.1091 30.3968 40.2654 30.3974 40.4421C30.398 40.6125 30.4348 40.7669 30.5079 40.9055C30.5809 41.041 30.6791 41.1479 30.8024 41.2264C30.9289 41.3048 31.0695 41.3438 31.2241 41.3432C31.385 41.3427 31.5268 41.3012 31.6496 41.2187C31.7724 41.1331 31.8635 41.0208 31.923 40.8817L32.3165 41.0791C32.2665 41.2118 32.1864 41.3304 32.0763 41.435C31.9663 41.5363 31.8387 41.6172 31.6938 41.6777C31.5489 41.7381 31.3928 41.7686 31.2255 41.7692ZM33.8832 41.7316C33.634 41.7325 33.4412 41.6622 33.3051 41.5206C33.172 41.3791 33.1051 41.179 33.1042 40.9202L33.0996 39.5761L32.6357 39.5777L32.6343 39.1564L32.7289 39.1561C32.8425 39.1557 32.9323 39.1207 32.9983 39.051C33.0644 38.9814 33.0972 38.8898 33.0968 38.7762L33.0961 38.5679L33.5362 38.5664L33.5383 39.1533L34.111 39.1513L34.1124 39.5726L33.5397 39.5745L33.5443 40.9045C33.5446 40.9897 33.5575 41.0638 33.583 41.1268C33.6116 41.1898 33.6575 41.2402 33.7207 41.2778C33.784 41.3123 33.8676 41.3294 33.9718 41.329C33.9939 41.3289 34.0207 41.3273 34.0522 41.324C34.0869 41.3207 34.1184 41.3175 34.1468 41.3142L34.1482 41.7023C34.1072 41.7119 34.0615 41.7184 34.011 41.7217C33.9605 41.7282 33.9179 41.7315 33.8832 41.7316ZM35.5875 42.7386C35.5307 42.7388 35.4739 42.7343 35.417 42.725C35.3602 42.7189 35.3065 42.7049 35.256 42.683L35.2546 42.2901C35.2893 42.2932 35.3319 42.2993 35.3825 42.3086C35.4361 42.3179 35.4882 42.3225 35.5387 42.3223C35.687 42.3218 35.7989 42.2883 35.8744 42.2217C35.9531 42.1552 36.0268 42.0429 36.0957 41.8849L36.2553 41.501L36.2472 41.8844L35.1491 39.1477L35.6271 39.1461L36.4819 41.3203L36.3399 41.3208L37.1748 39.1407L37.6623 39.139L36.5221 41.997C36.4689 42.1329 36.3999 42.2578 36.3151 42.3717C36.2335 42.4855 36.1328 42.5742 36.0131 42.6378C35.8934 42.7044 35.7515 42.7381 35.5875 42.7386ZM39.181 41.7417C38.9349 41.7426 38.7123 41.6866 38.5131 41.5736C38.3139 41.4576 38.1556 41.2988 38.0381 41.0972C37.9207 40.8957 37.8615 40.6671 37.8606 40.4116C37.8597 40.156 37.9158 39.9286 38.0287 39.7294C38.1447 39.5302 38.302 39.3719 38.5003 39.2545C38.6987 39.137 38.9225 39.0779 39.1718 39.077C39.4179 39.0762 39.6406 39.1338 39.8398 39.2499C40.039 39.3628 40.1957 39.5184 40.31 39.7168C40.4274 39.9152 40.4866 40.1438 40.4875 40.4025C40.4884 40.6612 40.4292 40.8918 40.31 41.0941C40.1908 41.2933 40.032 41.4517 39.8336 41.5691C39.6384 41.6834 39.4208 41.7409 39.181 41.7417ZM39.1796 41.3158C39.3373 41.3152 39.4792 41.2753 39.6051 41.196C39.7342 41.1166 39.8348 41.0074 39.9069 40.8683C39.9821 40.7292 40.0195 40.5745 40.0189 40.4041C40.0183 40.2306 39.9799 40.0777 39.9037 39.9454C39.8307 39.81 39.7293 39.703 39.5997 39.6246C39.4732 39.543 39.3311 39.5025 39.1733 39.503C39.0124 39.5036 38.8674 39.5451 38.7383 39.6276C38.6123 39.7069 38.5117 39.8145 38.4365 39.9505C38.3612 40.0833 38.3239 40.2364 38.3245 40.41C38.3251 40.5804 38.3635 40.7348 38.4397 40.8734C38.5159 41.012 38.6172 41.1205 38.7437 41.1989C38.8733 41.2774 39.0186 41.3163 39.1796 41.3158ZM41.9228 41.7323C41.7398 41.7329 41.574 41.6909 41.4254 41.6062C41.28 41.5215 41.166 41.4036 41.0834 41.2524C41.004 41.098 40.964 40.9215 40.9633 40.7227L40.9578 39.1277L41.3979 39.1261L41.4033 40.6738C41.4037 40.8001 41.4293 40.9104 41.4802 41.0049C41.5341 41.0994 41.607 41.1733 41.6986 41.2266C41.7935 41.2799 41.9009 41.3064 42.0208 41.3059C42.1407 41.3055 42.2463 41.2783 42.3376 41.2244C42.4321 41.1704 42.5044 41.0929 42.5545 40.9917C42.6078 40.8906 42.6342 40.7706 42.6337 40.6317L42.6285 39.1219L43.0734 39.1204L43.0822 41.6715L42.6515 41.6729L42.6498 41.176L42.721 41.2183C42.6616 41.3795 42.5595 41.506 42.4146 41.598C42.2729 41.6869 42.109 41.7316 41.9228 41.7323ZM43.7168 41.6693L43.708 39.1182L44.1387 39.1167L44.1404 39.5853L44.0928 39.5192C44.1522 39.3738 44.2434 39.2662 44.3662 39.1964C44.489 39.1234 44.6388 39.0866 44.8155 39.0859L44.9716 39.0854L44.9731 39.5019L44.7506 39.5027C44.5708 39.5033 44.4258 39.5606 44.3158 39.6746C44.2057 39.7854 44.1511 39.9434 44.1518 40.1484L44.157 41.6678L43.7168 41.6693ZM47.2785 41.7138C47.0292 41.7146 46.8065 41.657 46.6105 41.5409C46.4176 41.4249 46.2656 41.266 46.1545 41.0645C46.0433 40.8629 45.9873 40.6359 45.9865 40.3835C45.9856 40.1279 46.04 39.9005 46.1498 39.7014C46.2595 39.5022 46.4104 39.3439 46.6025 39.2265C46.7977 39.1091 47.02 39.0499 47.2693 39.0491C47.4365 39.0485 47.5928 39.0779 47.7381 39.1374C47.8835 39.1968 48.0116 39.2769 48.1223 39.3774C48.2331 39.478 48.314 39.5961 48.365 39.7316L47.9728 39.9223C47.9124 39.7899 47.8205 39.683 47.6971 39.6014C47.5738 39.5166 47.4316 39.4745 47.2707 39.475C47.1161 39.4756 46.9758 39.5155 46.8499 39.5948C46.7271 39.6741 46.6297 39.7818 46.5576 39.9177C46.4855 40.0536 46.4497 40.2099 46.4503 40.3866C46.4509 40.557 46.4877 40.7115 46.5608 40.8501C46.6338 40.9855 46.732 41.0925 46.8553 41.1709C46.9818 41.2494 47.1224 41.2883 47.277 41.2878C47.4379 41.2872 47.5798 41.2457 47.7025 41.1633C47.8253 41.0776 47.9164 40.9653 47.9759 40.8263L48.3694 41.0237C48.3194 41.1564 48.2393 41.275 48.1293 41.3795C48.0192 41.4809 47.8917 41.5618 47.7467 41.6222C47.6018 41.6827 47.4457 41.7132 47.2785 41.7138ZM48.8995 41.6514L48.8907 39.1003L49.3309 39.0987L49.3397 41.6499L48.8995 41.6514ZM48.8893 38.6932L48.8873 38.1253L49.3275 38.1237L49.3295 38.6917L48.8893 38.6932ZM51.012 41.6725C50.7627 41.6733 50.57 41.603 50.4338 41.4615C50.3008 41.3199 50.2338 41.1198 50.2329 40.8611L50.2283 39.5169L49.7645 39.5185L49.763 39.0973L49.8577 39.0969C49.9713 39.0965 50.0611 39.0615 50.1271 38.9919C50.1931 38.9222 50.2259 38.8306 50.2255 38.717L50.2248 38.5088L50.665 38.5072L50.667 39.0941L51.2397 39.0922L51.2412 39.5134L50.6685 39.5154L50.6731 40.8454C50.6734 40.9305 50.6862 41.0047 50.7117 41.0677C50.7403 41.1307 50.7862 41.181 50.8495 41.2187C50.9127 41.2531 50.9964 41.2702 51.1005 41.2699C51.1226 41.2698 51.1494 41.2681 51.181 41.2648C51.2157 41.2616 51.2472 41.2583 51.2756 41.2551L51.2769 41.6432C51.2359 41.6528 51.1902 41.6592 51.1397 41.6626C51.0893 41.6691 51.0467 41.6724 51.012 41.6725ZM51.9454 42.6821C51.8886 42.6823 51.8318 42.6778 51.775 42.6685C51.7182 42.6624 51.6645 42.6484 51.6139 42.6265L51.6126 42.2336C51.6473 42.2367 51.6899 42.2428 51.7404 42.2521C51.7941 42.2614 51.8462 42.266 51.8967 42.2658C52.045 42.2653 52.1569 42.2318 52.2324 42.1652C52.311 42.0987 52.3848 41.9864 52.4537 41.8284L52.6133 41.4445L52.6051 41.8279L51.5071 39.0912L51.9851 39.0896L52.8398 41.2638L52.6978 41.2643L53.5328 39.0842L54.0203 39.0826L52.88 41.9405C52.8269 42.0764 52.7579 42.2013 52.6731 42.3152C52.5914 42.429 52.4908 42.5177 52.3711 42.5813C52.2514 42.6479 52.1095 42.6816 51.9454 42.6821Z" fill="#90A3BF"/>
<path d="M66.8256 40.638C66.6646 40.6385 66.5033 40.5769 66.3809 40.4554L64.8756 38.9605C64.8087 38.894 64.8083 38.7836 64.8748 38.7166C64.9413 38.6497 65.0517 38.6493 65.1187 38.7158L66.624 40.2107C66.7348 40.3208 66.9142 40.3201 67.0243 40.2093L68.5192 38.704C68.5857 38.6371 68.6962 38.6367 68.7631 38.7032C68.8301 38.7697 68.8304 38.8801 68.764 38.9471L67.269 40.4524C67.1475 40.5747 66.9867 40.6374 66.8256 40.638Z" fill="#1A202C" stroke="#1A202C" stroke-width="0.197211"/>
<line x1="79.195" y1="24.7001" x2="79.259" y2="43.2378" stroke="#C3D4E9" stroke-opacity="0.4" stroke-width="0.394421" stroke-linecap="round"/>
<path d="M88.9417 31.4693L88.9254 26.7678L90.4589 26.7625C90.9554 26.7608 91.387 26.8603 91.7537 27.061C92.1246 27.2574 92.4116 27.532 92.6148 27.8847C92.8179 28.2332 92.9203 28.6388 92.9219 29.1016C92.9235 29.5602 92.8239 29.9686 92.6232 30.3269C92.4225 30.681 92.1374 30.9597 91.7679 31.1629C91.4025 31.3619 90.9716 31.4623 90.4752 31.464L88.9417 31.4693ZM89.7973 30.709L90.4915 30.7066C90.8112 30.7055 91.0866 30.6394 91.3175 30.5081C91.5527 30.3727 91.735 30.187 91.8646 29.9509C91.9942 29.7106 92.0585 29.4285 92.0573 29.1046C92.0562 28.7764 91.99 28.4948 91.8588 28.2596C91.7276 28.0245 91.5439 27.8421 91.3079 27.7125C91.076 27.5829 90.8002 27.5186 90.4805 27.5197L89.7863 27.5221L89.7973 30.709ZM94.5729 31.5256C94.3331 31.5264 94.1247 31.4871 93.9477 31.4078C93.7707 31.3285 93.6336 31.2154 93.5363 31.0684C93.439 30.9173 93.39 30.7429 93.3894 30.5452C93.3887 30.3558 93.4302 30.1874 93.5138 30.0399C93.5975 29.8881 93.7274 29.7615 93.9038 29.6599C94.0801 29.5583 94.3029 29.486 94.572 29.443L95.6947 29.2561L95.6968 29.8872L94.7319 30.0546C94.5679 30.0846 94.4461 30.1376 94.3664 30.2136C94.2867 30.2896 94.2471 30.3886 94.2475 30.5106C94.2479 30.6284 94.2924 30.723 94.381 30.7942C94.4738 30.8612 94.5875 30.8944 94.7221 30.894C94.8946 30.8934 95.046 30.8571 95.1761 30.7851C95.3105 30.7089 95.4132 30.6055 95.4843 30.4748C95.5596 30.3441 95.5969 30.201 95.5964 30.0453L95.5934 29.1618C95.5928 29.0146 95.5335 28.8927 95.4154 28.7964C95.3015 28.6958 95.1498 28.6458 94.9605 28.6465C94.7838 28.6471 94.6262 28.696 94.4877 28.7933C94.3534 28.8863 94.255 29.0108 94.1924 29.1666L93.516 28.8408C93.5827 28.6597 93.6873 28.5036 93.8299 28.3727C93.9767 28.2376 94.1488 28.1318 94.3463 28.0554C94.5438 27.979 94.7582 27.9404 94.9896 27.9396C95.2715 27.9386 95.5199 27.9904 95.7348 28.0948C95.9497 28.195 96.1164 28.3375 96.2348 28.5222C96.3575 28.7027 96.4192 28.9149 96.4201 29.1589L96.428 31.4434L95.6454 31.4461L95.6434 30.8592L95.8201 30.846C95.7322 30.9936 95.6275 31.118 95.5058 31.2194C95.3841 31.3166 95.2456 31.3928 95.0901 31.448C94.9346 31.4991 94.7622 31.5249 94.5729 31.5256ZM98.6956 31.4735C98.3085 31.4748 98.0074 31.3706 97.7921 31.161C97.581 30.9472 97.4748 30.6467 97.4734 30.2597L97.4682 28.7451L96.875 28.7472L96.8724 28.0088L96.9355 28.0086C97.1038 28.008 97.2341 27.9634 97.3263 27.8747C97.4186 27.7861 97.4644 27.6576 97.4639 27.4893L97.4629 27.2242L98.2896 27.2214L98.2923 28.0039L99.0812 28.0012L99.0837 28.7395L98.2949 28.7423L98.3 30.2127C98.3004 30.3263 98.3196 30.423 98.3578 30.5028C98.4001 30.5825 98.4634 30.6433 98.5477 30.6851C98.6362 30.7269 98.7478 30.7475 98.8824 30.7471C98.9119 30.747 98.9455 30.7447 98.9834 30.7404C99.0254 30.7361 99.0654 30.7317 99.1032 30.7274L99.1057 31.4342C99.0468 31.4428 98.9795 31.4514 98.9038 31.4601C98.8281 31.4688 98.7587 31.4732 98.6956 31.4735ZM101.335 31.5022C100.981 31.5034 100.672 31.4246 100.406 31.2656C100.141 31.1066 99.9339 30.8907 99.7857 30.6177C99.6375 30.3448 99.5628 30.0421 99.5617 29.7098C99.5605 29.3648 99.6331 29.0595 99.7794 28.7939C99.9299 28.5242 100.133 28.311 100.389 28.1544C100.65 27.9979 100.94 27.919 101.259 27.9179C101.529 27.917 101.764 27.9604 101.967 28.048C102.173 28.1357 102.348 28.2571 102.492 28.4122C102.635 28.5674 102.745 28.7458 102.822 28.9475C102.898 29.145 102.937 29.3594 102.938 29.5908C102.938 29.6497 102.934 29.7107 102.926 29.7739C102.922 29.837 102.911 29.8917 102.895 29.9381L100.244 29.9472L100.242 29.3161L102.425 29.3086L102.035 29.6065C102.072 29.4129 102.061 29.2404 102.002 29.0892C101.947 28.9379 101.854 28.8183 101.723 28.7304C101.596 28.6425 101.443 28.5989 101.262 28.5995C101.089 28.6001 100.936 28.6448 100.802 28.7336C100.667 28.8182 100.565 28.9448 100.494 29.1133C100.427 29.2776 100.402 29.4776 100.42 29.7131C100.404 29.9235 100.432 30.1106 100.504 30.2745C100.58 30.4341 100.69 30.5578 100.833 30.6457C100.981 30.7335 101.149 30.7771 101.339 30.7764C101.528 30.7758 101.688 30.7353 101.818 30.6549C101.952 30.5745 102.057 30.4668 102.132 30.332L102.802 30.6578C102.736 30.8221 102.631 30.9676 102.488 31.0943C102.346 31.221 102.176 31.3205 101.978 31.3927C101.785 31.4649 101.57 31.5014 101.335 31.5022Z" fill="#1A202C"/>
<path d="M90.1268 41.5657C89.9027 41.5665 89.6975 41.5262 89.511 41.4448C89.3246 41.3603 89.1664 41.2456 89.0365 41.1009C88.9067 40.9562 88.813 40.7941 88.7556 40.6144L89.1573 40.4474C89.2433 40.6742 89.3701 40.8489 89.5378 40.9714C89.7086 41.0907 89.9076 41.15 90.1348 41.1492C90.2736 41.1487 90.395 41.1262 90.499 41.0817C90.603 41.0372 90.6832 40.9753 90.7397 40.8963C90.7994 40.814 90.8291 40.7193 90.8287 40.612C90.8282 40.4637 90.7852 40.3471 90.6997 40.2622C90.6173 40.1741 90.4956 40.1083 90.3346 40.0646L89.6855 39.8681C89.4296 39.7901 89.2335 39.6661 89.0973 39.4962C88.961 39.3263 88.8925 39.1309 88.8917 38.91C88.8911 38.7175 88.9362 38.5486 89.0272 38.4031C89.1214 38.2545 89.2503 38.1389 89.4141 38.0563C89.5811 37.9705 89.7703 37.9272 89.9817 37.9265C90.1931 37.9258 90.3841 37.963 90.5548 38.0381C90.7286 38.1132 90.8756 38.2153 90.996 38.3442C91.1163 38.47 91.2052 38.6149 91.2625 38.7788L90.8655 38.9458C90.7891 38.7473 90.675 38.5978 90.5232 38.4973C90.3714 38.3937 90.1929 38.3423 89.9878 38.343C89.8616 38.3434 89.7497 38.3659 89.652 38.4104C89.5575 38.4518 89.4836 38.5135 89.4302 38.5958C89.38 38.6748 89.3551 38.7696 89.3555 38.88C89.3559 39.0094 89.3973 39.1244 89.4797 39.2251C89.5621 39.3258 89.687 39.4027 89.8544 39.4557L90.4467 39.6288C90.7246 39.713 90.9349 39.8338 91.0774 39.9911C91.2199 40.1484 91.2916 40.3437 91.2924 40.5772C91.2931 40.7697 91.2432 40.9403 91.1427 41.0889C91.0454 41.2376 90.9086 41.3548 90.7322 41.4406C90.5589 41.5232 90.3571 41.5649 90.1268 41.5657ZM93.0493 41.5557C92.8032 41.5565 92.5837 41.4989 92.3908 41.3828C92.198 41.2667 92.0459 41.1079 91.9348 40.9063C91.8237 40.7016 91.7677 40.473 91.7668 40.2206C91.7659 39.965 91.8188 39.7377 91.9254 39.5385C92.0351 39.3393 92.1829 39.1826 92.3686 39.0684C92.5576 38.951 92.7688 38.8919 93.0023 38.8911C93.1916 38.8904 93.3589 38.9246 93.5043 38.9935C93.6529 39.0592 93.7778 39.1503 93.8792 39.2667C93.9837 39.3799 94.063 39.5106 94.1172 39.6587C94.1745 39.8037 94.2034 39.955 94.204 40.1128C94.2041 40.1475 94.2011 40.187 94.1949 40.2312C94.1919 40.2722 94.1873 40.3117 94.1811 40.3495L92.0891 40.3568L92.0878 39.9781L93.9242 39.9718L93.7165 40.1429C93.7444 39.9787 93.7281 39.832 93.6677 39.7029C93.6073 39.5737 93.5186 39.4715 93.4016 39.3961C93.2846 39.3208 93.1519 39.2834 93.0036 39.2839C92.8553 39.2844 92.7198 39.3228 92.597 39.3989C92.4742 39.4751 92.3783 39.5843 92.3094 39.7265C92.2436 39.8656 92.2174 40.0313 92.2306 40.2237C92.2187 40.41 92.2476 40.5739 92.3175 40.7157C92.3906 40.8543 92.4919 40.9628 92.6216 41.0412C92.7544 41.1165 92.8981 41.1539 93.0527 41.1533C93.2231 41.1527 93.3665 41.1128 93.483 41.0335C93.5994 40.9542 93.6938 40.8529 93.7659 40.7296L94.1357 40.9177C94.0857 41.0346 94.0071 41.1421 93.9002 41.2403C93.7964 41.3353 93.672 41.4115 93.5271 41.4688C93.3853 41.5261 93.226 41.555 93.0493 41.5557ZM94.7353 41.493L94.7229 37.9101L95.1631 37.9086L95.1755 41.4915L94.7353 41.493ZM96.9851 41.5421C96.739 41.5429 96.5195 41.4853 96.3266 41.3692C96.1338 41.2531 95.9818 41.0943 95.8706 40.8927C95.7595 40.688 95.7035 40.4595 95.7026 40.207C95.7017 39.9514 95.7546 39.7241 95.8612 39.5249C95.9709 39.3257 96.1187 39.169 96.3044 39.0548C96.4934 38.9374 96.7046 38.8783 96.9381 38.8775C97.1274 38.8768 97.2947 38.911 97.4401 38.9799C97.5887 39.0456 97.7136 39.1367 97.815 39.2531C97.9195 39.3663 97.9988 39.497 98.053 39.6451C98.1103 39.7901 98.1392 39.9414 98.1398 40.0992C98.1399 40.1339 98.1369 40.1734 98.1307 40.2176C98.1277 40.2586 98.1231 40.2981 98.1169 40.3359L96.0249 40.3432L96.0236 39.9645L97.86 39.9582L97.6524 40.1293C97.6802 39.9651 97.6639 39.8184 97.6035 39.6893C97.5431 39.5601 97.4544 39.4579 97.3374 39.3826C97.2204 39.3072 97.0877 39.2698 96.9394 39.2703C96.7911 39.2708 96.6556 39.3092 96.5328 39.3853C96.41 39.4615 96.3141 39.5707 96.2452 39.7129C96.1794 39.852 96.1532 40.0177 96.1664 40.2102C96.1545 40.3964 96.1834 40.5603 96.2533 40.7021C96.3264 40.8407 96.4277 40.9492 96.5574 41.0276C96.6902 41.1029 96.8339 41.1403 96.9885 41.1397C97.1589 41.1391 97.3023 41.0992 97.4188 41.0199C97.5353 40.9406 97.6296 40.8393 97.7017 40.716L98.0715 40.9041C98.0215 41.021 97.9429 41.1285 97.836 41.2267C97.7322 41.3218 97.6078 41.3979 97.4629 41.4552C97.3211 41.5125 97.1618 41.5414 96.9851 41.5421ZM99.8546 41.5321C99.6053 41.533 99.3826 41.4754 99.1866 41.3593C98.9937 41.2432 98.8417 41.0844 98.7306 40.8829C98.6195 40.6813 98.5634 40.4543 98.5626 40.2019C98.5617 39.9463 98.6161 39.7189 98.7259 39.5198C98.8356 39.3206 98.9865 39.1623 99.1786 39.0449C99.3738 38.9275 99.5961 38.8683 99.8454 38.8675C100.013 38.8669 100.169 38.8963 100.314 38.9558C100.46 39.0152 100.588 39.0952 100.698 39.1958C100.809 39.2964 100.89 39.4145 100.941 39.55L100.549 39.7406C100.488 39.6083 100.397 39.5014 100.273 39.4197C100.15 39.335 100.008 39.2929 99.8468 39.2934C99.6922 39.294 99.5519 39.3339 99.426 39.4132C99.3032 39.4925 99.2058 39.6001 99.1337 39.7361C99.0616 39.872 99.0258 40.0283 99.0264 40.205C99.027 40.3754 99.0638 40.5299 99.1369 40.6685C99.2099 40.8039 99.3081 40.9108 99.4315 40.9893C99.5579 41.0678 99.6985 41.1067 99.8531 41.1062C100.014 41.1056 100.156 41.0641 100.279 40.9816C100.401 40.896 100.493 40.7837 100.552 40.6447L100.946 40.8421C100.896 40.9748 100.815 41.0934 100.705 41.1979C100.595 41.2992 100.468 41.3801 100.323 41.4406C100.178 41.5011 100.022 41.5316 99.8546 41.5321ZM102.512 41.4946C102.263 41.4954 102.07 41.4251 101.934 41.2836C101.801 41.142 101.734 40.9419 101.733 40.6832L101.729 39.339L101.265 39.3406L101.263 38.9194L101.358 38.919C101.472 38.9186 101.561 38.8836 101.627 38.814C101.693 38.7443 101.726 38.6527 101.726 38.5391L101.725 38.3309L102.165 38.3293L102.167 38.9162L102.74 38.9143L102.741 39.3355L102.169 39.3375L102.173 40.6675C102.174 40.7526 102.187 40.8268 102.212 40.8898C102.241 40.9528 102.287 41.0031 102.35 41.0408C102.413 41.0752 102.497 41.0923 102.601 41.092C102.623 41.0919 102.65 41.0902 102.681 41.0869C102.716 41.0837 102.747 41.0804 102.776 41.0771L102.777 41.4653C102.736 41.4749 102.69 41.4813 102.64 41.4847C102.59 41.4911 102.547 41.4945 102.512 41.4946ZM104.216 42.5016C104.16 42.5018 104.103 42.4972 104.046 42.488C103.989 42.4818 103.936 42.4678 103.885 42.4459L103.884 42.0531C103.918 42.0561 103.961 42.0623 104.011 42.0716C104.065 42.0808 104.117 42.0854 104.168 42.0852C104.316 42.0847 104.428 42.0512 104.503 41.9847C104.582 41.9181 104.656 41.8059 104.725 41.6479L104.884 41.2639L104.876 41.6473L103.778 38.9107L104.256 38.909L105.111 41.0833L104.969 41.0838L105.804 38.9037L106.291 38.902L105.151 41.76C105.098 41.8958 105.029 42.0207 104.944 42.1346C104.862 42.2485 104.762 42.3372 104.642 42.4007C104.522 42.4674 104.381 42.501 104.216 42.5016ZM107.81 41.5047C107.564 41.5055 107.341 41.4495 107.142 41.3366C106.943 41.2205 106.785 41.0617 106.667 40.8602C106.55 40.6586 106.491 40.4301 106.49 40.1745C106.489 39.9189 106.545 39.6915 106.658 39.4924C106.774 39.2932 106.931 39.1349 107.129 39.0174C107.328 38.9 107.552 38.8408 107.801 38.84C108.047 38.8391 108.27 38.8967 108.469 39.0128C108.668 39.1257 108.825 39.2814 108.939 39.4797C109.056 39.6781 109.116 39.9067 109.116 40.1654C109.117 40.4242 109.058 40.6547 108.939 40.8571C108.82 41.0563 108.661 41.2146 108.463 41.332C108.267 41.4463 108.05 41.5038 107.81 41.5047ZM107.809 41.0787C107.966 41.0782 108.108 41.0382 108.234 40.9589C108.363 40.8796 108.464 40.7704 108.536 40.6313C108.611 40.4922 108.649 40.3374 108.648 40.167C108.647 39.9935 108.609 39.8406 108.533 39.7083C108.46 39.5729 108.358 39.466 108.229 39.3875C108.102 39.3059 107.96 39.2654 107.802 39.266C107.641 39.2665 107.496 39.308 107.367 39.3905C107.241 39.4698 107.141 39.5775 107.066 39.7134C106.99 39.8462 106.953 39.9994 106.953 40.1729C106.954 40.3433 106.992 40.4978 107.069 40.6363C107.145 40.7749 107.246 40.8834 107.373 40.9619C107.502 41.0403 107.648 41.0793 107.809 41.0787ZM110.552 41.4952C110.369 41.4958 110.203 41.4538 110.054 41.3691C109.909 41.2844 109.795 41.1665 109.712 41.0153C109.633 40.861 109.593 40.6844 109.592 40.4856L109.587 38.8906L110.027 38.8891L110.032 40.4368C110.033 40.563 110.058 40.6734 110.109 40.7678C110.163 40.8623 110.236 40.9362 110.328 40.9895C110.423 41.0429 110.53 41.0693 110.65 41.0689C110.77 41.0685 110.875 41.0413 110.967 40.9873C111.061 40.9334 111.133 40.8558 111.184 40.7547C111.237 40.6535 111.263 40.5335 111.263 40.3947L111.258 38.8848L111.702 38.8833L111.711 41.4344L111.281 41.4359L111.279 40.9389L111.35 40.9813C111.291 41.1424 111.188 41.269 111.044 41.361C110.902 41.4498 110.738 41.4946 110.552 41.4952ZM112.346 41.4322L112.337 38.8811L112.768 38.8796L112.769 39.3482L112.722 39.2821C112.781 39.1367 112.872 39.0291 112.995 38.9593C113.118 38.8863 113.268 38.8495 113.444 38.8489L113.601 38.8483L113.602 39.2649L113.38 39.2656C113.2 39.2662 113.055 39.3235 112.945 39.4375C112.835 39.5483 112.78 39.7063 112.781 39.9114L112.786 41.4307L112.346 41.4322ZM115.884 41.4768C115.644 41.4776 115.428 41.42 115.235 41.3039C115.045 41.1878 114.895 41.029 114.783 40.8274C114.672 40.6259 114.616 40.4004 114.616 40.1512C114.615 39.8956 114.669 39.6682 114.779 39.469C114.889 39.2667 115.038 39.1069 115.227 38.9895C115.419 38.872 115.635 38.8129 115.875 38.8121C116.086 38.8114 116.274 38.8565 116.438 38.9474C116.603 39.0352 116.732 39.1546 116.828 39.3058L116.757 39.4149L116.752 37.834L117.196 37.8325L117.209 41.4154L116.778 41.4169L116.776 40.8726L116.833 40.9481C116.746 41.1157 116.617 41.2455 116.447 41.3376C116.28 41.4297 116.092 41.4761 115.884 41.4768ZM115.92 41.0507C116.081 41.0501 116.225 41.0102 116.351 40.9309C116.476 40.8516 116.575 40.7439 116.648 40.608C116.723 40.4689 116.76 40.3142 116.76 40.1438C116.759 39.9702 116.721 39.8157 116.644 39.6803C116.571 39.5417 116.472 39.4332 116.345 39.3548C116.219 39.2763 116.075 39.2374 115.914 39.2379C115.756 39.2385 115.613 39.28 115.484 39.3625C115.358 39.4418 115.259 39.5494 115.187 39.6854C115.114 39.8181 115.079 39.9729 115.079 40.1496C115.08 40.32 115.117 40.4744 115.19 40.613C115.263 40.7485 115.363 40.8554 115.489 40.9338C115.616 41.0123 115.759 41.0512 115.92 41.0507ZM118.591 41.4674C118.424 41.468 118.275 41.4386 118.146 41.379C118.019 41.3164 117.92 41.2315 117.847 41.1245C117.774 41.0143 117.737 40.8882 117.736 40.7462C117.736 40.6105 117.764 40.489 117.82 40.3815C117.88 40.2708 117.971 40.1774 118.094 40.1013C118.22 40.0251 118.377 39.9709 118.567 39.9387L119.513 39.7793L119.514 40.1485L118.667 40.2934C118.503 40.3223 118.384 40.3748 118.308 40.4508C118.236 40.5268 118.2 40.62 118.2 40.7304C118.201 40.8346 118.242 40.9212 118.324 40.9903C118.41 41.0594 118.515 41.0938 118.642 41.0933C118.803 41.0928 118.941 41.0592 119.058 40.9925C119.177 40.9227 119.27 40.8293 119.336 40.7123C119.405 40.5953 119.439 40.4658 119.439 40.3238L119.437 39.6754C119.436 39.5366 119.384 39.4247 119.279 39.3399C119.178 39.2519 119.044 39.2082 118.877 39.2088C118.731 39.2093 118.602 39.2476 118.489 39.3237C118.379 39.3967 118.297 39.4948 118.244 39.618L117.86 39.4205C117.907 39.3036 117.982 39.1992 118.086 39.1074C118.19 39.0124 118.311 38.9378 118.449 38.8837C118.588 38.8295 118.733 38.8022 118.885 38.8017C119.08 38.801 119.252 38.8383 119.401 38.9135C119.549 38.9856 119.665 39.0877 119.747 39.22C119.833 39.349 119.876 39.5003 119.877 39.6739L119.883 41.4062L119.452 41.4077L119.45 40.9249L119.531 40.953C119.478 41.0542 119.405 41.1428 119.314 41.2188C119.223 41.2949 119.116 41.3552 118.993 41.3998C118.87 41.4444 118.736 41.4669 118.591 41.4674ZM121.508 41.429C121.259 41.4298 121.066 41.3595 120.93 41.218C120.797 41.0764 120.73 40.8763 120.729 40.6176L120.725 39.2734L120.261 39.275L120.259 38.8537L120.354 38.8534C120.468 38.853 120.557 38.818 120.623 38.7484C120.689 38.6787 120.722 38.5871 120.722 38.4735L120.721 38.2652L121.161 38.2637L121.163 38.8506L121.736 38.8486L121.738 39.2699L121.165 39.2719L121.169 40.6018C121.17 40.687 121.183 40.7611 121.208 40.8242C121.237 40.8872 121.283 40.9375 121.346 40.9751C121.409 41.0096 121.493 41.0267 121.597 41.0263C121.619 41.0263 121.646 41.0246 121.677 41.0213C121.712 41.0181 121.744 41.0148 121.772 41.0115L121.773 41.3997C121.732 41.4093 121.687 41.4157 121.636 41.4191C121.586 41.4255 121.543 41.4288 121.508 41.429ZM123.406 41.4508C123.159 41.4517 122.94 41.394 122.747 41.278C122.554 41.1619 122.402 41.0031 122.291 40.8015C122.18 40.5968 122.124 40.3682 122.123 40.1158C122.122 39.8602 122.175 39.6328 122.282 39.4337C122.391 39.2345 122.539 39.0778 122.725 38.9636C122.914 38.8462 123.125 38.7871 123.359 38.7862C123.548 38.7856 123.715 38.8197 123.861 38.8886C124.009 38.9544 124.134 39.0455 124.235 39.1619C124.34 39.2751 124.419 39.4058 124.473 39.5539C124.531 39.6988 124.56 39.8502 124.56 40.008C124.56 40.0427 124.557 40.0821 124.551 40.1263C124.548 40.1674 124.544 40.2068 124.537 40.2447L122.445 40.2519L122.444 39.8733L124.28 39.8669L124.073 40.038C124.101 39.8739 124.084 39.7272 124.024 39.598C123.964 39.4689 123.875 39.3666 123.758 39.2913C123.641 39.216 123.508 39.1786 123.36 39.1791C123.212 39.1796 123.076 39.2179 122.953 39.2941C122.83 39.3702 122.735 39.4794 122.666 39.6217C122.6 39.7607 122.574 39.9265 122.587 40.1189C122.575 40.3051 122.604 40.4691 122.674 40.6108C122.747 40.7494 122.848 40.8579 122.978 40.9364C123.111 41.0117 123.254 41.049 123.409 41.0485C123.579 41.0479 123.723 41.008 123.839 40.9287C123.956 40.8494 124.05 40.7481 124.122 40.6248L124.492 40.8128C124.442 40.9297 124.363 41.0373 124.256 41.1355C124.153 41.2305 124.028 41.3067 123.883 41.364C123.742 41.4213 123.582 41.4502 123.406 41.4508Z" fill="#90A3BF"/>
<path d="M138.61 40.39C138.449 40.3905 138.288 40.329 138.165 40.2074L136.66 38.7125C136.593 38.646 136.593 38.5356 136.659 38.4686C136.726 38.4017 136.836 38.4013 136.903 38.4678L138.408 39.9627C138.519 40.0728 138.699 40.0722 138.809 39.9613L140.304 38.456C140.37 38.3891 140.481 38.3887 140.548 38.4552C140.614 38.5217 140.615 38.6321 140.548 38.6991L139.053 40.2044C138.932 40.3267 138.771 40.3894 138.61 40.39Z" fill="#1A202C" stroke="#1A202C" stroke-width="0.197211"/>
<line x1="150.979" y1="24.4521" x2="151.043" y2="42.9898" stroke="#C3D4E9" stroke-opacity="0.4" stroke-width="0.394421" stroke-linecap="round"/>
<path d="M161.559 31.2185L161.545 27.2743L160.327 27.2785L160.325 26.5212L163.606 26.5099L163.609 27.2672L162.41 27.2713L162.424 31.2155L161.559 31.2185ZM164.077 31.2098L164.065 27.7768L164.892 27.7739L164.904 31.2069L164.077 31.2098ZM164.064 27.3918L164.061 26.5083L164.887 26.5054L164.89 27.3889L164.064 27.3918ZM165.667 31.2043L165.655 27.7713L166.431 27.7686L166.434 28.5637L166.345 28.4315C166.407 28.1831 166.533 27.9975 166.722 27.8749C166.911 27.7522 167.134 27.6904 167.39 27.6895C167.672 27.6886 167.921 27.7613 168.136 27.9078C168.351 28.0544 168.49 28.2474 168.554 28.487L168.321 28.5067C168.425 28.2329 168.582 28.0283 168.792 27.893C169.002 27.7534 169.243 27.6831 169.517 27.6822C169.761 27.6814 169.978 27.7353 170.167 27.844C170.361 27.9527 170.513 28.1058 170.623 28.3031C170.733 28.4963 170.789 28.7212 170.79 28.9778L170.797 31.1866L169.971 31.1894L169.964 29.1763C169.963 29.0249 169.935 28.8945 169.88 28.7853C169.825 28.6761 169.749 28.5922 169.652 28.5337C169.555 28.4709 169.437 28.4398 169.299 28.4402C169.168 28.4407 169.053 28.4726 168.952 28.5361C168.851 28.5954 168.774 28.6798 168.719 28.7893C168.665 28.8989 168.638 29.0294 168.639 29.1809L168.646 31.194L167.819 31.1969L167.812 29.1837C167.811 29.0323 167.784 28.902 167.728 28.7928C167.673 28.6836 167.595 28.5997 167.494 28.5411C167.397 28.4784 167.281 28.4472 167.147 28.4477C167.016 28.4481 166.901 28.4801 166.8 28.5435C166.699 28.6028 166.622 28.6872 166.567 28.7968C166.513 28.9063 166.486 29.0369 166.487 29.1883L166.494 31.2014L165.667 31.2043ZM173.125 31.2543C172.772 31.2555 172.462 31.1766 172.197 31.0177C171.931 30.8587 171.724 30.6427 171.576 30.3698C171.428 30.0968 171.353 29.7942 171.352 29.4618C171.351 29.1168 171.423 28.8116 171.57 28.546C171.72 28.2762 171.924 28.063 172.18 27.9065C172.44 27.7499 172.73 27.6711 173.05 27.67C173.319 27.6691 173.555 27.7124 173.757 27.8001C173.964 27.8877 174.139 28.0091 174.282 28.1643C174.426 28.3195 174.536 28.4979 174.612 28.6996C174.689 28.897 174.727 29.1115 174.728 29.3429C174.728 29.4018 174.724 29.4628 174.716 29.5259C174.712 29.589 174.702 29.6438 174.685 29.6901L172.034 29.6993L172.032 29.0682L174.216 29.0606L173.826 29.3586C173.863 29.1649 173.852 28.9925 173.792 28.8412C173.737 28.69 173.644 28.5704 173.513 28.4825C173.387 28.3946 173.233 28.3509 173.052 28.3516C172.88 28.3521 172.726 28.3969 172.592 28.4857C172.458 28.5703 172.355 28.6968 172.284 28.8654C172.217 29.0297 172.193 29.2296 172.21 29.4652C172.194 29.6756 172.222 29.8627 172.294 30.0265C172.371 30.1861 172.48 30.3099 172.624 30.3977C172.771 30.4856 172.94 30.5292 173.129 30.5285C173.318 30.5278 173.478 30.4873 173.608 30.4069C173.743 30.3265 173.847 30.2189 173.923 30.084L174.593 30.4099C174.526 30.5742 174.421 30.7197 174.279 30.8464C174.136 30.9731 173.966 31.0725 173.769 31.1448C173.575 31.2169 173.361 31.2534 173.125 31.2543Z" fill="#1A202C"/>
<path d="M161.911 41.3179C161.687 41.3187 161.482 41.2783 161.295 41.1969C161.109 41.1124 160.951 40.9978 160.821 40.8531C160.691 40.7084 160.597 40.5462 160.54 40.3665L160.942 40.1995C161.028 40.4264 161.154 40.6011 161.322 40.7235C161.493 40.8429 161.692 40.9021 161.919 40.9013C162.058 40.9009 162.179 40.8784 162.283 40.8338C162.387 40.7893 162.467 40.7275 162.524 40.6484C162.584 40.5662 162.613 40.4714 162.613 40.3641C162.612 40.2158 162.569 40.0992 162.484 40.0143C162.402 39.9262 162.28 39.8604 162.119 39.8168L161.47 39.6202C161.214 39.5422 161.018 39.4183 160.882 39.2483C160.745 39.0784 160.677 38.883 160.676 38.6622C160.675 38.4697 160.72 38.3007 160.811 38.1552C160.906 38.0066 161.035 37.891 161.198 37.8084C161.365 37.7226 161.554 37.6794 161.766 37.6786C161.977 37.6779 162.168 37.7151 162.339 37.7903C162.513 37.8654 162.66 37.9674 162.78 38.0964C162.901 38.2222 162.989 38.367 163.047 38.5309L162.65 38.6979C162.573 38.4994 162.459 38.3499 162.307 38.2495C162.156 38.1459 161.977 38.0944 161.772 38.0951C161.646 38.0956 161.534 38.118 161.436 38.1626C161.342 38.2039 161.268 38.2657 161.214 38.3479C161.164 38.427 161.139 38.5217 161.14 38.6322C161.14 38.7615 161.182 38.8766 161.264 38.9772C161.346 39.0779 161.471 39.1548 161.639 39.2079L162.231 39.3809C162.509 39.4652 162.719 39.5859 162.862 39.7432C163.004 39.9005 163.076 40.0959 163.077 40.3294C163.077 40.5219 163.027 40.6924 162.927 40.8411C162.83 40.9897 162.693 41.1069 162.516 41.1927C162.343 41.2754 162.141 41.3171 161.911 41.3179ZM164.881 41.3076C164.635 41.3085 164.415 41.2509 164.222 41.1348C164.03 41.0187 163.878 40.8599 163.766 40.6583C163.655 40.4536 163.599 40.225 163.598 39.9726C163.597 39.717 163.65 39.4896 163.757 39.2905C163.867 39.0913 164.014 38.9346 164.2 38.8204C164.389 38.703 164.6 38.6439 164.834 38.6431C165.023 38.6424 165.191 38.6765 165.336 38.7455C165.484 38.8112 165.609 38.9023 165.711 39.0187C165.815 39.1319 165.895 39.2626 165.949 39.4107C166.006 39.5557 166.035 39.707 166.036 39.8648C166.036 39.8995 166.033 39.9389 166.026 39.9831C166.023 40.0242 166.019 40.0636 166.013 40.1015L163.921 40.1087L163.919 39.7301L165.756 39.7238L165.548 39.8949C165.576 39.7307 165.56 39.584 165.499 39.4549C165.439 39.3257 165.35 39.2234 165.233 39.1481C165.116 39.0728 164.983 39.0354 164.835 39.0359C164.687 39.0364 164.551 39.0747 164.429 39.1509C164.306 39.2271 164.21 39.3362 164.141 39.4785C164.075 39.6175 164.049 39.7833 164.062 39.9757C164.05 40.1619 164.079 40.3259 164.149 40.4677C164.222 40.6062 164.324 40.7148 164.453 40.7932C164.586 40.8685 164.73 40.9058 164.884 40.9053C165.055 40.9047 165.198 40.8648 165.315 40.7855C165.431 40.7062 165.525 40.6049 165.597 40.4816L165.967 40.6696C165.917 40.7866 165.839 40.8941 165.732 40.9923C165.628 41.0873 165.504 41.1635 165.359 41.2208C165.217 41.2781 165.058 41.307 164.881 41.3076ZM166.614 41.2448L166.602 37.6619L167.042 37.6604L167.054 41.2433L166.614 41.2448ZM168.911 41.2937C168.665 41.2946 168.446 41.2369 168.253 41.1209C168.06 41.0048 167.908 40.8459 167.797 40.6444C167.686 40.4397 167.63 40.2111 167.629 39.9587C167.628 39.7031 167.681 39.4757 167.787 39.2766C167.897 39.0774 168.045 38.9207 168.231 38.8065C168.42 38.6891 168.631 38.6299 168.864 38.6291C169.054 38.6285 169.221 38.6626 169.366 38.7315C169.515 38.7973 169.64 38.8884 169.741 39.0048C169.846 39.118 169.925 39.2487 169.979 39.3968C170.037 39.5417 170.065 39.6931 170.066 39.8509C170.066 39.8856 170.063 39.925 170.057 39.9692C170.054 40.0102 170.049 40.0497 170.043 40.0876L167.951 40.0948L167.95 39.7162L169.786 39.7098L169.579 39.8809C169.606 39.7168 169.59 39.5701 169.53 39.4409C169.469 39.3118 169.381 39.2095 169.264 39.1342C169.147 39.0589 169.014 39.0215 168.866 39.022C168.717 39.0225 168.582 39.0608 168.459 39.137C168.336 39.2131 168.24 39.3223 168.171 39.4646C168.106 39.6036 168.079 39.7694 168.093 39.9618C168.081 40.148 168.11 40.312 168.18 40.4537C168.253 40.5923 168.354 40.7008 168.484 40.7793C168.616 40.8545 168.76 40.8919 168.915 40.8914C169.085 40.8908 169.229 40.8509 169.345 40.7716C169.461 40.6923 169.556 40.591 169.628 40.4677L169.998 40.6557C169.948 40.7726 169.869 40.8802 169.762 40.9784C169.658 41.0734 169.534 41.1496 169.389 41.2069C169.247 41.2641 169.088 41.2931 168.911 41.2937ZM171.828 41.2836C171.579 41.2845 171.356 41.2269 171.16 41.1108C170.967 40.9947 170.815 40.8359 170.704 40.6343C170.593 40.4328 170.537 40.2058 170.536 39.9534C170.535 39.6978 170.59 39.4704 170.699 39.2712C170.809 39.0721 170.96 38.9138 171.152 38.7964C171.347 38.6789 171.57 38.6198 171.819 38.6189C171.986 38.6184 172.142 38.6478 172.288 38.7072C172.433 38.7667 172.561 38.8467 172.672 38.9473C172.783 39.0479 172.864 39.1659 172.915 39.3014L172.522 39.4921C172.462 39.3598 172.37 39.2528 172.247 39.1712C172.123 39.0865 171.981 39.0444 171.82 39.0449C171.666 39.0454 171.526 39.0854 171.4 39.1647C171.277 39.244 171.179 39.3516 171.107 39.4875C171.035 39.6235 170.999 39.7798 171 39.9565C171.001 40.1269 171.037 40.2814 171.11 40.42C171.183 40.5554 171.282 40.6623 171.405 40.7408C171.532 40.8192 171.672 40.8582 171.827 40.8577C171.988 40.8571 172.129 40.8156 172.252 40.7331C172.375 40.6475 172.466 40.5352 172.526 40.3961L172.919 40.5936C172.869 40.7263 172.789 40.8449 172.679 40.9494C172.569 41.0507 172.441 41.1316 172.296 41.1921C172.151 41.2525 171.995 41.2831 171.828 41.2836ZM174.533 41.2459C174.284 41.2468 174.091 41.1764 173.955 41.0349C173.822 40.8934 173.755 40.6932 173.754 40.4345L173.749 39.0903L173.286 39.0919L173.284 38.6707L173.379 38.6703C173.492 38.67 173.582 38.6349 173.648 38.5653C173.714 38.4956 173.747 38.404 173.747 38.2904L173.746 38.0822L174.186 38.0807L174.188 38.6676L174.761 38.6656L174.762 39.0868L174.19 39.0888L174.194 40.4188C174.195 40.504 174.207 40.5781 174.233 40.6411C174.261 40.7041 174.307 40.7544 174.371 40.7921C174.434 40.8266 174.518 40.8436 174.622 40.8433C174.644 40.8432 174.671 40.8415 174.702 40.8383C174.737 40.835 174.768 40.8317 174.797 40.8285L174.798 41.2166C174.757 41.2262 174.711 41.2327 174.661 41.236C174.61 41.2425 174.568 41.2458 174.533 41.2459ZM176.332 42.2526C176.275 42.2528 176.218 42.2482 176.162 42.2389C176.105 42.2328 176.051 42.2188 176.001 42.1969L175.999 41.8041C176.034 41.8071 176.077 41.8133 176.127 41.8226C176.181 41.8318 176.233 41.8364 176.283 41.8362C176.432 41.8357 176.543 41.8022 176.619 41.7357C176.698 41.6691 176.771 41.5569 176.84 41.3988L177 41.0149L176.992 41.3983L175.894 38.6617L176.372 38.66L177.226 40.8343L177.084 40.8348L177.919 38.6547L178.407 38.653L177.267 41.511C177.213 41.6468 177.144 41.7717 177.06 41.8856C176.978 41.9995 176.877 42.0882 176.758 42.1517C176.638 42.2184 176.496 42.252 176.332 42.2526ZM179.973 41.2555C179.727 41.2564 179.504 41.2003 179.305 41.0874C179.106 40.9714 178.947 40.8126 178.83 40.611C178.713 40.4095 178.653 40.1809 178.653 39.9253C178.652 39.6697 178.708 39.4424 178.821 39.2432C178.937 39.044 179.094 38.8857 179.292 38.7682C179.491 38.6508 179.714 38.5917 179.964 38.5908C180.21 38.59 180.433 38.6476 180.632 38.7636C180.831 38.8765 180.988 39.0322 181.102 39.2306C181.219 39.429 181.278 39.6575 181.279 39.9163C181.28 40.175 181.221 40.4055 181.102 40.6079C180.983 40.8071 180.824 40.9654 180.626 41.0829C180.43 41.1971 180.213 41.2547 179.973 41.2555ZM179.971 40.8295C180.129 40.829 180.271 40.7891 180.397 40.7097C180.526 40.6304 180.627 40.5212 180.699 40.3821C180.774 40.243 180.811 40.0883 180.811 39.9179C180.81 39.7443 180.772 39.5914 180.696 39.4592C180.623 39.3237 180.521 39.2168 180.392 39.1384C180.265 39.0568 180.123 39.0162 179.965 39.0168C179.804 39.0173 179.659 39.0589 179.53 39.1413C179.404 39.2207 179.304 39.3283 179.228 39.4642C179.153 39.597 179.116 39.7502 179.116 39.9237C179.117 40.0941 179.155 40.2486 179.232 40.3872C179.308 40.5257 179.409 40.6343 179.536 40.7127C179.665 40.7911 179.811 40.8301 179.971 40.8295ZM182.762 41.2459C182.579 41.2465 182.413 41.2045 182.265 41.1198C182.119 41.0351 182.005 40.9172 181.923 40.766C181.843 40.6117 181.803 40.4351 181.803 40.2363L181.797 38.6413L182.237 38.6398L182.243 40.1875C182.243 40.3137 182.269 40.424 182.319 40.5185C182.373 40.613 182.446 40.6869 182.538 40.7402C182.633 40.7935 182.74 40.82 182.86 40.8196C182.98 40.8191 183.086 40.792 183.177 40.738C183.271 40.684 183.344 40.6065 183.394 40.5053C183.447 40.4042 183.473 40.2842 183.473 40.1453L183.468 38.6355L183.913 38.634L183.921 41.1851L183.491 41.1866L183.489 40.6896L183.56 40.7319C183.501 40.8931 183.399 41.0196 183.254 41.1116C183.112 41.2005 182.948 41.2452 182.762 41.2459ZM184.603 41.1827L184.595 38.6316L185.025 38.6301L185.027 39.0987L184.979 39.0326C185.039 38.8872 185.13 38.7796 185.253 38.7098C185.376 38.6368 185.525 38.6 185.702 38.5994L185.858 38.5988L185.86 39.0154L185.637 39.0161C185.457 39.0167 185.312 39.074 185.202 39.188C185.092 39.2988 185.038 39.4568 185.038 39.6619L185.044 41.1812L184.603 41.1827ZM188.113 41.199C187.864 41.1999 187.671 41.1295 187.535 40.988C187.402 40.8465 187.335 40.6463 187.334 40.3876L187.329 39.0434L186.865 39.045L186.864 38.6238L186.959 38.6234C187.072 38.6231 187.162 38.588 187.228 38.5184C187.294 38.4487 187.327 38.3571 187.326 38.2435L187.326 38.0353L187.766 38.0338L187.768 38.6206L188.341 38.6187L188.342 39.0399L187.769 39.0419L187.774 40.3719C187.774 40.4571 187.787 40.5312 187.813 40.5942C187.841 40.6572 187.887 40.7075 187.95 40.7452C188.014 40.7797 188.097 40.7967 188.201 40.7964C188.223 40.7963 188.25 40.7946 188.282 40.7914C188.317 40.7881 188.348 40.7848 188.376 40.7816L188.378 41.1697C188.337 41.1793 188.291 41.1858 188.241 41.1891C188.19 41.1956 188.148 41.1989 188.113 41.199ZM188.953 41.1677L188.944 38.6166L189.384 38.6151L189.393 41.1662L188.953 41.1677ZM188.943 38.2095L188.941 37.6416L189.381 37.6401L189.383 38.208L188.943 38.2095ZM190.076 41.1638L190.067 38.6127L190.498 38.6112L190.5 39.1319L190.438 39.0516C190.5 38.8905 190.601 38.7671 190.74 38.6814C190.878 38.5957 191.034 38.5526 191.208 38.552C191.406 38.5513 191.585 38.6059 191.743 38.7158C191.904 38.8257 192.015 38.9704 192.076 39.1501L191.953 39.1552C192.018 38.9562 192.13 38.806 192.287 38.7044C192.445 38.5998 192.62 38.5471 192.812 38.5464C192.989 38.5458 193.148 38.5863 193.291 38.6678C193.436 38.7494 193.552 38.8626 193.637 39.0074C193.723 39.1523 193.766 39.3162 193.767 39.4992L193.772 41.151L193.328 41.1526L193.322 39.6427C193.322 39.5008 193.296 39.3809 193.245 39.2833C193.195 39.1857 193.125 39.1102 193.036 39.0568C192.951 39.0003 192.85 38.9723 192.733 38.9727C192.62 38.9731 192.517 39.0018 192.426 39.0589C192.338 39.1129 192.267 39.1904 192.214 39.2916C192.163 39.3896 192.139 39.508 192.139 39.6468L192.144 41.1567L191.699 41.1582L191.694 39.6484C191.694 39.5064 191.668 39.3866 191.617 39.2889C191.566 39.1913 191.497 39.1158 191.408 39.0625C191.323 39.006 191.222 38.9779 191.105 38.9783C190.991 38.9787 190.889 39.0074 190.798 39.0646C190.709 39.1185 190.639 39.1961 190.585 39.2972C190.535 39.3952 190.51 39.5136 190.511 39.6525L190.516 41.1623L190.076 41.1638ZM195.572 41.2016C195.326 41.2025 195.106 41.1449 194.913 41.0288C194.72 40.9127 194.568 40.7539 194.457 40.5523C194.346 40.3476 194.29 40.119 194.289 39.8666C194.288 39.611 194.341 39.3836 194.448 39.1845C194.557 38.9853 194.705 38.8286 194.891 38.7144C195.08 38.597 195.291 38.5379 195.525 38.5371C195.714 38.5364 195.881 38.5705 196.027 38.6395C196.175 38.7052 196.3 38.7963 196.401 38.9127C196.506 39.0259 196.585 39.1566 196.639 39.3047C196.697 39.4497 196.726 39.601 196.726 39.7588C196.726 39.7935 196.723 39.8329 196.717 39.8771C196.714 39.9182 196.71 39.9576 196.703 39.9955L194.611 40.0027L194.61 39.6241L196.447 39.6178L196.239 39.7889C196.267 39.6247 196.25 39.478 196.19 39.3489C196.13 39.2197 196.041 39.1174 195.924 39.0421C195.807 38.9668 195.674 38.9294 195.526 38.9299C195.378 38.9304 195.242 38.9688 195.119 39.0449C194.996 39.1211 194.901 39.2302 194.832 39.3725C194.766 39.5115 194.74 39.6773 194.753 39.8697C194.741 40.0559 194.77 40.2199 194.84 40.3617C194.913 40.5003 195.014 40.6088 195.144 40.6872C195.277 40.7625 195.42 40.7998 195.575 40.7993C195.745 40.7987 195.889 40.7588 196.005 40.6795C196.122 40.6002 196.216 40.4989 196.288 40.3756L196.658 40.5636C196.608 40.6806 196.529 40.7881 196.422 40.8863C196.319 40.9813 196.194 41.0575 196.049 41.1148C195.908 41.1721 195.748 41.201 195.572 41.2016Z" fill="#90A3BF"/>
<path d="M208.817 40.1476C208.656 40.1482 208.494 40.0866 208.372 39.9651L206.867 38.4701C206.8 38.4037 206.799 38.2932 206.866 38.2263C206.932 38.1593 207.043 38.1589 207.11 38.2254L208.615 39.7203C208.726 39.8304 208.905 39.8298 209.015 39.719L210.51 38.2137C210.577 38.1467 210.687 38.1463 210.754 38.2128C210.821 38.2793 210.821 38.3898 210.755 38.4567L209.26 39.962C209.138 40.0844 208.978 40.147 208.817 40.1476Z" fill="#1A202C" stroke="#1A202C" stroke-width="0.197211"/>
</g>
<defs>
<clipPath id="clip0_20_6375">
<rect x="0.820312" y="1.10809" width="229.553" height="52.0636" rx="3.94421" transform="rotate(-0.197882 0.820312 1.10809)" fill="white"/>
</clipPath>
</defs>
</svg>
