<svg width="102" height="11" viewBox="0 0 102 11" fill="none" xmlns="http://www.w3.org/2000/svg">
<path d="M9.45621 4.41095L8.66601 4.01925C8.51983 3.94876 8.33859 4.00461 8.2681 4.15079C8.19367 4.30092 8.25345 4.47821 8.39963 4.5487L9.02783 4.85812L9.03436 6.74739L7.5553 6.75644L7.54132 2.7097C7.5386 1.92087 7.00872 1.52827 6.35398 1.53053L3.19863 1.54143C2.54389 1.54369 2.01673 1.93994 2.01946 2.72878L2.04159 9.13808L1.44997 9.14013C1.28825 9.14069 1.15462 9.27525 1.15517 9.43696C1.15573 9.59867 1.2903 9.73231 1.45201 9.73176L8.15713 9.7086C8.31884 9.70804 8.45248 9.57347 8.45192 9.41176C8.45137 9.25005 8.3168 9.11641 8.15509 9.11697L7.56346 9.11901L7.55734 7.34807L9.33221 7.338C9.49787 7.33743 9.62757 7.20287 9.62701 7.04116L9.61883 4.67465C9.61845 4.56421 9.55499 4.46188 9.45621 4.41095ZM3.00808 3.47082C3.00619 2.92258 3.34076 2.72421 3.75096 2.7228L5.81377 2.71567C6.22002 2.71427 6.55596 2.91032 6.55785 3.45856L6.55953 3.9437C6.56141 4.488 6.22683 4.68636 5.81664 4.68778L3.75777 4.69489C3.34757 4.69631 3.01164 4.50026 3.00974 3.95201L3.00808 3.47082ZM3.21259 5.58423L4.39585 5.58014C4.55756 5.57958 4.69213 5.71322 4.69268 5.87493C4.69324 6.03664 4.5596 6.17121 4.39789 6.17177L3.21463 6.17586C3.05292 6.17641 2.91836 6.04277 2.9178 5.88106C2.91724 5.71935 3.05088 5.58479 3.21259 5.58423Z" fill="#90A3BF"/>
<path d="M12.9141 7.71907L14.7071 4.0684L12.6917 4.07536L12.69 3.60601L15.2743 3.59708L15.2759 4.06644L13.4994 7.71705L12.9141 7.71907ZM17.5187 7.76943C17.1911 7.77056 16.9037 7.6832 16.6564 7.50736C16.4128 7.32781 16.2224 7.07999 16.0851 6.76387C15.9478 6.44407 15.8784 6.0725 15.8769 5.64916C15.8754 5.22581 15.9423 4.85561 16.0774 4.53856C16.2125 4.21782 16.4012 3.96868 16.6436 3.79114C16.8859 3.6136 17.1709 3.52427 17.4985 3.52314C17.8262 3.522 18.1118 3.60937 18.3553 3.78523C18.5989 3.96109 18.7894 4.20892 18.9267 4.52872C19.0677 4.84482 19.1389 5.21454 19.1403 5.63789C19.1418 6.06123 19.075 6.43327 18.9399 6.75401C18.8048 7.07475 18.6142 7.32389 18.3682 7.50144C18.1258 7.67898 17.8427 7.76831 17.5187 7.76943ZM17.517 7.26694C17.7379 7.26618 17.9291 7.19925 18.0906 7.06617C18.2521 6.92941 18.3766 6.73939 18.4641 6.49612C18.5553 6.25284 18.6003 5.96739 18.5992 5.63976C18.5981 5.31212 18.5511 5.02699 18.4582 4.78434C18.369 4.54169 18.2413 4.35438 18.0752 4.22243C17.9128 4.09046 17.7211 4.02486 17.5003 4.02562C17.2794 4.02639 17.0882 4.09331 16.9267 4.2264C16.7652 4.35948 16.6388 4.54766 16.5476 4.79094C16.4601 5.03421 16.4169 5.31966 16.4181 5.64729C16.4192 5.97124 16.4643 6.25454 16.5535 6.4972C16.6464 6.73984 16.774 6.92899 16.9365 7.06463C17.1026 7.20027 17.2961 7.2677 17.517 7.26694ZM19.9682 7.69471L19.954 3.58092L20.4951 3.57905L20.5076 7.19587L22.3133 7.18963L22.315 7.6866L19.9682 7.69471Z" fill="#90A3BF"/>
<path d="M34.555 1.43328C32.3778 1.4408 30.6169 3.2139 30.6245 5.39109C30.632 7.56828 32.4051 9.32918 34.5823 9.32166C36.7595 9.31414 38.5204 7.54104 38.5128 5.36384C38.5053 3.18665 36.7362 1.42574 34.555 1.43328Z" fill="#90A3BF"/>
<rect x="31.4023" y="2.23291" width="6.31074" height="6.31074" rx="3.15537" transform="rotate(-0.197882 31.4023 2.23291)" fill="white"/>
<path d="M34.5605 3.01087C33.2542 3.01538 32.1976 4.07924 32.2021 5.38556C32.2067 6.69187 33.2705 7.74841 34.5768 7.7439C35.8831 7.73939 36.9397 6.67553 36.9352 5.36921C36.9307 4.06289 35.8692 3.00635 34.5605 3.01087Z" fill="#90A3BF"/>
<rect x="32.9855" y="3.80518" width="3.15537" height="3.15537" rx="1.57769" transform="rotate(-0.197882 32.9855 3.80518)" fill="white"/>
<rect x="34.181" y="7.35083" width="0.788843" height="1.57769" transform="rotate(-0.197882 34.181 7.35083)" fill="#90A3BF"/>
<rect x="36.5393" y="4.9762" width="1.57769" height="0.788843" transform="rotate(-0.197882 36.5393 4.9762)" fill="#90A3BF"/>
<rect x="31.0175" y="4.99524" width="1.57769" height="0.788843" transform="rotate(-0.197882 31.0175 4.99524)" fill="#90A3BF"/>
<path d="M41.3454 7.62093L41.3312 3.50714L41.8282 3.50543L43.3763 5.69229L43.1223 5.69316L44.6443 3.4957L45.1413 3.49398L45.1555 7.60778L44.6088 7.60966L44.597 4.18058L44.7905 4.24066L43.2683 6.39947L43.2242 6.39962L41.7037 4.25132L41.8747 4.18999L41.8865 7.61907L41.3454 7.62093ZM46.8811 7.66808C46.686 7.66875 46.5129 7.63438 46.3617 7.56496C46.2142 7.49184 46.0979 7.39285 46.0128 7.26798C45.9277 7.13943 45.8849 6.99232 45.8843 6.82667C45.8837 6.66837 45.9164 6.52653 45.9822 6.40114C46.0517 6.27205 46.1581 6.16309 46.3013 6.07424C46.4483 5.98538 46.6321 5.92217 46.8529 5.88459L47.9566 5.69856L47.9581 6.12926L46.9703 6.29833C46.779 6.33212 46.6393 6.39335 46.5512 6.482C46.4669 6.57064 46.4249 6.67939 46.4254 6.80823C46.4258 6.92971 46.474 7.03078 46.57 7.11144C46.6697 7.19208 46.7931 7.23215 46.9404 7.23164C47.1281 7.23099 47.29 7.19178 47.4259 7.114C47.5655 7.03253 47.6737 6.92356 47.7506 6.78709C47.8311 6.6506 47.871 6.49953 47.8705 6.33388L47.8679 5.57738C47.8673 5.41541 47.8061 5.28493 47.6843 5.18596C47.5661 5.08329 47.4095 5.03229 47.2144 5.03297C47.0451 5.03355 46.8943 5.07825 46.7621 5.16705C46.6335 5.25217 46.5382 5.36662 46.4761 5.5104L46.028 5.28003C46.0828 5.14363 46.1707 5.02185 46.2918 4.91467C46.4129 4.80381 46.5543 4.71681 46.7161 4.65367C46.8779 4.59053 47.0471 4.55866 47.2238 4.55805C47.452 4.55726 47.6528 4.60074 47.8261 4.68849C47.9994 4.77256 48.1342 4.89174 48.2305 5.04602C48.3304 5.19661 48.3807 5.37314 48.3814 5.57561L48.3884 7.59661L47.8859 7.59835L47.8839 7.03511L47.9779 7.06792C47.9157 7.18594 47.8314 7.2893 47.725 7.37802C47.6185 7.46674 47.4936 7.53712 47.3502 7.58915C47.2068 7.64118 47.0505 7.66749 46.8811 7.66808ZM49.1846 7.59386L49.1743 4.61757L49.6768 4.61584L49.6788 5.19563L49.5958 5.14622C49.6688 4.95823 49.7861 4.81241 49.9477 4.70878C50.113 4.60145 50.3061 4.5474 50.5269 4.54664C50.7405 4.5459 50.9302 4.5931 51.0962 4.68824C51.2659 4.78337 51.3988 4.91544 51.4951 5.08444C51.5951 5.25344 51.6455 5.44469 51.6462 5.6582L51.6529 7.58533L51.1338 7.58713L51.1277 5.82565C51.1272 5.66 51.0972 5.52021 51.0379 5.4063C50.9786 5.29238 50.8937 5.20432 50.783 5.14212C50.676 5.07623 50.5526 5.04352 50.4127 5.04401C50.2728 5.04449 50.1478 5.07805 50.0376 5.1447C49.931 5.20765 49.8467 5.29813 49.7845 5.41615C49.7223 5.53048 49.6915 5.66864 49.6921 5.83061L49.6981 7.59209L49.1846 7.59386ZM53.4426 7.64542C53.2291 7.64615 53.0357 7.59712 52.8623 7.49833C52.6926 7.39952 52.5596 7.26193 52.4633 7.08556C52.3706 6.9055 52.3239 6.69951 52.3231 6.46759L52.3167 4.60672L52.8302 4.60495L52.8365 6.4106C52.837 6.55785 52.8669 6.68659 52.9261 6.79682C52.9891 6.90704 53.0741 6.99326 53.1811 7.05547C53.2917 7.11767 53.417 7.14853 53.5569 7.14805C53.6967 7.14757 53.82 7.11585 53.9265 7.0529C54.0367 6.98994 54.1211 6.89945 54.1796 6.78145C54.2417 6.66343 54.2726 6.52344 54.272 6.36146L54.2659 4.59999L54.785 4.5982L54.7952 7.57448L54.2928 7.57622L54.2908 6.99642L54.3738 7.04583C54.3045 7.23382 54.1853 7.38148 54.0164 7.48882C53.8511 7.59247 53.6598 7.64467 53.4426 7.64542ZM56.4635 7.63498C56.2684 7.63566 56.0953 7.60128 55.9441 7.53186C55.7966 7.45874 55.6803 7.35975 55.5952 7.23488C55.5101 7.10633 55.4672 6.95923 55.4667 6.79357C55.4661 6.63528 55.4988 6.49343 55.5646 6.36804C55.6341 6.23896 55.7405 6.12999 55.8837 6.04115C56.0307 5.95229 56.2145 5.88907 56.4353 5.8515L57.539 5.66546L57.5405 6.09617L56.5527 6.26524C56.3613 6.29903 56.2217 6.36025 56.1336 6.44891C56.0493 6.53755 56.0073 6.64629 56.0077 6.77514C56.0082 6.89662 56.0564 6.99769 56.1524 7.07834C56.252 7.15899 56.3755 7.19905 56.5227 7.19855C56.7105 7.1979 56.8723 7.15869 57.0083 7.08091C57.1479 6.99944 57.2561 6.89047 57.3329 6.75399C57.4135 6.61751 57.4534 6.46644 57.4529 6.30078L57.4502 5.54429C57.4497 5.38231 57.3885 5.25184 57.2667 5.15286C57.1485 5.05019 56.9919 4.9992 56.7968 4.99987C56.6274 5.00046 56.4767 5.04515 56.3444 5.13396C56.2159 5.21907 56.1206 5.33352 56.0585 5.47731L55.6104 5.24693C55.6652 5.11054 55.7531 4.98875 55.8742 4.88157C55.9953 4.77072 56.1367 4.68372 56.2985 4.62058C56.4602 4.55744 56.6295 4.52556 56.8062 4.52495C57.0344 4.52416 57.2352 4.56765 57.4085 4.6554C57.5818 4.73947 57.7166 4.85865 57.8129 5.01293C57.9128 5.16352 57.9631 5.34004 57.9638 5.54251L57.9708 7.56351L57.4683 7.56525L57.4663 7.00202L57.5603 7.03483C57.4981 7.15284 57.4138 7.25621 57.3074 7.34493C57.2009 7.43365 57.076 7.50402 56.9326 7.55606C56.7892 7.60809 56.6328 7.6344 56.4635 7.63498ZM58.767 7.56076L58.7525 3.38071L59.2661 3.37894L59.2805 7.55899L58.767 7.56076Z" fill="#90A3BF"/>
<path d="M69.6582 1.31201C68.6248 1.31558 67.7876 2.15859 67.7911 3.19197C67.7946 4.20563 68.5903 5.02328 69.6238 5.05521C69.6553 5.05116 69.6868 5.05105 69.7105 5.05491C69.7184 5.05488 69.7224 5.05487 69.7302 5.05484C69.7342 5.05483 69.7342 5.05483 69.7381 5.05482C70.7477 5.01583 71.5377 4.1927 71.5381 3.17903C71.5345 2.14565 70.6915 1.30844 69.6582 1.31201Z" fill="#90A3BF"/>
<path d="M71.6784 6.0973C70.5754 5.36748 68.7808 5.37368 67.675 6.11113C67.1753 6.44812 66.9007 6.90265 66.9024 7.38779C66.9041 7.87292 67.1817 8.32161 67.6799 8.6512C68.2333 9.02005 68.9597 9.20292 69.6854 9.20041C70.4112 9.19791 71.1362 9.01002 71.6871 8.63736C72.183 8.30039 72.4575 7.8498 72.4558 7.36072C72.4502 6.8756 72.1765 6.4269 71.6784 6.0973Z" fill="#90A3BF"/>
<path d="M74.0002 3.40326C74.0659 4.16821 73.5239 4.84061 72.7709 4.93392C72.767 4.93394 72.767 4.93394 72.763 4.93395L72.7512 4.93399C72.7275 4.93407 72.7039 4.93416 72.6842 4.94211C72.3016 4.96315 71.9502 4.8421 71.6852 4.61819C72.0902 4.25392 72.321 3.70882 72.2716 3.11736C72.2429 2.79797 72.1314 2.50648 71.9649 2.25857C72.1146 2.18311 72.2879 2.13518 72.4654 2.1188C73.2382 2.04907 73.9304 2.62254 74.0002 3.40326Z" fill="#90A3BF"/>
<path d="M74.8015 7.04884C74.7713 7.43154 74.5279 7.76369 74.1185 7.98993C73.7248 8.20822 73.2282 8.31249 72.7352 8.30236C73.0182 8.04501 73.1828 7.72495 73.2132 7.38565C73.2509 6.89643 73.0166 6.42787 72.5499 6.05478C72.2849 5.84665 71.9767 5.68206 71.641 5.56095C72.5118 5.30551 73.6089 5.47132 74.2852 6.01329C74.6491 6.30391 74.8357 6.67008 74.8015 7.04884Z" fill="#90A3BF"/>
<path d="M79.6247 7.55499C79.3597 7.5559 79.1239 7.49782 78.9173 7.38073C78.7144 7.26363 78.5537 7.10405 78.4352 6.90199C78.3167 6.69624 78.257 6.46269 78.2561 6.20132C78.2556 6.05775 78.2717 5.91597 78.3044 5.77596C78.337 5.63596 78.3899 5.49405 78.463 5.35023C78.5361 5.2064 78.6295 5.05699 78.7431 4.90198L79.8974 3.37394L80.549 3.37169L79.1362 5.2209L79.0368 5.2102C79.0918 5.13638 79.1523 5.07911 79.2184 5.03839C79.2883 4.99765 79.3618 4.96795 79.439 4.94928C79.5199 4.93059 79.6046 4.9211 79.6929 4.92079C79.9359 4.91995 80.1533 4.97626 80.3451 5.08972C80.5406 5.19948 80.6939 5.35173 80.805 5.54645C80.9198 5.74116 80.9776 5.96552 80.9785 6.21953C80.9794 6.47353 80.9213 6.70197 80.8042 6.90485C80.6871 7.10404 80.5256 7.26289 80.3199 7.38141C80.1178 7.49622 79.8861 7.55408 79.6247 7.55499ZM79.623 7.06906C79.7777 7.06853 79.9156 7.03308 80.0368 6.96272C80.158 6.88867 80.2534 6.78711 80.3229 6.65802C80.3961 6.52893 80.4324 6.38523 80.4319 6.22694C80.4313 6.06128 80.3958 5.91783 80.3255 5.79659C80.2551 5.67167 80.159 5.57261 80.0373 5.4994C79.9156 5.4262 79.7755 5.38987 79.6172 5.39042C79.4626 5.39095 79.3229 5.42825 79.198 5.5023C79.0731 5.57636 78.9758 5.67609 78.9063 5.80149C78.8368 5.92322 78.8023 6.06691 78.8029 6.23256C78.8035 6.39086 78.8389 6.5343 78.9093 6.66291C78.9834 6.79149 79.0813 6.89239 79.203 6.9656C79.3284 7.03511 79.4684 7.0696 79.623 7.06906ZM82.6808 7.47817L82.6665 3.36438L84.1188 3.35936C84.3912 3.35842 84.6307 3.40913 84.8372 3.5115C85.0437 3.61386 85.2043 3.76056 85.3191 3.95159C85.4376 4.1426 85.4972 4.36696 85.4981 4.62464C85.499 4.88233 85.4409 5.10709 85.3238 5.29892C85.2103 5.48706 85.0507 5.63486 84.8449 5.74233C84.6428 5.8461 84.4037 5.89847 84.1276 5.89942L83.2165 5.90257L83.2219 7.4763L82.6808 7.47817ZM83.2147 5.4056L84.1424 5.4024C84.3081 5.40182 84.4515 5.37004 84.5728 5.30704C84.6941 5.24404 84.7876 5.15352 84.8535 5.03549C84.9193 4.91746 84.952 4.78114 84.9515 4.62653C84.9509 4.46824 84.9173 4.33215 84.8507 4.21826C84.784 4.10069 84.6898 4.01082 84.5681 3.94866C84.4464 3.8865 84.3027 3.8557 84.1371 3.85627L83.2094 3.85948L83.2147 5.4056ZM87.4408 7.52799C87.1537 7.52898 86.8976 7.46176 86.6726 7.32633C86.4476 7.1909 86.2702 7.00561 86.1406 6.77046C86.0109 6.53162 85.9455 6.26495 85.9445 5.97045C85.9435 5.67227 86.0052 5.40701 86.1295 5.17466C86.2576 4.94229 86.43 4.75947 86.6467 4.6262C86.8671 4.48923 87.1135 4.42028 87.3859 4.41933C87.6068 4.41857 87.802 4.45839 87.9717 4.53879C88.1449 4.6155 88.2907 4.72176 88.409 4.85756C88.5309 4.98966 88.6235 5.14211 88.6867 5.31492C88.7535 5.48403 88.7873 5.66061 88.7879 5.84467C88.788 5.88517 88.7845 5.93119 88.7773 5.98276C88.7738 6.03063 88.7684 6.07666 88.7612 6.12086L86.3206 6.12929L86.319 5.68754L88.4615 5.68014L88.2193 5.87977C88.2517 5.68823 88.2327 5.51711 88.1623 5.36643C88.0918 5.21574 87.9883 5.09645 87.8518 5.00857C87.7153 4.92069 87.5605 4.87705 87.3875 4.87765C87.2145 4.87825 87.0563 4.92297 86.9131 5.01181C86.7698 5.10066 86.658 5.22805 86.5776 5.39399C86.5008 5.55623 86.4702 5.7496 86.4857 5.97411C86.4717 6.19135 86.5055 6.38266 86.5871 6.54804C86.6723 6.70972 86.7905 6.83632 86.9418 6.92783C87.0967 7.01564 87.2644 7.05924 87.4447 7.05861C87.6435 7.05793 87.8109 7.01133 87.9467 6.91883C88.0826 6.82633 88.1927 6.70815 88.2768 6.56429L88.7083 6.78368C88.6499 6.92009 88.5583 7.04557 88.4335 7.16012C88.3124 7.27097 88.1673 7.35983 87.9982 7.42667C87.8328 7.49351 87.647 7.52728 87.4408 7.52799ZM90.8769 7.51613C90.5897 7.51712 90.33 7.45175 90.0976 7.32003C89.8652 7.18462 89.6805 6.99936 89.5435 6.76423C89.4065 6.5291 89.3374 6.26244 89.3364 5.96426C89.3354 5.66608 89.4007 5.4008 89.5324 5.16843C89.6678 4.93604 89.8513 4.75134 90.0827 4.61433C90.3142 4.47733 90.5753 4.40832 90.8661 4.40732C91.1533 4.40632 91.413 4.47353 91.6454 4.60894C91.8778 4.74066 92.0606 4.92225 92.194 5.15371C92.331 5.38516 92.4 5.65181 92.401 5.95368C92.4021 6.25554 92.3331 6.52451 92.194 6.76059C92.0549 6.993 91.8696 7.1777 91.6382 7.31471C91.4104 7.44802 91.1566 7.51516 90.8769 7.51613ZM90.8751 7.01916C91.0592 7.01852 91.2247 6.97193 91.3716 6.87939C91.5222 6.78684 91.6396 6.65943 91.7237 6.49717C91.8115 6.33489 91.8551 6.15435 91.8544 5.95556C91.8537 5.7531 91.8089 5.57471 91.72 5.4204C91.6348 5.2624 91.5166 5.13764 91.3653 5.04613C91.2177 4.95093 91.0519 4.90365 90.8678 4.90428C90.6801 4.90493 90.5109 4.95337 90.3603 5.04961C90.2134 5.14215 90.096 5.26771 90.0082 5.42631C89.9204 5.58123 89.8768 5.75992 89.8775 5.96239C89.8782 6.16118 89.923 6.34141 90.0119 6.50308C90.1008 6.66475 90.2191 6.79134 90.3667 6.88287C90.5179 6.97438 90.6874 7.01981 90.8751 7.01916ZM93.0798 8.54664L93.0657 4.46598L93.5682 4.46425L93.5704 5.10478L93.5037 4.97801C93.6135 4.80093 93.764 4.66052 93.955 4.55678C94.1461 4.44937 94.3649 4.39523 94.6116 4.39438C94.8914 4.39341 95.1419 4.46065 95.3633 4.59609C95.5883 4.73153 95.7656 4.91682 95.8953 5.15197C96.0249 5.38345 96.0903 5.64827 96.0913 5.94645C96.0923 6.23727 96.0288 6.5007 95.9008 6.73675C95.7727 6.97279 95.5967 7.15931 95.3726 7.29629C95.1522 7.43326 94.9003 7.50223 94.6168 7.50321C94.3775 7.50404 94.1583 7.45141 93.9591 7.34534C93.7637 7.23926 93.6122 7.08885 93.5048 6.89411L93.5873 6.80548L93.5933 8.54487L93.0798 8.54664ZM94.5764 7.00637C94.7642 7.00573 94.9315 6.95913 95.0784 6.86659C95.2254 6.77405 95.3391 6.6485 95.4195 6.48992C95.5036 6.32766 95.5453 6.14713 95.5446 5.94834C95.5439 5.74219 95.501 5.56196 95.4158 5.40764C95.3342 5.24962 95.2197 5.12486 95.0721 5.03333C94.9245 4.93813 94.7569 4.89085 94.5691 4.8915C94.3814 4.89215 94.2122 4.93875 94.0616 5.0313C93.9147 5.12384 93.7973 5.25125 93.7095 5.41353C93.6254 5.57212 93.5837 5.75264 93.5844 5.95511C93.5851 6.1539 93.628 6.33413 93.7132 6.49582C93.8021 6.6538 93.9204 6.77856 94.0679 6.87008C94.2192 6.96159 94.3887 7.00702 94.5764 7.00637ZM96.7698 7.42951L96.7554 3.24946L97.2689 3.24768L97.2833 7.42774L96.7698 7.42951ZM99.4498 7.48652C99.1627 7.48751 98.9066 7.42029 98.6816 7.28486C98.4565 7.14943 98.2792 6.96414 98.1495 6.72898C98.0199 6.49015 97.9545 6.22348 97.9535 5.92898C97.9525 5.6308 98.0141 5.36553 98.1385 5.13318C98.2666 4.90082 98.4389 4.718 98.6557 4.58472C98.8761 4.44775 99.1225 4.3788 99.3949 4.37786C99.6158 4.3771 99.811 4.41692 99.9806 4.49732C100.154 4.57403 100.3 4.68028 100.418 4.81608C100.54 4.94819 100.632 5.10064 100.696 5.27344C100.762 5.44255 100.796 5.61914 100.797 5.8032C100.797 5.84369 100.793 5.88972 100.786 5.94128C100.783 5.98915 100.777 6.03519 100.77 6.07939L98.3296 6.08782L98.328 5.64607L100.471 5.63867L100.228 5.83829C100.261 5.64675 100.242 5.47564 100.171 5.32495C100.101 5.17426 99.9973 5.05498 99.8608 4.9671C99.7243 4.87922 99.5695 4.83558 99.3965 4.83617C99.2235 4.83677 99.0653 4.88149 98.9221 4.97034C98.7788 5.05918 98.667 5.18658 98.5865 5.35251C98.5098 5.51475 98.4792 5.70813 98.4947 5.93263C98.4807 6.14988 98.5145 6.34119 98.5961 6.50656C98.6813 6.66824 98.7995 6.79484 98.9508 6.88635C99.1057 6.97417 99.2733 7.01776 99.4537 7.01714C99.6525 7.01645 99.8198 6.96986 99.9557 6.87736C100.092 6.78486 100.202 6.66667 100.286 6.52281L100.717 6.7422C100.659 6.87861 100.567 7.00409 100.442 7.11864C100.321 7.2295 100.176 7.31835 100.007 7.3852C99.8418 7.45203 99.656 7.4858 99.4498 7.48652Z" fill="#90A3BF"/>
</svg>
