<svg width="102" height="10" viewBox="0 0 102 10" fill="none" xmlns="http://www.w3.org/2000/svg">
<path d="M9.32175 4.0542L8.53155 3.6625C8.38537 3.59201 8.20413 3.64785 8.13364 3.79403C8.05921 3.94417 8.11899 4.12146 8.26517 4.19195L8.89337 4.50137L8.8999 6.39064L7.42084 6.39969L7.40686 2.35295C7.40414 1.56412 6.87426 1.17152 6.21952 1.17378L3.06417 1.18468C2.40943 1.18694 1.88227 1.58319 1.885 2.37203L1.90713 8.78133L1.31551 8.78338C1.15379 8.78394 1.02015 8.9185 1.02071 9.08021C1.02127 9.24192 1.15584 9.37556 1.31755 9.37501L8.02267 9.35185C8.18438 9.35129 8.31802 9.21672 8.31746 9.05501C8.3169 8.8933 8.18234 8.75966 8.02063 8.76022L7.429 8.76226L7.42288 6.99132L9.19775 6.98125C9.36341 6.98068 9.49311 6.84612 9.49255 6.68441L9.48437 4.3179C9.48399 4.20746 9.42053 4.10513 9.32175 4.0542ZM2.87362 3.11407C2.87173 2.56583 3.2063 2.36746 3.6165 2.36605L5.67931 2.35892C6.08556 2.35752 6.4215 2.55357 6.42339 3.10181L6.42507 3.58695C6.42695 4.13125 6.09237 4.32961 5.68218 4.33103L3.62331 4.33814C3.21311 4.33956 2.87718 4.14351 2.87528 3.59526L2.87362 3.11407ZM3.07813 5.22748L4.26139 5.22339C4.4231 5.22283 4.55767 5.35647 4.55822 5.51818C4.55878 5.67989 4.42514 5.81446 4.26343 5.81502L3.08017 5.8191C2.91846 5.81966 2.7839 5.68602 2.78334 5.52431C2.78278 5.3626 2.91642 5.22803 3.07813 5.22748Z" fill="#90A3BF"/>
<path d="M14.0941 7.42404C13.818 7.425 13.573 7.37062 13.3591 7.26092C13.1489 7.15121 12.9828 7.00269 12.8606 6.81537C12.7422 6.62435 12.6825 6.41104 12.6817 6.17544C12.6808 5.91039 12.7536 5.67822 12.9002 5.47893C13.0467 5.27963 13.2487 5.1372 13.5061 5.05164L13.4956 5.18973C13.3002 5.1131 13.147 4.9903 13.036 4.82135C12.9286 4.6487 12.8746 4.46298 12.8739 4.26419C12.8732 4.05436 12.9241 3.86828 13.0266 3.70595C13.1328 3.54361 13.2759 3.41611 13.456 3.32345C13.6397 3.2271 13.8475 3.17853 14.0794 3.17773C14.3114 3.17693 14.5177 3.22223 14.6984 3.31364C14.8791 3.40505 15.0212 3.5334 15.1249 3.6987C15.2322 3.86031 15.2862 4.04603 15.287 4.25586C15.2877 4.46569 15.2313 4.65363 15.1177 4.81968C15.0079 4.98572 14.861 5.10955 14.6772 5.19117L14.6602 5.04766C14.9218 5.13142 15.1267 5.27429 15.2746 5.47625C15.4225 5.67453 15.497 5.90435 15.4979 6.16572C15.4987 6.40132 15.4387 6.61504 15.3179 6.80688C15.2007 6.99503 15.0356 7.1447 14.8224 7.25587C14.613 7.36703 14.3702 7.42309 14.0941 7.42404ZM14.0925 6.95469C14.2655 6.95409 14.4163 6.92044 14.5449 6.85373C14.6736 6.78702 14.7726 6.69465 14.8422 6.5766C14.9154 6.45487 14.9517 6.3167 14.9512 6.16208C14.9506 6.00379 14.9133 5.86587 14.8393 5.74832C14.7689 5.62709 14.6692 5.5354 14.5402 5.47326C14.4111 5.40744 14.2601 5.37483 14.087 5.37543C13.914 5.37603 13.7614 5.40969 13.6291 5.47641C13.5004 5.53943 13.4014 5.63181 13.3318 5.75353C13.2623 5.87157 13.2278 6.00974 13.2284 6.16803C13.2289 6.32265 13.2643 6.46057 13.3347 6.58181C13.4051 6.69937 13.5048 6.79106 13.6338 6.85687C13.7666 6.92268 13.9195 6.95528 14.0925 6.95469ZM14.0854 4.90607C14.2106 4.90564 14.3209 4.87765 14.4164 4.8221C14.5156 4.76654 14.5945 4.69264 14.6531 4.60041C14.7117 4.50449 14.7408 4.39395 14.7403 4.26879C14.7399 4.14363 14.7101 4.03513 14.6509 3.9433C14.5916 3.85148 14.5122 3.77997 14.4127 3.72877C14.3168 3.67388 14.2062 3.64666 14.0811 3.64709C13.9522 3.64753 13.8382 3.67554 13.739 3.7311C13.6398 3.78298 13.5609 3.85504 13.5023 3.94727C13.4437 4.03951 13.4146 4.1482 13.4151 4.27337C13.4155 4.39853 13.4453 4.50886 13.5046 4.60437C13.5638 4.6962 13.6432 4.76955 13.7428 4.82443C13.8424 4.8793 13.9566 4.90652 14.0854 4.90607ZM17.8319 7.41113C17.5043 7.41227 17.2168 7.32491 16.9696 7.14906C16.726 6.96952 16.5355 6.72169 16.3982 6.40557C16.2609 6.08577 16.1915 5.7142 16.1901 5.29086C16.1886 4.86752 16.2554 4.49732 16.3906 4.18026C16.5257 3.85952 16.7144 3.61038 16.9567 3.43284C17.1991 3.25531 17.4841 3.16597 17.8117 3.16484C18.1393 3.16371 18.4249 3.25107 18.6685 3.42693C18.9121 3.60279 19.1025 3.85062 19.2398 4.17042C19.3808 4.48652 19.452 4.85625 19.4535 5.27959C19.455 5.70293 19.3882 6.07497 19.2531 6.39571C19.118 6.71645 18.9274 6.9656 18.6814 7.14315C18.439 7.32069 18.1558 7.41002 17.8319 7.41113ZM17.8302 6.90864C18.051 6.90788 18.2422 6.84096 18.4038 6.70787C18.5653 6.57111 18.6898 6.38109 18.7773 6.13783C18.8685 5.89455 18.9135 5.60909 18.9124 5.28146C18.9112 4.95383 18.8642 4.66869 18.7714 4.42605C18.6822 4.18339 18.5545 3.99608 18.3884 3.86413C18.226 3.73217 18.0343 3.66657 17.8134 3.66733C17.5926 3.66809 17.4014 3.73501 17.2399 3.8681C17.0783 4.00118 16.952 4.18937 16.8608 4.43265C16.7733 4.67591 16.7301 4.96136 16.7312 5.28899C16.7323 5.61294 16.7775 5.89624 16.8667 6.1389C16.9596 6.38155 17.0872 6.57069 17.2497 6.70634C17.4158 6.84197 17.6093 6.90941 17.8302 6.90864ZM20.2814 7.33641L20.2671 3.22262L20.8083 3.22075L20.8208 6.83757L22.6264 6.83134L22.6281 7.32831L20.2814 7.33641Z" fill="#90A3BF"/>
<path d="M34.4204 1.07634C32.2433 1.08386 30.4824 2.85696 30.4899 5.03416C30.4974 7.21135 32.2705 8.97224 34.4477 8.96472C36.6249 8.9572 38.3858 7.1841 38.3783 5.00691C38.3707 2.82972 36.6016 1.06881 34.4204 1.07634Z" fill="#90A3BF"/>
<rect x="31.2679" y="1.8761" width="6.31074" height="6.31074" rx="3.15537" transform="rotate(-0.197882 31.2679 1.8761)" fill="white"/>
<path d="M34.4259 2.654C33.1196 2.65851 32.063 3.72237 32.0676 5.02868C32.0721 6.335 33.1359 7.39154 34.4422 7.38702C35.7486 7.38251 36.8051 6.31865 36.8006 5.01234C36.7961 3.70602 35.7346 2.64948 34.4259 2.654Z" fill="#90A3BF"/>
<rect x="32.851" y="3.44824" width="3.15537" height="3.15537" rx="1.57769" transform="rotate(-0.197882 32.851 3.44824)" fill="white"/>
<rect x="34.0464" y="6.99402" width="0.788843" height="1.57769" transform="rotate(-0.197882 34.0464 6.99402)" fill="#90A3BF"/>
<rect x="36.4048" y="4.61926" width="1.57769" height="0.788843" transform="rotate(-0.197882 36.4048 4.61926)" fill="#90A3BF"/>
<rect x="30.883" y="4.63837" width="1.57769" height="0.788843" transform="rotate(-0.197882 30.883 4.63837)" fill="#90A3BF"/>
<path d="M41.2109 7.26412L41.1967 3.15033L41.6937 3.14862L43.2419 5.33548L42.9879 5.33635L44.5099 3.13889L45.0068 3.13717L45.021 7.25096L44.4744 7.25285L44.4625 3.82377L44.656 3.88385L43.1339 6.04266L43.0897 6.04281L41.5693 3.89451L41.7402 3.83317L41.7521 7.26225L41.2109 7.26412ZM46.7467 7.31127C46.5516 7.31194 46.3784 7.27757 46.2273 7.20814C46.0798 7.13503 45.9634 7.03603 45.8783 6.91116C45.7932 6.78261 45.7504 6.63551 45.7498 6.46985C45.7493 6.31156 45.7819 6.16972 45.8477 6.04433C45.9172 5.91524 46.0236 5.80628 46.1669 5.71743C46.3138 5.62857 46.4977 5.56536 46.7184 5.52778L47.8222 5.34174L47.8237 5.77245L46.8358 5.94152C46.6445 5.97531 46.5048 6.03654 46.4168 6.12519C46.3324 6.21383 46.2905 6.32258 46.2909 6.45142C46.2913 6.5729 46.3395 6.67397 46.4355 6.75463C46.5352 6.83527 46.6587 6.87534 46.8059 6.87483C46.9936 6.87418 47.1555 6.83497 47.2914 6.75719C47.431 6.67572 47.5393 6.56675 47.6161 6.43028C47.6966 6.29379 47.7366 6.14272 47.736 5.97706L47.7334 5.22057C47.7328 5.05859 47.6716 4.92812 47.5498 4.82915C47.4317 4.72648 47.275 4.67548 47.0799 4.67615C46.9106 4.67674 46.7598 4.72144 46.6276 4.81024C46.499 4.89536 46.4037 5.00981 46.3416 5.15359L45.8936 4.92322C45.9483 4.78682 46.0362 4.66503 46.1574 4.55786C46.2785 4.447 46.4199 4.36 46.5816 4.29686C46.7434 4.23372 46.9126 4.20185 47.0893 4.20124C47.3176 4.20045 47.5184 4.24393 47.6917 4.33168C47.865 4.41575 47.9998 4.53493 48.096 4.68921C48.1959 4.8398 48.2462 5.01633 48.2469 5.2188L48.2539 7.2398L47.7514 7.24153L47.7495 6.6783L47.8435 6.71111C47.7813 6.82913 47.697 6.93249 47.5905 7.02121C47.4841 7.10993 47.3592 7.18031 47.2158 7.23234C47.0724 7.28437 46.916 7.31068 46.7467 7.31127ZM49.0501 7.23705L49.0399 4.26076L49.5424 4.25903L49.5444 4.83882L49.4614 4.78941C49.5343 4.60141 49.6516 4.4556 49.8132 4.35196C49.9785 4.24464 50.1716 4.19059 50.3925 4.18983C50.606 4.18909 50.7958 4.23629 50.9617 4.33143C51.1314 4.42656 51.2644 4.55863 51.3607 4.72763C51.4607 4.89663 51.511 5.08788 51.5118 5.30139L51.5184 7.22852L50.9994 7.23032L50.9933 5.46884C50.9927 5.30318 50.9628 5.1634 50.9035 5.04948C50.8442 4.93557 50.7592 4.84751 50.6486 4.78531C50.5416 4.71942 50.4181 4.68671 50.2782 4.6872C50.1384 4.68768 50.0133 4.72124 49.9031 4.78789C49.7966 4.85084 49.7122 4.94132 49.65 5.05934C49.5878 5.17367 49.557 5.31182 49.5576 5.4738L49.5637 7.23527L49.0501 7.23705ZM53.3082 7.28861C53.0946 7.28934 52.9012 7.24031 52.7278 7.14152C52.5582 7.04271 52.4252 6.90512 52.3288 6.72875C52.2362 6.54869 52.1895 6.3427 52.1887 6.11078L52.1822 4.24991L52.6958 4.24814L52.702 6.05379C52.7025 6.20104 52.7324 6.32978 52.7917 6.44001C52.8547 6.55023 52.9396 6.63645 53.0466 6.69866C53.1572 6.76086 53.2825 6.79172 53.4224 6.79124C53.5623 6.79075 53.6855 6.75904 53.792 6.69609C53.9023 6.63312 53.9866 6.54264 54.0451 6.42464C54.1073 6.30662 54.1381 6.16663 54.1375 6.00465L54.1315 4.24318L54.6505 4.24138L54.6608 7.21767L54.1583 7.21941L54.1563 6.63961L54.2393 6.68902C54.17 6.87701 54.0509 7.02467 53.8819 7.13201C53.7166 7.23566 53.5254 7.28786 53.3082 7.28861ZM56.3291 7.27817C56.1339 7.27885 55.9608 7.24447 55.8096 7.17505C55.6621 7.10193 55.5458 7.00294 55.4607 6.87807C55.3756 6.74952 55.3328 6.60242 55.3322 6.43676C55.3317 6.27847 55.3643 6.13662 55.4301 6.01123C55.4996 5.88215 55.606 5.77318 55.7493 5.68434C55.8962 5.59548 56.0801 5.53226 56.3008 5.49469L57.4045 5.30865L57.406 5.73936L56.4182 5.90843C56.2269 5.94222 56.0872 6.00344 55.9992 6.0921C55.9148 6.18074 55.8728 6.28948 55.8733 6.41832C55.8737 6.53981 55.9219 6.64087 56.0179 6.72153C56.1176 6.80218 56.241 6.84224 56.3883 6.84173C56.576 6.84109 56.7379 6.80187 56.8738 6.7241C57.0134 6.64263 57.1216 6.53366 57.1985 6.39718C57.279 6.2607 57.319 6.10963 57.3184 5.94397L57.3158 5.18747C57.3152 5.0255 57.254 4.89502 57.1322 4.79605C57.014 4.69338 56.8574 4.64239 56.6623 4.64306C56.493 4.64364 56.3422 4.68834 56.21 4.77715C56.0814 4.86226 55.9861 4.97671 55.924 5.1205L55.4759 4.89012C55.5307 4.75373 55.6186 4.63194 55.7397 4.52476C55.8608 4.41391 56.0023 4.32691 56.164 4.26377C56.3258 4.20063 56.495 4.16875 56.6717 4.16814C56.9 4.16735 57.1007 4.21083 57.2741 4.29859C57.4474 4.38266 57.5821 4.50183 57.6784 4.65612C57.7783 4.8067 57.8286 4.98323 57.8293 5.1857L57.8363 7.2067L57.3338 7.20844L57.3319 6.64521L57.4258 6.67802C57.3637 6.79603 57.2794 6.8994 57.1729 6.98812C57.0665 7.07684 56.9415 7.14721 56.7981 7.19924C56.6548 7.25128 56.4984 7.27759 56.3291 7.27817ZM58.6325 7.20395L58.6181 3.0239L59.1316 3.02213L59.1461 7.20218L58.6325 7.20395Z" fill="#90A3BF"/>
<path d="M69.5238 0.955138C68.4904 0.958707 67.6532 1.80172 67.6568 2.8351C67.6603 3.84876 68.4559 4.66641 69.4894 4.69834C69.521 4.69428 69.5525 4.69418 69.5762 4.69804C69.5841 4.69801 69.588 4.698 69.5959 4.69797C69.5999 4.69796 69.5999 4.69796 69.6038 4.69794C70.6134 4.65896 71.4033 3.83583 71.4038 2.82216C71.4002 1.78878 70.5572 0.951569 69.5238 0.955138Z" fill="#90A3BF"/>
<path d="M71.544 5.74043C70.441 5.01061 68.6464 5.01681 67.5406 5.75426C67.0409 6.09124 66.7663 6.54578 66.768 7.03091C66.7697 7.51605 67.0473 7.96473 67.5455 8.29433C68.0989 8.66318 68.8253 8.84605 69.551 8.84354C70.2768 8.84103 71.0018 8.65315 71.5527 8.28049C72.0486 7.94352 72.3231 7.49293 72.3214 7.00385C72.3158 6.51872 72.0421 6.07003 71.544 5.74043Z" fill="#90A3BF"/>
<path d="M73.8658 3.04639C73.9315 3.81134 73.3895 4.48373 72.6365 4.57705C72.6326 4.57707 72.6326 4.57707 72.6286 4.57708L72.6168 4.57712C72.5931 4.5772 72.5695 4.57728 72.5498 4.58524C72.1672 4.60628 71.8158 4.48522 71.5508 4.26132C71.9558 3.89705 72.1866 3.35195 72.1372 2.76048C72.1085 2.4411 71.997 2.14961 71.8305 1.9017C71.9802 1.82624 72.1535 1.77831 72.331 1.76192C73.1038 1.6922 73.796 2.26567 73.8658 3.04639Z" fill="#90A3BF"/>
<path d="M74.6671 6.69203C74.6369 7.07473 74.3935 7.40688 73.9841 7.63312C73.5904 7.85141 73.0938 7.95568 72.6008 7.94555C72.8839 7.68819 73.0484 7.36814 73.0788 7.02883C73.1165 6.53962 72.8822 6.07106 72.4155 5.69797C72.1505 5.48984 71.8423 5.32525 71.5066 5.20414C72.3774 4.9487 73.4745 5.11451 74.1508 5.65648C74.5147 5.9471 74.7013 6.31327 74.6671 6.69203Z" fill="#90A3BF"/>
<path d="M78.1263 7.13662L78.125 6.76114L79.2582 5.52583C79.4819 5.28578 79.6598 5.08821 79.7918 4.93314C79.9275 4.77806 80.0264 4.63967 80.0885 4.51797C80.1507 4.39628 80.1815 4.26732 80.1811 4.13112C80.1803 3.90656 80.1134 3.73377 79.9805 3.61275C79.8475 3.49173 79.6725 3.43159 79.4553 3.43234C79.2344 3.4331 79.0469 3.49817 78.8927 3.62755C78.7385 3.75325 78.6324 3.93216 78.5743 4.16428L78.0824 4.03897C78.1295 3.81793 78.2172 3.6262 78.3455 3.46378C78.4738 3.30136 78.6335 3.17565 78.8246 3.08664C79.0157 2.99762 79.2254 2.95273 79.4536 2.95194C79.704 2.95107 79.9232 3.00001 80.1112 3.09876C80.303 3.19381 80.4526 3.32766 80.5599 3.50031C80.6709 3.67295 80.7269 3.87338 80.7276 4.10162C80.7282 4.25255 80.6974 4.39991 80.6353 4.54369C80.5732 4.68748 80.4817 4.84057 80.3608 5.00296C80.2399 5.16168 80.0822 5.34628 79.8878 5.55679L78.8756 6.66467L80.8248 6.65794L80.8264 7.1273L78.1263 7.13662ZM82.5464 7.12136L82.5322 3.00757L83.9845 3.00255C84.2569 3.00161 84.4963 3.05232 84.7028 3.15469C84.9093 3.25705 85.07 3.40374 85.1848 3.59478C85.3032 3.78579 85.3629 4.01015 85.3638 4.26783C85.3647 4.52552 85.3066 4.75028 85.1894 4.94211C85.0759 5.13025 84.9163 5.27805 84.7105 5.38552C84.5084 5.48929 84.2693 5.54166 83.9932 5.54261L83.0821 5.54576L83.0876 7.11949L82.5464 7.12136ZM83.0804 5.04879L84.0081 5.04559C84.1737 5.04501 84.3172 5.01323 84.4385 4.95023C84.5597 4.88723 84.6533 4.79671 84.7191 4.67868C84.785 4.56065 84.8177 4.42433 84.8171 4.26972C84.8166 4.11143 84.783 3.97534 84.7163 3.86145C84.6497 3.74387 84.5555 3.65401 84.4338 3.59185C84.3121 3.52969 84.1684 3.49889 84.0027 3.49946L83.0751 3.50267L83.0804 5.04879ZM87.3065 7.17118C87.0194 7.17217 86.7633 7.10495 86.5382 6.96952C86.3132 6.83409 86.1359 6.6488 86.0062 6.41365C85.8766 6.17481 85.8112 5.90814 85.8102 5.61364C85.8092 5.31546 85.8708 5.0502 85.9952 4.81784C86.1232 4.58548 86.2956 4.40266 86.5124 4.26939C86.7328 4.13242 86.9792 4.06346 87.2516 4.06252C87.4725 4.06176 87.6677 4.10158 87.8373 4.18198C88.0106 4.25869 88.1564 4.36494 88.2747 4.50074C88.3966 4.63285 88.4892 4.7853 88.5523 4.95811C88.6192 5.12721 88.6529 5.3038 88.6536 5.48786C88.6537 5.52835 88.6502 5.57438 88.643 5.62595C88.6395 5.67382 88.6341 5.71985 88.6269 5.76405L86.1862 5.77248L86.1847 5.33073L88.3272 5.32333L88.0849 5.52296C88.1174 5.33142 88.0984 5.1603 88.0279 5.00961C87.9575 4.85892 87.854 4.73964 87.7175 4.65176C87.5809 4.56388 87.4262 4.52024 87.2532 4.52084C87.0801 4.52144 86.922 4.56616 86.7787 4.655C86.6355 4.74385 86.5236 4.87124 86.4432 5.03717C86.3665 5.19942 86.3359 5.39279 86.3514 5.61729C86.3374 5.83454 86.3712 6.02585 86.4527 6.19123C86.538 6.35291 86.6562 6.4795 86.8074 6.57101C86.9624 6.65883 87.13 6.70243 87.3104 6.7018C87.5092 6.70112 87.6765 6.65452 87.8124 6.56202C87.9483 6.46952 88.0583 6.35134 88.1425 6.20748L88.574 6.42686C88.5155 6.56327 88.4239 6.68875 88.2992 6.80331C88.1781 6.91416 88.033 7.00301 87.8639 7.06986C87.6984 7.1367 87.5126 7.17047 87.3065 7.17118ZM90.7425 7.15931C90.4554 7.16031 90.1956 7.09494 89.9633 6.96322C89.7309 6.82781 89.5462 6.64254 89.4091 6.40741C89.2721 6.17229 89.2031 5.90563 89.2021 5.60745C89.201 5.30927 89.2664 5.04399 89.3981 4.81161C89.5335 4.57923 89.7169 4.39453 89.9484 4.25752C90.1798 4.12051 90.441 4.05151 90.7318 4.0505C91.0189 4.04951 91.2787 4.11672 91.5111 4.25212C91.7434 4.38385 91.9263 4.56544 92.0596 4.7969C92.1966 5.02835 92.2657 5.295 92.2667 5.59687C92.2677 5.89873 92.1987 6.1677 92.0597 6.40378C91.9206 6.63618 91.7353 6.82089 91.5039 6.95789C91.2761 7.09121 91.0223 7.15835 90.7425 7.15931ZM90.7408 6.66235C90.9249 6.66171 91.0904 6.61512 91.2373 6.52258C91.3879 6.43003 91.5053 6.30262 91.5894 6.14035C91.6772 5.97807 91.7207 5.79754 91.72 5.59875C91.7193 5.39628 91.6745 5.2179 91.5857 5.06359C91.5004 4.90559 91.3822 4.78083 91.231 4.68932C91.0834 4.59412 90.9176 4.54684 90.7335 4.54747C90.5458 4.54812 90.3766 4.59656 90.226 4.69279C90.0791 4.78533 89.9617 4.9109 89.8739 5.0695C89.7861 5.22442 89.7425 5.40311 89.7432 5.60558C89.7439 5.80437 89.7887 5.9846 89.8776 6.14627C89.9665 6.30794 90.0847 6.43453 90.2323 6.52605C90.3836 6.61756 90.5531 6.66299 90.7408 6.66235ZM92.9454 8.18983L92.9314 4.10917L93.4338 4.10743L93.4361 4.74797L93.3694 4.6212C93.4792 4.44412 93.6296 4.30371 93.8207 4.19997C94.0118 4.09255 94.2306 4.03842 94.4772 4.03757C94.757 4.0366 95.0076 4.10384 95.2289 4.23928C95.454 4.37471 95.6313 4.56001 95.761 4.79516C95.8906 5.02663 95.9559 5.29146 95.957 5.58964C95.958 5.88046 95.8945 6.14389 95.7664 6.37994C95.6384 6.61598 95.4623 6.80249 95.2383 6.93948C95.0178 7.07644 94.7659 7.14542 94.4825 7.1464C94.2432 7.14722 94.024 7.0946 93.8248 6.98853C93.6293 6.88245 93.4779 6.73204 93.3704 6.5373L93.453 6.44867L93.459 8.18806L92.9454 8.18983ZM94.4421 6.64956C94.6298 6.64891 94.7972 6.60232 94.9441 6.50978C95.091 6.41724 95.2047 6.29168 95.2852 6.13311C95.3693 5.97084 95.411 5.79032 95.4103 5.59153C95.4096 5.38538 95.3666 5.20515 95.2814 5.05083C95.1999 4.89281 95.0853 4.76804 94.9378 4.67652C94.7902 4.58132 94.6225 4.53404 94.4348 4.53469C94.247 4.53534 94.0779 4.58194 93.9273 4.67449C93.7803 4.76703 93.663 4.89444 93.5752 5.05672C93.491 5.2153 93.4493 5.39583 93.45 5.5983C93.4507 5.79709 93.4937 5.97732 93.5789 6.139C93.6678 6.29699 93.786 6.42175 93.9336 6.51327C94.0849 6.60478 94.2543 6.65021 94.4421 6.64956ZM96.6355 7.0727L96.621 2.89265L97.1346 2.89087L97.149 7.07092L96.6355 7.0727ZM99.3155 7.12971C99.0283 7.1307 98.7723 7.06348 98.5472 6.92805C98.3222 6.79262 98.1449 6.60732 98.0152 6.37217C97.8855 6.13333 97.8202 5.86667 97.8192 5.57217C97.8181 5.27399 97.8798 5.00872 98.0042 4.77637C98.1322 4.54401 98.3046 4.36119 98.5213 4.22791C98.7417 4.09094 98.9882 4.02199 99.2606 4.02105C99.4814 4.02028 99.6767 4.0601 99.8463 4.14051C100.02 4.21722 100.165 4.32347 100.284 4.45927C100.406 4.59137 100.498 4.74383 100.561 4.91663C100.628 5.08574 100.662 5.26232 100.663 5.44639C100.663 5.48688 100.659 5.53291 100.652 5.58447C100.648 5.63234 100.643 5.67837 100.636 5.72257L98.1952 5.731L98.1937 5.28925L100.336 5.28185L100.094 5.48148C100.126 5.28994 100.107 5.11883 100.037 4.96814C99.9664 4.81745 99.863 4.69816 99.7264 4.61029C99.5899 4.52241 99.4352 4.47876 99.2621 4.47936C99.0891 4.47996 98.931 4.52468 98.7877 4.61353C98.6445 4.70237 98.5326 4.82976 98.4522 4.9957C98.3755 5.15794 98.3448 5.35131 98.3603 5.57582C98.3464 5.79306 98.3802 5.98437 98.4617 6.14975C98.5469 6.31143 98.6652 6.43803 98.8164 6.52954C98.9713 6.61735 99.139 6.66095 99.3194 6.66033C99.5182 6.65964 99.6855 6.61305 99.8214 6.52055C99.9573 6.42804 100.067 6.30986 100.151 6.166L100.583 6.38539C100.525 6.5218 100.433 6.64728 100.308 6.76183C100.187 6.87269 100.042 6.96154 99.8728 7.02839C99.7074 7.09522 99.5216 7.12899 99.3155 7.12971Z" fill="#90A3BF"/>
</svg>
