<svg width="102" height="10" viewBox="0 0 102 10" fill="none" xmlns="http://www.w3.org/2000/svg">
<path d="M9.03055 4.03778L8.24035 3.64608C8.09417 3.57559 7.91293 3.63144 7.84244 3.77762C7.76802 3.92775 7.82779 4.10504 7.97397 4.17553L8.60217 4.48496L8.6087 6.37422L7.12964 6.38327L7.11566 2.33654C7.11294 1.5477 6.58306 1.1551 5.92832 1.15737L2.77297 1.16826C2.11823 1.17052 1.59108 1.56677 1.5938 2.35561L1.61594 8.76492L1.02431 8.76696C0.862595 8.76752 0.728956 8.90208 0.729515 9.06379C0.730073 9.22551 0.864639 9.35915 1.02635 9.35859L7.73147 9.33543C7.89318 9.33487 8.02682 9.2003 8.02626 9.03859C8.02571 8.87688 7.89114 8.74324 7.72943 8.7438L7.1378 8.74584L7.13168 6.9749L8.90656 6.96483C9.07221 6.96426 9.20191 6.8297 9.20135 6.66799L9.19318 4.30148C9.19279 4.19104 9.12933 4.08871 9.03055 4.03778ZM2.58242 3.09765C2.58053 2.54941 2.9151 2.35104 3.3253 2.34963L5.38811 2.3425C5.79436 2.3411 6.1303 2.53715 6.13219 3.08539L6.13387 3.57053C6.13575 4.11483 5.80117 4.31319 5.39098 4.31461L3.33211 4.32172C2.92191 4.32314 2.58598 4.12709 2.58408 3.57884L2.58242 3.09765ZM2.78693 5.21106L3.97019 5.20697C4.1319 5.20641 4.26647 5.34005 4.26703 5.50176C4.26758 5.66348 4.13394 5.79804 3.97223 5.7986L2.78898 5.80269C2.62726 5.80324 2.4927 5.66961 2.49214 5.50789C2.49158 5.34618 2.62522 5.21162 2.78693 5.21106Z" fill="#90A3BF"/>
<path d="M13.8029 7.40763C13.5268 7.40858 13.2818 7.35421 13.0679 7.24451C12.8577 7.13479 12.6916 6.98628 12.5694 6.79895C12.451 6.60793 12.3913 6.39462 12.3905 6.15902C12.3896 5.89398 12.4624 5.6618 12.609 5.46251C12.7555 5.26321 12.9575 5.12078 13.2149 5.03523L13.2044 5.17331C13.009 5.09668 12.8558 4.97388 12.7448 4.80493C12.6374 4.63228 12.5834 4.44656 12.5827 4.24777C12.582 4.03794 12.6329 3.85186 12.7354 3.68953C12.8416 3.52719 12.9847 3.39969 13.1648 3.30703C13.3485 3.21069 13.5563 3.16211 13.7883 3.16131C14.0202 3.16051 14.2265 3.20581 14.4072 3.29722C14.5879 3.38863 14.73 3.51698 14.8337 3.68228C14.941 3.84389 14.995 4.02961 14.9958 4.23944C14.9965 4.44927 14.9401 4.63721 14.8265 4.80326C14.7167 4.9693 14.5698 5.09313 14.3861 5.17475L14.369 5.03124C14.6307 5.11501 14.8355 5.25787 14.9834 5.45983C15.1313 5.65811 15.2058 5.88793 15.2067 6.1493C15.2075 6.3849 15.1475 6.59862 15.0267 6.79046C14.9095 6.97861 14.7444 7.12828 14.5312 7.23945C14.3218 7.35061 14.079 7.40667 13.8029 7.40763ZM13.8013 6.93827C13.9743 6.93767 14.1251 6.90402 14.2537 6.83731C14.3824 6.7706 14.4814 6.67823 14.551 6.56019C14.6242 6.43845 14.6605 6.30028 14.66 6.14566C14.6594 5.98737 14.6221 5.84945 14.5481 5.73191C14.4777 5.61067 14.378 5.51898 14.249 5.45684C14.1199 5.39103 13.9689 5.35842 13.7958 5.35901C13.6228 5.35961 13.4702 5.39327 13.3379 5.45999C13.2092 5.52302 13.1102 5.61539 13.0406 5.73711C12.9711 5.85515 12.9366 5.99332 12.9372 6.15162C12.9377 6.30623 12.9731 6.44415 13.0435 6.56539C13.1139 6.68295 13.2136 6.77464 13.3426 6.84046C13.4754 6.90626 13.6283 6.93886 13.8013 6.93827ZM13.7942 4.88965C13.9194 4.88922 14.0297 4.86123 14.1252 4.80568C14.2244 4.75012 14.3033 4.67622 14.3619 4.58399C14.4205 4.48807 14.4496 4.37753 14.4491 4.25237C14.4487 4.12721 14.4189 4.01871 14.3597 3.92689C14.3004 3.83506 14.221 3.76355 14.1215 3.71235C14.0256 3.65746 13.915 3.63024 13.7899 3.63067C13.661 3.63111 13.547 3.65912 13.4478 3.71468C13.3486 3.76656 13.2697 3.83862 13.2111 3.93085C13.1525 4.02309 13.1234 4.13179 13.1239 4.25695C13.1243 4.38211 13.1541 4.49245 13.2134 4.58795C13.2726 4.67978 13.352 4.75313 13.4516 4.80801C13.5512 4.86288 13.6654 4.8901 13.7942 4.88965ZM17.5407 7.39472C17.2131 7.39585 16.9256 7.30849 16.6784 7.13264C16.4348 6.9531 16.2443 6.70527 16.107 6.38915C15.9697 6.06936 15.9003 5.69779 15.8989 5.27444C15.8974 4.8511 15.9643 4.4809 16.0994 4.16384C16.2345 3.8431 16.4232 3.59396 16.6655 3.41643C16.9079 3.23889 17.1929 3.14955 17.5205 3.14842C17.8481 3.14729 18.1337 3.23465 18.3773 3.41051C18.6209 3.58637 18.8113 3.8342 18.9486 4.154C19.0896 4.47011 19.1608 4.83983 19.1623 5.26317C19.1638 5.68651 19.097 6.05856 18.9619 6.37929C18.8268 6.70003 18.6362 6.94918 18.3902 7.12673C18.1478 7.30427 17.8647 7.3936 17.5407 7.39472ZM17.539 6.89223C17.7598 6.89146 17.951 6.82454 18.1126 6.69146C18.2741 6.55469 18.3986 6.36467 18.4861 6.12141C18.5773 5.87813 18.6223 5.59267 18.6212 5.26504C18.62 4.93741 18.573 4.65227 18.4802 4.40963C18.391 4.16697 18.2633 3.97967 18.0972 3.84771C17.9348 3.71575 17.7431 3.65015 17.5222 3.65091C17.3014 3.65167 17.1102 3.7186 16.9487 3.85168C16.7871 3.98476 16.6608 4.17295 16.5696 4.41623C16.4821 4.65949 16.4389 4.94494 16.44 5.27257C16.4411 5.59652 16.4863 5.87983 16.5755 6.12248C16.6684 6.36513 16.796 6.55427 16.9585 6.68992C17.1246 6.82555 17.3181 6.89299 17.539 6.89223ZM19.9902 7.31999L19.9759 3.2062L20.5171 3.20433L20.5296 6.82116L22.3352 6.81492L22.3369 7.31189L19.9902 7.31999Z" fill="#90A3BF"/>
<g clip-path="url(#clip0_20_6638)">
<path d="M34.1293 1.05999C31.9521 1.06751 30.1912 2.84061 30.1987 5.0178C30.2063 7.19499 31.9794 8.95588 34.1566 8.94837C36.3337 8.94085 38.0946 7.16775 38.0871 4.99055C38.0796 2.81336 36.3104 1.05245 34.1293 1.05999Z" fill="#90A3BF"/>
<rect x="30.9767" y="1.85962" width="6.31074" height="6.31074" rx="3.15537" transform="rotate(-0.197882 30.9767 1.85962)" fill="white"/>
<path d="M34.1348 2.63758C32.8284 2.64209 31.7719 3.70595 31.7764 5.01227C31.7809 6.31858 32.8448 7.37512 34.1511 7.37061C35.4574 7.36609 36.514 6.30223 36.5095 4.99592C36.5049 3.6896 35.4434 2.63306 34.1348 2.63758Z" fill="#90A3BF"/>
<rect x="32.5598" y="3.43188" width="3.15537" height="3.15537" rx="1.57769" transform="rotate(-0.197882 32.5598 3.43188)" fill="white"/>
<rect x="33.7553" y="6.97754" width="0.788843" height="1.57769" transform="rotate(-0.197882 33.7553 6.97754)" fill="#90A3BF"/>
<rect x="36.1136" y="4.60291" width="1.57769" height="0.788843" transform="rotate(-0.197882 36.1136 4.60291)" fill="#90A3BF"/>
<rect x="30.5918" y="4.62195" width="1.57769" height="0.788843" transform="rotate(-0.197882 30.5918 4.62195)" fill="#90A3BF"/>
</g>
<path d="M40.9198 7.24777L40.9056 3.13397L41.4026 3.13226L42.9507 5.31912L42.6967 5.32L44.2187 3.12253L44.7157 3.12082L44.7299 7.23461L44.1832 7.23649L44.1714 3.80742L44.3649 3.86749L42.8427 6.0263L42.7986 6.02645L41.2781 3.87815L41.4491 3.81682L41.461 7.2459L40.9198 7.24777ZM46.4555 7.29491C46.2604 7.29558 46.0873 7.26121 45.9361 7.19179C45.7886 7.11867 45.6723 7.01968 45.5872 6.89481C45.5021 6.76626 45.4593 6.61915 45.4587 6.4535C45.4581 6.2952 45.4908 6.15336 45.5566 6.02797C45.6261 5.89888 45.7325 5.78992 45.8757 5.70107C46.0227 5.61222 46.2065 5.549 46.4273 5.51142L47.531 5.32539L47.5325 5.75609L46.5447 5.92516C46.3534 5.95895 46.2137 6.02018 46.1256 6.10883C46.0413 6.19748 45.9993 6.30622 45.9998 6.43506C46.0002 6.55654 46.0484 6.65761 46.1444 6.73827C46.2441 6.81891 46.3675 6.85898 46.5148 6.85847C46.7025 6.85782 46.8644 6.81861 47.0003 6.74083C47.1399 6.65936 47.2481 6.55039 47.325 6.41392C47.4055 6.27743 47.4454 6.12636 47.4449 5.96071L47.4423 5.20421C47.4417 5.04224 47.3805 4.91176 47.2587 4.81279C47.1405 4.71012 46.9839 4.65912 46.7888 4.6598C46.6195 4.66038 46.4687 4.70508 46.3365 4.79389C46.2079 4.879 46.1126 4.99345 46.0505 5.13723L45.6024 4.90686C45.6572 4.77046 45.7451 4.64868 45.8662 4.5415C45.9873 4.43064 46.1288 4.34365 46.2905 4.2805C46.4523 4.21736 46.6215 4.18549 46.7982 4.18488C47.0264 4.18409 47.2272 4.22757 47.4005 4.31532C47.5738 4.3994 47.7086 4.51857 47.8049 4.67285C47.9048 4.82344 47.9551 4.99997 47.9558 5.20244L47.9628 7.22344L47.4603 7.22518L47.4583 6.66195L47.5523 6.69475C47.4902 6.81277 47.4058 6.91614 47.2994 7.00485C47.1929 7.09357 47.068 7.16395 46.9246 7.21598C46.7812 7.26802 46.6249 7.29432 46.4555 7.29491ZM48.759 7.22069L48.7487 4.2444L49.2512 4.24267L49.2532 4.82247L49.1702 4.77305C49.2432 4.58506 49.3605 4.43924 49.5221 4.33561C49.6874 4.22828 49.8805 4.17423 50.1014 4.17347C50.3149 4.17273 50.5046 4.21993 50.6706 4.31507C50.8403 4.4102 50.9732 4.54227 51.0695 4.71128C51.1695 4.88027 51.2199 5.07152 51.2206 5.28503L51.2273 7.21217L50.7082 7.21396L50.7021 5.45248C50.7016 5.28683 50.6716 5.14704 50.6123 5.03313C50.553 4.91921 50.4681 4.83115 50.3574 4.76895C50.2504 4.70306 50.127 4.67036 49.9871 4.67084C49.8472 4.67132 49.7222 4.70489 49.612 4.77153C49.5054 4.83448 49.4211 4.92496 49.3589 5.04298C49.2967 5.15731 49.2659 5.29547 49.2665 5.45744L49.2725 7.21892L48.759 7.22069ZM53.017 7.27225C52.8035 7.27299 52.6101 7.22396 52.4367 7.12516C52.267 7.02635 52.134 6.88876 52.0377 6.71239C51.9451 6.53233 51.8983 6.32634 51.8975 6.09442L51.8911 4.23355L52.4046 4.23178L52.4109 6.03743C52.4114 6.18468 52.4413 6.31342 52.5006 6.42365C52.5635 6.53388 52.6485 6.62009 52.7555 6.6823C52.8661 6.7445 52.9914 6.77536 53.1313 6.77488C53.2712 6.7744 53.3944 6.74268 53.5009 6.67973C53.6111 6.61677 53.6955 6.52628 53.754 6.40828C53.8162 6.29027 53.847 6.15027 53.8464 5.9883L53.8403 4.22682L54.3594 4.22503L54.3696 7.20131L53.8672 7.20305L53.8652 6.62325L53.9482 6.67266C53.8789 6.86065 53.7597 7.00831 53.5908 7.11565C53.4255 7.2193 53.2342 7.2715 53.017 7.27225ZM56.0379 7.26181C55.8428 7.26249 55.6697 7.22811 55.5185 7.15869C55.371 7.08558 55.2547 6.98658 55.1696 6.86171C55.0845 6.73316 55.0416 6.58606 55.0411 6.4204C55.0405 6.26211 55.0732 6.12027 55.139 5.99487C55.2085 5.86579 55.3149 5.75682 55.4581 5.66798C55.6051 5.57912 55.7889 5.5159 56.0097 5.47833L57.1134 5.29229L57.1149 5.723L56.1271 5.89207C55.9357 5.92586 55.7961 5.98708 55.708 6.07574C55.6237 6.16438 55.5817 6.27312 55.5821 6.40197C55.5826 6.52345 55.6308 6.62452 55.7268 6.70517C55.8264 6.78582 55.9499 6.82589 56.0971 6.82538C56.2849 6.82473 56.4467 6.78552 56.5827 6.70774C56.7223 6.62627 56.8305 6.5173 56.9073 6.38082C56.9879 6.24434 57.0278 6.09327 57.0273 5.92761L57.0246 5.17112C57.0241 5.00914 56.9629 4.87867 56.8411 4.77969C56.7229 4.67703 56.5663 4.62603 56.3712 4.6267C56.2018 4.62729 56.0511 4.67198 55.9188 4.76079C55.7903 4.8459 55.695 4.96035 55.6329 5.10414L55.1848 4.87376C55.2396 4.73737 55.3275 4.61558 55.4486 4.50841C55.5697 4.39755 55.7111 4.31055 55.8729 4.24741C56.0346 4.18427 56.2039 4.15239 56.3806 4.15178C56.6088 4.151 56.8096 4.19448 56.9829 4.28223C57.1562 4.3663 57.291 4.48548 57.3873 4.63976C57.4872 4.79035 57.5375 4.96687 57.5382 5.16934L57.5452 7.19035L57.0427 7.19208L57.0407 6.62885L57.1347 6.66166C57.0725 6.77967 56.9882 6.88304 56.8818 6.97176C56.7753 7.06048 56.6504 7.13085 56.507 7.18289C56.3636 7.23492 56.2073 7.26123 56.0379 7.26181ZM58.3414 7.1876L58.3269 3.00754L58.8405 3.00577L58.8549 7.18582L58.3414 7.1876Z" fill="#90A3BF"/>
<path d="M69.2326 0.938842C68.1992 0.942411 67.362 1.78542 67.3656 2.8188C67.3691 3.83246 68.1647 4.65011 69.1982 4.68204C69.2298 4.67799 69.2613 4.67788 69.285 4.68174C69.2929 4.68171 69.2968 4.6817 69.3047 4.68167C69.3087 4.68166 69.3087 4.68166 69.3126 4.68165C70.3222 4.64266 71.1121 3.81953 71.1126 2.80586C71.109 1.77248 70.266 0.935273 69.2326 0.938842Z" fill="#90A3BF"/>
<path d="M71.2528 5.72413C70.1499 4.99432 68.3553 5.00051 67.2495 5.73796C66.7497 6.07495 66.4752 6.52948 66.4769 7.01462C66.4786 7.49975 66.7562 7.94844 67.2543 8.27803C67.8078 8.64688 68.5342 8.82975 69.2599 8.82724C69.9856 8.82474 70.7107 8.63685 71.2616 8.26419C71.7574 7.92722 72.032 7.47663 72.0303 6.98755C72.0247 6.50243 71.751 6.05373 71.2528 5.72413Z" fill="#90A3BF"/>
<path d="M73.5746 3.03009C73.6403 3.79505 73.0983 4.46744 72.3453 4.56076C72.3414 4.56077 72.3414 4.56077 72.3374 4.56078L72.3256 4.56082C72.3019 4.56091 72.2783 4.56099 72.2586 4.56894C71.876 4.58999 71.5246 4.46893 71.2596 4.24502C71.6646 3.88075 71.8954 3.33565 71.846 2.74419C71.8173 2.4248 71.7059 2.13331 71.5393 1.8854C71.689 1.80995 71.8623 1.76202 72.0398 1.74563C72.8126 1.67591 73.5048 2.24937 73.5746 3.03009Z" fill="#90A3BF"/>
<path d="M74.376 6.67567C74.3458 7.05837 74.1024 7.39053 73.693 7.61676C73.2993 7.83505 72.8027 7.93932 72.3096 7.92919C72.5927 7.67184 72.7573 7.35179 72.7876 7.01248C72.8254 6.52326 72.5911 6.05471 72.1244 5.68161C71.8594 5.47349 71.5512 5.30889 71.2155 5.18778C72.0863 4.93234 73.1833 5.09815 73.8597 5.64012C74.2236 5.93074 74.4102 6.29691 74.376 6.67567Z" fill="#90A3BF"/>
<path d="M79.1992 7.18182C78.9341 7.18273 78.6983 7.12465 78.4918 7.00756C78.2889 6.89046 78.1282 6.73088 78.0097 6.52882C77.8912 6.32307 77.8315 6.08952 77.8306 5.82815C77.8301 5.68458 77.8462 5.5428 77.8788 5.40279C77.9115 5.26279 77.9644 5.12088 78.0375 4.97706C78.1106 4.83323 78.204 4.68382 78.3176 4.52881L79.4719 3.00077L80.1235 2.99852L78.7107 4.84773L78.6113 4.83703C78.6662 4.76321 78.7268 4.70594 78.7929 4.66522C78.8627 4.62449 78.9362 4.59478 79.0135 4.57611C79.0944 4.55742 79.179 4.54793 79.2674 4.54762C79.5104 4.54678 79.7277 4.60309 79.9196 4.71655C80.115 4.82631 80.2683 4.97856 80.3795 5.17328C80.4943 5.36799 80.5521 5.59235 80.553 5.84636C80.5538 6.10036 80.4957 6.3288 80.3786 6.53168C80.2615 6.73087 80.1001 6.88973 79.8943 7.00824C79.6923 7.12306 79.4606 7.18092 79.1992 7.18182ZM79.1975 6.69589C79.3521 6.69536 79.49 6.65991 79.6113 6.58955C79.7325 6.5155 79.8279 6.41394 79.8974 6.28485C79.9705 6.15576 80.0069 6.01206 80.0063 5.85377C80.0057 5.68811 79.9703 5.54466 79.8999 5.42342C79.8295 5.2985 79.7335 5.19944 79.6117 5.12623C79.49 5.05303 79.35 5.0167 79.1917 5.01725C79.0371 5.01778 78.8973 5.05508 78.7724 5.12913C78.6475 5.20319 78.5503 5.30292 78.4808 5.42832C78.4113 5.55005 78.3768 5.69374 78.3774 5.85939C78.3779 6.01769 78.4134 6.16113 78.4838 6.28974C78.5578 6.41833 78.6557 6.51922 78.7775 6.59243C78.9029 6.66194 79.0429 6.69643 79.1975 6.69589ZM82.2552 7.105L82.241 2.99121L83.6933 2.98619C83.9657 2.98525 84.2051 3.03596 84.4116 3.13833C84.6181 3.24069 84.7788 3.38739 84.8936 3.57842C85.012 3.76944 85.0717 3.99379 85.0726 4.25147C85.0735 4.50916 85.0154 4.73392 84.8982 4.92575C84.7847 5.11389 84.6251 5.26169 84.4193 5.36916C84.2172 5.47294 83.9781 5.5253 83.702 5.52625L82.7909 5.5294L82.7964 7.10313L82.2552 7.105ZM82.7892 5.03243L83.7169 5.02923C83.8825 5.02866 84.026 4.99687 84.1473 4.93387C84.2685 4.87087 84.3621 4.78035 84.4279 4.66232C84.4938 4.5443 84.5265 4.40798 84.5259 4.25336C84.5254 4.09507 84.4918 3.95898 84.4251 3.84509C84.3585 3.72752 84.2643 3.63765 84.1426 3.57549C84.0209 3.51333 83.8772 3.48253 83.7115 3.48311L82.7839 3.48631L82.7892 5.03243ZM87.0153 7.15482C86.7282 7.15582 86.4721 7.0886 86.2471 6.95317C86.022 6.81773 85.8447 6.63244 85.715 6.39729C85.5854 6.15845 85.52 5.89178 85.519 5.59728C85.518 5.2991 85.5796 5.03384 85.704 4.80149C85.832 4.56912 86.0044 4.38631 86.2212 4.25303C86.4416 4.11606 86.688 4.04711 86.9604 4.04617C87.1813 4.0454 87.3765 4.08522 87.5461 4.16562C87.7194 4.24233 87.8652 4.34859 87.9835 4.48439C88.1054 4.61649 88.198 4.76895 88.2611 4.94175C88.328 5.11086 88.3617 5.28744 88.3624 5.4715C88.3625 5.512 88.359 5.55803 88.3518 5.60959C88.3483 5.65746 88.3429 5.70349 88.3357 5.74769L85.895 5.75612L85.8935 5.31437L88.036 5.30697L87.7937 5.5066C87.8262 5.31506 87.8072 5.14395 87.7367 4.99326C87.6663 4.84257 87.5628 4.72328 87.4263 4.6354C87.2898 4.54752 87.135 4.50388 86.962 4.50448C86.7889 4.50508 86.6308 4.5498 86.4875 4.63865C86.3443 4.72749 86.2324 4.85488 86.152 5.02082C86.0753 5.18306 86.0447 5.37643 86.0602 5.60094C86.0462 5.81818 86.08 6.00949 86.1615 6.17487C86.2468 6.33655 86.365 6.46315 86.5162 6.55466C86.6712 6.64247 86.8388 6.68607 87.0192 6.68545C87.218 6.68476 87.3853 6.63817 87.5212 6.54566C87.6571 6.45316 87.7671 6.33498 87.8513 6.19112L88.2828 6.41051C88.2243 6.54692 88.1327 6.6724 88.008 6.78695C87.8869 6.8978 87.7418 6.98666 87.5727 7.0535C87.4072 7.12034 87.2214 7.15411 87.0153 7.15482ZM90.4513 7.14296C90.1642 7.14395 89.9044 7.07858 89.6721 6.94686C89.4397 6.81145 89.255 6.62619 89.1179 6.39106C88.9809 6.15593 88.9119 5.88927 88.9109 5.59109C88.9098 5.29291 88.9752 5.02763 89.1069 4.79526C89.2423 4.56287 89.4257 4.37817 89.6572 4.24116C89.8886 4.10416 90.1498 4.03515 90.4406 4.03415C90.7277 4.03315 90.9875 4.10036 91.2199 4.23577C91.4522 4.36749 91.6351 4.54908 91.7684 4.78054C91.9054 5.01199 91.9745 5.27865 91.9755 5.58051C91.9765 5.88237 91.9075 6.15134 91.7685 6.38742C91.6294 6.61983 91.4441 6.80453 91.2127 6.94154C90.9849 7.07485 90.7311 7.14199 90.4513 7.14296ZM90.4496 6.64599C90.6337 6.64535 90.7992 6.59877 90.9461 6.50623C91.0967 6.41367 91.2141 6.28626 91.2982 6.124C91.386 5.96172 91.4295 5.78118 91.4288 5.5824C91.4281 5.37993 91.3833 5.20154 91.2945 5.04723C91.2092 4.88923 91.091 4.76448 90.9398 4.67297C90.7922 4.57776 90.6264 4.53048 90.4423 4.53111C90.2546 4.53176 90.0854 4.5802 89.9348 4.67644C89.7879 4.76898 89.6705 4.89455 89.5827 5.05314C89.4949 5.20806 89.4513 5.38675 89.452 5.58922C89.4527 5.78801 89.4975 5.96824 89.5864 6.12991C89.6753 6.29158 89.7935 6.41817 89.9411 6.5097C90.0924 6.60121 90.2619 6.64664 90.4496 6.64599ZM92.6542 8.17347L92.6402 4.09281L93.1426 4.09108L93.1449 4.73161L93.0782 4.60484C93.188 4.42776 93.3384 4.28735 93.5295 4.18361C93.7206 4.0762 93.9394 4.02206 94.186 4.02121C94.4658 4.02024 94.7164 4.08748 94.9377 4.22293C95.1628 4.35836 95.3401 4.54365 95.4698 4.7788C95.5994 5.01028 95.6647 5.2751 95.6658 5.57328C95.6668 5.8641 95.6033 6.12753 95.4752 6.36358C95.3472 6.59962 95.1711 6.78614 94.9471 6.92312C94.7266 7.06009 94.4747 7.12906 94.1913 7.13004C93.952 7.13087 93.7328 7.07824 93.5336 6.97218C93.3381 6.86609 93.1867 6.71568 93.0793 6.52095L93.1618 6.43231L93.1678 8.1717L92.6542 8.17347ZM94.1509 6.63321C94.3386 6.63256 94.506 6.58596 94.6529 6.49342C94.7998 6.40088 94.9135 6.27533 94.994 6.11675C95.0781 5.95449 95.1198 5.77396 95.1191 5.57517C95.1184 5.36902 95.0754 5.18879 94.9902 5.03447C94.9087 4.87645 94.7941 4.75169 94.6466 4.66016C94.499 4.56496 94.3313 4.51768 94.1436 4.51833C93.9558 4.51898 93.7867 4.56558 93.6361 4.65813C93.4891 4.75067 93.3718 4.87808 93.284 5.04036C93.1998 5.19895 93.1581 5.37947 93.1588 5.58194C93.1595 5.78073 93.2025 5.96096 93.2877 6.12265C93.3766 6.28064 93.4948 6.40539 93.6424 6.49691C93.7937 6.58842 93.9632 6.63385 94.1509 6.63321ZM96.3443 7.05634L96.3298 2.87629L96.8434 2.87451L96.8578 7.05457L96.3443 7.05634ZM99.0243 7.11335C98.7371 7.11434 98.4811 7.04712 98.256 6.91169C98.031 6.77626 97.8537 6.59097 97.724 6.35581C97.5943 6.11698 97.529 5.85031 97.528 5.55581C97.5269 5.25763 97.5886 4.99236 97.713 4.76001C97.841 4.52765 98.0134 4.34483 98.2301 4.21155C98.4505 4.07459 98.697 4.00563 98.9694 4.00469C99.1902 4.00393 99.3855 4.04375 99.5551 4.12415C99.7284 4.20086 99.8742 4.30711 99.9924 4.44291C100.114 4.57502 100.207 4.72747 100.27 4.90027C100.337 5.06938 100.371 5.24597 100.371 5.43003C100.371 5.47052 100.368 5.51655 100.361 5.56811C100.357 5.61598 100.352 5.66202 100.345 5.70622L97.904 5.71465L97.9025 5.2729L100.045 5.2655L99.8027 5.46512C99.8352 5.27358 99.8162 5.10247 99.7457 4.95178C99.6752 4.80109 99.5718 4.68181 99.4352 4.59393C99.2987 4.50605 99.144 4.46241 98.9709 4.463C98.7979 4.4636 98.6398 4.50832 98.4965 4.59717C98.3533 4.68602 98.2414 4.81341 98.161 4.97934C98.0843 5.14158 98.0536 5.33496 98.0691 5.55946C98.0552 5.77671 98.089 5.96802 98.1705 6.13339C98.2557 6.29508 98.374 6.42167 98.5252 6.51318C98.6801 6.601 98.8478 6.64459 99.0282 6.64397C99.227 6.64328 99.3943 6.59669 99.5302 6.50419C99.6661 6.41169 99.7761 6.29351 99.8603 6.14964L100.292 6.36903C100.233 6.50544 100.142 6.63092 100.017 6.74547C99.8959 6.85633 99.7508 6.94518 99.5816 7.01203C99.4162 7.07886 99.2304 7.11264 99.0243 7.11335Z" fill="#90A3BF"/>
<defs>
<clipPath id="clip0_20_6638">
<rect width="9.46611" height="9.46611" fill="white" transform="translate(29.3936 0.287476) rotate(-0.197882)"/>
</clipPath>
</defs>
</svg>
