<svg width="102" height="11" viewBox="0 0 102 11" fill="none" xmlns="http://www.w3.org/2000/svg">
<path d="M9.50577 4.49554L8.71557 4.10385C8.56939 4.03335 8.38815 4.0892 8.31766 4.23538C8.24323 4.38552 8.30301 4.5628 8.44919 4.63329L9.07739 4.94272L9.08392 6.83199L7.60486 6.84104L7.59088 2.7943C7.58816 2.00546 7.05828 1.61287 6.40354 1.61513L3.24819 1.62603C2.59345 1.62829 2.0663 2.02453 2.06902 2.81337L2.09116 9.22268L1.49953 9.22472C1.33782 9.22528 1.20418 9.35985 1.20473 9.52156C1.20529 9.68327 1.33986 9.81691 1.50157 9.81635L8.20669 9.79319C8.3684 9.79263 8.50204 9.65807 8.50148 9.49636C8.50093 9.33465 8.36636 9.20101 8.20465 9.20156L7.61302 9.20361L7.6069 7.43267L9.38178 7.42259C9.54743 7.42202 9.67713 7.28747 9.67657 7.12576L9.6684 4.75924C9.66801 4.64881 9.60455 4.54647 9.50577 4.49554ZM3.05764 3.55542C3.05575 3.00717 3.39032 2.80881 3.80052 2.80739L5.86333 2.80027C6.26958 2.79886 6.60552 2.99491 6.60741 3.54316L6.60909 4.02829C6.61097 4.57259 6.27639 4.77096 5.8662 4.77237L3.80733 4.77949C3.39713 4.7809 3.0612 4.58485 3.0593 4.03661L3.05764 3.55542ZM3.26215 5.66882L4.44541 5.66473C4.60712 5.66418 4.74169 5.79782 4.74224 5.95953C4.7428 6.12124 4.60916 6.2558 4.44745 6.25636L3.2642 6.26045C3.10248 6.26101 2.96792 6.12737 2.96736 5.96566C2.9668 5.80395 3.10044 5.66938 3.26215 5.66882Z" fill="#90A3BF"/>
<path d="M13.2453 7.80269L14.658 5.94797L14.7575 5.95867C14.7025 6.03248 14.642 6.09159 14.5759 6.136C14.5097 6.17672 14.4362 6.20642 14.3553 6.22511C14.2781 6.24378 14.1934 6.25328 14.1014 6.2536C13.8584 6.25443 13.6392 6.19997 13.4437 6.09021C13.2519 5.97675 13.0986 5.82267 12.9838 5.62795C12.8727 5.42955 12.8167 5.20334 12.8158 4.94934C12.8149 4.69533 12.873 4.46873 12.9902 4.26954C13.1073 4.07034 13.2687 3.91333 13.4745 3.7985C13.6802 3.67999 13.9119 3.62029 14.1696 3.6194C14.4346 3.61848 14.6686 3.67658 14.8715 3.79368C15.078 3.90708 15.2406 4.06666 15.3591 4.2724C15.4776 4.47446 15.5373 4.70802 15.5382 4.97307C15.5387 5.11664 15.5226 5.25842 15.49 5.39842C15.4573 5.53842 15.4044 5.68034 15.3313 5.82416C15.2618 5.96797 15.1685 6.11738 15.0512 6.2724L13.8969 7.80044L13.2453 7.80269ZM14.1771 5.77845C14.3353 5.7779 14.4751 5.74245 14.5964 5.67208C14.7213 5.59803 14.8185 5.4983 14.888 5.37289C14.9575 5.24381 14.992 5.10012 14.9914 4.94182C14.9908 4.77617 14.9535 4.63089 14.8795 4.50598C14.8091 4.38106 14.713 4.28199 14.5913 4.20879C14.4696 4.13558 14.3296 4.09925 14.1713 4.0998C14.0166 4.10033 13.8787 4.13762 13.7575 4.21167C13.6363 4.28571 13.5391 4.38544 13.4659 4.51086C13.3964 4.63626 13.3619 4.78179 13.3625 4.94745C13.363 5.10574 13.3985 5.24919 13.4689 5.37779C13.5392 5.50271 13.6353 5.60178 13.757 5.67498C13.8824 5.74449 14.0224 5.77898 14.1771 5.77845ZM17.8488 7.85306C17.5211 7.85419 17.2337 7.76683 16.9864 7.59098C16.7428 7.41144 16.5524 7.16361 16.4151 6.8475C16.2778 6.5277 16.2084 6.15613 16.2069 5.73278C16.2055 5.30944 16.2723 4.93924 16.4074 4.62218C16.5425 4.30144 16.7312 4.05231 16.9736 3.87477C17.2159 3.69723 17.5009 3.60789 17.8286 3.60676C18.1562 3.60563 18.4418 3.69299 18.6854 3.86885C18.9289 4.04472 19.1194 4.29254 19.2567 4.61234C19.3977 4.92845 19.4689 5.29817 19.4704 5.72151C19.4718 6.14486 19.405 6.5169 19.2699 6.83764C19.1348 7.15837 18.9442 7.40752 18.6982 7.58507C18.4559 7.76261 18.1727 7.85194 17.8488 7.85306ZM17.847 7.35057C18.0679 7.3498 18.2591 7.28288 18.4206 7.1498C18.5821 7.01303 18.7066 6.82302 18.7941 6.57975C18.8853 6.33647 18.9304 6.05101 18.9292 5.72338C18.9281 5.39575 18.8811 5.11061 18.7882 4.86797C18.699 4.62531 18.5714 4.43801 18.4053 4.30605C18.2428 4.17409 18.0512 4.10849 17.8303 4.10925C17.6094 4.11001 17.4182 4.17694 17.2567 4.31002C17.0952 4.44311 16.9688 4.63129 16.8777 4.87457C16.7901 5.11784 16.747 5.40328 16.7481 5.73091C16.7492 6.05486 16.7944 6.33817 16.8835 6.58082C16.9764 6.82347 17.1041 7.01261 17.2665 7.14826C17.4326 7.28389 17.6261 7.35133 17.847 7.35057ZM20.2982 7.77833L20.284 3.66454L20.8251 3.66267L20.8376 7.2795L22.6433 7.27326L22.645 7.77023L20.2982 7.77833Z" fill="#90A3BF"/>
<path d="M34.6045 1.51787C32.4273 1.52539 30.6664 3.29849 30.6739 5.47568C30.6814 7.65288 32.4545 9.41377 34.6317 9.40625C36.8089 9.39873 38.5698 7.62563 38.5623 5.44844C38.5548 3.27125 36.7856 1.51034 34.6045 1.51787Z" fill="#90A3BF"/>
<rect x="31.4519" y="2.31763" width="6.31074" height="6.31074" rx="3.15537" transform="rotate(-0.197882 31.4519 2.31763)" fill="white"/>
<path d="M34.6099 3.09559C33.3036 3.1001 32.2471 4.16396 32.2516 5.47027C32.2561 6.77659 33.32 7.83313 34.6263 7.82861C35.9326 7.8241 36.9891 6.76024 36.9846 5.45393C36.9801 4.14761 35.9186 3.09107 34.6099 3.09559Z" fill="#90A3BF"/>
<rect x="33.035" y="3.88977" width="3.15537" height="3.15537" rx="1.57769" transform="rotate(-0.197882 33.035 3.88977)" fill="white"/>
<rect x="34.2305" y="7.43555" width="0.788843" height="1.57769" transform="rotate(-0.197882 34.2305 7.43555)" fill="#90A3BF"/>
<rect x="36.5888" y="5.06091" width="1.57769" height="0.788843" transform="rotate(-0.197882 36.5888 5.06091)" fill="#90A3BF"/>
<rect x="31.067" y="5.07996" width="1.57769" height="0.788843" transform="rotate(-0.197882 31.067 5.07996)" fill="#90A3BF"/>
<path d="M41.395 7.70553L41.3808 3.59174L41.8777 3.59002L43.4259 5.77688L43.1719 5.77776L44.6939 3.5803L45.1908 3.57858L45.2051 7.69237L44.6584 7.69426L44.6465 4.26518L44.84 4.32525L43.3179 6.48406L43.2737 6.48421L41.7533 4.33591L41.9243 4.27458L41.9361 7.70366L41.395 7.70553ZM46.9307 7.75267C46.7356 7.75335 46.5624 7.71897 46.4113 7.64955C46.2638 7.57643 46.1475 7.47744 46.0624 7.35257C45.9773 7.22402 45.9344 7.07692 45.9338 6.91126C45.9333 6.75297 45.9659 6.61112 46.0318 6.48573C46.1013 6.35665 46.2076 6.24768 46.3509 6.15884C46.4979 6.06998 46.6817 6.00676 46.9024 5.96919L48.0062 5.78315L48.0077 6.21386L47.0198 6.38293C46.8285 6.41672 46.6888 6.47794 46.6008 6.5666C46.5164 6.65524 46.4745 6.76398 46.4749 6.89283C46.4753 7.01431 46.5236 7.11538 46.6195 7.19603C46.7192 7.27668 46.8427 7.31674 46.9899 7.31624C47.1777 7.31559 47.3395 7.27637 47.4755 7.1986C47.6151 7.11713 47.7233 7.00816 47.8001 6.87168C47.8806 6.7352 47.9206 6.58413 47.92 6.41847L47.9174 5.66197C47.9169 5.5 47.8557 5.36953 47.7338 5.27055C47.6157 5.16788 47.4591 5.11689 47.264 5.11756C47.0946 5.11815 46.9438 5.16284 46.8116 5.25165C46.6831 5.33676 46.5877 5.45121 46.5257 5.595L46.0776 5.36462C46.1323 5.22823 46.2203 5.10644 46.3414 4.99926C46.4625 4.88841 46.6039 4.80141 46.7657 4.73827C46.9274 4.67513 47.0967 4.64325 47.2734 4.64264C47.5016 4.64185 47.7024 4.68534 47.8757 4.77309C48.049 4.85716 48.1838 4.97634 48.28 5.13062C48.3799 5.2812 48.4303 5.45773 48.431 5.6602L48.4379 7.6812L47.9354 7.68294L47.9335 7.11971L48.0275 7.15252C47.9653 7.27053 47.881 7.3739 47.7745 7.46262C47.6681 7.55134 47.5432 7.62171 47.3998 7.67375C47.2564 7.72578 47.1 7.75209 46.9307 7.75267ZM49.2342 7.67845L49.2239 4.70217L49.7264 4.70043L49.7284 5.28023L49.6454 5.23082C49.7184 5.04282 49.8356 4.897 49.9973 4.79337C50.1626 4.68604 50.3556 4.632 50.5765 4.63123C50.79 4.6305 50.9798 4.6777 51.1458 4.77284C51.3154 4.86797 51.4484 5.00003 51.5447 5.16904C51.6447 5.33803 51.695 5.52929 51.6958 5.7428L51.7024 7.66993L51.1834 7.67172L51.1773 5.91025C51.1767 5.74459 51.1468 5.60481 51.0875 5.49089C51.0282 5.37698 50.9432 5.28892 50.8326 5.22672C50.7256 5.16082 50.6022 5.12812 50.4623 5.1286C50.3224 5.12909 50.1973 5.16265 50.0871 5.22929C49.9806 5.29224 49.8962 5.38273 49.8341 5.50074C49.7719 5.61508 49.7411 5.75323 49.7416 5.91521L49.7477 7.67668L49.2342 7.67845ZM53.4922 7.73001C53.2787 7.73075 53.0852 7.68172 52.9119 7.58292C52.7422 7.48411 52.6092 7.34653 52.5129 7.17016C52.4202 6.99009 52.3735 6.7841 52.3727 6.55218L52.3663 4.69132L52.8798 4.68954L52.886 6.49519C52.8865 6.64244 52.9164 6.77118 52.9757 6.88142C53.0387 6.99164 53.1236 7.07786 53.2306 7.14007C53.3413 7.20227 53.4665 7.23313 53.6064 7.23264C53.7463 7.23216 53.8695 7.20044 53.9761 7.13749C54.0863 7.07453 54.1706 6.98405 54.2291 6.86604C54.2913 6.74803 54.3221 6.60803 54.3216 6.44606L54.3155 4.68458L54.8345 4.68279L54.8448 7.65908L54.3423 7.66081L54.3403 7.08102L54.4233 7.13043C54.354 7.31841 54.2349 7.46608 54.0659 7.57342C53.9006 7.67706 53.7094 7.72926 53.4922 7.73001ZM56.5131 7.71958C56.318 7.72025 56.1448 7.68588 55.9937 7.61646C55.8462 7.54334 55.7298 7.44435 55.6447 7.31948C55.5596 7.19093 55.5168 7.04382 55.5162 6.87817C55.5157 6.71987 55.5483 6.57803 55.6141 6.45264C55.6836 6.32355 55.79 6.21459 55.9333 6.12574C56.0802 6.03688 56.2641 5.97367 56.4848 5.93609L57.5886 5.75006L57.5901 6.18076L56.6022 6.34983C56.4109 6.38362 56.2712 6.44485 56.1832 6.5335C56.0988 6.62214 56.0569 6.73089 56.0573 6.85973C56.0577 6.98121 56.1059 7.08228 56.2019 7.16294C56.3016 7.24358 56.4251 7.28365 56.5723 7.28314C56.76 7.28249 56.9219 7.24328 57.0578 7.1655C57.1974 7.08403 57.3057 6.97506 57.3825 6.83859C57.463 6.7021 57.503 6.55103 57.5024 6.38538L57.4998 5.62888C57.4992 5.46691 57.438 5.33643 57.3162 5.23746C57.1981 5.13479 57.0414 5.08379 56.8463 5.08447C56.677 5.08505 56.5262 5.12975 56.394 5.21855C56.2654 5.30367 56.1701 5.41812 56.108 5.5619L55.66 5.33153C55.7147 5.19513 55.8026 5.07335 55.9238 4.96617C56.0449 4.85531 56.1863 4.76831 56.348 4.70517C56.5098 4.64203 56.679 4.61016 56.8557 4.60955C57.084 4.60876 57.2848 4.65224 57.4581 4.73999C57.6314 4.82406 57.7662 4.94324 57.8624 5.09752C57.9623 5.24811 58.0126 5.42464 58.0133 5.62711L58.0203 7.64811L57.5178 7.64984L57.5159 7.08661L57.6099 7.11942C57.5477 7.23744 57.4634 7.3408 57.3569 7.42952C57.2505 7.51824 57.1256 7.58862 56.9822 7.64065C56.8388 7.69268 56.6824 7.71899 56.5131 7.71958ZM58.8165 7.64536L58.8021 3.46531L59.3156 3.46353L59.3301 7.64359L58.8165 7.64536Z" fill="#90A3BF"/>
<path d="M69.7078 1.39661C68.6745 1.40017 67.8373 2.24319 67.8408 3.27657C67.8443 4.29022 68.6399 5.10788 69.6734 5.13981C69.705 5.13575 69.7365 5.13564 69.7602 5.13951C69.7681 5.13948 69.772 5.13946 69.7799 5.13944C69.7839 5.13942 69.7839 5.13942 69.7878 5.13941C70.7974 5.10043 71.5874 4.2773 71.5878 3.26363C71.5842 2.23025 70.7412 1.39304 69.7078 1.39661Z" fill="#90A3BF"/>
<path d="M71.7281 6.1819C70.6251 5.45208 68.8305 5.45828 67.7247 6.19572C67.225 6.53271 66.9504 6.98725 66.9521 7.47238C66.9538 7.95752 67.2314 8.4062 67.7295 8.7358C68.283 9.10464 69.0094 9.28751 69.7351 9.28501C70.4608 9.2825 71.1859 9.09462 71.7368 8.72196C72.2326 8.38498 72.5072 7.93439 72.5055 7.44531C72.4999 6.96019 72.2262 6.51149 71.7281 6.1819Z" fill="#90A3BF"/>
<path d="M74.0498 3.48785C74.1155 4.25281 73.5736 4.9252 72.8205 5.01852C72.8166 5.01853 72.8166 5.01853 72.8126 5.01855L72.8008 5.01859C72.7771 5.01867 72.7535 5.01875 72.7338 5.02671C72.3513 5.04775 71.9998 4.92669 71.7348 4.70279C72.1398 4.33852 72.3706 3.79342 72.3212 3.20195C72.2925 2.88257 72.1811 2.59108 72.0146 2.34317C72.1642 2.26771 72.3376 2.21978 72.515 2.20339C73.2878 2.13367 73.98 2.70714 74.0498 3.48785Z" fill="#90A3BF"/>
<path d="M74.8512 7.13344C74.821 7.51613 74.5776 7.84829 74.1682 8.07453C73.7745 8.29282 73.2779 8.39708 72.7848 8.38695C73.0679 8.1296 73.2325 7.80955 73.2629 7.47024C73.3006 6.98102 73.0663 6.51247 72.5996 6.13938C72.3346 5.93125 72.0264 5.76666 71.6907 5.64554C72.5615 5.3901 73.6586 5.55592 74.3349 6.09789C74.6988 6.3885 74.8854 6.75467 74.8512 7.13344Z" fill="#90A3BF"/>
<path d="M79.6744 7.63958C79.4094 7.6405 79.1735 7.58241 78.967 7.46532C78.7641 7.34822 78.6034 7.18864 78.4849 6.98658C78.3664 6.78084 78.3067 6.54728 78.3058 6.28591C78.3053 6.14234 78.3214 6.00056 78.354 5.86056C78.3867 5.72056 78.4396 5.57864 78.5127 5.43482C78.5858 5.291 78.6792 5.14158 78.7928 4.98658L79.9471 3.45854L80.5987 3.45629L79.1859 5.30549L79.0865 5.29479C79.1415 5.22098 79.202 5.16371 79.2681 5.12298C79.3379 5.08225 79.4115 5.05254 79.4887 5.03387C79.5696 5.01519 79.6543 5.00569 79.7426 5.00538C79.9856 5.00455 80.203 5.06085 80.3948 5.17431C80.5903 5.28408 80.7436 5.43632 80.8547 5.63104C80.9695 5.82576 81.0273 6.05011 81.0282 6.30412C81.0291 6.55813 80.971 6.78657 80.8538 6.98944C80.7367 7.18864 80.5753 7.34749 80.3696 7.466C80.1675 7.58082 79.9358 7.63868 79.6744 7.63958ZM79.6727 7.15366C79.8273 7.15312 79.9653 7.11768 80.0865 7.04731C80.2077 6.97327 80.3031 6.8717 80.3726 6.74262C80.4458 6.61352 80.4821 6.46982 80.4815 6.31153C80.481 6.14587 80.4455 6.00243 80.3751 5.88119C80.3048 5.75627 80.2087 5.6572 80.087 5.584C79.9652 5.51079 79.8252 5.47446 79.6669 5.47501C79.5123 5.47554 79.3726 5.51284 79.2476 5.5869C79.1227 5.66095 79.0255 5.76068 78.956 5.88609C78.8865 6.00781 78.852 6.1515 78.8526 6.31716C78.8531 6.47545 78.8886 6.6189 78.959 6.7475C79.0331 6.87609 79.131 6.97699 79.2527 7.05019C79.3781 7.1197 79.5181 7.15419 79.6727 7.15366ZM82.7304 7.56276L82.7162 3.44897L84.1685 3.44396C84.4409 3.44302 84.6804 3.49373 84.8869 3.59609C85.0934 3.69845 85.254 3.84515 85.3688 4.03618C85.4872 4.2272 85.5469 4.45155 85.5478 4.70924C85.5487 4.96693 85.4906 5.19169 85.3734 5.38352C85.26 5.57165 85.1003 5.71946 84.8946 5.82693C84.6925 5.9307 84.4533 5.98306 84.1773 5.98402L83.2661 5.98716L83.2716 7.5609L82.7304 7.56276ZM83.2644 5.4902L84.1921 5.48699C84.3578 5.48642 84.5012 5.45463 84.6225 5.39163C84.7437 5.32863 84.8373 5.23812 84.9032 5.12009C84.969 5.00206 85.0017 4.86574 85.0011 4.71113C85.0006 4.55283 84.967 4.41674 84.9003 4.30285C84.8337 4.18528 84.7395 4.09541 84.6178 4.03325C84.4961 3.97109 84.3524 3.9403 84.1868 3.94087L83.2591 3.94407L83.2644 5.4902ZM87.4905 7.61259C87.2034 7.61358 86.9473 7.54636 86.7223 7.41093C86.4972 7.2755 86.3199 7.09021 86.1902 6.85505C86.0606 6.61622 85.9952 6.34955 85.9942 6.05505C85.9932 5.75687 86.0549 5.4916 86.1792 5.25925C86.3073 5.02689 86.4796 4.84407 86.6964 4.71079C86.9168 4.57383 87.1632 4.50487 87.4356 4.50393C87.6565 4.50317 87.8517 4.54299 88.0213 4.62339C88.1946 4.7001 88.3404 4.80635 88.4587 4.94215C88.5806 5.07426 88.6732 5.22671 88.7364 5.39951C88.8032 5.56862 88.8369 5.74521 88.8376 5.92927C88.8377 5.96976 88.8342 6.01579 88.827 6.06735C88.8235 6.11522 88.8181 6.16126 88.8109 6.20546L86.3703 6.21389L86.3687 5.77214L88.5112 5.76474L88.2689 5.96436C88.3014 5.77282 88.2824 5.60171 88.2119 5.45102C88.1415 5.30033 88.038 5.18105 87.9015 5.09317C87.765 5.00529 87.6102 4.96165 87.4372 4.96224C87.2642 4.96284 87.106 5.00756 86.9628 5.09641C86.8195 5.18525 86.7077 5.31265 86.6272 5.47858C86.5505 5.64082 86.5199 5.8342 86.5354 6.0587C86.5214 6.27595 86.5552 6.46726 86.6368 6.63263C86.722 6.79431 86.8402 6.92091 86.9915 7.01242C87.1464 7.10024 87.314 7.14383 87.4944 7.14321C87.6932 7.14252 87.8605 7.09593 87.9964 7.00343C88.1323 6.91093 88.2423 6.79274 88.3265 6.64888L88.758 6.86827C88.6996 7.00468 88.608 7.13016 88.4832 7.24471C88.3621 7.35557 88.217 7.44442 88.0479 7.51127C87.8825 7.5781 87.6967 7.61188 87.4905 7.61259ZM90.9265 7.60072C90.6394 7.60171 90.3796 7.53635 90.1473 7.40462C89.9149 7.26922 89.7302 7.08395 89.5932 6.84882C89.4561 6.61369 89.3871 6.34704 89.3861 6.04886C89.3851 5.75067 89.4504 5.4854 89.5821 5.25302C89.7175 5.02063 89.901 4.83593 90.1324 4.69893C90.3639 4.56192 90.625 4.49291 90.9158 4.49191C91.2029 4.49092 91.4627 4.55812 91.6951 4.69353C91.9275 4.82525 92.1103 5.00685 92.2436 5.23831C92.3807 5.46975 92.4497 5.73641 92.4507 6.03827C92.4518 6.34013 92.3827 6.60911 92.2437 6.84519C92.1046 7.07759 91.9193 7.26229 91.6879 7.3993C91.4601 7.53261 91.2063 7.59975 90.9265 7.60072ZM90.9248 7.10375C91.1089 7.10312 91.2744 7.05653 91.4213 6.96399C91.5719 6.87144 91.6893 6.74403 91.7734 6.58176C91.8612 6.41948 91.9047 6.23895 91.9041 6.04016C91.9034 5.83769 91.8586 5.6593 91.7697 5.505C91.6845 5.34699 91.5662 5.22224 91.415 5.13073C91.2674 5.03553 91.1016 4.98824 90.9175 4.98888C90.7298 4.98953 90.5606 5.03797 90.41 5.1342C90.2631 5.22674 90.1457 5.35231 90.0579 5.51091C89.9701 5.66583 89.9265 5.84452 89.9272 6.04699C89.9279 6.24577 89.9727 6.426 90.0616 6.58767C90.1505 6.74934 90.2688 6.87594 90.4163 6.96746C90.5676 7.05897 90.7371 7.1044 90.9248 7.10375ZM93.1295 8.63124L93.1154 4.55058L93.6179 4.54884L93.6201 5.18938L93.5534 5.0626C93.6632 4.88552 93.8137 4.74511 94.0047 4.64138C94.1958 4.53396 94.4146 4.47983 94.6613 4.47897C94.941 4.47801 95.1916 4.54525 95.4129 4.68069C95.638 4.81612 95.8153 5.00141 95.945 5.23657C96.0746 5.46804 96.14 5.73287 96.141 6.03105C96.142 6.32187 96.0785 6.5853 95.9504 6.82134C95.8224 7.05739 95.6464 7.2439 95.4223 7.38088C95.2019 7.51785 94.9499 7.58682 94.6665 7.5878C94.4272 7.58863 94.208 7.53601 94.0088 7.42994C93.8134 7.32386 93.6619 7.17345 93.5545 6.97871L93.637 6.89007L93.643 8.62946L93.1295 8.63124ZM94.6261 7.09097C94.8139 7.09032 94.9812 7.04373 95.1281 6.95119C95.2751 6.85865 95.3887 6.73309 95.4692 6.57452C95.5533 6.41225 95.595 6.23172 95.5943 6.03294C95.5936 5.82679 95.5507 5.64655 95.4654 5.49223C95.3839 5.33422 95.2694 5.20945 95.1218 5.11793C94.9742 5.02272 94.8066 4.97545 94.6188 4.97609C94.4311 4.97674 94.2619 5.02334 94.1113 5.1159C93.9643 5.20844 93.847 5.33584 93.7592 5.49812C93.6751 5.65671 93.6334 5.83724 93.6341 6.03971C93.6347 6.23849 93.6777 6.41873 93.7629 6.58041C93.8518 6.7384 93.9701 6.86315 94.1176 6.95468C94.2689 7.04619 94.4384 7.09162 94.6261 7.09097ZM96.8195 7.5141L96.805 3.33405L97.3186 3.33228L97.333 7.51233L96.8195 7.5141ZM99.4995 7.57111C99.2124 7.5721 98.9563 7.50488 98.7313 7.36945C98.5062 7.23402 98.3289 7.04873 98.1992 6.81358C98.0696 6.57474 98.0042 6.30807 98.0032 6.01357C98.0022 5.71539 98.0638 5.45013 98.1882 5.21778C98.3162 4.98541 98.4886 4.80259 98.7054 4.66932C98.9258 4.53235 99.1722 4.46339 99.4446 4.46245C99.6655 4.46169 99.8607 4.50151 100.03 4.58191C100.204 4.65862 100.349 4.76488 100.468 4.90067C100.59 5.03278 100.682 5.18523 100.745 5.35804C100.812 5.52714 100.846 5.70373 100.847 5.88779C100.847 5.92829 100.843 5.97431 100.836 6.02588C100.832 6.07375 100.827 6.11978 100.82 6.16398L98.3792 6.17241L98.3777 5.73066L100.52 5.72326L100.278 5.92289C100.31 5.73135 100.291 5.56023 100.221 5.40954C100.15 5.25886 100.047 5.13957 99.9105 5.05169C99.774 4.96381 99.6192 4.92017 99.4462 4.92077C99.2731 4.92137 99.115 4.96609 98.9717 5.05493C98.8285 5.14378 98.7166 5.27117 98.6362 5.43711C98.5595 5.59935 98.5289 5.79272 98.5444 6.01723C98.5304 6.23447 98.5642 6.42578 98.6457 6.59116C98.731 6.75284 98.8492 6.87943 99.0004 6.97094C99.1554 7.05876 99.323 7.10236 99.5034 7.10173C99.7022 7.10105 99.8695 7.05445 100.005 6.96195C100.141 6.86945 100.251 6.75127 100.336 6.60741L100.767 6.8268C100.709 6.9632 100.617 7.08868 100.492 7.20324C100.371 7.31409 100.226 7.40294 100.057 7.46979C99.8914 7.53663 99.7056 7.5704 99.4995 7.57111Z" fill="#90A3BF"/>
</svg>
