<svg width="102" height="10" viewBox="0 0 102 10" fill="none" xmlns="http://www.w3.org/2000/svg">
<path d="M9.02835 4.06695L8.23815 3.67526C8.09197 3.60477 7.91073 3.66061 7.84024 3.80679C7.76582 3.95693 7.82559 4.13421 7.97177 4.20471L8.59998 4.51413L8.6065 6.4034L7.12744 6.41245L7.11347 2.36571C7.11074 1.57687 6.58086 1.18428 5.92612 1.18654L2.77077 1.19744C2.11604 1.1997 1.58888 1.59594 1.5916 2.38478L1.61374 8.79409L1.02211 8.79613C0.860398 8.79669 0.726759 8.93126 0.727317 9.09297C0.727876 9.25468 0.862442 9.38832 1.02415 9.38776L7.72927 9.3646C7.89099 9.36405 8.02463 9.22948 8.02407 9.06777C8.02351 8.90606 7.88894 8.77242 7.72723 8.77298L7.1356 8.77502L7.12949 7.00408L8.90436 6.994C9.07001 6.99343 9.19971 6.85888 9.19915 6.69717L9.19098 4.33065C9.1906 4.22022 9.12714 4.11789 9.02835 4.06695ZM2.58022 3.12683C2.57833 2.57859 2.91291 2.38022 3.3231 2.3788L5.38591 2.37168C5.79216 2.37027 6.1281 2.56633 6.12999 3.11457L6.13167 3.5997C6.13355 4.144 5.79897 4.34237 5.38878 4.34379L3.32991 4.3509C2.91972 4.35231 2.58378 4.15626 2.58189 3.60802L2.58022 3.12683ZM2.78474 5.24023L3.96799 5.23615C4.1297 5.23559 4.26427 5.36923 4.26483 5.53094C4.26539 5.69265 4.13175 5.82722 3.97004 5.82777L2.78678 5.83186C2.62507 5.83242 2.4905 5.69878 2.48994 5.53707C2.48938 5.37536 2.62302 5.24079 2.78474 5.24023Z" fill="#90A3BF"/>
<path d="M12.4862 7.37508L14.2793 3.72441L12.2638 3.73137L12.2622 3.26201L14.8464 3.25309L14.848 3.72244L13.0715 7.37306L12.4862 7.37508ZM17.0909 7.42544C16.7632 7.42657 16.4758 7.33921 16.2285 7.16336C15.985 6.98382 15.7945 6.73599 15.6572 6.41987C15.5199 6.10008 15.4505 5.72851 15.4491 5.30516C15.4476 4.88182 15.5144 4.51162 15.6495 4.19456C15.7846 3.87382 15.9734 3.62469 16.2157 3.44715C16.4581 3.26961 16.7431 3.18027 17.0707 3.17914C17.3983 3.17801 17.6839 3.26537 17.9275 3.44123C18.1711 3.6171 18.3615 3.86492 18.4988 4.18472C18.6398 4.50083 18.711 4.87055 18.7125 5.29389C18.7139 5.71724 18.6471 6.08928 18.512 6.41002C18.3769 6.73075 18.1864 6.9799 17.9403 7.15745C17.698 7.33499 17.4148 7.42432 17.0909 7.42544ZM17.0891 6.92295C17.31 6.92218 17.5012 6.85526 17.6627 6.72218C17.8242 6.58541 17.9487 6.39539 18.0362 6.15213C18.1274 5.90885 18.1725 5.62339 18.1713 5.29576C18.1702 4.96813 18.1232 4.68299 18.0303 4.44035C17.9411 4.19769 17.8135 4.01039 17.6474 3.87843C17.4849 3.74647 17.2933 3.68087 17.0724 3.68163C16.8515 3.68239 16.6603 3.74932 16.4988 3.8824C16.3373 4.01549 16.211 4.20367 16.1198 4.44695C16.0323 4.69021 15.9891 4.97566 15.9902 5.30329C15.9913 5.62724 16.0365 5.91055 16.1257 6.1532C16.2185 6.39585 16.3462 6.58499 16.5086 6.72064C16.6748 6.85627 16.8683 6.92371 17.0891 6.92295ZM19.5403 7.35071L19.5261 3.23692L20.0673 3.23505L20.0797 6.85188L21.8854 6.84564L21.8871 7.34261L19.5403 7.35071Z" fill="#90A3BF"/>
<g clip-path="url(#clip0_20_6668)">
<path d="M34.1272 1.08904C31.95 1.09656 30.1891 2.86966 30.1966 5.04685C30.2041 7.22404 31.9772 8.98494 34.1544 8.97742C36.3316 8.9699 38.0925 7.1968 38.085 5.01961C38.0775 2.84241 36.3083 1.08151 34.1272 1.08904Z" fill="#90A3BF"/>
<rect x="30.9745" y="1.88892" width="6.31074" height="6.31074" rx="3.15537" transform="rotate(-0.197882 30.9745 1.88892)" fill="white"/>
<path d="M34.1325 2.66675C32.8262 2.67127 31.7697 3.73512 31.7742 5.04144C31.7787 6.34776 32.8425 7.40429 34.1489 7.39978C35.4552 7.39527 36.5117 6.33141 36.5072 5.02509C36.5027 3.71878 35.4412 2.66223 34.1325 2.66675Z" fill="#90A3BF"/>
<rect x="32.5576" y="3.46106" width="3.15537" height="3.15537" rx="1.57769" transform="rotate(-0.197882 32.5576 3.46106)" fill="white"/>
<rect x="33.7532" y="7.00671" width="0.788843" height="1.57769" transform="rotate(-0.197882 33.7532 7.00671)" fill="#90A3BF"/>
<rect x="36.1115" y="4.63196" width="1.57769" height="0.788843" transform="rotate(-0.197882 36.1115 4.63196)" fill="#90A3BF"/>
<rect x="30.5896" y="4.65112" width="1.57769" height="0.788843" transform="rotate(-0.197882 30.5896 4.65112)" fill="#90A3BF"/>
</g>
<path d="M40.9175 7.27682L40.9033 3.16303L41.4003 3.16131L42.9485 5.34817L42.6945 5.34905L44.2165 3.15158L44.7134 3.14987L44.7276 7.26366L44.181 7.26555L44.1691 3.83647L44.3626 3.89654L42.8405 6.05535L42.7963 6.0555L41.2759 3.9072L41.4468 3.84587L41.4587 7.27495L40.9175 7.27682ZM46.4533 7.32396C46.2582 7.32464 46.085 7.29026 45.9339 7.22084C45.7864 7.14772 45.6701 7.04873 45.585 6.92386C45.4998 6.79531 45.457 6.64821 45.4564 6.48255C45.4559 6.32426 45.4885 6.18241 45.5543 6.05702C45.6238 5.92794 45.7302 5.81897 45.8735 5.73013C46.0204 5.64127 46.2043 5.57805 46.425 5.54048L47.5288 5.35444L47.5303 5.78515L46.5424 5.95422C46.3511 5.98801 46.2114 6.04923 46.1234 6.13789C46.039 6.22653 45.9971 6.33527 45.9975 6.46411C45.9979 6.5856 46.0461 6.68666 46.1421 6.76732C46.2418 6.84797 46.3653 6.88803 46.5125 6.88752C46.7003 6.88688 46.8621 6.84766 46.998 6.76989C47.1376 6.68842 47.2459 6.57945 47.3227 6.44297C47.4032 6.30649 47.4432 6.15542 47.4426 5.98976L47.44 5.23326C47.4394 5.07129 47.3783 4.94081 47.2564 4.84184C47.1383 4.73917 46.9816 4.68818 46.7865 4.68885C46.6172 4.68943 46.4664 4.73413 46.3342 4.82294C46.2056 4.90805 46.1103 5.0225 46.0482 5.16629L45.6002 4.93591C45.6549 4.79952 45.7429 4.67773 45.864 4.57055C45.9851 4.4597 46.1265 4.3727 46.2883 4.30956C46.45 4.24642 46.6192 4.21454 46.7959 4.21393C47.0242 4.21314 47.225 4.25662 47.3983 4.34438C47.5716 4.42845 47.7064 4.54762 47.8026 4.70191C47.9025 4.85249 47.9528 5.02902 47.9535 5.23149L47.9605 7.25249L47.458 7.25423L47.4561 6.691L47.5501 6.72381C47.4879 6.84182 47.4036 6.94519 47.2971 7.03391C47.1907 7.12263 47.0658 7.193 46.9224 7.24503C46.779 7.29707 46.6226 7.32338 46.4533 7.32396ZM48.7567 7.24974L48.7465 4.27346L49.249 4.27172L49.251 4.85152L49.168 4.80211C49.2409 4.61411 49.3582 4.46829 49.5198 4.36466C49.6851 4.25733 49.8782 4.20329 50.0991 4.20252C50.3126 4.20179 50.5024 4.24899 50.6683 4.34413C50.838 4.43925 50.971 4.57132 51.0673 4.74033C51.1673 4.90932 51.2176 5.10058 51.2184 5.31409L51.225 7.24122L50.706 7.24301L50.6999 5.48154C50.6993 5.31588 50.6694 5.17609 50.6101 5.06218C50.5508 4.94826 50.4658 4.86021 50.3552 4.79801C50.2482 4.73211 50.1247 4.69941 49.9848 4.69989C49.845 4.70037 49.7199 4.73394 49.6097 4.80058C49.5032 4.86353 49.4188 4.95401 49.3566 5.07203C49.2944 5.18637 49.2636 5.32452 49.2642 5.48649L49.2703 7.24797L48.7567 7.24974ZM53.0148 7.3013C52.8013 7.30204 52.6078 7.25301 52.4345 7.15421C52.2648 7.0554 52.1318 6.91782 52.0354 6.74145C51.9428 6.56138 51.8961 6.35539 51.8953 6.12347L51.8888 4.2626L52.4024 4.26083L52.4086 6.06648C52.4091 6.21373 52.439 6.34247 52.4983 6.45271C52.5613 6.56293 52.6462 6.64914 52.7532 6.71136C52.8638 6.77356 52.9891 6.80442 53.129 6.80393C53.2689 6.80345 53.3921 6.77173 53.4986 6.70878C53.6089 6.64582 53.6932 6.55534 53.7517 6.43733C53.8139 6.31932 53.8447 6.17932 53.8441 6.01735L53.8381 4.25587L54.3571 4.25408L54.3674 7.23037L53.8649 7.2321L53.8629 6.65231L53.9459 6.70172C53.8766 6.8897 53.7575 7.03736 53.5885 7.14471C53.4232 7.24835 53.232 7.30055 53.0148 7.3013ZM56.0357 7.29087C55.8405 7.29154 55.6674 7.25717 55.5162 7.18774C55.3687 7.11463 55.2524 7.01564 55.1673 6.89077C55.0822 6.76221 55.0394 6.61511 55.0388 6.44945C55.0383 6.29116 55.0709 6.14932 55.1367 6.02393C55.2062 5.89484 55.3126 5.78588 55.4559 5.69703C55.6028 5.60817 55.7867 5.54496 56.0074 5.50738L57.1112 5.32135L57.1126 5.75205L56.1248 5.92112C55.9335 5.95491 55.7938 6.01614 55.7058 6.10479C55.6214 6.19343 55.5794 6.30218 55.5799 6.43102C55.5803 6.5525 55.6285 6.65357 55.7245 6.73423C55.8242 6.81487 55.9476 6.85494 56.0949 6.85443C56.2826 6.85378 56.4445 6.81457 56.5804 6.73679C56.72 6.65532 56.8282 6.54635 56.9051 6.40988C56.9856 6.27339 57.0256 6.12232 57.025 5.95666L57.0224 5.20017C57.0218 5.03819 56.9606 4.90772 56.8388 4.80875C56.7207 4.70608 56.564 4.65508 56.3689 4.65575C56.1996 4.65634 56.0488 4.70104 55.9166 4.78984C55.788 4.87496 55.6927 4.98941 55.6306 5.13319L55.1826 4.90282C55.2373 4.76642 55.3252 4.64463 55.4463 4.53746C55.5674 4.4266 55.7089 4.3396 55.8706 4.27646C56.0324 4.21332 56.2016 4.18145 56.3783 4.18084C56.6066 4.18005 56.8073 4.22353 56.9807 4.31128C57.154 4.39535 57.2887 4.51453 57.385 4.66881C57.4849 4.8194 57.5352 4.99593 57.5359 5.1984L57.5429 7.2194L57.0404 7.22113L57.0385 6.6579L57.1324 6.69071C57.0703 6.80873 56.986 6.91209 56.8795 7.00081C56.7731 7.08953 56.6481 7.15991 56.5047 7.21194C56.3614 7.26397 56.205 7.29028 56.0357 7.29087ZM58.3391 7.21665L58.3247 3.0366L58.8382 3.03482L58.8527 7.21488L58.3391 7.21665Z" fill="#90A3BF"/>
<path d="M69.2303 0.968017C68.1969 0.971586 67.3597 1.8146 67.3633 2.84798C67.3668 3.86163 68.1624 4.67929 69.1959 4.71122C69.2274 4.70716 69.259 4.70705 69.2827 4.71092C69.2906 4.71089 69.2945 4.71088 69.3024 4.71085C69.3063 4.71083 69.3063 4.71083 69.3103 4.71082C70.3199 4.67184 71.1098 3.84871 71.1103 2.83504C71.1067 1.80166 70.2637 0.964448 69.2303 0.968017Z" fill="#90A3BF"/>
<path d="M71.2505 5.75331C70.1476 5.02349 68.353 5.02969 67.2472 5.76714C66.7474 6.10412 66.4729 6.55866 66.4746 7.04379C66.4762 7.52893 66.7539 7.97761 67.252 8.30721C67.8055 8.67605 68.5318 8.85892 69.2576 8.85642C69.9833 8.85391 70.7084 8.66603 71.2593 8.29337C71.7551 7.95639 72.0296 7.5058 72.028 7.01672C72.0223 6.5316 71.7486 6.0829 71.2505 5.75331Z" fill="#90A3BF"/>
<path d="M73.5723 3.05927C73.6381 3.82422 73.0961 4.49661 72.3431 4.58993C72.3391 4.58994 72.3391 4.58994 72.3352 4.58996L72.3233 4.59C72.2997 4.59008 72.276 4.59016 72.2563 4.59812C71.8738 4.61916 71.5223 4.4981 71.2573 4.2742C71.6623 3.90993 71.8931 3.36483 71.8438 2.77336C71.815 2.45398 71.7036 2.16249 71.5371 1.91458C71.6867 1.83912 71.8601 1.79119 72.0375 1.7748C72.8103 1.70508 73.5026 2.27855 73.5723 3.05927Z" fill="#90A3BF"/>
<path d="M74.3737 6.70485C74.3435 7.08754 74.1001 7.4197 73.6906 7.64594C73.297 7.86423 72.8004 7.96849 72.3073 7.95836C72.5904 7.70101 72.7549 7.38096 72.7853 7.04165C72.8231 6.55244 72.5888 6.08388 72.122 5.71079C71.8571 5.50266 71.5488 5.33807 71.2132 5.21695C72.084 4.96152 73.181 5.12733 73.8574 5.6693C74.2212 5.95991 74.4079 6.32608 74.3737 6.70485Z" fill="#90A3BF"/>
<path d="M79.793 7.14267L79.7897 6.19291L77.7687 6.19989L77.7672 5.75262L79.7677 3.02892L80.2868 3.02713L80.2962 5.74388L80.8318 5.74203L80.8333 6.18931L80.2977 6.19116L80.301 7.14092L79.793 7.14267ZM78.1765 5.94447L78.0985 5.75147L79.7882 5.74564L79.7804 3.48167L79.9406 3.5253L78.1765 5.94447ZM82.4686 7.13343L82.4544 3.01964L83.9066 3.01462C84.1791 3.01368 84.4185 3.06439 84.625 3.16676C84.8315 3.26912 84.9922 3.41582 85.1069 3.60685C85.2254 3.79787 85.2851 4.02222 85.286 4.2799C85.2869 4.53759 85.2287 4.76235 85.1116 4.95418C84.9981 5.14232 84.8385 5.29012 84.6327 5.39759C84.4306 5.50137 84.1915 5.55373 83.9154 5.55468L83.0043 5.55783L83.0097 7.13156L82.4686 7.13343ZM83.0026 5.06086L83.9303 5.05766C84.0959 5.05709 84.2394 5.0253 84.3606 4.9623C84.4819 4.8993 84.5755 4.80878 84.6413 4.69075C84.7072 4.57273 84.7398 4.43641 84.7393 4.28179C84.7388 4.1235 84.7052 3.98741 84.6385 3.87352C84.5718 3.75595 84.4776 3.66608 84.356 3.60392C84.2343 3.54176 84.0906 3.51096 83.9249 3.51154L82.9972 3.51474L83.0026 5.06086ZM87.2287 7.18325C86.9415 7.18425 86.6855 7.11703 86.4604 6.9816C86.2354 6.84616 86.0581 6.66087 85.9284 6.42572C85.7987 6.18688 85.7334 5.92021 85.7324 5.62571C85.7313 5.32753 85.793 5.06227 85.9174 4.82992C86.0454 4.59755 86.2178 4.41473 86.4345 4.28146C86.6549 4.14449 86.9014 4.07554 87.1738 4.0746C87.3946 4.07383 87.5899 4.11365 87.7595 4.19405C87.9328 4.27076 88.0786 4.37702 88.1968 4.51282C88.3188 4.64492 88.4113 4.79738 88.4745 4.97018C88.5414 5.13929 88.5751 5.31587 88.5757 5.49993C88.5759 5.54043 88.5724 5.58646 88.5652 5.63802C88.5617 5.68589 88.5563 5.73192 88.5491 5.77612L86.1084 5.78455L86.1069 5.3428L88.2494 5.3354L88.0071 5.53503C88.0396 5.34349 88.0206 5.17238 87.9501 5.02169C87.8796 4.871 87.7762 4.75171 87.6396 4.66383C87.5031 4.57595 87.3484 4.53231 87.1753 4.53291C87.0023 4.53351 86.8442 4.57823 86.7009 4.66708C86.5577 4.75592 86.4458 4.88331 86.3654 5.04925C86.2887 5.21149 86.258 5.40486 86.2735 5.62937C86.2596 5.84661 86.2934 6.03792 86.3749 6.2033C86.4601 6.36498 86.5784 6.49158 86.7296 6.58309C86.8845 6.6709 87.0522 6.7145 87.2326 6.71388C87.4314 6.71319 87.5987 6.6666 87.7346 6.57409C87.8705 6.48159 87.9805 6.36341 88.0647 6.21955L88.4961 6.43894C88.4377 6.57535 88.3461 6.70083 88.2214 6.81538C88.1003 6.92623 87.9551 7.01509 87.786 7.08193C87.6206 7.14877 87.4348 7.18254 87.2287 7.18325ZM90.6647 7.17139C90.3776 7.17238 90.1178 7.10701 89.8854 6.97529C89.653 6.83988 89.4683 6.65462 89.3313 6.41949C89.1943 6.18436 89.1253 5.9177 89.1242 5.61952C89.1232 5.32134 89.1886 5.05606 89.3203 4.82369C89.4557 4.5913 89.6391 4.4066 89.8706 4.26959C90.102 4.13259 90.3631 4.06358 90.654 4.06258C90.9411 4.06158 91.2009 4.12879 91.4333 4.2642C91.6656 4.39592 91.8485 4.57751 91.9818 4.80897C92.1188 5.04042 92.1878 5.30708 92.1889 5.60894C92.1899 5.9108 92.1209 6.17977 91.9818 6.41585C91.8427 6.64826 91.6575 6.83296 91.426 6.96997C91.1983 7.10328 90.9445 7.17042 90.6647 7.17139ZM90.663 6.67442C90.847 6.67378 91.0125 6.6272 91.1595 6.53466C91.3101 6.4421 91.4274 6.31469 91.5116 6.15243C91.5993 5.99015 91.6429 5.80961 91.6422 5.61083C91.6415 5.40836 91.5967 5.22997 91.5078 5.07566C91.4226 4.91766 91.3044 4.79291 91.1531 4.7014C91.0056 4.60619 90.8397 4.55891 90.6557 4.55954C90.4679 4.56019 90.2988 4.60863 90.1482 4.70487C90.0012 4.79741 89.8839 4.92298 89.7961 5.08157C89.7082 5.23649 89.6647 5.41518 89.6654 5.61765C89.6661 5.81644 89.7109 5.99667 89.7998 6.15834C89.8887 6.32001 90.0069 6.4466 90.1545 6.53813C90.3057 6.62964 90.4752 6.67507 90.663 6.67442ZM92.8676 8.2019L92.8535 4.12124L93.356 4.11951L93.3582 4.76004L93.2915 4.63327C93.4014 4.45619 93.5518 4.31578 93.7429 4.21204C93.9339 4.10463 94.1528 4.05049 94.3994 4.04964C94.6792 4.04867 94.9298 4.11591 95.1511 4.25136C95.3761 4.38679 95.5535 4.57208 95.6831 4.80723C95.8128 5.03871 95.8781 5.30353 95.8791 5.60171C95.8801 5.89253 95.8166 6.15596 95.6886 6.39201C95.5606 6.62805 95.3845 6.81457 95.1604 6.95155C94.94 7.08852 94.6881 7.15749 94.4046 7.15847C94.1654 7.1593 93.9461 7.10667 93.747 7.00061C93.5515 6.89452 93.4001 6.74411 93.2926 6.54938L93.3752 6.46074L93.3812 8.20013L92.8676 8.2019ZM94.3643 6.66164C94.552 6.66099 94.7194 6.61439 94.8663 6.52185C95.0132 6.42931 95.1269 6.30376 95.2073 6.14518C95.2915 5.98292 95.3332 5.80239 95.3325 5.6036C95.3318 5.39745 95.2888 5.21722 95.2036 5.0629C95.1221 4.90488 95.0075 4.78012 94.86 4.68859C94.7124 4.59339 94.5447 4.54611 94.357 4.54676C94.1692 4.54741 94 4.59401 93.8494 4.68656C93.7025 4.7791 93.5851 4.90651 93.4973 5.06879C93.4132 5.22738 93.3715 5.4079 93.3722 5.61037C93.3729 5.80916 93.4159 5.98939 93.5011 6.15108C93.59 6.30907 93.7082 6.43382 93.8558 6.52534C94.007 6.61685 94.1765 6.66228 94.3643 6.66164ZM96.5576 7.08477L96.5432 2.90472L97.0567 2.90294L97.0712 7.083L96.5576 7.08477ZM99.2377 7.14178C98.9505 7.14277 98.6944 7.07555 98.4694 6.94012C98.2444 6.80469 98.067 6.6194 97.9374 6.38424C97.8077 6.14541 97.7424 5.87874 97.7414 5.58424C97.7403 5.28606 97.802 5.02079 97.9264 4.78844C98.0544 4.55608 98.2268 4.37326 98.4435 4.23998C98.6639 4.10302 98.9103 4.03406 99.1827 4.03312C99.4036 4.03236 99.5989 4.07218 99.7685 4.15258C99.9418 4.22929 100.088 4.33554 100.206 4.47134C100.328 4.60345 100.42 4.7559 100.483 4.9287C100.55 5.09781 100.584 5.2744 100.585 5.45846C100.585 5.49895 100.581 5.54498 100.574 5.59654C100.571 5.64441 100.565 5.69045 100.558 5.73465L98.1174 5.74308L98.1159 5.30133L100.258 5.29393L100.016 5.49355C100.049 5.30201 100.03 5.1309 99.9591 4.98021C99.8886 4.82952 99.7851 4.71024 99.6486 4.62236C99.5121 4.53448 99.3573 4.49084 99.1843 4.49143C99.0113 4.49203 98.8532 4.53675 98.7099 4.6256C98.5666 4.71445 98.4548 4.84184 98.3744 5.00777C98.2976 5.17001 98.267 5.36339 98.2825 5.58789C98.2685 5.80514 98.3023 5.99645 98.3839 6.16182C98.4691 6.3235 98.5874 6.4501 98.7386 6.54161C98.8935 6.62943 99.0612 6.67302 99.2416 6.6724C99.4403 6.67171 99.6077 6.62512 99.7436 6.53262C99.8795 6.44012 99.9895 6.32194 100.074 6.17807L100.505 6.39746C100.447 6.53387 100.355 6.65935 100.23 6.7739C100.109 6.88476 99.9641 6.97361 99.795 7.04046C99.6296 7.10729 99.4438 7.14107 99.2377 7.14178Z" fill="#90A3BF"/>
<defs>
<clipPath id="clip0_20_6668">
<rect width="9.46611" height="9.46611" fill="white" transform="translate(29.3914 0.31665) rotate(-0.197882)"/>
</clipPath>
</defs>
</svg>
