<svg width="102" height="11" viewBox="0 0 102 11" fill="none" xmlns="http://www.w3.org/2000/svg">
<path d="M9.5532 4.60919L8.76299 4.21749C8.61681 4.147 8.43557 4.20285 8.36508 4.34903C8.29066 4.49917 8.35043 4.67645 8.49662 4.74694L9.12482 5.05637L9.13134 6.94563L7.65228 6.95469L7.63831 2.90795C7.63558 2.11911 7.1057 1.72652 6.45097 1.72878L3.29561 1.73967C2.64088 1.74194 2.11372 2.13818 2.11644 2.92702L2.13858 9.33633L1.54695 9.33837C1.38524 9.33893 1.2516 9.47349 1.25216 9.63521C1.25272 9.79692 1.38728 9.93056 1.54899 9.93L8.25412 9.90684C8.41583 9.90628 8.54947 9.77172 8.54891 9.61C8.54835 9.44829 8.41379 9.31465 8.25207 9.31521L7.66044 9.31726L7.65433 7.54631L9.4292 7.53624C9.59486 7.53567 9.72455 7.40112 9.72399 7.2394L9.71582 4.87289C9.71544 4.76245 9.65198 4.66012 9.5532 4.60919ZM3.10507 3.66906C3.10317 3.12082 3.43775 2.92245 3.84794 2.92104L5.91075 2.91391C6.31701 2.91251 6.65294 3.10856 6.65484 3.6568L6.65651 4.14194C6.65839 4.68624 6.32382 4.88461 5.91362 4.88602L3.85475 4.89313C3.44456 4.89455 3.10862 4.6985 3.10673 4.15026L3.10507 3.66906ZM3.30958 5.78247L4.49283 5.77838C4.65455 5.77782 4.78911 5.91146 4.78967 6.07317C4.79023 6.23489 4.65659 6.36945 4.49488 6.37001L3.31162 6.3741C3.14991 6.37466 3.01534 6.24102 3.01478 6.0793C3.01423 5.91759 3.14786 5.78303 3.30958 5.78247Z" fill="#90A3BF"/>
<path d="M14.3256 7.97904C14.0495 7.97999 13.8045 7.92562 13.5906 7.81592C13.3804 7.7062 13.2142 7.55769 13.0921 7.37036C12.9736 7.17934 12.914 6.96604 12.9132 6.73044C12.9122 6.46539 12.9851 6.23321 13.1316 6.03392C13.2782 5.83462 13.4802 5.6922 13.7376 5.60664L13.727 5.74472C13.5316 5.66809 13.3784 5.5453 13.2674 5.37634C13.1601 5.20369 13.106 5.01797 13.1053 4.81918C13.1046 4.60935 13.1555 4.42327 13.258 4.26094C13.3642 4.0986 13.5074 3.9711 13.6874 3.87845C13.8712 3.7821 14.079 3.73352 14.3109 3.73272C14.5428 3.73192 14.7491 3.77722 14.9298 3.86863C15.1105 3.96004 15.2527 4.08839 15.3563 4.25369C15.4637 4.4153 15.5177 4.60102 15.5184 4.81085C15.5191 5.02068 15.4627 5.20862 15.3492 5.37467C15.2393 5.54071 15.0925 5.66454 14.9087 5.74616L14.8916 5.60265C15.1533 5.68642 15.3581 5.82928 15.506 6.03124C15.654 6.22952 15.7284 6.45934 15.7293 6.72071C15.7301 6.95631 15.6701 7.17003 15.5493 7.36188C15.4321 7.55003 15.267 7.69969 15.0539 7.81086C14.8444 7.92203 14.6017 7.97808 14.3256 7.97904ZM14.3239 7.50968C14.497 7.50908 14.6478 7.47543 14.7764 7.40872C14.905 7.34201 15.0041 7.24964 15.0736 7.1316C15.1468 7.00986 15.1832 6.87169 15.1826 6.71708C15.1821 6.55878 15.1448 6.42086 15.0708 6.30332C15.0004 6.18208 14.9007 6.09039 14.7716 6.02825C14.6425 5.96244 14.4915 5.92983 14.3185 5.93042C14.1455 5.93102 13.9928 5.96468 13.8605 6.0314C13.7319 6.09443 13.6328 6.1868 13.5633 6.30852C13.4937 6.42657 13.4593 6.56473 13.4598 6.72303C13.4603 6.87764 13.4958 7.01556 13.5661 7.1368C13.6365 7.25436 13.7362 7.34605 13.8653 7.41187C13.998 7.47767 14.1509 7.51028 14.3239 7.50968ZM14.3169 5.46107C14.442 5.46063 14.5524 5.43264 14.6479 5.37709C14.7471 5.32153 14.826 5.24763 14.8846 5.1554C14.9431 5.05948 14.9722 4.94894 14.9718 4.82378C14.9713 4.69862 14.9415 4.59012 14.8823 4.4983C14.8231 4.40647 14.7437 4.33496 14.6441 4.28376C14.5482 4.22888 14.4377 4.20165 14.3125 4.20208C14.1837 4.20253 14.0696 4.23053 13.9704 4.28609C13.8712 4.33797 13.7923 4.41003 13.7337 4.50226C13.6752 4.5945 13.6461 4.7032 13.6465 4.82836C13.647 4.95352 13.6768 5.06386 13.736 5.15937C13.7952 5.25119 13.8746 5.32454 13.9742 5.37942C14.0738 5.4343 14.188 5.46151 14.3169 5.46107ZM18.0633 7.96613C17.7357 7.96726 17.4483 7.8799 17.201 7.70405C16.9574 7.52451 16.767 7.27668 16.6297 6.96057C16.4924 6.64077 16.423 6.2692 16.4215 5.84585C16.4201 5.42251 16.4869 5.05231 16.622 4.73525C16.7571 4.41451 16.9458 4.16538 17.1882 3.98784C17.4305 3.8103 17.7155 3.72096 18.0432 3.71983C18.3708 3.7187 18.6564 3.80606 18.9 3.98192C19.1435 4.15779 19.334 4.40561 19.4713 4.72541C19.6123 5.04152 19.6835 5.41124 19.685 5.83458C19.6864 6.25793 19.6196 6.62997 19.4845 6.95071C19.3494 7.27144 19.1588 7.52059 18.9128 7.69814C18.6704 7.87568 18.3873 7.96501 18.0633 7.96613ZM18.0616 7.46364C18.2825 7.46287 18.4737 7.39595 18.6352 7.26287C18.7967 7.1261 18.9212 6.93609 19.0087 6.69282C19.0999 6.44954 19.1449 6.16408 19.1438 5.83645C19.1427 5.50882 19.0957 5.22368 19.0028 4.98104C18.9136 4.73838 18.786 4.55108 18.6199 4.41912C18.4574 4.28716 18.2658 4.22156 18.0449 4.22232C17.824 4.22308 17.6328 4.29001 17.4713 4.42309C17.3098 4.55618 17.1834 4.74436 17.0922 4.98764C17.0047 5.23091 16.9615 5.51635 16.9627 5.84398C16.9638 6.16793 17.0089 6.45124 17.0981 6.69389C17.191 6.93654 17.3187 7.12568 17.4811 7.26133C17.6472 7.39696 17.8407 7.4644 18.0616 7.46364ZM20.5128 7.8914L20.4986 3.77761L21.0397 3.77575L21.0522 7.39257L22.8579 7.38633L22.8596 7.8833L20.5128 7.8914Z" fill="#90A3BF"/>
<path d="M34.652 1.6314C32.4748 1.63892 30.7139 3.41202 30.7214 5.58921C30.729 7.7664 32.5021 9.5273 34.6793 9.51978C36.8565 9.51226 38.6173 7.73916 38.6098 5.56196C38.6023 3.38477 36.8332 1.62386 34.652 1.6314Z" fill="#90A3BF"/>
<rect x="31.4993" y="2.43127" width="6.31074" height="6.31074" rx="3.15537" transform="rotate(-0.197882 31.4993 2.43127)" fill="white"/>
<path d="M34.6574 3.20899C33.3511 3.2135 32.2946 4.27736 32.2991 5.58368C32.3036 6.88999 33.3674 7.94653 34.6738 7.94202C35.9801 7.93751 37.0366 6.87365 37.0321 5.56733C37.0276 4.26101 35.9661 3.20447 34.6574 3.20899Z" fill="#90A3BF"/>
<rect x="33.0825" y="4.0033" width="3.15537" height="3.15537" rx="1.57769" transform="rotate(-0.197882 33.0825 4.0033)" fill="white"/>
<rect x="34.278" y="7.54907" width="0.788843" height="1.57769" transform="rotate(-0.197882 34.278 7.54907)" fill="#90A3BF"/>
<rect x="36.6363" y="5.17432" width="1.57769" height="0.788843" transform="rotate(-0.197882 36.6363 5.17432)" fill="#90A3BF"/>
<rect x="31.1144" y="5.19348" width="1.57769" height="0.788843" transform="rotate(-0.197882 31.1144 5.19348)" fill="#90A3BF"/>
<path d="M41.4425 7.81905L41.4282 3.70526L41.9252 3.70355L43.4734 5.89041L43.2194 5.89128L44.7414 3.69382L45.2383 3.6921L45.2525 7.8059L44.7059 7.80778L44.694 4.3787L44.8875 4.43878L43.3654 6.59759L43.3212 6.59774L41.8008 4.44944L41.9718 4.38811L41.9836 7.81719L41.4425 7.81905ZM46.9782 7.8662C46.7831 7.86687 46.6099 7.8325 46.4588 7.76308C46.3113 7.68996 46.195 7.59097 46.1099 7.4661C46.0247 7.33755 45.9819 7.19044 45.9813 7.02479C45.9808 6.86649 46.0134 6.72465 46.0792 6.59926C46.1487 6.47017 46.2551 6.36121 46.3984 6.27236C46.5453 6.1835 46.7292 6.12029 46.9499 6.08271L48.0537 5.89668L48.0552 6.32738L47.0673 6.49645C46.876 6.53024 46.7363 6.59147 46.6483 6.68012C46.5639 6.76876 46.522 6.87751 46.5224 7.00635C46.5228 7.12783 46.571 7.2289 46.667 7.30956C46.7667 7.3902 46.8902 7.43027 47.0374 7.42976C47.2252 7.42911 47.387 7.3899 47.5229 7.31212C47.6625 7.23065 47.7708 7.12168 47.8476 6.98521C47.9281 6.84872 47.9681 6.69765 47.9675 6.532L47.9649 5.7755C47.9643 5.61353 47.9032 5.48305 47.7813 5.38408C47.6632 5.28141 47.5065 5.23041 47.3114 5.23109C47.1421 5.23167 46.9913 5.27637 46.8591 5.36517C46.7306 5.45029 46.6352 5.56474 46.5731 5.70852L46.1251 5.47815C46.1798 5.34175 46.2678 5.21997 46.3889 5.11279C46.51 5.00193 46.6514 4.91493 46.8132 4.85179C46.9749 4.78865 47.1441 4.75678 47.3208 4.75617C47.5491 4.75538 47.7499 4.79886 47.9232 4.88661C48.0965 4.97068 48.2313 5.08986 48.3275 5.24414C48.4274 5.39473 48.4777 5.57126 48.4784 5.77373L48.4854 7.79473L47.9829 7.79647L47.981 7.23323L48.075 7.26604C48.0128 7.38406 47.9285 7.48743 47.822 7.57614C47.7156 7.66486 47.5907 7.73524 47.4473 7.78727C47.3039 7.8393 47.1475 7.86561 46.9782 7.8662ZM49.2816 7.79198L49.2714 4.81569L49.7739 4.81396L49.7759 5.39375L49.6929 5.34434C49.7658 5.15635 49.8831 5.01053 50.0448 4.9069C50.21 4.79957 50.4031 4.74552 50.624 4.74476C50.8375 4.74402 51.0273 4.79122 51.1932 4.88636C51.3629 4.98149 51.4959 5.11356 51.5922 5.28256C51.6922 5.45156 51.7425 5.64281 51.7433 5.85632L51.7499 7.78346L51.2309 7.78525L51.2248 6.02377C51.2242 5.85812 51.1943 5.71833 51.135 5.60442C51.0757 5.4905 50.9907 5.40244 50.8801 5.34024C50.7731 5.27435 50.6496 5.24164 50.5098 5.24213C50.3699 5.24261 50.2448 5.27617 50.1346 5.34282C50.0281 5.40577 49.9437 5.49625 49.8815 5.61427C49.8194 5.7286 49.7885 5.86676 49.7891 6.02873L49.7952 7.79021L49.2816 7.79198ZM53.5397 7.84354C53.3262 7.84427 53.1327 7.79525 52.9594 7.69645C52.7897 7.59764 52.6567 7.46005 52.5603 7.28368C52.4677 7.10362 52.421 6.89763 52.4202 6.66571L52.4137 4.80484L52.9273 4.80307L52.9335 6.60872C52.934 6.75597 52.9639 6.88471 53.0232 6.99494C53.0862 7.10516 53.1711 7.19138 53.2781 7.25359C53.3888 7.31579 53.514 7.34665 53.6539 7.34617C53.7938 7.34569 53.917 7.31397 54.0235 7.25102C54.1338 7.18806 54.2181 7.09757 54.2766 6.97957C54.3388 6.86155 54.3696 6.72156 54.369 6.55958L54.363 4.79811L54.882 4.79632L54.8923 7.7726L54.3898 7.77434L54.3878 7.19454L54.4708 7.24395C54.4015 7.43194 54.2824 7.5796 54.1134 7.68694C53.9481 7.79059 53.7569 7.84279 53.5397 7.84354ZM56.5606 7.8331C56.3655 7.83378 56.1923 7.7994 56.0411 7.72998C55.8936 7.65686 55.7773 7.55787 55.6922 7.433C55.6071 7.30445 55.5643 7.15735 55.5637 6.99169C55.5632 6.8334 55.5958 6.69156 55.6616 6.56616C55.7311 6.43708 55.8375 6.32811 55.9808 6.23927C56.1277 6.15041 56.3116 6.08719 56.5323 6.04962L57.6361 5.86358L57.6375 6.29429L56.6497 6.46336C56.4584 6.49715 56.3187 6.55837 56.2307 6.64703C56.1463 6.73567 56.1043 6.84441 56.1048 6.97326C56.1052 7.09474 56.1534 7.19581 56.2494 7.27646C56.3491 7.35711 56.4725 7.39718 56.6198 7.39667C56.8075 7.39602 56.9694 7.35681 57.1053 7.27903C57.2449 7.19756 57.3531 7.08859 57.43 6.95211C57.5105 6.81563 57.5505 6.66456 57.5499 6.4989L57.5473 5.74241C57.5467 5.58043 57.4855 5.44996 57.3637 5.35098C57.2456 5.24831 57.0889 5.19732 56.8938 5.19799C56.7245 5.19858 56.5737 5.24327 56.4415 5.33208C56.3129 5.41719 56.2176 5.53164 56.1555 5.67543L55.7075 5.44505C55.7622 5.30866 55.8501 5.18687 55.9712 5.07969C56.0923 4.96884 56.2338 4.88184 56.3955 4.8187C56.5573 4.75556 56.7265 4.72368 56.9032 4.72307C57.1315 4.72228 57.3322 4.76577 57.5056 4.85352C57.6789 4.93759 57.8137 5.05677 57.9099 5.21105C58.0098 5.36164 58.0601 5.53816 58.0608 5.74063L58.0678 7.76163L57.5653 7.76337L57.5634 7.20014L57.6573 7.23295C57.5952 7.35096 57.5109 7.45433 57.4044 7.54305C57.298 7.63177 57.173 7.70214 57.0296 7.75418C56.8863 7.80621 56.7299 7.83252 56.5606 7.8331ZM58.864 7.75888L58.8496 3.57883L59.3631 3.57706L59.3776 7.75711L58.864 7.75888Z" fill="#90A3BF"/>
<path d="M69.7553 1.51025C68.7219 1.51382 67.8847 2.35684 67.8882 3.39021C67.8917 4.40387 68.6874 5.22152 69.7209 5.25345C69.7524 5.2494 69.784 5.24929 69.8076 5.25315C69.8155 5.25313 69.8195 5.25311 69.8274 5.25308C69.8313 5.25307 69.8313 5.25307 69.8352 5.25306C70.8448 5.21407 71.6348 4.39094 71.6352 3.37727C71.6317 2.3439 70.7886 1.50668 69.7553 1.51025Z" fill="#90A3BF"/>
<path d="M71.7754 6.29555C70.6725 5.56573 68.8779 5.57192 67.7721 6.30937C67.2723 6.64636 66.9978 7.10089 66.9995 7.58603C67.0011 8.07116 67.2788 8.51985 67.7769 8.84944C68.3304 9.21829 69.0567 9.40116 69.7825 9.39865C70.5082 9.39615 71.2333 9.20826 71.7842 8.8356C72.28 8.49863 72.5545 8.04804 72.5529 7.55896C72.5472 7.07384 72.2735 6.62514 71.7754 6.29555Z" fill="#90A3BF"/>
<path d="M74.0972 3.6015C74.163 4.36646 73.621 5.03885 72.868 5.13217C72.864 5.13218 72.864 5.13218 72.8601 5.13219L72.8482 5.13224C72.8246 5.13232 72.8009 5.1324 72.7812 5.14035C72.3987 5.1614 72.0472 5.04034 71.7822 4.81643C72.1872 4.45217 72.418 3.90706 72.3687 3.3156C72.3399 2.99621 72.2285 2.70473 72.062 2.45681C72.2116 2.38136 72.385 2.33343 72.5624 2.31704C73.3352 2.24732 74.0275 2.82078 74.0972 3.6015Z" fill="#90A3BF"/>
<path d="M74.8986 7.24709C74.8684 7.62978 74.625 7.96194 74.2155 8.18817C73.8219 8.40647 73.3253 8.51073 72.8322 8.5006C73.1153 8.24325 73.2798 7.9232 73.3102 7.58389C73.348 7.09467 73.1137 6.62612 72.6469 6.25303C72.382 6.0449 72.0737 5.8803 71.7381 5.75919C72.6089 5.50375 73.7059 5.66957 74.3823 6.21153C74.7461 6.50215 74.9328 6.86832 74.8986 7.24709Z" fill="#90A3BF"/>
<path d="M79.7218 7.75323C79.4568 7.75414 79.221 7.69606 79.0144 7.57897C78.8115 7.46187 78.6509 7.30229 78.5324 7.10023C78.4138 6.89448 78.3541 6.66093 78.3532 6.39956C78.3527 6.25599 78.3688 6.11421 78.4015 5.97421C78.4341 5.8342 78.487 5.69229 78.5601 5.54847C78.6333 5.40465 78.7266 5.25523 78.8402 5.10023L79.9945 3.57218L80.6461 3.56993L79.2334 5.41914L79.1339 5.40844C79.1889 5.33462 79.2494 5.27735 79.3156 5.23663C79.3854 5.1959 79.4589 5.16619 79.5361 5.14752C79.617 5.12883 79.7017 5.11934 79.79 5.11903C80.033 5.11819 80.2504 5.1745 80.4422 5.28796C80.6377 5.39772 80.791 5.54997 80.9021 5.74469C81.0169 5.9394 81.0747 6.16376 81.0756 6.41777C81.0765 6.67177 81.0184 6.90021 80.9013 7.10309C80.7842 7.30228 80.6227 7.46114 80.417 7.57965C80.2149 7.69447 79.9832 7.75233 79.7218 7.75323ZM79.7201 7.26731C79.8748 7.26677 80.0127 7.23132 80.1339 7.16096C80.2552 7.08691 80.3505 6.98535 80.42 6.85627C80.4932 6.72717 80.5295 6.58347 80.529 6.42518C80.5284 6.25952 80.4929 6.11607 80.4226 5.99483C80.3522 5.86991 80.2561 5.77085 80.1344 5.69765C80.0127 5.62444 79.8726 5.58811 79.7144 5.58866C79.5597 5.58919 79.42 5.62649 79.2951 5.70054C79.1702 5.7746 79.073 5.87433 79.0034 5.99974C78.9339 6.12146 78.8994 6.26515 78.9 6.4308C78.9006 6.5891 78.936 6.73255 79.0064 6.86115C79.0805 6.98974 79.1784 7.09063 79.3001 7.16384C79.4255 7.23335 79.5655 7.26784 79.7201 7.26731ZM82.7779 7.67641L82.7637 3.56262L84.2159 3.55761C84.4883 3.55666 84.7278 3.60738 84.9343 3.70974C85.1408 3.8121 85.3014 3.9588 85.4162 4.14983C85.5347 4.34085 85.5943 4.5652 85.5952 4.82289C85.5961 5.08057 85.538 5.30533 85.4209 5.49716C85.3074 5.6853 85.1478 5.8331 84.942 5.94057C84.7399 6.04435 84.5008 6.09671 84.2247 6.09766L83.3136 6.10081L83.319 7.67454L82.7779 7.67641ZM83.3119 5.60384L84.2395 5.60064C84.4052 5.60007 84.5486 5.56828 84.6699 5.50528C84.7912 5.44228 84.8847 5.35176 84.9506 5.23374C85.0164 5.11571 85.0491 4.97939 85.0486 4.82477C85.048 4.66648 85.0144 4.53039 84.9478 4.4165C84.8811 4.29893 84.7869 4.20906 84.6652 4.1469C84.5435 4.08474 84.3998 4.05394 84.2342 4.05452L83.3065 4.05772L83.3119 5.60384ZM87.5379 7.72623C87.2508 7.72723 86.9947 7.66001 86.7697 7.52458C86.5447 7.38915 86.3673 7.20385 86.2377 6.9687C86.108 6.72986 86.0427 6.4632 86.0416 6.1687C86.0406 5.87051 86.1023 5.60525 86.2266 5.3729C86.3547 5.14054 86.5271 4.95772 86.7438 4.82444C86.9642 4.68747 87.2106 4.61852 87.483 4.61758C87.7039 4.61681 87.8991 4.65663 88.0688 4.73704C88.2421 4.81374 88.3878 4.92 88.5061 5.0558C88.628 5.1879 88.7206 5.34036 88.7838 5.51316C88.8506 5.68227 88.8844 5.85885 88.885 6.04291C88.8851 6.08341 88.8816 6.12944 88.8744 6.181C88.8709 6.22887 88.8656 6.2749 88.8583 6.3191L86.4177 6.32753L86.4162 5.88578L88.5586 5.87838L88.3164 6.07801C88.3488 5.88647 88.3298 5.71536 88.2594 5.56467C88.1889 5.41398 88.0854 5.29469 87.9489 5.20681C87.8124 5.11893 87.6576 5.07529 87.4846 5.07589C87.3116 5.07649 87.1535 5.12121 87.0102 5.21006C86.8669 5.2989 86.7551 5.42629 86.6747 5.59223C86.5979 5.75447 86.5673 5.94784 86.5828 6.17235C86.5688 6.38959 86.6026 6.5809 86.6842 6.74628C86.7694 6.90796 86.8876 7.03456 87.0389 7.12607C87.1938 7.21388 87.3615 7.25748 87.5418 7.25686C87.7406 7.25617 87.908 7.20958 88.0439 7.11707C88.1797 7.02457 88.2898 6.90639 88.3739 6.76253L88.8054 6.98192C88.747 7.11833 88.6554 7.24381 88.5306 7.35836C88.4095 7.46922 88.2644 7.55807 88.0953 7.62491C87.9299 7.69175 87.7441 7.72552 87.5379 7.72623ZM90.974 7.71437C90.6868 7.71536 90.4271 7.64999 90.1947 7.51827C89.9623 7.38286 89.7776 7.1976 89.6406 6.96247C89.5036 6.72734 89.4345 6.46068 89.4335 6.1625C89.4325 5.86432 89.4978 5.59904 89.6295 5.36667C89.765 5.13428 89.9484 4.94958 90.1798 4.81257C90.4113 4.67557 90.6724 4.60656 90.9632 4.60556C91.2504 4.60457 91.5101 4.67177 91.7425 4.80718C91.9749 4.9389 92.1577 5.12049 92.2911 5.35195C92.4281 5.5834 92.4971 5.85006 92.4981 6.15192C92.4992 6.45378 92.4302 6.72275 92.2911 6.95884C92.152 7.19124 91.9667 7.37594 91.7353 7.51295C91.5075 7.64626 91.2537 7.7134 90.974 7.71437ZM90.9722 7.2174C91.1563 7.21676 91.3218 7.17018 91.4687 7.07764C91.6194 6.98508 91.7367 6.85767 91.8208 6.69541C91.9086 6.53313 91.9522 6.35259 91.9515 6.15381C91.9508 5.95134 91.906 5.77295 91.8171 5.61864C91.7319 5.46064 91.6137 5.33589 91.4624 5.24438C91.3148 5.14917 91.149 5.10189 90.9649 5.10252C90.7772 5.10317 90.608 5.15161 90.4574 5.24785C90.3105 5.34039 90.1931 5.46596 90.1053 5.62456C90.0175 5.77947 89.974 5.95817 89.9747 6.16063C89.9753 6.35942 90.0201 6.53965 90.109 6.70132C90.198 6.86299 90.3162 6.98959 90.4638 7.08111C90.615 7.17262 90.7845 7.21805 90.9722 7.2174ZM93.1769 8.74488L93.1628 4.66422L93.6653 4.66249L93.6675 5.30302L93.6008 5.17625C93.7106 4.99917 93.8611 4.85876 94.0521 4.75502C94.2432 4.64761 94.462 4.59347 94.7087 4.59262C94.9885 4.59166 95.239 4.65889 95.4604 4.79434C95.6854 4.92977 95.8627 5.11506 95.9924 5.35021C96.122 5.58169 96.1874 5.84651 96.1884 6.1447C96.1894 6.43551 96.1259 6.69895 95.9979 6.93499C95.8698 7.17103 95.6938 7.35755 95.4697 7.49453C95.2493 7.6315 94.9974 7.70047 94.7139 7.70145C94.4746 7.70228 94.2554 7.64966 94.0563 7.54359C93.8608 7.4375 93.7093 7.28709 93.6019 7.09236L93.6844 7.00372L93.6904 8.74311L93.1769 8.74488ZM94.6735 7.20462C94.8613 7.20397 95.0286 7.15737 95.1756 7.06483C95.3225 6.97229 95.4362 6.84674 95.5166 6.68817C95.6007 6.5259 95.6424 6.34537 95.6417 6.14658C95.641 5.94043 95.5981 5.7602 95.5129 5.60588C95.4313 5.44787 95.3168 5.3231 95.1692 5.23157C95.0216 5.13637 94.854 5.08909 94.6662 5.08974C94.4785 5.09039 94.3093 5.13699 94.1587 5.22954C94.0118 5.32208 93.8944 5.44949 93.8066 5.61177C93.7225 5.77036 93.6808 5.95089 93.6815 6.15335C93.6822 6.35214 93.7251 6.53238 93.8104 6.69406C93.8992 6.85205 94.0175 6.9768 94.165 7.06832C94.3163 7.15983 94.4858 7.20526 94.6735 7.20462ZM96.8669 7.62775L96.8525 3.4477L97.366 3.44593L97.3804 7.62598L96.8669 7.62775ZM99.5469 7.68476C99.2598 7.68575 99.0037 7.61853 98.7787 7.4831C98.5536 7.34767 98.3763 7.16238 98.2467 6.92722C98.117 6.68839 98.0516 6.42172 98.0506 6.12722C98.0496 5.82904 98.1113 5.56377 98.2356 5.33142C98.3637 5.09906 98.536 4.91624 98.7528 4.78297C98.9732 4.646 99.2196 4.57704 99.492 4.5761C99.7129 4.57534 99.9081 4.61516 100.078 4.69556C100.251 4.77227 100.397 4.87852 100.515 5.01432C100.637 5.14643 100.73 5.29888 100.793 5.47168C100.86 5.64079 100.893 5.81738 100.894 6.00144C100.894 6.04193 100.891 6.08796 100.883 6.13952C100.88 6.18739 100.875 6.23343 100.867 6.27763L98.4267 6.28606L98.4251 5.84431L100.568 5.83691L100.325 6.03653C100.358 5.845 100.339 5.67388 100.268 5.52319C100.198 5.3725 100.094 5.25322 99.9579 5.16534C99.8214 5.07746 99.6666 5.03382 99.4936 5.03442C99.3206 5.03501 99.1624 5.07974 99.0192 5.16858C98.8759 5.25743 98.7641 5.38482 98.6837 5.55075C98.6069 5.71299 98.5763 5.90637 98.5918 6.13087C98.5778 6.34812 98.6116 6.53943 98.6932 6.7048C98.7784 6.86649 98.8966 6.99308 99.0479 7.08459C99.2028 7.17241 99.3704 7.216 99.5508 7.21538C99.7496 7.21469 99.9169 7.1681 100.053 7.0756C100.189 6.9831 100.299 6.86492 100.383 6.72106L100.814 6.94044C100.756 7.07685 100.664 7.20233 100.54 7.31688C100.418 7.42774 100.273 7.51659 100.104 7.58344C99.9389 7.65027 99.7531 7.68405 99.5469 7.68476Z" fill="#90A3BF"/>
</svg>
