<svg width="102" height="10" viewBox="0 0 102 10" fill="none" xmlns="http://www.w3.org/2000/svg">
<path d="M9.07804 4.15167L8.28784 3.75997C8.14166 3.68948 7.96041 3.74533 7.88992 3.89151C7.8155 4.04165 7.87528 4.21893 8.02146 4.28942L8.64966 4.59885L8.65618 6.48811L7.17713 6.49717L7.16315 2.45043C7.16043 1.66159 6.63054 1.269 5.97581 1.27126L2.82046 1.28216C2.16572 1.28442 1.63856 1.68066 1.64129 2.4695L1.66342 8.87881L1.07179 8.88085C0.910081 8.88141 0.776442 9.01597 0.777 9.17769C0.777559 9.3394 0.912124 9.47304 1.07384 9.47248L7.77896 9.44932C7.94067 9.44876 8.07431 9.3142 8.07375 9.15249C8.07319 8.99077 7.93863 8.85713 7.77691 8.85769L7.18529 8.85974L7.17917 7.08879L8.95404 7.07872C9.1197 7.07815 9.24939 6.9436 9.24883 6.78188L9.24066 4.41537C9.24028 4.30493 9.17682 4.2026 9.07804 4.15167ZM2.62991 3.21154C2.62801 2.6633 2.96259 2.46494 3.37278 2.46352L5.43559 2.45639C5.84185 2.45499 6.17778 2.65104 6.17968 3.19928L6.18135 3.68442C6.18323 4.22872 5.84866 4.42709 5.43846 4.4285L3.3796 4.43561C2.9694 4.43703 2.63346 4.24098 2.63157 3.69274L2.62991 3.21154ZM2.83442 5.32495L4.01767 5.32086C4.17939 5.3203 4.31395 5.45394 4.31451 5.61566C4.31507 5.77737 4.18143 5.91193 4.01972 5.91249L2.83646 5.91658C2.67475 5.91714 2.54018 5.7835 2.53963 5.62179C2.53907 5.46007 2.67271 5.32551 2.83442 5.32495Z" fill="#90A3BF"/>
<path d="M12.8176 7.45882L14.2303 5.60409L14.3297 5.6148C14.2748 5.68861 14.2142 5.74772 14.1481 5.79212C14.082 5.83285 14.0085 5.86255 13.9276 5.88124C13.8503 5.89991 13.7657 5.90941 13.6737 5.90972C13.4307 5.91056 13.2115 5.8561 13.016 5.74634C12.8242 5.63288 12.6709 5.47879 12.5561 5.28408C12.4449 5.08568 12.3889 4.85947 12.3881 4.60547C12.3872 4.35146 12.4453 4.12486 12.5624 3.92567C12.6795 3.72647 12.841 3.56946 13.0467 3.45463C13.2525 3.33612 13.4842 3.27642 13.7419 3.27553C14.0069 3.27461 14.2409 3.3327 14.4438 3.4498C14.6503 3.56321 14.8128 3.72279 14.9313 3.92853C15.0498 4.13059 15.1095 4.36415 15.1105 4.62919C15.111 4.77276 15.0949 4.91455 15.0622 5.05455C15.0296 5.19455 14.9767 5.33646 14.9036 5.48029C14.8341 5.6241 14.7408 5.77351 14.6235 5.92853L13.4692 7.45657L12.8176 7.45882ZM13.7493 5.43458C13.9076 5.43403 14.0474 5.39857 14.1686 5.32821C14.2935 5.25415 14.3907 5.15442 14.4602 5.02902C14.5297 4.89993 14.5642 4.75625 14.5637 4.59795C14.5631 4.4323 14.5258 4.28701 14.4517 4.16211C14.3814 4.03718 14.2853 3.93812 14.1636 3.86492C14.0418 3.79171 13.9018 3.75538 13.7435 3.75593C13.5889 3.75646 13.451 3.79375 13.3298 3.8678C13.2085 3.94184 13.1113 4.04157 13.0381 4.16699C12.9686 4.29239 12.9342 4.43792 12.9347 4.60358C12.9353 4.76187 12.9707 4.90532 13.0411 5.03392C13.1115 5.15884 13.2076 5.2579 13.3293 5.33111C13.4547 5.40062 13.5947 5.43511 13.7493 5.43458ZM17.421 7.50919C17.0934 7.51032 16.8059 7.42296 16.5587 7.24711C16.3151 7.06757 16.1247 6.81974 15.9874 6.50362C15.8501 6.18383 15.7807 5.81225 15.7792 5.38891C15.7777 4.96557 15.8446 4.59537 15.9797 4.27831C16.1148 3.95757 16.3035 3.70843 16.5459 3.53089C16.7882 3.35336 17.0732 3.26402 17.4008 3.26289C17.7285 3.26176 18.0141 3.34912 18.2576 3.52498C18.5012 3.70084 18.6917 3.94867 18.829 4.26847C18.9699 4.58457 19.0412 4.9543 19.0426 5.37764C19.0441 5.80098 18.9773 6.17302 18.8422 6.49376C18.7071 6.8145 18.5165 7.06365 18.2705 7.2412C18.0281 7.41874 17.745 7.50807 17.421 7.50919ZM17.4193 7.0067C17.6402 7.00593 17.8314 6.93901 17.9929 6.80592C18.1544 6.66916 18.2789 6.47914 18.3664 6.23588C18.4576 5.9926 18.5026 5.70714 18.5015 5.37951C18.5004 5.05188 18.4534 4.76674 18.3605 4.5241C18.2713 4.28144 18.1436 4.09414 17.9775 3.96218C17.8151 3.83022 17.6234 3.76462 17.4026 3.76538C17.1817 3.76614 16.9905 3.83307 16.829 3.96615C16.6675 4.09923 16.5411 4.28742 16.4499 4.5307C16.3624 4.77396 16.3192 5.05941 16.3203 5.38704C16.3215 5.71099 16.3666 5.9943 16.4558 6.23695C16.5487 6.4796 16.6763 6.66874 16.8388 6.80439C17.0049 6.94002 17.1984 7.00746 17.4193 7.0067ZM19.8705 7.43446L19.8563 3.32067L20.3974 3.3188L20.4099 6.93563L22.2155 6.92939L22.2173 7.42636L19.8705 7.43446Z" fill="#90A3BF"/>
<g clip-path="url(#clip0_20_6725)">
<path d="M34.1767 1.17376C31.9995 1.18128 30.2386 2.95437 30.2462 5.13157C30.2537 7.30876 32.0268 9.06965 34.204 9.06214C36.3812 9.05462 38.1421 7.28152 38.1345 5.10432C38.127 2.92713 36.3579 1.16622 34.1767 1.17376Z" fill="#90A3BF"/>
<rect x="31.0242" y="1.97351" width="6.31074" height="6.31074" rx="3.15537" transform="rotate(-0.197882 31.0242 1.97351)" fill="white"/>
<path d="M34.1822 2.75135C32.8759 2.75586 31.8193 3.81972 31.8238 5.12604C31.8284 6.43235 32.8922 7.48889 34.1985 7.48438C35.5048 7.47986 36.5614 6.416 36.5569 5.10969C36.5524 3.80337 35.4909 2.74683 34.1822 2.75135Z" fill="#90A3BF"/>
<rect x="32.6072" y="3.54565" width="3.15537" height="3.15537" rx="1.57769" transform="rotate(-0.197882 32.6072 3.54565)" fill="white"/>
<rect x="33.8027" y="7.09131" width="0.788843" height="1.57769" transform="rotate(-0.197882 33.8027 7.09131)" fill="#90A3BF"/>
<rect x="36.161" y="4.71667" width="1.57769" height="0.788843" transform="rotate(-0.197882 36.161 4.71667)" fill="#90A3BF"/>
<rect x="30.6393" y="4.73584" width="1.57769" height="0.788843" transform="rotate(-0.197882 30.6393 4.73584)" fill="#90A3BF"/>
</g>
<path d="M40.9672 7.36153L40.953 3.24774L41.4499 3.24603L42.9981 5.43289L42.7441 5.43377L44.2661 3.2363L44.7631 3.23459L44.7773 7.34838L44.2306 7.35026L44.2188 3.92118L44.4122 3.98126L42.8901 6.14007L42.8459 6.14022L41.3255 3.99192L41.4965 3.93059L41.5083 7.35967L40.9672 7.36153ZM46.5029 7.40868C46.3078 7.40935 46.1347 7.37498 45.9835 7.30556C45.836 7.23244 45.7197 7.13345 45.6346 7.00858C45.5495 6.88003 45.5066 6.73292 45.506 6.56727C45.5055 6.40897 45.5381 6.26713 45.604 6.14174C45.6735 6.01265 45.7798 5.90369 45.9231 5.81484C46.0701 5.72598 46.2539 5.66277 46.4747 5.62519L47.5784 5.43916L47.5799 5.86986L46.592 6.03893C46.4007 6.07272 46.2611 6.13395 46.173 6.2226C46.0886 6.31125 46.0467 6.41999 46.0471 6.54883C46.0475 6.67031 46.0958 6.77138 46.1917 6.85204C46.2914 6.93268 46.4149 6.97275 46.5621 6.97224C46.7499 6.97159 46.9117 6.93238 47.0477 6.8546C47.1873 6.77313 47.2955 6.66416 47.3723 6.52769C47.4528 6.3912 47.4928 6.24013 47.4922 6.07448L47.4896 5.31798C47.4891 5.15601 47.4279 5.02553 47.306 4.92656C47.1879 4.82389 47.0313 4.77289 46.8362 4.77357C46.6668 4.77415 46.516 4.81885 46.3838 4.90766C46.2553 4.99277 46.16 5.10722 46.0979 5.251L45.6498 5.02063C45.7045 4.88423 45.7925 4.76245 45.9136 4.65527C46.0347 4.54441 46.1761 4.45741 46.3379 4.39427C46.4996 4.33113 46.6689 4.29926 46.8456 4.29865C47.0738 4.29786 47.2746 4.34134 47.4479 4.42909C47.6212 4.51316 47.756 4.63234 47.8522 4.78662C47.9522 4.93721 48.0025 5.11374 48.0032 5.31621L48.0101 7.33721L47.5076 7.33895L47.5057 6.77572L47.5997 6.80852C47.5375 6.92654 47.4532 7.02991 47.3468 7.11862C47.2403 7.20734 47.1154 7.27772 46.972 7.32975C46.8286 7.38179 46.6722 7.40809 46.5029 7.40868ZM48.8064 7.33446L48.7961 4.35817L49.2986 4.35644L49.3006 4.93623L49.2176 4.88682C49.2906 4.69883 49.4079 4.55301 49.5695 4.44938C49.7348 4.34205 49.9278 4.288 50.1487 4.28724C50.3622 4.2865 50.552 4.3337 50.718 4.42884C50.8876 4.52397 51.0206 4.65604 51.1169 4.82505C51.2169 4.99404 51.2672 5.18529 51.268 5.3988L51.2746 7.32594L50.7556 7.32773L50.7495 5.56625C50.7489 5.4006 50.719 5.26081 50.6597 5.1469C50.6004 5.03298 50.5154 4.94492 50.4048 4.88272C50.2978 4.81683 50.1744 4.78412 50.0345 4.78461C49.8946 4.78509 49.7695 4.81865 49.6593 4.8853C49.5528 4.94825 49.4684 5.03873 49.4063 5.15675C49.3441 5.27108 49.3133 5.40924 49.3138 5.57121L49.3199 7.33269L48.8064 7.33446ZM53.0644 7.38602C52.8509 7.38675 52.6574 7.33773 52.4841 7.23893C52.3144 7.14012 52.1814 7.00253 52.0851 6.82616C51.9924 6.6461 51.9457 6.44011 51.9449 6.20819L51.9385 4.34732L52.452 4.34555L52.4582 6.1512C52.4587 6.29845 52.4886 6.42719 52.5479 6.53742C52.6109 6.64764 52.6958 6.73386 52.8028 6.79607C52.9135 6.85827 53.0387 6.88913 53.1786 6.88865C53.3185 6.88817 53.4417 6.85645 53.5483 6.7935C53.6585 6.73054 53.7428 6.64005 53.8013 6.52205C53.8635 6.40403 53.8943 6.26404 53.8938 6.10206L53.8877 4.34059L54.4067 4.3388L54.417 7.31508L53.9145 7.31682L53.9125 6.73702L53.9955 6.78643C53.9262 6.97442 53.8071 7.12208 53.6381 7.22942C53.4728 7.33307 53.2816 7.38527 53.0644 7.38602ZM56.0853 7.37558C55.8902 7.37626 55.717 7.34188 55.5659 7.27246C55.4184 7.19935 55.3021 7.10035 55.217 6.97548C55.1318 6.84693 55.089 6.69983 55.0884 6.53417C55.0879 6.37588 55.1205 6.23404 55.1863 6.10864C55.2558 5.97956 55.3622 5.87059 55.5055 5.78175C55.6524 5.69289 55.8363 5.62967 56.057 5.5921L57.1608 5.40606L57.1623 5.83677L56.1744 6.00584C55.9831 6.03963 55.8434 6.10085 55.7554 6.18951C55.671 6.27815 55.6291 6.38689 55.6295 6.51574C55.6299 6.63722 55.6781 6.73829 55.7741 6.81894C55.8738 6.89959 55.9973 6.93966 56.1445 6.93915C56.3323 6.9385 56.4941 6.89929 56.63 6.82151C56.7696 6.74004 56.8779 6.63107 56.9547 6.49459C57.0352 6.35811 57.0752 6.20704 57.0746 6.04138L57.072 5.28489C57.0714 5.12291 57.0103 4.99244 56.8884 4.89346C56.7703 4.79079 56.6136 4.7398 56.4185 4.74047C56.2492 4.74106 56.0984 4.78575 55.9662 4.87456C55.8376 4.95967 55.7423 5.07412 55.6802 5.21791L55.2322 4.98753C55.2869 4.85114 55.3749 4.72935 55.496 4.62218C55.6171 4.51132 55.7585 4.42432 55.9203 4.36118C56.082 4.29804 56.2512 4.26616 56.4279 4.26555C56.6562 4.26476 56.857 4.30825 57.0303 4.396C57.2036 4.48007 57.3384 4.59925 57.4346 4.75353C57.5345 4.90412 57.5848 5.08064 57.5855 5.28311L57.5925 7.30412L57.09 7.30585L57.0881 6.74262L57.1821 6.77543C57.1199 6.89344 57.0356 6.99681 56.9291 7.08553C56.8227 7.17425 56.6978 7.24462 56.5544 7.29666C56.411 7.34869 56.2546 7.375 56.0853 7.37558ZM58.3887 7.30137L58.3743 3.12131L58.8878 3.11954L58.9023 7.29959L58.3887 7.30137Z" fill="#90A3BF"/>
<path d="M69.2801 1.05273C68.2467 1.0563 67.4095 1.89932 67.4131 2.93269C67.4166 3.94635 68.2122 4.764 69.2457 4.79593C69.2772 4.79188 69.3088 4.79177 69.3325 4.79563C69.3404 4.79561 69.3443 4.79559 69.3522 4.79557C69.3561 4.79555 69.3561 4.79555 69.3601 4.79554C70.3697 4.75655 71.1596 3.93342 71.1601 2.91975C71.1565 1.88638 70.3135 1.04916 69.2801 1.05273Z" fill="#90A3BF"/>
<path d="M71.3003 5.83803C70.1973 5.10821 68.4027 5.11441 67.2969 5.85185C66.7972 6.18884 66.5226 6.64337 66.5243 7.12851C66.526 7.61364 66.8036 8.06233 67.3017 8.39192C67.8552 8.76077 68.5816 8.94364 69.3073 8.94113C70.033 8.93863 70.7581 8.75074 71.309 8.37808C71.8048 8.04111 72.0794 7.59052 72.0777 7.10144C72.0721 6.61632 71.7984 6.16762 71.3003 5.83803Z" fill="#90A3BF"/>
<path d="M73.6221 3.14398C73.6878 3.90894 73.1458 4.58133 72.3928 4.67465C72.3889 4.67466 72.3889 4.67466 72.3849 4.67467L72.3731 4.67472C72.3494 4.6748 72.3257 4.67488 72.3061 4.68284C71.9235 4.70388 71.5721 4.58282 71.307 4.35891C71.712 3.99465 71.9429 3.44954 71.8935 2.85808C71.8648 2.53869 71.7533 2.24721 71.5868 1.99929C71.7364 1.92384 71.9098 1.87591 72.0873 1.85952C72.8601 1.7898 73.5523 2.36326 73.6221 3.14398Z" fill="#90A3BF"/>
<path d="M74.4234 6.78957C74.3932 7.17226 74.1498 7.50442 73.7404 7.73065C73.3467 7.94895 72.8501 8.05321 72.357 8.04308C72.6401 7.78573 72.8047 7.46568 72.8351 7.12637C72.8728 6.63715 72.6385 6.1686 72.1718 5.79551C71.9068 5.58738 71.5986 5.42278 71.2629 5.30167C72.1337 5.04623 73.2308 5.21205 73.9071 5.75401C74.271 6.04463 74.4576 6.4108 74.4234 6.78957Z" fill="#90A3BF"/>
<path d="M79.8428 7.22739L79.8395 6.27763L77.8185 6.28461L77.817 5.83734L79.8175 3.11364L80.3366 3.11184L80.346 5.8286L80.8816 5.82675L80.8832 6.27402L80.3475 6.27587L80.3508 7.22563L79.8428 7.22739ZM78.2263 6.02919L78.1483 5.83619L79.838 5.83036L79.8302 3.56639L79.9904 3.61001L78.2263 6.02919ZM82.5184 7.21815L82.5042 3.10436L83.9564 3.09934C84.2289 3.0984 84.4683 3.14911 84.6748 3.25147C84.8813 3.35384 85.042 3.50053 85.1567 3.69156C85.2752 3.88258 85.3349 4.10693 85.3358 4.36462C85.3367 4.62231 85.2785 4.84707 85.1614 5.0389C85.0479 5.22704 84.8883 5.37484 84.6825 5.48231C84.4804 5.58608 84.2413 5.63845 83.9652 5.6394L83.0541 5.64255L83.0595 7.21628L82.5184 7.21815ZM83.0524 5.14558L83.9801 5.14237C84.1457 5.1418 84.2892 5.11002 84.4104 5.04702C84.5317 4.98401 84.6253 4.8935 84.6911 4.77547C84.757 4.65744 84.7896 4.52112 84.7891 4.36651C84.7886 4.20822 84.755 4.07212 84.6883 3.95823C84.6216 3.84066 84.5275 3.7508 84.4058 3.68864C84.2841 3.62647 84.1404 3.59568 83.9747 3.59625L83.0471 3.59946L83.0524 5.14558ZM87.2785 7.26797C86.9913 7.26896 86.7353 7.20174 86.5102 7.06631C86.2852 6.93088 86.1079 6.74559 85.9782 6.51043C85.8485 6.2716 85.7832 6.00493 85.7822 5.71043C85.7811 5.41225 85.8428 5.14698 85.9672 4.91463C86.0952 4.68227 86.2676 4.49945 86.4843 4.36618C86.7047 4.22921 86.9512 4.16025 87.2236 4.15931C87.4444 4.15855 87.6397 4.19837 87.8093 4.27877C87.9826 4.35548 88.1284 4.46173 88.2466 4.59753C88.3686 4.72964 88.4611 4.88209 88.5243 5.05489C88.5912 5.224 88.6249 5.40059 88.6255 5.58465C88.6257 5.62514 88.6222 5.67117 88.615 5.72274C88.6115 5.7706 88.6061 5.81664 88.5989 5.86084L86.1582 5.86927L86.1567 5.42752L88.2992 5.42012L88.0569 5.61975C88.0894 5.42821 88.0704 5.25709 87.9999 5.1064C87.9294 4.95571 87.826 4.83643 87.6894 4.74855C87.5529 4.66067 87.3982 4.61703 87.2252 4.61763C87.0521 4.61822 86.894 4.66295 86.7507 4.75179C86.6075 4.84064 86.4956 4.96803 86.4152 5.13396C86.3385 5.29621 86.3078 5.48958 86.3233 5.71408C86.3094 5.93133 86.3432 6.12264 86.4247 6.28801C86.5099 6.4497 86.6282 6.57629 86.7794 6.6678C86.9344 6.75562 87.102 6.79922 87.2824 6.79859C87.4812 6.79791 87.6485 6.75131 87.7844 6.65881C87.9203 6.56631 88.0303 6.44813 88.1145 6.30427L88.546 6.52365C88.4875 6.66006 88.3959 6.78554 88.2712 6.90009C88.1501 7.01095 88.005 7.0998 87.8358 7.16665C87.6704 7.23348 87.4846 7.26726 87.2785 7.26797ZM90.7145 7.2561C90.4274 7.25709 90.1676 7.19173 89.9352 7.06001C89.7028 6.9246 89.5181 6.73933 89.3811 6.5042C89.2441 6.26907 89.1751 6.00242 89.174 5.70424C89.173 5.40606 89.2384 5.14078 89.3701 4.9084C89.5055 4.67601 89.6889 4.49132 89.9204 4.35431C90.1518 4.2173 90.4129 4.1483 90.7038 4.14729C90.9909 4.1463 91.2507 4.21351 91.4831 4.34891C91.7154 4.48064 91.8983 4.66223 92.0316 4.89369C92.1686 5.12514 92.2376 5.39179 92.2387 5.69365C92.2397 5.99552 92.1707 6.26449 92.0316 6.50057C91.8926 6.73297 91.7073 6.91768 91.4758 7.05468C91.2481 7.188 90.9943 7.25514 90.7145 7.2561ZM90.7128 6.75914C90.8969 6.7585 91.0623 6.71191 91.2093 6.61937C91.3599 6.52682 91.4773 6.39941 91.5614 6.23714C91.6492 6.07486 91.6927 5.89433 91.692 5.69554C91.6913 5.49307 91.6465 5.31469 91.5576 5.16038C91.4724 5.00238 91.3542 4.87762 91.2029 4.78611C91.0554 4.69091 90.8895 4.64362 90.7055 4.64426C90.5177 4.64491 90.3486 4.69335 90.198 4.78958C90.051 4.88212 89.9337 5.00769 89.8459 5.16629C89.758 5.32121 89.7145 5.4999 89.7152 5.70237C89.7159 5.90116 89.7607 6.08139 89.8496 6.24305C89.9385 6.40472 90.0567 6.53132 90.2043 6.62284C90.3555 6.71435 90.525 6.75978 90.7128 6.75914ZM92.9174 8.28662L92.9033 4.20596L93.4058 4.20422L93.408 4.84476L93.3413 4.71799C93.4512 4.5409 93.6016 4.4005 93.7927 4.29676C93.9837 4.18934 94.2026 4.13521 94.4492 4.13436C94.729 4.13339 94.9796 4.20063 95.2009 4.33607C95.4259 4.4715 95.6033 4.6568 95.7329 4.89195C95.8626 5.12342 95.9279 5.38825 95.9289 5.68643C95.93 5.97725 95.8664 6.24068 95.7384 6.47673C95.6104 6.71277 95.4343 6.89928 95.2102 7.03626C94.9898 7.17323 94.7379 7.24221 94.4544 7.24319C94.2152 7.24401 93.9959 7.19139 93.7968 7.08532C93.6013 6.97924 93.4499 6.82883 93.3424 6.63409L93.425 6.54546L93.431 8.28484L92.9174 8.28662ZM94.4141 6.74635C94.6018 6.7457 94.7692 6.69911 94.9161 6.60657C95.063 6.51403 95.1767 6.38847 95.2571 6.2299C95.3413 6.06763 95.383 5.88711 95.3823 5.68832C95.3816 5.48217 95.3386 5.30193 95.2534 5.14761C95.1719 4.9896 95.0573 4.86483 94.9098 4.77331C94.7622 4.67811 94.5945 4.63083 94.4068 4.63148C94.219 4.63213 94.0499 4.67873 93.8992 4.77128C93.7523 4.86382 93.6349 4.99123 93.5472 5.15351C93.463 5.31209 93.4213 5.49262 93.422 5.69509C93.4227 5.89388 93.4657 6.07411 93.5509 6.23579C93.6398 6.39378 93.758 6.51854 93.9056 6.61006C94.0568 6.70157 94.2263 6.747 94.4141 6.74635ZM96.6074 7.16949L96.593 2.98943L97.1065 2.98766L97.121 7.16771L96.6074 7.16949ZM99.2875 7.22649C99.0003 7.22749 98.7442 7.16027 98.5192 7.02484C98.2942 6.88941 98.1168 6.70411 97.9872 6.46896C97.8575 6.23012 97.7922 5.96346 97.7912 5.66896C97.7901 5.37077 97.8518 5.10551 97.9762 4.87316C98.1042 4.6408 98.2766 4.45798 98.4933 4.3247C98.7137 4.18773 98.9601 4.11878 99.2325 4.11784C99.4534 4.11707 99.6487 4.15689 99.8183 4.2373C99.9916 4.314 100.137 4.42026 100.256 4.55606C100.378 4.68816 100.47 4.84062 100.533 5.01342C100.6 5.18253 100.634 5.35911 100.635 5.54317C100.635 5.58367 100.631 5.6297 100.624 5.68126C100.62 5.72913 100.615 5.77516 100.608 5.81936L98.1672 5.82779L98.1657 5.38604L100.308 5.37864L100.066 5.57827C100.098 5.38673 100.079 5.21562 100.009 5.06493C99.9384 4.91424 99.8349 4.79495 99.6984 4.70707C99.5619 4.61919 99.4071 4.57555 99.2341 4.57615C99.0611 4.57675 98.903 4.62147 98.7597 4.71032C98.6164 4.79916 98.5046 4.92655 98.4242 5.09249C98.3474 5.25473 98.3168 5.4481 98.3323 5.67261C98.3183 5.88985 98.3521 6.08116 98.4337 6.24654C98.5189 6.40822 98.6372 6.53482 98.7884 6.62633C98.9433 6.71414 99.111 6.75774 99.2914 6.75712C99.4901 6.75643 99.6575 6.70984 99.7934 6.61733C99.9293 6.52483 100.039 6.40665 100.123 6.26279L100.555 6.48218C100.497 6.61859 100.405 6.74407 100.28 6.85862C100.159 6.96948 100.014 7.05833 99.8448 7.12517C99.6794 7.19201 99.4936 7.22578 99.2875 7.22649Z" fill="#90A3BF"/>
<defs>
<clipPath id="clip0_20_6725">
<rect width="9.46611" height="9.46611" fill="white" transform="translate(29.441 0.401367) rotate(-0.197882)"/>
</clipPath>
</defs>
</svg>
