<svg width="102" height="11" viewBox="0 0 102 11" fill="none" xmlns="http://www.w3.org/2000/svg">
<path d="M9.60288 4.69403L8.81268 4.30233C8.6665 4.23184 8.48526 4.28769 8.41476 4.43387C8.34034 4.584 8.40012 4.76129 8.5463 4.83178L9.1745 5.14121L9.18103 7.03047L7.70197 7.03952L7.68799 2.99279C7.68527 2.20395 7.15538 1.81135 6.50065 1.81362L3.3453 1.82451C2.69056 1.82677 2.1634 2.22302 2.16613 3.01186L2.18826 9.42117L1.59663 9.42321C1.43492 9.42377 1.30128 9.55833 1.30184 9.72004C1.3024 9.88176 1.43697 10.0154 1.59868 10.0148L8.3038 9.99168C8.46551 9.99112 8.59915 9.85655 8.59859 9.69484C8.59803 9.53313 8.46347 9.39949 8.30176 9.40005L7.71013 9.40209L7.70401 7.63115L9.47888 7.62108C9.64454 7.62051 9.77423 7.48595 9.77368 7.32424L9.7655 4.95773C9.76512 4.84729 9.70166 4.74496 9.60288 4.69403ZM3.15475 3.7539C3.15285 3.20566 3.48743 3.00729 3.89763 3.00588L5.96044 2.99875C6.36669 2.99735 6.70263 3.1934 6.70452 3.74164L6.70619 4.22678C6.70807 4.77108 6.3735 4.96944 5.9633 4.97086L3.90444 4.97797C3.49424 4.97939 3.1583 4.78334 3.15641 4.23509L3.15475 3.7539ZM3.35926 5.86731L4.54252 5.86322C4.70423 5.86266 4.83879 5.9963 4.83935 6.15801C4.83991 6.31973 4.70627 6.45429 4.54456 6.45485L3.3613 6.45894C3.19959 6.45949 3.06503 6.32586 3.06447 6.16414C3.06391 6.00243 3.19755 5.86787 3.35926 5.86731Z" fill="#90A3BF"/>
<path d="M14.3752 8.06388C14.0991 8.06483 13.8542 8.01046 13.6403 7.90076C13.4301 7.79104 13.2639 7.64253 13.1417 7.4552C13.0233 7.26418 12.9637 7.05087 12.9628 6.81527C12.9619 6.55023 13.0347 6.31805 13.1813 6.11876C13.3279 5.91946 13.5299 5.77703 13.7872 5.69148L13.7767 5.82956C13.5813 5.75293 13.4281 5.63013 13.3171 5.46118C13.2097 5.28853 13.1557 5.10281 13.155 4.90402C13.1543 4.69419 13.2052 4.50811 13.3077 4.34578C13.4139 4.18344 13.557 4.05594 13.7371 3.96328C13.9208 3.86694 14.1287 3.81836 14.3606 3.81756C14.5925 3.81676 14.7988 3.86206 14.9795 3.95347C15.1602 4.04488 15.3024 4.17323 15.406 4.33853C15.5133 4.50014 15.5674 4.68586 15.5681 4.89569C15.5688 5.10552 15.5124 5.29346 15.3988 5.45951C15.289 5.62555 15.1422 5.74938 14.9584 5.831L14.9413 5.68749C15.203 5.77126 15.4078 5.91412 15.5557 6.11608C15.7037 6.31436 15.7781 6.54418 15.779 6.80555C15.7798 7.04115 15.7198 7.25487 15.599 7.44671C15.4818 7.63486 15.3167 7.78453 15.1036 7.8957C14.8941 8.00686 14.6513 8.06292 14.3752 8.06388ZM14.3736 7.59452C14.5466 7.59392 14.6975 7.56027 14.8261 7.49356C14.9547 7.42685 15.0538 7.33448 15.1233 7.21644C15.1965 7.0947 15.2328 6.95653 15.2323 6.80191C15.2318 6.64362 15.1945 6.5057 15.1204 6.38816C15.0501 6.26692 14.9504 6.17523 14.8213 6.11309C14.6922 6.04728 14.5412 6.01467 14.3682 6.01526C14.1951 6.01586 14.0425 6.04952 13.9102 6.11624C13.7816 6.17927 13.6825 6.27164 13.613 6.39336C13.5434 6.5114 13.5089 6.64957 13.5095 6.80787C13.51 6.96248 13.5455 7.1004 13.6158 7.22164C13.6862 7.3392 13.7859 7.43089 13.915 7.49671C14.0477 7.56251 14.2006 7.59511 14.3736 7.59452ZM14.3665 5.5459C14.4917 5.54547 14.6021 5.51748 14.6976 5.46193C14.7968 5.40637 14.8757 5.33247 14.9342 5.24024C14.9928 5.14432 15.0219 5.03378 15.0215 4.90862C15.021 4.78346 14.9912 4.67496 14.932 4.58314C14.8728 4.49131 14.7934 4.4198 14.6938 4.3686C14.5979 4.31371 14.4874 4.28649 14.3622 4.28692C14.2334 4.28736 14.1193 4.31537 14.0201 4.37093C13.9209 4.42281 13.842 4.49487 13.7834 4.5871C13.7249 4.67934 13.6958 4.78804 13.6962 4.9132C13.6966 5.03836 13.7265 5.1487 13.7857 5.2442C13.8449 5.33603 13.9243 5.40938 14.0239 5.46426C14.1235 5.51913 14.2377 5.54635 14.3665 5.5459ZM18.113 8.05097C17.7854 8.0521 17.498 7.96474 17.2507 7.78889C17.0071 7.60935 16.8167 7.36152 16.6794 7.0454C16.5421 6.72561 16.4727 6.35404 16.4712 5.93069C16.4698 5.50735 16.5366 5.13715 16.6717 4.82009C16.8068 4.49935 16.9955 4.25021 17.2379 4.07268C17.4802 3.89514 17.7652 3.8058 18.0928 3.80467C18.4205 3.80354 18.7061 3.8909 18.9496 4.06676C19.1932 4.24262 19.3837 4.49045 19.521 4.81025C19.662 5.12636 19.7332 5.49608 19.7346 5.91942C19.7361 6.34276 19.6693 6.71481 19.5342 7.03554C19.3991 7.35628 19.2085 7.60543 18.9625 7.78298C18.7201 7.96052 18.437 8.04985 18.113 8.05097ZM18.1113 7.54848C18.3322 7.54771 18.5234 7.48079 18.6849 7.34771C18.8464 7.21094 18.9709 7.02092 19.0584 6.77766C19.1496 6.53438 19.1946 6.24892 19.1935 5.92129C19.1924 5.59366 19.1454 5.30852 19.0525 5.06588C18.9633 4.82322 18.8357 4.63592 18.6695 4.50396C18.5071 4.372 18.3155 4.3064 18.0946 4.30716C17.8737 4.30792 17.6825 4.37485 17.521 4.50793C17.3595 4.64101 17.2331 4.8292 17.1419 5.07248C17.0544 5.31574 17.0112 5.60119 17.0124 5.92882C17.0135 6.25277 17.0586 6.53608 17.1478 6.77873C17.2407 7.02138 17.3683 7.21052 17.5308 7.34617C17.6969 7.4818 17.8904 7.54924 18.1113 7.54848ZM20.5625 7.97624L20.5483 3.86245L21.0894 3.86058L21.1019 7.47741L22.9076 7.47117L22.9093 7.96814L20.5625 7.97624Z" fill="#90A3BF"/>
<path d="M34.7017 1.71636C32.5245 1.72388 30.7636 3.49698 30.7711 5.67417C30.7786 7.85136 32.5517 9.61226 34.7289 9.60474C36.9061 9.59722 38.667 7.82412 38.6595 5.64693C38.652 3.46973 36.8828 1.70883 34.7017 1.71636Z" fill="#90A3BF"/>
<rect x="31.5491" y="2.51611" width="6.31074" height="6.31074" rx="3.15537" transform="rotate(-0.197882 31.5491 2.51611)" fill="white"/>
<path d="M34.7071 3.29395C33.4008 3.29846 32.3442 4.36232 32.3487 5.66864C32.3533 6.97495 33.4171 8.03149 34.7234 8.02698C36.0298 8.02247 37.0863 6.95861 37.0818 5.65229C37.0773 4.34598 36.0158 3.28943 34.7071 3.29395Z" fill="#90A3BF"/>
<rect x="33.1321" y="4.08826" width="3.15537" height="3.15537" rx="1.57769" transform="rotate(-0.197882 33.1321 4.08826)" fill="white"/>
<rect x="34.3276" y="7.63391" width="0.788843" height="1.57769" transform="rotate(-0.197882 34.3276 7.63391)" fill="#90A3BF"/>
<rect x="36.686" y="5.25928" width="1.57769" height="0.788843" transform="rotate(-0.197882 36.686 5.25928)" fill="#90A3BF"/>
<rect x="31.1642" y="5.27832" width="1.57769" height="0.788843" transform="rotate(-0.197882 31.1642 5.27832)" fill="#90A3BF"/>
<path d="M41.4921 7.90414L41.4779 3.79035L41.9749 3.78863L43.5231 5.97549L43.2691 5.97637L44.791 3.7789L45.288 3.77719L45.3022 7.89098L44.7556 7.89287L44.7437 4.46379L44.9372 4.52386L43.4151 6.68267L43.3709 6.68282L41.8505 4.53452L42.0214 4.47319L42.0333 7.90227L41.4921 7.90414ZM47.0279 7.95128C46.8328 7.95196 46.6596 7.91758 46.5084 7.84816C46.3609 7.77504 46.2446 7.67605 46.1595 7.55118C46.0744 7.42263 46.0316 7.27552 46.031 7.10987C46.0305 6.95158 46.0631 6.80973 46.1289 6.68434C46.1984 6.55526 46.3048 6.44629 46.4481 6.35745C46.595 6.26859 46.7789 6.20537 46.9996 6.16779L48.1034 5.98176L48.1048 6.41246L47.117 6.58153C46.9257 6.61533 46.786 6.67655 46.698 6.76521C46.6136 6.85385 46.5716 6.96259 46.5721 7.09143C46.5725 7.21292 46.6207 7.31398 46.7167 7.39464C46.8164 7.47529 46.9398 7.51535 47.0871 7.51484C47.2748 7.5142 47.4367 7.47498 47.5726 7.39721C47.7122 7.31574 47.8204 7.20676 47.8973 7.07029C47.9778 6.93381 48.0178 6.78273 48.0172 6.61708L48.0146 5.86058C48.014 5.69861 47.9528 5.56813 47.831 5.46916C47.7129 5.36649 47.5562 5.3155 47.3611 5.31617C47.1918 5.31675 47.041 5.36145 46.9088 5.45026C46.7802 5.53537 46.6849 5.64982 46.6228 5.7936L46.1748 5.56323C46.2295 5.42683 46.3174 5.30505 46.4385 5.19787C46.5596 5.08702 46.7011 5.00002 46.8628 4.93688C47.0246 4.87374 47.1938 4.84186 47.3705 4.84125C47.5988 4.84046 47.7995 4.88394 47.9729 4.9717C48.1462 5.05577 48.281 5.17494 48.3772 5.32923C48.4771 5.47981 48.5274 5.65634 48.5281 5.85881L48.5351 7.87981L48.0326 7.88155L48.0307 7.31832L48.1247 7.35112C48.0625 7.46914 47.9782 7.57251 47.8717 7.66123C47.7653 7.74995 47.6403 7.82032 47.497 7.87235C47.3536 7.92439 47.1972 7.9507 47.0279 7.95128ZM49.3313 7.87706L49.321 4.90078L49.8235 4.89904L49.8255 5.47884L49.7425 5.42943C49.8155 5.24143 49.9328 5.09561 50.0944 4.99198C50.2597 4.88465 50.4528 4.83061 50.6737 4.82984C50.8872 4.8291 51.0769 4.87631 51.2429 4.97145C51.4126 5.06657 51.5456 5.19864 51.6419 5.36765C51.7419 5.53664 51.7922 5.72789 51.7929 5.94141L51.7996 7.86854L51.2805 7.87033L51.2745 6.10886C51.2739 5.9432 51.244 5.80341 51.1847 5.6895C51.1254 5.57558 51.0404 5.48753 50.9297 5.42533C50.8228 5.35943 50.6993 5.32673 50.5594 5.32721C50.4195 5.32769 50.2945 5.36126 50.1843 5.4279C50.0778 5.49085 49.9934 5.58133 49.9312 5.69935C49.869 5.81368 49.8382 5.95184 49.8388 6.11381L49.8449 7.87529L49.3313 7.87706ZM53.5893 7.92862C53.3758 7.92936 53.1824 7.88033 53.009 7.78153C52.8394 7.68272 52.7064 7.54513 52.61 7.36877C52.5174 7.1887 52.4707 6.98271 52.4698 6.75079L52.4634 4.88992L52.977 4.88815L52.9832 6.6938C52.9837 6.84105 53.0136 6.96979 53.0729 7.08003C53.1358 7.19025 53.2208 7.27646 53.3278 7.33868C53.4384 7.40088 53.5637 7.43173 53.7036 7.43125C53.8435 7.43077 53.9667 7.39905 54.0732 7.3361C54.1835 7.27314 54.2678 7.18266 54.3263 7.06465C54.3885 6.94664 54.4193 6.80664 54.4187 6.64467L54.4126 4.88319L54.9317 4.8814L54.942 7.85769L54.4395 7.85942L54.4375 7.27962L54.5205 7.32904C54.4512 7.51702 54.3321 7.66468 54.1631 7.77202C53.9978 7.87567 53.8065 7.92787 53.5893 7.92862ZM56.6102 7.91819C56.4151 7.91886 56.242 7.88449 56.0908 7.81506C55.9433 7.74195 55.827 7.64295 55.7419 7.51808C55.6568 7.38953 55.614 7.24243 55.6134 7.07677C55.6128 6.91848 55.6455 6.77664 55.7113 6.65125C55.7808 6.52216 55.8872 6.4132 56.0305 6.32435C56.1774 6.23549 56.3612 6.17228 56.582 6.1347L57.6857 5.94866L57.6872 6.37937L56.6994 6.54844C56.5081 6.58223 56.3684 6.64346 56.2803 6.73211C56.196 6.82075 56.154 6.9295 56.1545 7.05834C56.1549 7.17982 56.2031 7.28089 56.2991 7.36155C56.3988 7.44219 56.5222 7.48226 56.6695 7.48175C56.8572 7.4811 57.0191 7.44189 57.155 7.36411C57.2946 7.28264 57.4028 7.17367 57.4797 7.0372C57.5602 6.90071 57.6002 6.74964 57.5996 6.58398L57.597 5.82749C57.5964 5.66551 57.5352 5.53504 57.4134 5.43607C57.2952 5.3334 57.1386 5.2824 56.9435 5.28307C56.7742 5.28366 56.6234 5.32836 56.4912 5.41716C56.3626 5.50228 56.2673 5.61673 56.2052 5.76051L55.7571 5.53014C55.8119 5.39374 55.8998 5.27195 56.0209 5.16478C56.142 5.05392 56.2835 4.96692 56.4452 4.90378C56.607 4.84064 56.7762 4.80877 56.9529 4.80816C57.1811 4.80737 57.3819 4.85085 57.5552 4.9386C57.7286 5.02267 57.8633 5.14185 57.9596 5.29613C58.0595 5.44672 58.1098 5.62325 58.1105 5.82571L58.1175 7.84672L57.615 7.84845L57.613 7.28522L57.707 7.31803C57.6449 7.43605 57.5605 7.53941 57.4541 7.62813C57.3476 7.71685 57.2227 7.78723 57.0793 7.83926C56.9359 7.89129 56.7796 7.9176 56.6102 7.91819ZM58.9137 7.84397L58.8993 3.66392L59.4128 3.66214L59.4272 7.84219L58.9137 7.84397Z" fill="#90A3BF"/>
<path d="M69.8049 1.59509C68.7716 1.59866 67.9344 2.44167 67.9379 3.47505C67.9414 4.48871 68.737 5.30636 69.7705 5.33829C69.8021 5.33424 69.8336 5.33413 69.8573 5.33799C69.8652 5.33796 69.8691 5.33795 69.877 5.33792C69.881 5.33791 69.881 5.33791 69.8849 5.3379C70.8945 5.29891 71.6845 4.47578 71.6849 3.46211C71.6813 2.42873 70.8383 1.59152 69.8049 1.59509Z" fill="#90A3BF"/>
<path d="M71.8252 6.38038C70.7222 5.65057 68.9276 5.65676 67.8218 6.39421C67.3221 6.7312 67.0475 7.18573 67.0492 7.67087C67.0509 8.156 67.3285 8.60469 67.8266 8.93428C68.3801 9.30313 69.1065 9.486 69.8322 9.48349C70.5579 9.48099 71.283 9.2931 71.8339 8.92044C72.3297 8.58347 72.6043 8.13288 72.6026 7.6438C72.597 7.15868 72.3233 6.70998 71.8252 6.38038Z" fill="#90A3BF"/>
<path d="M74.1469 3.68634C74.2126 4.4513 73.6707 5.12369 72.9176 5.21701C72.9137 5.21702 72.9137 5.21702 72.9098 5.21703L72.8979 5.21707C72.8743 5.21716 72.8506 5.21724 72.8309 5.22519C72.4484 5.24624 72.0969 5.12518 71.8319 4.90127C72.2369 4.537 72.4677 3.9919 72.4183 3.40044C72.3896 3.08105 72.2782 2.78956 72.1117 2.54165C72.2613 2.4662 72.4347 2.41827 72.6121 2.40188C73.3849 2.33216 74.0771 2.90562 74.1469 3.68634Z" fill="#90A3BF"/>
<path d="M74.9483 7.33192C74.9181 7.71462 74.6747 8.04678 74.2653 8.27301C73.8716 8.4913 73.375 8.59557 72.8819 8.58544C73.165 8.32809 73.3296 8.00804 73.36 7.66873C73.3977 7.17951 73.1634 6.71096 72.6967 6.33786C72.4317 6.12974 72.1235 5.96514 71.7878 5.84403C72.6586 5.58859 73.7557 5.7544 74.432 6.29637C74.7959 6.58699 74.9825 6.95316 74.9483 7.33192Z" fill="#90A3BF"/>
<path d="M79.7715 7.83807C79.5065 7.83898 79.2707 7.7809 79.0641 7.66381C78.8612 7.54671 78.7005 7.38713 78.582 7.18507C78.4635 6.97932 78.4038 6.74577 78.4029 6.4844C78.4024 6.34083 78.4185 6.19905 78.4511 6.05904C78.4838 5.91904 78.5367 5.77713 78.6098 5.63331C78.6829 5.48948 78.7763 5.34007 78.8899 5.18506L80.0442 3.65702L80.6958 3.65477L79.283 5.50398L79.1836 5.49328C79.2386 5.41946 79.2991 5.36219 79.3652 5.32147C79.435 5.28074 79.5086 5.25103 79.5858 5.23236C79.6667 5.21367 79.7514 5.20418 79.8397 5.20387C80.0827 5.20303 80.3001 5.25934 80.4919 5.3728C80.6874 5.48256 80.8407 5.63481 80.9518 5.82953C81.0666 6.02424 81.1244 6.2486 81.1253 6.50261C81.1262 6.75661 81.0681 6.98505 80.951 7.18793C80.8338 7.38712 80.6724 7.54598 80.4667 7.66449C80.2646 7.77931 80.0329 7.83717 79.7715 7.83807ZM79.7698 7.35214C79.9244 7.35161 80.0624 7.31616 80.1836 7.2458C80.3048 7.17175 80.4002 7.07019 80.4697 6.9411C80.5429 6.81201 80.5792 6.66831 80.5786 6.51002C80.5781 6.34436 80.5426 6.20091 80.4722 6.07967C80.4019 5.95475 80.3058 5.85569 80.1841 5.78248C80.0623 5.70928 79.9223 5.67295 79.764 5.6735C79.6094 5.67403 79.4697 5.71133 79.3448 5.78538C79.2198 5.85944 79.1226 5.95917 79.0531 6.08457C78.9836 6.2063 78.9491 6.34999 78.9497 6.51564C78.9502 6.67394 78.9857 6.81738 79.0561 6.94599C79.1302 7.07458 79.2281 7.17547 79.3498 7.24868C79.4752 7.31819 79.6152 7.35268 79.7698 7.35214ZM82.8275 7.76125L82.8133 3.64746L84.2656 3.64244C84.538 3.6415 84.7775 3.69221 84.984 3.79458C85.1905 3.89694 85.3511 4.04364 85.4659 4.23467C85.5844 4.42569 85.644 4.65004 85.6449 4.90772C85.6458 5.16541 85.5877 5.39017 85.4705 5.582C85.3571 5.77014 85.1975 5.91794 84.9917 6.02541C84.7896 6.12919 84.5505 6.18155 84.2744 6.1825L83.3633 6.18565L83.3687 7.75938L82.8275 7.76125ZM83.3615 5.68868L84.2892 5.68548C84.4549 5.68491 84.5983 5.65312 84.7196 5.59012C84.8409 5.52712 84.9344 5.4366 85.0003 5.31857C85.0661 5.20055 85.0988 5.06423 85.0983 4.90961C85.0977 4.75132 85.0641 4.61523 84.9974 4.50134C84.9308 4.38377 84.8366 4.2939 84.7149 4.23174C84.5932 4.16958 84.4495 4.13878 84.2839 4.13936L83.3562 4.14256L83.3615 5.68868ZM87.5876 7.81107C87.3005 7.81207 87.0444 7.74485 86.8194 7.60942C86.5944 7.47398 86.417 7.28869 86.2874 7.05354C86.1577 6.8147 86.0923 6.54803 86.0913 6.25353C86.0903 5.95535 86.152 5.69009 86.2763 5.45774C86.4044 5.22537 86.5768 5.04256 86.7935 4.90928C87.0139 4.77231 87.2603 4.70336 87.5327 4.70242C87.7536 4.70165 87.9488 4.74147 88.1184 4.82187C88.2917 4.89858 88.4375 5.00484 88.5558 5.14064C88.6777 5.27274 88.7703 5.4252 88.8335 5.598C88.9003 5.76711 88.934 5.94369 88.9347 6.12775C88.9348 6.16825 88.9313 6.21428 88.9241 6.26584C88.9206 6.31371 88.9152 6.35974 88.908 6.40394L86.4674 6.41237L86.4658 5.97062L88.6083 5.96322L88.366 6.16285C88.3985 5.97131 88.3795 5.8002 88.3091 5.64951C88.2386 5.49882 88.1351 5.37953 87.9986 5.29165C87.8621 5.20377 87.7073 5.16013 87.5343 5.16073C87.3613 5.16133 87.2031 5.20605 87.0599 5.2949C86.9166 5.38374 86.8048 5.51113 86.7244 5.67707C86.6476 5.83931 86.617 6.03268 86.6325 6.25719C86.6185 6.47443 86.6523 6.66574 86.7339 6.83112C86.8191 6.9928 86.9373 7.1194 87.0886 7.21091C87.2435 7.29872 87.4111 7.34232 87.5915 7.3417C87.7903 7.34101 87.9576 7.29442 88.0935 7.20191C88.2294 7.10941 88.3395 6.99123 88.4236 6.84737L88.8551 7.06676C88.7967 7.20317 88.7051 7.32865 88.5803 7.4432C88.4592 7.55405 88.3141 7.64291 88.145 7.70975C87.9796 7.77659 87.7938 7.81036 87.5876 7.81107ZM91.0236 7.79921C90.7365 7.8002 90.4768 7.73483 90.2444 7.60311C90.012 7.4677 89.8273 7.28244 89.6903 7.04731C89.5532 6.81218 89.4842 6.54552 89.4832 6.24734C89.4822 5.94916 89.5475 5.68388 89.6792 5.45151C89.8146 5.21912 89.9981 5.03442 90.2295 4.89741C90.461 4.76041 90.7221 4.6914 91.0129 4.6904C91.3 4.6894 91.5598 4.75661 91.7922 4.89202C92.0246 5.02374 92.2074 5.20533 92.3408 5.43679C92.4778 5.66824 92.5468 5.9349 92.5478 6.23676C92.5489 6.53862 92.4799 6.80759 92.3408 7.04367C92.2017 7.27608 92.0164 7.46078 91.785 7.59779C91.5572 7.7311 91.3034 7.79824 91.0236 7.79921ZM91.0219 7.30224C91.206 7.3016 91.3715 7.25502 91.5184 7.16248C91.669 7.06992 91.7864 6.94251 91.8705 6.78025C91.9583 6.61797 92.0018 6.43743 92.0012 6.23865C92.0005 6.03618 91.9557 5.85779 91.8668 5.70348C91.7816 5.54548 91.6633 5.42073 91.5121 5.32922C91.3645 5.23401 91.1987 5.18673 91.0146 5.18736C90.8269 5.18801 90.6577 5.23645 90.5071 5.33269C90.3602 5.42523 90.2428 5.5508 90.155 5.70939C90.0672 5.86431 90.0236 6.043 90.0243 6.24547C90.025 6.44426 90.0698 6.62449 90.1587 6.78616C90.2476 6.94783 90.3659 7.07442 90.5134 7.16595C90.6647 7.25746 90.8342 7.30289 91.0219 7.30224ZM93.2266 8.82972L93.2125 4.74906L93.715 4.74733L93.7172 5.38786L93.6505 5.26109C93.7603 5.08401 93.9108 4.9436 94.1018 4.83986C94.2929 4.73245 94.5117 4.67831 94.7584 4.67746C95.0381 4.67649 95.2887 4.74373 95.5101 4.87918C95.7351 5.01461 95.9124 5.1999 96.0421 5.43505C96.1717 5.66653 96.2371 5.93135 96.2381 6.22953C96.2391 6.52035 96.1756 6.78378 96.0476 7.01983C95.9195 7.25587 95.7435 7.44239 95.5194 7.57937C95.299 7.71634 95.047 7.78531 94.7636 7.78629C94.5243 7.78712 94.3051 7.73449 94.1059 7.62843C93.9105 7.52234 93.759 7.37193 93.6516 7.1772L93.7341 7.08856L93.7401 8.82795L93.2266 8.82972ZM94.7232 7.28946C94.911 7.28881 95.0783 7.24221 95.2252 7.14967C95.3722 7.05713 95.4859 6.93158 95.5663 6.773C95.6504 6.61074 95.6921 6.43021 95.6914 6.23142C95.6907 6.02527 95.6478 5.84504 95.5626 5.69072C95.481 5.5327 95.3665 5.40794 95.2189 5.31641C95.0713 5.22121 94.9037 5.17393 94.7159 5.17458C94.5282 5.17523 94.359 5.22183 94.2084 5.31438C94.0614 5.40692 93.9441 5.53433 93.8563 5.69661C93.7722 5.8552 93.7305 6.03572 93.7312 6.23819C93.7319 6.43698 93.7748 6.61721 93.86 6.7789C93.9489 6.93689 94.0672 7.06164 94.2147 7.15316C94.366 7.24467 94.5355 7.2901 94.7232 7.28946ZM96.9166 7.71259L96.9021 3.53254L97.4157 3.53076L97.4301 7.71082L96.9166 7.71259ZM99.5966 7.7696C99.3095 7.77059 99.0534 7.70337 98.8284 7.56794C98.6033 7.43251 98.426 7.24722 98.2963 7.01206C98.1667 6.77323 98.1013 6.50656 98.1003 6.21206C98.0993 5.91388 98.1609 5.64861 98.2853 5.41626C98.4133 5.1839 98.5857 5.00108 98.8025 4.8678C99.0229 4.73084 99.2693 4.66188 99.5417 4.66094C99.7626 4.66018 99.9578 4.7 100.127 4.7804C100.301 4.85711 100.446 4.96336 100.565 5.09916C100.687 5.23127 100.779 5.38372 100.842 5.55652C100.909 5.72563 100.943 5.90222 100.944 6.08628C100.944 6.12677 100.94 6.1728 100.933 6.22436C100.93 6.27223 100.924 6.31827 100.917 6.36247L98.4763 6.3709L98.4748 5.92915L100.617 5.92175L100.375 6.12137C100.407 5.92983 100.388 5.75872 100.318 5.60803C100.248 5.45734 100.144 5.33806 100.008 5.25018C99.8711 5.1623 99.7163 5.11866 99.5433 5.11925C99.3703 5.11985 99.2121 5.16457 99.0689 5.25342C98.9256 5.34227 98.8137 5.46966 98.7333 5.63559C98.6566 5.79783 98.626 5.99121 98.6415 6.21571C98.6275 6.43296 98.6613 6.62427 98.7428 6.78964C98.8281 6.95133 98.9463 7.07792 99.0976 7.16943C99.2525 7.25725 99.4201 7.30084 99.6005 7.30022C99.7993 7.29953 99.9666 7.25294 100.103 7.16044C100.238 7.06794 100.348 6.94976 100.433 6.80589L100.864 7.02528C100.806 7.16169 100.714 7.28717 100.589 7.40172C100.468 7.51258 100.323 7.60143 100.154 7.66828C99.9885 7.73511 99.8028 7.76889 99.5966 7.7696Z" fill="#90A3BF"/>
</svg>
