<svg width="102" height="11" viewBox="0 0 102 11" fill="none" xmlns="http://www.w3.org/2000/svg">
<path d="M9.79703 4.51208L9.00683 4.12039C8.86065 4.0499 8.67941 4.10574 8.60892 4.25192C8.53449 4.40206 8.59427 4.57934 8.74045 4.64983L9.36865 4.95926L9.37518 6.84853L7.89612 6.85758L7.88214 2.81084C7.87942 2.022 7.34954 1.62941 6.6948 1.63167L3.53945 1.64257C2.88471 1.64483 2.35755 2.04107 2.36028 2.82991L2.38242 9.23922L1.79079 9.24126C1.62907 9.24182 1.49544 9.37639 1.49599 9.5381C1.49655 9.69981 1.63112 9.83345 1.79283 9.83289L8.49795 9.80973C8.65966 9.80917 8.7933 9.67461 8.79274 9.5129C8.79219 9.35119 8.65762 9.21755 8.49591 9.21811L7.90428 9.22015L7.89816 7.44921L9.67304 7.43913C9.83869 7.43856 9.96839 7.30401 9.96783 7.1423L9.95965 4.77578C9.95927 4.66535 9.89581 4.56302 9.79703 4.51208ZM3.3489 3.57196C3.34701 3.02372 3.68158 2.82535 4.09178 2.82393L6.15459 2.81681C6.56084 2.8154 6.89678 3.01146 6.89867 3.5597L6.90035 4.04483C6.90223 4.58913 6.56765 4.7875 6.15746 4.78892L4.09859 4.79603C3.68839 4.79744 3.35246 4.60139 3.35056 4.05315L3.3489 3.57196ZM3.55341 5.68536L4.73667 5.68128C4.89838 5.68072 5.03295 5.81436 5.0335 5.97607C5.03406 6.13778 4.90042 6.27235 4.73871 6.2729L3.55546 6.27699C3.39374 6.27755 3.25918 6.14391 3.25862 5.9822C3.25806 5.82049 3.3917 5.68592 3.55341 5.68536Z" fill="#90A3BF"/>
<path d="M13.5365 7.81923L14.9492 5.96451L15.0487 5.97521C14.9937 6.04902 14.9332 6.10813 14.8671 6.15254C14.8009 6.19326 14.7274 6.22296 14.6465 6.24165C14.5693 6.26032 14.4846 6.26982 14.3926 6.27014C14.1496 6.27098 13.9304 6.21651 13.7349 6.10675C13.5431 5.99329 13.3898 5.83921 13.275 5.6445C13.1639 5.44609 13.1079 5.21988 13.107 4.96588C13.1061 4.71187 13.1642 4.48527 13.2813 4.28608C13.3985 4.08688 13.5599 3.92987 13.7657 3.81504C13.9714 3.69653 14.2031 3.63683 14.4608 3.63594C14.7258 3.63502 14.9598 3.69312 15.1627 3.81022C15.3692 3.92362 15.5318 4.0832 15.6503 4.28894C15.7688 4.491 15.8285 4.72456 15.8294 4.98961C15.8299 5.13318 15.8138 5.27496 15.7812 5.41496C15.7485 5.55496 15.6956 5.69688 15.6225 5.8407C15.553 5.98451 15.4597 6.13392 15.3424 6.28894L14.1881 7.81698L13.5365 7.81923ZM14.4683 5.79499C14.6265 5.79444 14.7663 5.75899 14.8876 5.68862C15.0125 5.61457 15.1097 5.51484 15.1792 5.38943C15.2487 5.26035 15.2832 5.11666 15.2826 4.95836C15.282 4.79271 15.2447 4.64743 15.1707 4.52252C15.1003 4.3976 15.0042 4.29853 14.8825 4.22533C14.7608 4.15212 14.6207 4.11579 14.4625 4.11634C14.3078 4.11688 14.1699 4.15416 14.0487 4.22821C13.9275 4.30225 13.8303 4.40198 13.7571 4.5274C13.6876 4.6528 13.6531 4.79833 13.6537 4.96399C13.6542 5.12228 13.6897 5.26573 13.7601 5.39433C13.8304 5.51925 13.9265 5.61832 14.0482 5.69152C14.1736 5.76103 14.3136 5.79552 14.4683 5.79499ZM18.14 7.8696C17.8123 7.87073 17.5249 7.78337 17.2776 7.60752C17.034 7.42798 16.8436 7.18015 16.7063 6.86404C16.569 6.54424 16.4996 6.17267 16.4981 5.74932C16.4967 5.32598 16.5635 4.95578 16.6986 4.63872C16.8337 4.31799 17.0224 4.06885 17.2648 3.89131C17.5071 3.71377 17.7921 3.62443 18.1198 3.6233C18.4474 3.62217 18.733 3.70953 18.9766 3.8854C19.2201 4.06126 19.4106 4.30909 19.5479 4.62888C19.6889 4.94499 19.7601 5.31471 19.7616 5.73805C19.763 6.1614 19.6962 6.53344 19.5611 6.85418C19.426 7.17491 19.2354 7.42406 18.9894 7.60161C18.7471 7.77915 18.4639 7.86848 18.14 7.8696ZM18.1382 7.36711C18.3591 7.36635 18.5503 7.29942 18.7118 7.16634C18.8733 7.02957 18.9978 6.83956 19.0853 6.59629C19.1765 6.35301 19.2216 6.06755 19.2204 5.73992C19.2193 5.41229 19.1723 5.12715 19.0794 4.88451C18.9902 4.64185 18.8626 4.45455 18.6965 4.3226C18.534 4.19063 18.3424 4.12503 18.1215 4.12579C17.9006 4.12655 17.7094 4.19348 17.5479 4.32656C17.3864 4.45965 17.26 4.64783 17.1689 4.89111C17.0813 5.13438 17.0382 5.41982 17.0393 5.74746C17.0404 6.0714 17.0856 6.35471 17.1747 6.59737C17.2676 6.84001 17.3953 7.02915 17.5577 7.1648C17.7238 7.30044 17.9173 7.36787 18.1382 7.36711ZM20.5894 7.79487L20.5752 3.68108L21.1163 3.67922L21.1288 7.29604L22.9345 7.2898L22.9362 7.78677L20.5894 7.79487Z" fill="#90A3BF"/>
<g clip-path="url(#clip0_20_6440)">
<path d="M34.8958 1.53423C32.7187 1.54175 30.9578 3.31485 30.9653 5.49204C30.9728 7.66923 32.7459 9.43013 34.9231 9.42261C37.1003 9.41509 38.8612 7.64199 38.8537 5.4648C38.8461 3.2876 37.077 1.5267 34.8958 1.53423Z" fill="#90A3BF"/>
<rect x="31.7432" y="2.33398" width="6.31074" height="6.31074" rx="3.15537" transform="rotate(-0.197882 31.7432 2.33398)" fill="white"/>
<path d="M34.9013 3.11182C33.595 3.11633 32.5385 4.18019 32.543 5.48651C32.5475 6.79282 33.6113 7.84936 34.9177 7.84485C36.224 7.84034 37.2805 6.77648 37.276 5.47016C37.2715 4.16385 36.21 3.1073 34.9013 3.11182Z" fill="#90A3BF"/>
<rect x="33.3263" y="3.90613" width="3.15537" height="3.15537" rx="1.57769" transform="rotate(-0.197882 33.3263 3.90613)" fill="white"/>
<rect x="34.5219" y="7.4519" width="0.788843" height="1.57769" transform="rotate(-0.197882 34.5219 7.4519)" fill="#90A3BF"/>
<rect x="36.8801" y="5.07715" width="1.57769" height="0.788843" transform="rotate(-0.197882 36.8801 5.07715)" fill="#90A3BF"/>
<rect x="31.3583" y="5.09625" width="1.57769" height="0.788843" transform="rotate(-0.197882 31.3583 5.09625)" fill="#90A3BF"/>
</g>
<path d="M41.6862 7.72201L41.672 3.60822L42.169 3.6065L43.7172 5.79336L43.4632 5.79424L44.9851 3.59678L45.4821 3.59506L45.4963 7.70885L44.9496 7.71074L44.9378 4.28166L45.1313 4.34173L43.6092 6.50054L43.565 6.50069L42.0446 4.35239L42.2155 4.29106L42.2274 7.72014L41.6862 7.72201ZM47.222 7.76915C47.0268 7.76983 46.8537 7.73545 46.7025 7.66603C46.555 7.59291 46.4387 7.49392 46.3536 7.36905C46.2685 7.2405 46.2257 7.0934 46.2251 6.92774C46.2246 6.76945 46.2572 6.6276 46.323 6.50221C46.3925 6.37313 46.4989 6.26416 46.6422 6.17532C46.7891 6.08646 46.973 6.02324 47.1937 5.98567L48.2974 5.79963L48.2989 6.23034L47.3111 6.39941C47.1198 6.4332 46.9801 6.49442 46.8921 6.58308C46.8077 6.67172 46.7657 6.78046 46.7662 6.90931C46.7666 7.03079 46.8148 7.13186 46.9108 7.21251C47.0105 7.29316 47.1339 7.33322 47.2812 7.33272C47.4689 7.33207 47.6308 7.29285 47.7667 7.21508C47.9063 7.13361 48.0145 7.02464 48.0914 6.88816C48.1719 6.75168 48.2119 6.60061 48.2113 6.43495L48.2087 5.67845C48.2081 5.51648 48.1469 5.38601 48.0251 5.28703C47.9069 5.18436 47.7503 5.13337 47.5552 5.13404C47.3859 5.13462 47.2351 5.17932 47.1029 5.26813C46.9743 5.35324 46.879 5.46769 46.8169 5.61148L46.3688 5.3811C46.4236 5.24471 46.5115 5.12292 46.6326 5.01574C46.7537 4.90489 46.8952 4.81789 47.0569 4.75475C47.2187 4.69161 47.3879 4.65973 47.5646 4.65912C47.7929 4.65833 47.9936 4.70182 48.167 4.78957C48.3403 4.87364 48.475 4.99281 48.5713 5.1471C48.6712 5.29768 48.7215 5.47421 48.7222 5.67668L48.7292 7.69768L48.2267 7.69942L48.2248 7.13619L48.3187 7.169C48.2566 7.28701 48.1723 7.39038 48.0658 7.4791C47.9594 7.56782 47.8344 7.63819 47.691 7.69023C47.5477 7.74226 47.3913 7.76857 47.222 7.76915ZM49.5254 7.69493L49.5151 4.71865L50.0176 4.71691L50.0196 5.29671L49.9366 5.2473C50.0096 5.0593 50.1269 4.91348 50.2885 4.80985C50.4538 4.70252 50.6469 4.64848 50.8678 4.64771C51.0813 4.64698 51.271 4.69418 51.437 4.78932C51.6067 4.88445 51.7397 5.01651 51.836 5.18552C51.9359 5.35451 51.9863 5.54577 51.987 5.75928L51.9937 7.68641L51.4746 7.6882L51.4686 5.92673C51.468 5.76107 51.4381 5.62128 51.3788 5.50737C51.3195 5.39345 51.2345 5.3054 51.1238 5.2432C51.0169 5.1773 50.8934 5.1446 50.7535 5.14508C50.6136 5.14556 50.4886 5.17913 50.3784 5.24577C50.2718 5.30872 50.1875 5.3992 50.1253 5.51722C50.0631 5.63156 50.0323 5.76971 50.0329 5.93169L50.039 7.69316L49.5254 7.69493ZM53.7834 7.74649C53.5699 7.74723 53.3765 7.6982 53.2031 7.5994C53.0334 7.50059 52.9004 7.36301 52.8041 7.18664C52.7115 7.00657 52.6647 6.80058 52.6639 6.56866L52.6575 4.7078L53.171 4.70602L53.1773 6.51167C53.1778 6.65892 53.2077 6.78766 53.267 6.8979C53.3299 7.00812 53.4149 7.09434 53.5219 7.15655C53.6325 7.21875 53.7578 7.24961 53.8977 7.24912C54.0376 7.24864 54.1608 7.21692 54.2673 7.15397C54.3775 7.09101 54.4619 7.00053 54.5204 6.88252C54.5826 6.76451 54.6134 6.62451 54.6128 6.46254L54.6067 4.70106L55.1258 4.69927L55.1361 7.67556L54.6336 7.67729L54.6316 7.0975L54.7146 7.14691C54.6453 7.33489 54.5261 7.48255 54.3572 7.5899C54.1919 7.69354 54.0006 7.74574 53.7834 7.74649ZM56.8043 7.73606C56.6092 7.73673 56.4361 7.70236 56.2849 7.63293C56.1374 7.55982 56.0211 7.46083 55.936 7.33596C55.8509 7.2074 55.8081 7.0603 55.8075 6.89465C55.8069 6.73635 55.8396 6.59451 55.9054 6.46912C55.9749 6.34003 56.0813 6.23107 56.2245 6.14222C56.3715 6.05336 56.5553 5.99015 56.7761 5.95257L57.8798 5.76654L57.8813 6.19724L56.8935 6.36631C56.7022 6.4001 56.5625 6.46133 56.4744 6.54998C56.3901 6.63862 56.3481 6.74737 56.3486 6.87621C56.349 6.99769 56.3972 7.09876 56.4932 7.17942C56.5929 7.26006 56.7163 7.30013 56.8636 7.29962C57.0513 7.29897 57.2132 7.25976 57.3491 7.18198C57.4887 7.10051 57.5969 6.99154 57.6738 6.85507C57.7543 6.71858 57.7942 6.56751 57.7937 6.40186L57.7911 5.64536C57.7905 5.48338 57.7293 5.35291 57.6075 5.25394C57.4893 5.15127 57.3327 5.10027 57.1376 5.10095C56.9683 5.10153 56.8175 5.14623 56.6853 5.23503C56.5567 5.32015 56.4614 5.4346 56.3993 5.57838L55.9512 5.34801C56.006 5.21161 56.0939 5.08982 56.215 4.98265C56.3361 4.87179 56.4775 4.78479 56.6393 4.72165C56.8011 4.65851 56.9703 4.62664 57.147 4.62603C57.3752 4.62524 57.576 4.66872 57.7493 4.75647C57.9226 4.84054 58.0574 4.95972 58.1537 5.114C58.2536 5.26459 58.3039 5.44112 58.3046 5.64359L58.3116 7.66459L57.8091 7.66632L57.8071 7.10309L57.9011 7.1359C57.8389 7.25392 57.7546 7.35728 57.6482 7.446C57.5417 7.53472 57.4168 7.6051 57.2734 7.65713C57.13 7.70916 56.9737 7.73547 56.8043 7.73606ZM59.1078 7.66184L59.0934 3.48179L59.6069 3.48001L59.6213 7.66007L59.1078 7.66184Z" fill="#90A3BF"/>
<path d="M69.999 1.41302C68.9656 1.41659 68.1284 2.25961 68.132 3.29298C68.1355 4.30664 68.9311 5.12429 69.9646 5.15622C69.9961 5.15217 70.0277 5.15206 70.0513 5.15592C70.0592 5.1559 70.0632 5.15588 70.0711 5.15586C70.075 5.15584 70.075 5.15584 70.079 5.15583C71.0885 5.11684 71.8785 4.29371 71.8789 3.28004C71.8754 2.24667 71.0324 1.40946 69.999 1.41302Z" fill="#90A3BF"/>
<path d="M72.0192 6.19832C70.9162 5.4685 69.1216 5.4747 68.0158 6.21214C67.5161 6.54913 67.2416 7.00366 67.2432 7.4888C67.2449 7.97393 67.5226 8.42262 68.0207 8.75221C68.5741 9.12106 69.3005 9.30393 70.0262 9.30143C70.752 9.29892 71.4771 9.11104 72.028 8.73837C72.5238 8.4014 72.7983 7.95081 72.7966 7.46173C72.791 6.97661 72.5173 6.52791 72.0192 6.19832Z" fill="#90A3BF"/>
<path d="M74.341 3.50427C74.4067 4.26923 73.8648 4.94162 73.1117 5.03494C73.1078 5.03495 73.1078 5.03495 73.1038 5.03497L73.092 5.03501C73.0683 5.03509 73.0447 5.03517 73.025 5.04313C72.6425 5.06417 72.291 4.94311 72.026 4.7192C72.431 4.35494 72.6618 3.80983 72.6124 3.21837C72.5837 2.89899 72.4723 2.6075 72.3058 2.35958C72.4554 2.28413 72.6288 2.2362 72.8062 2.21981C73.579 2.15009 74.2712 2.72355 74.341 3.50427Z" fill="#90A3BF"/>
<path d="M75.1424 7.14992C75.1121 7.53261 74.8687 7.86477 74.4593 8.091C74.0657 8.3093 73.569 8.41356 73.076 8.40343C73.3591 8.14608 73.5236 7.82603 73.554 7.48672C73.5918 6.9975 73.3574 6.52895 72.8907 6.15586C72.6257 5.94773 72.3175 5.78314 71.9818 5.66202C72.8526 5.40658 73.9497 5.5724 74.626 6.11437C74.9899 6.40498 75.1766 6.77115 75.1424 7.14992Z" fill="#90A3BF"/>
<path d="M78.6014 7.59451L78.6001 7.21902L79.7334 5.98372C79.9571 5.74366 80.135 5.5461 80.2669 5.39103C80.4026 5.23595 80.5015 5.09756 80.5637 4.97586C80.6259 4.85416 80.6567 4.72521 80.6562 4.589C80.6555 4.36445 80.5886 4.19166 80.4557 4.07063C80.3227 3.94961 80.1476 3.88947 79.9304 3.89023C79.7096 3.89099 79.522 3.95606 79.3679 4.08544C79.2137 4.21113 79.1076 4.39004 79.0495 4.62216L78.5576 4.49686C78.6047 4.27582 78.6924 4.08409 78.8206 3.92167C78.9489 3.75925 79.1086 3.63353 79.2998 3.54452C79.4909 3.45551 79.7005 3.41061 79.9288 3.40982C80.1791 3.40896 80.3983 3.4579 80.5864 3.55664C80.7782 3.65169 80.9277 3.78555 81.0351 3.9582C81.1461 4.13083 81.202 4.33127 81.2028 4.55951C81.2033 4.71044 81.1725 4.8578 81.1105 5.00158C81.0484 5.14536 80.9569 5.29845 80.8359 5.46085C80.715 5.61956 80.5574 5.80417 80.363 6.01467L79.3508 7.12256L81.3 7.11583L81.3016 7.58518L78.6014 7.59451ZM83.0216 7.57924L83.0074 3.46545L84.4596 3.46044C84.732 3.4595 84.9715 3.51021 85.178 3.61257C85.3845 3.71493 85.5451 3.86163 85.6599 4.05266C85.7784 4.24368 85.8381 4.46803 85.839 4.72572C85.8398 4.98341 85.7817 5.20816 85.6646 5.4C85.5511 5.58813 85.3915 5.73594 85.1857 5.8434C84.9836 5.94718 84.7445 5.99954 84.4684 6.0005L83.5573 6.00364L83.5627 7.57737L83.0216 7.57924ZM83.5556 5.50667L84.4832 5.50347C84.6489 5.5029 84.7924 5.47111 84.9136 5.40811C85.0349 5.34511 85.1284 5.2546 85.1943 5.13657C85.2602 5.01854 85.2928 4.88222 85.2923 4.72761C85.2917 4.56931 85.2581 4.43322 85.1915 4.31933C85.1248 4.20176 85.0306 4.11189 84.9089 4.04973C84.7872 3.98757 84.6436 3.95678 84.4779 3.95735L83.5502 3.96055L83.5556 5.50667ZM87.7817 7.62907C87.4945 7.63006 87.2384 7.56284 87.0134 7.42741C86.7884 7.29198 86.611 7.10669 86.4814 6.87153C86.3517 6.6327 86.2864 6.36603 86.2854 6.07153C86.2843 5.77335 86.346 5.50808 86.4704 5.27573C86.5984 5.04337 86.7708 4.86055 86.9875 4.72727C87.2079 4.5903 87.4543 4.52135 87.7267 4.52041C87.9476 4.51965 88.1429 4.55947 88.3125 4.63987C88.4858 4.71658 88.6315 4.82283 88.7498 4.95863C88.8718 5.09074 88.9643 5.24319 89.0275 5.41599C89.0943 5.5851 89.1281 5.76168 89.1287 5.94575C89.1289 5.98624 89.1253 6.03227 89.1181 6.08383C89.1146 6.1317 89.1093 6.17774 89.1021 6.22194L86.6614 6.23037L86.6599 5.78862L88.8024 5.78122L88.5601 5.98084C88.5925 5.7893 88.5735 5.61819 88.5031 5.4675C88.4326 5.31681 88.3291 5.19753 88.1926 5.10965C88.0561 5.02177 87.9013 4.97813 87.7283 4.97872C87.5553 4.97932 87.3972 5.02404 87.2539 5.11289C87.1106 5.20173 86.9988 5.32912 86.9184 5.49506C86.8416 5.6573 86.811 5.85068 86.8265 6.07518C86.8125 6.29242 86.8463 6.48374 86.9279 6.64911C87.0131 6.81079 87.1314 6.93739 87.2826 7.0289C87.4375 7.11672 87.6052 7.16031 87.7856 7.15969C87.9843 7.159 88.1517 7.11241 88.2876 7.01991C88.4235 6.92741 88.5335 6.80922 88.6177 6.66536L89.0491 6.88475C88.9907 7.02116 88.8991 7.14664 88.7743 7.26119C88.6532 7.37205 88.5081 7.4609 88.339 7.52775C88.1736 7.59458 87.9878 7.62835 87.7817 7.62907ZM91.2177 7.6172C90.9305 7.61819 90.6708 7.55283 90.4384 7.4211C90.206 7.2857 90.0213 7.10043 89.8843 6.8653C89.7473 6.63017 89.6783 6.36352 89.6772 6.06534C89.6762 5.76715 89.7415 5.50188 89.8733 5.2695C90.0087 5.03711 90.1921 4.85241 90.4235 4.71541C90.655 4.5784 90.9161 4.50939 91.2069 4.50839C91.4941 4.5074 91.7538 4.5746 91.9862 4.71001C92.2186 4.84173 92.4015 5.02333 92.5348 5.25479C92.6718 5.48623 92.7408 5.75289 92.7419 6.05475C92.7429 6.35661 92.6739 6.62559 92.5348 6.86167C92.3957 7.09407 92.2105 7.27877 91.979 7.41578C91.7512 7.54909 91.4975 7.61623 91.2177 7.6172ZM91.216 7.12023C91.4 7.1196 91.5655 7.07301 91.7125 6.98047C91.8631 6.88792 91.9804 6.76051 92.0645 6.59824C92.1523 6.43596 92.1959 6.25543 92.1952 6.05664C92.1945 5.85417 92.1497 5.67578 92.0608 5.52148C91.9756 5.36347 91.8574 5.23872 91.7061 5.14721C91.5585 5.05201 91.3927 5.00472 91.2087 5.00536C91.0209 5.00601 90.8517 5.05445 90.7011 5.15068C90.5542 5.24322 90.4368 5.36879 90.349 5.52739C90.2612 5.6823 90.2177 5.861 90.2184 6.06347C90.2191 6.26225 90.2638 6.44248 90.3528 6.60415C90.4417 6.76582 90.5599 6.89242 90.7075 6.98394C90.8587 7.07545 91.0282 7.12088 91.216 7.12023ZM93.4206 8.64771L93.4065 4.56706L93.909 4.56532L93.9112 5.20586L93.8445 5.07908C93.9543 4.902 94.1048 4.76159 94.2959 4.65786C94.4869 4.55044 94.7058 4.49631 94.9524 4.49545C95.2322 4.49449 95.4827 4.56173 95.7041 4.69717C95.9291 4.8326 96.1065 5.01789 96.2361 5.25305C96.3658 5.48452 96.4311 5.74935 96.4321 6.04753C96.4331 6.33835 96.3696 6.60178 96.2416 6.83782C96.1136 7.07387 95.9375 7.26038 95.7134 7.39736C95.493 7.53433 95.2411 7.6033 94.9576 7.60428C94.7183 7.60511 94.4991 7.55249 94.3 7.44642C94.1045 7.34034 93.953 7.18993 93.8456 6.99519L93.9281 6.90655L93.9341 8.64594L93.4206 8.64771ZM94.9173 7.10745C95.105 7.1068 95.2723 7.06021 95.4193 6.96767C95.5662 6.87513 95.6799 6.74957 95.7603 6.591C95.8444 6.42873 95.8861 6.2482 95.8855 6.04942C95.8847 5.84327 95.8418 5.66303 95.7566 5.50871C95.6751 5.3507 95.5605 5.22593 95.4129 5.13441C95.2654 5.0392 95.0977 4.99193 94.9099 4.99257C94.7222 4.99322 94.553 5.03982 94.4024 5.13238C94.2555 5.22491 94.1381 5.35232 94.0503 5.5146C93.9662 5.67319 93.9245 5.85372 93.9252 6.05619C93.9259 6.25497 93.9688 6.43521 94.0541 6.59689C94.143 6.75488 94.2612 6.87963 94.4088 6.97116C94.56 7.06267 94.7295 7.1081 94.9173 7.10745ZM97.1106 7.53058L97.0962 3.35053L97.6097 3.34876L97.6242 7.52881L97.1106 7.53058ZM99.7906 7.58759C99.5035 7.58858 99.2474 7.52136 99.0224 7.38593C98.7974 7.2505 98.62 7.06521 98.4904 6.83006C98.3607 6.59122 98.2954 6.32455 98.2943 6.03005C98.2933 5.73187 98.355 5.46661 98.4793 5.23426C98.6074 5.00189 98.7798 4.81907 98.9965 4.6858C99.2169 4.54883 99.4633 4.47987 99.7357 4.47893C99.9566 4.47817 100.152 4.51799 100.321 4.59839C100.495 4.6751 100.641 4.78136 100.759 4.91715C100.881 5.04926 100.973 5.20171 101.036 5.37452C101.103 5.54362 101.137 5.72021 101.138 5.90427C101.138 5.94477 101.134 5.99079 101.127 6.04236C101.124 6.09023 101.118 6.13626 101.111 6.18046L98.6704 6.18889L98.6688 5.74714L100.811 5.73974L100.569 5.93937C100.602 5.74783 100.583 5.57671 100.512 5.42602C100.442 5.27533 100.338 5.15605 100.202 5.06817C100.065 4.98029 99.9103 4.93665 99.7373 4.93725C99.5643 4.93785 99.4061 4.98257 99.2629 5.07141C99.1196 5.16026 99.0078 5.28765 98.9274 5.45358C98.8506 5.61583 98.82 5.8092 98.8355 6.03371C98.8215 6.25095 98.8553 6.44226 98.9369 6.60764C99.0221 6.76932 99.1403 6.89591 99.2916 6.98742C99.4465 7.07524 99.6142 7.11884 99.7945 7.11821C99.9933 7.11753 100.161 7.07093 100.297 6.97843C100.432 6.88593 100.542 6.76775 100.627 6.62389L101.058 6.84327C101 6.97968 100.908 7.10516 100.783 7.21972C100.662 7.33057 100.517 7.41942 100.348 7.48627C100.183 7.55311 99.9968 7.58688 99.7906 7.58759Z" fill="#90A3BF"/>
<defs>
<clipPath id="clip0_20_6440">
<rect width="9.46611" height="9.46611" fill="white" transform="translate(30.16 0.76178) rotate(-0.197882)"/>
</clipPath>
</defs>
</svg>
