<svg width="102" height="11" viewBox="0 0 102 11" fill="none" xmlns="http://www.w3.org/2000/svg">
<path d="M8.84659 4.59668L8.05639 4.20498C7.91021 4.13449 7.72897 4.19034 7.65848 4.33652C7.58406 4.48665 7.64383 4.66394 7.79001 4.73443L8.41821 5.04385L8.42474 6.93312L6.94568 6.94217L6.9317 2.89543C6.92898 2.1066 6.3991 1.714 5.74436 1.71626L2.58901 1.72716C1.93427 1.72942 1.40712 2.12567 1.40984 2.91451L1.43198 9.32381L0.840347 9.32586C0.678636 9.32642 0.544996 9.46098 0.545555 9.62269C0.546113 9.7844 0.680679 9.91804 0.842391 9.91749L7.54751 9.89433C7.70922 9.89377 7.84286 9.7592 7.8423 9.59749C7.84175 9.43578 7.70718 9.30214 7.54547 9.3027L6.95384 9.30474L6.94772 7.5338L8.7226 7.52373C8.88825 7.52316 9.01795 7.3886 9.01739 7.22689L9.00922 4.86038C9.00883 4.74994 8.94537 4.64761 8.84659 4.59668ZM2.39846 3.65655C2.39657 3.10831 2.73114 2.90994 3.14134 2.90853L5.20415 2.9014C5.6104 2.9 5.94634 3.09605 5.94823 3.64429L5.94991 4.12943C5.95179 4.67373 5.61721 4.87209 5.20702 4.87351L3.14815 4.88062C2.73795 4.88204 2.40202 4.68599 2.40012 4.13774L2.39846 3.65655ZM2.60297 5.76996L3.78623 5.76587C3.94794 5.76531 4.08251 5.89895 4.08307 6.06066C4.08362 6.22237 3.94998 6.35694 3.78827 6.3575L2.60502 6.36159C2.4433 6.36214 2.30874 6.2285 2.30818 6.06679C2.30762 5.90508 2.44126 5.77052 2.60297 5.76996Z" fill="#90A3BF"/>
<path d="M12.3045 7.9048L14.0976 4.25413L12.0821 4.26109L12.0805 3.79174L14.6647 3.78281L14.6663 4.25217L12.8898 7.90278L12.3045 7.9048ZM16.9092 7.95516C16.5815 7.95629 16.2941 7.86893 16.0468 7.69309C15.8033 7.51354 15.6128 7.26572 15.4755 6.9496C15.3382 6.6298 15.2688 6.25823 15.2674 5.83489C15.2659 5.41154 15.3327 5.04134 15.4678 4.72429C15.6029 4.40355 15.7917 4.15441 16.034 3.97687C16.2764 3.79933 16.5614 3.71 16.889 3.70886C17.2166 3.70773 17.5022 3.7951 17.7458 3.97096C17.9894 4.14682 18.1798 4.39465 18.3171 4.71445C18.4581 5.03055 18.5293 5.40027 18.5308 5.82362C18.5322 6.24696 18.4654 6.619 18.3303 6.93974C18.1952 7.26048 18.0047 7.50962 17.7586 7.68717C17.5163 7.86471 17.2331 7.95404 16.9092 7.95516ZM16.9074 7.45267C17.1283 7.45191 17.3195 7.38498 17.481 7.2519C17.6425 7.11514 17.767 6.92512 17.8545 6.68185C17.9457 6.43857 17.9908 6.15312 17.9896 5.82549C17.9885 5.49785 17.9415 5.21272 17.8486 4.97007C17.7594 4.72742 17.6318 4.54011 17.4657 4.40816C17.3032 4.27619 17.1116 4.21059 16.8907 4.21135C16.6698 4.21212 16.4786 4.27904 16.3171 4.41213C16.1556 4.54521 16.0293 4.73339 15.9381 4.97667C15.8506 5.21994 15.8074 5.50539 15.8085 5.83302C15.8096 6.15697 15.8548 6.44027 15.944 6.68293C16.0368 6.92557 16.1645 7.11472 16.3269 7.25036C16.4931 7.386 16.6866 7.45343 16.9074 7.45267ZM19.3586 7.88044L19.3444 3.76665L19.8856 3.76478L19.898 7.3816L21.7037 7.37536L21.7054 7.87233L19.3586 7.88044Z" fill="#90A3BF"/>
<path d="M33.9453 1.61895C31.7682 1.62647 30.0073 3.39957 30.0148 5.57676C30.0223 7.75395 31.7954 9.51484 33.9726 9.50733C36.1498 9.49981 37.9107 7.72671 37.9032 5.54951C37.8956 3.37232 36.1265 1.61141 33.9453 1.61895Z" fill="#90A3BF"/>
<rect x="30.7927" y="2.41864" width="6.31074" height="6.31074" rx="3.15537" transform="rotate(-0.197882 30.7927 2.41864)" fill="white"/>
<path d="M33.9508 3.19654C32.6445 3.20105 31.588 4.26491 31.5925 5.57123C31.597 6.87754 32.6608 7.93408 33.9671 7.92957C35.2735 7.92505 36.33 6.86119 36.3255 5.55488C36.321 4.24856 35.2595 3.19202 33.9508 3.19654Z" fill="#90A3BF"/>
<rect x="32.3758" y="3.99084" width="3.15537" height="3.15537" rx="1.57769" transform="rotate(-0.197882 32.3758 3.99084)" fill="white"/>
<rect x="33.5714" y="7.53656" width="0.788843" height="1.57769" transform="rotate(-0.197882 33.5714 7.53656)" fill="#90A3BF"/>
<rect x="35.9297" y="5.1618" width="1.57769" height="0.788843" transform="rotate(-0.197882 35.9297 5.1618)" fill="#90A3BF"/>
<rect x="30.4078" y="5.18097" width="1.57769" height="0.788843" transform="rotate(-0.197882 30.4078 5.18097)" fill="#90A3BF"/>
<path d="M40.7358 7.80666L40.7216 3.69287L41.2186 3.69116L42.7668 5.87802L42.5128 5.87889L44.0348 3.68143L44.5317 3.67971L44.5459 7.79351L43.9993 7.79539L43.9874 4.36631L44.1809 4.42639L42.6588 6.5852L42.6146 6.58535L41.0942 4.43705L41.2651 4.37572L41.277 7.8048L40.7358 7.80666ZM46.2716 7.85381C46.0765 7.85448 45.9033 7.82011 45.7522 7.75069C45.6047 7.67757 45.4884 7.57858 45.4032 7.45371C45.3181 7.32516 45.2753 7.17805 45.2747 7.0124C45.2742 6.8541 45.3068 6.71226 45.3726 6.58687C45.4421 6.45778 45.5485 6.34882 45.6918 6.25997C45.8387 6.17111 46.0226 6.1079 46.2433 6.07032L47.3471 5.88429L47.3486 6.31499L46.3607 6.48406C46.1694 6.51785 46.0297 6.57908 45.9417 6.66773C45.8573 6.75637 45.8154 6.86512 45.8158 6.99396C45.8162 7.11544 45.8644 7.21651 45.9604 7.29717C46.0601 7.37781 46.1836 7.41788 46.3308 7.41737C46.5186 7.41672 46.6804 7.37751 46.8163 7.29973C46.9559 7.21826 47.0642 7.10929 47.141 6.97282C47.2215 6.83633 47.2615 6.68526 47.2609 6.51961L47.2583 5.76311C47.2577 5.60114 47.1966 5.47066 47.0747 5.37169C46.9566 5.26902 46.7999 5.21802 46.6048 5.2187C46.4355 5.21928 46.2847 5.26398 46.1525 5.35278C46.0239 5.4379 45.9286 5.55235 45.8665 5.69613L45.4185 5.46576C45.4732 5.32936 45.5611 5.20758 45.6823 5.1004C45.8034 4.98954 45.9448 4.90254 46.1065 4.8394C46.2683 4.77626 46.4375 4.74439 46.6142 4.74378C46.8425 4.74299 47.0433 4.78647 47.2166 4.87422C47.3899 4.95829 47.5247 5.07747 47.6209 5.23175C47.7208 5.38234 47.7711 5.55887 47.7718 5.76134L47.7788 7.78234L47.2763 7.78408L47.2744 7.22084L47.3684 7.25365C47.3062 7.37167 47.2219 7.47503 47.1154 7.56375C47.009 7.65247 46.8841 7.72285 46.7407 7.77488C46.5973 7.82691 46.4409 7.85322 46.2716 7.85381ZM48.575 7.77959L48.5648 4.8033L49.0673 4.80157L49.0693 5.38136L48.9863 5.33195C49.0592 5.14396 49.1765 4.99814 49.3381 4.89451C49.5034 4.78718 49.6965 4.73313 49.9174 4.73237C50.1309 4.73163 50.3207 4.77883 50.4866 4.87397C50.6563 4.9691 50.7893 5.10117 50.8856 5.27017C50.9856 5.43917 51.0359 5.63042 51.0367 5.84393L51.0433 7.77106L50.5243 7.77286L50.5182 6.01138C50.5176 5.84573 50.4877 5.70594 50.4284 5.59203C50.3691 5.47811 50.2841 5.39005 50.1735 5.32785C50.0665 5.26196 49.943 5.22925 49.8031 5.22974C49.6633 5.23022 49.5382 5.26378 49.428 5.33043C49.3215 5.39338 49.2371 5.48386 49.1749 5.60188C49.1127 5.71621 49.0819 5.85437 49.0825 6.01634L49.0886 7.77782L48.575 7.77959ZM52.8331 7.83115C52.6195 7.83188 52.4261 7.78285 52.2528 7.68406C52.0831 7.58525 51.9501 7.44766 51.8537 7.27129C51.7611 7.09123 51.7144 6.88524 51.7136 6.65332L51.7071 4.79245L52.2207 4.79068L52.2269 6.59633C52.2274 6.74358 52.2573 6.87232 52.3166 6.98255C52.3796 7.09277 52.4645 7.17899 52.5715 7.2412C52.6821 7.3034 52.8074 7.33426 52.9473 7.33378C53.0872 7.3333 53.2104 7.30158 53.3169 7.23863C53.4272 7.17567 53.5115 7.08518 53.57 6.96718C53.6322 6.84916 53.663 6.70917 53.6624 6.54719L53.6564 4.78572L54.1754 4.78393L54.1857 7.76021L53.6832 7.76195L53.6812 7.18215L53.7642 7.23156C53.6949 7.41955 53.5758 7.56721 53.4068 7.67455C53.2415 7.7782 53.0503 7.8304 52.8331 7.83115ZM55.854 7.82071C55.6588 7.82139 55.4857 7.78701 55.3345 7.71759C55.187 7.64447 55.0707 7.54548 54.9856 7.42061C54.9005 7.29206 54.8577 7.14496 54.8571 6.9793C54.8566 6.82101 54.8892 6.67916 54.955 6.55377C55.0245 6.42469 55.1309 6.31572 55.2742 6.22688C55.4211 6.13802 55.605 6.0748 55.8257 6.03723L56.9294 5.85119L56.9309 6.2819L55.9431 6.45097C55.7518 6.48476 55.6121 6.54598 55.5241 6.63464C55.4397 6.72328 55.3977 6.83202 55.3982 6.96087C55.3986 7.08235 55.4468 7.18342 55.5428 7.26407C55.6425 7.34472 55.7659 7.38478 55.9132 7.38428C56.1009 7.38363 56.2628 7.34442 56.3987 7.26664C56.5383 7.18517 56.6465 7.0762 56.7234 6.93972C56.8039 6.80324 56.8439 6.65217 56.8433 6.48651L56.8407 5.73002C56.8401 5.56804 56.7789 5.43757 56.6571 5.33859C56.5389 5.23592 56.3823 5.18493 56.1872 5.1856C56.0179 5.18619 55.8671 5.23088 55.7349 5.31969C55.6063 5.4048 55.511 5.51925 55.4489 5.66304L55.0009 5.43266C55.0556 5.29627 55.1435 5.17448 55.2646 5.0673C55.3857 4.95645 55.5272 4.86945 55.6889 4.80631C55.8507 4.74317 56.0199 4.71129 56.1966 4.71068C56.4249 4.70989 56.6256 4.75338 56.799 4.84113C56.9723 4.9252 57.107 5.04438 57.2033 5.19866C57.3032 5.34925 57.3535 5.52577 57.3542 5.72824L57.3612 7.74924L56.8587 7.75098L56.8568 7.18775L56.9507 7.22056C56.8886 7.33857 56.8043 7.44194 56.6978 7.53066C56.5914 7.61938 56.4664 7.68975 56.323 7.74179C56.1797 7.79382 56.0233 7.82013 55.854 7.82071ZM58.1574 7.74649L58.143 3.56644L58.6565 3.56467L58.671 7.74472L58.1574 7.74649Z" fill="#90A3BF"/>
<path d="M69.0487 1.49762C68.0153 1.50119 67.1781 2.3442 67.1816 3.37758C67.1851 4.39124 67.9808 5.20889 69.0143 5.24082C69.0458 5.23676 69.0774 5.23666 69.101 5.24052C69.1089 5.24049 69.1129 5.24048 69.1208 5.24045C69.1247 5.24044 69.1247 5.24044 69.1286 5.24042C70.1382 5.20144 70.9282 4.37831 70.9286 3.36464C70.9251 2.33126 70.082 1.49405 69.0487 1.49762Z" fill="#90A3BF"/>
<path d="M71.0689 6.28291C69.9659 5.55309 68.1713 5.55929 67.0655 6.29674C66.5658 6.63372 66.2912 7.08826 66.2929 7.57339C66.2946 8.05853 66.5722 8.50721 67.0704 8.83681C67.6238 9.20566 68.3502 9.38853 69.0759 9.38602C69.8017 9.38351 70.5267 9.19563 71.0777 8.82297C71.5735 8.486 71.848 8.03541 71.8463 7.54633C71.8407 7.0612 71.567 6.61251 71.0689 6.28291Z" fill="#90A3BF"/>
<path d="M73.3906 3.58887C73.4564 4.35382 72.9144 5.02621 72.1614 5.11953C72.1574 5.11955 72.1574 5.11955 72.1535 5.11956L72.1416 5.1196C72.118 5.11968 72.0943 5.11976 72.0746 5.12772C71.6921 5.14876 71.3406 5.02771 71.0756 4.8038C71.4806 4.43953 71.7114 3.89443 71.662 3.30296C71.6333 2.98358 71.5219 2.69209 71.3554 2.44418C71.505 2.36872 71.6784 2.32079 71.8558 2.3044C72.6286 2.23468 73.3209 2.80815 73.3906 3.58887Z" fill="#90A3BF"/>
<path d="M74.1921 7.23451C74.1618 7.61721 73.9184 7.94936 73.509 8.1756C73.1153 8.39389 72.6187 8.49816 72.1257 8.48803C72.4088 8.23067 72.5733 7.91062 72.6037 7.57131C72.6414 7.0821 72.4071 6.61354 71.9404 6.24045C71.6754 6.03232 71.3672 5.86773 71.0315 5.74662C71.9023 5.49118 72.9994 5.65699 73.6757 6.19896C74.0396 6.48958 74.2262 6.85575 74.1921 7.23451Z" fill="#90A3BF"/>
<path d="M79.6114 7.67233L79.6081 6.72257L77.5871 6.72955L77.5855 6.28228L79.5861 3.55858L80.1052 3.55679L80.1145 6.27355L80.6502 6.2717L80.6517 6.71897L80.1161 6.72082L80.1194 7.67058L79.6114 7.67233ZM77.9948 6.47414L77.9168 6.28114L79.6065 6.2753L79.5987 4.01134L79.759 4.05496L77.9948 6.47414ZM82.287 7.66309L82.2727 3.5493L83.725 3.54429C83.9974 3.54335 84.2369 3.59406 84.4434 3.69642C84.6499 3.79878 84.8105 3.94548 84.9253 4.13651C85.0438 4.32753 85.1034 4.55188 85.1043 4.80957C85.1052 5.06725 85.0471 5.29201 84.93 5.48385C84.8165 5.67198 84.6569 5.81979 84.4511 5.92725C84.249 6.03103 84.0099 6.08339 83.7338 6.08435L82.8227 6.08749L82.8281 7.66122L82.287 7.66309ZM82.8209 5.59052L83.7486 5.58732C83.9143 5.58675 84.0577 5.55496 84.179 5.49196C84.3003 5.42896 84.3938 5.33845 84.4597 5.22042C84.5255 5.10239 84.5582 4.96607 84.5577 4.81146C84.5571 4.65316 84.5235 4.51707 84.4569 4.40318C84.3902 4.28561 84.296 4.19574 84.1743 4.13358C84.0526 4.07142 83.9089 4.04063 83.7433 4.0412L82.8156 4.0444L82.8209 5.59052ZM87.047 7.71292C86.7599 7.71391 86.5038 7.64669 86.2788 7.51126C86.0538 7.37583 85.8764 7.19054 85.7468 6.95538C85.6171 6.71654 85.5518 6.44988 85.5507 6.15538C85.5497 5.8572 85.6114 5.59193 85.7357 5.35958C85.8638 5.12722 86.0362 4.9444 86.2529 4.81112C86.4733 4.67415 86.7197 4.6052 86.9921 4.60426C87.213 4.6035 87.4082 4.64332 87.5779 4.72372C87.7511 4.80043 87.8969 4.90668 88.0152 5.04248C88.1371 5.17458 88.2297 5.32704 88.2929 5.49984C88.3597 5.66895 88.3935 5.84553 88.3941 6.0296C88.3942 6.07009 88.3907 6.11612 88.3835 6.16768C88.38 6.21555 88.3746 6.26159 88.3674 6.30579L85.9268 6.31421L85.9252 5.87247L88.0677 5.86507L87.8255 6.06469C87.8579 5.87315 87.8389 5.70204 87.7685 5.55135C87.698 5.40066 87.5945 5.28138 87.458 5.1935C87.3215 5.10562 87.1667 5.06198 86.9937 5.06257C86.8207 5.06317 86.6625 5.10789 86.5193 5.19674C86.376 5.28558 86.2642 5.41297 86.1838 5.57891C86.107 5.74115 86.0764 5.93453 86.0919 6.15903C86.0779 6.37627 86.1117 6.56759 86.1933 6.73296C86.2785 6.89464 86.3967 7.02124 86.548 7.11275C86.7029 7.20057 86.8706 7.24416 87.0509 7.24354C87.2497 7.24285 87.4171 7.19626 87.5529 7.10376C87.6888 7.01126 87.7989 6.89307 87.883 6.74921L88.3145 6.9686C88.2561 7.10501 88.1645 7.23049 88.0397 7.34504C87.9186 7.4559 87.7735 7.54475 87.6044 7.6116C87.439 7.67843 87.2532 7.7122 87.047 7.71292ZM90.4831 7.70105C90.1959 7.70204 89.9362 7.63668 89.7038 7.50495C89.4714 7.36955 89.2867 7.18428 89.1497 6.94915C89.0127 6.71402 88.9436 6.44737 88.9426 6.14918C88.9416 5.851 89.0069 5.58573 89.1386 5.35335C89.274 5.12096 89.4575 4.93626 89.6889 4.79926C89.9204 4.66225 90.1815 4.59324 90.4723 4.59224C90.7595 4.59125 91.0192 4.65845 91.2516 4.79386C91.484 4.92558 91.6668 5.10717 91.8002 5.33864C91.9372 5.57008 92.0062 5.83674 92.0072 6.1386C92.0083 6.44046 91.9393 6.70943 91.8002 6.94552C91.6611 7.17792 91.4758 7.36262 91.2444 7.49963C91.0166 7.63294 90.7628 7.70008 90.4831 7.70105ZM90.4813 7.20408C90.6654 7.20345 90.8309 7.15686 90.9778 7.06432C91.1284 6.97177 91.2458 6.84436 91.3299 6.68209C91.4177 6.51981 91.4613 6.33928 91.4606 6.14049C91.4599 5.93802 91.4151 5.75963 91.3262 5.60533C91.241 5.44732 91.1228 5.32257 90.9715 5.23106C90.8239 5.13586 90.6581 5.08857 90.474 5.08921C90.2863 5.08986 90.1171 5.1383 89.9665 5.23453C89.8196 5.32707 89.7022 5.45264 89.6144 5.61124C89.5266 5.76615 89.483 5.94485 89.4837 6.14732C89.4844 6.3461 89.5292 6.52633 89.6181 6.688C89.707 6.84967 89.8253 6.97627 89.9729 7.06779C90.1241 7.1593 90.2936 7.20473 90.4813 7.20408ZM92.686 8.73156L92.6719 4.65091L93.1744 4.64917L93.1766 5.28971L93.1099 5.16293C93.2197 4.98585 93.3702 4.84544 93.5612 4.74171C93.7523 4.63429 93.9711 4.58016 94.2178 4.5793C94.4976 4.57834 94.7481 4.64558 94.9695 4.78102C95.1945 4.91645 95.3718 5.10174 95.5015 5.3369C95.6311 5.56837 95.6965 5.8332 95.6975 6.13138C95.6985 6.4222 95.635 6.68563 95.507 6.92167C95.3789 7.15772 95.2029 7.34423 94.9788 7.48121C94.7584 7.61818 94.5065 7.68715 94.223 7.68813C93.9837 7.68896 93.7645 7.63634 93.5653 7.53027C93.3699 7.42419 93.2184 7.27378 93.111 7.07904L93.1935 6.9904L93.1995 8.72979L92.686 8.73156ZM94.1826 7.1913C94.3704 7.19065 94.5377 7.14406 94.6846 7.05152C94.8316 6.95898 94.9453 6.83342 95.0257 6.67485C95.1098 6.51258 95.1515 6.33205 95.1508 6.13327C95.1501 5.92712 95.1072 5.74688 95.022 5.59256C94.9404 5.43455 94.8259 5.30978 94.6783 5.21826C94.5307 5.12305 94.3631 5.07578 94.1753 5.07642C93.9876 5.07707 93.8184 5.12367 93.6678 5.21622C93.5209 5.30876 93.4035 5.43617 93.3157 5.59845C93.2316 5.75704 93.1899 5.93757 93.1906 6.14004C93.1913 6.33882 93.2342 6.51906 93.3194 6.68074C93.4083 6.83873 93.5266 6.96348 93.6741 7.05501C93.8254 7.14652 93.9949 7.19195 94.1826 7.1913ZM96.376 7.61443L96.3616 3.43438L96.8751 3.43261L96.8895 7.61266L96.376 7.61443ZM99.056 7.67144C98.7689 7.67243 98.5128 7.60521 98.2878 7.46978C98.0627 7.33435 97.8854 7.14906 97.7557 6.91391C97.6261 6.67507 97.5607 6.4084 97.5597 6.1139C97.5587 5.81572 97.6203 5.55046 97.7447 5.3181C97.8728 5.08574 98.0451 4.90292 98.2619 4.76965C98.4823 4.63268 98.7287 4.56372 99.0011 4.56278C99.222 4.56202 99.4172 4.60184 99.5868 4.68224C99.7601 4.75895 99.9059 4.8652 100.024 5.001C100.146 5.13311 100.239 5.28556 100.302 5.45837C100.369 5.62747 100.402 5.80406 100.403 5.98812C100.403 6.02861 100.4 6.07464 100.393 6.12621C100.389 6.17407 100.384 6.22011 100.376 6.26431L97.9358 6.27274L97.9342 5.83099L100.077 5.82359L99.8344 6.02322C99.8669 5.83168 99.8479 5.66056 99.7774 5.50987C99.707 5.35918 99.6035 5.2399 99.467 5.15202C99.3305 5.06414 99.1757 5.0205 99.0027 5.0211C98.8297 5.0217 98.6715 5.06642 98.5283 5.15526C98.385 5.24411 98.2732 5.3715 98.1927 5.53743C98.116 5.69968 98.0854 5.89305 98.1009 6.11755C98.0869 6.3348 98.1207 6.52611 98.2023 6.69149C98.2875 6.85317 98.4057 6.97976 98.557 7.07127C98.7119 7.15909 98.8795 7.20269 99.0599 7.20206C99.2587 7.20138 99.426 7.15478 99.5619 7.06228C99.6978 6.96978 99.8078 6.8516 99.892 6.70774L100.323 6.92712C100.265 7.06353 100.173 7.18901 100.049 7.30357C99.9276 7.41442 99.7825 7.50327 99.6134 7.57012C99.448 7.63696 99.2622 7.67073 99.056 7.67144Z" fill="#90A3BF"/>
</svg>
