<svg width="102" height="10" viewBox="0 0 102 10" fill="none" xmlns="http://www.w3.org/2000/svg">
<path d="M9.37137 4.13897L8.58117 3.74728C8.43499 3.67679 8.25375 3.73263 8.18326 3.87881C8.10884 4.02895 8.16861 4.20623 8.31479 4.27673L8.94299 4.58615L8.94952 6.47542L7.47046 6.48447L7.45648 2.43773C7.45376 1.64889 6.92388 1.2563 6.26914 1.25856L3.11379 1.26946C2.45905 1.27172 1.9319 1.66797 1.93462 2.4568L1.95676 8.86611L1.36513 8.86815C1.20342 8.86871 1.06978 9.00328 1.07034 9.16499C1.07089 9.3267 1.20546 9.46034 1.36717 9.45978L8.07229 9.43663C8.234 9.43607 8.36764 9.3015 8.36708 9.13979C8.36653 8.97808 8.23196 8.84444 8.07025 8.845L7.47862 8.84704L7.4725 7.0761L9.24738 7.06603C9.41303 7.06545 9.54273 6.9309 9.54217 6.76919L9.534 4.40268C9.53361 4.29224 9.47015 4.18991 9.37137 4.13897ZM2.92324 3.19885C2.92135 2.65061 3.25592 2.45224 3.66612 2.45082L5.72893 2.4437C6.13518 2.4423 6.47112 2.63835 6.47301 3.18659L6.47469 3.67172C6.47657 4.21602 6.14199 4.41439 5.7318 4.41581L3.67293 4.42292C3.26273 4.42433 2.9268 4.22828 2.9249 3.68004L2.92324 3.19885ZM3.12775 5.31225L4.31101 5.30817C4.47272 5.30761 4.60729 5.44125 4.60785 5.60296C4.6084 5.76467 4.47476 5.89924 4.31305 5.8998L3.1298 5.90388C2.96808 5.90444 2.83352 5.7708 2.83296 5.60909C2.8324 5.44738 2.96604 5.31281 3.12775 5.31225Z" fill="#90A3BF"/>
<path d="M14.1437 7.50882C13.8676 7.50978 13.6226 7.4554 13.4088 7.3457C13.1985 7.23599 13.0324 7.08747 12.9102 6.90015C12.7918 6.70913 12.7321 6.49582 12.7313 6.26022C12.7304 5.99517 12.8032 5.763 12.9498 5.5637C13.0964 5.36441 13.2983 5.22198 13.5557 5.13642L13.5452 5.27451C13.3498 5.19787 13.1966 5.07508 13.0856 4.90612C12.9782 4.73347 12.9242 4.54776 12.9235 4.34897C12.9228 4.13914 12.9737 3.95306 13.0762 3.79073C13.1824 3.62838 13.3255 3.50088 13.5056 3.40823C13.6893 3.31188 13.8972 3.26331 14.1291 3.26251C14.361 3.26171 14.5673 3.30701 14.748 3.39842C14.9287 3.48983 15.0709 3.61818 15.1745 3.78348C15.2818 3.94509 15.3359 4.1308 15.3366 4.34063C15.3373 4.55047 15.2809 4.73841 15.1673 4.90446C15.0575 5.07049 14.9107 5.19432 14.7269 5.27595L14.7098 5.13244C14.9715 5.2162 15.1763 5.35906 15.3242 5.56102C15.4722 5.7593 15.5466 5.98913 15.5475 6.2505C15.5483 6.48609 15.4883 6.69982 15.3675 6.89166C15.2503 7.07981 15.0852 7.22947 14.8721 7.34065C14.6626 7.45181 14.4198 7.50787 14.1437 7.50882ZM14.1421 7.03946C14.3151 7.03887 14.466 7.00521 14.5946 6.93851C14.7232 6.8718 14.8223 6.77942 14.8918 6.66138C14.965 6.53965 15.0013 6.40147 15.0008 6.24686C15.0003 6.08857 14.963 5.95065 14.8889 5.8331C14.8186 5.71186 14.7189 5.62018 14.5898 5.55804C14.4607 5.49222 14.3097 5.45961 14.1367 5.46021C13.9636 5.46081 13.811 5.49447 13.6787 5.56119C13.5501 5.62421 13.451 5.71659 13.3815 5.83831C13.3119 5.95635 13.2774 6.09452 13.278 6.25281C13.2785 6.40742 13.314 6.54535 13.3843 6.66659C13.4547 6.78415 13.5544 6.87583 13.6835 6.94165C13.8162 7.00746 13.9691 7.04006 14.1421 7.03946ZM14.135 4.99085C14.2602 4.99042 14.3705 4.96243 14.4661 4.90688C14.5653 4.85132 14.6442 4.77742 14.7027 4.68518C14.7613 4.58927 14.7904 4.47873 14.7899 4.35357C14.7895 4.2284 14.7597 4.11991 14.7005 4.02808C14.6413 3.93625 14.5619 3.86474 14.4623 3.81355C14.3664 3.75866 14.2559 3.73143 14.1307 3.73187C14.0018 3.73231 13.8878 3.76031 13.7886 3.81588C13.6894 3.86776 13.6105 3.93981 13.5519 4.03205C13.4933 4.12428 13.4643 4.23298 13.4647 4.35814C13.4651 4.48331 13.495 4.59364 13.5542 4.68915C13.6134 4.78098 13.6928 4.85433 13.7924 4.90921C13.892 4.96408 14.0062 4.9913 14.135 4.99085ZM17.8815 7.49591C17.5539 7.49704 17.2664 7.40969 17.0192 7.23384C16.7756 7.0543 16.5852 6.80647 16.4479 6.49035C16.3106 6.17055 16.2412 5.79898 16.2397 5.37564C16.2382 4.9523 16.3051 4.5821 16.4402 4.26504C16.5753 3.9443 16.764 3.69516 17.0064 3.51762C17.2487 3.34008 17.5337 3.25075 17.8613 3.24962C18.189 3.24849 18.4746 3.33585 18.7181 3.51171C18.9617 3.68757 19.1522 3.9354 19.2895 4.2552C19.4304 4.5713 19.5017 4.94102 19.5031 5.36437C19.5046 5.78771 19.4378 6.15975 19.3027 6.48049C19.1676 6.80123 18.977 7.05037 18.731 7.22793C18.4886 7.40546 18.2055 7.49479 17.8815 7.49591ZM17.8798 6.99342C18.1007 6.99266 18.2919 6.92574 18.4534 6.79265C18.6149 6.65589 18.7394 6.46587 18.8269 6.2226C18.9181 5.97932 18.9631 5.69387 18.962 5.36624C18.9609 5.03861 18.9139 4.75347 18.821 4.51082C18.7318 4.26817 18.6041 4.08086 18.438 3.94891C18.2756 3.81694 18.0839 3.75134 17.8631 3.75211C17.6422 3.75287 17.451 3.81979 17.2895 3.95288C17.128 4.08596 17.0016 4.27414 16.9104 4.51742C16.8229 4.76069 16.7797 5.04614 16.7809 5.37377C16.782 5.69772 16.8271 5.98102 16.9163 6.22368C17.0092 6.46632 17.1368 6.65547 17.2993 6.79112C17.4654 6.92675 17.6589 6.99419 17.8798 6.99342ZM20.331 7.42119L20.3168 3.3074L20.8579 3.30553L20.8704 6.92235L22.6761 6.91612L22.6778 7.41308L20.331 7.42119Z" fill="#90A3BF"/>
<g clip-path="url(#clip0_20_6522)">
<path d="M34.4702 1.16124C32.293 1.16876 30.5321 2.94186 30.5396 5.11906C30.5471 7.29625 32.3202 9.05714 34.4974 9.04962C36.6746 9.0421 38.4355 7.269 38.428 5.09181C38.4205 2.91462 36.6513 1.15371 34.4702 1.16124Z" fill="#90A3BF"/>
<rect x="31.3176" y="1.96094" width="6.31074" height="6.31074" rx="3.15537" transform="rotate(-0.197882 31.3176 1.96094)" fill="white"/>
<path d="M34.4756 2.73884C33.1693 2.74335 32.1127 3.80721 32.1172 5.11352C32.1218 6.41984 33.1856 7.47638 34.4919 7.47186C35.7982 7.46735 36.8548 6.40349 36.8503 5.09718C36.8458 3.79086 35.7843 2.73432 34.4756 2.73884Z" fill="#90A3BF"/>
<rect x="32.9006" y="3.53314" width="3.15537" height="3.15537" rx="1.57769" transform="rotate(-0.197882 32.9006 3.53314)" fill="white"/>
<rect x="34.0962" y="7.07886" width="0.788843" height="1.57769" transform="rotate(-0.197882 34.0962 7.07886)" fill="#90A3BF"/>
<rect x="36.4545" y="4.7041" width="1.57769" height="0.788843" transform="rotate(-0.197882 36.4545 4.7041)" fill="#90A3BF"/>
<rect x="30.9327" y="4.72327" width="1.57769" height="0.788843" transform="rotate(-0.197882 30.9327 4.72327)" fill="#90A3BF"/>
</g>
<path d="M41.2606 7.34896L41.2464 3.23517L41.7434 3.23345L43.2916 5.42031L43.0376 5.42119L44.5595 3.22373L45.0565 3.22201L45.0707 7.3358L44.5241 7.33769L44.5122 3.90861L44.7057 3.96868L43.1836 6.1275L43.1394 6.12765L41.619 3.97935L41.7899 3.91801L41.8018 7.34709L41.2606 7.34896ZM46.7964 7.39611C46.6012 7.39678 46.4281 7.36241 46.2769 7.29298C46.1294 7.21987 46.0131 7.12087 45.928 6.996C45.8429 6.86745 45.8001 6.72035 45.7995 6.55469C45.799 6.3964 45.8316 6.25456 45.8974 6.12917C45.9669 6.00008 46.0733 5.89112 46.2166 5.80227C46.3635 5.71341 46.5474 5.65019 46.7681 5.61262L47.8719 5.42658L47.8733 5.85729L46.8855 6.02636C46.6942 6.06015 46.5545 6.12137 46.4665 6.21003C46.3821 6.29867 46.3401 6.40741 46.3406 6.53626C46.341 6.65774 46.3892 6.75881 46.4852 6.83947C46.5849 6.92011 46.7083 6.96018 46.8556 6.95967C47.0433 6.95902 47.2052 6.91981 47.3411 6.84203C47.4807 6.76056 47.5889 6.65159 47.6658 6.51512C47.7463 6.37863 47.7863 6.22756 47.7857 6.0619L47.7831 5.30541C47.7825 5.14343 47.7213 5.01296 47.5995 4.91398C47.4814 4.81132 47.3247 4.76032 47.1296 4.76099C46.9603 4.76158 46.8095 4.80627 46.6773 4.89508C46.5487 4.9802 46.4534 5.09464 46.3913 5.23843L45.9433 5.00806C45.998 4.87166 46.0859 4.74987 46.207 4.6427C46.3281 4.53184 46.4696 4.44484 46.6313 4.3817C46.7931 4.31856 46.9623 4.28668 47.139 4.28607C47.3673 4.28529 47.568 4.32877 47.7414 4.41652C47.9147 4.50059 48.0494 4.61977 48.1457 4.77405C48.2456 4.92464 48.2959 5.10117 48.2966 5.30363L48.3036 7.32464L47.8011 7.32637L47.7992 6.76314L47.8931 6.79595C47.831 6.91396 47.7467 7.01733 47.6402 7.10605C47.5338 7.19477 47.4088 7.26515 47.2654 7.31718C47.1221 7.36921 46.9657 7.39552 46.7964 7.39611ZM49.0998 7.32189L49.0895 4.3456L49.592 4.34387L49.594 4.92366L49.511 4.87425C49.584 4.68625 49.7013 4.54044 49.8629 4.4368C50.0282 4.32947 50.2213 4.27543 50.4422 4.27467C50.6557 4.27393 50.8454 4.32113 51.0114 4.41627C51.1811 4.5114 51.3141 4.64347 51.4104 4.81247C51.5103 4.98147 51.5607 5.17272 51.5614 5.38623L51.5681 7.31336L51.049 7.31515L51.043 5.55368C51.0424 5.38802 51.0125 5.24824 50.9532 5.13432C50.8939 5.02041 50.8089 4.93235 50.6982 4.87015C50.5913 4.80426 50.4678 4.77155 50.3279 4.77203C50.188 4.77252 50.063 4.80608 49.9528 4.87273C49.8462 4.93568 49.7619 5.02616 49.6997 5.14417C49.6375 5.25851 49.6067 5.39666 49.6073 5.55864L49.6134 7.32011L49.0998 7.32189ZM53.3578 7.37344C53.1443 7.37418 52.9509 7.32515 52.7775 7.22636C52.6079 7.12755 52.4748 6.98996 52.3785 6.81359C52.2859 6.63353 52.2391 6.42754 52.2383 6.19562L52.2319 4.33475L52.7455 4.33297L52.7517 6.13862C52.7522 6.28587 52.7821 6.41462 52.8414 6.52485C52.9043 6.63507 52.9893 6.72129 53.0963 6.7835C53.2069 6.8457 53.3322 6.87656 53.4721 6.87608C53.612 6.87559 53.7352 6.84388 53.8417 6.78093C53.9519 6.71796 54.0363 6.62748 54.0948 6.50948C54.157 6.39146 54.1878 6.25147 54.1872 6.08949L54.1811 4.32802L54.7002 4.32622L54.7105 7.30251L54.208 7.30424L54.206 6.72445L54.289 6.77386C54.2197 6.96184 54.1006 7.10951 53.9316 7.21685C53.7663 7.3205 53.575 7.37269 53.3578 7.37344ZM56.3787 7.36301C56.1836 7.36368 56.0105 7.32931 55.8593 7.25989C55.7118 7.18677 55.5955 7.08778 55.5104 6.96291C55.4253 6.83436 55.3825 6.68725 55.3819 6.5216C55.3813 6.3633 55.414 6.22146 55.4798 6.09607C55.5493 5.96699 55.6557 5.85802 55.7989 5.76917C55.9459 5.68032 56.1297 5.6171 56.3505 5.57952L57.4542 5.39349L57.4557 5.82419L56.4679 5.99326C56.2766 6.02706 56.1369 6.08828 56.0488 6.17693C55.9645 6.26558 55.9225 6.37432 55.923 6.50316C55.9234 6.62464 55.9716 6.72571 56.0676 6.80637C56.1673 6.88701 56.2907 6.92708 56.438 6.92657C56.6257 6.92593 56.7876 6.88671 56.9235 6.80894C57.0631 6.72747 57.1713 6.61849 57.2482 6.48202C57.3287 6.34554 57.3686 6.19446 57.3681 6.02881L57.3655 5.27231C57.3649 5.11034 57.3037 4.97986 57.1819 4.88089C57.0637 4.77822 56.9071 4.72722 56.712 4.7279C56.5427 4.72848 56.3919 4.77318 56.2597 4.86199C56.1311 4.9471 56.0358 5.06155 55.9737 5.20533L55.5256 4.97496C55.5804 4.83856 55.6683 4.71678 55.7894 4.6096C55.9105 4.49875 56.0519 4.41175 56.2137 4.34861C56.3755 4.28547 56.5447 4.25359 56.7214 4.25298C56.9496 4.25219 57.1504 4.29567 57.3237 4.38343C57.497 4.4675 57.6318 4.58667 57.7281 4.74095C57.828 4.89154 57.8783 5.06807 57.879 5.27054L57.886 7.29154L57.3835 7.29328L57.3815 6.73005L57.4755 6.76285C57.4134 6.88087 57.329 6.98424 57.2226 7.07296C57.1161 7.16167 56.9912 7.23205 56.8478 7.28408C56.7044 7.33612 56.5481 7.36243 56.3787 7.36301ZM58.6822 7.28879L58.6678 3.10874L59.1813 3.10697L59.1957 7.28702L58.6822 7.28879Z" fill="#90A3BF"/>
<path d="M69.5734 1.03992C68.5401 1.04349 67.7029 1.8865 67.7064 2.91988C67.7099 3.93353 68.5055 4.75119 69.539 4.78312C69.5706 4.77906 69.6021 4.77895 69.6258 4.78282C69.6337 4.78279 69.6376 4.78278 69.6455 4.78275C69.6495 4.78273 69.6495 4.78273 69.6534 4.78272C70.663 4.74374 71.453 3.92061 71.4534 2.90694C71.4498 1.87356 70.6068 1.03635 69.5734 1.03992Z" fill="#90A3BF"/>
<path d="M71.5937 5.82521C70.4907 5.09539 68.6961 5.10159 67.5903 5.83903C67.0906 6.17602 66.816 6.63056 66.8177 7.11569C66.8194 7.60083 67.097 8.04951 67.5951 8.37911C68.1486 8.74795 68.875 8.93082 69.6007 8.92832C70.3264 8.92581 71.0515 8.73793 71.6024 8.36527C72.0982 8.02829 72.3728 7.5777 72.3711 7.08862C72.3655 6.6035 72.0918 6.1548 71.5937 5.82521Z" fill="#90A3BF"/>
<path d="M73.9154 3.13116C73.9811 3.89612 73.4392 4.56851 72.6861 4.66183C72.6822 4.66184 72.6822 4.66184 72.6782 4.66186L72.6664 4.6619C72.6427 4.66198 72.6191 4.66206 72.5994 4.67002C72.2169 4.69106 71.8654 4.57 71.6004 4.3461C72.0054 3.98183 72.2362 3.43673 72.1868 2.84526C72.1581 2.52588 72.0467 2.23439 71.8802 1.98648C72.0298 1.91102 72.2032 1.86309 72.3806 1.8467C73.1534 1.77698 73.8456 2.35045 73.9154 3.13116Z" fill="#90A3BF"/>
<path d="M74.7168 6.77681C74.6866 7.15951 74.4432 7.49166 74.0338 7.7179C73.6401 7.93619 73.1435 8.04045 72.6504 8.03033C72.9335 7.77297 73.0981 7.45292 73.1285 7.11361C73.1662 6.6244 72.9319 6.15584 72.4652 5.78275C72.2002 5.57462 71.892 5.41003 71.5563 5.28892C72.4271 5.03348 73.5242 5.19929 74.2005 5.74126C74.5644 6.03188 74.751 6.39804 74.7168 6.77681Z" fill="#90A3BF"/>
<path d="M78.1759 7.2214L78.1746 6.84591L79.3078 5.61061C79.5316 5.37055 79.7094 5.17299 79.8414 5.01792C79.9771 4.86284 80.076 4.72445 80.1382 4.60275C80.2003 4.48105 80.2312 4.3521 80.2307 4.2159C80.2299 3.99134 80.1631 3.81855 80.0301 3.69753C79.8972 3.5765 79.7221 3.51637 79.5049 3.51712C79.284 3.51788 79.0965 3.58295 78.9423 3.71233C78.7882 3.83802 78.682 4.01693 78.6239 4.24905L78.132 4.12375C78.1791 3.90271 78.2668 3.71098 78.3951 3.54856C78.5234 3.38614 78.6831 3.26042 78.8742 3.17141C79.0653 3.0824 79.275 3.0375 79.5032 3.03671C79.7536 3.03585 79.9728 3.08479 80.1609 3.18354C80.3526 3.27859 80.5022 3.41244 80.6095 3.58509C80.7206 3.75772 80.7765 3.95816 80.7773 4.1864C80.7778 4.33733 80.747 4.48469 80.6849 4.62847C80.6228 4.77226 80.5313 4.92535 80.4104 5.08774C80.2895 5.24645 80.1318 5.43106 79.9374 5.64157L78.9252 6.74945L80.8744 6.74272L80.8761 7.21208L78.1759 7.2214ZM82.596 7.20614L82.5818 3.09235L84.0341 3.08733C84.3065 3.08639 84.546 3.1371 84.7525 3.23946C84.959 3.34183 85.1196 3.48852 85.2344 3.67955C85.3528 3.87057 85.4125 4.09492 85.4134 4.35261C85.4143 4.6103 85.3562 4.83506 85.239 5.02689C85.1256 5.21503 84.9659 5.36283 84.7602 5.4703C84.5581 5.57407 84.3189 5.62643 84.0429 5.62739L83.1317 5.63053L83.1372 7.20427L82.596 7.20614ZM83.13 5.13357L84.0577 5.13036C84.2234 5.12979 84.3668 5.098 84.4881 5.035C84.6094 4.972 84.7029 4.88149 84.7688 4.76346C84.8346 4.64543 84.8673 4.50911 84.8667 4.3545C84.8662 4.1962 84.8326 4.06011 84.7659 3.94622C84.6993 3.82865 84.6051 3.73879 84.4834 3.67662C84.3617 3.61446 84.218 3.58367 84.0524 3.58424L83.1247 3.58744L83.13 5.13357ZM87.3561 7.25596C87.069 7.25695 86.8129 7.18973 86.5879 7.0543C86.3628 6.91887 86.1855 6.73358 86.0558 6.49842C85.9262 6.25959 85.8608 5.99292 85.8598 5.69842C85.8588 5.40024 85.9205 5.13497 86.0448 4.90262C86.1729 4.67026 86.3452 4.48744 86.562 4.35417C86.7824 4.2172 87.0288 4.14824 87.3012 4.1473C87.5221 4.14654 87.7173 4.18636 87.8869 4.26676C88.0602 4.34347 88.206 4.44972 88.3243 4.58552C88.4462 4.71763 88.5388 4.87008 88.602 5.04288C88.6688 5.21199 88.7025 5.38858 88.7032 5.57264C88.7033 5.61313 88.6998 5.65916 88.6926 5.71072C88.6891 5.75859 88.6837 5.80463 88.6765 5.84883L86.2359 5.85726L86.2343 5.41551L88.3768 5.40811L88.1345 5.60773C88.167 5.4162 88.148 5.24508 88.0775 5.09439C88.0071 4.9437 87.9036 4.82442 87.7671 4.73654C87.6306 4.64866 87.4758 4.60502 87.3028 4.60562C87.1298 4.60621 86.9716 4.65093 86.8284 4.73978C86.6851 4.82863 86.5733 4.95602 86.4928 5.12195C86.4161 5.28419 86.3855 5.47757 86.401 5.70207C86.387 5.91932 86.4208 6.11063 86.5024 6.276C86.5876 6.43769 86.7058 6.56428 86.8571 6.65579C87.012 6.74361 87.1796 6.7872 87.36 6.78658C87.5588 6.78589 87.7261 6.7393 87.862 6.6468C87.9979 6.5543 88.1079 6.43612 88.1921 6.29226L88.6236 6.51164C88.5652 6.64805 88.4736 6.77353 88.3488 6.88808C88.2277 6.99894 88.0826 7.08779 87.9135 7.15464C87.7481 7.22147 87.5623 7.25525 87.3561 7.25596ZM90.7921 7.24409C90.505 7.24508 90.2452 7.17972 90.0129 7.04799C89.7805 6.91259 89.5958 6.72732 89.4588 6.49219C89.3217 6.25706 89.2527 5.99041 89.2517 5.69223C89.2507 5.39405 89.316 5.12877 89.4477 4.89639C89.5831 4.664 89.7666 4.47931 89.998 4.3423C90.2295 4.20529 90.4906 4.13629 90.7814 4.13528C91.0685 4.13429 91.3283 4.2015 91.5607 4.3369C91.7931 4.46863 91.9759 4.65022 92.1092 4.88168C92.2463 5.11313 92.3153 5.37978 92.3163 5.68164C92.3174 5.9835 92.2483 6.25248 92.1093 6.48856C91.9702 6.72096 91.7849 6.90567 91.5535 7.04267C91.3257 7.17599 91.0719 7.24313 90.7921 7.24409ZM90.7904 6.74712C90.9745 6.74649 91.14 6.6999 91.2869 6.60736C91.4375 6.51481 91.5549 6.3874 91.639 6.22513C91.7268 6.06285 91.7703 5.88232 91.7697 5.68353C91.769 5.48106 91.7242 5.30267 91.6353 5.14837C91.5501 4.99037 91.4318 4.86561 91.2806 4.7741C91.133 4.6789 90.9672 4.63161 90.7831 4.63225C90.5954 4.6329 90.4262 4.68134 90.2756 4.77757C90.1287 4.87011 90.0113 4.99568 89.9235 5.15428C89.8357 5.3092 89.7921 5.48789 89.7928 5.69036C89.7935 5.88915 89.8383 6.06937 89.9272 6.23104C90.0161 6.39271 90.1344 6.51931 90.2819 6.61083C90.4332 6.70234 90.6027 6.74777 90.7904 6.74712ZM92.9951 8.27461L92.981 4.19395L93.4835 4.19221L93.4857 4.83275L93.419 4.70597C93.5288 4.52889 93.6793 4.38848 93.8703 4.28475C94.0614 4.17733 94.2802 4.1232 94.5269 4.12235C94.8066 4.12138 95.0572 4.18862 95.2785 4.32406C95.5036 4.45949 95.6809 4.64478 95.8106 4.87994C95.9402 5.11141 96.0056 5.37624 96.0066 5.67442C96.0076 5.96524 95.9441 6.22867 95.816 6.46471C95.688 6.70076 95.512 6.88727 95.2879 7.02425C95.0675 7.16122 94.8155 7.2302 94.5321 7.23118C94.2928 7.232 94.0736 7.17938 93.8744 7.07331C93.679 6.96723 93.5275 6.81682 93.4201 6.62208L93.5026 6.53345L93.5086 8.27283L92.9951 8.27461ZM94.4917 6.73434C94.6795 6.73369 94.8468 6.6871 94.9937 6.59456C95.1407 6.50202 95.2543 6.37646 95.3348 6.21789C95.4189 6.05562 95.4606 5.87509 95.4599 5.67631C95.4592 5.47016 95.4163 5.28992 95.331 5.1356C95.2495 4.97759 95.135 4.85282 94.9874 4.7613C94.8398 4.6661 94.6722 4.61882 94.4844 4.61947C94.2967 4.62011 94.1275 4.66671 93.9769 4.75927C93.8299 4.85181 93.7126 4.97922 93.6248 5.1415C93.5407 5.30008 93.499 5.48061 93.4997 5.68308C93.5003 5.88187 93.5433 6.0621 93.6285 6.22378C93.7174 6.38177 93.8357 6.50653 93.9832 6.59805C94.1345 6.68956 94.304 6.73499 94.4917 6.73434ZM96.6851 7.15748L96.6706 2.97742L97.1842 2.97565L97.1986 7.1557L96.6851 7.15748ZM99.3651 7.21448C99.078 7.21547 98.8219 7.14826 98.5969 7.01283C98.3718 6.87739 98.1945 6.6921 98.0648 6.45695C97.9352 6.21811 97.8698 5.95144 97.8688 5.65694C97.8678 5.35876 97.9294 5.0935 98.0538 4.86115C98.1818 4.62878 98.3542 4.44596 98.571 4.31269C98.7914 4.17572 99.0378 4.10677 99.3102 4.10583C99.5311 4.10506 99.7263 4.14488 99.8959 4.22528C100.069 4.30199 100.215 4.40825 100.333 4.54405C100.455 4.67615 100.548 4.82861 100.611 5.00141C100.678 5.17052 100.712 5.3471 100.712 5.53116C100.712 5.57166 100.709 5.61769 100.702 5.66925C100.698 5.71712 100.693 5.76315 100.686 5.80735L98.2448 5.81578L98.2433 5.37403L100.386 5.36663L100.144 5.56626C100.176 5.37472 100.157 5.20361 100.087 5.05292C100.016 4.90223 99.9126 4.78294 99.7761 4.69506C99.6396 4.60718 99.4848 4.56354 99.3118 4.56414C99.1387 4.56474 98.9806 4.60946 98.8373 4.6983C98.6941 4.78715 98.5822 4.91454 98.5018 5.08048C98.4251 5.24272 98.3945 5.43609 98.41 5.6606C98.396 5.87784 98.4298 6.06915 98.5113 6.23453C98.5966 6.39621 98.7148 6.52281 98.8661 6.61432C99.021 6.70213 99.1886 6.74573 99.369 6.74511C99.5678 6.74442 99.7351 6.69782 99.871 6.60532C100.007 6.51282 100.117 6.39464 100.201 6.25078L100.633 6.47017C100.574 6.60658 100.483 6.73206 100.358 6.84661C100.237 6.95746 100.092 7.04632 99.9225 7.11316C99.757 7.18 99.5712 7.21377 99.3651 7.21448Z" fill="#90A3BF"/>
<defs>
<clipPath id="clip0_20_6522">
<rect width="9.46611" height="9.46611" fill="white" transform="translate(29.7344 0.388672) rotate(-0.197882)"/>
</clipPath>
</defs>
</svg>
