<svg width="108" height="11" viewBox="0 0 108 11" fill="none" xmlns="http://www.w3.org/2000/svg">
<path d="M9.38507 4.30343L8.59146 3.9092C8.44465 3.83825 8.2625 3.8942 8.19155 4.04102C8.11664 4.1918 8.17655 4.36998 8.32336 4.44093L8.95428 4.75236L8.95921 6.65059L7.47314 6.65841L7.46257 2.59248C7.46051 1.7999 6.92845 1.40499 6.27061 1.4067L3.1003 1.41494C2.44245 1.41665 1.91246 1.81432 1.91452 2.6069L1.93125 9.0466L1.33682 9.04815C1.17434 9.04857 1.03995 9.18366 1.04037 9.34614C1.0408 9.50862 1.17588 9.64301 1.33836 9.64258L8.07528 9.62507C8.23776 9.62465 8.37215 9.48956 8.37173 9.32709C8.37131 9.16461 8.23622 9.03022 8.07374 9.03064L7.47931 9.03219L7.47468 7.25285L9.25797 7.24425C9.42441 7.24382 9.55484 7.10874 9.55442 6.94626L9.54824 4.56852C9.54795 4.45756 9.48428 4.35469 9.38507 4.30343ZM2.90719 3.35331C2.90576 2.80247 3.24209 2.60345 3.65423 2.60238L5.72682 2.59699C6.135 2.59593 6.47236 2.7932 6.47379 3.34404L6.47506 3.83148C6.47648 4.37836 6.14015 4.57738 5.72801 4.57845L3.65938 4.58383C3.24724 4.5849 2.90987 4.38763 2.90844 3.83679L2.90719 3.35331ZM3.11085 5.47691L4.29972 5.47382C4.4622 5.4734 4.59729 5.60779 4.59771 5.77026C4.59813 5.93274 4.46374 6.06783 4.30127 6.06825L3.1124 6.07134C2.94992 6.07177 2.81483 5.93738 2.81441 5.7749C2.81398 5.61242 2.94837 5.47733 3.11085 5.47691Z" fill="#90A3BF"/>
<path d="M13.649 7.59494L15.4537 3.92851L13.4287 3.93377L13.4274 3.46218L16.0239 3.45544L16.0252 3.92702L14.2371 7.59341L13.649 7.59494ZM18.2754 7.64949C17.9462 7.65034 17.6575 7.56233 17.4092 7.38543C17.1647 7.20483 16.9735 6.95566 16.8358 6.63793C16.6982 6.3165 16.6288 5.94311 16.6277 5.51776C16.6266 5.09241 16.694 4.72051 16.83 4.40206C16.9661 4.07992 17.1559 3.82976 17.3995 3.65159C17.6432 3.47342 17.9296 3.38391 18.2588 3.38305C18.588 3.38219 18.8749 3.47022 19.1194 3.64712C19.364 3.82403 19.5551 4.07319 19.6928 4.39462C19.8342 4.71235 19.9055 5.08388 19.9066 5.50923C19.9077 5.93459 19.8402 6.30833 19.7042 6.63047C19.5682 6.95262 19.3765 7.20278 19.1291 7.38096C18.8855 7.55913 18.6009 7.64864 18.2754 7.64949ZM18.2741 7.14462C18.496 7.14404 18.6882 7.07696 18.8506 6.94339C19.013 6.80611 19.1382 6.6153 19.2264 6.37096C19.3182 6.1266 19.3637 5.83983 19.3628 5.51065C19.362 5.18146 19.315 4.89493 19.2219 4.65106C19.1325 4.40718 19.0044 4.21887 18.8376 4.08615C18.6745 3.95342 18.482 3.88735 18.2601 3.88792C18.0382 3.8885 17.846 3.95558 17.6836 4.08915C17.5212 4.22273 17.3941 4.41169 17.3023 4.65605C17.2141 4.90039 17.1705 5.18716 17.1714 5.51634C17.1722 5.84183 17.2173 6.12651 17.3067 6.3704C17.3998 6.61427 17.5279 6.80442 17.691 6.94085C17.8578 7.07727 18.0522 7.14519 18.2741 7.14462ZM20.7366 7.57652L20.7258 3.44322L21.2695 3.4418L21.279 7.07578L23.0932 7.07106L23.0945 7.57039L20.7366 7.57652Z" fill="#90A3BF"/>
<g clip-path="url(#clip0_20_7660)">
<path d="M35.7943 1.32997C33.6068 1.33566 31.836 3.11565 31.8417 5.30317C31.8474 7.49068 33.6274 9.26145 35.8149 9.25576C38.0024 9.25008 39.7732 7.47009 39.7675 5.28257C39.7618 3.09505 37.9858 1.32428 35.7943 1.32997Z" fill="#90A3BF"/>
<rect x="32.6261" y="2.13086" width="6.34065" height="6.34065" rx="3.17033" transform="rotate(-0.148906 32.6261 2.13086)" fill="white"/>
<path d="M35.7984 2.91502C34.4859 2.91844 33.4234 3.98643 33.4268 5.29894C33.4302 6.61145 34.4982 7.67391 35.8108 7.6705C37.1233 7.66709 38.1857 6.59909 38.1823 5.28658C38.1789 3.97407 37.1133 2.91161 35.7984 2.91502Z" fill="#90A3BF"/>
<rect x="34.2153" y="3.71173" width="3.17033" height="3.17033" rx="1.58516" transform="rotate(-0.148906 34.2153 3.71173)" fill="white"/>
<rect x="35.4135" y="7.27533" width="0.792582" height="1.58516" transform="rotate(-0.148906 35.4135 7.27533)" fill="#90A3BF"/>
<rect x="37.7849" y="4.89136" width="1.58516" height="0.792582" transform="rotate(-0.148906 37.7849 4.89136)" fill="#90A3BF"/>
<rect x="32.2369" y="4.90582" width="1.58516" height="0.792582" transform="rotate(-0.148906 32.2369 4.90582)" fill="#90A3BF"/>
</g>
<path d="M44.1967 7.51563L44.186 3.38233L44.6853 3.38103L46.2389 5.57958L45.9837 5.58025L47.5148 3.37367L48.0141 3.37238L48.0249 7.50568L47.4756 7.5071L47.4666 4.06176L47.661 4.12229L46.1298 6.29002L46.0854 6.29014L44.5596 4.13035L44.7315 4.06887L44.7404 7.51421L44.1967 7.51563ZM49.7586 7.56775C49.5626 7.56826 49.3887 7.53357 49.2368 7.46369C49.0887 7.3901 48.9719 7.29054 48.8865 7.165C48.8011 7.03577 48.7582 6.88793 48.7578 6.72149C48.7574 6.56245 48.7903 6.41996 48.8565 6.29403C48.9265 6.16439 49.0334 6.055 49.1775 5.96586C49.3252 5.87671 49.5099 5.81335 49.7318 5.77578L50.8409 5.58981L50.842 6.02256L49.8494 6.19158C49.6571 6.22537 49.5167 6.28677 49.4282 6.37577C49.3433 6.46476 49.3011 6.57398 49.3014 6.70343C49.3017 6.82549 49.3501 6.92708 49.4465 7.0082C49.5466 7.08931 49.6706 7.12968 49.8185 7.12929C50.0071 7.1288 50.1698 7.08954 50.3064 7.01151C50.4468 6.92978 50.5556 6.82038 50.6329 6.68333C50.7139 6.54627 50.7542 6.39451 50.7538 6.22807L50.7518 5.46799C50.7514 5.30524 50.69 5.1741 50.5677 5.07455C50.4491 4.9713 50.2918 4.91992 50.0957 4.92043C49.9256 4.92087 49.7741 4.96565 49.6411 5.05477C49.5119 5.14017 49.416 5.25508 49.3535 5.3995L48.9035 5.16765C48.9587 5.03065 49.0471 4.90836 49.1689 4.80078C49.2906 4.6895 49.4328 4.60221 49.5954 4.53891C49.758 4.47561 49.928 4.44373 50.1056 4.44327C50.3349 4.44267 50.5366 4.48654 50.7107 4.57485C50.8847 4.65947 51.02 4.77933 51.1166 4.93442C51.2169 5.08581 51.2673 5.26322 51.2678 5.46665L51.2731 7.49723L50.7682 7.49855L50.7667 6.93265L50.8611 6.96569C50.7986 7.08421 50.7138 7.18799 50.6067 7.27704C50.4997 7.36609 50.3741 7.43669 50.23 7.48885C50.0859 7.54101 49.9288 7.56731 49.7586 7.56775ZM52.0731 7.49516L52.0653 4.50475L52.5702 4.50344L52.5717 5.08599L52.4883 5.03627C52.5618 4.84745 52.6798 4.70104 52.8423 4.59705C53.0084 4.48936 53.2025 4.43522 53.4244 4.43465C53.6389 4.43409 53.8295 4.48168 53.9962 4.57741C54.1666 4.67313 54.3001 4.80594 54.3967 4.97583C54.497 5.14571 54.5475 5.33791 54.548 5.55244L54.553 7.48871L54.0315 7.49007L54.0269 5.72024C54.0265 5.55379 53.9965 5.41332 53.9371 5.29882C53.8776 5.18431 53.7923 5.09576 53.6812 5.03317C53.5737 4.96687 53.4497 4.93391 53.3092 4.93427C53.1686 4.93464 53.043 4.96825 52.9322 5.03512C52.8251 5.09827 52.7402 5.18911 52.6777 5.30764C52.6151 5.42246 52.584 5.56124 52.5844 5.72399L52.589 7.49381L52.0731 7.49516ZM56.3512 7.55061C56.1367 7.55117 55.9424 7.50174 55.7683 7.40233C55.5979 7.30291 55.4644 7.16455 55.3677 6.98726C55.2748 6.80627 55.228 6.59926 55.2274 6.36624L55.2226 4.49655L55.7385 4.49521L55.7433 6.30942C55.7436 6.45737 55.7736 6.58675 55.833 6.69755C55.8962 6.80835 55.9815 6.89505 56.0889 6.95765C56.2 7.02024 56.3259 7.05135 56.4664 7.05099C56.607 7.05062 56.7308 7.01886 56.8379 6.9557C56.9487 6.89254 57.0335 6.8017 57.0924 6.68319C57.155 6.56466 57.1861 6.42403 57.1856 6.26129L57.181 4.49146L57.7026 4.4901L57.7103 7.4805L57.2055 7.48182L57.2039 6.89927L57.2873 6.94899C57.2175 7.1378 57.0977 7.28606 56.9278 7.39377C56.7616 7.49776 56.5694 7.55005 56.3512 7.55061ZM59.3864 7.54273C59.1904 7.54324 59.0165 7.50855 58.8647 7.43867C58.7165 7.36508 58.5997 7.26552 58.5143 7.13998C58.4289 7.01075 58.386 6.86291 58.3856 6.69647C58.3852 6.53742 58.4181 6.39494 58.4843 6.26901C58.5543 6.13937 58.6613 6.02998 58.8053 5.94084C58.953 5.85168 59.1378 5.78833 59.3596 5.75076L60.4687 5.56479L60.4699 5.99754L59.4772 6.16656C59.2849 6.20035 59.1445 6.26175 59.056 6.35074C58.9712 6.43973 58.9289 6.54896 58.9293 6.67841C58.9296 6.80047 58.9779 6.90206 59.0743 6.98318C59.1744 7.06429 59.2984 7.10466 59.4463 7.10427C59.635 7.10378 59.7976 7.06452 59.9343 6.98649C60.0746 6.90476 60.1834 6.79536 60.2607 6.65831C60.3418 6.52124 60.3821 6.36949 60.3816 6.20305L60.3796 5.44297C60.3792 5.28022 60.3178 5.14908 60.1955 5.04953C60.0769 4.94627 59.9196 4.8949 59.7235 4.89541C59.5534 4.89585 59.4019 4.94063 59.269 5.02975C59.1397 5.11515 59.0438 5.23006 58.9813 5.37447L58.5313 5.14262C58.5865 5.00563 58.6749 4.88334 58.7967 4.77576C58.9185 4.66448 59.0606 4.57719 59.2232 4.51389C59.3858 4.45059 59.5559 4.41871 59.7334 4.41825C59.9627 4.41765 60.1644 4.46151 60.3385 4.54983C60.5125 4.63445 60.6479 4.75431 60.7444 4.9094C60.8447 5.06079 60.8951 5.2382 60.8956 5.44163L60.9009 7.47221L60.396 7.47352L60.3945 6.90762L60.4889 6.94067C60.4264 7.05919 60.3416 7.16297 60.2345 7.25202C60.1275 7.34107 60.0019 7.41167 59.8578 7.46383C59.7137 7.51598 59.5566 7.54228 59.3864 7.54273ZM61.7009 7.47013L61.69 3.27026L62.2059 3.26892L62.2169 7.46879L61.7009 7.47013Z" fill="#90A3BF"/>
<path d="M74.6305 1.22899C73.5923 1.23169 72.7504 2.07798 72.7531 3.11626C72.7557 4.13473 73.5544 4.95694 74.5928 4.98991C74.6245 4.98586 74.6562 4.98578 74.6799 4.98968C74.6879 4.98966 74.6918 4.98965 74.6998 4.98963C74.7037 4.98962 74.7037 4.98962 74.7077 4.98961C75.7221 4.9513 76.5165 4.12495 76.5178 3.10648C76.5151 2.0682 75.6688 1.2263 74.6305 1.22899Z" fill="#90A3BF"/>
<path d="M76.6563 6.03869C75.5487 5.30447 73.7456 5.30915 72.6339 6.04915C72.1315 6.3873 71.8553 6.84375 71.8566 7.33119C71.8578 7.81863 72.1364 8.26968 72.6366 8.60126C73.1924 8.97233 73.922 9.15669 74.6512 9.1548C75.3804 9.1529 76.1091 8.96475 76.6629 8.5908C77.1614 8.25265 77.4376 7.80016 77.4363 7.30876C77.4311 6.82134 77.1565 6.37028 76.6563 6.03869Z" fill="#90A3BF"/>
<path d="M78.9913 3.33384C79.0567 4.10248 78.5116 4.77759 77.7549 4.8707C77.7509 4.87071 77.7509 4.87071 77.747 4.87073L77.7351 4.87076C77.7113 4.87082 77.6875 4.87088 77.6677 4.87886C77.2834 4.89967 76.9303 4.77774 76.6642 4.55254C77.0715 4.1869 77.3039 3.63941 77.2548 3.0451C77.2262 2.72418 77.1145 2.43121 76.9474 2.18198C77.0978 2.10629 77.272 2.05829 77.4503 2.04197C78.2269 1.97258 78.9219 2.54936 78.9913 3.33384Z" fill="#90A3BF"/>
<path d="M79.7934 6.99745C79.7627 7.38193 79.5179 7.71545 79.1063 7.94241C78.7106 8.1614 78.2116 8.26573 77.7162 8.25513C78.0008 7.9968 78.1664 7.67537 78.1972 7.33448C78.2356 6.84298 78.0006 6.372 77.532 5.99674C77.2659 5.7874 76.9564 5.62176 76.6192 5.49979C77.4943 5.24388 78.5965 5.41143 79.2755 5.95654C79.6409 6.24885 79.8281 6.61692 79.7934 6.99745Z" fill="#90A3BF"/>
<path d="M85.0353 7.47597C84.7689 7.47666 84.5321 7.4181 84.3246 7.30028C84.1209 7.18245 83.9596 7.02197 83.8407 6.81885C83.7218 6.61203 83.662 6.37732 83.6613 6.11471C83.661 5.97046 83.6772 5.82802 83.7102 5.68738C83.7431 5.54674 83.7963 5.4042 83.8699 5.25976C83.9435 5.11532 84.0375 4.96528 84.1517 4.80963L85.3128 3.27534L85.9675 3.27364L84.5465 5.1304L84.4466 5.11956C84.5019 5.04544 84.5627 4.98795 84.6292 4.9471C84.6994 4.90623 84.7733 4.87645 84.8509 4.85775C84.9322 4.83905 85.0173 4.82958 85.106 4.82935C85.3502 4.82871 85.5685 4.88548 85.7612 4.99964C85.9575 5.11009 86.1114 5.26318 86.2229 5.45893C86.338 5.65466 86.3959 5.88013 86.3966 6.13534C86.3973 6.39055 86.3387 6.62003 86.2208 6.82376C86.103 7.0238 85.9407 7.18327 85.7339 7.30216C85.5307 7.41735 85.2979 7.47529 85.0353 7.47597ZM85.034 6.98774C85.1893 6.98734 85.3279 6.95184 85.4498 6.88125C85.5717 6.80696 85.6676 6.70499 85.7375 6.57535C85.8112 6.44571 85.8478 6.30136 85.8474 6.14232C85.8469 5.97588 85.8114 5.83172 85.7408 5.70984C85.6702 5.58427 85.5738 5.48466 85.4515 5.411C85.3293 5.33734 85.1886 5.30072 85.0296 5.30113C84.8743 5.30154 84.7338 5.33889 84.6082 5.41319C84.4827 5.48749 84.3849 5.58761 84.315 5.71355C84.245 5.83579 84.2102 5.98013 84.2107 6.14657C84.2111 6.30562 84.2466 6.44977 84.3172 6.57905C84.3915 6.70831 84.4898 6.80977 84.6121 6.88342C84.738 6.95337 84.8786 6.98815 85.034 6.98774ZM88.1058 7.40141L88.0951 3.26811L89.5542 3.26432C89.8279 3.26361 90.0685 3.31477 90.2759 3.41779C90.4833 3.52082 90.6446 3.66835 90.7597 3.86038C90.8786 4.05241 90.9383 4.27787 90.939 4.53678C90.9397 4.79569 90.8811 5.02147 90.7632 5.21411C90.6491 5.40304 90.4886 5.5514 90.2817 5.65921C90.0786 5.7633 89.8383 5.8157 89.5609 5.81643L88.6454 5.8188L88.6495 7.4L88.1058 7.40141ZM88.6441 5.31948L89.5762 5.31706C89.7427 5.31662 89.8868 5.28481 90.0087 5.22162C90.1306 5.15842 90.2247 5.06756 90.291 4.94903C90.3572 4.83049 90.3902 4.69356 90.3898 4.53821C90.3893 4.37917 90.3557 4.2424 90.2888 4.12791C90.2219 4.00973 90.1274 3.91936 90.0052 3.85679C89.883 3.79423 89.7386 3.76317 89.5722 3.7636L88.6401 3.76602L88.6441 5.31948ZM92.8884 7.45556C92.5999 7.45631 92.3427 7.38855 92.1167 7.25229C91.8907 7.11602 91.7127 6.9297 91.5827 6.69332C91.4526 6.45324 91.3871 6.18525 91.3864 5.88935C91.3856 5.58976 91.4478 5.32329 91.5729 5.08994C91.7018 4.85659 91.8752 4.67305 92.093 4.53933C92.3146 4.4019 92.5622 4.33283 92.8359 4.33212C93.0579 4.33155 93.254 4.37172 93.4243 4.45265C93.5984 4.52987 93.7448 4.63675 93.8635 4.7733C93.9859 4.90613 94.0787 5.05939 94.1421 5.23307C94.2091 5.40303 94.2428 5.58048 94.2433 5.76542C94.2434 5.80611 94.2399 5.85235 94.2326 5.90415C94.229 5.95224 94.2236 5.99849 94.2163 6.04289L91.7641 6.04927L91.7629 5.60542L93.9156 5.59983L93.672 5.80019C93.7048 5.60777 93.6858 5.43583 93.6151 5.28437C93.5445 5.1329 93.4406 5.01297 93.3035 4.92455C93.1664 4.83614 93.011 4.79216 92.8371 4.79261C92.6633 4.79306 92.5044 4.83786 92.3603 4.927C92.2163 5.01615 92.1038 5.14405 92.0229 5.3107C91.9457 5.47364 91.9147 5.66791 91.9301 5.89349C91.9159 6.11175 91.9497 6.304 92.0315 6.47023C92.117 6.63275 92.2357 6.76005 92.3875 6.85212C92.5431 6.94049 92.7115 6.98443 92.8928 6.98396C93.0925 6.98344 93.2607 6.93677 93.3973 6.84395C93.5339 6.75112 93.6445 6.63248 93.7292 6.48801L94.1626 6.7088C94.1037 6.84581 94.0116 6.97181 93.8861 7.08679C93.7644 7.19807 93.6185 7.28722 93.4485 7.35424C93.2823 7.42125 93.0956 7.45502 92.8884 7.45556ZM96.3408 7.44659C96.0523 7.44734 95.7913 7.38144 95.558 7.24889C95.3246 7.11264 95.1392 6.92634 95.0017 6.68998C94.8642 6.45362 94.7951 6.18564 94.7943 5.88605C94.7936 5.58645 94.8594 5.31997 94.992 5.08661C95.1282 4.85323 95.3127 4.66782 95.5453 4.53036C95.778 4.3929 96.0404 4.32379 96.3326 4.32303C96.6211 4.32228 96.8821 4.39003 97.1154 4.52628C97.3488 4.65883 97.5324 4.84144 97.6661 5.07411C97.8036 5.30677 97.8727 5.57475 97.8735 5.87804C97.8743 6.18134 97.8047 6.45152 97.6648 6.68861C97.5248 6.92199 97.3385 7.10741 97.1059 7.24487C96.8769 7.37862 96.6219 7.44586 96.3408 7.44659ZM96.3395 6.94726C96.5244 6.94678 96.6907 6.90012 96.8384 6.80726C96.9898 6.7144 97.1079 6.58649 97.1925 6.42353C97.2808 6.26055 97.3248 6.0792 97.3242 5.87947C97.3237 5.67604 97.2789 5.49677 97.1897 5.34166C97.1042 5.18283 96.9855 5.05738 96.8336 4.96531C96.6854 4.86953 96.5189 4.82188 96.3339 4.82236C96.1453 4.82285 95.9753 4.87137 95.8239 4.96793C95.6762 5.06079 95.5581 5.18685 95.4698 5.34613C95.3814 5.5017 95.3375 5.6812 95.338 5.88463C95.3386 6.08436 95.3834 6.26548 95.4726 6.428C95.5618 6.59051 95.6805 6.71781 95.8287 6.80989C95.9806 6.90196 96.1508 6.94775 96.3395 6.94726ZM98.5532 8.48388L98.5426 4.38387L99.0475 4.38256L99.0491 5.02613L98.9822 4.8987C99.0927 4.72087 99.244 4.57993 99.4361 4.47586C99.6281 4.3681 99.8481 4.3139 100.096 4.31325C100.377 4.31252 100.629 4.3803 100.851 4.51657C101.077 4.65284 101.255 4.83916 101.385 5.07554C101.515 5.30822 101.58 5.57436 101.581 5.87396C101.582 6.16615 101.518 6.43078 101.389 6.66783C101.26 6.90488 101.083 7.09213 100.858 7.22957C100.636 7.367 100.383 7.43608 100.098 7.43682C99.858 7.43745 99.6378 7.38439 99.4378 7.27764C99.2415 7.17089 99.0894 7.01964 98.9817 6.82389L99.0647 6.7349L99.0692 8.48254L98.5532 8.48388ZM100.058 6.9376C100.247 6.93711 100.415 6.89044 100.563 6.79759C100.711 6.70473 100.825 6.57868 100.906 6.41942C100.99 6.25646 101.033 6.07511 101.032 5.87538C101.031 5.66826 100.988 5.48713 100.903 5.33201C100.821 5.17317 100.706 5.04771 100.558 4.95563C100.41 4.85985 100.241 4.8122 100.053 4.81269C99.8641 4.81318 99.6941 4.85986 99.5427 4.95272C99.395 5.04557 99.277 5.17349 99.1886 5.33646C99.104 5.49573 99.0619 5.67707 99.0624 5.8805C99.063 6.08023 99.106 6.26136 99.1915 6.42388C99.2806 6.58269 99.3993 6.70814 99.5475 6.80022C99.6994 6.8923 99.8697 6.93809 100.058 6.9376ZM102.262 7.36462L102.251 3.16475L102.767 3.16341L102.778 7.36328L102.262 7.36462ZM104.954 7.4242C104.666 7.42495 104.409 7.35719 104.183 7.22093C103.957 7.08466 103.779 6.89834 103.649 6.66196C103.519 6.42188 103.453 6.15389 103.452 5.858C103.452 5.5584 103.514 5.29193 103.639 5.05859C103.768 4.82523 103.941 4.64169 104.159 4.50797C104.381 4.37055 104.628 4.30148 104.902 4.30076C105.124 4.30019 105.32 4.34036 105.49 4.42129C105.664 4.49851 105.811 4.6054 105.929 4.74194C106.052 4.87478 106.145 5.02803 106.208 5.20171C106.275 5.37168 106.309 5.54913 106.309 5.73406C106.309 5.77475 106.306 5.82099 106.299 5.87279C106.295 5.92088 106.29 5.96713 106.282 6.01154L103.83 6.01791L103.829 5.57406L105.981 5.56847L105.738 5.76883C105.771 5.57642 105.752 5.40447 105.681 5.25301C105.61 5.10155 105.507 4.98161 105.369 4.89319C105.232 4.80478 105.077 4.7608 104.903 4.76125C104.729 4.7617 104.57 4.8065 104.426 4.89565C104.282 4.98479 104.17 5.11269 104.089 5.27934C104.012 5.44229 103.981 5.63655 103.996 5.86213C103.982 6.08039 104.016 6.27264 104.097 6.43887C104.183 6.60139 104.302 6.72869 104.453 6.82076C104.609 6.90913 104.777 6.95307 104.959 6.9526C105.158 6.95208 105.327 6.90541 105.463 6.81259C105.6 6.71977 105.71 6.60112 105.795 6.45665L106.228 6.67745C106.17 6.81445 106.078 6.94045 105.952 7.05544C105.83 7.16671 105.684 7.25586 105.514 7.32288C105.348 7.38989 105.161 7.42366 104.954 7.4242Z" fill="#90A3BF"/>
<defs>
<clipPath id="clip0_20_7660">
<rect width="9.51098" height="9.51098" fill="white" transform="translate(31.0366 0.549744) rotate(-0.148906)"/>
</clipPath>
</defs>
</svg>
