<svg width="107" height="11" viewBox="0 0 107 11" fill="none" xmlns="http://www.w3.org/2000/svg">
<rect x="0.633744" y="1.40898" width="105.602" height="8.51098" transform="rotate(-0.148906 0.633744 1.40898)" stroke="black"/>
<path d="M8.99518 4.58468L8.20157 4.19045C8.05476 4.1195 7.87261 4.17545 7.80166 4.32227C7.72675 4.47305 7.78666 4.65123 7.93347 4.72218L8.56439 5.03361L8.56932 6.93184L7.08324 6.93966L7.07268 2.87373C7.07062 2.08115 6.53856 1.68624 5.88072 1.68795L2.7104 1.69619C2.05256 1.6979 1.52256 2.09557 1.52462 2.88815L1.54136 9.32785L0.946926 9.3294C0.784447 9.32982 0.650059 9.46491 0.650481 9.62739C0.650903 9.78987 0.785992 9.92426 0.948471 9.92383L7.68539 9.90632C7.84787 9.9059 7.98226 9.77081 7.98184 9.60834C7.98141 9.44586 7.84633 9.31147 7.68385 9.31189L7.08941 9.31344L7.08479 7.5341L8.86808 7.5255C9.03452 7.52507 9.16495 7.38999 9.16453 7.22751L9.15835 4.84977C9.15806 4.73881 9.09438 4.63594 8.99518 4.58468ZM2.51729 3.63456C2.51586 3.08372 2.85219 2.8847 3.26433 2.88363L5.33693 2.87824C5.74511 2.87718 6.08247 3.07445 6.0839 3.62529L6.08517 4.11273C6.08659 4.65961 5.75026 4.85863 5.33812 4.8597L3.26948 4.86508C2.85734 4.86615 2.51998 4.66888 2.51855 4.11804L2.51729 3.63456ZM2.72096 5.75816L3.90983 5.75507C4.07231 5.75465 4.2074 5.88904 4.20782 6.05151C4.20824 6.21399 4.07385 6.34908 3.91137 6.3495L2.7225 6.35259C2.56003 6.35302 2.42494 6.21863 2.42451 6.05615C2.42409 5.89367 2.55848 5.75858 2.72096 5.75816Z" fill="#90A3BF"/>
<path d="M13.5421 7.87545L14.9631 6.01315L15.063 6.02398C15.0077 6.0981 14.9468 6.15744 14.8804 6.202C14.8139 6.24286 14.74 6.27264 14.6587 6.29134C14.581 6.31004 14.496 6.31951 14.4035 6.31975C14.1594 6.32038 13.9392 6.26547 13.7429 6.15502C13.5502 6.04086 13.3963 5.88591 13.2812 5.69018C13.1697 5.49074 13.1136 5.26341 13.113 5.0082C13.1123 4.75299 13.1709 4.52537 13.2887 4.32533C13.4066 4.12529 13.5689 3.96768 13.7757 3.85248C13.9825 3.73358 14.2154 3.6738 14.4743 3.67312C14.7406 3.67243 14.9756 3.731 15.1794 3.84883C15.3868 3.96295 15.55 4.12342 15.6689 4.33024C15.7878 4.53336 15.8475 4.76808 15.8482 5.03438C15.8486 5.17863 15.8323 5.32107 15.7994 5.46171C15.7665 5.60235 15.7132 5.74489 15.6396 5.88933C15.5697 6.03376 15.4758 6.1838 15.3578 6.33946L14.1967 7.87375L13.5421 7.87545ZM14.48 5.84241C14.639 5.842 14.7795 5.80649 14.9013 5.7359C15.0269 5.6616 15.1247 5.56148 15.1946 5.43554C15.2645 5.30591 15.2993 5.16157 15.2989 5.00252C15.2985 4.83608 15.2611 4.69008 15.1868 4.56451C15.1162 4.43894 15.0198 4.33932 14.8975 4.26567C14.7753 4.19201 14.6346 4.15539 14.4756 4.1558C14.3202 4.15621 14.1816 4.19355 14.0598 4.26785C13.9379 4.34214 13.8401 4.44226 13.7665 4.5682C13.6965 4.69414 13.6618 4.84033 13.6622 5.00677C13.6626 5.16582 13.6981 5.30998 13.7688 5.43925C13.8394 5.56482 13.9358 5.66444 14.058 5.73809C14.184 5.80804 14.3246 5.84281 14.48 5.84241ZM18.1673 7.93001C17.8381 7.93086 17.5494 7.84284 17.3011 7.66595C17.0565 7.48535 16.8654 7.23618 16.7277 6.91845C16.59 6.59702 16.5206 6.22362 16.5195 5.79827C16.5184 5.37292 16.5859 5.00103 16.7219 4.68258C16.8579 4.36044 17.0477 4.11028 17.2914 3.93211C17.535 3.75394 17.8215 3.66442 18.1506 3.66357C18.4798 3.66271 18.7667 3.75074 19.0113 3.92764C19.2559 4.10454 19.447 4.35371 19.5847 4.67514C19.7261 4.99286 19.7973 5.3644 19.7984 5.78975C19.7995 6.2151 19.7321 6.58885 19.596 6.91099C19.46 7.23314 19.2683 7.4833 19.021 7.66148C18.7773 7.83965 18.4928 7.92916 18.1673 7.93001ZM18.166 7.42513C18.3879 7.42456 18.58 7.35748 18.7424 7.2239C18.9048 7.08663 19.0301 6.89582 19.1182 6.65147C19.2101 6.40712 19.2555 6.12035 19.2547 5.79117C19.2538 5.46198 19.2069 5.17545 19.1138 4.93158C19.0244 4.68769 18.8963 4.49939 18.7295 4.36667C18.5664 4.23394 18.3739 4.16786 18.152 4.16844C17.93 4.16902 17.7379 4.23609 17.5755 4.36967C17.4131 4.50325 17.286 4.69221 17.1941 4.93657C17.106 5.18091 17.0624 5.46768 17.0632 5.79686C17.0641 6.12235 17.1092 6.40703 17.1986 6.65092C17.2917 6.89479 17.4198 7.08494 17.5829 7.22137C17.7497 7.35779 17.944 7.42571 18.166 7.42513ZM20.6284 7.85703L20.6177 3.72373L21.1614 3.72232L21.1708 7.3563L22.985 7.35158L22.9863 7.85091L20.6284 7.85703Z" fill="#90A3BF"/>
<path d="M35.4043 1.61116C33.2168 1.61685 31.446 3.39684 31.4517 5.58435C31.4574 7.77187 33.2374 9.54264 35.4249 9.53695C37.6124 9.53127 39.3832 7.75127 39.3775 5.56376C39.3718 3.37624 37.5958 1.60547 35.4043 1.61116Z" fill="#90A3BF"/>
<rect x="32.236" y="2.4118" width="6.34065" height="6.34065" rx="3.17033" transform="rotate(-0.148906 32.236 2.4118)" fill="white"/>
<path d="M35.4084 3.19621C34.0959 3.19962 33.0334 4.26762 33.0368 5.58013C33.0402 6.89264 34.1082 7.9551 35.4207 7.95169C36.7332 7.94828 37.7957 6.88028 37.7923 5.56777C37.7889 4.25526 36.7233 3.1928 35.4084 3.19621Z" fill="#90A3BF"/>
<rect x="33.8252" y="3.99292" width="3.17033" height="3.17033" rx="1.58516" transform="rotate(-0.148906 33.8252 3.99292)" fill="white"/>
<rect x="35.0234" y="7.55646" width="0.792582" height="1.58516" transform="rotate(-0.148906 35.0234 7.55646)" fill="#90A3BF"/>
<rect x="37.3949" y="5.17255" width="1.58516" height="0.792582" transform="rotate(-0.148906 37.3949 5.17255)" fill="#90A3BF"/>
<rect x="31.8469" y="5.18695" width="1.58516" height="0.792582" transform="rotate(-0.148906 31.8469 5.18695)" fill="#90A3BF"/>
<path d="M43.8066 7.79657L43.7958 3.66327L44.2951 3.66197L45.8488 5.86053L45.5936 5.86119L47.1247 3.65462L47.624 3.65332L47.6347 7.78662L47.0855 7.78805L47.0765 4.34271L47.2708 4.40323L45.7397 6.57097L45.6953 6.57108L44.1695 4.41129L44.3413 4.34982L44.3503 7.79516L43.8066 7.79657ZM49.3685 7.84869C49.1725 7.8492 48.9985 7.81452 48.8467 7.74463C48.6986 7.67104 48.5818 7.57148 48.4964 7.44595C48.411 7.31671 48.3681 7.16888 48.3676 7.00244C48.3672 6.84339 48.4001 6.7009 48.4664 6.57498C48.5363 6.44534 48.6433 6.33595 48.7873 6.2468C48.935 6.15765 49.1198 6.09429 49.3416 6.05673L50.4508 5.87076L50.4519 6.30351L49.4592 6.47253C49.267 6.50632 49.1266 6.56771 49.038 6.65671C48.9532 6.7457 48.911 6.85492 48.9113 6.98438C48.9116 7.10644 48.96 7.20802 49.0563 7.28915C49.1564 7.37026 49.2804 7.41062 49.4284 7.41024C49.617 7.40975 49.7796 7.37049 49.9163 7.29246C50.0566 7.21072 50.1655 7.10133 50.2428 6.96427C50.3238 6.82721 50.3641 6.67546 50.3637 6.50902L50.3617 5.74893C50.3613 5.58619 50.2999 5.45504 50.1776 5.3555C50.0589 5.25224 49.9016 5.20087 49.7056 5.20138C49.5354 5.20182 49.3839 5.2466 49.251 5.33571C49.1218 5.42112 49.0259 5.53603 48.9634 5.68044L48.5134 5.44859C48.5685 5.31159 48.657 5.18931 48.7787 5.08173C48.9005 4.97045 49.0427 4.88316 49.2053 4.81986C49.3678 4.75656 49.5379 4.72468 49.7154 4.72422C49.9448 4.72362 50.1465 4.76748 50.3205 4.8558C50.4946 4.94042 50.6299 5.06027 50.7265 5.21537C50.8267 5.36676 50.8771 5.54416 50.8777 5.74759L50.8829 7.77818L50.3781 7.77949L50.3766 7.21359L50.471 7.24663C50.4084 7.36515 50.3236 7.46894 50.2166 7.55799C50.1096 7.64703 49.984 7.71764 49.8399 7.76979C49.6958 7.82195 49.5386 7.84825 49.3685 7.84869ZM51.6829 7.7761L51.6752 4.7857L52.18 4.78439L52.1815 5.36693L52.0982 5.31722C52.1717 5.12839 52.2897 4.98198 52.4521 4.878C52.6183 4.7703 52.8123 4.71617 53.0343 4.71559C53.2488 4.71503 53.4394 4.76262 53.6061 4.85835C53.7765 4.95408 53.91 5.08689 54.0066 5.25678C54.1069 5.42666 54.1573 5.61886 54.1579 5.83338L54.1629 7.76965L53.6414 7.77101L53.6368 6.00118C53.6364 5.83474 53.6064 5.69427 53.5469 5.57976C53.4875 5.46525 53.4022 5.37671 53.291 5.31412C53.1836 5.24782 53.0596 5.21485 52.919 5.21522C52.7785 5.21558 52.6528 5.2492 52.542 5.31606C52.4349 5.37922 52.3501 5.47006 52.2875 5.58858C52.225 5.7034 52.1939 5.84219 52.1943 6.00493L52.1989 7.77476L51.6829 7.7761ZM55.9611 7.83156C55.7466 7.83212 55.5523 7.78269 55.3782 7.68328C55.2078 7.58385 55.0742 7.4455 54.9776 7.26821C54.8847 7.08721 54.8379 6.88021 54.8373 6.64719L54.8324 4.77749L55.3484 4.77615L55.3531 6.59037C55.3535 6.73831 55.3834 6.86769 55.4429 6.9785C55.5061 7.0893 55.5914 7.176 55.6988 7.23859C55.8099 7.30118 55.9357 7.3323 56.0763 7.33193C56.2169 7.33157 56.3407 7.2998 56.4478 7.23665C56.5586 7.17348 56.6434 7.08264 56.7023 6.96413C56.7648 6.84561 56.7959 6.70498 56.7955 6.54223L56.7909 4.7724L57.3124 4.77105L57.3202 7.76145L56.8153 7.76276L56.8138 7.18022L56.8972 7.22993C56.8274 7.41875 56.7075 7.56701 56.5377 7.67471C56.3715 7.77871 56.1793 7.83099 55.9611 7.83156ZM58.9963 7.82367C58.8003 7.82418 58.6263 7.78949 58.4745 7.71961C58.3264 7.64602 58.2096 7.54646 58.1242 7.42093C58.0388 7.29169 57.9959 7.14386 57.9955 6.97741C57.995 6.81837 58.028 6.67588 58.0942 6.54995C58.1641 6.42032 58.2711 6.31093 58.4151 6.22178C58.5629 6.13263 58.7476 6.06927 58.9695 6.03171L60.0786 5.84574L60.0797 6.27849L59.087 6.44751C58.8948 6.4813 58.7544 6.54269 58.6659 6.63169C58.581 6.72068 58.5388 6.8299 58.5391 6.95936C58.5394 7.08141 58.5878 7.183 58.6842 7.26412C58.7842 7.34524 58.9082 7.3856 59.0562 7.38522C59.2448 7.38473 59.4075 7.34547 59.5441 7.26744C59.6845 7.1857 59.7933 7.07631 59.8706 6.93925C59.9516 6.80219 59.9919 6.65044 59.9915 6.48399L59.9895 5.72391C59.9891 5.56117 59.9277 5.43002 59.8054 5.33047C59.6868 5.22722 59.5294 5.17585 59.3334 5.17635C59.1633 5.1768 59.0117 5.22158 58.8788 5.31069C58.7496 5.3961 58.6537 5.51101 58.5912 5.65542L58.1412 5.42357C58.1963 5.28657 58.2848 5.16429 58.4066 5.05671C58.5283 4.94543 58.6705 4.85814 58.8331 4.79484C58.9957 4.73154 59.1657 4.69966 59.3433 4.69919C59.5726 4.6986 59.7743 4.74246 59.9483 4.83078C60.1224 4.91539 60.2577 5.03525 60.3543 5.19035C60.4546 5.34173 60.5049 5.51914 60.5055 5.72257L60.5108 7.75316L60.0059 7.75447L60.0044 7.18857L60.0988 7.22161C60.0362 7.34013 59.9514 7.44392 59.8444 7.53297C59.7374 7.62201 59.6118 7.69262 59.4677 7.74477C59.3236 7.79693 59.1664 7.82323 58.9963 7.82367ZM61.3108 7.75108L61.2998 3.5512L61.8158 3.54986L61.8267 7.74974L61.3108 7.75108Z" fill="#90A3BF"/>
<path d="M74.2407 1.51024C73.2024 1.51294 72.3605 2.35923 72.3632 3.39751C72.3658 4.41598 73.1645 5.23819 74.2029 5.27116C74.2346 5.26711 74.2663 5.26703 74.2901 5.27093C74.298 5.27091 74.3019 5.2709 74.3099 5.27088C74.3138 5.27087 74.3138 5.27087 74.3178 5.27086C75.3322 5.23255 76.1266 4.4062 76.1279 3.38773C76.1252 2.34945 75.2789 1.50755 74.2407 1.51024Z" fill="#90A3BF"/>
<path d="M76.2664 6.31994C75.1588 5.58572 73.3557 5.5904 72.244 6.3304C71.7416 6.66855 71.4654 7.125 71.4667 7.61244C71.4679 8.09988 71.7465 8.55093 72.2467 8.88251C72.8025 9.25358 73.5321 9.43794 74.2613 9.43605C74.9905 9.43415 75.7192 9.246 76.273 8.87205C76.7715 8.5339 77.0477 8.08141 77.0464 7.59001C77.0412 7.10259 76.7666 6.65153 76.2664 6.31994Z" fill="#90A3BF"/>
<path d="M78.6014 3.61509C78.6668 4.38373 78.1217 5.05884 77.365 5.15195C77.361 5.15196 77.361 5.15196 77.3571 5.15198L77.3452 5.15201C77.3214 5.15207 77.2976 5.15213 77.2778 5.16011C76.8935 5.18092 76.5405 5.05899 76.2744 4.83379C76.6816 4.46815 76.914 3.92066 76.8649 3.32635C76.8363 3.00543 76.7246 2.71246 76.5575 2.46323C76.7079 2.38754 76.8821 2.33954 77.0604 2.32322C77.837 2.25383 78.532 2.83061 78.6014 3.61509Z" fill="#90A3BF"/>
<path d="M79.4035 7.2787C79.3728 7.66318 79.128 7.9967 78.7164 8.22366C78.3207 8.44265 77.8217 8.54698 77.3263 8.53638C77.6109 8.27805 77.7765 7.95662 77.8074 7.61573C77.8457 7.12423 77.6107 6.65325 77.1421 6.27799C76.876 6.06865 76.5665 5.90301 76.2293 5.78104C77.1044 5.52513 78.2066 5.69268 78.8856 6.23779C79.251 6.5301 79.4382 6.89817 79.4035 7.2787Z" fill="#90A3BF"/>
<path d="M84.6454 7.75722C84.3791 7.75791 84.1422 7.69935 83.9347 7.58153C83.731 7.4637 83.5697 7.30322 83.4508 7.1001C83.3319 6.89328 83.2721 6.65857 83.2714 6.39596C83.2711 6.25171 83.2873 6.10927 83.3203 5.96863C83.3532 5.82799 83.4065 5.68545 83.48 5.54101C83.5536 5.39657 83.6476 5.24653 83.7618 5.09088L84.9229 3.55659L85.5776 3.55489L84.1566 5.41165L84.0567 5.40081C84.112 5.32669 84.1729 5.2692 84.2393 5.22835C84.3095 5.18748 84.3834 5.1577 84.461 5.139C84.5423 5.1203 84.6274 5.11083 84.7162 5.1106C84.9603 5.10996 85.1786 5.16673 85.3713 5.28089C85.5676 5.39134 85.7215 5.54443 85.833 5.74018C85.9481 5.93591 86.006 6.16138 86.0067 6.41659C86.0074 6.6718 85.9488 6.90128 85.831 7.10501C85.7131 7.30505 85.5508 7.46452 85.344 7.58341C85.1408 7.6986 84.908 7.75654 84.6454 7.75722ZM84.6441 7.26899C84.7994 7.26859 84.938 7.23309 85.0599 7.1625C85.1818 7.08821 85.2777 6.98624 85.3476 6.8566C85.4213 6.72696 85.4579 6.58261 85.4575 6.42357C85.457 6.25713 85.4215 6.11297 85.3509 5.99109C85.2803 5.86552 85.1839 5.76591 85.0616 5.69225C84.9394 5.61859 84.7988 5.58197 84.6397 5.58238C84.4844 5.58279 84.3439 5.62014 84.2183 5.69444C84.0928 5.76874 83.995 5.86886 83.9251 5.9948C83.8551 6.11704 83.8204 6.26138 83.8208 6.42782C83.8212 6.58687 83.8567 6.73102 83.9273 6.8603C84.0016 6.98956 84.0999 7.09102 84.2222 7.16467C84.3481 7.23462 84.4887 7.2694 84.6441 7.26899ZM87.7159 7.68266L87.7052 3.54936L89.1643 3.54557C89.438 3.54486 89.6786 3.59602 89.886 3.69904C90.0934 3.80207 90.2547 3.9496 90.3698 4.14163C90.4887 4.33366 90.5485 4.55912 90.5491 4.81803C90.5498 5.07694 90.4912 5.30272 90.3733 5.49536C90.2592 5.68429 90.0987 5.83265 89.8918 5.94046C89.6887 6.04455 89.4484 6.09695 89.171 6.09768L88.2555 6.10005L88.2597 7.68125L87.7159 7.68266ZM88.2543 5.60073L89.1863 5.59831C89.3528 5.59787 89.4969 5.56606 89.6188 5.50287C89.7407 5.43967 89.8348 5.34881 89.9011 5.23028C89.9673 5.11174 90.0003 4.97481 89.9999 4.81946C89.9995 4.66042 89.9658 4.52365 89.8989 4.40916C89.8321 4.29098 89.7375 4.20061 89.6153 4.13804C89.4931 4.07548 89.3487 4.04442 89.1823 4.04485L88.2502 4.04727L88.2543 5.60073ZM92.4985 7.73681C92.21 7.73756 91.9528 7.6698 91.7268 7.53354C91.5009 7.39727 91.3228 7.21095 91.1928 6.97457C91.0627 6.73449 90.9973 6.4665 90.9965 6.1706C90.9957 5.87101 91.0579 5.60454 91.183 5.37119C91.3119 5.13784 91.4853 4.9543 91.7031 4.82058C91.9247 4.68315 92.1723 4.61408 92.446 4.61337C92.668 4.6128 92.8641 4.65297 93.0345 4.7339C93.2085 4.81112 93.3549 4.918 93.4736 5.05455C93.596 5.18738 93.6889 5.34064 93.7522 5.51432C93.8192 5.68428 93.853 5.86173 93.8534 6.04667C93.8535 6.08736 93.85 6.1336 93.8427 6.1854C93.8391 6.23349 93.8337 6.27974 93.8264 6.32414L91.3742 6.33052L91.373 5.88667L93.5257 5.88108L93.2821 6.08144C93.3149 5.88902 93.2959 5.71708 93.2252 5.56562C93.1546 5.41415 93.0507 5.29422 92.9136 5.2058C92.7765 5.11739 92.6211 5.07341 92.4472 5.07386C92.2734 5.07431 92.1145 5.11911 91.9705 5.20825C91.8264 5.2974 91.714 5.4253 91.633 5.59195C91.5558 5.75489 91.5248 5.94916 91.5402 6.17474C91.526 6.393 91.5598 6.58525 91.6416 6.75148C91.7271 6.914 91.8458 7.0413 91.9976 7.13337C92.1532 7.22174 92.3216 7.26568 92.5029 7.26521C92.7026 7.26469 92.8708 7.21802 93.0074 7.1252C93.144 7.03237 93.2546 6.91373 93.3393 6.76926L93.7727 6.99005C93.7138 7.12706 93.6217 7.25306 93.4962 7.36804C93.3745 7.47932 93.2286 7.56847 93.0586 7.63549C92.8924 7.7025 92.7057 7.73627 92.4985 7.73681ZM95.9509 7.72784C95.6624 7.72859 95.4014 7.66269 95.1681 7.53014C94.9347 7.39389 94.7493 7.20759 94.6118 6.97123C94.4743 6.73487 94.4052 6.46689 94.4044 6.1673C94.4037 5.8677 94.4695 5.60122 94.6021 5.36786C94.7383 5.13448 94.9228 4.94907 95.1555 4.81161C95.3881 4.67415 95.6505 4.60504 95.9427 4.60428C96.2312 4.60353 96.4922 4.67128 96.7256 4.80753C96.9589 4.94008 97.1425 5.12269 97.2762 5.35536C97.4137 5.58802 97.4828 5.856 97.4836 6.15929C97.4844 6.46259 97.4148 6.73277 97.2749 6.96986C97.1349 7.20324 96.9486 7.38866 96.716 7.52612C96.487 7.65987 96.232 7.72711 95.9509 7.72784ZM95.9496 7.22851C96.1345 7.22803 96.3008 7.18137 96.4485 7.08851C96.5999 6.99565 96.718 6.86774 96.8026 6.70478C96.891 6.5418 96.9349 6.36045 96.9344 6.16072C96.9338 5.95729 96.889 5.77802 96.7998 5.62291C96.7143 5.46408 96.5956 5.33863 96.4437 5.24656C96.2955 5.15078 96.129 5.10313 95.944 5.10361C95.7554 5.1041 95.5854 5.15262 95.434 5.24918C95.2863 5.34204 95.1683 5.4681 95.0799 5.62738C94.9915 5.78295 94.9476 5.96245 94.9481 6.16588C94.9487 6.36561 94.9935 6.54673 95.0827 6.70925C95.1719 6.87176 95.2906 6.99906 95.4388 7.09114C95.5907 7.18321 95.7609 7.229 95.9496 7.22851ZM98.1633 8.76513L98.1527 4.66512L98.6576 4.66381L98.6592 5.30738L98.5923 5.17995C98.7028 5.00212 98.8541 4.86118 99.0462 4.75711C99.2382 4.64935 99.4582 4.59515 99.706 4.5945C99.9871 4.59377 100.239 4.66155 100.461 4.79782C100.687 4.93409 100.865 5.12041 100.995 5.35679C101.125 5.58947 101.191 5.85561 101.191 6.15521C101.192 6.4474 101.128 6.71203 100.999 6.94908C100.87 7.18613 100.693 7.37338 100.468 7.51082C100.247 7.64825 99.9933 7.71733 99.7085 7.71807C99.4681 7.7187 99.2479 7.66564 99.0479 7.55889C98.8516 7.45214 98.6996 7.30089 98.5918 7.10514L98.6748 7.01615L98.6793 8.76379L98.1633 8.76513ZM99.6684 7.21885C99.857 7.21836 100.025 7.17169 100.173 7.07884C100.321 6.98598 100.435 6.85993 100.516 6.70067C100.601 6.53771 100.643 6.35636 100.642 6.15663C100.642 5.94951 100.599 5.76838 100.513 5.61326C100.431 5.45442 100.316 5.32896 100.168 5.23688C100.02 5.1411 99.8515 5.09345 99.6629 5.09394C99.4743 5.09443 99.3042 5.14111 99.1528 5.23397C99.0051 5.32682 98.8871 5.45474 98.7987 5.61771C98.7141 5.77698 98.672 5.95832 98.6726 6.16175C98.6731 6.36148 98.7161 6.54261 98.8016 6.70513C98.8908 6.86394 99.0094 6.98939 99.1576 7.08147C99.3095 7.17355 99.4798 7.21934 99.6684 7.21885ZM101.872 7.64587L101.861 3.446L102.377 3.44466L102.388 7.64453L101.872 7.64587ZM104.564 7.70545C104.276 7.7062 104.019 7.63844 103.793 7.50218C103.567 7.36591 103.389 7.17959 103.259 6.94321C103.129 6.70313 103.063 6.43514 103.062 6.13925C103.062 5.83965 103.124 5.57318 103.249 5.33984C103.378 5.10648 103.551 4.92294 103.769 4.78922C103.991 4.6518 104.238 4.58273 104.512 4.58201C104.734 4.58144 104.93 4.62161 105.1 4.70254C105.274 4.77976 105.421 4.88665 105.54 5.02319C105.662 5.15603 105.755 5.30928 105.818 5.48296C105.885 5.65293 105.919 5.83038 105.919 6.01531C105.919 6.056 105.916 6.10224 105.909 6.15404C105.905 6.20213 105.9 6.24838 105.892 6.29279L103.44 6.29916L103.439 5.85531L105.592 5.84972L105.348 6.05008C105.381 5.85767 105.362 5.68572 105.291 5.53426C105.221 5.3828 105.117 5.26286 104.98 5.17444C104.842 5.08603 104.687 5.04205 104.513 5.0425C104.339 5.04295 104.18 5.08775 104.036 5.1769C103.892 5.26604 103.78 5.39394 103.699 5.56059C103.622 5.72354 103.591 5.9178 103.606 6.14338C103.592 6.36164 103.626 6.55389 103.708 6.72012C103.793 6.88264 103.912 7.00994 104.064 7.10201C104.219 7.19038 104.388 7.23432 104.569 7.23385C104.769 7.23333 104.937 7.18666 105.073 7.09384C105.21 7.00102 105.321 6.88237 105.405 6.7379L105.839 6.9587C105.78 7.0957 105.688 7.2217 105.562 7.33669C105.44 7.44796 105.295 7.53711 105.125 7.60413C104.958 7.67114 104.772 7.70491 104.564 7.70545Z" fill="#90A3BF"/>
</svg>
