<svg width="108" height="11" viewBox="0 0 108 11" fill="none" xmlns="http://www.w3.org/2000/svg">
<path d="M9.81757 4.74502L9.02396 4.35079C8.87714 4.27984 8.695 4.33579 8.62404 4.48261C8.54914 4.63339 8.60905 4.81157 8.75586 4.88252L9.38677 5.19395L9.39171 7.09218L7.90563 7.1L7.89506 3.03407C7.893 2.24149 7.36095 1.84658 6.70311 1.84829L3.53279 1.85653C2.87495 1.85824 2.34495 2.25591 2.34701 3.04849L2.36375 9.48819L1.76931 9.48974C1.60683 9.49016 1.47245 9.62525 1.47287 9.78773C1.47329 9.95021 1.60838 10.0846 1.77086 10.0842L8.50778 10.0667C8.67026 10.0662 8.80465 9.93115 8.80422 9.76867C8.8038 9.6062 8.66871 9.47181 8.50624 9.47223L7.9118 9.47378L7.90718 7.69444L9.69047 7.68584C9.85691 7.6854 9.98734 7.55033 9.98691 7.38785L9.98073 5.01011C9.98045 4.89915 9.91677 4.79628 9.81757 4.74502ZM3.33968 3.7949C3.33825 3.24406 3.67458 3.04504 4.08672 3.04397L6.15932 3.03858C6.56749 3.03752 6.90486 3.23479 6.90629 3.78563L6.90755 4.27307C6.90898 4.81995 6.57264 5.01897 6.1605 5.02004L4.09187 5.02542C3.67973 5.02649 3.34237 4.82922 3.34094 4.27838L3.33968 3.7949ZM3.54335 5.9185L4.73222 5.91541C4.89469 5.91499 5.02978 6.04938 5.0302 6.21185C5.03063 6.37433 4.89624 6.50942 4.73376 6.50984L3.54489 6.51293C3.38241 6.51336 3.24732 6.37897 3.2469 6.21649C3.24648 6.05401 3.38087 5.91892 3.54335 5.9185Z" fill="#90A3BF"/>
<path d="M14.0815 8.03659L15.8862 4.37016L13.8612 4.37542L13.8599 3.90383L16.4564 3.89709L16.4576 4.36867L14.6696 8.03506L14.0815 8.03659ZM18.7079 8.09114C18.3787 8.09199 18.09 8.00398 17.8417 7.82708C17.5972 7.64648 17.406 7.39731 17.2683 7.07958C17.1307 6.75815 17.0613 6.38476 17.0602 5.95941C17.059 5.53406 17.1265 5.16216 17.2625 4.84371C17.3985 4.52157 17.5884 4.27141 17.832 4.09324C18.0757 3.91507 18.3621 3.82556 18.6913 3.8247C19.0205 3.82385 19.3074 3.91187 19.5519 4.08877C19.7965 4.26568 19.9876 4.51484 20.1253 4.83627C20.2667 5.154 20.3379 5.52553 20.3391 5.95089C20.3402 6.37624 20.2727 6.74998 20.1367 7.07213C20.0007 7.39427 19.809 7.64443 19.5616 7.82261C19.318 8.00078 19.0334 8.09029 18.7079 8.09114ZM18.7066 7.58627C18.9285 7.58569 19.1207 7.51861 19.2831 7.38504C19.4455 7.24776 19.5707 7.05695 19.6589 6.81261C19.7507 6.56825 19.7962 6.28148 19.7953 5.9523C19.7945 5.62311 19.7475 5.33658 19.6544 5.09271C19.565 4.84883 19.4369 4.66052 19.2701 4.5278C19.107 4.39507 18.9145 4.329 18.6926 4.32957C18.4707 4.33015 18.2785 4.39723 18.1161 4.5308C17.9537 4.66438 17.8266 4.85334 17.7348 5.0977C17.6466 5.34204 17.603 5.62881 17.6039 5.95799C17.6047 6.28348 17.6498 6.56816 17.7392 6.81205C17.8323 7.05592 17.9604 7.24607 18.1235 7.3825C18.2903 7.51892 18.4847 7.58684 18.7066 7.58627ZM21.1691 8.01817L21.1583 3.88487L21.702 3.88345L21.7115 7.51743L23.5257 7.51271L23.527 8.01204L21.1691 8.01817Z" fill="#90A3BF"/>
<path d="M36.2268 1.77144C34.0393 1.77712 32.2685 3.55712 32.2742 5.74463C32.2799 7.93215 34.0599 9.70291 36.2474 9.69723C38.4349 9.69154 40.2057 7.91155 40.2 5.72403C40.1943 3.53652 38.4183 1.76574 36.2268 1.77144Z" fill="#90A3BF"/>
<rect x="33.0586" y="2.57233" width="6.34065" height="6.34065" rx="3.17033" transform="rotate(-0.148906 33.0586 2.57233)" fill="white"/>
<path d="M36.2309 3.35655C34.9184 3.35996 33.8559 4.42796 33.8593 5.74047C33.8627 7.05298 34.9307 8.11544 36.2432 8.11203C37.5558 8.10862 38.6182 7.04062 38.6148 5.72811C38.6114 4.4156 37.5458 3.35314 36.2309 3.35655Z" fill="#90A3BF"/>
<rect x="34.6478" y="4.15332" width="3.17033" height="3.17033" rx="1.58516" transform="rotate(-0.148906 34.6478 4.15332)" fill="white"/>
<rect x="35.8459" y="7.71686" width="0.792582" height="1.58516" transform="rotate(-0.148906 35.8459 7.71686)" fill="#90A3BF"/>
<rect x="38.2175" y="5.33289" width="1.58516" height="0.792582" transform="rotate(-0.148906 38.2175 5.33289)" fill="#90A3BF"/>
<rect x="32.6694" y="5.34729" width="1.58516" height="0.792582" transform="rotate(-0.148906 32.6694 5.34729)" fill="#90A3BF"/>
<path d="M44.6291 7.95721L44.6183 3.82391L47.3091 3.81692L47.3104 4.31625L45.1633 4.32183L45.1667 5.63117L47.2029 5.62588L47.2042 6.1252L45.168 6.13049L45.1715 7.45648L47.3186 7.4509L47.3199 7.95022L44.6291 7.95721ZM47.9326 7.94863L47.9217 3.74875L48.4377 3.74741L48.4486 7.94729L47.9326 7.94863ZM50.6253 8.00821C50.3368 8.00896 50.0796 7.9412 49.8536 7.80493C49.6276 7.66867 49.4496 7.48235 49.3195 7.24597C49.1894 7.00589 49.124 6.7379 49.1232 6.442C49.1225 6.14241 49.1847 5.87594 49.3098 5.64259C49.4387 5.40924 49.612 5.2257 49.8299 5.09198C50.0515 4.95455 50.2991 4.88548 50.5728 4.88477C50.7947 4.88419 50.9909 4.92437 51.1612 5.0053C51.3353 5.08252 51.4816 5.1894 51.6003 5.32595C51.7227 5.45878 51.8156 5.61204 51.8789 5.78571C51.946 5.95568 51.9797 6.13313 51.9802 6.31807C51.9803 6.35875 51.9767 6.405 51.9695 6.4568C51.9659 6.50489 51.9605 6.55114 51.9532 6.59554L49.5009 6.60192L49.4998 6.15807L51.6524 6.15248L51.4088 6.35284C51.4416 6.16042 51.4227 5.98848 51.352 5.83702C51.2813 5.68555 51.1775 5.56561 51.0404 5.4772C50.9033 5.38879 50.7478 5.34481 50.574 5.34526C50.4002 5.34571 50.2412 5.39051 50.0972 5.47965C49.9532 5.56879 49.8407 5.69669 49.7598 5.86335C49.6825 6.02629 49.6516 6.22055 49.667 6.44614C49.6527 6.6644 49.6865 6.85664 49.7683 7.02287C49.8538 7.1854 49.9725 7.31269 50.1244 7.40477C50.28 7.49313 50.4484 7.53708 50.6296 7.53661C50.8294 7.53609 50.9975 7.48942 51.1341 7.3966C51.2707 7.30377 51.3814 7.18513 51.4661 7.04066L51.8994 7.26145C51.8406 7.39846 51.7485 7.52445 51.623 7.63944C51.5012 7.75072 51.3554 7.83987 51.1854 7.90689C51.0191 7.9739 50.8324 8.00767 50.6253 8.00821ZM54.0443 7.99932C53.7521 8.00008 53.4912 7.93233 53.2615 7.79608C53.0355 7.65981 52.8575 7.47349 52.7275 7.23711C52.5974 7.00073 52.532 6.73459 52.5312 6.43869C52.5304 6.1391 52.5945 5.87262 52.7233 5.63927C52.8522 5.40591 53.0292 5.22052 53.2545 5.08308C53.4834 4.94563 53.744 4.87653 54.0362 4.87577C54.2322 4.87526 54.4154 4.90992 54.5857 4.97975C54.7561 5.04959 54.9061 5.14351 55.0359 5.26154C55.1656 5.37956 55.2603 5.51801 55.3199 5.67691L54.86 5.90002C54.7893 5.74486 54.6817 5.61938 54.5372 5.52359C54.3927 5.4241 54.2261 5.3746 54.0375 5.37509C53.8563 5.37556 53.6918 5.42223 53.5441 5.51508C53.4001 5.60792 53.2858 5.73397 53.2011 5.89324C53.1164 6.0525 53.0744 6.2357 53.0749 6.44283C53.0754 6.64256 53.1184 6.82368 53.2039 6.98621C53.2894 7.14503 53.4044 7.27049 53.5489 7.36258C53.6971 7.45466 53.8618 7.50047 54.043 7.5C54.2317 7.49951 54.398 7.45099 54.542 7.35445C54.686 7.25421 54.7929 7.12263 54.8627 6.9597L55.3238 7.19152C55.2651 7.34702 55.1711 7.48597 55.042 7.60836C54.9128 7.72706 54.7633 7.82176 54.5933 7.89248C54.4234 7.9632 54.2404 7.99881 54.0443 7.99932ZM57.2152 7.95779C56.923 7.95855 56.6971 7.87592 56.5377 7.70989C56.3819 7.54385 56.3036 7.30919 56.3028 7.00589L56.2987 5.43025L55.755 5.43166L55.7537 4.93788L55.8647 4.93759C55.9978 4.93725 56.1031 4.89629 56.1806 4.81471C56.2581 4.73314 56.2966 4.62578 56.2963 4.49262L56.2956 4.24851L56.8116 4.24717L56.8134 4.93513L57.4847 4.93338L57.486 5.42716L56.8147 5.4289L56.8187 6.98791C56.819 7.08777 56.834 7.17465 56.8638 7.24855C56.8973 7.32244 56.9511 7.38148 57.0252 7.42567C57.0992 7.46616 57.1973 7.48625 57.3194 7.48593C57.3453 7.48587 57.3767 7.48394 57.4137 7.48014C57.4543 7.47634 57.4913 7.47254 57.5246 7.46876L57.5258 7.9237C57.4777 7.93492 57.4241 7.94246 57.3649 7.94631C57.3058 7.95386 57.2559 7.95769 57.2152 7.95779ZM58.1998 7.92195L58.192 4.93154L58.6969 4.93023L58.6983 5.47949L58.6426 5.40196C58.7125 5.23164 58.8194 5.1056 58.9634 5.02386C59.1075 4.93841 59.283 4.89542 59.4902 4.89488L59.6733 4.89441L59.6745 5.38264L59.4138 5.38331C59.2029 5.38386 59.033 5.45088 58.9039 5.58437C58.7747 5.71416 58.7105 5.89926 58.7111 6.13968L58.7158 7.9206L58.1998 7.92195ZM60.1394 7.9169L60.1317 4.9265L60.6476 4.92516L60.6554 7.91556L60.1394 7.9169ZM60.1304 4.44937L60.1287 3.7836L60.6447 3.78226L60.6464 4.44803L60.1304 4.44937ZM62.8432 7.97645C62.551 7.97721 62.2901 7.90947 62.0604 7.77321C61.8344 7.63694 61.6564 7.45062 61.5263 7.21424C61.3963 6.97786 61.3308 6.71172 61.3301 6.41583C61.3293 6.11623 61.3933 5.84976 61.5222 5.6164C61.651 5.38305 61.8281 5.19765 62.0533 5.06021C62.2823 4.92276 62.5429 4.85366 62.8351 4.8529C63.0311 4.85239 63.2143 4.88705 63.3846 4.95689C63.5549 5.02672 63.705 5.12065 63.8347 5.23867C63.9645 5.35669 64.0592 5.49515 64.1188 5.65404L63.6589 5.87716C63.5882 5.72199 63.4806 5.59652 63.3361 5.50073C63.1916 5.40124 63.025 5.35174 62.8364 5.35223C62.6551 5.3527 62.4907 5.39936 62.343 5.49221C62.199 5.58505 62.0846 5.71111 62 5.87037C61.9153 6.02964 61.8732 6.21283 61.8738 6.41996C61.8743 6.61969 61.9173 6.80082 62.0028 6.96334C62.0883 7.12216 62.2033 7.24762 62.3478 7.33971C62.496 7.4318 62.6607 7.4776 62.8419 7.47713C63.0305 7.47664 63.1969 7.42812 63.3409 7.33158C63.4848 7.23134 63.5918 7.09976 63.6616 6.93683L64.1227 7.16866C64.0639 7.32416 63.97 7.4631 63.8408 7.5855C63.7117 7.70419 63.5621 7.7989 63.3922 7.86961C63.2222 7.94033 63.0392 7.97595 62.8432 7.97645Z" fill="#90A3BF"/>
<path d="M75.063 1.67064C74.0248 1.67334 73.1829 2.51963 73.1856 3.55791C73.1882 4.57638 73.9869 5.39859 75.0253 5.43156C75.057 5.42751 75.0887 5.42743 75.1124 5.43133C75.1204 5.43131 75.1243 5.4313 75.1323 5.43128C75.1362 5.43127 75.1362 5.43127 75.1402 5.43126C76.1546 5.39295 76.949 4.5666 76.9503 3.54813C76.9476 2.50985 76.1013 1.66795 75.063 1.67064Z" fill="#90A3BF"/>
<path d="M77.0888 6.48034C75.9812 5.74612 74.1781 5.7508 73.0664 6.4908C72.564 6.82895 72.2878 7.28541 72.2891 7.77284C72.2903 8.26028 72.5689 8.71133 73.0691 9.04291C73.6249 9.41398 74.3545 9.59834 75.0837 9.59645C75.8129 9.59455 76.5416 9.4064 77.0954 9.03245C77.5938 8.6943 77.8701 8.24181 77.8688 7.75041C77.8636 7.26299 77.589 6.81193 77.0888 6.48034Z" fill="#90A3BF"/>
<path d="M79.4238 3.77549C79.4892 4.54413 78.9441 5.21924 78.1874 5.31236C78.1834 5.31237 78.1834 5.31237 78.1794 5.31238L78.1676 5.31241C78.1438 5.31247 78.12 5.31253 78.1002 5.32051C77.7159 5.34132 77.3628 5.21939 77.0967 4.99419C77.504 4.62855 77.7364 4.08106 77.6873 3.48675C77.6587 3.16583 77.547 2.87286 77.3799 2.62363C77.5303 2.54794 77.7045 2.49994 77.8828 2.48362C78.6594 2.41423 79.3544 2.99101 79.4238 3.77549Z" fill="#90A3BF"/>
<path d="M80.2259 7.4391C80.1952 7.82358 79.9504 8.1571 79.5388 8.38406C79.1431 8.60305 78.644 8.70738 78.1487 8.69678C78.4333 8.43845 78.5989 8.11702 78.6297 7.77613C78.6681 7.28463 78.4331 6.81365 77.9645 6.43839C77.6984 6.22905 77.3889 6.06341 77.0517 5.94144C77.9268 5.68553 79.029 5.85308 79.708 6.39819C80.0734 6.6905 80.2606 7.05857 80.2259 7.4391Z" fill="#90A3BF"/>
<path d="M86.0668 7.84949L86.0643 6.89522L84.0337 6.9005L84.0325 6.45111L86.0449 3.71622L86.5664 3.71486L86.5735 6.4445L87.1117 6.4431L87.1129 6.8925L86.5747 6.89389L86.5772 7.84816L86.0668 7.84949ZM84.4436 6.64422L84.3654 6.45024L86.0631 6.44583L86.0572 4.17113L86.2182 4.21509L84.4436 6.64422ZM88.7551 7.8425L88.7443 3.7092L90.2035 3.70541C90.4772 3.7047 90.7177 3.75585 90.9251 3.85888C91.1325 3.9619 91.2938 4.10943 91.4089 4.30147C91.5278 4.49349 91.5876 4.71896 91.5882 4.97787C91.5889 5.23678 91.5303 5.46255 91.4125 5.65519C91.2983 5.84413 91.1378 5.99249 90.9309 6.10029C90.7278 6.20439 90.4875 6.25679 90.2101 6.25751L89.2947 6.25989L89.2988 7.84109L88.7551 7.8425ZM89.2934 5.76057L90.2254 5.75814C90.3919 5.75771 90.536 5.7259 90.6579 5.6627C90.7798 5.59951 90.8739 5.50864 90.9402 5.39011C91.0064 5.27158 91.0394 5.13464 91.039 4.9793C91.0386 4.82025 91.0049 4.68349 90.938 4.569C90.8712 4.45082 90.7766 4.36044 90.6544 4.29788C90.5322 4.23532 90.3878 4.20426 90.2214 4.20469L89.2893 4.20711L89.2934 5.76057ZM93.5377 7.89665C93.2492 7.8974 92.9919 7.82964 92.7659 7.69337C92.54 7.55711 92.3619 7.37079 92.2319 7.1344C92.1018 6.89433 92.0364 6.62634 92.0356 6.33044C92.0348 6.03085 92.097 5.76438 92.2222 5.53103C92.351 5.29768 92.5244 5.11414 92.7422 4.98042C92.9638 4.84299 93.2114 4.77392 93.4851 4.77321C93.7071 4.77263 93.9032 4.81281 94.0736 4.89374C94.2476 4.97096 94.394 5.07784 94.5127 5.21439C94.6351 5.34722 94.728 5.50048 94.7913 5.67415C94.8583 5.84412 94.8921 6.02157 94.8925 6.20651C94.8926 6.24719 94.8891 6.29344 94.8818 6.34524C94.8782 6.39333 94.8728 6.43958 94.8655 6.48398L92.4133 6.49035L92.4121 6.04651L94.5648 6.04092L94.3212 6.24128C94.354 6.04886 94.335 5.87692 94.2644 5.72546C94.1937 5.57399 94.0898 5.45405 93.9527 5.36564C93.8156 5.27723 93.6602 5.23325 93.4863 5.2337C93.3125 5.23415 93.1536 5.27895 93.0096 5.36809C92.8655 5.45723 92.7531 5.58513 92.6721 5.75179C92.5949 5.91473 92.5639 6.10899 92.5793 6.33458C92.5651 6.55284 92.5989 6.74508 92.6807 6.91131C92.7662 7.07384 92.8849 7.20113 93.0368 7.29321C93.1923 7.38157 93.3607 7.42552 93.542 7.42505C93.7417 7.42453 93.9099 7.37786 94.0465 7.28504C94.1831 7.19221 94.2938 7.07357 94.3784 6.92909L94.8118 7.14989C94.7529 7.2869 94.6608 7.41289 94.5353 7.52788C94.4136 7.63916 94.2677 7.72831 94.0977 7.79533C93.9315 7.86234 93.7448 7.89611 93.5377 7.89665ZM96.99 7.88768C96.7015 7.88843 96.4405 7.82253 96.2072 7.68998C95.9738 7.55373 95.7884 7.36743 95.6509 7.13107C95.5134 6.89471 95.4443 6.62673 95.4435 6.32713C95.4428 6.02754 95.5087 5.76106 95.6412 5.52769C95.7774 5.29432 95.9619 5.1089 96.1946 4.97145C96.4272 4.83399 96.6897 4.76488 96.9819 4.76412C97.2704 4.76337 97.5313 4.83112 97.7647 4.96737C97.998 5.09991 98.1816 5.28252 98.3153 5.5152C98.4528 5.74786 98.5219 6.01584 98.5227 6.31913C98.5235 6.62242 98.4539 6.89261 98.314 7.12969C98.1741 7.36308 97.9877 7.5485 97.7551 7.68596C97.5261 7.8197 97.2711 7.88694 96.99 7.88768ZM96.9887 7.38835C97.1736 7.38787 97.3399 7.3412 97.4876 7.24835C97.639 7.15549 97.7571 7.02758 97.8417 6.86461C97.9301 6.70164 97.974 6.52029 97.9735 6.32056C97.9729 6.11713 97.9281 5.93786 97.8389 5.78274C97.7534 5.62392 97.6347 5.49847 97.4829 5.4064C97.3347 5.31062 97.1681 5.26297 96.9832 5.26345C96.7945 5.26394 96.6245 5.31246 96.4731 5.40902C96.3254 5.50187 96.2074 5.62794 96.119 5.78721C96.0306 5.94279 95.9867 6.12229 95.9873 6.32572C95.9878 6.52545 96.0326 6.70657 96.1218 6.86908C96.211 7.0316 96.3297 7.15889 96.4779 7.25098C96.6298 7.34305 96.8 7.38884 96.9887 7.38835ZM99.2025 8.92497L99.1918 4.82495L99.6967 4.82364L99.6983 5.46722L99.6314 5.33978C99.7419 5.16196 99.8932 5.02101 100.085 4.91695C100.277 4.80919 100.497 4.75499 100.745 4.75434C101.026 4.75361 101.278 4.82138 101.5 4.95766C101.726 5.09392 101.904 5.28025 102.034 5.51663C102.164 5.74931 102.23 6.01545 102.23 6.31504C102.231 6.60724 102.167 6.87187 102.038 7.10892C101.91 7.34597 101.732 7.53322 101.507 7.67066C101.286 7.80808 101.032 7.87717 100.748 7.87791C100.507 7.87853 100.287 7.82548 100.087 7.71873C99.8907 7.61198 99.7387 7.46073 99.6309 7.26497L99.7139 7.17599L99.7184 8.92363L99.2025 8.92497ZM100.708 7.37869C100.896 7.3782 101.064 7.33152 101.212 7.23867C101.36 7.14582 101.474 7.01977 101.555 6.86051C101.64 6.69755 101.682 6.5162 101.681 6.31647C101.681 6.10934 101.638 5.92822 101.552 5.77309C101.47 5.61426 101.355 5.4888 101.207 5.39672C101.059 5.30094 100.891 5.25329 100.702 5.25378C100.513 5.25427 100.343 5.30095 100.192 5.39381C100.044 5.48666 99.9262 5.61457 99.8379 5.77755C99.7532 5.93681 99.7111 6.11816 99.7117 6.32159C99.7122 6.52132 99.7552 6.70244 99.8407 6.86497C99.9299 7.02378 100.049 7.14923 100.197 7.24131C100.349 7.33338 100.519 7.37918 100.708 7.37869ZM102.911 7.80571L102.9 3.60583L103.416 3.60449L103.427 7.80437L102.911 7.80571ZM105.604 7.86529C105.315 7.86604 105.058 7.79828 104.832 7.66202C104.606 7.52575 104.428 7.33943 104.298 7.10305C104.168 6.86297 104.102 6.59498 104.102 6.29908C104.101 5.99949 104.163 5.73302 104.288 5.49967C104.417 5.26632 104.59 5.08278 104.808 4.94906C105.03 4.81163 105.277 4.74256 105.551 4.74185C105.773 4.74127 105.969 4.78145 106.139 4.86238C106.314 4.9396 106.46 5.04648 106.579 5.18303C106.701 5.31586 106.794 5.46912 106.857 5.6428C106.924 5.81276 106.958 5.99021 106.958 6.17515C106.959 6.21583 106.955 6.26208 106.948 6.31388C106.944 6.36197 106.939 6.40822 106.931 6.45262L104.479 6.459L104.478 6.01515L106.631 6.00956L106.387 6.20992C106.42 6.0175 106.401 5.84556 106.33 5.6941C106.26 5.54263 106.156 5.42269 106.019 5.33428C105.882 5.24587 105.726 5.20189 105.552 5.20234C105.378 5.20279 105.22 5.24759 105.075 5.33673C104.931 5.42588 104.819 5.55377 104.738 5.72043C104.661 5.88337 104.63 6.07764 104.645 6.30322C104.631 6.52148 104.665 6.71373 104.747 6.87996C104.832 7.04248 104.951 7.16978 105.103 7.26185C105.258 7.35021 105.427 7.39416 105.608 7.39369C105.808 7.39317 105.976 7.3465 106.112 7.25368C106.249 7.16085 106.36 7.04221 106.444 6.89774L106.878 7.11853C106.819 7.25554 106.727 7.38154 106.601 7.49652C106.48 7.6078 106.334 7.69695 106.164 7.76397C105.997 7.83098 105.811 7.86475 105.604 7.86529Z" fill="#90A3BF"/>
</svg>
