<svg width="107" height="11" viewBox="0 0 107 11" fill="none" xmlns="http://www.w3.org/2000/svg">
<path d="M9.12262 4.38564L8.32901 3.99141C8.1822 3.92046 8.00005 3.97642 7.9291 4.12323C7.85419 4.27402 7.9141 4.45219 8.06091 4.52314L8.69183 4.83457L8.69676 6.7328L7.21069 6.74063L7.20012 2.6747C7.19806 1.88212 6.666 1.48721 6.00816 1.48892L2.83784 1.49716C2.18 1.49887 1.65001 1.89654 1.65207 2.68911L1.6688 9.12882L1.07437 9.13036C0.911889 9.13079 0.7775 9.26587 0.777923 9.42835C0.778345 9.59083 0.913433 9.72522 1.07591 9.7248L7.81283 9.70729C7.97531 9.70687 8.1097 9.57178 8.10928 9.4093C8.10886 9.24682 7.97377 9.11243 7.81129 9.11286L7.21685 9.1144L7.21223 7.33506L8.99552 7.32646C9.16196 7.32603 9.29239 7.19095 9.29197 7.02847L9.28579 4.65074C9.2855 4.53978 9.22182 4.4369 9.12262 4.38564ZM2.64474 3.43553C2.6433 2.88468 2.97964 2.68566 3.39178 2.68459L5.46437 2.67921C5.87255 2.67815 6.20991 2.87542 6.21134 3.42626L6.21261 3.91369C6.21403 4.46057 5.8777 4.65959 5.46556 4.66066L3.39693 4.66604C2.98478 4.66711 2.64742 4.46984 2.64599 3.919L2.64474 3.43553ZM2.8484 5.55912L4.03727 5.55603C4.19975 5.55561 4.33484 5.69 4.33526 5.85248C4.33568 6.01496 4.20129 6.15005 4.03881 6.15047L2.84995 6.15356C2.68747 6.15398 2.55238 6.01959 2.55196 5.85711C2.55153 5.69463 2.68592 5.55955 2.8484 5.55912Z" fill="#90A3BF"/>
<path d="M14.7072 7.74036C14.4298 7.74108 14.1837 7.68624 13.9688 7.57583C13.7577 7.46542 13.5909 7.31605 13.4683 7.12774C13.3495 6.93571 13.2898 6.72134 13.2891 6.48462C13.2884 6.21832 13.3618 5.98511 13.5092 5.78499C13.6567 5.58488 13.8597 5.44195 14.1184 5.35621L14.1077 5.49494C13.9114 5.41777 13.7576 5.29427 13.6462 5.12441C13.5385 4.95085 13.4844 4.76421 13.4839 4.56448C13.4833 4.35365 13.5346 4.16673 13.6378 4.00372C13.7446 3.8407 13.8885 3.71272 14.0695 3.61978C14.2542 3.52313 14.4631 3.47451 14.6961 3.4739C14.9291 3.4733 15.1363 3.51899 15.3178 3.61099C15.4993 3.70299 15.642 3.83207 15.746 3.99824C15.8537 4.16071 15.9078 4.34735 15.9084 4.55818C15.9089 4.769 15.8521 4.95779 15.7379 5.12453C15.6273 5.29126 15.4797 5.41555 15.295 5.4974L15.278 5.35319C15.5408 5.43758 15.7464 5.5813 15.8949 5.78434C16.0434 5.98369 16.118 6.21466 16.1186 6.47727C16.1193 6.71399 16.0588 6.92867 15.9372 7.12132C15.8194 7.31026 15.6533 7.46049 15.4391 7.57201C15.2285 7.68352 14.9846 7.73963 14.7072 7.74036ZM14.7059 7.26877C14.8798 7.26832 15.0313 7.23464 15.1606 7.16772C15.2899 7.10081 15.3895 7.00808 15.4595 6.88954C15.5332 6.76729 15.5698 6.6285 15.5694 6.47315C15.569 6.31411 15.5316 6.1755 15.4573 6.05733C15.3867 5.93546 15.2866 5.84325 15.157 5.78071C15.0274 5.71447 14.8757 5.68158 14.7018 5.68203C14.528 5.68248 14.3746 5.71617 14.2416 5.78309C14.1123 5.8463 14.0127 5.93903 13.9427 6.06127C13.8727 6.17981 13.838 6.3186 13.8384 6.47765C13.8388 6.63299 13.8743 6.7716 13.9449 6.89348C14.0155 7.01165 14.1156 7.10386 14.2452 7.1701C14.3785 7.23633 14.5321 7.26922 14.7059 7.26877ZM14.7006 5.21044C14.8263 5.21012 14.9372 5.18209 15.0333 5.12636C15.133 5.07062 15.2123 4.99644 15.2712 4.90382C15.3302 4.8075 15.3595 4.69646 15.3591 4.5707C15.3588 4.44495 15.3289 4.33591 15.2695 4.2436C15.2101 4.15128 15.1304 4.07937 15.0304 4.02784C14.9341 3.97261 14.8231 3.94516 14.6973 3.94549C14.5678 3.94582 14.4533 3.97386 14.3535 4.0296C14.2538 4.08164 14.1745 4.15397 14.1155 4.2466C14.0566 4.33922 14.0273 4.44841 14.0276 4.57416C14.0279 4.69992 14.0578 4.8108 14.1173 4.90681C14.1767 4.99913 14.2564 5.0729 14.3564 5.12812C14.4564 5.18334 14.5711 5.21078 14.7006 5.21044ZM18.4627 7.7306C18.1335 7.73145 17.8448 7.64343 17.5965 7.46654C17.3519 7.28594 17.1608 7.03677 17.0231 6.71904C16.8854 6.3976 16.816 6.02421 16.8149 5.59886C16.8138 5.17351 16.8813 4.80161 17.0173 4.48317C17.1533 4.16103 17.3431 3.91087 17.5868 3.7327C17.8304 3.55453 18.1169 3.46501 18.446 3.46416C18.7752 3.4633 19.0621 3.55133 19.3067 3.72823C19.5513 3.90513 19.7424 4.1543 19.8801 4.47573C20.0215 4.79345 20.0927 5.16499 20.0938 5.59034C20.0949 6.01569 20.0275 6.38944 19.8914 6.71158C19.7554 7.03372 19.5637 7.28389 19.3164 7.46207C19.0727 7.64024 18.7882 7.72975 18.4627 7.7306ZM18.4614 7.22572C18.6833 7.22515 18.8754 7.15807 19.0378 7.02449C19.2002 6.88722 19.3255 6.69641 19.4136 6.45206C19.5055 6.20771 19.5509 5.92094 19.5501 5.59175C19.5492 5.26257 19.5023 4.97604 19.4092 4.73217C19.3198 4.48828 19.1917 4.29998 19.0249 4.16726C18.8618 4.03453 18.6693 3.96845 18.4474 3.96903C18.2254 3.96961 18.0333 4.03668 17.8709 4.17026C17.7085 4.30384 17.5814 4.4928 17.4895 4.73716C17.4014 4.9815 17.3578 5.26827 17.3586 5.59745C17.3595 5.92294 17.4046 6.20762 17.494 6.4515C17.5871 6.69538 17.7152 6.88553 17.8783 7.02196C18.0451 7.15838 18.2394 7.2263 18.4614 7.22572ZM20.9238 7.65762L20.9131 3.52432L21.4568 3.52291L21.4662 7.15688L23.2804 7.15217L23.2817 7.65149L20.9238 7.65762Z" fill="#90A3BF"/>
<path d="M35.5319 1.41231C33.3443 1.41799 31.5736 3.19798 31.5793 5.3855C31.585 7.57302 33.3649 9.34378 35.5525 9.3381C37.74 9.33241 39.5107 7.55242 39.5051 5.3649C39.4994 3.17739 37.7233 1.40661 35.5319 1.41231Z" fill="#90A3BF"/>
<rect x="32.3636" y="2.2132" width="6.34065" height="6.34065" rx="3.17033" transform="rotate(-0.148906 32.3636 2.2132)" fill="white"/>
<path d="M35.5359 2.99742C34.2234 3.00083 33.161 4.06883 33.1644 5.38134C33.1678 6.69385 34.2358 7.75631 35.5483 7.7529C36.8608 7.74948 37.9233 6.68149 37.9199 5.36898C37.9164 4.05647 36.8508 2.994 35.5359 2.99742Z" fill="#90A3BF"/>
<rect x="33.9529" y="3.79407" width="3.17033" height="3.17033" rx="1.58516" transform="rotate(-0.148906 33.9529 3.79407)" fill="white"/>
<rect x="35.151" y="7.35767" width="0.792582" height="1.58516" transform="rotate(-0.148906 35.151 7.35767)" fill="#90A3BF"/>
<rect x="37.5226" y="4.97363" width="1.58516" height="0.792582" transform="rotate(-0.148906 37.5226 4.97363)" fill="#90A3BF"/>
<rect x="31.9746" y="4.98816" width="1.58516" height="0.792582" transform="rotate(-0.148906 31.9746 4.98816)" fill="#90A3BF"/>
<path d="M43.9342 7.59784L43.9235 3.46454L44.4228 3.46324L45.9765 5.6618L45.7213 5.66246L47.2523 3.45589L47.7517 3.45459L47.7624 7.58789L47.2131 7.58932L47.2042 4.14398L47.3985 4.2045L45.8673 6.37224L45.823 6.37235L44.2972 4.21256L44.469 4.15109L44.478 7.59643L43.9342 7.59784ZM49.4962 7.64996C49.3001 7.65047 49.1262 7.61579 48.9744 7.5459C48.8262 7.47231 48.7095 7.37275 48.6241 7.24722C48.5387 7.11798 48.4957 6.97015 48.4953 6.8037C48.4949 6.64466 48.5278 6.50217 48.5941 6.37625C48.664 6.24661 48.771 6.13722 48.915 6.04807C49.0627 5.95892 49.2475 5.89556 49.4693 5.858L50.5785 5.67203L50.5796 6.10478L49.5869 6.2738C49.3947 6.30759 49.2543 6.36898 49.1657 6.45798C49.0809 6.54697 49.0386 6.65619 49.039 6.78565C49.0393 6.9077 49.0876 7.00929 49.184 7.09042C49.2841 7.17153 49.4081 7.21189 49.5561 7.21151C49.7447 7.21102 49.9073 7.17176 50.044 7.09373C50.1843 7.01199 50.2932 6.9026 50.3705 6.76554C50.4515 6.62848 50.4918 6.47673 50.4913 6.31029L50.4894 5.5502C50.4889 5.38746 50.4276 5.25631 50.3053 5.15677C50.1866 5.05351 50.0293 5.00214 49.8333 5.00265C49.6631 5.00309 49.5116 5.04787 49.3787 5.13698C49.2494 5.22239 49.1536 5.3373 49.0911 5.48171L48.6411 5.24986C48.6962 5.11286 48.7847 4.99058 48.9064 4.883C49.0282 4.77172 49.1704 4.68443 49.333 4.62113C49.4955 4.55783 49.6656 4.52595 49.8431 4.52549C50.0724 4.52489 50.2741 4.56875 50.4482 4.65707C50.6223 4.74168 50.7576 4.86154 50.8542 5.01664C50.9544 5.16802 51.0048 5.34543 51.0053 5.54886L51.0106 7.57945L50.5057 7.58076L50.5043 7.01486L50.5987 7.0479C50.5361 7.16642 50.4513 7.27021 50.3443 7.35926C50.2372 7.4483 50.1117 7.51891 49.9676 7.57106C49.8234 7.62322 49.6663 7.64952 49.4962 7.64996ZM51.8106 7.57737L51.8028 4.58697L52.3077 4.58566L52.3092 5.1682L52.2259 5.11849C52.2994 4.92966 52.4173 4.78325 52.5798 4.67927C52.746 4.57157 52.94 4.51744 53.1619 4.51686C53.3765 4.5163 53.5671 4.56389 53.7338 4.65962C53.9042 4.75535 54.0377 4.88816 54.1343 5.05805C54.2346 5.22793 54.285 5.42013 54.2856 5.63465L54.2906 7.57092L53.7691 7.57228L53.7645 5.80245C53.764 5.63601 53.7341 5.49554 53.6746 5.38103C53.6151 5.26652 53.5298 5.17798 53.4187 5.11539C53.3113 5.04909 53.1873 5.01612 53.0467 5.01649C52.9062 5.01685 52.7805 5.05047 52.6697 5.11733C52.5626 5.18049 52.4778 5.27133 52.4152 5.38985C52.3526 5.50467 52.3216 5.64346 52.322 5.8062L52.3266 7.57603L51.8106 7.57737ZM56.0888 7.63283C55.8742 7.63339 55.6799 7.58396 55.5058 7.48454C55.3354 7.38512 55.2019 7.24677 55.1053 7.06948C55.0124 6.88848 54.9656 6.68148 54.965 6.44846L54.9601 4.57876L55.4761 4.57742L55.4808 6.39164C55.4812 6.53958 55.5111 6.66896 55.5706 6.77977C55.6338 6.89057 55.719 6.97726 55.8265 7.03986C55.9376 7.10245 56.0634 7.13357 56.204 7.1332C56.3445 7.13284 56.4684 7.10107 56.5755 7.03792C56.6863 6.97475 56.7711 6.88391 56.83 6.7654C56.8925 6.64688 56.9236 6.50625 56.9232 6.3435L56.9186 4.57367L57.4401 4.57232L57.4479 7.56272L56.943 7.56403L56.9415 6.98149L57.0248 7.0312C56.9551 7.22002 56.8352 7.36828 56.6654 7.47598C56.4992 7.57998 56.307 7.63226 56.0888 7.63283ZM59.124 7.62494C58.928 7.62545 58.754 7.59076 58.6022 7.52088C58.4541 7.44729 58.3373 7.34773 58.2519 7.2222C58.1665 7.09296 58.1236 6.94512 58.1231 6.77868C58.1227 6.61964 58.1556 6.47715 58.2219 6.35122C58.2918 6.22159 58.3988 6.1122 58.5428 6.02305C58.6905 5.9339 58.8753 5.87054 59.0971 5.83298L60.2063 5.64701L60.2074 6.07976L59.2147 6.24878C59.0225 6.28257 58.8821 6.34396 58.7936 6.43296C58.7087 6.52195 58.6665 6.63117 58.6668 6.76063C58.6671 6.88268 58.7155 6.98427 58.8118 7.06539C58.9119 7.14651 59.0359 7.18687 59.1839 7.18649C59.3725 7.18599 59.5352 7.14674 59.6718 7.06871C59.8121 6.98697 59.921 6.87758 59.9983 6.74052C60.0793 6.60346 60.1196 6.45171 60.1192 6.28526L60.1172 5.52518C60.1168 5.36244 60.0554 5.23129 59.9331 5.13174C59.8145 5.02849 59.6571 4.97711 59.4611 4.97762C59.291 4.97807 59.1394 5.02285 59.0065 5.11196C58.8773 5.19737 58.7814 5.31228 58.7189 5.45669L58.2689 5.22484C58.324 5.08784 58.4125 4.96555 58.5343 4.85798C58.656 4.7467 58.7982 4.65941 58.9608 4.59611C59.1234 4.53281 59.2934 4.50092 59.4709 4.50046C59.7003 4.49987 59.902 4.54373 60.076 4.63204C60.2501 4.71666 60.3854 4.83652 60.482 4.99162C60.5822 5.143 60.6326 5.32041 60.6332 5.52384L60.6384 7.55443L60.1336 7.55574L60.1321 6.98984L60.2265 7.02288C60.1639 7.1414 60.0791 7.24519 59.9721 7.33424C59.8651 7.42328 59.7395 7.49388 59.5954 7.54604C59.4513 7.5982 59.2941 7.6245 59.124 7.62494ZM61.4384 7.55235L61.4275 3.35247L61.9435 3.35113L61.9544 7.55101L61.4384 7.55235Z" fill="#90A3BF"/>
<path d="M74.3681 1.31127C73.3298 1.31397 72.4879 2.16026 72.4906 3.19854C72.4933 4.217 73.2919 5.03921 74.3303 5.07218C74.362 5.06814 74.3937 5.06805 74.4175 5.07195C74.4254 5.07193 74.4294 5.07192 74.4373 5.0719C74.4413 5.07189 74.4413 5.07189 74.4452 5.07188C75.4596 5.03358 76.254 4.20723 76.2554 3.18875C76.2527 2.15047 75.4064 1.30857 74.3681 1.31127Z" fill="#90A3BF"/>
<path d="M76.3938 6.12097C75.2863 5.38674 73.4831 5.39143 72.3715 6.13142C71.8691 6.46958 71.5929 6.92603 71.5941 7.41347C71.5954 7.9009 71.874 8.35195 72.3742 8.68354C72.9299 9.05461 73.6596 9.23897 74.3888 9.23707C75.1179 9.23518 75.8466 9.04703 76.4005 8.67307C76.8989 8.33493 77.1751 7.88244 77.1739 7.39104C77.1686 6.90361 76.894 6.45255 76.3938 6.12097Z" fill="#90A3BF"/>
<path d="M78.7288 3.41612C78.7942 4.18475 78.2491 4.85987 77.4924 4.95298C77.4885 4.95299 77.4885 4.95299 77.4845 4.953L77.4726 4.95303C77.4488 4.95309 77.4251 4.95315 77.4053 4.96113C77.0209 4.98195 76.6679 4.86001 76.4018 4.63482C76.809 4.26917 77.0414 3.72168 76.9923 3.12737C76.9637 2.80645 76.852 2.51348 76.6849 2.26425C76.8353 2.18857 77.0096 2.14056 77.1879 2.12425C77.9644 2.05486 78.6594 2.63164 78.7288 3.41612Z" fill="#90A3BF"/>
<path d="M79.531 7.07972C79.5003 7.4642 79.2554 7.79773 78.8439 8.02468C78.4482 8.24367 77.9491 8.348 77.4537 8.3374C77.7384 8.07907 77.904 7.75765 77.9348 7.41676C77.9731 6.92525 77.7381 6.45428 77.2695 6.07902C77.0034 5.86967 76.6939 5.70404 76.3567 5.58206C77.2319 5.32616 78.334 5.4937 79.0131 6.03882C79.3784 6.33113 79.5657 6.69919 79.531 7.07972Z" fill="#90A3BF"/>
<path d="M84.7728 7.55825C84.5065 7.55894 84.2696 7.50037 84.0622 7.38255C83.8585 7.26472 83.6971 7.10425 83.5783 6.90113C83.4594 6.69431 83.3996 6.45959 83.3989 6.19699C83.3985 6.05274 83.4148 5.91029 83.4477 5.76966C83.4806 5.62902 83.5339 5.48648 83.6075 5.34204C83.6811 5.1976 83.775 5.04755 83.8893 4.89191L85.0504 3.35762L85.7051 3.35592L84.284 5.21267L84.1841 5.20184C84.2394 5.12772 84.3003 5.07023 84.3668 5.02937C84.4369 4.9885 84.5108 4.95872 84.5885 4.94003C84.6698 4.92132 84.7548 4.91185 84.8436 4.91162C85.0877 4.91099 85.3061 4.96775 85.4987 5.08191C85.695 5.19236 85.8489 5.34546 85.9604 5.5412C86.0756 5.73694 86.1335 5.96241 86.1341 6.21762C86.1348 6.47283 86.0762 6.7023 85.9584 6.90604C85.8406 7.10608 85.6782 7.26554 85.4714 7.38444C85.2683 7.49963 85.0354 7.55756 84.7728 7.55825ZM84.7715 7.07002C84.9269 7.06961 85.0655 7.03411 85.1874 6.96352C85.3092 6.88923 85.4051 6.78727 85.4751 6.65763C85.5487 6.52798 85.5853 6.38364 85.5849 6.22459C85.5845 6.05815 85.549 5.91399 85.4784 5.79212C85.4078 5.66655 85.3113 5.56693 85.1891 5.49327C85.0668 5.41962 84.9262 5.383 84.7671 5.38341C84.6118 5.38381 84.4713 5.42116 84.3458 5.49547C84.2202 5.56977 84.1225 5.66989 84.0525 5.79582C83.9826 5.91806 83.9478 6.06241 83.9482 6.22885C83.9486 6.38789 83.9842 6.53205 84.0548 6.66132C84.1291 6.79058 84.2274 6.89204 84.3496 6.9657C84.4755 7.03565 84.6162 7.07042 84.7715 7.07002ZM87.8434 7.48369L87.8326 3.35039L89.2918 3.3466C89.5655 3.34588 89.806 3.39704 90.0134 3.50007C90.2208 3.60309 90.3821 3.75062 90.4973 3.94266C90.6161 4.13468 90.6759 4.36015 90.6766 4.61906C90.6772 4.87797 90.6186 5.10374 90.5008 5.29638C90.3866 5.48531 90.2261 5.63368 90.0193 5.74148C89.8161 5.84557 89.5758 5.89798 89.2984 5.8987L88.383 5.90108L88.3871 7.48228L87.8434 7.48369ZM88.3817 5.40176L89.3138 5.39933C89.4802 5.3989 89.6244 5.36709 89.7463 5.30389C89.8682 5.2407 89.9622 5.14983 90.0285 5.0313C90.0948 4.91277 90.1277 4.77583 90.1273 4.62049C90.1269 4.46144 90.0933 4.32468 90.0264 4.21019C89.9595 4.092 89.8649 4.00163 89.7427 3.93907C89.6205 3.87651 89.4762 3.84545 89.3097 3.84588L88.3777 3.8483L88.3817 5.40176ZM92.626 7.53784C92.3375 7.53859 92.0802 7.47083 91.8543 7.33456C91.6283 7.1983 91.4503 7.01197 91.3202 6.77559C91.1901 6.53551 91.1247 6.26753 91.1239 5.97163C91.1232 5.67203 91.1853 5.40556 91.3105 5.17222C91.4393 4.93887 91.6127 4.75533 91.8306 4.62161C92.0521 4.48418 92.2998 4.41511 92.5735 4.4144C92.7954 4.41382 92.9915 4.454 93.1619 4.53493C93.3359 4.61215 93.4823 4.71903 93.601 4.85557C93.7234 4.98841 93.8163 5.14167 93.8796 5.31534C93.9466 5.48531 93.9804 5.66276 93.9809 5.84769C93.981 5.88838 93.9774 5.93462 93.9701 5.98643C93.9666 6.03452 93.9611 6.08077 93.9539 6.12517L91.5016 6.13154L91.5005 5.6877L93.6531 5.6821L93.4095 5.88247C93.4423 5.69005 93.4234 5.51811 93.3527 5.36664C93.282 5.21518 93.1781 5.09524 93.0411 5.00683C92.904 4.91841 92.7485 4.87443 92.5747 4.87489C92.4008 4.87534 92.2419 4.92014 92.0979 5.00928C91.9539 5.09842 91.8414 5.22632 91.7605 5.39297C91.6832 5.55592 91.6523 5.75018 91.6677 5.97576C91.6534 6.19403 91.6872 6.38627 91.769 6.5525C91.8545 6.71502 91.9732 6.84232 92.1251 6.9344C92.2807 7.02276 92.4491 7.06671 92.6303 7.06624C92.83 7.06572 92.9982 7.01905 93.1348 6.92622C93.2714 6.8334 93.3821 6.71475 93.4668 6.57028L93.9001 6.79108C93.8413 6.92809 93.7491 7.05408 93.6237 7.16907C93.5019 7.28035 93.356 7.3695 93.1861 7.43651C93.0198 7.50352 92.8331 7.5373 92.626 7.53784ZM96.0783 7.52886C95.7898 7.52961 95.5289 7.46371 95.2955 7.33117C95.0621 7.19492 94.8767 7.00862 94.7392 6.77226C94.6018 6.53589 94.5327 6.26792 94.5319 5.96832C94.5311 5.66873 94.597 5.40225 94.7295 5.16888C94.8658 4.93551 95.0502 4.75009 95.2829 4.61264C95.5156 4.47518 95.778 4.40607 96.0702 4.40531C96.3587 4.40456 96.6196 4.47231 96.853 4.60855C97.0864 4.7411 97.2699 4.92371 97.4037 5.15638C97.5411 5.38905 97.6103 5.65702 97.611 5.96032C97.6118 6.26361 97.5423 6.5338 97.4023 6.77088C97.2624 7.00427 97.0761 7.18969 96.8434 7.32714C96.6144 7.46089 96.3594 7.52813 96.0783 7.52886ZM96.077 7.02954C96.2619 7.02906 96.4283 6.98239 96.576 6.88954C96.7274 6.79668 96.8454 6.66877 96.9301 6.5058C97.0184 6.34283 97.0623 6.16148 97.0618 5.96175C97.0613 5.75832 97.0164 5.57905 96.9272 5.42393C96.8418 5.26511 96.7231 5.13966 96.5712 5.04759C96.423 4.9518 96.2564 4.90415 96.0715 4.90463C95.8829 4.90512 95.7128 4.95365 95.5614 5.05021C95.4137 5.14306 95.2957 5.26913 95.2073 5.4284C95.119 5.58398 95.0751 5.76348 95.0756 5.96691C95.0761 6.16664 95.121 6.34776 95.2102 6.51027C95.2993 6.67278 95.418 6.80008 95.5662 6.89216C95.7181 6.98424 95.8884 7.03003 96.077 7.02954ZM98.2908 8.56615L98.2801 4.46614L98.785 4.46483L98.7867 5.10841L98.7198 4.98097C98.8303 4.80315 98.9815 4.6622 99.1736 4.55814C99.3657 4.45038 99.5856 4.39617 99.8334 4.39553C100.115 4.3948 100.366 4.46257 100.588 4.59885C100.814 4.73511 100.992 4.92143 101.123 5.15782C101.253 5.3905 101.318 5.65664 101.319 5.95623C101.32 6.24843 101.256 6.51305 101.127 6.75011C100.998 6.98716 100.821 7.17441 100.596 7.31184C100.374 7.44927 100.121 7.51836 99.836 7.5191C99.5956 7.51972 99.3754 7.46666 99.1753 7.35992C98.979 7.25317 98.827 7.10191 98.7192 6.90616L98.8022 6.81718L98.8068 8.56481L98.2908 8.56615ZM99.7958 7.01987C99.9845 7.01938 100.153 6.97271 100.3 6.87986C100.448 6.78701 100.562 6.66095 100.643 6.5017C100.728 6.33873 100.77 6.15739 100.77 5.95766C100.769 5.75053 100.726 5.5694 100.641 5.41428C100.559 5.25545 100.444 5.12999 100.296 5.03791C100.147 4.94212 99.979 4.89448 99.7903 4.89497C99.6017 4.89546 99.4317 4.94214 99.2803 5.035C99.1326 5.12785 99.0145 5.25576 98.9262 5.41874C98.8415 5.578 98.7995 5.75935 98.8 5.96278C98.8005 6.16251 98.8435 6.34363 98.929 6.50615C99.0182 6.66497 99.1369 6.79042 99.2851 6.8825C99.437 6.97457 99.6072 7.02036 99.7958 7.01987ZM101.999 7.4469L101.988 3.24702L102.504 3.24568L102.515 7.44556L101.999 7.4469ZM104.692 7.50648C104.403 7.50723 104.146 7.43947 103.92 7.3032C103.694 7.16694 103.516 6.98062 103.386 6.74423C103.256 6.50416 103.191 6.23617 103.19 5.94027C103.189 5.64068 103.251 5.37421 103.376 5.14086C103.505 4.90751 103.679 4.72397 103.897 4.59025C104.118 4.45282 104.366 4.38375 104.639 4.38304C104.861 4.38246 105.057 4.42264 105.228 4.50357C105.402 4.58079 105.548 4.68767 105.667 4.82422C105.789 4.95705 105.882 5.11031 105.946 5.28398C106.013 5.45395 106.046 5.6314 106.047 5.81634C106.047 5.85702 106.043 5.90327 106.036 5.95507C106.032 6.00316 106.027 6.04941 106.02 6.09381L103.568 6.10018L103.566 5.65634L105.719 5.65075L105.475 5.85111C105.508 5.65869 105.489 5.48675 105.419 5.33529C105.348 5.18382 105.244 5.06388 105.107 4.97547C104.97 4.88706 104.814 4.84308 104.641 4.84353C104.467 4.84398 104.308 4.88878 104.164 4.97792C104.02 5.06706 103.907 5.19496 103.826 5.36162C103.749 5.52456 103.718 5.71882 103.734 5.94441C103.719 6.16267 103.753 6.35491 103.835 6.52114C103.92 6.68367 104.039 6.81096 104.191 6.90304C104.347 6.9914 104.515 7.03535 104.696 7.03488C104.896 7.03436 105.064 6.98769 105.201 6.89487C105.337 6.80204 105.448 6.6834 105.533 6.53892L105.966 6.75972C105.907 6.89673 105.815 7.02272 105.69 7.13771C105.568 7.24899 105.422 7.33814 105.252 7.40516C105.086 7.47217 104.899 7.50594 104.692 7.50648Z" fill="#90A3BF"/>
</svg>
