<svg width="108" height="10" viewBox="0 0 108 10" fill="none" xmlns="http://www.w3.org/2000/svg">
<path d="M9.42755 4.02615L8.63394 3.63192C8.48713 3.56097 8.30498 3.61692 8.23403 3.76373C8.15913 3.91452 8.21903 4.09269 8.36584 4.16365L8.99676 4.47508L9.00169 6.3733L7.51562 6.38113L7.50505 2.3152C7.50299 1.52262 6.97093 1.12771 6.31309 1.12942L3.14278 1.13766C2.48494 1.13937 1.95494 1.53704 1.957 2.32962L1.97373 8.76932L1.3793 8.77087C1.21682 8.77129 1.08243 8.90638 1.08285 9.06886C1.08328 9.23133 1.21837 9.36572 1.38084 9.3653L8.11777 9.34779C8.28024 9.34737 8.41463 9.21228 8.41421 9.0498C8.41379 8.88732 8.2787 8.75294 8.11622 8.75336L7.52179 8.7549L7.51716 6.97556L9.30045 6.96697C9.4669 6.96653 9.59732 6.83145 9.5969 6.66898L9.59072 4.29124C9.59043 4.18028 9.52676 4.07741 9.42755 4.02615ZM2.94967 3.07603C2.94824 2.52519 3.28457 2.32617 3.69671 2.3251L5.7693 2.31971C6.17748 2.31865 6.51484 2.51592 6.51627 3.06676L6.51754 3.5542C6.51896 4.10108 6.18263 4.3001 5.77049 4.30117L3.70186 4.30654C3.28972 4.30761 2.95236 4.11035 2.95092 3.5595L2.94967 3.07603ZM3.15333 5.19963L4.3422 5.19654C4.50468 5.19611 4.63977 5.3305 4.64019 5.49298C4.64061 5.65546 4.50622 5.79055 4.34375 5.79097L3.15488 5.79406C2.9924 5.79448 2.85731 5.66009 2.85689 5.49762C2.85647 5.33514 2.99085 5.20005 3.15333 5.19963Z" fill="#90A3BF"/>
<path d="M13.9744 7.31698L15.3955 5.45467L15.4954 5.46551C15.4401 5.53963 15.3792 5.59897 15.3127 5.64352C15.2463 5.68438 15.1724 5.71417 15.091 5.73287C15.0134 5.75157 14.9284 5.76103 14.8359 5.76127C14.5918 5.76191 14.3716 5.707 14.1752 5.59655C13.9826 5.48239 13.8287 5.32744 13.7135 5.13171C13.6021 4.93227 13.546 4.70494 13.5453 4.44973C13.5447 4.19452 13.6033 3.9669 13.7211 3.76686C13.8389 3.56682 14.0013 3.4092 14.2081 3.29401C14.4149 3.17511 14.6478 3.11532 14.9067 3.11465C15.173 3.11396 15.408 3.17253 15.6118 3.29036C15.8192 3.40448 15.9823 3.56495 16.1012 3.77177C16.2201 3.97489 16.2799 4.2096 16.2806 4.47591C16.281 4.62016 16.2647 4.7626 16.2318 4.90324C16.1989 5.04388 16.1456 5.18642 16.072 5.33086C16.0021 5.47529 15.9082 5.62533 15.7902 5.78099L14.6291 7.31528L13.9744 7.31698ZM14.9123 5.28394C15.0714 5.28353 15.2118 5.24802 15.3337 5.17743C15.4593 5.10313 15.557 5.00301 15.627 4.87707C15.6969 4.74743 15.7317 4.60309 15.7313 4.44405C15.7308 4.27761 15.6935 4.13161 15.6192 4.00604C15.5486 3.88047 15.4521 3.78085 15.3299 3.7072C15.2076 3.63354 15.067 3.59692 14.9079 3.59733C14.7526 3.59774 14.614 3.63508 14.4921 3.70937C14.3703 3.78366 14.2725 3.88378 14.1989 4.00973C14.1289 4.13567 14.0942 4.28186 14.0946 4.4483C14.095 4.60735 14.1305 4.75151 14.2011 4.88078C14.2717 5.00635 14.3682 5.10597 14.4904 5.17962C14.6163 5.24957 14.757 5.28434 14.9123 5.28394ZM18.5996 7.37153C18.2705 7.37239 17.9817 7.28437 17.7335 7.10748C17.4889 6.92688 17.2977 6.67771 17.1601 6.35998C17.0224 6.03854 16.953 5.66515 16.9519 5.2398C16.9508 4.81445 17.0182 4.44255 17.1543 4.12411C17.2903 3.80197 17.4801 3.55181 17.7238 3.37364C17.9674 3.19547 18.2538 3.10595 18.583 3.1051C18.9122 3.10424 19.1991 3.19226 19.4437 3.36917C19.6882 3.54607 19.8794 3.79524 20.017 4.11667C20.1584 4.43439 20.2297 4.80593 20.2308 5.23128C20.2319 5.65663 20.1644 6.03038 20.0284 6.35252C19.8924 6.67466 19.7007 6.92483 19.4534 7.10301C19.2097 7.28118 18.9251 7.37069 18.5996 7.37153ZM18.5983 6.86666C18.8203 6.86609 19.0124 6.79901 19.1748 6.66543C19.3372 6.52816 19.4625 6.33735 19.5506 6.093C19.6424 5.84865 19.6879 5.56188 19.6871 5.23269C19.6862 4.90351 19.6392 4.61698 19.5461 4.37311C19.4567 4.12922 19.3286 3.94092 19.1618 3.8082C18.9988 3.67547 18.8062 3.60939 18.5843 3.60997C18.3624 3.61055 18.1702 3.67762 18.0078 3.8112C17.8454 3.94477 17.7183 4.13374 17.6265 4.3781C17.5384 4.62244 17.4947 4.9092 17.4956 5.23839C17.4964 5.56388 17.5416 5.84856 17.631 6.09244C17.7241 6.33632 17.8522 6.52647 18.0153 6.6629C18.1821 6.79932 18.3764 6.86724 18.5983 6.86666ZM21.0608 7.29856L21.05 3.16526L21.5937 3.16385L21.6032 6.79782L23.4174 6.79311L23.4187 7.29243L21.0608 7.29856Z" fill="#90A3BF"/>
<g clip-path="url(#clip0_20_7803)">
<path d="M35.8366 1.05263C33.649 1.05831 31.8783 2.8383 31.884 5.02582C31.8896 7.21334 33.6696 8.9841 35.8572 8.97842C38.0447 8.97273 39.8154 7.19274 39.8097 5.00522C39.8041 2.81771 38.028 1.04693 35.8366 1.05263Z" fill="#90A3BF"/>
<rect x="32.6683" y="1.85352" width="6.34065" height="6.34065" rx="3.17033" transform="rotate(-0.148906 32.6683 1.85352)" fill="white"/>
<path d="M35.8407 2.63786C34.5282 2.64127 33.4658 3.70927 33.4692 5.02178C33.4726 6.33429 34.5406 7.39675 35.8531 7.39334C37.1656 7.38993 38.2281 6.32193 38.2247 5.00942C38.2213 3.69691 37.1556 2.63445 35.8407 2.63786Z" fill="#90A3BF"/>
<rect x="34.2577" y="3.43463" width="3.17033" height="3.17033" rx="1.58516" transform="rotate(-0.148906 34.2577 3.43463)" fill="white"/>
<rect x="35.4558" y="6.99817" width="0.792582" height="1.58516" transform="rotate(-0.148906 35.4558 6.99817)" fill="#90A3BF"/>
<rect x="37.8274" y="4.6142" width="1.58516" height="0.792582" transform="rotate(-0.148906 37.8274 4.6142)" fill="#90A3BF"/>
<rect x="32.2793" y="4.62866" width="1.58516" height="0.792582" transform="rotate(-0.148906 32.2793 4.62866)" fill="#90A3BF"/>
</g>
<path d="M44.2391 7.23828L44.2283 3.10498L46.9191 3.09799L46.9204 3.59731L44.7733 3.60289L44.7767 4.91223L46.8129 4.90694L46.8142 5.40627L44.778 5.41156L44.7815 6.73754L46.9286 6.73196L46.9299 7.23129L44.2391 7.23828ZM47.5426 7.2297L47.5317 3.02982L48.0477 3.02848L48.0586 7.22835L47.5426 7.2297ZM50.2353 7.28927C49.9468 7.29002 49.6896 7.22227 49.4636 7.086C49.2376 6.94974 49.0596 6.76341 48.9295 6.52703C48.7994 6.28695 48.734 6.01897 48.7332 5.72307C48.7325 5.42347 48.7946 5.157 48.9198 4.92366C49.0486 4.6903 49.222 4.50677 49.4399 4.37305C49.6614 4.23562 49.9091 4.16655 50.1828 4.16584C50.4047 4.16526 50.6008 4.20544 50.7712 4.28636C50.9452 4.36359 51.0916 4.47047 51.2103 4.60701C51.3327 4.73985 51.4256 4.8931 51.4889 5.06678C51.5559 5.23675 51.5897 5.4142 51.5902 5.59913C51.5903 5.63982 51.5867 5.68606 51.5794 5.73786C51.5759 5.78596 51.5704 5.83221 51.5632 5.87661L49.1109 5.88298L49.1098 5.43914L51.2624 5.43354L51.0188 5.63391C51.0516 5.44149 51.0327 5.26955 50.962 5.11808C50.8913 4.96662 50.7874 4.84668 50.6504 4.75827C50.5133 4.66985 50.3578 4.62587 50.184 4.62632C50.0101 4.62678 49.8512 4.67157 49.7072 4.76072C49.5632 4.84986 49.4507 4.97776 49.3698 5.14441C49.2925 5.30736 49.2616 5.50162 49.277 5.7272C49.2627 5.94547 49.2965 6.13771 49.3783 6.30394C49.4638 6.46646 49.5825 6.59376 49.7344 6.68583C49.89 6.7742 50.0584 6.81815 50.2396 6.81768C50.4393 6.81716 50.6075 6.77049 50.7441 6.67766C50.8807 6.58484 50.9914 6.46619 51.0761 6.32172L51.5094 6.54252C51.4506 6.67953 51.3584 6.80552 51.233 6.92051C51.1112 7.03179 50.9653 7.12093 50.7954 7.18795C50.6291 7.25496 50.4424 7.28874 50.2353 7.28927ZM53.6543 7.28039C53.3621 7.28115 53.1012 7.2134 52.8715 7.07714C52.6455 6.94088 52.4675 6.75456 52.3374 6.51818C52.2074 6.28179 52.142 6.01566 52.1412 5.71976C52.1404 5.42017 52.2044 5.15369 52.3333 4.92034C52.4621 4.68698 52.6392 4.50158 52.8645 4.36415C53.0934 4.2267 53.354 4.15759 53.6462 4.15684C53.8422 4.15633 54.0254 4.19099 54.1957 4.26082C54.3661 4.33065 54.5161 4.42458 54.6459 4.5426C54.7756 4.66063 54.8703 4.79908 54.9299 4.95797L54.47 5.18109C54.3993 5.02593 54.2917 4.90045 54.1472 4.80466C54.0027 4.70517 53.8361 4.65567 53.6475 4.65616C53.4663 4.65663 53.3018 4.70329 53.1541 4.79614C53.0101 4.88899 52.8957 5.01504 52.8111 5.17431C52.7264 5.33357 52.6844 5.51677 52.6849 5.72389C52.6854 5.92362 52.7284 6.10475 52.8139 6.26727C52.8994 6.4261 53.0144 6.55155 53.1589 6.64365C53.3071 6.73573 53.4718 6.78154 53.653 6.78106C53.8417 6.78057 54.008 6.73206 54.152 6.63552C54.296 6.53528 54.4029 6.40369 54.4727 6.24077L54.9338 6.47259C54.8751 6.62809 54.7811 6.76704 54.652 6.88943C54.5228 7.00812 54.3733 7.10283 54.2033 7.17355C54.0333 7.24427 53.8504 7.27988 53.6543 7.28039ZM56.8252 7.23886C56.533 7.23962 56.3071 7.15698 56.1477 6.99096C55.9919 6.82492 55.9136 6.59025 55.9128 6.28696L55.9087 4.71131L55.365 4.71273L55.3637 4.21895L55.4747 4.21866C55.6078 4.21831 55.7131 4.17735 55.7906 4.09578C55.8681 4.01421 55.9066 3.90684 55.9063 3.77369L55.9056 3.52958L56.4216 3.52824L56.4234 4.21619L57.0947 4.21445L57.096 4.70823L56.4247 4.70997L56.4287 6.26897C56.429 6.36884 56.444 6.45572 56.4738 6.52962C56.5073 6.6035 56.5611 6.66254 56.6351 6.70674C56.7092 6.74723 56.8073 6.76732 56.9293 6.767C56.9552 6.76693 56.9867 6.765 57.0237 6.76121C57.0643 6.7574 57.1013 6.75361 57.1346 6.74982L57.1358 7.20476C57.0877 7.21599 57.0341 7.22352 56.9749 7.22737C56.9158 7.23493 56.8658 7.23875 56.8252 7.23886ZM57.8098 7.20301L57.802 4.21261L58.3069 4.2113L58.3083 4.76056L58.2526 4.68303C58.3224 4.51271 58.4294 4.38667 58.5734 4.30492C58.7174 4.21948 58.893 4.17649 59.1002 4.17595L59.2832 4.17547L59.2845 4.6637L59.0238 4.66438C58.8129 4.66493 58.643 4.73195 58.5138 4.86544C58.3847 4.99523 58.3205 5.18033 58.3211 5.42075L58.3257 7.20167L57.8098 7.20301ZM59.7494 7.19797L59.7416 4.20757L60.2576 4.20623L60.2654 7.19663L59.7494 7.19797ZM59.7404 3.73044L59.7387 3.06467L60.2546 3.06333L60.2564 3.7291L59.7404 3.73044ZM62.4532 7.25752C62.161 7.25828 61.9001 7.19053 61.6704 7.05428C61.4444 6.91801 61.2664 6.73169 61.1363 6.49531C61.0062 6.25893 60.9408 5.99279 60.94 5.69689C60.9393 5.3973 61.0033 5.13082 61.1322 4.89747C61.261 4.66411 61.4381 4.47872 61.6633 4.34128C61.8923 4.20383 62.1529 4.13473 62.4451 4.13397C62.6411 4.13346 62.8243 4.16812 62.9946 4.23795C63.1649 4.30779 63.315 4.40171 63.4447 4.51974C63.5745 4.63776 63.6692 4.77621 63.7288 4.9351L63.2688 5.15822C63.1982 5.00306 63.0906 4.87758 62.9461 4.78179C62.8016 4.6823 62.635 4.6328 62.4464 4.63329C62.2651 4.63376 62.1007 4.68043 61.9529 4.77328C61.8089 4.86612 61.6946 4.99217 61.6099 5.15144C61.5253 5.3107 61.4832 5.4939 61.4838 5.70103C61.4843 5.90076 61.5273 6.08188 61.6128 6.24441C61.6983 6.40323 61.8133 6.52869 61.9577 6.62078C62.1059 6.71286 62.2707 6.75867 62.4519 6.7582C62.6405 6.75771 62.8068 6.70919 62.9508 6.61265C63.0948 6.51241 63.2017 6.38083 63.2716 6.2179L63.7327 6.44972C63.6739 6.60522 63.58 6.74417 63.4508 6.86656C63.3217 6.98526 63.1721 7.07996 63.0022 7.15068C62.8322 7.2214 62.6492 7.25701 62.4532 7.25752Z" fill="#90A3BF"/>
<path d="M74.673 0.951773C73.6347 0.954471 72.7928 1.80076 72.7955 2.83904C72.7982 3.8575 73.5969 4.67972 74.6352 4.71268C74.6669 4.70864 74.6986 4.70856 74.7224 4.71246C74.7304 4.71244 74.7343 4.71243 74.7422 4.71241C74.7462 4.7124 74.7462 4.7124 74.7502 4.71238C75.7646 4.67408 76.559 3.84773 76.5603 2.82926C76.5576 1.79098 75.7113 0.949075 74.673 0.951773Z" fill="#90A3BF"/>
<path d="M76.6988 5.76147C75.5912 5.02725 73.7881 5.03193 72.6764 5.77193C72.174 6.11008 71.8978 6.56653 71.8991 7.05397C71.9003 7.54141 72.1789 7.99245 72.6791 8.32404C73.2349 8.69511 73.9645 8.87947 74.6937 8.87758C75.4229 8.87568 76.1515 8.68753 76.7054 8.31358C77.2038 7.97543 77.4801 7.52294 77.4788 7.03154C77.4736 6.54412 77.1989 6.09306 76.6988 5.76147Z" fill="#90A3BF"/>
<path d="M79.0338 3.05662C79.0992 3.82526 78.554 4.50037 77.7974 4.59348C77.7934 4.59349 77.7934 4.59349 77.7894 4.5935L77.7775 4.59353C77.7538 4.5936 77.73 4.59366 77.7102 4.60164C77.3258 4.62245 76.9728 4.50052 76.7067 4.27532C77.114 3.90967 77.3463 3.36219 77.2972 2.76788C77.2687 2.44695 77.157 2.15399 76.9899 1.90476C77.1403 1.82907 77.3145 1.78106 77.4928 1.76475C78.2693 1.69536 78.9644 2.27214 79.0338 3.05662Z" fill="#90A3BF"/>
<path d="M79.8359 6.72022C79.8052 7.10471 79.5604 7.43823 79.1488 7.66519C78.7531 7.88417 78.254 7.98851 77.7586 7.97791C78.0433 7.71958 78.2089 7.39815 78.2397 7.05726C78.2781 6.56576 78.043 6.09478 77.5744 5.71952C77.3084 5.51018 76.9988 5.34454 76.6617 5.22256C77.5368 4.96666 78.6389 5.1342 79.318 5.67932C79.6834 5.97163 79.8706 6.33969 79.8359 6.72022Z" fill="#90A3BF"/>
<path d="M85.6768 7.13061L85.6743 6.17635L83.6437 6.18163L83.6425 5.73223L85.6549 2.99734L86.1764 2.99599L86.1835 5.72563L86.7217 5.72423L86.7229 6.17362L86.1847 6.17502L86.1872 7.12929L85.6768 7.13061ZM84.0536 5.92535L83.9754 5.73137L85.6731 5.72696L85.6672 3.45226L85.8282 3.49622L84.0536 5.92535ZM88.365 7.12363L88.3543 2.99033L89.8134 2.98654C90.0871 2.98582 90.3277 3.03698 90.5351 3.14001C90.7425 3.24303 90.9038 3.39056 91.0189 3.5826C91.1378 3.77462 91.1975 4.00009 91.1982 4.259C91.1989 4.51791 91.1403 4.74368 91.0224 4.93632C90.9083 5.12525 90.7478 5.27362 90.5409 5.38142C90.3378 5.48551 90.0975 5.53792 89.8201 5.53864L88.9046 5.54102L88.9088 7.12221L88.365 7.12363ZM88.9033 5.04169L89.8354 5.03927C90.0019 5.03884 90.146 5.00703 90.2679 4.94383C90.3898 4.88064 90.4839 4.78977 90.5502 4.67124C90.6164 4.55271 90.6494 4.41577 90.649 4.26043C90.6485 4.10138 90.6149 3.96462 90.548 3.85013C90.4811 3.73194 90.3866 3.64157 90.2644 3.57901C90.1422 3.51645 89.9978 3.48539 89.8314 3.48582L88.8993 3.48824L88.9033 5.04169ZM93.1476 7.17778C92.8591 7.17853 92.6019 7.11077 92.3759 6.9745C92.1499 6.83824 91.9719 6.65191 91.8419 6.41553C91.7118 6.17545 91.6464 5.90747 91.6456 5.61157C91.6448 5.31197 91.707 5.0455 91.8321 4.81216C91.961 4.5788 92.1344 4.39527 92.3522 4.26155C92.5738 4.12412 92.8214 4.05505 93.0951 4.05434C93.3171 4.05376 93.5132 4.09394 93.6835 4.17487C93.8576 4.25209 94.004 4.35897 94.1227 4.49551C94.2451 4.62835 94.3379 4.78161 94.4013 4.95528C94.4683 5.12525 94.502 5.3027 94.5025 5.48763C94.5026 5.52832 94.4991 5.57456 94.4918 5.62636C94.4882 5.67446 94.4828 5.72071 94.4755 5.76511L92.0233 5.77148L92.0221 5.32764L94.1748 5.32204L93.9312 5.52241C93.964 5.32999 93.945 5.15805 93.8743 5.00658C93.8037 4.85512 93.6998 4.73518 93.5627 4.64677C93.4256 4.55835 93.2702 4.51437 93.0963 4.51483C92.9225 4.51528 92.7636 4.56007 92.6195 4.64922C92.4755 4.73836 92.363 4.86626 92.2821 5.03291C92.2049 5.19586 92.1739 5.39012 92.1893 5.6157C92.1751 5.83397 92.2089 6.02621 92.2907 6.19244C92.3762 6.35496 92.4949 6.48226 92.6467 6.57434C92.8023 6.6627 92.9707 6.70665 93.152 6.70618C93.3517 6.70566 93.5199 6.65899 93.6565 6.56616C93.7931 6.47334 93.9037 6.35469 93.9884 6.21022L94.4218 6.43102C94.3629 6.56803 94.2708 6.69402 94.1453 6.80901C94.0236 6.92029 93.8777 7.00944 93.7077 7.07645C93.5415 7.14346 93.3548 7.17724 93.1476 7.17778ZM96.6 7.1688C96.3115 7.16955 96.0505 7.10365 95.8172 6.97111C95.5838 6.83486 95.3984 6.64856 95.2609 6.41219C95.1234 6.17583 95.0543 5.90786 95.0535 5.60826C95.0528 5.30867 95.1186 5.04219 95.2512 4.80882C95.3874 4.57545 95.5719 4.39003 95.8045 4.25257C96.0372 4.11512 96.2996 4.04601 96.5918 4.04525C96.8803 4.0445 97.1413 4.11225 97.3746 4.24849C97.608 4.38104 97.7916 4.56365 97.9253 4.79632C98.0628 5.02899 98.1319 5.29696 98.1327 5.60026C98.1335 5.90355 98.0639 6.17374 97.924 6.41082C97.784 6.64421 97.5977 6.82963 97.3651 6.96708C97.1361 7.10083 96.8811 7.16807 96.6 7.1688ZM96.5987 6.66948C96.7836 6.669 96.9499 6.62233 97.0976 6.52948C97.249 6.43662 97.3671 6.3087 97.4517 6.14574C97.54 5.98277 97.584 5.80142 97.5834 5.60169C97.5829 5.39826 97.5381 5.21899 97.4489 5.06387C97.3634 4.90505 97.2447 4.7796 97.0928 4.68753C96.9446 4.59174 96.7781 4.54409 96.5931 4.54457C96.4045 4.54506 96.2345 4.59359 96.0831 4.69015C95.9354 4.783 95.8174 4.90907 95.729 5.06834C95.6406 5.22392 95.5967 5.40342 95.5972 5.60685C95.5978 5.80658 95.6426 5.9877 95.7318 6.15021C95.821 6.31272 95.9397 6.44002 96.0879 6.5321C96.2398 6.62418 96.41 6.66997 96.5987 6.66948ZM98.8124 8.20609L98.8018 4.10608L99.3067 4.10477L99.3083 4.74835L99.2414 4.62091C99.3519 4.44309 99.5032 4.30214 99.6953 4.19808C99.8873 4.09032 100.107 4.03611 100.355 4.03547C100.636 4.03474 100.888 4.10251 101.11 4.23879C101.336 4.37505 101.514 4.56137 101.644 4.79776C101.774 5.03044 101.84 5.29658 101.84 5.59617C101.841 5.88837 101.777 6.15299 101.648 6.39005C101.52 6.6271 101.342 6.81435 101.117 6.95178C100.896 7.08921 100.642 7.1583 100.358 7.15904C100.117 7.15966 99.897 7.1066 99.697 6.99986C99.5007 6.89311 99.3486 6.74185 99.2409 6.5461L99.3239 6.45712L99.3284 8.20475L98.8124 8.20609ZM100.318 6.65981C100.506 6.65932 100.674 6.61265 100.822 6.5198C100.97 6.42695 101.084 6.30089 101.165 6.14164C101.25 5.97867 101.292 5.79733 101.291 5.5976C101.291 5.39047 101.248 5.20934 101.162 5.05422C101.08 4.89539 100.965 4.76993 100.817 4.67785C100.669 4.58206 100.501 4.53442 100.312 4.53491C100.123 4.5354 99.9533 4.58208 99.8019 4.67494C99.6542 4.76779 99.5362 4.8957 99.4478 5.05868C99.3632 5.21794 99.3211 5.39929 99.3216 5.60272C99.3222 5.80245 99.3652 5.98357 99.4507 6.14609C99.5398 6.30491 99.6585 6.43036 99.8067 6.52244C99.9586 6.61451 100.129 6.6603 100.318 6.65981ZM102.521 7.08684L102.51 2.88696L103.026 2.88562L103.037 7.0855L102.521 7.08684ZM105.214 7.14642C104.925 7.14717 104.668 7.07941 104.442 6.94314C104.216 6.80688 104.038 6.62055 103.908 6.38417C103.778 6.1441 103.712 5.87611 103.712 5.58021C103.711 5.28062 103.773 5.01415 103.898 4.7808C104.027 4.54745 104.2 4.36391 104.418 4.23019C104.64 4.09276 104.887 4.02369 105.161 4.02298C105.383 4.0224 105.579 4.06258 105.749 4.14351C105.924 4.22073 106.07 4.32761 106.189 4.46416C106.311 4.59699 106.404 4.75025 106.467 4.92392C106.534 5.09389 106.568 5.27134 106.568 5.45628C106.569 5.49696 106.565 5.54321 106.558 5.59501C106.554 5.6431 106.549 5.68935 106.541 5.73375L104.089 5.74012L104.088 5.29628L106.241 5.29069L105.997 5.49105C106.03 5.29863 106.011 5.12669 105.94 4.97523C105.87 4.82376 105.766 4.70382 105.629 4.61541C105.492 4.527 105.336 4.48302 105.162 4.48347C104.988 4.48392 104.829 4.52872 104.685 4.61786C104.541 4.707 104.429 4.8349 104.348 5.00156C104.271 5.1645 104.24 5.35876 104.255 5.58435C104.241 5.80261 104.275 5.99485 104.357 6.16108C104.442 6.32361 104.561 6.4509 104.713 6.54298C104.868 6.63134 105.037 6.67529 105.218 6.67482C105.418 6.6743 105.586 6.62763 105.722 6.5348C105.859 6.44198 105.97 6.32333 106.054 6.17886L106.488 6.39966C106.429 6.53667 106.337 6.66266 106.211 6.77765C106.089 6.88893 105.944 6.97808 105.774 7.0451C105.607 7.11211 105.421 7.14588 105.214 7.14642Z" fill="#90A3BF"/>
<defs>
<clipPath id="clip0_20_7803">
<rect width="9.51098" height="9.51098" fill="white" transform="translate(31.0791 0.272522) rotate(-0.148906)"/>
</clipPath>
</defs>
</svg>
